ISO-10303-21;
HEADER;
/* Generated by software containing ST-Developer
 * from STEP Tools, Inc. (www.steptools.com) 
 */
/* OPTION: using custom renumber hook */

FILE_DESCRIPTION(
/* description */ ('STEP AP242 Edition 2',
'CAx-IF Rec.Pracs.---Representation and Presentation of Product Manufa
cturing Information (PMI)---4.0---2014-10-13',
'CAx-IF Rec.Pracs.---3D Tessellated Geometry---0.4---2014-09-14','2;1',
'CAx-IF Rec.Pracs.---User Defined Attributes---1.5---2016-08-15'),
/* implementation_level */ '2;1');

FILE_NAME(
/* name */ 'N-Metheus - Top Right Front',
/* time_stamp */ '2026-01-30T20:52:42Z',
/* author */ (''),
/* organization */ (''),
/* preprocessor_version */ 'ST-DEVELOPER v20',
/* originating_system */ 'ONSHAPE BY PTC INC, 1.210',
/* authorisation */ '  ');

FILE_SCHEMA (('AP242_MANAGED_MODEL_BASED_3D_ENGINEERING_MIM_LF { 1 0 10303 442 3 1 4 }'));
ENDSEC;

DATA;
#10=SHAPE_REPRESENTATION_RELATIONSHIP('','',#1373,#11);
#11=ADVANCED_BREP_SHAPE_REPRESENTATION('',(#1371),#2248);
#12=B_SPLINE_CURVE_WITH_KNOTS('',3,(#2182,#2183,#2184,#2185,#2186,#2187,
#2188,#2189,#2190,#2191,#2192),.UNSPECIFIED.,.T.,.F.,(1,1,1,1,1,1,1,1,1,
1,1,1,1,1,1),(-0.00492516856910709,-0.00328344571273806,-0.00164172285636903,
0.,0.00164172285636903,0.00328344571273806,0.00492516856910709,0.00656689142547612,
0.00820861428184514,0.00985033713821417,0.0114920599945832,0.0131337828509522,
0.0147755057073213,0.0164172285636903,0.0180589514200593),.UNSPECIFIED.);
#13=DEGENERATE_TOROIDAL_SURFACE('',#1437,0.0104,0.015,.T.);
#14=SPHERICAL_SURFACE('',#1423,0.0254);
#15=CONICAL_SURFACE('',#1408,0.0154,0.785398163397448);
#16=ELLIPSE('',#1382,0.0507999999999986,0.0254);
#17=ELLIPSE('',#1384,0.0508,0.0254);
#18=ELLIPSE('',#1385,0.0507999999999989,0.0254);
#19=ELLIPSE('',#1387,0.0508000000000008,0.0254);
#20=ELLIPSE('',#1400,0.00650538238691624,0.0046);
#21=ELLIPSE('',#1403,0.00176776695296637,0.00125);
#22=ELLIPSE('',#1407,0.00650538238691624,0.0046);
#23=ELLIPSE('',#1443,0.03,0.015);
#24=CYLINDRICAL_SURFACE('',#1379,0.0254);
#25=CYLINDRICAL_SURFACE('',#1390,0.0254);
#26=CYLINDRICAL_SURFACE('',#1398,0.0046);
#27=CYLINDRICAL_SURFACE('',#1402,0.00125);
#28=CYLINDRICAL_SURFACE('',#1405,0.0046);
#29=CYLINDRICAL_SURFACE('',#1419,0.0254);
#30=CYLINDRICAL_SURFACE('',#1428,0.015);
#31=CYLINDRICAL_SURFACE('',#1439,0.0254);
#32=CYLINDRICAL_SURFACE('',#1442,0.015);
#33=CYLINDRICAL_SURFACE('',#1457,0.0021);
#34=CYLINDRICAL_SURFACE('',#1460,0.0293999999999962);
#35=CIRCLE('',#1376,0.015);
#36=CIRCLE('',#1380,0.0254);
#37=CIRCLE('',#1381,0.0254);
#38=CIRCLE('',#1383,0.0254);
#39=CIRCLE('',#1386,0.0254);
#40=CIRCLE('',#1391,0.0254);
#41=CIRCLE('',#1392,0.0254);
#42=CIRCLE('',#1399,0.0046);
#43=CIRCLE('',#1404,0.00125);
#44=CIRCLE('',#1406,0.0046);
#45=CIRCLE('',#1409,0.0210066017177982);
#46=CIRCLE('',#1410,0.0154);
#47=CIRCLE('',#1420,0.0254);
#48=CIRCLE('',#1421,0.0254);
#49=CIRCLE('',#1422,0.0254);
#50=CIRCLE('',#1424,0.0254);
#51=CIRCLE('',#1427,0.015);
#52=CIRCLE('',#1429,0.015);
#53=CIRCLE('',#1438,0.015);
#54=CIRCLE('',#1440,0.0254);
#55=CIRCLE('',#1441,0.0254);
#56=CIRCLE('',#1444,0.015);
#57=CIRCLE('',#1456,0.0293999999999962);
#58=CIRCLE('',#1458,0.0021);
#59=CIRCLE('',#1461,0.0293999999999962);
#60=ORIENTED_EDGE('',*,*,#444,.T.);
#61=ORIENTED_EDGE('',*,*,#445,.T.);
#62=ORIENTED_EDGE('',*,*,#446,.T.);
#63=ORIENTED_EDGE('',*,*,#447,.F.);
#64=ORIENTED_EDGE('',*,*,#448,.T.);
#65=ORIENTED_EDGE('',*,*,#449,.F.);
#66=ORIENTED_EDGE('',*,*,#450,.F.);
#67=ORIENTED_EDGE('',*,*,#451,.T.);
#68=ORIENTED_EDGE('',*,*,#452,.F.);
#69=ORIENTED_EDGE('',*,*,#451,.F.);
#70=ORIENTED_EDGE('',*,*,#453,.T.);
#71=ORIENTED_EDGE('',*,*,#454,.T.);
#72=ORIENTED_EDGE('',*,*,#455,.T.);
#73=ORIENTED_EDGE('',*,*,#456,.T.);
#74=ORIENTED_EDGE('',*,*,#457,.F.);
#75=ORIENTED_EDGE('',*,*,#458,.T.);
#76=ORIENTED_EDGE('',*,*,#459,.F.);
#77=ORIENTED_EDGE('',*,*,#460,.T.);
#78=ORIENTED_EDGE('',*,*,#461,.F.);
#79=ORIENTED_EDGE('',*,*,#462,.F.);
#80=ORIENTED_EDGE('',*,*,#463,.F.);
#81=ORIENTED_EDGE('',*,*,#464,.F.);
#82=ORIENTED_EDGE('',*,*,#465,.F.);
#83=ORIENTED_EDGE('',*,*,#466,.F.);
#84=ORIENTED_EDGE('',*,*,#467,.F.);
#85=ORIENTED_EDGE('',*,*,#468,.F.);
#86=ORIENTED_EDGE('',*,*,#469,.T.);
#87=ORIENTED_EDGE('',*,*,#470,.F.);
#88=ORIENTED_EDGE('',*,*,#471,.F.);
#89=ORIENTED_EDGE('',*,*,#449,.T.);
#90=ORIENTED_EDGE('',*,*,#472,.T.);
#91=ORIENTED_EDGE('',*,*,#473,.T.);
#92=ORIENTED_EDGE('',*,*,#474,.F.);
#93=ORIENTED_EDGE('',*,*,#444,.F.);
#94=ORIENTED_EDGE('',*,*,#475,.F.);
#95=ORIENTED_EDGE('',*,*,#471,.T.);
#96=ORIENTED_EDGE('',*,*,#476,.F.);
#97=ORIENTED_EDGE('',*,*,#453,.F.);
#98=ORIENTED_EDGE('',*,*,#450,.T.);
#99=ORIENTED_EDGE('',*,*,#477,.F.);
#100=ORIENTED_EDGE('',*,*,#478,.F.);
#101=ORIENTED_EDGE('',*,*,#479,.T.);
#102=ORIENTED_EDGE('',*,*,#480,.F.);
#103=ORIENTED_EDGE('',*,*,#481,.F.);
#104=ORIENTED_EDGE('',*,*,#482,.F.);
#105=ORIENTED_EDGE('',*,*,#483,.T.);
#106=ORIENTED_EDGE('',*,*,#484,.T.);
#107=ORIENTED_EDGE('',*,*,#485,.F.);
#108=ORIENTED_EDGE('',*,*,#486,.T.);
#109=ORIENTED_EDGE('',*,*,#487,.F.);
#110=ORIENTED_EDGE('',*,*,#488,.F.);
#111=ORIENTED_EDGE('',*,*,#489,.F.);
#112=ORIENTED_EDGE('',*,*,#490,.T.);
#113=ORIENTED_EDGE('',*,*,#491,.F.);
#114=ORIENTED_EDGE('',*,*,#492,.T.);
#115=ORIENTED_EDGE('',*,*,#493,.F.);
#116=ORIENTED_EDGE('',*,*,#494,.F.);
#117=ORIENTED_EDGE('',*,*,#495,.F.);
#118=ORIENTED_EDGE('',*,*,#496,.T.);
#119=ORIENTED_EDGE('',*,*,#497,.T.);
#120=ORIENTED_EDGE('',*,*,#498,.F.);
#121=ORIENTED_EDGE('',*,*,#499,.T.);
#122=ORIENTED_EDGE('',*,*,#500,.T.);
#123=ORIENTED_EDGE('',*,*,#501,.F.);
#124=ORIENTED_EDGE('',*,*,#502,.T.);
#125=ORIENTED_EDGE('',*,*,#503,.F.);
#126=ORIENTED_EDGE('',*,*,#504,.F.);
#127=ORIENTED_EDGE('',*,*,#505,.F.);
#128=ORIENTED_EDGE('',*,*,#506,.F.);
#129=ORIENTED_EDGE('',*,*,#507,.F.);
#130=ORIENTED_EDGE('',*,*,#504,.T.);
#131=ORIENTED_EDGE('',*,*,#508,.T.);
#132=ORIENTED_EDGE('',*,*,#509,.T.);
#133=ORIENTED_EDGE('',*,*,#510,.T.);
#134=ORIENTED_EDGE('',*,*,#511,.F.);
#135=ORIENTED_EDGE('',*,*,#512,.F.);
#136=ORIENTED_EDGE('',*,*,#513,.F.);
#137=ORIENTED_EDGE('',*,*,#514,.F.);
#138=ORIENTED_EDGE('',*,*,#509,.F.);
#139=ORIENTED_EDGE('',*,*,#497,.F.);
#140=ORIENTED_EDGE('',*,*,#515,.T.);
#141=ORIENTED_EDGE('',*,*,#516,.T.);
#142=ORIENTED_EDGE('',*,*,#517,.F.);
#143=ORIENTED_EDGE('',*,*,#518,.F.);
#144=ORIENTED_EDGE('',*,*,#519,.F.);
#145=ORIENTED_EDGE('',*,*,#516,.F.);
#146=ORIENTED_EDGE('',*,*,#520,.T.);
#147=ORIENTED_EDGE('',*,*,#521,.F.);
#148=ORIENTED_EDGE('',*,*,#522,.T.);
#149=ORIENTED_EDGE('',*,*,#488,.T.);
#150=ORIENTED_EDGE('',*,*,#523,.F.);
#151=ORIENTED_EDGE('',*,*,#498,.T.);
#152=ORIENTED_EDGE('',*,*,#517,.T.);
#153=ORIENTED_EDGE('',*,*,#519,.T.);
#154=ORIENTED_EDGE('',*,*,#524,.F.);
#155=ORIENTED_EDGE('',*,*,#525,.T.);
#156=ORIENTED_EDGE('',*,*,#489,.T.);
#157=ORIENTED_EDGE('',*,*,#522,.F.);
#158=ORIENTED_EDGE('',*,*,#525,.F.);
#159=ORIENTED_EDGE('',*,*,#526,.T.);
#160=ORIENTED_EDGE('',*,*,#527,.T.);
#161=ORIENTED_EDGE('',*,*,#485,.T.);
#162=ORIENTED_EDGE('',*,*,#528,.T.);
#163=ORIENTED_EDGE('',*,*,#490,.F.);
#164=ORIENTED_EDGE('',*,*,#527,.F.);
#165=ORIENTED_EDGE('',*,*,#529,.T.);
#166=ORIENTED_EDGE('',*,*,#530,.T.);
#167=ORIENTED_EDGE('',*,*,#486,.F.);
#168=ORIENTED_EDGE('',*,*,#531,.T.);
#169=ORIENTED_EDGE('',*,*,#532,.T.);
#170=ORIENTED_EDGE('',*,*,#533,.F.);
#171=ORIENTED_EDGE('',*,*,#483,.F.);
#172=ORIENTED_EDGE('',*,*,#530,.F.);
#173=ORIENTED_EDGE('',*,*,#534,.F.);
#174=ORIENTED_EDGE('',*,*,#493,.T.);
#175=ORIENTED_EDGE('',*,*,#535,.T.);
#176=ORIENTED_EDGE('',*,*,#536,.F.);
#177=ORIENTED_EDGE('',*,*,#537,.F.);
#178=ORIENTED_EDGE('',*,*,#537,.T.);
#179=ORIENTED_EDGE('',*,*,#538,.T.);
#180=ORIENTED_EDGE('',*,*,#539,.T.);
#181=ORIENTED_EDGE('',*,*,#540,.T.);
#182=ORIENTED_EDGE('',*,*,#541,.T.);
#183=ORIENTED_EDGE('',*,*,#494,.T.);
#184=ORIENTED_EDGE('',*,*,#542,.F.);
#185=ORIENTED_EDGE('',*,*,#543,.T.);
#186=ORIENTED_EDGE('',*,*,#540,.F.);
#187=ORIENTED_EDGE('',*,*,#544,.T.);
#188=ORIENTED_EDGE('',*,*,#545,.F.);
#189=ORIENTED_EDGE('',*,*,#546,.F.);
#190=ORIENTED_EDGE('',*,*,#547,.T.);
#191=ORIENTED_EDGE('',*,*,#462,.T.);
#192=ORIENTED_EDGE('',*,*,#544,.F.);
#193=ORIENTED_EDGE('',*,*,#548,.F.);
#194=ORIENTED_EDGE('',*,*,#549,.T.);
#195=ORIENTED_EDGE('',*,*,#550,.F.);
#196=ORIENTED_EDGE('',*,*,#551,.F.);
#197=ORIENTED_EDGE('',*,*,#552,.T.);
#198=ORIENTED_EDGE('',*,*,#553,.T.);
#199=ORIENTED_EDGE('',*,*,#542,.T.);
#200=ORIENTED_EDGE('',*,*,#554,.T.);
#201=ORIENTED_EDGE('',*,*,#533,.T.);
#202=ORIENTED_EDGE('',*,*,#555,.T.);
#203=ORIENTED_EDGE('',*,*,#491,.T.);
#204=ORIENTED_EDGE('',*,*,#541,.F.);
#205=ORIENTED_EDGE('',*,*,#543,.F.);
#206=ORIENTED_EDGE('',*,*,#553,.F.);
#207=ORIENTED_EDGE('',*,*,#556,.T.);
#208=ORIENTED_EDGE('',*,*,#557,.T.);
#209=ORIENTED_EDGE('',*,*,#558,.F.);
#210=ORIENTED_EDGE('',*,*,#549,.F.);
#211=ORIENTED_EDGE('',*,*,#559,.F.);
#212=ORIENTED_EDGE('',*,*,#560,.T.);
#213=ORIENTED_EDGE('',*,*,#495,.T.);
#214=ORIENTED_EDGE('',*,*,#523,.T.);
#215=ORIENTED_EDGE('',*,*,#487,.T.);
#216=ORIENTED_EDGE('',*,*,#528,.F.);
#217=ORIENTED_EDGE('',*,*,#484,.F.);
#218=ORIENTED_EDGE('',*,*,#560,.F.);
#219=ORIENTED_EDGE('',*,*,#561,.F.);
#220=ORIENTED_EDGE('',*,*,#562,.T.);
#221=ORIENTED_EDGE('',*,*,#496,.F.);
#222=ORIENTED_EDGE('',*,*,#563,.F.);
#223=ORIENTED_EDGE('',*,*,#505,.T.);
#224=ORIENTED_EDGE('',*,*,#507,.T.);
#225=ORIENTED_EDGE('',*,*,#514,.T.);
#226=ORIENTED_EDGE('',*,*,#564,.F.);
#227=ORIENTED_EDGE('',*,*,#565,.F.);
#228=ORIENTED_EDGE('',*,*,#510,.F.);
#229=ORIENTED_EDGE('',*,*,#566,.F.);
#230=ORIENTED_EDGE('',*,*,#506,.T.);
#231=ORIENTED_EDGE('',*,*,#563,.T.);
#232=ORIENTED_EDGE('',*,*,#567,.F.);
#233=ORIENTED_EDGE('',*,*,#568,.F.);
#234=ORIENTED_EDGE('',*,*,#569,.T.);
#235=ORIENTED_EDGE('',*,*,#570,.T.);
#236=ORIENTED_EDGE('',*,*,#502,.F.);
#237=ORIENTED_EDGE('',*,*,#570,.F.);
#238=ORIENTED_EDGE('',*,*,#571,.F.);
#239=ORIENTED_EDGE('',*,*,#572,.F.);
#240=ORIENTED_EDGE('',*,*,#499,.F.);
#241=ORIENTED_EDGE('',*,*,#573,.F.);
#242=ORIENTED_EDGE('',*,*,#500,.F.);
#243=ORIENTED_EDGE('',*,*,#572,.T.);
#244=ORIENTED_EDGE('',*,*,#574,.F.);
#245=ORIENTED_EDGE('',*,*,#511,.T.);
#246=ORIENTED_EDGE('',*,*,#508,.F.);
#247=ORIENTED_EDGE('',*,*,#503,.T.);
#248=ORIENTED_EDGE('',*,*,#566,.T.);
#249=ORIENTED_EDGE('',*,*,#575,.T.);
#250=ORIENTED_EDGE('',*,*,#568,.T.);
#251=ORIENTED_EDGE('',*,*,#501,.T.);
#252=ORIENTED_EDGE('',*,*,#573,.T.);
#253=ORIENTED_EDGE('',*,*,#576,.T.);
#254=ORIENTED_EDGE('',*,*,#577,.F.);
#255=ORIENTED_EDGE('',*,*,#512,.T.);
#256=ORIENTED_EDGE('',*,*,#564,.T.);
#257=ORIENTED_EDGE('',*,*,#513,.T.);
#258=ORIENTED_EDGE('',*,*,#577,.T.);
#259=ORIENTED_EDGE('',*,*,#481,.T.);
#260=ORIENTED_EDGE('',*,*,#578,.F.);
#261=ORIENTED_EDGE('',*,*,#515,.F.);
#262=ORIENTED_EDGE('',*,*,#562,.F.);
#263=ORIENTED_EDGE('',*,*,#479,.F.);
#264=ORIENTED_EDGE('',*,*,#539,.F.);
#265=ORIENTED_EDGE('',*,*,#579,.T.);
#266=ORIENTED_EDGE('',*,*,#580,.F.);
#267=ORIENTED_EDGE('',*,*,#581,.F.);
#268=ORIENTED_EDGE('',*,*,#582,.F.);
#269=ORIENTED_EDGE('',*,*,#547,.F.);
#270=ORIENTED_EDGE('',*,*,#445,.F.);
#271=ORIENTED_EDGE('',*,*,#474,.T.);
#272=ORIENTED_EDGE('',*,*,#583,.T.);
#273=ORIENTED_EDGE('',*,*,#584,.F.);
#274=ORIENTED_EDGE('',*,*,#520,.F.);
#275=ORIENTED_EDGE('',*,*,#578,.T.);
#276=ORIENTED_EDGE('',*,*,#585,.F.);
#277=ORIENTED_EDGE('',*,*,#586,.T.);
#278=ORIENTED_EDGE('',*,*,#587,.T.);
#279=ORIENTED_EDGE('',*,*,#588,.F.);
#280=ORIENTED_EDGE('',*,*,#458,.F.);
#281=ORIENTED_EDGE('',*,*,#589,.F.);
#282=ORIENTED_EDGE('',*,*,#580,.T.);
#283=ORIENTED_EDGE('',*,*,#475,.T.);
#284=ORIENTED_EDGE('',*,*,#447,.T.);
#285=ORIENTED_EDGE('',*,*,#590,.T.);
#286=ORIENTED_EDGE('',*,*,#591,.F.);
#287=ORIENTED_EDGE('',*,*,#536,.T.);
#288=ORIENTED_EDGE('',*,*,#592,.T.);
#289=ORIENTED_EDGE('',*,*,#534,.T.);
#290=ORIENTED_EDGE('',*,*,#529,.F.);
#291=ORIENTED_EDGE('',*,*,#526,.F.);
#292=ORIENTED_EDGE('',*,*,#524,.T.);
#293=ORIENTED_EDGE('',*,*,#521,.T.);
#294=ORIENTED_EDGE('',*,*,#518,.T.);
#295=ORIENTED_EDGE('',*,*,#584,.T.);
#296=ORIENTED_EDGE('',*,*,#593,.T.);
#297=ORIENTED_EDGE('',*,*,#594,.T.);
#298=ORIENTED_EDGE('',*,*,#586,.F.);
#299=ORIENTED_EDGE('',*,*,#579,.F.);
#300=ORIENTED_EDGE('',*,*,#538,.F.);
#301=ORIENTED_EDGE('',*,*,#595,.F.);
#302=ORIENTED_EDGE('',*,*,#596,.F.);
#303=ORIENTED_EDGE('',*,*,#590,.F.);
#304=ORIENTED_EDGE('',*,*,#446,.F.);
#305=ORIENTED_EDGE('',*,*,#585,.T.);
#306=ORIENTED_EDGE('',*,*,#478,.T.);
#307=ORIENTED_EDGE('',*,*,#597,.T.);
#308=ORIENTED_EDGE('',*,*,#598,.T.);
#309=ORIENTED_EDGE('',*,*,#482,.T.);
#310=ORIENTED_EDGE('',*,*,#576,.F.);
#311=ORIENTED_EDGE('',*,*,#574,.T.);
#312=ORIENTED_EDGE('',*,*,#571,.T.);
#313=ORIENTED_EDGE('',*,*,#569,.F.);
#314=ORIENTED_EDGE('',*,*,#575,.F.);
#315=ORIENTED_EDGE('',*,*,#567,.T.);
#316=ORIENTED_EDGE('',*,*,#565,.T.);
#317=ORIENTED_EDGE('',*,*,#480,.T.);
#318=ORIENTED_EDGE('',*,*,#561,.T.);
#319=ORIENTED_EDGE('',*,*,#559,.T.);
#320=ORIENTED_EDGE('',*,*,#548,.T.);
#321=ORIENTED_EDGE('',*,*,#599,.F.);
#322=ORIENTED_EDGE('',*,*,#469,.F.);
#323=ORIENTED_EDGE('',*,*,#591,.T.);
#324=ORIENTED_EDGE('',*,*,#596,.T.);
#325=ORIENTED_EDGE('',*,*,#600,.T.);
#326=ORIENTED_EDGE('',*,*,#601,.T.);
#327=ORIENTED_EDGE('',*,*,#459,.T.);
#328=ORIENTED_EDGE('',*,*,#582,.T.);
#329=ORIENTED_EDGE('',*,*,#602,.F.);
#330=ORIENTED_EDGE('',*,*,#600,.F.);
#331=ORIENTED_EDGE('',*,*,#581,.T.);
#332=ORIENTED_EDGE('',*,*,#589,.T.);
#333=ORIENTED_EDGE('',*,*,#457,.T.);
#334=ORIENTED_EDGE('',*,*,#603,.F.);
#335=ORIENTED_EDGE('',*,*,#604,.F.);
#336=ORIENTED_EDGE('',*,*,#545,.T.);
#337=ORIENTED_EDGE('',*,*,#461,.T.);
#338=ORIENTED_EDGE('',*,*,#605,.F.);
#339=ORIENTED_EDGE('',*,*,#606,.T.);
#340=ORIENTED_EDGE('',*,*,#597,.F.);
#341=ORIENTED_EDGE('',*,*,#554,.F.);
#342=ORIENTED_EDGE('',*,*,#546,.T.);
#343=ORIENTED_EDGE('',*,*,#604,.T.);
#344=ORIENTED_EDGE('',*,*,#607,.T.);
#345=ORIENTED_EDGE('',*,*,#608,.T.);
#346=ORIENTED_EDGE('',*,*,#609,.T.);
#347=ORIENTED_EDGE('',*,*,#607,.F.);
#348=ORIENTED_EDGE('',*,*,#603,.T.);
#349=ORIENTED_EDGE('',*,*,#460,.F.);
#350=ORIENTED_EDGE('',*,*,#601,.F.);
#351=ORIENTED_EDGE('',*,*,#602,.T.);
#352=ORIENTED_EDGE('',*,*,#456,.F.);
#353=ORIENTED_EDGE('',*,*,#610,.T.);
#354=ORIENTED_EDGE('',*,*,#611,.F.);
#355=ORIENTED_EDGE('',*,*,#612,.F.);
#356=ORIENTED_EDGE('',*,*,#613,.F.);
#357=ORIENTED_EDGE('',*,*,#605,.T.);
#358=ORIENTED_EDGE('',*,*,#609,.F.);
#359=ORIENTED_EDGE('',*,*,#611,.T.);
#360=ORIENTED_EDGE('',*,*,#455,.F.);
#361=ORIENTED_EDGE('',*,*,#614,.F.);
#362=ORIENTED_EDGE('',*,*,#612,.T.);
#363=ORIENTED_EDGE('',*,*,#608,.F.);
#364=ORIENTED_EDGE('',*,*,#606,.F.);
#365=ORIENTED_EDGE('',*,*,#613,.T.);
#366=ORIENTED_EDGE('',*,*,#614,.T.);
#367=ORIENTED_EDGE('',*,*,#454,.F.);
#368=ORIENTED_EDGE('',*,*,#476,.T.);
#369=ORIENTED_EDGE('',*,*,#470,.T.);
#370=ORIENTED_EDGE('',*,*,#599,.T.);
#371=ORIENTED_EDGE('',*,*,#595,.T.);
#372=ORIENTED_EDGE('',*,*,#477,.T.);
#373=ORIENTED_EDGE('',*,*,#598,.F.);
#374=ORIENTED_EDGE('',*,*,#463,.T.);
#375=ORIENTED_EDGE('',*,*,#615,.F.);
#376=ORIENTED_EDGE('',*,*,#616,.T.);
#377=ORIENTED_EDGE('',*,*,#617,.T.);
#378=ORIENTED_EDGE('',*,*,#464,.T.);
#379=ORIENTED_EDGE('',*,*,#617,.F.);
#380=ORIENTED_EDGE('',*,*,#618,.T.);
#381=ORIENTED_EDGE('',*,*,#619,.T.);
#382=ORIENTED_EDGE('',*,*,#465,.T.);
#383=ORIENTED_EDGE('',*,*,#619,.F.);
#384=ORIENTED_EDGE('',*,*,#620,.T.);
#385=ORIENTED_EDGE('',*,*,#621,.T.);
#386=ORIENTED_EDGE('',*,*,#466,.T.);
#387=ORIENTED_EDGE('',*,*,#621,.F.);
#388=ORIENTED_EDGE('',*,*,#622,.T.);
#389=ORIENTED_EDGE('',*,*,#623,.T.);
#390=ORIENTED_EDGE('',*,*,#467,.T.);
#391=ORIENTED_EDGE('',*,*,#623,.F.);
#392=ORIENTED_EDGE('',*,*,#624,.T.);
#393=ORIENTED_EDGE('',*,*,#625,.T.);
#394=ORIENTED_EDGE('',*,*,#468,.T.);
#395=ORIENTED_EDGE('',*,*,#625,.F.);
#396=ORIENTED_EDGE('',*,*,#626,.T.);
#397=ORIENTED_EDGE('',*,*,#615,.T.);
#398=ORIENTED_EDGE('',*,*,#610,.F.);
#399=ORIENTED_EDGE('',*,*,#616,.F.);
#400=ORIENTED_EDGE('',*,*,#626,.F.);
#401=ORIENTED_EDGE('',*,*,#624,.F.);
#402=ORIENTED_EDGE('',*,*,#622,.F.);
#403=ORIENTED_EDGE('',*,*,#620,.F.);
#404=ORIENTED_EDGE('',*,*,#618,.F.);
#405=ORIENTED_EDGE('',*,*,#550,.T.);
#406=ORIENTED_EDGE('',*,*,#558,.T.);
#407=ORIENTED_EDGE('',*,*,#627,.T.);
#408=ORIENTED_EDGE('',*,*,#628,.F.);
#409=ORIENTED_EDGE('',*,*,#556,.F.);
#410=ORIENTED_EDGE('',*,*,#552,.F.);
#411=ORIENTED_EDGE('',*,*,#629,.T.);
#412=ORIENTED_EDGE('',*,*,#630,.T.);
#413=ORIENTED_EDGE('',*,*,#628,.T.);
#414=ORIENTED_EDGE('',*,*,#631,.F.);
#415=ORIENTED_EDGE('',*,*,#629,.F.);
#416=ORIENTED_EDGE('',*,*,#551,.T.);
#417=ORIENTED_EDGE('',*,*,#594,.F.);
#418=ORIENTED_EDGE('',*,*,#632,.T.);
#419=ORIENTED_EDGE('',*,*,#633,.T.);
#420=ORIENTED_EDGE('',*,*,#587,.F.);
#421=ORIENTED_EDGE('',*,*,#588,.T.);
#422=ORIENTED_EDGE('',*,*,#633,.F.);
#423=ORIENTED_EDGE('',*,*,#634,.T.);
#424=ORIENTED_EDGE('',*,*,#472,.F.);
#425=ORIENTED_EDGE('',*,*,#448,.F.);
#426=ORIENTED_EDGE('',*,*,#452,.T.);
#427=ORIENTED_EDGE('',*,*,#630,.F.);
#428=ORIENTED_EDGE('',*,*,#631,.T.);
#429=ORIENTED_EDGE('',*,*,#627,.F.);
#430=ORIENTED_EDGE('',*,*,#557,.F.);
#431=ORIENTED_EDGE('',*,*,#593,.F.);
#432=ORIENTED_EDGE('',*,*,#583,.F.);
#433=ORIENTED_EDGE('',*,*,#473,.F.);
#434=ORIENTED_EDGE('',*,*,#634,.F.);
#435=ORIENTED_EDGE('',*,*,#632,.F.);
#436=ORIENTED_EDGE('',*,*,#592,.F.);
#437=ORIENTED_EDGE('',*,*,#535,.F.);
#438=ORIENTED_EDGE('',*,*,#635,.F.);
#439=ORIENTED_EDGE('',*,*,#531,.F.);
#440=ORIENTED_EDGE('',*,*,#635,.T.);
#441=ORIENTED_EDGE('',*,*,#492,.F.);
#442=ORIENTED_EDGE('',*,*,#555,.F.);
#443=ORIENTED_EDGE('',*,*,#532,.F.);
#444=EDGE_CURVE('',#636,#637,#762,.T.);
#445=EDGE_CURVE('',#637,#638,#35,.F.);
#446=EDGE_CURVE('',#638,#639,#763,.T.);
#447=EDGE_CURVE('',#636,#639,#764,.T.);
#448=EDGE_CURVE('',#640,#641,#765,.T.);
#449=EDGE_CURVE('',#642,#641,#766,.T.);
#450=EDGE_CURVE('',#643,#642,#767,.T.);
#451=EDGE_CURVE('',#643,#640,#768,.T.);
#452=EDGE_CURVE('',#640,#644,#769,.T.);
#453=EDGE_CURVE('',#643,#645,#770,.T.);
#454=EDGE_CURVE('',#645,#646,#771,.T.);
#455=EDGE_CURVE('',#646,#647,#772,.T.);
#456=EDGE_CURVE('',#647,#648,#773,.T.);
#457=EDGE_CURVE('',#649,#648,#774,.T.);
#458=EDGE_CURVE('',#649,#644,#775,.T.);
#459=EDGE_CURVE('',#650,#651,#776,.F.);
#460=EDGE_CURVE('',#650,#652,#36,.F.);
#461=EDGE_CURVE('',#653,#652,#777,.T.);
#462=EDGE_CURVE('',#651,#653,#37,.T.);
#463=EDGE_CURVE('',#654,#655,#16,.F.);
#464=EDGE_CURVE('',#656,#654,#38,.F.);
#465=EDGE_CURVE('',#657,#656,#17,.F.);
#466=EDGE_CURVE('',#658,#657,#18,.F.);
#467=EDGE_CURVE('',#659,#658,#39,.F.);
#468=EDGE_CURVE('',#655,#659,#19,.F.);
#469=EDGE_CURVE('',#660,#661,#778,.T.);
#470=EDGE_CURVE('',#662,#661,#779,.T.);
#471=EDGE_CURVE('',#642,#662,#780,.T.);
#472=EDGE_CURVE('',#641,#663,#781,.T.);
#473=EDGE_CURVE('',#663,#664,#782,.T.);
#474=EDGE_CURVE('',#637,#664,#783,.F.);
#475=EDGE_CURVE('',#660,#636,#784,.T.);
#476=EDGE_CURVE('',#645,#662,#785,.T.);
#477=EDGE_CURVE('',#665,#666,#40,.F.);
#478=EDGE_CURVE('',#667,#665,#786,.T.);
#479=EDGE_CURVE('',#667,#668,#41,.F.);
#480=EDGE_CURVE('',#669,#668,#787,.F.);
#481=EDGE_CURVE('',#670,#669,#788,.F.);
#482=EDGE_CURVE('',#666,#670,#789,.F.);
#483=EDGE_CURVE('',#671,#672,#790,.T.);
#484=EDGE_CURVE('',#672,#673,#791,.T.);
#485=EDGE_CURVE('',#674,#673,#792,.T.);
#486=EDGE_CURVE('',#674,#671,#793,.T.);
#487=EDGE_CURVE('',#675,#676,#794,.T.);
#488=EDGE_CURVE('',#677,#675,#795,.T.);
#489=EDGE_CURVE('',#678,#677,#796,.T.);
#490=EDGE_CURVE('',#678,#676,#797,.T.);
#491=EDGE_CURVE('',#679,#680,#798,.T.);
#492=EDGE_CURVE('',#679,#681,#799,.T.);
#493=EDGE_CURVE('',#682,#681,#800,.T.);
#494=EDGE_CURVE('',#680,#682,#801,.T.);
#495=EDGE_CURVE('',#683,#684,#802,.T.);
#496=EDGE_CURVE('',#683,#685,#803,.F.);
#497=EDGE_CURVE('',#685,#686,#804,.T.);
#498=EDGE_CURVE('',#684,#686,#805,.T.);
#499=EDGE_CURVE('',#687,#688,#806,.T.);
#500=EDGE_CURVE('',#688,#689,#807,.T.);
#501=EDGE_CURVE('',#690,#689,#808,.T.);
#502=EDGE_CURVE('',#690,#687,#809,.T.);
#503=EDGE_CURVE('',#691,#692,#42,.F.);
#504=EDGE_CURVE('',#693,#691,#810,.F.);
#505=EDGE_CURVE('',#694,#693,#20,.F.);
#506=EDGE_CURVE('',#692,#694,#811,.T.);
#507=EDGE_CURVE('',#693,#695,#812,.T.);
#508=EDGE_CURVE('',#691,#696,#813,.T.);
#509=EDGE_CURVE('',#696,#695,#814,.T.);
#510=EDGE_CURVE('',#697,#697,#21,.F.);
#511=EDGE_CURVE('',#698,#698,#43,.T.);
#512=EDGE_CURVE('',#699,#696,#44,.F.);
#513=EDGE_CURVE('',#700,#699,#815,.F.);
#514=EDGE_CURVE('',#695,#700,#22,.F.);
#515=EDGE_CURVE('',#685,#701,#45,.T.);
#516=EDGE_CURVE('',#701,#702,#816,.T.);
#517=EDGE_CURVE('',#686,#702,#46,.T.);
#518=EDGE_CURVE('',#703,#704,#817,.F.);
#519=EDGE_CURVE('',#702,#703,#818,.T.);
#520=EDGE_CURVE('',#701,#704,#819,.F.);
#521=EDGE_CURVE('',#705,#703,#820,.T.);
#522=EDGE_CURVE('',#705,#677,#821,.T.);
#523=EDGE_CURVE('',#684,#675,#822,.T.);
#524=EDGE_CURVE('',#706,#705,#823,.T.);
#525=EDGE_CURVE('',#706,#678,#824,.T.);
#526=EDGE_CURVE('',#706,#707,#825,.T.);
#527=EDGE_CURVE('',#707,#674,#826,.T.);
#528=EDGE_CURVE('',#673,#676,#827,.T.);
#529=EDGE_CURVE('',#707,#708,#828,.T.);
#530=EDGE_CURVE('',#708,#671,#829,.T.);
#531=EDGE_CURVE('',#709,#710,#830,.T.);
#532=EDGE_CURVE('',#710,#711,#831,.T.);
#533=EDGE_CURVE('',#672,#711,#832,.T.);
#534=EDGE_CURVE('',#709,#708,#833,.T.);
#535=EDGE_CURVE('',#681,#712,#834,.T.);
#536=EDGE_CURVE('',#713,#712,#835,.T.);
#537=EDGE_CURVE('',#682,#713,#836,.T.);
#538=EDGE_CURVE('',#713,#714,#837,.T.);
#539=EDGE_CURVE('',#714,#715,#838,.T.);
#540=EDGE_CURVE('',#715,#716,#839,.T.);
#541=EDGE_CURVE('',#716,#680,#840,.T.);
#542=EDGE_CURVE('',#717,#718,#841,.F.);
#543=EDGE_CURVE('',#717,#716,#47,.F.);
#544=EDGE_CURVE('',#715,#653,#48,.F.);
#545=EDGE_CURVE('',#719,#653,#842,.F.);
#546=EDGE_CURVE('',#718,#719,#49,.T.);
#547=EDGE_CURVE('',#715,#651,#50,.T.);
#548=EDGE_CURVE('',#720,#721,#843,.T.);
#549=EDGE_CURVE('',#720,#722,#844,.T.);
#550=EDGE_CURVE('',#723,#722,#845,.T.);
#551=EDGE_CURVE('',#724,#723,#846,.T.);
#552=EDGE_CURVE('',#724,#725,#847,.T.);
#553=EDGE_CURVE('',#725,#717,#848,.T.);
#554=EDGE_CURVE('',#718,#721,#849,.T.);
#555=EDGE_CURVE('',#711,#679,#850,.F.);
#556=EDGE_CURVE('',#725,#726,#851,.T.);
#557=EDGE_CURVE('',#726,#727,#852,.T.);
#558=EDGE_CURVE('',#722,#727,#853,.T.);
#559=EDGE_CURVE('',#728,#720,#854,.T.);
#560=EDGE_CURVE('',#728,#683,#51,.F.);
#561=EDGE_CURVE('',#668,#728,#855,.T.);
#562=EDGE_CURVE('',#668,#685,#52,.T.);
#563=EDGE_CURVE('',#694,#729,#856,.T.);
#564=EDGE_CURVE('',#669,#700,#857,.T.);
#565=EDGE_CURVE('',#729,#669,#858,.T.);
#566=EDGE_CURVE('',#692,#730,#859,.T.);
#567=EDGE_CURVE('',#730,#729,#860,.T.);
#568=EDGE_CURVE('',#731,#690,#861,.T.);
#569=EDGE_CURVE('',#731,#732,#862,.T.);
#570=EDGE_CURVE('',#732,#687,#863,.F.);
#571=EDGE_CURVE('',#733,#732,#864,.T.);
#572=EDGE_CURVE('',#688,#733,#865,.T.);
#573=EDGE_CURVE('',#689,#734,#866,.F.);
#574=EDGE_CURVE('',#734,#733,#867,.T.);
#575=EDGE_CURVE('',#730,#731,#868,.T.);
#576=EDGE_CURVE('',#734,#670,#869,.T.);
#577=EDGE_CURVE('',#699,#670,#870,.T.);
#578=EDGE_CURVE('',#701,#667,#53,.T.);
#579=EDGE_CURVE('',#714,#735,#54,.F.);
#580=EDGE_CURVE('',#736,#735,#871,.T.);
#581=EDGE_CURVE('',#737,#736,#55,.F.);
#582=EDGE_CURVE('',#651,#737,#872,.F.);
#583=EDGE_CURVE('',#664,#738,#23,.F.);
#584=EDGE_CURVE('',#704,#738,#56,.F.);
#585=EDGE_CURVE('',#638,#667,#873,.F.);
#586=EDGE_CURVE('',#735,#739,#874,.T.);
#587=EDGE_CURVE('',#739,#740,#875,.T.);
#588=EDGE_CURVE('',#644,#740,#876,.T.);
#589=EDGE_CURVE('',#736,#649,#877,.T.);
#590=EDGE_CURVE('',#639,#741,#878,.T.);
#591=EDGE_CURVE('',#660,#741,#879,.T.);
#592=EDGE_CURVE('',#712,#709,#880,.F.);
#593=EDGE_CURVE('',#738,#742,#881,.T.);
#594=EDGE_CURVE('',#742,#739,#882,.T.);
#595=EDGE_CURVE('',#743,#665,#883,.T.);
#596=EDGE_CURVE('',#741,#743,#884,.T.);
#597=EDGE_CURVE('',#721,#744,#885,.T.);
#598=EDGE_CURVE('',#744,#666,#886,.T.);
#599=EDGE_CURVE('',#661,#743,#887,.T.);
#600=EDGE_CURVE('',#737,#745,#888,.T.);
#601=EDGE_CURVE('',#745,#650,#889,.T.);
#602=EDGE_CURVE('',#745,#648,#890,.T.);
#603=EDGE_CURVE('',#746,#652,#891,.T.);
#604=EDGE_CURVE('',#719,#746,#892,.T.);
#605=EDGE_CURVE('',#747,#748,#893,.T.);
#606=EDGE_CURVE('',#747,#744,#894,.T.);
#607=EDGE_CURVE('',#746,#748,#895,.T.);
#608=EDGE_CURVE('',#647,#749,#57,.F.);
#609=EDGE_CURVE('',#749,#748,#896,.T.);
#610=EDGE_CURVE('',#750,#750,#58,.F.);
#611=EDGE_CURVE('',#751,#751,#12,.T.);
#612=EDGE_CURVE('',#752,#749,#897,.T.);
#613=EDGE_CURVE('',#747,#752,#898,.T.);
#614=EDGE_CURVE('',#752,#646,#59,.T.);
#615=EDGE_CURVE('',#753,#655,#899,.T.);
#616=EDGE_CURVE('',#753,#754,#900,.T.);
#617=EDGE_CURVE('',#754,#654,#901,.T.);
#618=EDGE_CURVE('',#754,#755,#902,.T.);
#619=EDGE_CURVE('',#755,#656,#903,.T.);
#620=EDGE_CURVE('',#755,#756,#904,.T.);
#621=EDGE_CURVE('',#756,#657,#905,.T.);
#622=EDGE_CURVE('',#756,#757,#906,.T.);
#623=EDGE_CURVE('',#757,#658,#907,.T.);
#624=EDGE_CURVE('',#757,#758,#908,.T.);
#625=EDGE_CURVE('',#758,#659,#909,.T.);
#626=EDGE_CURVE('',#758,#753,#910,.T.);
#627=EDGE_CURVE('',#727,#759,#911,.F.);
#628=EDGE_CURVE('',#723,#759,#912,.T.);
#629=EDGE_CURVE('',#724,#760,#913,.T.);
#630=EDGE_CURVE('',#760,#726,#914,.F.);
#631=EDGE_CURVE('',#760,#759,#915,.T.);
#632=EDGE_CURVE('',#742,#761,#916,.T.);
#633=EDGE_CURVE('',#761,#740,#917,.T.);
#634=EDGE_CURVE('',#761,#663,#918,.T.);
#635=EDGE_CURVE('',#710,#681,#919,.F.);
#636=VERTEX_POINT('',#1850);
#637=VERTEX_POINT('',#1851);
#638=VERTEX_POINT('',#1853);
#639=VERTEX_POINT('',#1855);
#640=VERTEX_POINT('',#1859);
#641=VERTEX_POINT('',#1860);
#642=VERTEX_POINT('',#1862);
#643=VERTEX_POINT('',#1864);
#644=VERTEX_POINT('',#1868);
#645=VERTEX_POINT('',#1870);
#646=VERTEX_POINT('',#1872);
#647=VERTEX_POINT('',#1874);
#648=VERTEX_POINT('',#1876);
#649=VERTEX_POINT('',#1878);
#650=VERTEX_POINT('',#1882);
#651=VERTEX_POINT('',#1883);
#652=VERTEX_POINT('',#1885);
#653=VERTEX_POINT('',#1887);
#654=VERTEX_POINT('',#1890);
#655=VERTEX_POINT('',#1891);
#656=VERTEX_POINT('',#1893);
#657=VERTEX_POINT('',#1895);
#658=VERTEX_POINT('',#1897);
#659=VERTEX_POINT('',#1899);
#660=VERTEX_POINT('',#1903);
#661=VERTEX_POINT('',#1904);
#662=VERTEX_POINT('',#1906);
#663=VERTEX_POINT('',#1909);
#664=VERTEX_POINT('',#1911);
#665=VERTEX_POINT('',#1918);
#666=VERTEX_POINT('',#1919);
#667=VERTEX_POINT('',#1921);
#668=VERTEX_POINT('',#1923);
#669=VERTEX_POINT('',#1925);
#670=VERTEX_POINT('',#1927);
#671=VERTEX_POINT('',#1931);
#672=VERTEX_POINT('',#1932);
#673=VERTEX_POINT('',#1934);
#674=VERTEX_POINT('',#1936);
#675=VERTEX_POINT('',#1940);
#676=VERTEX_POINT('',#1941);
#677=VERTEX_POINT('',#1943);
#678=VERTEX_POINT('',#1945);
#679=VERTEX_POINT('',#1949);
#680=VERTEX_POINT('',#1950);
#681=VERTEX_POINT('',#1952);
#682=VERTEX_POINT('',#1954);
#683=VERTEX_POINT('',#1958);
#684=VERTEX_POINT('',#1959);
#685=VERTEX_POINT('',#1961);
#686=VERTEX_POINT('',#1963);
#687=VERTEX_POINT('',#1967);
#688=VERTEX_POINT('',#1968);
#689=VERTEX_POINT('',#1970);
#690=VERTEX_POINT('',#1972);
#691=VERTEX_POINT('',#1976);
#692=VERTEX_POINT('',#1977);
#693=VERTEX_POINT('',#1979);
#694=VERTEX_POINT('',#1981);
#695=VERTEX_POINT('',#1985);
#696=VERTEX_POINT('',#1987);
#697=VERTEX_POINT('',#1991);
#698=VERTEX_POINT('',#1993);
#699=VERTEX_POINT('',#1996);
#700=VERTEX_POINT('',#1998);
#701=VERTEX_POINT('',#2002);
#702=VERTEX_POINT('',#2004);
#703=VERTEX_POINT('',#2008);
#704=VERTEX_POINT('',#2009);
#705=VERTEX_POINT('',#2014);
#706=VERTEX_POINT('',#2019);
#707=VERTEX_POINT('',#2023);
#708=VERTEX_POINT('',#2028);
#709=VERTEX_POINT('',#2032);
#710=VERTEX_POINT('',#2033);
#711=VERTEX_POINT('',#2035);
#712=VERTEX_POINT('',#2040);
#713=VERTEX_POINT('',#2042);
#714=VERTEX_POINT('',#2046);
#715=VERTEX_POINT('',#2048);
#716=VERTEX_POINT('',#2050);
#717=VERTEX_POINT('',#2054);
#718=VERTEX_POINT('',#2055);
#719=VERTEX_POINT('',#2059);
#720=VERTEX_POINT('',#2065);
#721=VERTEX_POINT('',#2066);
#722=VERTEX_POINT('',#2068);
#723=VERTEX_POINT('',#2070);
#724=VERTEX_POINT('',#2072);
#725=VERTEX_POINT('',#2074);
#726=VERTEX_POINT('',#2080);
#727=VERTEX_POINT('',#2082);
#728=VERTEX_POINT('',#2085);
#729=VERTEX_POINT('',#2092);
#730=VERTEX_POINT('',#2097);
#731=VERTEX_POINT('',#2101);
#732=VERTEX_POINT('',#2103);
#733=VERTEX_POINT('',#2107);
#734=VERTEX_POINT('',#2111);
#735=VERTEX_POINT('',#2122);
#736=VERTEX_POINT('',#2124);
#737=VERTEX_POINT('',#2126);
#738=VERTEX_POINT('',#2130);
#739=VERTEX_POINT('',#2135);
#740=VERTEX_POINT('',#2137);
#741=VERTEX_POINT('',#2142);
#742=VERTEX_POINT('',#2147);
#743=VERTEX_POINT('',#2151);
#744=VERTEX_POINT('',#2155);
#745=VERTEX_POINT('',#2161);
#746=VERTEX_POINT('',#2167);
#747=VERTEX_POINT('',#2171);
#748=VERTEX_POINT('',#2172);
#749=VERTEX_POINT('',#2177);
#750=VERTEX_POINT('',#2181);
#751=VERTEX_POINT('',#2193);
#752=VERTEX_POINT('',#2196);
#753=VERTEX_POINT('',#2203);
#754=VERTEX_POINT('',#2205);
#755=VERTEX_POINT('',#2209);
#756=VERTEX_POINT('',#2213);
#757=VERTEX_POINT('',#2217);
#758=VERTEX_POINT('',#2221);
#759=VERTEX_POINT('',#2228);
#760=VERTEX_POINT('',#2232);
#761=VERTEX_POINT('',#2238);
#762=LINE('',#1849,#920);
#763=LINE('',#1854,#921);
#764=LINE('',#1856,#922);
#765=LINE('',#1858,#923);
#766=LINE('',#1861,#924);
#767=LINE('',#1863,#925);
#768=LINE('',#1865,#926);
#769=LINE('',#1867,#927);
#770=LINE('',#1869,#928);
#771=LINE('',#1871,#929);
#772=LINE('',#1873,#930);
#773=LINE('',#1875,#931);
#774=LINE('',#1877,#932);
#775=LINE('',#1879,#933);
#776=LINE('',#1881,#934);
#777=LINE('',#1886,#935);
#778=LINE('',#1902,#936);
#779=LINE('',#1905,#937);
#780=LINE('',#1907,#938);
#781=LINE('',#1908,#939);
#782=LINE('',#1910,#940);
#783=LINE('',#1912,#941);
#784=LINE('',#1913,#942);
#785=LINE('',#1915,#943);
#786=LINE('',#1920,#944);
#787=LINE('',#1924,#945);
#788=LINE('',#1926,#946);
#789=LINE('',#1928,#947);
#790=LINE('',#1930,#948);
#791=LINE('',#1933,#949);
#792=LINE('',#1935,#950);
#793=LINE('',#1937,#951);
#794=LINE('',#1939,#952);
#795=LINE('',#1942,#953);
#796=LINE('',#1944,#954);
#797=LINE('',#1946,#955);
#798=LINE('',#1948,#956);
#799=LINE('',#1951,#957);
#800=LINE('',#1953,#958);
#801=LINE('',#1955,#959);
#802=LINE('',#1957,#960);
#803=LINE('',#1960,#961);
#804=LINE('',#1962,#962);
#805=LINE('',#1964,#963);
#806=LINE('',#1966,#964);
#807=LINE('',#1969,#965);
#808=LINE('',#1971,#966);
#809=LINE('',#1973,#967);
#810=LINE('',#1978,#968);
#811=LINE('',#1982,#969);
#812=LINE('',#1984,#970);
#813=LINE('',#1986,#971);
#814=LINE('',#1988,#972);
#815=LINE('',#1997,#973);
#816=LINE('',#2003,#974);
#817=LINE('',#2007,#975);
#818=LINE('',#2010,#976);
#819=LINE('',#2011,#977);
#820=LINE('',#2013,#978);
#821=LINE('',#2015,#979);
#822=LINE('',#2016,#980);
#823=LINE('',#2018,#981);
#824=LINE('',#2020,#982);
#825=LINE('',#2022,#983);
#826=LINE('',#2024,#984);
#827=LINE('',#2025,#985);
#828=LINE('',#2027,#986);
#829=LINE('',#2029,#987);
#830=LINE('',#2031,#988);
#831=LINE('',#2034,#989);
#832=LINE('',#2036,#990);
#833=LINE('',#2037,#991);
#834=LINE('',#2039,#992);
#835=LINE('',#2041,#993);
#836=LINE('',#2043,#994);
#837=LINE('',#2045,#995);
#838=LINE('',#2047,#996);
#839=LINE('',#2049,#997);
#840=LINE('',#2051,#998);
#841=LINE('',#2053,#999);
#842=LINE('',#2058,#1000);
#843=LINE('',#2064,#1001);
#844=LINE('',#2067,#1002);
#845=LINE('',#2069,#1003);
#846=LINE('',#2071,#1004);
#847=LINE('',#2073,#1005);
#848=LINE('',#2075,#1006);
#849=LINE('',#2076,#1007);
#850=LINE('',#2078,#1008);
#851=LINE('',#2079,#1009);
#852=LINE('',#2081,#1010);
#853=LINE('',#2083,#1011);
#854=LINE('',#2084,#1012);
#855=LINE('',#2088,#1013);
#856=LINE('',#2091,#1014);
#857=LINE('',#2093,#1015);
#858=LINE('',#2094,#1016);
#859=LINE('',#2096,#1017);
#860=LINE('',#2098,#1018);
#861=LINE('',#2100,#1019);
#862=LINE('',#2102,#1020);
#863=LINE('',#2104,#1021);
#864=LINE('',#2106,#1022);
#865=LINE('',#2108,#1023);
#866=LINE('',#2110,#1024);
#867=LINE('',#2112,#1025);
#868=LINE('',#2114,#1026);
#869=LINE('',#2115,#1027);
#870=LINE('',#2116,#1028);
#871=LINE('',#2123,#1029);
#872=LINE('',#2127,#1030);
#873=LINE('',#2132,#1031);
#874=LINE('',#2134,#1032);
#875=LINE('',#2136,#1033);
#876=LINE('',#2138,#1034);
#877=LINE('',#2139,#1035);
#878=LINE('',#2141,#1036);
#879=LINE('',#2143,#1037);
#880=LINE('',#2145,#1038);
#881=LINE('',#2146,#1039);
#882=LINE('',#2148,#1040);
#883=LINE('',#2150,#1041);
#884=LINE('',#2152,#1042);
#885=LINE('',#2154,#1043);
#886=LINE('',#2156,#1044);
#887=LINE('',#2158,#1045);
#888=LINE('',#2160,#1046);
#889=LINE('',#2162,#1047);
#890=LINE('',#2164,#1048);
#891=LINE('',#2166,#1049);
#892=LINE('',#2168,#1050);
#893=LINE('',#2170,#1051);
#894=LINE('',#2173,#1052);
#895=LINE('',#2174,#1053);
#896=LINE('',#2178,#1054);
#897=LINE('',#2195,#1055);
#898=LINE('',#2197,#1056);
#899=LINE('',#2202,#1057);
#900=LINE('',#2204,#1058);
#901=LINE('',#2206,#1059);
#902=LINE('',#2208,#1060);
#903=LINE('',#2210,#1061);
#904=LINE('',#2212,#1062);
#905=LINE('',#2214,#1063);
#906=LINE('',#2216,#1064);
#907=LINE('',#2218,#1065);
#908=LINE('',#2220,#1066);
#909=LINE('',#2222,#1067);
#910=LINE('',#2224,#1068);
#911=LINE('',#2227,#1069);
#912=LINE('',#2229,#1070);
#913=LINE('',#2231,#1071);
#914=LINE('',#2233,#1072);
#915=LINE('',#2235,#1073);
#916=LINE('',#2237,#1074);
#917=LINE('',#2239,#1075);
#918=LINE('',#2241,#1076);
#919=LINE('',#2245,#1077);
#920=VECTOR('',#1483,1.);
#921=VECTOR('',#1486,1.);
#922=VECTOR('',#1487,1.);
#923=VECTOR('',#1490,1.);
#924=VECTOR('',#1491,1.);
#925=VECTOR('',#1492,1.);
#926=VECTOR('',#1493,1.);
#927=VECTOR('',#1496,1.);
#928=VECTOR('',#1497,1.);
#929=VECTOR('',#1498,1.);
#930=VECTOR('',#1499,1.);
#931=VECTOR('',#1500,1.);
#932=VECTOR('',#1501,1.);
#933=VECTOR('',#1502,1.);
#934=VECTOR('',#1505,1.);
#935=VECTOR('',#1508,1.);
#936=VECTOR('',#1525,1.);
#937=VECTOR('',#1526,1.);
#938=VECTOR('',#1527,1.);
#939=VECTOR('',#1528,1.);
#940=VECTOR('',#1529,1.);
#941=VECTOR('',#1530,1.);
#942=VECTOR('',#1531,1.);
#943=VECTOR('',#1534,1.);
#944=VECTOR('',#1539,1.);
#945=VECTOR('',#1542,1.);
#946=VECTOR('',#1543,1.);
#947=VECTOR('',#1544,1.);
#948=VECTOR('',#1547,1.);
#949=VECTOR('',#1548,1.);
#950=VECTOR('',#1549,1.);
#951=VECTOR('',#1550,1.);
#952=VECTOR('',#1553,1.);
#953=VECTOR('',#1554,1.);
#954=VECTOR('',#1555,1.);
#955=VECTOR('',#1556,1.);
#956=VECTOR('',#1559,1.);
#957=VECTOR('',#1560,1.);
#958=VECTOR('',#1561,1.);
#959=VECTOR('',#1562,1.);
#960=VECTOR('',#1565,1.);
#961=VECTOR('',#1566,1.);
#962=VECTOR('',#1567,1.);
#963=VECTOR('',#1568,1.);
#964=VECTOR('',#1571,1.);
#965=VECTOR('',#1572,1.);
#966=VECTOR('',#1573,1.);
#967=VECTOR('',#1574,1.);
#968=VECTOR('',#1579,1.);
#969=VECTOR('',#1582,1.);
#970=VECTOR('',#1585,1.);
#971=VECTOR('',#1586,1.);
#972=VECTOR('',#1587,1.);
#973=VECTOR('',#1598,1.);
#974=VECTOR('',#1605,1.);
#975=VECTOR('',#1610,1.);
#976=VECTOR('',#1611,1.);
#977=VECTOR('',#1612,1.);
#978=VECTOR('',#1615,1.);
#979=VECTOR('',#1616,1.);
#980=VECTOR('',#1617,1.);
#981=VECTOR('',#1620,1.);
#982=VECTOR('',#1621,1.);
#983=VECTOR('',#1624,1.);
#984=VECTOR('',#1625,1.);
#985=VECTOR('',#1626,1.);
#986=VECTOR('',#1629,1.);
#987=VECTOR('',#1630,1.);
#988=VECTOR('',#1633,1.);
#989=VECTOR('',#1634,1.);
#990=VECTOR('',#1635,1.);
#991=VECTOR('',#1636,1.);
#992=VECTOR('',#1639,1.);
#993=VECTOR('',#1640,1.);
#994=VECTOR('',#1641,1.);
#995=VECTOR('',#1644,1.);
#996=VECTOR('',#1645,1.);
#997=VECTOR('',#1646,1.);
#998=VECTOR('',#1647,1.);
#999=VECTOR('',#1650,1.);
#1000=VECTOR('',#1655,1.);
#1001=VECTOR('',#1664,1.);
#1002=VECTOR('',#1665,1.);
#1003=VECTOR('',#1666,1.);
#1004=VECTOR('',#1667,1.);
#1005=VECTOR('',#1668,1.);
#1006=VECTOR('',#1669,1.);
#1007=VECTOR('',#1670,1.);
#1008=VECTOR('',#1673,1.);
#1009=VECTOR('',#1674,1.);
#1010=VECTOR('',#1675,1.);
#1011=VECTOR('',#1676,1.);
#1012=VECTOR('',#1677,1.);
#1013=VECTOR('',#1682,1.);
#1014=VECTOR('',#1687,1.);
#1015=VECTOR('',#1688,1.);
#1016=VECTOR('',#1689,1.);
#1017=VECTOR('',#1692,1.);
#1018=VECTOR('',#1693,1.);
#1019=VECTOR('',#1696,1.);
#1020=VECTOR('',#1697,1.);
#1021=VECTOR('',#1698,1.);
#1022=VECTOR('',#1701,1.);
#1023=VECTOR('',#1702,1.);
#1024=VECTOR('',#1705,1.);
#1025=VECTOR('',#1706,1.);
#1026=VECTOR('',#1709,1.);
#1027=VECTOR('',#1710,1.);
#1028=VECTOR('',#1711,1.);
#1029=VECTOR('',#1722,1.);
#1030=VECTOR('',#1725,1.);
#1031=VECTOR('',#1732,1.);
#1032=VECTOR('',#1735,1.);
#1033=VECTOR('',#1736,1.);
#1034=VECTOR('',#1737,1.);
#1035=VECTOR('',#1738,1.);
#1036=VECTOR('',#1741,1.);
#1037=VECTOR('',#1742,1.);
#1038=VECTOR('',#1745,1.);
#1039=VECTOR('',#1746,1.);
#1040=VECTOR('',#1747,1.);
#1041=VECTOR('',#1750,1.);
#1042=VECTOR('',#1751,1.);
#1043=VECTOR('',#1754,1.);
#1044=VECTOR('',#1755,1.);
#1045=VECTOR('',#1758,1.);
#1046=VECTOR('',#1761,1.);
#1047=VECTOR('',#1762,1.);
#1048=VECTOR('',#1765,1.);
#1049=VECTOR('',#1768,1.);
#1050=VECTOR('',#1769,1.);
#1051=VECTOR('',#1772,1.);
#1052=VECTOR('',#1773,1.);
#1053=VECTOR('',#1774,1.);
#1054=VECTOR('',#1779,1.);
#1055=VECTOR('',#1786,1.);
#1056=VECTOR('',#1787,1.);
#1057=VECTOR('',#1796,1.);
#1058=VECTOR('',#1797,1.);
#1059=VECTOR('',#1798,1.);
#1060=VECTOR('',#1801,1.);
#1061=VECTOR('',#1802,1.);
#1062=VECTOR('',#1805,1.);
#1063=VECTOR('',#1806,1.);
#1064=VECTOR('',#1809,1.);
#1065=VECTOR('',#1810,1.);
#1066=VECTOR('',#1813,1.);
#1067=VECTOR('',#1814,1.);
#1068=VECTOR('',#1817,1.);
#1069=VECTOR('',#1822,1.);
#1070=VECTOR('',#1823,1.);
#1071=VECTOR('',#1826,1.);
#1072=VECTOR('',#1827,1.);
#1073=VECTOR('',#1830,1.);
#1074=VECTOR('',#1833,1.);
#1075=VECTOR('',#1834,1.);
#1076=VECTOR('',#1837,1.);
#1077=VECTOR('',#1844,1.);
#1078=EDGE_LOOP('',(#60,#61,#62,#63));
#1079=EDGE_LOOP('',(#64,#65,#66,#67));
#1080=EDGE_LOOP('',(#68,#69,#70,#71,#72,#73,#74,#75));
#1081=EDGE_LOOP('',(#76,#77,#78,#79));
#1082=EDGE_LOOP('',(#80,#81,#82,#83,#84,#85));
#1083=EDGE_LOOP('',(#86,#87,#88,#89,#90,#91,#92,#93,#94));
#1084=EDGE_LOOP('',(#95,#96,#97,#98));
#1085=EDGE_LOOP('',(#99,#100,#101,#102,#103,#104));
#1086=EDGE_LOOP('',(#105,#106,#107,#108));
#1087=EDGE_LOOP('',(#109,#110,#111,#112));
#1088=EDGE_LOOP('',(#113,#114,#115,#116));
#1089=EDGE_LOOP('',(#117,#118,#119,#120));
#1090=EDGE_LOOP('',(#121,#122,#123,#124));
#1091=EDGE_LOOP('',(#125,#126,#127,#128));
#1092=EDGE_LOOP('',(#129,#130,#131,#132));
#1093=EDGE_LOOP('',(#133));
#1094=EDGE_LOOP('',(#134));
#1095=EDGE_LOOP('',(#135,#136,#137,#138));
#1096=EDGE_LOOP('',(#139,#140,#141,#142));
#1097=EDGE_LOOP('',(#143,#144,#145,#146));
#1098=EDGE_LOOP('',(#147,#148,#149,#150,#151,#152,#153));
#1099=EDGE_LOOP('',(#154,#155,#156,#157));
#1100=EDGE_LOOP('',(#158,#159,#160,#161,#162,#163));
#1101=EDGE_LOOP('',(#164,#165,#166,#167));
#1102=EDGE_LOOP('',(#168,#169,#170,#171,#172,#173));
#1103=EDGE_LOOP('',(#174,#175,#176,#177));
#1104=EDGE_LOOP('',(#178,#179,#180,#181,#182,#183));
#1105=EDGE_LOOP('',(#184,#185,#186,#187,#188,#189));
#1106=EDGE_LOOP('',(#190,#191,#192));
#1107=EDGE_LOOP('',(#193,#194,#195,#196,#197,#198,#199,#200));
#1108=EDGE_LOOP('',(#201,#202,#203,#204,#205,#206,#207,#208,#209,#210,#211,
#212,#213,#214,#215,#216,#217));
#1109=EDGE_LOOP('',(#218,#219,#220,#221));
#1110=EDGE_LOOP('',(#222,#223,#224,#225,#226,#227));
#1111=EDGE_LOOP('',(#228));
#1112=EDGE_LOOP('',(#229,#230,#231,#232));
#1113=EDGE_LOOP('',(#233,#234,#235,#236));
#1114=EDGE_LOOP('',(#237,#238,#239,#240));
#1115=EDGE_LOOP('',(#241,#242,#243,#244));
#1116=EDGE_LOOP('',(#245));
#1117=EDGE_LOOP('',(#246,#247,#248,#249,#250,#251,#252,#253,#254,#255));
#1118=EDGE_LOOP('',(#256,#257,#258,#259));
#1119=EDGE_LOOP('',(#260,#261,#262,#263));
#1120=EDGE_LOOP('',(#264,#265,#266,#267,#268,#269));
#1121=EDGE_LOOP('',(#270,#271,#272,#273,#274,#275,#276));
#1122=EDGE_LOOP('',(#277,#278,#279,#280,#281,#282));
#1123=EDGE_LOOP('',(#283,#284,#285,#286));
#1124=EDGE_LOOP('',(#287,#288,#289,#290,#291,#292,#293,#294,#295,#296,#297,
#298,#299,#300));
#1125=EDGE_LOOP('',(#301,#302,#303,#304,#305,#306));
#1126=EDGE_LOOP('',(#307,#308,#309,#310,#311,#312,#313,#314,#315,#316,#317,
#318,#319,#320));
#1127=EDGE_LOOP('',(#321,#322,#323,#324));
#1128=EDGE_LOOP('',(#325,#326,#327,#328));
#1129=EDGE_LOOP('',(#329,#330,#331,#332,#333));
#1130=EDGE_LOOP('',(#334,#335,#336,#337));
#1131=EDGE_LOOP('',(#338,#339,#340,#341,#342,#343,#344));
#1132=EDGE_LOOP('',(#345,#346,#347,#348,#349,#350,#351,#352));
#1133=EDGE_LOOP('',(#353));
#1134=EDGE_LOOP('',(#354));
#1135=EDGE_LOOP('',(#355,#356,#357,#358));
#1136=EDGE_LOOP('',(#359));
#1137=EDGE_LOOP('',(#360,#361,#362,#363));
#1138=EDGE_LOOP('',(#364,#365,#366,#367,#368,#369,#370,#371,#372,#373));
#1139=EDGE_LOOP('',(#374,#375,#376,#377));
#1140=EDGE_LOOP('',(#378,#379,#380,#381));
#1141=EDGE_LOOP('',(#382,#383,#384,#385));
#1142=EDGE_LOOP('',(#386,#387,#388,#389));
#1143=EDGE_LOOP('',(#390,#391,#392,#393));
#1144=EDGE_LOOP('',(#394,#395,#396,#397));
#1145=EDGE_LOOP('',(#398));
#1146=EDGE_LOOP('',(#399,#400,#401,#402,#403,#404));
#1147=EDGE_LOOP('',(#405,#406,#407,#408));
#1148=EDGE_LOOP('',(#409,#410,#411,#412));
#1149=EDGE_LOOP('',(#413,#414,#415,#416));
#1150=EDGE_LOOP('',(#417,#418,#419,#420));
#1151=EDGE_LOOP('',(#421,#422,#423,#424,#425,#426));
#1152=EDGE_LOOP('',(#427,#428,#429,#430));
#1153=EDGE_LOOP('',(#431,#432,#433,#434,#435));
#1154=EDGE_LOOP('',(#436,#437,#438,#439));
#1155=EDGE_LOOP('',(#440,#441,#442,#443));
#1156=FACE_BOUND('',#1078,.T.);
#1157=FACE_BOUND('',#1079,.T.);
#1158=FACE_BOUND('',#1080,.T.);
#1159=FACE_BOUND('',#1081,.T.);
#1160=FACE_BOUND('',#1082,.T.);
#1161=FACE_BOUND('',#1083,.T.);
#1162=FACE_BOUND('',#1084,.T.);
#1163=FACE_BOUND('',#1085,.T.);
#1164=FACE_BOUND('',#1086,.T.);
#1165=FACE_BOUND('',#1087,.T.);
#1166=FACE_BOUND('',#1088,.T.);
#1167=FACE_BOUND('',#1089,.T.);
#1168=FACE_BOUND('',#1090,.T.);
#1169=FACE_BOUND('',#1091,.T.);
#1170=FACE_BOUND('',#1092,.T.);
#1171=FACE_BOUND('',#1093,.T.);
#1172=FACE_BOUND('',#1094,.T.);
#1173=FACE_BOUND('',#1095,.T.);
#1174=FACE_BOUND('',#1096,.T.);
#1175=FACE_BOUND('',#1097,.T.);
#1176=FACE_BOUND('',#1098,.T.);
#1177=FACE_BOUND('',#1099,.T.);
#1178=FACE_BOUND('',#1100,.T.);
#1179=FACE_BOUND('',#1101,.T.);
#1180=FACE_BOUND('',#1102,.T.);
#1181=FACE_BOUND('',#1103,.T.);
#1182=FACE_BOUND('',#1104,.T.);
#1183=FACE_BOUND('',#1105,.T.);
#1184=FACE_BOUND('',#1106,.T.);
#1185=FACE_BOUND('',#1107,.T.);
#1186=FACE_BOUND('',#1108,.T.);
#1187=FACE_BOUND('',#1109,.T.);
#1188=FACE_BOUND('',#1110,.T.);
#1189=FACE_BOUND('',#1111,.T.);
#1190=FACE_BOUND('',#1112,.T.);
#1191=FACE_BOUND('',#1113,.T.);
#1192=FACE_BOUND('',#1114,.T.);
#1193=FACE_BOUND('',#1115,.T.);
#1194=FACE_BOUND('',#1116,.T.);
#1195=FACE_BOUND('',#1117,.T.);
#1196=FACE_BOUND('',#1118,.T.);
#1197=FACE_BOUND('',#1119,.T.);
#1198=FACE_BOUND('',#1120,.T.);
#1199=FACE_BOUND('',#1121,.T.);
#1200=FACE_BOUND('',#1122,.T.);
#1201=FACE_BOUND('',#1123,.T.);
#1202=FACE_BOUND('',#1124,.T.);
#1203=FACE_BOUND('',#1125,.T.);
#1204=FACE_BOUND('',#1126,.T.);
#1205=FACE_BOUND('',#1127,.T.);
#1206=FACE_BOUND('',#1128,.T.);
#1207=FACE_BOUND('',#1129,.T.);
#1208=FACE_BOUND('',#1130,.T.);
#1209=FACE_BOUND('',#1131,.T.);
#1210=FACE_BOUND('',#1132,.T.);
#1211=FACE_BOUND('',#1133,.T.);
#1212=FACE_BOUND('',#1134,.T.);
#1213=FACE_BOUND('',#1135,.T.);
#1214=FACE_BOUND('',#1136,.T.);
#1215=FACE_BOUND('',#1137,.T.);
#1216=FACE_BOUND('',#1138,.T.);
#1217=FACE_BOUND('',#1139,.T.);
#1218=FACE_BOUND('',#1140,.T.);
#1219=FACE_BOUND('',#1141,.T.);
#1220=FACE_BOUND('',#1142,.T.);
#1221=FACE_BOUND('',#1143,.T.);
#1222=FACE_BOUND('',#1144,.T.);
#1223=FACE_BOUND('',#1145,.T.);
#1224=FACE_BOUND('',#1146,.T.);
#1225=FACE_BOUND('',#1147,.T.);
#1226=FACE_BOUND('',#1148,.T.);
#1227=FACE_BOUND('',#1149,.T.);
#1228=FACE_BOUND('',#1150,.T.);
#1229=FACE_BOUND('',#1151,.T.);
#1230=FACE_BOUND('',#1152,.T.);
#1231=FACE_BOUND('',#1153,.T.);
#1232=FACE_BOUND('',#1154,.T.);
#1233=FACE_BOUND('',#1155,.T.);
#1234=PLANE('',#1375);
#1235=PLANE('',#1377);
#1236=PLANE('',#1378);
#1237=PLANE('',#1388);
#1238=PLANE('',#1389);
#1239=PLANE('',#1393);
#1240=PLANE('',#1394);
#1241=PLANE('',#1395);
#1242=PLANE('',#1396);
#1243=PLANE('',#1397);
#1244=PLANE('',#1401);
#1245=PLANE('',#1411);
#1246=PLANE('',#1412);
#1247=PLANE('',#1413);
#1248=PLANE('',#1414);
#1249=PLANE('',#1415);
#1250=PLANE('',#1416);
#1251=PLANE('',#1417);
#1252=PLANE('',#1418);
#1253=PLANE('',#1425);
#1254=PLANE('',#1426);
#1255=PLANE('',#1430);
#1256=PLANE('',#1431);
#1257=PLANE('',#1432);
#1258=PLANE('',#1433);
#1259=PLANE('',#1434);
#1260=PLANE('',#1435);
#1261=PLANE('',#1436);
#1262=PLANE('',#1445);
#1263=PLANE('',#1446);
#1264=PLANE('',#1447);
#1265=PLANE('',#1448);
#1266=PLANE('',#1449);
#1267=PLANE('',#1450);
#1268=PLANE('',#1451);
#1269=PLANE('',#1452);
#1270=PLANE('',#1453);
#1271=PLANE('',#1454);
#1272=PLANE('',#1455);
#1273=PLANE('',#1459);
#1274=PLANE('',#1462);
#1275=PLANE('',#1463);
#1276=PLANE('',#1464);
#1277=PLANE('',#1465);
#1278=PLANE('',#1466);
#1279=PLANE('',#1467);
#1280=PLANE('',#1468);
#1281=PLANE('',#1469);
#1282=PLANE('',#1470);
#1283=PLANE('',#1471);
#1284=PLANE('',#1472);
#1285=PLANE('',#1473);
#1286=PLANE('',#1474);
#1287=PLANE('',#1475);
#1288=PLANE('',#1476);
#1289=PLANE('',#1477);
#1290=PLANE('',#1478);
#1291=ADVANCED_FACE('',(#1156),#1234,.F.);
#1292=ADVANCED_FACE('',(#1157),#1235,.F.);
#1293=ADVANCED_FACE('',(#1158),#1236,.F.);
#1294=ADVANCED_FACE('',(#1159,#1160),#24,.F.);
#1295=ADVANCED_FACE('',(#1161),#1237,.T.);
#1296=ADVANCED_FACE('',(#1162),#1238,.T.);
#1297=ADVANCED_FACE('',(#1163),#25,.T.);
#1298=ADVANCED_FACE('',(#1164),#1239,.F.);
#1299=ADVANCED_FACE('',(#1165),#1240,.T.);
#1300=ADVANCED_FACE('',(#1166),#1241,.T.);
#1301=ADVANCED_FACE('',(#1167),#1242,.T.);
#1302=ADVANCED_FACE('',(#1168),#1243,.T.);
#1303=ADVANCED_FACE('',(#1169),#26,.T.);
#1304=ADVANCED_FACE('',(#1170),#1244,.T.);
#1305=ADVANCED_FACE('',(#1171,#1172),#27,.F.);
#1306=ADVANCED_FACE('',(#1173),#28,.T.);
#1307=ADVANCED_FACE('',(#1174),#15,.T.);
#1308=ADVANCED_FACE('',(#1175),#1245,.F.);
#1309=ADVANCED_FACE('',(#1176),#1246,.T.);
#1310=ADVANCED_FACE('',(#1177),#1247,.T.);
#1311=ADVANCED_FACE('',(#1178),#1248,.F.);
#1312=ADVANCED_FACE('',(#1179),#1249,.F.);
#1313=ADVANCED_FACE('',(#1180),#1250,.T.);
#1314=ADVANCED_FACE('',(#1181),#1251,.T.);
#1315=ADVANCED_FACE('',(#1182),#1252,.F.);
#1316=ADVANCED_FACE('',(#1183),#29,.F.);
#1317=ADVANCED_FACE('',(#1184),#14,.F.);
#1318=ADVANCED_FACE('',(#1185),#1253,.F.);
#1319=ADVANCED_FACE('',(#1186),#1254,.F.);
#1320=ADVANCED_FACE('',(#1187),#30,.T.);
#1321=ADVANCED_FACE('',(#1188,#1189),#1255,.F.);
#1322=ADVANCED_FACE('',(#1190),#1256,.T.);
#1323=ADVANCED_FACE('',(#1191),#1257,.T.);
#1324=ADVANCED_FACE('',(#1192),#1258,.T.);
#1325=ADVANCED_FACE('',(#1193),#1259,.F.);
#1326=ADVANCED_FACE('',(#1194,#1195),#1260,.F.);
#1327=ADVANCED_FACE('',(#1196),#1261,.F.);
#1328=ADVANCED_FACE('',(#1197),#13,.T.);
#1329=ADVANCED_FACE('',(#1198),#31,.F.);
#1330=ADVANCED_FACE('',(#1199),#32,.T.);
#1331=ADVANCED_FACE('',(#1200),#1262,.F.);
#1332=ADVANCED_FACE('',(#1201),#1263,.F.);
#1333=ADVANCED_FACE('',(#1202),#1264,.F.);
#1334=ADVANCED_FACE('',(#1203),#1265,.T.);
#1335=ADVANCED_FACE('',(#1204),#1266,.F.);
#1336=ADVANCED_FACE('',(#1205),#1267,.T.);
#1337=ADVANCED_FACE('',(#1206),#1268,.F.);
#1338=ADVANCED_FACE('',(#1207),#1269,.T.);
#1339=ADVANCED_FACE('',(#1208),#1270,.T.);
#1340=ADVANCED_FACE('',(#1209),#1271,.F.);
#1341=ADVANCED_FACE('',(#1210),#1272,.F.);
#1342=ADVANCED_FACE('',(#1211,#1212),#33,.F.);
#1343=ADVANCED_FACE('',(#1213),#1273,.F.);
#1344=ADVANCED_FACE('',(#1214,#1215),#34,.T.);
#1345=ADVANCED_FACE('',(#1216),#1274,.T.);
#1346=ADVANCED_FACE('',(#1217),#1275,.T.);
#1347=ADVANCED_FACE('',(#1218),#1276,.T.);
#1348=ADVANCED_FACE('',(#1219),#1277,.T.);
#1349=ADVANCED_FACE('',(#1220),#1278,.T.);
#1350=ADVANCED_FACE('',(#1221),#1279,.T.);
#1351=ADVANCED_FACE('',(#1222),#1280,.T.);
#1352=ADVANCED_FACE('',(#1223,#1224),#1281,.F.);
#1353=ADVANCED_FACE('',(#1225),#1282,.T.);
#1354=ADVANCED_FACE('',(#1226),#1283,.F.);
#1355=ADVANCED_FACE('',(#1227),#1284,.T.);
#1356=ADVANCED_FACE('',(#1228),#1285,.F.);
#1357=ADVANCED_FACE('',(#1229),#1286,.T.);
#1358=ADVANCED_FACE('',(#1230),#1287,.T.);
#1359=ADVANCED_FACE('',(#1231),#1288,.T.);
#1360=ADVANCED_FACE('',(#1232),#1289,.F.);
#1361=ADVANCED_FACE('',(#1233),#1290,.F.);
#1362=CLOSED_SHELL('',(#1291,#1292,#1293,#1294,#1295,#1296,#1297,#1298,
#1299,#1300,#1301,#1302,#1303,#1304,#1305,#1306,#1307,#1308,#1309,#1310,
#1311,#1312,#1313,#1314,#1315,#1316,#1317,#1318,#1319,#1320,#1321,#1322,
#1323,#1324,#1325,#1326,#1327,#1328,#1329,#1330,#1331,#1332,#1333,#1334,
#1335,#1336,#1337,#1338,#1339,#1340,#1341,#1342,#1343,#1344,#1345,#1346,
#1347,#1348,#1349,#1350,#1351,#1352,#1353,#1354,#1355,#1356,#1357,#1358,
#1359,#1360,#1361));
#1363=STYLED_ITEM('',(#1364),#1371);
#1364=PRESENTATION_STYLE_ASSIGNMENT((#1365));
#1365=SURFACE_STYLE_USAGE(.BOTH.,#1366);
#1366=SURFACE_SIDE_STYLE('',(#1367));
#1367=SURFACE_STYLE_FILL_AREA(#1368);
#1368=FILL_AREA_STYLE('',(#1369));
#1369=FILL_AREA_STYLE_COLOUR('',#1370);
#1370=COLOUR_RGB('',0.235294117647059,0.235294117647059,0.235294117647059);
#1371=MANIFOLD_SOLID_BREP('Top Right Front',#1362);
#1372=SHAPE_DEFINITION_REPRESENTATION(#2253,#1373);
#1373=SHAPE_REPRESENTATION('Top Right Front',(#1374),#2248);
#1374=AXIS2_PLACEMENT_3D('',#1847,#1479,#1480);
#1375=AXIS2_PLACEMENT_3D('',#1848,#1481,#1482);
#1376=AXIS2_PLACEMENT_3D('',#1852,#1484,#1485);
#1377=AXIS2_PLACEMENT_3D('',#1857,#1488,#1489);
#1378=AXIS2_PLACEMENT_3D('',#1866,#1494,#1495);
#1379=AXIS2_PLACEMENT_3D('',#1880,#1503,#1504);
#1380=AXIS2_PLACEMENT_3D('',#1884,#1506,#1507);
#1381=AXIS2_PLACEMENT_3D('',#1888,#1509,#1510);
#1382=AXIS2_PLACEMENT_3D('',#1889,#1511,#1512);
#1383=AXIS2_PLACEMENT_3D('',#1892,#1513,#1514);
#1384=AXIS2_PLACEMENT_3D('',#1894,#1515,#1516);
#1385=AXIS2_PLACEMENT_3D('',#1896,#1517,#1518);
#1386=AXIS2_PLACEMENT_3D('',#1898,#1519,#1520);
#1387=AXIS2_PLACEMENT_3D('',#1900,#1521,#1522);
#1388=AXIS2_PLACEMENT_3D('',#1901,#1523,#1524);
#1389=AXIS2_PLACEMENT_3D('',#1914,#1532,#1533);
#1390=AXIS2_PLACEMENT_3D('',#1916,#1535,#1536);
#1391=AXIS2_PLACEMENT_3D('',#1917,#1537,#1538);
#1392=AXIS2_PLACEMENT_3D('',#1922,#1540,#1541);
#1393=AXIS2_PLACEMENT_3D('',#1929,#1545,#1546);
#1394=AXIS2_PLACEMENT_3D('',#1938,#1551,#1552);
#1395=AXIS2_PLACEMENT_3D('',#1947,#1557,#1558);
#1396=AXIS2_PLACEMENT_3D('',#1956,#1563,#1564);
#1397=AXIS2_PLACEMENT_3D('',#1965,#1569,#1570);
#1398=AXIS2_PLACEMENT_3D('',#1974,#1575,#1576);
#1399=AXIS2_PLACEMENT_3D('',#1975,#1577,#1578);
#1400=AXIS2_PLACEMENT_3D('',#1980,#1580,#1581);
#1401=AXIS2_PLACEMENT_3D('',#1983,#1583,#1584);
#1402=AXIS2_PLACEMENT_3D('',#1989,#1588,#1589);
#1403=AXIS2_PLACEMENT_3D('',#1990,#1590,#1591);
#1404=AXIS2_PLACEMENT_3D('',#1992,#1592,#1593);
#1405=AXIS2_PLACEMENT_3D('',#1994,#1594,#1595);
#1406=AXIS2_PLACEMENT_3D('',#1995,#1596,#1597);
#1407=AXIS2_PLACEMENT_3D('',#1999,#1599,#1600);
#1408=AXIS2_PLACEMENT_3D('',#2000,#1601,#1602);
#1409=AXIS2_PLACEMENT_3D('',#2001,#1603,#1604);
#1410=AXIS2_PLACEMENT_3D('',#2005,#1606,#1607);
#1411=AXIS2_PLACEMENT_3D('',#2006,#1608,#1609);
#1412=AXIS2_PLACEMENT_3D('',#2012,#1613,#1614);
#1413=AXIS2_PLACEMENT_3D('',#2017,#1618,#1619);
#1414=AXIS2_PLACEMENT_3D('',#2021,#1622,#1623);
#1415=AXIS2_PLACEMENT_3D('',#2026,#1627,#1628);
#1416=AXIS2_PLACEMENT_3D('',#2030,#1631,#1632);
#1417=AXIS2_PLACEMENT_3D('',#2038,#1637,#1638);
#1418=AXIS2_PLACEMENT_3D('',#2044,#1642,#1643);
#1419=AXIS2_PLACEMENT_3D('',#2052,#1648,#1649);
#1420=AXIS2_PLACEMENT_3D('',#2056,#1651,#1652);
#1421=AXIS2_PLACEMENT_3D('',#2057,#1653,#1654);
#1422=AXIS2_PLACEMENT_3D('',#2060,#1656,#1657);
#1423=AXIS2_PLACEMENT_3D('',#2061,#1658,#1659);
#1424=AXIS2_PLACEMENT_3D('',#2062,#1660,#1661);
#1425=AXIS2_PLACEMENT_3D('',#2063,#1662,#1663);
#1426=AXIS2_PLACEMENT_3D('',#2077,#1671,#1672);
#1427=AXIS2_PLACEMENT_3D('',#2086,#1678,#1679);
#1428=AXIS2_PLACEMENT_3D('',#2087,#1680,#1681);
#1429=AXIS2_PLACEMENT_3D('',#2089,#1683,#1684);
#1430=AXIS2_PLACEMENT_3D('',#2090,#1685,#1686);
#1431=AXIS2_PLACEMENT_3D('',#2095,#1690,#1691);
#1432=AXIS2_PLACEMENT_3D('',#2099,#1694,#1695);
#1433=AXIS2_PLACEMENT_3D('',#2105,#1699,#1700);
#1434=AXIS2_PLACEMENT_3D('',#2109,#1703,#1704);
#1435=AXIS2_PLACEMENT_3D('',#2113,#1707,#1708);
#1436=AXIS2_PLACEMENT_3D('',#2117,#1712,#1713);
#1437=AXIS2_PLACEMENT_3D('',#2118,#1714,#1715);
#1438=AXIS2_PLACEMENT_3D('',#2119,#1716,#1717);
#1439=AXIS2_PLACEMENT_3D('',#2120,#1718,#1719);
#1440=AXIS2_PLACEMENT_3D('',#2121,#1720,#1721);
#1441=AXIS2_PLACEMENT_3D('',#2125,#1723,#1724);
#1442=AXIS2_PLACEMENT_3D('',#2128,#1726,#1727);
#1443=AXIS2_PLACEMENT_3D('',#2129,#1728,#1729);
#1444=AXIS2_PLACEMENT_3D('',#2131,#1730,#1731);
#1445=AXIS2_PLACEMENT_3D('',#2133,#1733,#1734);
#1446=AXIS2_PLACEMENT_3D('',#2140,#1739,#1740);
#1447=AXIS2_PLACEMENT_3D('',#2144,#1743,#1744);
#1448=AXIS2_PLACEMENT_3D('',#2149,#1748,#1749);
#1449=AXIS2_PLACEMENT_3D('',#2153,#1752,#1753);
#1450=AXIS2_PLACEMENT_3D('',#2157,#1756,#1757);
#1451=AXIS2_PLACEMENT_3D('',#2159,#1759,#1760);
#1452=AXIS2_PLACEMENT_3D('',#2163,#1763,#1764);
#1453=AXIS2_PLACEMENT_3D('',#2165,#1766,#1767);
#1454=AXIS2_PLACEMENT_3D('',#2169,#1770,#1771);
#1455=AXIS2_PLACEMENT_3D('',#2175,#1775,#1776);
#1456=AXIS2_PLACEMENT_3D('',#2176,#1777,#1778);
#1457=AXIS2_PLACEMENT_3D('',#2179,#1780,#1781);
#1458=AXIS2_PLACEMENT_3D('',#2180,#1782,#1783);
#1459=AXIS2_PLACEMENT_3D('',#2194,#1784,#1785);
#1460=AXIS2_PLACEMENT_3D('',#2198,#1788,#1789);
#1461=AXIS2_PLACEMENT_3D('',#2199,#1790,#1791);
#1462=AXIS2_PLACEMENT_3D('',#2200,#1792,#1793);
#1463=AXIS2_PLACEMENT_3D('',#2201,#1794,#1795);
#1464=AXIS2_PLACEMENT_3D('',#2207,#1799,#1800);
#1465=AXIS2_PLACEMENT_3D('',#2211,#1803,#1804);
#1466=AXIS2_PLACEMENT_3D('',#2215,#1807,#1808);
#1467=AXIS2_PLACEMENT_3D('',#2219,#1811,#1812);
#1468=AXIS2_PLACEMENT_3D('',#2223,#1815,#1816);
#1469=AXIS2_PLACEMENT_3D('',#2225,#1818,#1819);
#1470=AXIS2_PLACEMENT_3D('',#2226,#1820,#1821);
#1471=AXIS2_PLACEMENT_3D('',#2230,#1824,#1825);
#1472=AXIS2_PLACEMENT_3D('',#2234,#1828,#1829);
#1473=AXIS2_PLACEMENT_3D('',#2236,#1831,#1832);
#1474=AXIS2_PLACEMENT_3D('',#2240,#1835,#1836);
#1475=AXIS2_PLACEMENT_3D('',#2242,#1838,#1839);
#1476=AXIS2_PLACEMENT_3D('',#2243,#1840,#1841);
#1477=AXIS2_PLACEMENT_3D('',#2244,#1842,#1843);
#1478=AXIS2_PLACEMENT_3D('',#2246,#1845,#1846);
#1479=DIRECTION('',(0.,0.,1.));
#1480=DIRECTION('',(1.,0.,0.));
#1481=DIRECTION('',(0.,-1.,0.));
#1482=DIRECTION('',(1.,0.,0.));
#1483=DIRECTION('',(0.,0.,1.));
#1484=DIRECTION('',(0.,-1.,0.));
#1485=DIRECTION('',(0.,0.,-1.));
#1486=DIRECTION('',(0.,0.,-1.));
#1487=DIRECTION('',(1.,0.,0.));
#1488=DIRECTION('',(0.,0.,1.));
#1489=DIRECTION('',(1.,0.,0.));
#1490=DIRECTION('',(1.,0.,0.));
#1491=DIRECTION('',(-9.09124651674711E-17,1.,0.));
#1492=DIRECTION('',(1.,0.,0.));
#1493=DIRECTION('',(-9.09124651674711E-17,1.,0.));
#1494=DIRECTION('',(-1.,-9.09124651674711E-17,0.));
#1495=DIRECTION('',(9.09124651674711E-17,-1.,0.));
#1496=DIRECTION('',(0.,0.,-1.));
#1497=DIRECTION('',(0.,0.,-1.));
#1498=DIRECTION('',(0.,-1.,0.));
#1499=DIRECTION('',(0.,0.,-1.));
#1500=DIRECTION('',(-9.09124651674711E-17,1.,0.));
#1501=DIRECTION('',(0.,0.,-1.));
#1502=DIRECTION('',(-9.09124651674711E-17,1.,0.));
#1503=DIRECTION('',(0.,0.,-1.));
#1504=DIRECTION('',(-1.,0.,0.));
#1505=DIRECTION('',(0.,0.,-1.));
#1506=DIRECTION('',(0.,0.,1.));
#1507=DIRECTION('',(1.,0.,0.));
#1508=DIRECTION('',(0.,0.,-1.));
#1509=DIRECTION('',(0.,0.,-1.));
#1510=DIRECTION('',(-1.,0.,0.));
#1511=DIRECTION('',(0.612372435695789,0.612372435695789,0.500000000000014));
#1512=DIRECTION('',(0.353553390593284,0.353553390593284,-0.866025403784431));
#1513=DIRECTION('',(-9.71242825364665E-15,-9.71242825364666E-15,1.));
#1514=DIRECTION('',(0.,-1.,-9.71242825364666E-15));
#1515=DIRECTION('',(-0.612372435695797,-0.612372435695797,0.5));
#1516=DIRECTION('',(-0.35355339059327,-0.35355339059327,-0.866025403784442));
#1517=DIRECTION('',(-0.61237243569579,-0.612372435695791,-0.500000000000011));
#1518=DIRECTION('',(0.353553390593281,0.353553390593282,-0.866025403784432));
#1519=DIRECTION('',(9.71242825364665E-15,9.71242825364666E-15,-1.));
#1520=DIRECTION('',(0.,1.,9.71242825364666E-15));
#1521=DIRECTION('',(0.612372435695798,0.612372435695798,-0.499999999999992));
#1522=DIRECTION('',(-0.353553390593268,-0.353553390593269,-0.866025403784444));
#1523=DIRECTION('',(-1.,-9.09124651674711E-17,0.));
#1524=DIRECTION('',(9.09124651674711E-17,-1.,0.));
#1525=DIRECTION('',(0.,0.,-1.));
#1526=DIRECTION('',(-9.09124651674711E-17,1.,0.));
#1527=DIRECTION('',(0.,0.,-1.));
#1528=DIRECTION('',(0.,0.,1.));
#1529=DIRECTION('',(-7.87325043556979E-17,0.866025403784439,0.5));
#1530=DIRECTION('',(0.,1.,0.));
#1531=DIRECTION('',(-9.09124651674711E-17,1.,0.));
#1532=DIRECTION('',(0.,1.,0.));
#1533=DIRECTION('',(0.,0.,1.));
#1534=DIRECTION('',(1.,0.,0.));
#1535=DIRECTION('',(0.,0.,1.));
#1536=DIRECTION('',(1.,0.,0.));
#1537=DIRECTION('',(0.,0.,1.));
#1538=DIRECTION('',(1.,0.,0.));
#1539=DIRECTION('',(0.,0.,-1.));
#1540=DIRECTION('',(0.,0.,1.));
#1541=DIRECTION('',(1.,0.,0.));
#1542=DIRECTION('',(0.,0.,-1.));
#1543=DIRECTION('',(0.,0.,-1.));
#1544=DIRECTION('',(0.,0.,-1.));
#1545=DIRECTION('',(0.,-1.,0.));
#1546=DIRECTION('',(0.,0.,-1.));
#1547=DIRECTION('',(-1.,0.,0.));
#1548=DIRECTION('',(0.,0.,1.));
#1549=DIRECTION('',(-1.,0.,0.));
#1550=DIRECTION('',(0.,0.,-1.));
#1551=DIRECTION('',(0.,1.,0.));
#1552=DIRECTION('',(0.,0.,1.));
#1553=DIRECTION('',(0.,0.,-1.));
#1554=DIRECTION('',(-1.,0.,0.));
#1555=DIRECTION('',(0.,0.,1.));
#1556=DIRECTION('',(-1.,0.,0.));
#1557=DIRECTION('',(0.,1.,0.));
#1558=DIRECTION('',(0.,0.,1.));
#1559=DIRECTION('',(0.,0.,-1.));
#1560=DIRECTION('',(1.,0.,0.));
#1561=DIRECTION('',(0.,0.,1.));
#1562=DIRECTION('',(1.,0.,0.));
#1563=DIRECTION('',(0.,-0.707106781186548,0.707106781186548));
#1564=DIRECTION('',(-1.,0.,0.));
#1565=DIRECTION('',(0.,0.707106781186548,0.707106781186548));
#1566=DIRECTION('',(-1.,0.,0.));
#1567=DIRECTION('',(0.,0.707106781186548,0.707106781186548));
#1568=DIRECTION('',(1.,0.,0.));
#1569=DIRECTION('',(0.,-1.,0.));
#1570=DIRECTION('',(1.,0.,0.));
#1571=DIRECTION('',(1.,0.,0.));
#1572=DIRECTION('',(0.,0.,1.));
#1573=DIRECTION('',(1.,0.,0.));
#1574=DIRECTION('',(0.,0.,-1.));
#1575=DIRECTION('',(0.,0.,1.));
#1576=DIRECTION('',(1.,0.,0.));
#1577=DIRECTION('',(0.,0.,1.));
#1578=DIRECTION('',(1.,0.,0.));
#1579=DIRECTION('',(0.,0.,1.));
#1580=DIRECTION('',(0.,0.707106781186548,-0.707106781186548));
#1581=DIRECTION('',(0.,0.707106781186548,0.707106781186548));
#1582=DIRECTION('',(0.,0.,1.));
#1583=DIRECTION('',(0.,-1.,0.));
#1584=DIRECTION('',(1.,0.,0.));
#1585=DIRECTION('',(1.,0.,0.));
#1586=DIRECTION('',(1.,0.,0.));
#1587=DIRECTION('',(0.,0.,1.));
#1588=DIRECTION('',(0.,0.,1.));
#1589=DIRECTION('',(1.,0.,0.));
#1590=DIRECTION('',(0.,0.707106781186548,-0.707106781186548));
#1591=DIRECTION('',(0.,0.707106781186548,0.707106781186548));
#1592=DIRECTION('',(0.,0.,1.));
#1593=DIRECTION('',(1.,0.,0.));
#1594=DIRECTION('',(0.,0.,-1.));
#1595=DIRECTION('',(-1.,0.,0.));
#1596=DIRECTION('',(0.,0.,1.));
#1597=DIRECTION('',(1.,0.,0.));
#1598=DIRECTION('',(0.,0.,1.));
#1599=DIRECTION('',(0.,0.707106781186548,-0.707106781186548));
#1600=DIRECTION('',(0.,-0.707106781186548,-0.707106781186548));
#1601=DIRECTION('',(0.,0.,-1.));
#1602=DIRECTION('',(-1.,0.,0.));
#1603=DIRECTION('',(0.,0.,1.));
#1604=DIRECTION('',(1.,0.,0.));
#1605=DIRECTION('',(-0.707106781186548,0.,0.707106781186548));
#1606=DIRECTION('',(0.,0.,1.));
#1607=DIRECTION('',(1.,0.,0.));
#1608=DIRECTION('',(-0.707106781186548,0.,-0.707106781186548));
#1609=DIRECTION('',(0.,-1.,0.));
#1610=DIRECTION('',(-0.707106781186548,0.,0.707106781186548));
#1611=DIRECTION('',(0.,1.,0.));
#1612=DIRECTION('',(0.,-1.,0.));
#1613=DIRECTION('',(0.,0.,1.));
#1614=DIRECTION('',(1.,0.,0.));
#1615=DIRECTION('',(1.,0.,0.));
#1616=DIRECTION('',(1.85998161270758E-16,-1.,0.));
#1617=DIRECTION('',(0.,1.,0.));
#1618=DIRECTION('',(-1.,-1.85998161270758E-16,0.));
#1619=DIRECTION('',(1.85998161270758E-16,-1.,0.));
#1620=DIRECTION('',(0.,0.,1.));
#1621=DIRECTION('',(1.85998161270758E-16,-1.,0.));
#1622=DIRECTION('',(0.,0.,1.));
#1623=DIRECTION('',(1.,0.,0.));
#1624=DIRECTION('',(1.,0.,0.));
#1625=DIRECTION('',(1.81824930334942E-16,-1.,0.));
#1626=DIRECTION('',(0.,1.,0.));
#1627=DIRECTION('',(1.,1.81824930334942E-16,0.));
#1628=DIRECTION('',(-1.81824930334942E-16,1.,0.));
#1629=DIRECTION('',(0.,0.,-1.));
#1630=DIRECTION('',(1.81824930334942E-16,-1.,0.));
#1631=DIRECTION('',(0.,0.,1.));
#1632=DIRECTION('',(1.,0.,0.));
#1633=DIRECTION('',(1.85998161270758E-16,-1.,0.));
#1634=DIRECTION('',(-1.,0.,0.));
#1635=DIRECTION('',(0.,1.,0.));
#1636=DIRECTION('',(1.,0.,0.));
#1637=DIRECTION('',(-1.,-1.85998161270758E-16,0.));
#1638=DIRECTION('',(1.85998161270758E-16,-1.,0.));
#1639=DIRECTION('',(-1.85998161270758E-16,1.,0.));
#1640=DIRECTION('',(0.,0.,1.));
#1641=DIRECTION('',(-1.85998161270758E-16,1.,0.));
#1642=DIRECTION('',(0.,0.,1.));
#1643=DIRECTION('',(1.,0.,0.));
#1644=DIRECTION('',(1.,0.,0.));
#1645=DIRECTION('',(0.,-1.,0.));
#1646=DIRECTION('',(-1.,0.,0.));
#1647=DIRECTION('',(0.,1.,0.));
#1648=DIRECTION('',(-1.,0.,0.));
#1649=DIRECTION('',(0.,0.,1.));
#1650=DIRECTION('',(-1.,0.,0.));
#1651=DIRECTION('',(1.,0.,0.));
#1652=DIRECTION('',(0.,0.,-1.));
#1653=DIRECTION('',(-1.,0.,1.09273919746571E-15));
#1654=DIRECTION('',(1.09273919746571E-15,0.,1.));
#1655=DIRECTION('',(-1.,0.,0.));
#1656=DIRECTION('',(1.,0.,0.));
#1657=DIRECTION('',(0.,0.,-1.));
#1658=DIRECTION('',(1.,0.,0.));
#1659=DIRECTION('',(0.,0.,-1.));
#1660=DIRECTION('',(0.,1.,0.));
#1661=DIRECTION('',(0.,0.,1.));
#1662=DIRECTION('',(0.,0.,1.));
#1663=DIRECTION('',(1.,0.,0.));
#1664=DIRECTION('',(1.,0.,0.));
#1665=DIRECTION('',(0.,1.,0.));
#1666=DIRECTION('',(1.,-1.83697019872103E-16,0.));
#1667=DIRECTION('',(-1.83697019872103E-16,-1.,0.));
#1668=DIRECTION('',(1.,-1.83697019872103E-16,0.));
#1669=DIRECTION('',(0.,1.,0.));
#1670=DIRECTION('',(0.,-1.,0.));
#1671=DIRECTION('',(1.,0.,0.));
#1672=DIRECTION('',(0.,1.,0.));
#1673=DIRECTION('',(0.,-0.906307787036647,0.422618261740705));
#1674=DIRECTION('',(0.,0.,1.));
#1675=DIRECTION('',(0.,-1.,0.));
#1676=DIRECTION('',(0.,0.,1.));
#1677=DIRECTION('',(0.,0.,-1.));
#1678=DIRECTION('',(1.,0.,0.));
#1679=DIRECTION('',(0.,0.,-1.));
#1680=DIRECTION('',(1.,0.,0.));
#1681=DIRECTION('',(0.,0.,-1.));
#1682=DIRECTION('',(-1.,0.,0.));
#1683=DIRECTION('',(-1.,0.,0.));
#1684=DIRECTION('',(0.,0.,1.));
#1685=DIRECTION('',(0.,0.707106781186548,-0.707106781186548));
#1686=DIRECTION('',(1.,0.,0.));
#1687=DIRECTION('',(0.,0.707106781186548,0.707106781186548));
#1688=DIRECTION('',(0.,-0.707106781186548,-0.707106781186548));
#1689=DIRECTION('',(1.,0.,0.));
#1690=DIRECTION('',(-1.,0.,0.));
#1691=DIRECTION('',(0.,0.,1.));
#1692=DIRECTION('',(0.,1.,0.));
#1693=DIRECTION('',(0.,0.,1.));
#1694=DIRECTION('',(-0.707106781186548,-0.707106781186548,0.));
#1695=DIRECTION('',(0.,0.,1.));
#1696=DIRECTION('',(0.707106781186548,-0.707106781186548,0.));
#1697=DIRECTION('',(0.,0.,-1.));
#1698=DIRECTION('',(-0.577350269189626,0.577350269189626,-0.577350269189626));
#1699=DIRECTION('',(0.,-0.707106781186548,-0.707106781186548));
#1700=DIRECTION('',(-1.,0.,0.));
#1701=DIRECTION('',(-1.,0.,0.));
#1702=DIRECTION('',(0.577350269189626,0.577350269189626,-0.577350269189626));
#1703=DIRECTION('',(-0.707106781186548,0.707106781186548,0.));
#1704=DIRECTION('',(0.,0.,-1.));
#1705=DIRECTION('',(-0.707106781186548,-0.707106781186548,0.));
#1706=DIRECTION('',(0.,0.,-1.));
#1707=DIRECTION('',(0.,0.,1.));
#1708=DIRECTION('',(1.,0.,0.));
#1709=DIRECTION('',(1.,0.,0.));
#1710=DIRECTION('',(1.,0.,0.));
#1711=DIRECTION('',(0.,1.,0.));
#1712=DIRECTION('',(-1.,0.,0.));
#1713=DIRECTION('',(0.,0.,1.));
#1714=DIRECTION('',(0.,0.,1.));
#1715=DIRECTION('',(1.,0.,0.));
#1716=DIRECTION('',(0.,1.,0.));
#1717=DIRECTION('',(0.,0.,1.));
#1718=DIRECTION('',(0.,1.,0.));
#1719=DIRECTION('',(0.,0.,1.));
#1720=DIRECTION('',(0.,-1.,0.));
#1721=DIRECTION('',(0.,0.,-1.));
#1722=DIRECTION('',(0.,1.,0.));
#1723=DIRECTION('',(0.,1.,0.));
#1724=DIRECTION('',(0.,0.,1.));
#1725=DIRECTION('',(0.,-1.,0.));
#1726=DIRECTION('',(0.,1.,0.));
#1727=DIRECTION('',(0.,0.,1.));
#1728=DIRECTION('',(0.,0.5,-0.866025403784439));
#1729=DIRECTION('',(0.,0.866025403784439,0.5));
#1730=DIRECTION('',(0.,-1.,0.));
#1731=DIRECTION('',(0.,0.,-1.));
#1732=DIRECTION('',(0.,1.,0.));
#1733=DIRECTION('',(0.,0.,1.));
#1734=DIRECTION('',(1.,0.,0.));
#1735=DIRECTION('',(1.,0.,0.));
#1736=DIRECTION('',(0.,-1.,0.));
#1737=DIRECTION('',(-1.,0.,0.));
#1738=DIRECTION('',(1.,0.,0.));
#1739=DIRECTION('',(0.,0.,1.));
#1740=DIRECTION('',(1.,0.,0.));
#1741=DIRECTION('',(0.,-1.,0.));
#1742=DIRECTION('',(1.,0.,0.));
#1743=DIRECTION('',(0.,-1.,0.));
#1744=DIRECTION('',(1.,0.,0.));
#1745=DIRECTION('',(-0.906307787036649,0.,-0.422618261740702));
#1746=DIRECTION('',(-1.,0.,0.));
#1747=DIRECTION('',(0.,0.,-1.));
#1748=DIRECTION('',(1.,0.,0.));
#1749=DIRECTION('',(0.,0.,-1.));
#1750=DIRECTION('',(0.,-1.,0.));
#1751=DIRECTION('',(0.,0.,-1.));
#1752=DIRECTION('',(0.,1.,0.));
#1753=DIRECTION('',(0.,0.,1.));
#1754=DIRECTION('',(0.,0.,-1.));
#1755=DIRECTION('',(1.,0.,0.));
#1756=DIRECTION('',(0.,1.,0.));
#1757=DIRECTION('',(0.,0.,1.));
#1758=DIRECTION('',(1.,0.,0.));
#1759=DIRECTION('',(1.,0.,0.));
#1760=DIRECTION('',(0.,0.,-1.));
#1761=DIRECTION('',(0.,0.,-1.));
#1762=DIRECTION('',(0.,-1.,0.));
#1763=DIRECTION('',(0.,1.,0.));
#1764=DIRECTION('',(0.,0.,1.));
#1765=DIRECTION('',(1.,0.,0.));
#1766=DIRECTION('',(0.,1.,0.));
#1767=DIRECTION('',(0.,0.,1.));
#1768=DIRECTION('',(1.,0.,0.));
#1769=DIRECTION('',(0.,0.,-1.));
#1770=DIRECTION('',(1.,0.,0.));
#1771=DIRECTION('',(0.,0.,-1.));
#1772=DIRECTION('',(0.,0.,-1.));
#1773=DIRECTION('',(0.,-1.,0.));
#1774=DIRECTION('',(0.,-1.,0.));
#1775=DIRECTION('',(0.,0.,1.));
#1776=DIRECTION('',(1.,0.,0.));
#1777=DIRECTION('',(0.,0.,1.));
#1778=DIRECTION('',(1.,0.,0.));
#1779=DIRECTION('',(-1.,0.,0.));
#1780=DIRECTION('',(-0.707106781186548,0.707106781186547,0.));
#1781=DIRECTION('',(-0.707106781186547,-0.707106781186548,0.));
#1782=DIRECTION('',(0.707106781186548,-0.707106781186547,0.));
#1783=DIRECTION('',(0.707106781186547,0.707106781186548,0.));
#1784=DIRECTION('',(0.,1.,0.));
#1785=DIRECTION('',(0.,0.,1.));
#1786=DIRECTION('',(0.,0.,-1.));
#1787=DIRECTION('',(1.,0.,0.));
#1788=DIRECTION('',(0.,0.,-1.));
#1789=DIRECTION('',(-1.,0.,0.));
#1790=DIRECTION('',(0.,0.,1.));
#1791=DIRECTION('',(-1.,0.,0.));
#1792=DIRECTION('',(0.,0.,-1.));
#1793=DIRECTION('',(1.,0.,0.));
#1794=DIRECTION('',(0.612372435695789,0.612372435695789,0.500000000000014));
#1795=DIRECTION('',(-0.707106781186548,0.707106781186547,0.));
#1796=DIRECTION('',(-0.707106781186548,0.707106781186547,0.));
#1797=DIRECTION('',(0.353553390593284,0.353553390593284,-0.866025403784431));
#1798=DIRECTION('',(-0.707106781186548,0.707106781186547,0.));
#1799=DIRECTION('',(-9.71242825364665E-15,-9.71242825364666E-15,1.));
#1800=DIRECTION('',(0.,-1.,-9.71242825364666E-15));
#1801=DIRECTION('',(0.707106781186547,0.707106781186548,1.37354477598827E-14));
#1802=DIRECTION('',(-0.707106781186548,0.707106781186547,0.));
#1803=DIRECTION('',(-0.612372435695797,-0.612372435695797,0.5));
#1804=DIRECTION('',(0.707106781186548,-0.707106781186547,0.));
#1805=DIRECTION('',(0.35355339059327,0.35355339059327,0.866025403784442));
#1806=DIRECTION('',(-0.707106781186548,0.707106781186547,0.));
#1807=DIRECTION('',(-0.61237243569579,-0.612372435695791,-0.500000000000011));
#1808=DIRECTION('',(0.707106781186548,-0.707106781186547,0.));
#1809=DIRECTION('',(-0.353553390593281,-0.353553390593282,0.866025403784433));
#1810=DIRECTION('',(-0.707106781186548,0.707106781186547,0.));
#1811=DIRECTION('',(9.71242825364665E-15,9.71242825364666E-15,-1.));
#1812=DIRECTION('',(0.,1.,9.71242825364666E-15));
#1813=DIRECTION('',(-0.707106781186547,-0.707106781186548,-1.37354477598827E-14));
#1814=DIRECTION('',(-0.707106781186548,0.707106781186547,0.));
#1815=DIRECTION('',(0.612372435695798,0.612372435695798,-0.499999999999992));
#1816=DIRECTION('',(-0.707106781186548,0.707106781186547,0.));
#1817=DIRECTION('',(-0.353553390593268,-0.353553390593269,-0.866025403784443));
#1818=DIRECTION('',(0.707106781186548,-0.707106781186547,0.));
#1819=DIRECTION('',(0.707106781186547,0.707106781186548,0.));
#1820=DIRECTION('',(-1.83697019872103E-16,-1.,0.));
#1821=DIRECTION('',(0.,0.,1.));
#1822=DIRECTION('',(0.866025403784438,-1.59086285808736E-16,0.5));
#1823=DIRECTION('',(0.,0.,1.));
#1824=DIRECTION('',(-1.83697019872103E-16,-1.,0.));
#1825=DIRECTION('',(0.,0.,1.));
#1826=DIRECTION('',(0.,0.,1.));
#1827=DIRECTION('',(-0.866025403784438,1.59086285808736E-16,-0.5));
#1828=DIRECTION('',(-1.,1.83697019872103E-16,0.));
#1829=DIRECTION('',(-1.83697019872103E-16,-1.,0.));
#1830=DIRECTION('',(-1.83697019872103E-16,-1.,0.));
#1831=DIRECTION('',(-1.,0.,0.));
#1832=DIRECTION('',(0.,0.,-1.));
#1833=DIRECTION('',(0.,-0.866025403784439,-0.5));
#1834=DIRECTION('',(0.,0.,-1.));
#1835=DIRECTION('',(0.,1.,0.));
#1836=DIRECTION('',(-1.,0.,0.));
#1837=DIRECTION('',(1.,0.,0.));
#1838=DIRECTION('',(-0.5,0.,0.866025403784438));
#1839=DIRECTION('',(0.,1.,0.));
#1840=DIRECTION('',(0.,0.5,-0.866025403784439));
#1841=DIRECTION('',(-1.,0.,0.));
#1842=DIRECTION('',(0.422618261740702,7.86062196032147E-17,-0.906307787036649));
#1843=DIRECTION('',(1.85998161270758E-16,-1.,0.));
#1844=DIRECTION('',(0.67154293423782,-0.671542934237814,0.313145613014977));
#1845=DIRECTION('',(0.,-0.422618261740705,-0.906307787036647));
#1846=DIRECTION('',(-1.,0.,0.));
#1847=CARTESIAN_POINT('',(0.,0.,0.));
#1848=CARTESIAN_POINT('',(0.,-0.0001,0.));
#1849=CARTESIAN_POINT('',(0.188649999999996,-0.0001,0.31005));
#1850=CARTESIAN_POINT('',(0.188649999999996,-0.0001,0.30725));
#1851=CARTESIAN_POINT('',(0.188649999999996,-0.0001,0.320734835591593));
#1852=CARTESIAN_POINT('',(0.17765,-0.0001,0.310536796564404));
#1853=CARTESIAN_POINT('',(0.19265,-0.0001,0.310536796564404));
#1854=CARTESIAN_POINT('',(0.19265,-0.0001,0.0083));
#1855=CARTESIAN_POINT('',(0.19265,-0.0001,0.30725));
#1856=CARTESIAN_POINT('',(-2.77555756156289E-17,-0.0001,0.30725));
#1857=CARTESIAN_POINT('',(-2.77555756156289E-17,0.0179999999999986,0.31005));
#1858=CARTESIAN_POINT('',(-2.77555756156289E-17,-0.01,0.31005));
#1859=CARTESIAN_POINT('',(0.184974999999996,-0.01,0.31005));
#1860=CARTESIAN_POINT('',(0.188649999999996,-0.01,0.31005));
#1861=CARTESIAN_POINT('',(0.188649999999996,-2.77555756156289E-16,0.31005));
#1862=CARTESIAN_POINT('',(0.188649999999996,-0.15265,0.31005));
#1863=CARTESIAN_POINT('',(0.186812499999996,-0.15265,0.31005));
#1864=CARTESIAN_POINT('',(0.184974999999996,-0.15265,0.31005));
#1865=CARTESIAN_POINT('',(0.184974999999996,-2.77555756156289E-16,0.31005));
#1866=CARTESIAN_POINT('',(0.184974999999996,-2.77555756156289E-16,0.31005));
#1867=CARTESIAN_POINT('',(0.184974999999996,-0.01,0.005));
#1868=CARTESIAN_POINT('',(0.184974999999996,-0.01,0.30725));
#1869=CARTESIAN_POINT('',(0.184974999999996,-0.15265,0.31005));
#1870=CARTESIAN_POINT('',(0.184974999999996,-0.15265,0.167525));
#1871=CARTESIAN_POINT('',(0.184974999999996,-0.1524625,0.167525));
#1872=CARTESIAN_POINT('',(0.184974999999996,-0.155575,0.167525));
#1873=CARTESIAN_POINT('',(0.184974999999996,-0.155575,0.167525));
#1874=CARTESIAN_POINT('',(0.184974999999996,-0.155575,0.157625));
#1875=CARTESIAN_POINT('',(0.184974999999996,-2.77555756156289E-16,0.157625));
#1876=CARTESIAN_POINT('',(0.184974999999996,-0.14935,0.157625));
#1877=CARTESIAN_POINT('',(0.184974999999996,-0.14935,0.31005));
#1878=CARTESIAN_POINT('',(0.184974999999996,-0.14935,0.30725));
#1879=CARTESIAN_POINT('',(0.184974999999996,-2.77555756156289E-16,0.30725));
#1880=CARTESIAN_POINT('',(0.155575,-0.155575,0.0083));
#1881=CARTESIAN_POINT('',(0.180975,-0.155575,0.0083));
#1882=CARTESIAN_POINT('',(0.180975,-0.155575,0.157625));
#1883=CARTESIAN_POINT('',(0.180975,-0.155575,0.29135));
#1884=CARTESIAN_POINT('',(0.155575,-0.155575,0.157625));
#1885=CARTESIAN_POINT('',(0.155575,-0.180975,0.157625));
#1886=CARTESIAN_POINT('',(0.155575,-0.180975,0.0083));
#1887=CARTESIAN_POINT('',(0.155575,-0.180975,0.29135));
#1888=CARTESIAN_POINT('',(0.155575,-0.155575,0.29135));
#1889=CARTESIAN_POINT('',(0.155575,-0.155575,0.155525));
#1890=CARTESIAN_POINT('',(0.172049715354483,-0.17490745338773,0.159025));
#1891=CARTESIAN_POINT('',(0.17044896615257,-0.176164442219064,0.162525));
#1892=CARTESIAN_POINT('',(0.155575,-0.155575,0.159025));
#1893=CARTESIAN_POINT('',(0.17490745338773,-0.172049715354483,0.159025));
#1894=CARTESIAN_POINT('',(0.155575,-0.155575,0.155525));
#1895=CARTESIAN_POINT('',(0.176164442219064,-0.17044896615257,0.162525));
#1896=CARTESIAN_POINT('',(0.155575,-0.155575,0.169525));
#1897=CARTESIAN_POINT('',(0.17490745338773,-0.172049715354483,0.166025));
#1898=CARTESIAN_POINT('',(0.155575,-0.155575,0.166025));
#1899=CARTESIAN_POINT('',(0.172049715354483,-0.17490745338773,0.166025));
#1900=CARTESIAN_POINT('',(0.155575,-0.155575,0.169525));
#1901=CARTESIAN_POINT('',(0.188649999999996,-2.77555756156289E-16,0.31005));
#1902=CARTESIAN_POINT('',(0.188649999999996,-0.14935,0.31005));
#1903=CARTESIAN_POINT('',(0.188649999999996,-0.14935,0.30725));
#1904=CARTESIAN_POINT('',(0.188649999999996,-0.14935,0.167525));
#1905=CARTESIAN_POINT('',(0.188649999999996,-2.77555756156289E-16,0.167525));
#1906=CARTESIAN_POINT('',(0.188649999999996,-0.15265,0.167525));
#1907=CARTESIAN_POINT('',(0.188649999999996,-0.15265,0.31005));
#1908=CARTESIAN_POINT('',(0.188649999999996,-0.01,0.31255));
#1909=CARTESIAN_POINT('',(0.188649999999996,-0.01,0.31505));
#1910=CARTESIAN_POINT('',(0.188649999999996,-0.01,0.31505));
#1911=CARTESIAN_POINT('',(0.188649999999996,-0.000153575922684536,0.320734835591593));
#1912=CARTESIAN_POINT('',(0.188649999999996,0.,0.320734835591593));
#1913=CARTESIAN_POINT('',(0.188649999999996,-2.77555756156289E-16,0.30725));
#1914=CARTESIAN_POINT('',(0.186812499999996,-0.15265,0.31005));
#1915=CARTESIAN_POINT('',(0.186812499999996,-0.15265,0.167525));
#1916=CARTESIAN_POINT('',(0.16725,-0.16725,0.0083));
#1917=CARTESIAN_POINT('',(0.16725,-0.16725,0.167525));
#1918=CARTESIAN_POINT('',(0.19265,-0.16725,0.167525));
#1919=CARTESIAN_POINT('',(0.16725,-0.19265,0.167525));
#1920=CARTESIAN_POINT('',(0.19265,-0.16725,0.));
#1921=CARTESIAN_POINT('',(0.19265,-0.16725,0.310536796564404));
#1922=CARTESIAN_POINT('',(0.16725,-0.16725,0.310536796564404));
#1923=CARTESIAN_POINT('',(0.16725,-0.19265,0.310536796564404));
#1924=CARTESIAN_POINT('',(0.16725,-0.19265,0.32675));
#1925=CARTESIAN_POINT('',(0.16725,-0.19265,0.30645));
#1926=CARTESIAN_POINT('',(0.16725,-0.19265,0.32675));
#1927=CARTESIAN_POINT('',(0.16725,-0.19265,0.28925));
#1928=CARTESIAN_POINT('',(0.16725,-0.19265,0.32675));
#1929=CARTESIAN_POINT('',(5.55111512312578E-17,-0.15265,0.323425));
#1930=CARTESIAN_POINT('',(5.55111512312578E-17,-0.15265,0.31975));
#1931=CARTESIAN_POINT('',(0.15265,-0.15265,0.31975));
#1932=CARTESIAN_POINT('',(0.,-0.15265,0.31975));
#1933=CARTESIAN_POINT('',(0.,-0.15265,0.323425));
#1934=CARTESIAN_POINT('',(0.,-0.15265,0.323425));
#1935=CARTESIAN_POINT('',(5.55111512312578E-17,-0.15265,0.323425));
#1936=CARTESIAN_POINT('',(0.15265,-0.15265,0.323425));
#1937=CARTESIAN_POINT('',(0.15265,-0.15265,0.323425));
#1938=CARTESIAN_POINT('',(0.,-0.149225,0.316748));
#1939=CARTESIAN_POINT('',(0.,-0.149225,0.316748));
#1940=CARTESIAN_POINT('',(0.,-0.149225,0.32675));
#1941=CARTESIAN_POINT('',(0.,-0.149225,0.323425));
#1942=CARTESIAN_POINT('',(0.,-0.149225,0.32675));
#1943=CARTESIAN_POINT('',(0.149225,-0.149225,0.32675));
#1944=CARTESIAN_POINT('',(0.149225,-0.149225,0.316748));
#1945=CARTESIAN_POINT('',(0.149225,-0.149225,0.323425));
#1946=CARTESIAN_POINT('',(0.,-0.149225,0.323425));
#1947=CARTESIAN_POINT('',(0.,-0.149225,0.316748));
#1948=CARTESIAN_POINT('',(0.,-0.149225,0.316748));
#1949=CARTESIAN_POINT('',(0.,-0.149225,0.318211184728088));
#1950=CARTESIAN_POINT('',(0.,-0.149225,0.31675));
#1951=CARTESIAN_POINT('',(0.,-0.149225,0.318211184728088));
#1952=CARTESIAN_POINT('',(0.149225,-0.149225,0.318211184728088));
#1953=CARTESIAN_POINT('',(0.149225,-0.149225,0.316748));
#1954=CARTESIAN_POINT('',(0.149225,-0.149225,0.31675));
#1955=CARTESIAN_POINT('',(0.,-0.149225,0.31675));
#1956=CARTESIAN_POINT('',(0.,-0.18265,0.32675));
#1957=CARTESIAN_POINT('',(0.,-0.18265,0.32675));
#1958=CARTESIAN_POINT('',(0.,-0.188256601717799,0.321143398282202));
#1959=CARTESIAN_POINT('',(0.,-0.18265,0.32675));
#1960=CARTESIAN_POINT('',(0.16725,-0.188256601717799,0.321143398282202));
#1961=CARTESIAN_POINT('',(0.16725,-0.188256601717798,0.321143398282202));
#1962=CARTESIAN_POINT('',(0.16725,-0.19265,0.31675));
#1963=CARTESIAN_POINT('',(0.16725,-0.18265,0.32675));
#1964=CARTESIAN_POINT('',(0.16725,-0.18265,0.32675));
#1965=CARTESIAN_POINT('',(5.55111512312578E-17,-0.19365,0.155268398282202));
#1966=CARTESIAN_POINT('',(0.1598,-0.19365,0.25525));
#1967=CARTESIAN_POINT('',(0.1583,-0.19365,0.25525));
#1968=CARTESIAN_POINT('',(0.1613,-0.19365,0.25525));
#1969=CARTESIAN_POINT('',(0.1613,-0.19365,0.155268398282202));
#1970=CARTESIAN_POINT('',(0.1613,-0.19365,0.28925));
#1971=CARTESIAN_POINT('',(0.1598,-0.19365,0.28925));
#1972=CARTESIAN_POINT('',(0.1583,-0.19365,0.28925));
#1973=CARTESIAN_POINT('',(0.1583,-0.19365,0.25525));
#1974=CARTESIAN_POINT('',(0.15695,-0.19725,0.29325));
#1975=CARTESIAN_POINT('',(0.15695,-0.19725,0.28925));
#1976=CARTESIAN_POINT('',(0.15695,-0.20185,0.28925));
#1977=CARTESIAN_POINT('',(0.15235,-0.19725,0.28925));
#1978=CARTESIAN_POINT('',(0.15695,-0.20185,0.155268398282202));
#1979=CARTESIAN_POINT('',(0.15695,-0.20185,0.29725));
#1980=CARTESIAN_POINT('',(0.15695,-0.19725,0.30185));
#1981=CARTESIAN_POINT('',(0.15235,-0.19725,0.30185));
#1982=CARTESIAN_POINT('',(0.15235,-0.19725,0.29325));
#1983=CARTESIAN_POINT('',(5.55111512312578E-17,-0.20185,0.155268398282202));
#1984=CARTESIAN_POINT('',(0.1598,-0.20185,0.29725));
#1985=CARTESIAN_POINT('',(0.16265,-0.20185,0.29725));
#1986=CARTESIAN_POINT('',(0.154825,-0.20185,0.28925));
#1987=CARTESIAN_POINT('',(0.16265,-0.20185,0.28925));
#1988=CARTESIAN_POINT('',(0.16265,-0.20185,0.29725));
#1989=CARTESIAN_POINT('',(0.16265,-0.19725,-0.343737302640273));
#1990=CARTESIAN_POINT('',(0.16265,-0.19725,0.30185));
#1991=CARTESIAN_POINT('',(0.16265,-0.196,0.3031));
#1992=CARTESIAN_POINT('',(0.16265,-0.19725,0.28925));
#1993=CARTESIAN_POINT('',(0.1639,-0.19725,0.28925));
#1994=CARTESIAN_POINT('',(0.16265,-0.19725,0.155268398282202));
#1995=CARTESIAN_POINT('',(0.16265,-0.19725,0.28925));
#1996=CARTESIAN_POINT('',(0.16725,-0.19725,0.28925));
#1997=CARTESIAN_POINT('',(0.16725,-0.19725,0.28925));
#1998=CARTESIAN_POINT('',(0.16725,-0.19725,0.30185));
#1999=CARTESIAN_POINT('',(0.16265,-0.19725,0.30185));
#2000=CARTESIAN_POINT('',(0.16725,-0.16725,0.32675));
#2001=CARTESIAN_POINT('',(0.16725,-0.16725,0.321143398282202));
#2002=CARTESIAN_POINT('',(0.188256601717798,-0.16725,0.321143398282202));
#2003=CARTESIAN_POINT('',(0.19265,-0.16725,0.31675));
#2004=CARTESIAN_POINT('',(0.18265,-0.16725,0.32675));
#2005=CARTESIAN_POINT('',(0.16725,-0.16725,0.32675));
#2006=CARTESIAN_POINT('',(0.19265,0.,0.31675));
#2007=CARTESIAN_POINT('',(0.19265,-0.0001,0.31675));
#2008=CARTESIAN_POINT('',(0.18265,-0.0001,0.32675));
#2009=CARTESIAN_POINT('',(0.188256601717798,-0.0001,0.321143398282202));
#2010=CARTESIAN_POINT('',(0.18265,0.,0.32675));
#2011=CARTESIAN_POINT('',(0.188256601717798,0.,0.321143398282202));
#2012=CARTESIAN_POINT('',(0.,0.,0.32675));
#2013=CARTESIAN_POINT('',(0.,-0.0001,0.32675));
#2014=CARTESIAN_POINT('',(0.149225,-0.0001,0.32675));
#2015=CARTESIAN_POINT('',(0.149225,0.,0.32675));
#2016=CARTESIAN_POINT('',(0.,0.,0.32675));
#2017=CARTESIAN_POINT('',(0.149225,0.,0.316748));
#2018=CARTESIAN_POINT('',(0.149225,-0.0001,0.316748));
#2019=CARTESIAN_POINT('',(0.149225,-0.0001,0.323425));
#2020=CARTESIAN_POINT('',(0.149225,2.77555756156289E-17,0.323425));
#2021=CARTESIAN_POINT('',(0.,0.,0.323425));
#2022=CARTESIAN_POINT('',(0.,-0.0001,0.323425));
#2023=CARTESIAN_POINT('',(0.15265,-0.0001,0.323425));
#2024=CARTESIAN_POINT('',(0.15265,0.,0.323425));
#2025=CARTESIAN_POINT('',(0.,0.,0.323425));
#2026=CARTESIAN_POINT('',(0.15265,0.,0.323425));
#2027=CARTESIAN_POINT('',(0.15265,-0.0001,0.323425));
#2028=CARTESIAN_POINT('',(0.15265,-0.0001,0.31975));
#2029=CARTESIAN_POINT('',(0.15265,0.,0.31975));
#2030=CARTESIAN_POINT('',(0.,0.,0.31975));
#2031=CARTESIAN_POINT('',(0.152525,2.83693695478224E-17,0.31975));
#2032=CARTESIAN_POINT('',(0.152525,-0.0001,0.31975));
#2033=CARTESIAN_POINT('',(0.152525,-0.152525,0.31975));
#2034=CARTESIAN_POINT('',(0.,-0.152525,0.31975));
#2035=CARTESIAN_POINT('',(0.,-0.152525,0.31975));
#2036=CARTESIAN_POINT('',(0.,0.,0.31975));
#2037=CARTESIAN_POINT('',(0.,-0.0001,0.31975));
#2038=CARTESIAN_POINT('',(0.149225,0.,0.316748));
#2039=CARTESIAN_POINT('',(0.149225,0.,0.318211184728088));
#2040=CARTESIAN_POINT('',(0.149225,-0.0001,0.318211184728088));
#2041=CARTESIAN_POINT('',(0.149225,-0.0001,0.316748));
#2042=CARTESIAN_POINT('',(0.149225,-0.0001,0.31675));
#2043=CARTESIAN_POINT('',(0.149225,0.,0.31675));
#2044=CARTESIAN_POINT('',(0.,0.,0.31675));
#2045=CARTESIAN_POINT('',(0.,-0.0001,0.31675));
#2046=CARTESIAN_POINT('',(0.155575,-9.9999999999989E-5,0.31675));
#2047=CARTESIAN_POINT('',(0.155575,-0.180975,0.31675));
#2048=CARTESIAN_POINT('',(0.155575,-0.155575,0.31675));
#2049=CARTESIAN_POINT('',(0.,-0.155575,0.31675));
#2050=CARTESIAN_POINT('',(0.,-0.155575,0.31675));
#2051=CARTESIAN_POINT('',(0.,0.,0.31675));
#2052=CARTESIAN_POINT('',(0.,-0.155575,0.29135));
#2053=CARTESIAN_POINT('',(-0.14935,-0.175382826735914,0.30725));
#2054=CARTESIAN_POINT('',(0.,-0.175382826735914,0.30725));
#2055=CARTESIAN_POINT('',(0.14935,-0.175382826735914,0.30725));
#2056=CARTESIAN_POINT('',(0.,-0.155575,0.29135));
#2057=CARTESIAN_POINT('',(0.155575,-0.155575,0.29135));
#2058=CARTESIAN_POINT('',(0.,-0.180975,0.29135));
#2059=CARTESIAN_POINT('',(0.14935,-0.180975,0.29135));
#2060=CARTESIAN_POINT('',(0.14935,-0.155575,0.29135));
#2061=CARTESIAN_POINT('',(0.155575,-0.155575,0.29135));
#2062=CARTESIAN_POINT('',(0.155575,-0.155575,0.29135));
#2063=CARTESIAN_POINT('',(-2.77555756156289E-17,-2.77555756156289E-17,0.30725));
#2064=CARTESIAN_POINT('',(2.77555756156289E-17,-0.19265,0.30725));
#2065=CARTESIAN_POINT('',(0.,-0.19265,0.30725));
#2066=CARTESIAN_POINT('',(0.14935,-0.19265,0.30725));
#2067=CARTESIAN_POINT('',(0.,-2.77555756156289E-17,0.30725));
#2068=CARTESIAN_POINT('',(0.,-0.188549999999996,0.30725));
#2069=CARTESIAN_POINT('',(-0.01,-0.188549999999996,0.30725));
#2070=CARTESIAN_POINT('',(-0.0099,-0.188549999999996,0.30725));
#2071=CARTESIAN_POINT('',(-0.0099,-0.182685,0.30725));
#2072=CARTESIAN_POINT('',(-0.0099,-0.181075,0.30725));
#2073=CARTESIAN_POINT('',(-0.01,-0.181075,0.30725));
#2074=CARTESIAN_POINT('',(-2.77555756156289E-17,-0.181075,0.30725));
#2075=CARTESIAN_POINT('',(0.,-2.77555756156289E-17,0.30725));
#2076=CARTESIAN_POINT('',(0.14935,-0.1868125,0.30725));
#2077=CARTESIAN_POINT('',(0.,0.,0.));
#2078=CARTESIAN_POINT('',(0.,-0.152525,0.31975));
#2079=CARTESIAN_POINT('',(-2.77555756156289E-17,-0.181075,0.30675));
#2080=CARTESIAN_POINT('',(-2.77555756156289E-17,-0.181075,0.320765767664977));
#2081=CARTESIAN_POINT('',(0.,-0.188549999999996,0.320765767664977));
#2082=CARTESIAN_POINT('',(0.,-0.188549999999996,0.320765767664977));
#2083=CARTESIAN_POINT('',(-2.77555756156289E-17,-0.188549999999996,0.31255));
#2084=CARTESIAN_POINT('',(0.,-0.19265,0.0083));
#2085=CARTESIAN_POINT('',(0.,-0.19265,0.310536796564404));
#2086=CARTESIAN_POINT('',(0.,-0.17765,0.310536796564404));
#2087=CARTESIAN_POINT('',(2.77555756156289E-17,-0.17765,0.310536796564404));
#2088=CARTESIAN_POINT('',(-0.16725,-0.19265,0.310536796564404));
#2089=CARTESIAN_POINT('',(0.16725,-0.17765,0.310536796564404));
#2090=CARTESIAN_POINT('',(2.77555756156289E-17,-0.19265,0.30645));
#2091=CARTESIAN_POINT('',(0.15235,-0.19265,0.30645));
#2092=CARTESIAN_POINT('',(0.15235,-0.19265,0.30645));
#2093=CARTESIAN_POINT('',(0.16725,-0.1871,0.312));
#2094=CARTESIAN_POINT('',(2.77555756156289E-17,-0.19265,0.30645));
#2095=CARTESIAN_POINT('',(0.15235,-0.20185,0.29325));
#2096=CARTESIAN_POINT('',(0.15235,-0.20185,0.28925));
#2097=CARTESIAN_POINT('',(0.15235,-0.19265,0.28925));
#2098=CARTESIAN_POINT('',(0.15235,-0.19265,0.29325));
#2099=CARTESIAN_POINT('',(0.1583,-0.19365,0.155268398282202));
#2100=CARTESIAN_POINT('',(0.1606625,-0.1960125,0.28925));
#2101=CARTESIAN_POINT('',(0.1573,-0.19265,0.28925));
#2102=CARTESIAN_POINT('',(0.1573,-0.19265,0.27225));
#2103=CARTESIAN_POINT('',(0.1573,-0.19265,0.25425));
#2104=CARTESIAN_POINT('',(0.1588,-0.19415,0.25575));
#2105=CARTESIAN_POINT('',(0.1598,-0.19365,0.25525));
#2106=CARTESIAN_POINT('',(0.1573,-0.19265,0.25425));
#2107=CARTESIAN_POINT('',(0.1623,-0.19265,0.25425));
#2108=CARTESIAN_POINT('',(0.1608,-0.19415,0.25575));
#2109=CARTESIAN_POINT('',(0.1623,-0.19265,0.27225));
#2110=CARTESIAN_POINT('',(0.1539625,-0.2009875,0.28925));
#2111=CARTESIAN_POINT('',(0.1623,-0.19265,0.28925));
#2112=CARTESIAN_POINT('',(0.1623,-0.19265,0.27225));
#2113=CARTESIAN_POINT('',(0.154825,-0.20185,0.28925));
#2114=CARTESIAN_POINT('',(0.154825,-0.19265,0.28925));
#2115=CARTESIAN_POINT('',(0.154825,-0.19265,0.28925));
#2116=CARTESIAN_POINT('',(0.16725,-0.20185,0.28925));
#2117=CARTESIAN_POINT('',(0.16725,-0.20185,0.32675));
#2118=CARTESIAN_POINT('',(0.16725,-0.16725,0.310536796564404));
#2119=CARTESIAN_POINT('',(0.17765,-0.16725,0.310536796564404));
#2120=CARTESIAN_POINT('',(0.155575,0.,0.29135));
#2121=CARTESIAN_POINT('',(0.155575,-0.0001,0.29135));
#2122=CARTESIAN_POINT('',(0.175382826735914,-9.9999999999989E-5,0.30725));
#2123=CARTESIAN_POINT('',(0.175382826735914,-0.14935,0.30725));
#2124=CARTESIAN_POINT('',(0.175382826735914,-0.14935,0.30725));
#2125=CARTESIAN_POINT('',(0.155575,-0.14935,0.29135));
#2126=CARTESIAN_POINT('',(0.180975,-0.14935,0.29135));
#2127=CARTESIAN_POINT('',(0.180975,0.180975,0.29135));
#2128=CARTESIAN_POINT('',(0.17765,0.,0.310536796564404));
#2129=CARTESIAN_POINT('',(0.17765,-0.0178170976553475,0.310536796564404));
#2130=CARTESIAN_POINT('',(0.188621241963589,-0.0001,0.320765767664977));
#2131=CARTESIAN_POINT('',(0.17765,-0.0001,0.310536796564404));
#2132=CARTESIAN_POINT('',(0.19265,0.,0.310536796564404));
#2133=CARTESIAN_POINT('',(-2.77555756156289E-17,-2.77555756156289E-17,0.30725));
#2134=CARTESIAN_POINT('',(-2.77555756156289E-17,-0.0001,0.30725));
#2135=CARTESIAN_POINT('',(0.180975,-0.0001,0.30725));
#2136=CARTESIAN_POINT('',(0.180975,-2.77555756156289E-17,0.30725));
#2137=CARTESIAN_POINT('',(0.180975,-0.01,0.30725));
#2138=CARTESIAN_POINT('',(-2.77555756156289E-17,-0.01,0.30725));
#2139=CARTESIAN_POINT('',(0.1868125,-0.14935,0.30725));
#2140=CARTESIAN_POINT('',(-2.77555756156289E-17,-2.77555756156289E-17,0.30725));
#2141=CARTESIAN_POINT('',(0.19265,0.,0.30725));
#2142=CARTESIAN_POINT('',(0.19265,-0.14935,0.30725));
#2143=CARTESIAN_POINT('',(0.1868125,-0.14935,0.30725));
#2144=CARTESIAN_POINT('',(0.,-0.0001,0.));
#2145=CARTESIAN_POINT('',(0.152525,-0.0001,0.31975));
#2146=CARTESIAN_POINT('',(2.77555756156289E-17,-0.0001,0.320765767664977));
#2147=CARTESIAN_POINT('',(0.180975,-0.0001,0.320765767664977));
#2148=CARTESIAN_POINT('',(0.180975,-0.0001,0.));
#2149=CARTESIAN_POINT('',(0.19265,0.,0.0083));
#2150=CARTESIAN_POINT('',(0.19265,0.,0.167525));
#2151=CARTESIAN_POINT('',(0.19265,-0.14935,0.167525));
#2152=CARTESIAN_POINT('',(0.19265,-0.14935,0.30725));
#2153=CARTESIAN_POINT('',(2.77555756156289E-17,-0.19265,0.0083));
#2154=CARTESIAN_POINT('',(0.14935,-0.19265,0.30725));
#2155=CARTESIAN_POINT('',(0.14935,-0.19265,0.167525));
#2156=CARTESIAN_POINT('',(2.77555756156289E-17,-0.19265,0.167525));
#2157=CARTESIAN_POINT('',(0.1868125,-0.14935,0.30725));
#2158=CARTESIAN_POINT('',(0.1868125,-0.14935,0.167525));
#2159=CARTESIAN_POINT('',(0.180975,5.55111512312578E-17,0.0083));
#2160=CARTESIAN_POINT('',(0.180975,-0.14935,0.30725));
#2161=CARTESIAN_POINT('',(0.180975,-0.14935,0.157625));
#2162=CARTESIAN_POINT('',(0.180975,5.55111512312578E-17,0.157625));
#2163=CARTESIAN_POINT('',(0.1868125,-0.14935,0.30725));
#2164=CARTESIAN_POINT('',(0.1868125,-0.14935,0.157625));
#2165=CARTESIAN_POINT('',(0.,-0.180975,0.0083));
#2166=CARTESIAN_POINT('',(0.,-0.180975,0.157625));
#2167=CARTESIAN_POINT('',(0.14935,-0.180975,0.157625));
#2168=CARTESIAN_POINT('',(0.14935,-0.180975,0.30725));
#2169=CARTESIAN_POINT('',(0.14935,-0.1868125,0.30725));
#2170=CARTESIAN_POINT('',(0.14935,-0.184974999999996,0.167525));
#2171=CARTESIAN_POINT('',(0.14935,-0.184974999999996,0.167525));
#2172=CARTESIAN_POINT('',(0.14935,-0.184974999999996,0.157625));
#2173=CARTESIAN_POINT('',(0.14935,-0.1868125,0.167525));
#2174=CARTESIAN_POINT('',(0.14935,-0.1868125,0.157625));
#2175=CARTESIAN_POINT('',(0.,0.,0.157625));
#2176=CARTESIAN_POINT('',(0.155575,-0.155575,0.157625));
#2177=CARTESIAN_POINT('',(0.155575,-0.184974999999996,0.157625));
#2178=CARTESIAN_POINT('',(0.,-0.184974999999996,0.157625));
#2179=CARTESIAN_POINT('',(0.18521051382757,-0.18521051382757,0.162525));
#2180=CARTESIAN_POINT('',(0.175805993637788,-0.175805993637788,0.162525));
#2181=CARTESIAN_POINT('',(0.17729091787828,-0.174321069397297,0.162525));
#2182=CARTESIAN_POINT('',(0.175174807315223,-0.177500173701165,0.160877559732625));
#2183=CARTESIAN_POINT('',(0.174651572521184,-0.177943478255103,0.162525417689618));
#2184=CARTESIAN_POINT('',(0.175174388403302,-0.177500489967584,0.164170769508902));
#2185=CARTESIAN_POINT('',(0.176375941891371,-0.176378425894439,0.164851900997105));
#2186=CARTESIAN_POINT('',(0.177500678893696,-0.175174243809949,0.164171624673156));
#2187=CARTESIAN_POINT('',(0.177942950220472,-0.174652163524109,0.162525355977828));
#2188=CARTESIAN_POINT('',(0.177502096375595,-0.175172588517856,0.160881495825489));
#2189=CARTESIAN_POINT('',(0.176378882711397,-0.176375518756626,0.160197737646507));
#2190=CARTESIAN_POINT('',(0.175174807315223,-0.177500173701165,0.160877559732625));
#2191=CARTESIAN_POINT('',(0.174651572521184,-0.177943478255103,0.162525417689618));
#2192=CARTESIAN_POINT('',(0.175174388403302,-0.177500489967584,0.164170769508902));
#2193=CARTESIAN_POINT('',(0.174825914300544,-0.177795762781527,0.162525));
#2194=CARTESIAN_POINT('',(0.1524625,-0.184974999999996,0.167525));
#2195=CARTESIAN_POINT('',(0.155575,-0.184974999999996,0.167525));
#2196=CARTESIAN_POINT('',(0.155575,-0.184974999999996,0.167525));
#2197=CARTESIAN_POINT('',(0.1524625,-0.184974999999996,0.167525));
#2198=CARTESIAN_POINT('',(0.155575,-0.155575,0.167525));
#2199=CARTESIAN_POINT('',(0.155575,-0.155575,0.167525));
#2200=CARTESIAN_POINT('',(0.171,0.0353553390593275,0.167525));
#2201=CARTESIAN_POINT('',(0.173662690112853,-0.177949297162723,0.160775));
#2202=CARTESIAN_POINT('',(0.172948255604541,-0.178663731671035,0.162525));
#2203=CARTESIAN_POINT('',(0.172948255604541,-0.178663731671035,0.162525));
#2204=CARTESIAN_POINT('',(0.173662690112853,-0.177949297162723,0.160775));
#2205=CARTESIAN_POINT('',(0.174377124621165,-0.177234862654412,0.159025));
#2206=CARTESIAN_POINT('',(0.174377124621165,-0.177234862654412,0.159025));
#2207=CARTESIAN_POINT('',(0.175805993637788,-0.175805993637788,0.159025));
#2208=CARTESIAN_POINT('',(0.175805993637788,-0.175805993637788,0.159025));
#2209=CARTESIAN_POINT('',(0.177234862654412,-0.174377124621165,0.159025));
#2210=CARTESIAN_POINT('',(0.177234862654412,-0.174377124621165,0.159025));
#2211=CARTESIAN_POINT('',(0.177949297162723,-0.173662690112853,0.160775));
#2212=CARTESIAN_POINT('',(0.177949297162723,-0.173662690112853,0.160775));
#2213=CARTESIAN_POINT('',(0.178663731671035,-0.172948255604541,0.162525));
#2214=CARTESIAN_POINT('',(0.178663731671035,-0.172948255604541,0.162525));
#2215=CARTESIAN_POINT('',(0.177949297162723,-0.173662690112853,0.164275));
#2216=CARTESIAN_POINT('',(0.177949297162723,-0.173662690112853,0.164275));
#2217=CARTESIAN_POINT('',(0.177234862654412,-0.174377124621165,0.166025));
#2218=CARTESIAN_POINT('',(0.177234862654412,-0.174377124621165,0.166025));
#2219=CARTESIAN_POINT('',(0.175805993637788,-0.175805993637788,0.166025));
#2220=CARTESIAN_POINT('',(0.175805993637788,-0.175805993637788,0.166025));
#2221=CARTESIAN_POINT('',(0.174377124621165,-0.177234862654412,0.166025));
#2222=CARTESIAN_POINT('',(0.174377124621165,-0.177234862654412,0.166025));
#2223=CARTESIAN_POINT('',(0.173662690112853,-0.177949297162723,0.164275));
#2224=CARTESIAN_POINT('',(0.173662690112853,-0.177949297162723,0.164275));
#2225=CARTESIAN_POINT('',(0.175805993637788,-0.175805993637788,0.162525));
#2226=CARTESIAN_POINT('',(-0.01,-0.188549999999996,0.31255));
#2227=CARTESIAN_POINT('',(-2.77555756156289E-17,-0.188549999999996,0.320765767664977));
#2228=CARTESIAN_POINT('',(-0.0099,-0.188549999999996,0.31505));
#2229=CARTESIAN_POINT('',(-0.0099,-0.188549999999996,0.31255));
#2230=CARTESIAN_POINT('',(-0.01,-0.181075,0.30675));
#2231=CARTESIAN_POINT('',(-0.0099,-0.181075,0.30675));
#2232=CARTESIAN_POINT('',(-0.0099,-0.181075,0.31505));
#2233=CARTESIAN_POINT('',(-0.0135690054257054,-0.181075,0.312931698729811));
#2234=CARTESIAN_POINT('',(-0.0099,-0.182685,0.3109));
#2235=CARTESIAN_POINT('',(-0.0099,-5.55111512312578E-17,0.31505));
#2236=CARTESIAN_POINT('',(0.180975,-0.01,0.3109));
#2237=CARTESIAN_POINT('',(0.180975,-0.0117970027128527,0.3140125));
#2238=CARTESIAN_POINT('',(0.180975,-0.01,0.31505));
#2239=CARTESIAN_POINT('',(0.180975,-0.01,0.3109));
#2240=CARTESIAN_POINT('',(0.182685,-0.01,0.3109));
#2241=CARTESIAN_POINT('',(2.77555756156289E-17,-0.01,0.31505));
#2242=CARTESIAN_POINT('',(0.,0.,0.320765767664977));
#2243=CARTESIAN_POINT('',(2.77555756156289E-17,-0.01,0.31505));
#2244=CARTESIAN_POINT('',(0.152525,2.83693695478224E-17,0.31975));
#2245=CARTESIAN_POINT('',(0.0837408140921639,-0.0837408140921644,0.287675407351218));
#2246=CARTESIAN_POINT('',(0.,-0.152525,0.31975));
#2247=MECHANICAL_DESIGN_GEOMETRIC_PRESENTATION_REPRESENTATION('',(#1363),
#2248);
#2248=(
GEOMETRIC_REPRESENTATION_CONTEXT(3)
GLOBAL_UNCERTAINTY_ASSIGNED_CONTEXT((#2249))
GLOBAL_UNIT_ASSIGNED_CONTEXT((#2252,#2251,#2250))
REPRESENTATION_CONTEXT('Top Right Front','TOP_LEVEL_ASSEMBLY_PART')
);
#2249=UNCERTAINTY_MEASURE_WITH_UNIT(LENGTH_MEASURE(2.E-5),#2252,
'DISTANCE_ACCURACY_VALUE','Maximum Tolerance applied to model');
#2250=(
NAMED_UNIT(*)
SI_UNIT($,.STERADIAN.)
SOLID_ANGLE_UNIT()
);
#2251=(
NAMED_UNIT(*)
PLANE_ANGLE_UNIT()
SI_UNIT($,.RADIAN.)
);
#2252=(
LENGTH_UNIT()
NAMED_UNIT(*)
SI_UNIT($,.METRE.)
);
#2253=PRODUCT_DEFINITION_SHAPE('','',#2254);
#2254=PRODUCT_DEFINITION('','',#2256,#2255);
#2255=PRODUCT_DEFINITION_CONTEXT('',#2262,'design');
#2256=PRODUCT_DEFINITION_FORMATION_WITH_SPECIFIED_SOURCE('','',#2258,
 .NOT_KNOWN.);
#2257=PRODUCT_RELATED_PRODUCT_CATEGORY('','',(#2258));
#2258=PRODUCT('Top Right Front','Top Right Front','Top Right Front',(#2260));
#2259=PRODUCT_CATEGORY('','');
#2260=PRODUCT_CONTEXT('',#2262,'mechanical');
#2261=APPLICATION_PROTOCOL_DEFINITION('international standard',
'ap242_managed_model_based_3d_engineering',2020,#2262);
#2262=APPLICATION_CONTEXT('managed model based 3d engineering');
ENDSEC;
END-ISO-10303-21;
