ISO-10303-21;
HEADER;
/* Generated by software containing ST-Developer
 * from STEP Tools, Inc. (www.steptools.com) 
 */
/* OPTION: using custom renumber hook */

FILE_DESCRIPTION(
/* description */ ('STEP AP242 Edition 2',
'CAx-IF Rec.Pracs.---Representation and Presentation of Product Manufa
cturing Information (PMI)---4.0---2014-10-13',
'CAx-IF Rec.Pracs.---3D Tessellated Geometry---0.4---2014-09-14','2;1',
'CAx-IF Rec.Pracs.---User Defined Attributes---1.5---2016-08-15'),
/* implementation_level */ '2;1');

FILE_NAME(
/* name */ 'N-Metheus - Top Right Back',
/* time_stamp */ '2026-01-30T20:52:42Z',
/* author */ (''),
/* organization */ (''),
/* preprocessor_version */ 'ST-DEVELOPER v20',
/* originating_system */ 'ONSHAPE BY PTC INC, 1.210',
/* authorisation */ '  ');

FILE_SCHEMA (('AP242_MANAGED_MODEL_BASED_3D_ENGINEERING_MIM_LF { 1 0 10303 442 3 1 4 }'));
ENDSEC;

DATA;
#10=SHAPE_REPRESENTATION_RELATIONSHIP('','',#1279,#11);
#11=ADVANCED_BREP_SHAPE_REPRESENTATION('',(#1277),#2087);
#12=B_SPLINE_CURVE_WITH_KNOTS('',3,(#2015,#2016,#2017,#2018,#2019,#2020,
#2021,#2022,#2023,#2024,#2025),.UNSPECIFIED.,.T.,.F.,(1,1,1,1,1,1,1,1,1,
1,1,1,1,1,1),(-0.00492516856910623,-0.00328344571273749,-0.00164172285636874,
0.,0.00164172285636874,0.00328344571273749,0.00492516856910623,0.00656689142547497,
0.00820861428184372,0.00985033713821246,0.0114920599945812,0.0131337828509499,
0.0147755057073187,0.0164172285636874,0.0180589514200562),.UNSPECIFIED.);
#13=SPHERICAL_SURFACE('',#1328,0.0254);
#14=DEGENERATE_TOROIDAL_SURFACE('',#1325,0.0104,0.015,.T.);
#15=CONICAL_SURFACE('',#1303,0.0154,0.785398163397448);
#16=ELLIPSE('',#1288,0.0507999999999986,0.0254);
#17=ELLIPSE('',#1290,0.0508,0.0254);
#18=ELLIPSE('',#1291,0.0507999999999989,0.0254);
#19=ELLIPSE('',#1293,0.0508000000000008,0.0254);
#20=ELLIPSE('',#1332,0.03,0.015);
#21=CYLINDRICAL_SURFACE('',#1285,0.0254);
#22=CYLINDRICAL_SURFACE('',#1317,0.015);
#23=CYLINDRICAL_SURFACE('',#1321,0.0254);
#24=CYLINDRICAL_SURFACE('',#1331,0.015);
#25=CYLINDRICAL_SURFACE('',#1337,0.0254);
#26=CYLINDRICAL_SURFACE('',#1345,0.0254);
#27=CYLINDRICAL_SURFACE('',#1351,0.0293999999999961);
#28=CYLINDRICAL_SURFACE('',#1360,0.0021);
#29=CIRCLE('',#1282,0.015);
#30=CIRCLE('',#1286,0.0254);
#31=CIRCLE('',#1287,0.0254);
#32=CIRCLE('',#1289,0.0254);
#33=CIRCLE('',#1292,0.0254);
#34=CIRCLE('',#1304,0.0210066017177982);
#35=CIRCLE('',#1305,0.0154);
#36=CIRCLE('',#1315,0.0254);
#37=CIRCLE('',#1316,0.015);
#38=CIRCLE('',#1318,0.015);
#39=CIRCLE('',#1322,0.0254);
#40=CIRCLE('',#1323,0.0254);
#41=CIRCLE('',#1326,0.0254);
#42=CIRCLE('',#1327,0.015);
#43=CIRCLE('',#1329,0.0254);
#44=CIRCLE('',#1333,0.015);
#45=CIRCLE('',#1335,0.0254);
#46=CIRCLE('',#1338,0.0254);
#47=CIRCLE('',#1346,0.0254);
#48=CIRCLE('',#1350,0.0293999999999961);
#49=CIRCLE('',#1352,0.0293999999999961);
#50=CIRCLE('',#1361,0.0021);
#51=ORIENTED_EDGE('',*,*,#409,.T.);
#52=ORIENTED_EDGE('',*,*,#410,.T.);
#53=ORIENTED_EDGE('',*,*,#411,.T.);
#54=ORIENTED_EDGE('',*,*,#412,.F.);
#55=ORIENTED_EDGE('',*,*,#413,.T.);
#56=ORIENTED_EDGE('',*,*,#414,.F.);
#57=ORIENTED_EDGE('',*,*,#415,.F.);
#58=ORIENTED_EDGE('',*,*,#416,.T.);
#59=ORIENTED_EDGE('',*,*,#417,.F.);
#60=ORIENTED_EDGE('',*,*,#416,.F.);
#61=ORIENTED_EDGE('',*,*,#418,.T.);
#62=ORIENTED_EDGE('',*,*,#419,.T.);
#63=ORIENTED_EDGE('',*,*,#420,.T.);
#64=ORIENTED_EDGE('',*,*,#421,.T.);
#65=ORIENTED_EDGE('',*,*,#422,.F.);
#66=ORIENTED_EDGE('',*,*,#423,.T.);
#67=ORIENTED_EDGE('',*,*,#424,.F.);
#68=ORIENTED_EDGE('',*,*,#425,.T.);
#69=ORIENTED_EDGE('',*,*,#426,.F.);
#70=ORIENTED_EDGE('',*,*,#427,.F.);
#71=ORIENTED_EDGE('',*,*,#428,.F.);
#72=ORIENTED_EDGE('',*,*,#429,.F.);
#73=ORIENTED_EDGE('',*,*,#430,.F.);
#74=ORIENTED_EDGE('',*,*,#431,.F.);
#75=ORIENTED_EDGE('',*,*,#432,.F.);
#76=ORIENTED_EDGE('',*,*,#433,.F.);
#77=ORIENTED_EDGE('',*,*,#434,.T.);
#78=ORIENTED_EDGE('',*,*,#435,.F.);
#79=ORIENTED_EDGE('',*,*,#436,.F.);
#80=ORIENTED_EDGE('',*,*,#437,.T.);
#81=ORIENTED_EDGE('',*,*,#438,.T.);
#82=ORIENTED_EDGE('',*,*,#439,.F.);
#83=ORIENTED_EDGE('',*,*,#440,.F.);
#84=ORIENTED_EDGE('',*,*,#414,.T.);
#85=ORIENTED_EDGE('',*,*,#441,.T.);
#86=ORIENTED_EDGE('',*,*,#442,.T.);
#87=ORIENTED_EDGE('',*,*,#443,.F.);
#88=ORIENTED_EDGE('',*,*,#409,.F.);
#89=ORIENTED_EDGE('',*,*,#444,.F.);
#90=ORIENTED_EDGE('',*,*,#440,.T.);
#91=ORIENTED_EDGE('',*,*,#445,.F.);
#92=ORIENTED_EDGE('',*,*,#418,.F.);
#93=ORIENTED_EDGE('',*,*,#415,.T.);
#94=ORIENTED_EDGE('',*,*,#446,.T.);
#95=ORIENTED_EDGE('',*,*,#447,.T.);
#96=ORIENTED_EDGE('',*,*,#448,.T.);
#97=ORIENTED_EDGE('',*,*,#449,.T.);
#98=ORIENTED_EDGE('',*,*,#450,.T.);
#99=ORIENTED_EDGE('',*,*,#451,.F.);
#100=ORIENTED_EDGE('',*,*,#435,.T.);
#101=ORIENTED_EDGE('',*,*,#452,.T.);
#102=ORIENTED_EDGE('',*,*,#453,.F.);
#103=ORIENTED_EDGE('',*,*,#454,.F.);
#104=ORIENTED_EDGE('',*,*,#455,.T.);
#105=ORIENTED_EDGE('',*,*,#456,.T.);
#106=ORIENTED_EDGE('',*,*,#457,.T.);
#107=ORIENTED_EDGE('',*,*,#458,.T.);
#108=ORIENTED_EDGE('',*,*,#459,.F.);
#109=ORIENTED_EDGE('',*,*,#460,.F.);
#110=ORIENTED_EDGE('',*,*,#461,.F.);
#111=ORIENTED_EDGE('',*,*,#462,.F.);
#112=ORIENTED_EDGE('',*,*,#463,.T.);
#113=ORIENTED_EDGE('',*,*,#464,.T.);
#114=ORIENTED_EDGE('',*,*,#465,.T.);
#115=ORIENTED_EDGE('',*,*,#466,.T.);
#116=ORIENTED_EDGE('',*,*,#467,.F.);
#117=ORIENTED_EDGE('',*,*,#468,.F.);
#118=ORIENTED_EDGE('',*,*,#469,.F.);
#119=ORIENTED_EDGE('',*,*,#470,.T.);
#120=ORIENTED_EDGE('',*,*,#471,.T.);
#121=ORIENTED_EDGE('',*,*,#472,.F.);
#122=ORIENTED_EDGE('',*,*,#472,.T.);
#123=ORIENTED_EDGE('',*,*,#473,.T.);
#124=ORIENTED_EDGE('',*,*,#474,.F.);
#125=ORIENTED_EDGE('',*,*,#475,.F.);
#126=ORIENTED_EDGE('',*,*,#476,.F.);
#127=ORIENTED_EDGE('',*,*,#477,.F.);
#128=ORIENTED_EDGE('',*,*,#474,.T.);
#129=ORIENTED_EDGE('',*,*,#478,.T.);
#130=ORIENTED_EDGE('',*,*,#467,.T.);
#131=ORIENTED_EDGE('',*,*,#479,.T.);
#132=ORIENTED_EDGE('',*,*,#469,.T.);
#133=ORIENTED_EDGE('',*,*,#475,.T.);
#134=ORIENTED_EDGE('',*,*,#477,.T.);
#135=ORIENTED_EDGE('',*,*,#480,.F.);
#136=ORIENTED_EDGE('',*,*,#481,.F.);
#137=ORIENTED_EDGE('',*,*,#481,.T.);
#138=ORIENTED_EDGE('',*,*,#482,.T.);
#139=ORIENTED_EDGE('',*,*,#483,.F.);
#140=ORIENTED_EDGE('',*,*,#468,.T.);
#141=ORIENTED_EDGE('',*,*,#484,.F.);
#142=ORIENTED_EDGE('',*,*,#465,.F.);
#143=ORIENTED_EDGE('',*,*,#483,.T.);
#144=ORIENTED_EDGE('',*,*,#485,.T.);
#145=ORIENTED_EDGE('',*,*,#486,.F.);
#146=ORIENTED_EDGE('',*,*,#462,.T.);
#147=ORIENTED_EDGE('',*,*,#487,.F.);
#148=ORIENTED_EDGE('',*,*,#488,.F.);
#149=ORIENTED_EDGE('',*,*,#463,.F.);
#150=ORIENTED_EDGE('',*,*,#486,.T.);
#151=ORIENTED_EDGE('',*,*,#489,.F.);
#152=ORIENTED_EDGE('',*,*,#490,.T.);
#153=ORIENTED_EDGE('',*,*,#491,.T.);
#154=ORIENTED_EDGE('',*,*,#492,.T.);
#155=ORIENTED_EDGE('',*,*,#464,.F.);
#156=ORIENTED_EDGE('',*,*,#488,.T.);
#157=ORIENTED_EDGE('',*,*,#459,.T.);
#158=ORIENTED_EDGE('',*,*,#493,.T.);
#159=ORIENTED_EDGE('',*,*,#494,.T.);
#160=ORIENTED_EDGE('',*,*,#495,.T.);
#161=ORIENTED_EDGE('',*,*,#496,.F.);
#162=ORIENTED_EDGE('',*,*,#460,.T.);
#163=ORIENTED_EDGE('',*,*,#495,.F.);
#164=ORIENTED_EDGE('',*,*,#497,.T.);
#165=ORIENTED_EDGE('',*,*,#498,.T.);
#166=ORIENTED_EDGE('',*,*,#499,.T.);
#167=ORIENTED_EDGE('',*,*,#492,.F.);
#168=ORIENTED_EDGE('',*,*,#500,.T.);
#169=ORIENTED_EDGE('',*,*,#457,.F.);
#170=ORIENTED_EDGE('',*,*,#496,.T.);
#171=ORIENTED_EDGE('',*,*,#501,.T.);
#172=ORIENTED_EDGE('',*,*,#502,.T.);
#173=ORIENTED_EDGE('',*,*,#503,.T.);
#174=ORIENTED_EDGE('',*,*,#504,.T.);
#175=ORIENTED_EDGE('',*,*,#505,.F.);
#176=ORIENTED_EDGE('',*,*,#506,.T.);
#177=ORIENTED_EDGE('',*,*,#455,.F.);
#178=ORIENTED_EDGE('',*,*,#507,.T.);
#179=ORIENTED_EDGE('',*,*,#450,.F.);
#180=ORIENTED_EDGE('',*,*,#508,.F.);
#181=ORIENTED_EDGE('',*,*,#470,.F.);
#182=ORIENTED_EDGE('',*,*,#479,.F.);
#183=ORIENTED_EDGE('',*,*,#466,.F.);
#184=ORIENTED_EDGE('',*,*,#484,.T.);
#185=ORIENTED_EDGE('',*,*,#461,.T.);
#186=ORIENTED_EDGE('',*,*,#471,.F.);
#187=ORIENTED_EDGE('',*,*,#508,.T.);
#188=ORIENTED_EDGE('',*,*,#449,.F.);
#189=ORIENTED_EDGE('',*,*,#509,.F.);
#190=ORIENTED_EDGE('',*,*,#506,.F.);
#191=ORIENTED_EDGE('',*,*,#510,.F.);
#192=ORIENTED_EDGE('',*,*,#511,.F.);
#193=ORIENTED_EDGE('',*,*,#512,.T.);
#194=ORIENTED_EDGE('',*,*,#436,.T.);
#195=ORIENTED_EDGE('',*,*,#456,.F.);
#196=ORIENTED_EDGE('',*,*,#507,.F.);
#197=ORIENTED_EDGE('',*,*,#454,.T.);
#198=ORIENTED_EDGE('',*,*,#513,.T.);
#199=ORIENTED_EDGE('',*,*,#451,.T.);
#200=ORIENTED_EDGE('',*,*,#501,.F.);
#201=ORIENTED_EDGE('',*,*,#499,.F.);
#202=ORIENTED_EDGE('',*,*,#514,.T.);
#203=ORIENTED_EDGE('',*,*,#515,.F.);
#204=ORIENTED_EDGE('',*,*,#516,.F.);
#205=ORIENTED_EDGE('',*,*,#517,.F.);
#206=ORIENTED_EDGE('',*,*,#502,.F.);
#207=ORIENTED_EDGE('',*,*,#517,.T.);
#208=ORIENTED_EDGE('',*,*,#518,.T.);
#209=ORIENTED_EDGE('',*,*,#519,.F.);
#210=ORIENTED_EDGE('',*,*,#520,.F.);
#211=ORIENTED_EDGE('',*,*,#509,.T.);
#212=ORIENTED_EDGE('',*,*,#521,.F.);
#213=ORIENTED_EDGE('',*,*,#522,.F.);
#214=ORIENTED_EDGE('',*,*,#473,.F.);
#215=ORIENTED_EDGE('',*,*,#523,.T.);
#216=ORIENTED_EDGE('',*,*,#427,.T.);
#217=ORIENTED_EDGE('',*,*,#514,.F.);
#218=ORIENTED_EDGE('',*,*,#524,.T.);
#219=ORIENTED_EDGE('',*,*,#525,.T.);
#220=ORIENTED_EDGE('',*,*,#526,.F.);
#221=ORIENTED_EDGE('',*,*,#423,.F.);
#222=ORIENTED_EDGE('',*,*,#527,.F.);
#223=ORIENTED_EDGE('',*,*,#528,.T.);
#224=ORIENTED_EDGE('',*,*,#410,.F.);
#225=ORIENTED_EDGE('',*,*,#443,.T.);
#226=ORIENTED_EDGE('',*,*,#529,.T.);
#227=ORIENTED_EDGE('',*,*,#530,.F.);
#228=ORIENTED_EDGE('',*,*,#478,.F.);
#229=ORIENTED_EDGE('',*,*,#522,.T.);
#230=ORIENTED_EDGE('',*,*,#531,.F.);
#231=ORIENTED_EDGE('',*,*,#494,.F.);
#232=ORIENTED_EDGE('',*,*,#532,.T.);
#233=ORIENTED_EDGE('',*,*,#489,.T.);
#234=ORIENTED_EDGE('',*,*,#487,.T.);
#235=ORIENTED_EDGE('',*,*,#485,.F.);
#236=ORIENTED_EDGE('',*,*,#482,.F.);
#237=ORIENTED_EDGE('',*,*,#480,.T.);
#238=ORIENTED_EDGE('',*,*,#476,.T.);
#239=ORIENTED_EDGE('',*,*,#530,.T.);
#240=ORIENTED_EDGE('',*,*,#533,.T.);
#241=ORIENTED_EDGE('',*,*,#534,.T.);
#242=ORIENTED_EDGE('',*,*,#524,.F.);
#243=ORIENTED_EDGE('',*,*,#535,.F.);
#244=ORIENTED_EDGE('',*,*,#497,.F.);
#245=ORIENTED_EDGE('',*,*,#444,.T.);
#246=ORIENTED_EDGE('',*,*,#412,.T.);
#247=ORIENTED_EDGE('',*,*,#536,.T.);
#248=ORIENTED_EDGE('',*,*,#537,.F.);
#249=ORIENTED_EDGE('',*,*,#498,.F.);
#250=ORIENTED_EDGE('',*,*,#535,.T.);
#251=ORIENTED_EDGE('',*,*,#528,.F.);
#252=ORIENTED_EDGE('',*,*,#538,.F.);
#253=ORIENTED_EDGE('',*,*,#539,.F.);
#254=ORIENTED_EDGE('',*,*,#523,.F.);
#255=ORIENTED_EDGE('',*,*,#540,.T.);
#256=ORIENTED_EDGE('',*,*,#541,.T.);
#257=ORIENTED_EDGE('',*,*,#542,.F.);
#258=ORIENTED_EDGE('',*,*,#518,.F.);
#259=ORIENTED_EDGE('',*,*,#516,.T.);
#260=ORIENTED_EDGE('',*,*,#453,.T.);
#261=ORIENTED_EDGE('',*,*,#543,.T.);
#262=ORIENTED_EDGE('',*,*,#446,.F.);
#263=ORIENTED_EDGE('',*,*,#513,.F.);
#264=ORIENTED_EDGE('',*,*,#544,.F.);
#265=ORIENTED_EDGE('',*,*,#545,.F.);
#266=ORIENTED_EDGE('',*,*,#536,.F.);
#267=ORIENTED_EDGE('',*,*,#411,.F.);
#268=ORIENTED_EDGE('',*,*,#531,.T.);
#269=ORIENTED_EDGE('',*,*,#546,.T.);
#270=ORIENTED_EDGE('',*,*,#547,.T.);
#271=ORIENTED_EDGE('',*,*,#548,.T.);
#272=ORIENTED_EDGE('',*,*,#424,.T.);
#273=ORIENTED_EDGE('',*,*,#539,.T.);
#274=ORIENTED_EDGE('',*,*,#549,.F.);
#275=ORIENTED_EDGE('',*,*,#547,.F.);
#276=ORIENTED_EDGE('',*,*,#538,.T.);
#277=ORIENTED_EDGE('',*,*,#527,.T.);
#278=ORIENTED_EDGE('',*,*,#422,.T.);
#279=ORIENTED_EDGE('',*,*,#550,.F.);
#280=ORIENTED_EDGE('',*,*,#438,.F.);
#281=ORIENTED_EDGE('',*,*,#537,.T.);
#282=ORIENTED_EDGE('',*,*,#545,.T.);
#283=ORIENTED_EDGE('',*,*,#551,.F.);
#284=ORIENTED_EDGE('',*,*,#546,.F.);
#285=ORIENTED_EDGE('',*,*,#521,.T.);
#286=ORIENTED_EDGE('',*,*,#448,.F.);
#287=ORIENTED_EDGE('',*,*,#426,.T.);
#288=ORIENTED_EDGE('',*,*,#552,.T.);
#289=ORIENTED_EDGE('',*,*,#540,.F.);
#290=ORIENTED_EDGE('',*,*,#515,.T.);
#291=ORIENTED_EDGE('',*,*,#542,.T.);
#292=ORIENTED_EDGE('',*,*,#553,.T.);
#293=ORIENTED_EDGE('',*,*,#554,.F.);
#294=ORIENTED_EDGE('',*,*,#555,.F.);
#295=ORIENTED_EDGE('',*,*,#437,.F.);
#296=ORIENTED_EDGE('',*,*,#512,.F.);
#297=ORIENTED_EDGE('',*,*,#556,.T.);
#298=ORIENTED_EDGE('',*,*,#557,.T.);
#299=ORIENTED_EDGE('',*,*,#558,.F.);
#300=ORIENTED_EDGE('',*,*,#519,.T.);
#301=ORIENTED_EDGE('',*,*,#559,.F.);
#302=ORIENTED_EDGE('',*,*,#553,.F.);
#303=ORIENTED_EDGE('',*,*,#541,.F.);
#304=ORIENTED_EDGE('',*,*,#552,.F.);
#305=ORIENTED_EDGE('',*,*,#425,.F.);
#306=ORIENTED_EDGE('',*,*,#548,.F.);
#307=ORIENTED_EDGE('',*,*,#549,.T.);
#308=ORIENTED_EDGE('',*,*,#421,.F.);
#309=ORIENTED_EDGE('',*,*,#560,.F.);
#310=ORIENTED_EDGE('',*,*,#559,.T.);
#311=ORIENTED_EDGE('',*,*,#420,.F.);
#312=ORIENTED_EDGE('',*,*,#561,.T.);
#313=ORIENTED_EDGE('',*,*,#554,.T.);
#314=ORIENTED_EDGE('',*,*,#434,.F.);
#315=ORIENTED_EDGE('',*,*,#555,.T.);
#316=ORIENTED_EDGE('',*,*,#561,.F.);
#317=ORIENTED_EDGE('',*,*,#419,.F.);
#318=ORIENTED_EDGE('',*,*,#445,.T.);
#319=ORIENTED_EDGE('',*,*,#439,.T.);
#320=ORIENTED_EDGE('',*,*,#550,.T.);
#321=ORIENTED_EDGE('',*,*,#544,.T.);
#322=ORIENTED_EDGE('',*,*,#551,.T.);
#323=ORIENTED_EDGE('',*,*,#447,.F.);
#324=ORIENTED_EDGE('',*,*,#543,.F.);
#325=ORIENTED_EDGE('',*,*,#452,.F.);
#326=ORIENTED_EDGE('',*,*,#428,.T.);
#327=ORIENTED_EDGE('',*,*,#562,.F.);
#328=ORIENTED_EDGE('',*,*,#563,.T.);
#329=ORIENTED_EDGE('',*,*,#564,.T.);
#330=ORIENTED_EDGE('',*,*,#429,.T.);
#331=ORIENTED_EDGE('',*,*,#564,.F.);
#332=ORIENTED_EDGE('',*,*,#565,.T.);
#333=ORIENTED_EDGE('',*,*,#566,.T.);
#334=ORIENTED_EDGE('',*,*,#430,.T.);
#335=ORIENTED_EDGE('',*,*,#566,.F.);
#336=ORIENTED_EDGE('',*,*,#567,.T.);
#337=ORIENTED_EDGE('',*,*,#568,.T.);
#338=ORIENTED_EDGE('',*,*,#431,.T.);
#339=ORIENTED_EDGE('',*,*,#568,.F.);
#340=ORIENTED_EDGE('',*,*,#569,.T.);
#341=ORIENTED_EDGE('',*,*,#570,.T.);
#342=ORIENTED_EDGE('',*,*,#432,.T.);
#343=ORIENTED_EDGE('',*,*,#570,.F.);
#344=ORIENTED_EDGE('',*,*,#571,.T.);
#345=ORIENTED_EDGE('',*,*,#572,.T.);
#346=ORIENTED_EDGE('',*,*,#433,.T.);
#347=ORIENTED_EDGE('',*,*,#572,.F.);
#348=ORIENTED_EDGE('',*,*,#573,.T.);
#349=ORIENTED_EDGE('',*,*,#562,.T.);
#350=ORIENTED_EDGE('',*,*,#560,.T.);
#351=ORIENTED_EDGE('',*,*,#574,.T.);
#352=ORIENTED_EDGE('',*,*,#574,.F.);
#353=ORIENTED_EDGE('',*,*,#563,.F.);
#354=ORIENTED_EDGE('',*,*,#573,.F.);
#355=ORIENTED_EDGE('',*,*,#571,.F.);
#356=ORIENTED_EDGE('',*,*,#569,.F.);
#357=ORIENTED_EDGE('',*,*,#567,.F.);
#358=ORIENTED_EDGE('',*,*,#565,.F.);
#359=ORIENTED_EDGE('',*,*,#575,.T.);
#360=ORIENTED_EDGE('',*,*,#520,.T.);
#361=ORIENTED_EDGE('',*,*,#558,.T.);
#362=ORIENTED_EDGE('',*,*,#576,.F.);
#363=ORIENTED_EDGE('',*,*,#505,.T.);
#364=ORIENTED_EDGE('',*,*,#577,.T.);
#365=ORIENTED_EDGE('',*,*,#578,.F.);
#366=ORIENTED_EDGE('',*,*,#510,.T.);
#367=ORIENTED_EDGE('',*,*,#576,.T.);
#368=ORIENTED_EDGE('',*,*,#557,.F.);
#369=ORIENTED_EDGE('',*,*,#579,.F.);
#370=ORIENTED_EDGE('',*,*,#580,.T.);
#371=ORIENTED_EDGE('',*,*,#575,.F.);
#372=ORIENTED_EDGE('',*,*,#580,.F.);
#373=ORIENTED_EDGE('',*,*,#581,.T.);
#374=ORIENTED_EDGE('',*,*,#582,.T.);
#375=ORIENTED_EDGE('',*,*,#503,.F.);
#376=ORIENTED_EDGE('',*,*,#578,.T.);
#377=ORIENTED_EDGE('',*,*,#583,.F.);
#378=ORIENTED_EDGE('',*,*,#581,.F.);
#379=ORIENTED_EDGE('',*,*,#579,.T.);
#380=ORIENTED_EDGE('',*,*,#556,.F.);
#381=ORIENTED_EDGE('',*,*,#511,.T.);
#382=ORIENTED_EDGE('',*,*,#534,.F.);
#383=ORIENTED_EDGE('',*,*,#584,.T.);
#384=ORIENTED_EDGE('',*,*,#585,.T.);
#385=ORIENTED_EDGE('',*,*,#525,.F.);
#386=ORIENTED_EDGE('',*,*,#526,.T.);
#387=ORIENTED_EDGE('',*,*,#585,.F.);
#388=ORIENTED_EDGE('',*,*,#586,.T.);
#389=ORIENTED_EDGE('',*,*,#441,.F.);
#390=ORIENTED_EDGE('',*,*,#413,.F.);
#391=ORIENTED_EDGE('',*,*,#417,.T.);
#392=ORIENTED_EDGE('',*,*,#582,.F.);
#393=ORIENTED_EDGE('',*,*,#583,.T.);
#394=ORIENTED_EDGE('',*,*,#577,.F.);
#395=ORIENTED_EDGE('',*,*,#504,.F.);
#396=ORIENTED_EDGE('',*,*,#533,.F.);
#397=ORIENTED_EDGE('',*,*,#529,.F.);
#398=ORIENTED_EDGE('',*,*,#442,.F.);
#399=ORIENTED_EDGE('',*,*,#586,.F.);
#400=ORIENTED_EDGE('',*,*,#584,.F.);
#401=ORIENTED_EDGE('',*,*,#500,.F.);
#402=ORIENTED_EDGE('',*,*,#491,.F.);
#403=ORIENTED_EDGE('',*,*,#587,.F.);
#404=ORIENTED_EDGE('',*,*,#458,.F.);
#405=ORIENTED_EDGE('',*,*,#587,.T.);
#406=ORIENTED_EDGE('',*,*,#490,.F.);
#407=ORIENTED_EDGE('',*,*,#532,.F.);
#408=ORIENTED_EDGE('',*,*,#493,.F.);
#409=EDGE_CURVE('',#588,#589,#705,.T.);
#410=EDGE_CURVE('',#589,#590,#29,.F.);
#411=EDGE_CURVE('',#590,#591,#706,.T.);
#412=EDGE_CURVE('',#588,#591,#707,.T.);
#413=EDGE_CURVE('',#592,#593,#708,.T.);
#414=EDGE_CURVE('',#594,#593,#709,.T.);
#415=EDGE_CURVE('',#595,#594,#710,.T.);
#416=EDGE_CURVE('',#595,#592,#711,.T.);
#417=EDGE_CURVE('',#592,#596,#712,.T.);
#418=EDGE_CURVE('',#595,#597,#713,.T.);
#419=EDGE_CURVE('',#597,#598,#714,.T.);
#420=EDGE_CURVE('',#598,#599,#715,.T.);
#421=EDGE_CURVE('',#599,#600,#716,.T.);
#422=EDGE_CURVE('',#601,#600,#717,.T.);
#423=EDGE_CURVE('',#601,#596,#718,.T.);
#424=EDGE_CURVE('',#602,#603,#719,.F.);
#425=EDGE_CURVE('',#602,#604,#30,.F.);
#426=EDGE_CURVE('',#605,#604,#720,.T.);
#427=EDGE_CURVE('',#603,#605,#31,.T.);
#428=EDGE_CURVE('',#606,#607,#16,.F.);
#429=EDGE_CURVE('',#608,#606,#32,.F.);
#430=EDGE_CURVE('',#609,#608,#17,.F.);
#431=EDGE_CURVE('',#610,#609,#18,.F.);
#432=EDGE_CURVE('',#611,#610,#33,.F.);
#433=EDGE_CURVE('',#607,#611,#19,.F.);
#434=EDGE_CURVE('',#612,#613,#721,.T.);
#435=EDGE_CURVE('',#614,#613,#722,.T.);
#436=EDGE_CURVE('',#615,#614,#723,.T.);
#437=EDGE_CURVE('',#615,#612,#724,.T.);
#438=EDGE_CURVE('',#616,#617,#725,.T.);
#439=EDGE_CURVE('',#618,#617,#726,.T.);
#440=EDGE_CURVE('',#594,#618,#727,.T.);
#441=EDGE_CURVE('',#593,#619,#728,.T.);
#442=EDGE_CURVE('',#619,#620,#729,.T.);
#443=EDGE_CURVE('',#589,#620,#730,.F.);
#444=EDGE_CURVE('',#616,#588,#731,.T.);
#445=EDGE_CURVE('',#597,#618,#732,.T.);
#446=EDGE_CURVE('',#621,#622,#733,.T.);
#447=EDGE_CURVE('',#622,#623,#734,.T.);
#448=EDGE_CURVE('',#623,#624,#735,.F.);
#449=EDGE_CURVE('',#624,#625,#736,.F.);
#450=EDGE_CURVE('',#625,#626,#737,.T.);
#451=EDGE_CURVE('',#621,#626,#738,.T.);
#452=EDGE_CURVE('',#613,#627,#739,.T.);
#453=EDGE_CURVE('',#628,#627,#740,.T.);
#454=EDGE_CURVE('',#629,#628,#741,.T.);
#455=EDGE_CURVE('',#629,#630,#742,.T.);
#456=EDGE_CURVE('',#630,#614,#743,.T.);
#457=EDGE_CURVE('',#631,#632,#744,.T.);
#458=EDGE_CURVE('',#632,#633,#745,.T.);
#459=EDGE_CURVE('',#634,#633,#746,.T.);
#460=EDGE_CURVE('',#631,#634,#747,.T.);
#461=EDGE_CURVE('',#635,#636,#748,.T.);
#462=EDGE_CURVE('',#637,#635,#749,.T.);
#463=EDGE_CURVE('',#637,#638,#750,.T.);
#464=EDGE_CURVE('',#638,#636,#751,.T.);
#465=EDGE_CURVE('',#639,#640,#752,.T.);
#466=EDGE_CURVE('',#640,#641,#753,.T.);
#467=EDGE_CURVE('',#642,#641,#754,.T.);
#468=EDGE_CURVE('',#639,#642,#755,.T.);
#469=EDGE_CURVE('',#643,#644,#756,.T.);
#470=EDGE_CURVE('',#643,#645,#757,.F.);
#471=EDGE_CURVE('',#645,#646,#758,.F.);
#472=EDGE_CURVE('',#644,#646,#759,.T.);
#473=EDGE_CURVE('',#646,#647,#34,.T.);
#474=EDGE_CURVE('',#648,#647,#760,.T.);
#475=EDGE_CURVE('',#644,#648,#35,.T.);
#476=EDGE_CURVE('',#649,#650,#761,.F.);
#477=EDGE_CURVE('',#648,#649,#762,.T.);
#478=EDGE_CURVE('',#647,#650,#763,.F.);
#479=EDGE_CURVE('',#641,#643,#764,.T.);
#480=EDGE_CURVE('',#651,#649,#765,.T.);
#481=EDGE_CURVE('',#642,#651,#766,.T.);
#482=EDGE_CURVE('',#651,#652,#767,.T.);
#483=EDGE_CURVE('',#639,#652,#768,.T.);
#484=EDGE_CURVE('',#640,#635,#769,.T.);
#485=EDGE_CURVE('',#652,#653,#770,.T.);
#486=EDGE_CURVE('',#637,#653,#771,.T.);
#487=EDGE_CURVE('',#654,#653,#772,.T.);
#488=EDGE_CURVE('',#638,#654,#773,.T.);
#489=EDGE_CURVE('',#655,#654,#774,.T.);
#490=EDGE_CURVE('',#655,#656,#775,.T.);
#491=EDGE_CURVE('',#656,#657,#776,.T.);
#492=EDGE_CURVE('',#657,#636,#777,.T.);
#493=EDGE_CURVE('',#633,#658,#778,.T.);
#494=EDGE_CURVE('',#658,#659,#779,.T.);
#495=EDGE_CURVE('',#659,#634,#780,.T.);
#496=EDGE_CURVE('',#631,#660,#781,.T.);
#497=EDGE_CURVE('',#659,#661,#782,.T.);
#498=EDGE_CURVE('',#661,#662,#783,.F.);
#499=EDGE_CURVE('',#662,#660,#784,.T.);
#500=EDGE_CURVE('',#657,#632,#785,.F.);
#501=EDGE_CURVE('',#660,#663,#36,.F.);
#502=EDGE_CURVE('',#663,#664,#786,.T.);
#503=EDGE_CURVE('',#664,#665,#787,.T.);
#504=EDGE_CURVE('',#665,#666,#788,.T.);
#505=EDGE_CURVE('',#667,#666,#789,.T.);
#506=EDGE_CURVE('',#667,#630,#790,.T.);
#507=EDGE_CURVE('',#629,#626,#791,.T.);
#508=EDGE_CURVE('',#645,#625,#37,.F.);
#509=EDGE_CURVE('',#646,#624,#38,.T.);
#510=EDGE_CURVE('',#668,#667,#792,.T.);
#511=EDGE_CURVE('',#669,#668,#793,.T.);
#512=EDGE_CURVE('',#669,#615,#794,.T.);
#513=EDGE_CURVE('',#628,#621,#795,.T.);
#514=EDGE_CURVE('',#662,#605,#39,.F.);
#515=EDGE_CURVE('',#670,#605,#796,.F.);
#516=EDGE_CURVE('',#671,#670,#40,.T.);
#517=EDGE_CURVE('',#663,#671,#797,.T.);
#518=EDGE_CURVE('',#671,#672,#798,.T.);
#519=EDGE_CURVE('',#673,#672,#799,.T.);
#520=EDGE_CURVE('',#664,#673,#800,.T.);
#521=EDGE_CURVE('',#674,#624,#41,.F.);
#522=EDGE_CURVE('',#647,#674,#42,.T.);
#523=EDGE_CURVE('',#662,#603,#43,.T.);
#524=EDGE_CURVE('',#675,#676,#801,.T.);
#525=EDGE_CURVE('',#676,#677,#802,.T.);
#526=EDGE_CURVE('',#596,#677,#803,.T.);
#527=EDGE_CURVE('',#678,#601,#804,.T.);
#528=EDGE_CURVE('',#678,#675,#805,.F.);
#529=EDGE_CURVE('',#620,#679,#20,.F.);
#530=EDGE_CURVE('',#650,#679,#44,.F.);
#531=EDGE_CURVE('',#590,#674,#806,.F.);
#532=EDGE_CURVE('',#658,#655,#807,.T.);
#533=EDGE_CURVE('',#679,#680,#808,.T.);
#534=EDGE_CURVE('',#680,#676,#809,.T.);
#535=EDGE_CURVE('',#661,#675,#45,.F.);
#536=EDGE_CURVE('',#591,#681,#810,.T.);
#537=EDGE_CURVE('',#616,#681,#811,.T.);
#538=EDGE_CURVE('',#682,#678,#46,.F.);
#539=EDGE_CURVE('',#603,#682,#812,.T.);
#540=EDGE_CURVE('',#670,#683,#813,.T.);
#541=EDGE_CURVE('',#683,#684,#814,.T.);
#542=EDGE_CURVE('',#672,#684,#815,.T.);
#543=EDGE_CURVE('',#627,#622,#816,.T.);
#544=EDGE_CURVE('',#685,#686,#817,.T.);
#545=EDGE_CURVE('',#681,#685,#818,.T.);
#546=EDGE_CURVE('',#674,#686,#819,.T.);
#547=EDGE_CURVE('',#682,#687,#820,.T.);
#548=EDGE_CURVE('',#687,#602,#821,.T.);
#549=EDGE_CURVE('',#687,#600,#822,.T.);
#550=EDGE_CURVE('',#617,#685,#823,.T.);
#551=EDGE_CURVE('',#686,#623,#47,.T.);
#552=EDGE_CURVE('',#604,#683,#824,.T.);
#553=EDGE_CURVE('',#684,#688,#825,.T.);
#554=EDGE_CURVE('',#689,#688,#826,.T.);
#555=EDGE_CURVE('',#612,#689,#827,.T.);
#556=EDGE_CURVE('',#669,#690,#828,.T.);
#557=EDGE_CURVE('',#690,#691,#829,.T.);
#558=EDGE_CURVE('',#673,#691,#830,.T.);
#559=EDGE_CURVE('',#688,#599,#48,.T.);
#560=EDGE_CURVE('',#692,#692,#12,.T.);
#561=EDGE_CURVE('',#598,#689,#49,.T.);
#562=EDGE_CURVE('',#693,#607,#831,.T.);
#563=EDGE_CURVE('',#693,#694,#832,.T.);
#564=EDGE_CURVE('',#694,#606,#833,.T.);
#565=EDGE_CURVE('',#694,#695,#834,.T.);
#566=EDGE_CURVE('',#695,#608,#835,.T.);
#567=EDGE_CURVE('',#695,#696,#836,.T.);
#568=EDGE_CURVE('',#696,#609,#837,.T.);
#569=EDGE_CURVE('',#696,#697,#838,.T.);
#570=EDGE_CURVE('',#697,#610,#839,.T.);
#571=EDGE_CURVE('',#697,#698,#840,.T.);
#572=EDGE_CURVE('',#698,#611,#841,.T.);
#573=EDGE_CURVE('',#698,#693,#842,.T.);
#574=EDGE_CURVE('',#699,#699,#50,.F.);
#575=EDGE_CURVE('',#700,#664,#843,.T.);
#576=EDGE_CURVE('',#700,#691,#844,.T.);
#577=EDGE_CURVE('',#666,#701,#845,.T.);
#578=EDGE_CURVE('',#668,#701,#846,.T.);
#579=EDGE_CURVE('',#702,#690,#847,.T.);
#580=EDGE_CURVE('',#702,#700,#848,.T.);
#581=EDGE_CURVE('',#702,#703,#849,.T.);
#582=EDGE_CURVE('',#703,#665,#850,.T.);
#583=EDGE_CURVE('',#703,#701,#851,.T.);
#584=EDGE_CURVE('',#680,#704,#852,.T.);
#585=EDGE_CURVE('',#704,#677,#853,.T.);
#586=EDGE_CURVE('',#704,#619,#854,.T.);
#587=EDGE_CURVE('',#633,#656,#855,.T.);
#588=VERTEX_POINT('',#1716);
#589=VERTEX_POINT('',#1717);
#590=VERTEX_POINT('',#1719);
#591=VERTEX_POINT('',#1721);
#592=VERTEX_POINT('',#1725);
#593=VERTEX_POINT('',#1726);
#594=VERTEX_POINT('',#1728);
#595=VERTEX_POINT('',#1730);
#596=VERTEX_POINT('',#1734);
#597=VERTEX_POINT('',#1736);
#598=VERTEX_POINT('',#1738);
#599=VERTEX_POINT('',#1740);
#600=VERTEX_POINT('',#1742);
#601=VERTEX_POINT('',#1744);
#602=VERTEX_POINT('',#1748);
#603=VERTEX_POINT('',#1749);
#604=VERTEX_POINT('',#1751);
#605=VERTEX_POINT('',#1753);
#606=VERTEX_POINT('',#1756);
#607=VERTEX_POINT('',#1757);
#608=VERTEX_POINT('',#1759);
#609=VERTEX_POINT('',#1761);
#610=VERTEX_POINT('',#1763);
#611=VERTEX_POINT('',#1765);
#612=VERTEX_POINT('',#1769);
#613=VERTEX_POINT('',#1770);
#614=VERTEX_POINT('',#1772);
#615=VERTEX_POINT('',#1774);
#616=VERTEX_POINT('',#1778);
#617=VERTEX_POINT('',#1779);
#618=VERTEX_POINT('',#1781);
#619=VERTEX_POINT('',#1784);
#620=VERTEX_POINT('',#1786);
#621=VERTEX_POINT('',#1793);
#622=VERTEX_POINT('',#1794);
#623=VERTEX_POINT('',#1796);
#624=VERTEX_POINT('',#1798);
#625=VERTEX_POINT('',#1800);
#626=VERTEX_POINT('',#1802);
#627=VERTEX_POINT('',#1806);
#628=VERTEX_POINT('',#1808);
#629=VERTEX_POINT('',#1810);
#630=VERTEX_POINT('',#1812);
#631=VERTEX_POINT('',#1816);
#632=VERTEX_POINT('',#1817);
#633=VERTEX_POINT('',#1819);
#634=VERTEX_POINT('',#1821);
#635=VERTEX_POINT('',#1825);
#636=VERTEX_POINT('',#1826);
#637=VERTEX_POINT('',#1828);
#638=VERTEX_POINT('',#1830);
#639=VERTEX_POINT('',#1834);
#640=VERTEX_POINT('',#1835);
#641=VERTEX_POINT('',#1837);
#642=VERTEX_POINT('',#1839);
#643=VERTEX_POINT('',#1843);
#644=VERTEX_POINT('',#1844);
#645=VERTEX_POINT('',#1846);
#646=VERTEX_POINT('',#1848);
#647=VERTEX_POINT('',#1852);
#648=VERTEX_POINT('',#1854);
#649=VERTEX_POINT('',#1858);
#650=VERTEX_POINT('',#1859);
#651=VERTEX_POINT('',#1865);
#652=VERTEX_POINT('',#1869);
#653=VERTEX_POINT('',#1874);
#654=VERTEX_POINT('',#1878);
#655=VERTEX_POINT('',#1882);
#656=VERTEX_POINT('',#1884);
#657=VERTEX_POINT('',#1886);
#658=VERTEX_POINT('',#1890);
#659=VERTEX_POINT('',#1892);
#660=VERTEX_POINT('',#1896);
#661=VERTEX_POINT('',#1898);
#662=VERTEX_POINT('',#1900);
#663=VERTEX_POINT('',#1905);
#664=VERTEX_POINT('',#1907);
#665=VERTEX_POINT('',#1909);
#666=VERTEX_POINT('',#1911);
#667=VERTEX_POINT('',#1913);
#668=VERTEX_POINT('',#1921);
#669=VERTEX_POINT('',#1923);
#670=VERTEX_POINT('',#1930);
#671=VERTEX_POINT('',#1932);
#672=VERTEX_POINT('',#1936);
#673=VERTEX_POINT('',#1938);
#674=VERTEX_POINT('',#1942);
#675=VERTEX_POINT('',#1948);
#676=VERTEX_POINT('',#1949);
#677=VERTEX_POINT('',#1951);
#678=VERTEX_POINT('',#1954);
#679=VERTEX_POINT('',#1958);
#680=VERTEX_POINT('',#1964);
#681=VERTEX_POINT('',#1969);
#682=VERTEX_POINT('',#1973);
#683=VERTEX_POINT('',#1977);
#684=VERTEX_POINT('',#1979);
#685=VERTEX_POINT('',#1985);
#686=VERTEX_POINT('',#1986);
#687=VERTEX_POINT('',#1991);
#688=VERTEX_POINT('',#2003);
#689=VERTEX_POINT('',#2005);
#690=VERTEX_POINT('',#2008);
#691=VERTEX_POINT('',#2010);
#692=VERTEX_POINT('',#2026);
#693=VERTEX_POINT('',#2031);
#694=VERTEX_POINT('',#2033);
#695=VERTEX_POINT('',#2037);
#696=VERTEX_POINT('',#2041);
#697=VERTEX_POINT('',#2045);
#698=VERTEX_POINT('',#2049);
#699=VERTEX_POINT('',#2055);
#700=VERTEX_POINT('',#2059);
#701=VERTEX_POINT('',#2063);
#702=VERTEX_POINT('',#2067);
#703=VERTEX_POINT('',#2071);
#704=VERTEX_POINT('',#2077);
#705=LINE('',#1715,#856);
#706=LINE('',#1720,#857);
#707=LINE('',#1722,#858);
#708=LINE('',#1724,#859);
#709=LINE('',#1727,#860);
#710=LINE('',#1729,#861);
#711=LINE('',#1731,#862);
#712=LINE('',#1733,#863);
#713=LINE('',#1735,#864);
#714=LINE('',#1737,#865);
#715=LINE('',#1739,#866);
#716=LINE('',#1741,#867);
#717=LINE('',#1743,#868);
#718=LINE('',#1745,#869);
#719=LINE('',#1747,#870);
#720=LINE('',#1752,#871);
#721=LINE('',#1768,#872);
#722=LINE('',#1771,#873);
#723=LINE('',#1773,#874);
#724=LINE('',#1775,#875);
#725=LINE('',#1777,#876);
#726=LINE('',#1780,#877);
#727=LINE('',#1782,#878);
#728=LINE('',#1783,#879);
#729=LINE('',#1785,#880);
#730=LINE('',#1787,#881);
#731=LINE('',#1788,#882);
#732=LINE('',#1790,#883);
#733=LINE('',#1792,#884);
#734=LINE('',#1795,#885);
#735=LINE('',#1797,#886);
#736=LINE('',#1799,#887);
#737=LINE('',#1801,#888);
#738=LINE('',#1803,#889);
#739=LINE('',#1805,#890);
#740=LINE('',#1807,#891);
#741=LINE('',#1809,#892);
#742=LINE('',#1811,#893);
#743=LINE('',#1813,#894);
#744=LINE('',#1815,#895);
#745=LINE('',#1818,#896);
#746=LINE('',#1820,#897);
#747=LINE('',#1822,#898);
#748=LINE('',#1824,#899);
#749=LINE('',#1827,#900);
#750=LINE('',#1829,#901);
#751=LINE('',#1831,#902);
#752=LINE('',#1833,#903);
#753=LINE('',#1836,#904);
#754=LINE('',#1838,#905);
#755=LINE('',#1840,#906);
#756=LINE('',#1842,#907);
#757=LINE('',#1845,#908);
#758=LINE('',#1847,#909);
#759=LINE('',#1849,#910);
#760=LINE('',#1853,#911);
#761=LINE('',#1857,#912);
#762=LINE('',#1860,#913);
#763=LINE('',#1861,#914);
#764=LINE('',#1863,#915);
#765=LINE('',#1864,#916);
#766=LINE('',#1866,#917);
#767=LINE('',#1868,#918);
#768=LINE('',#1870,#919);
#769=LINE('',#1872,#920);
#770=LINE('',#1873,#921);
#771=LINE('',#1875,#922);
#772=LINE('',#1877,#923);
#773=LINE('',#1879,#924);
#774=LINE('',#1881,#925);
#775=LINE('',#1883,#926);
#776=LINE('',#1885,#927);
#777=LINE('',#1887,#928);
#778=LINE('',#1889,#929);
#779=LINE('',#1891,#930);
#780=LINE('',#1893,#931);
#781=LINE('',#1895,#932);
#782=LINE('',#1897,#933);
#783=LINE('',#1899,#934);
#784=LINE('',#1901,#935);
#785=LINE('',#1903,#936);
#786=LINE('',#1906,#937);
#787=LINE('',#1908,#938);
#788=LINE('',#1910,#939);
#789=LINE('',#1912,#940);
#790=LINE('',#1914,#941);
#791=LINE('',#1915,#942);
#792=LINE('',#1920,#943);
#793=LINE('',#1922,#944);
#794=LINE('',#1924,#945);
#795=LINE('',#1926,#946);
#796=LINE('',#1929,#947);
#797=LINE('',#1933,#948);
#798=LINE('',#1935,#949);
#799=LINE('',#1937,#950);
#800=LINE('',#1939,#951);
#801=LINE('',#1947,#952);
#802=LINE('',#1950,#953);
#803=LINE('',#1952,#954);
#804=LINE('',#1953,#955);
#805=LINE('',#1955,#956);
#806=LINE('',#1960,#957);
#807=LINE('',#1962,#958);
#808=LINE('',#1963,#959);
#809=LINE('',#1965,#960);
#810=LINE('',#1968,#961);
#811=LINE('',#1970,#962);
#812=LINE('',#1974,#963);
#813=LINE('',#1976,#964);
#814=LINE('',#1978,#965);
#815=LINE('',#1980,#966);
#816=LINE('',#1982,#967);
#817=LINE('',#1984,#968);
#818=LINE('',#1987,#969);
#819=LINE('',#1988,#970);
#820=LINE('',#1990,#971);
#821=LINE('',#1992,#972);
#822=LINE('',#1994,#973);
#823=LINE('',#1996,#974);
#824=LINE('',#2000,#975);
#825=LINE('',#2002,#976);
#826=LINE('',#2004,#977);
#827=LINE('',#2006,#978);
#828=LINE('',#2007,#979);
#829=LINE('',#2009,#980);
#830=LINE('',#2011,#981);
#831=LINE('',#2030,#982);
#832=LINE('',#2032,#983);
#833=LINE('',#2034,#984);
#834=LINE('',#2036,#985);
#835=LINE('',#2038,#986);
#836=LINE('',#2040,#987);
#837=LINE('',#2042,#988);
#838=LINE('',#2044,#989);
#839=LINE('',#2046,#990);
#840=LINE('',#2048,#991);
#841=LINE('',#2050,#992);
#842=LINE('',#2052,#993);
#843=LINE('',#2058,#994);
#844=LINE('',#2060,#995);
#845=LINE('',#2062,#996);
#846=LINE('',#2064,#997);
#847=LINE('',#2066,#998);
#848=LINE('',#2068,#999);
#849=LINE('',#2070,#1000);
#850=LINE('',#2072,#1001);
#851=LINE('',#2074,#1002);
#852=LINE('',#2076,#1003);
#853=LINE('',#2078,#1004);
#854=LINE('',#2080,#1005);
#855=LINE('',#2084,#1006);
#856=VECTOR('',#1378,1.);
#857=VECTOR('',#1381,1.);
#858=VECTOR('',#1382,1.);
#859=VECTOR('',#1385,1.);
#860=VECTOR('',#1386,1.);
#861=VECTOR('',#1387,1.);
#862=VECTOR('',#1388,1.);
#863=VECTOR('',#1391,1.);
#864=VECTOR('',#1392,1.);
#865=VECTOR('',#1393,1.);
#866=VECTOR('',#1394,1.);
#867=VECTOR('',#1395,1.);
#868=VECTOR('',#1396,1.);
#869=VECTOR('',#1397,1.);
#870=VECTOR('',#1400,1.);
#871=VECTOR('',#1403,1.);
#872=VECTOR('',#1420,1.);
#873=VECTOR('',#1421,1.);
#874=VECTOR('',#1422,1.);
#875=VECTOR('',#1423,1.);
#876=VECTOR('',#1426,1.);
#877=VECTOR('',#1427,1.);
#878=VECTOR('',#1428,1.);
#879=VECTOR('',#1429,1.);
#880=VECTOR('',#1430,1.);
#881=VECTOR('',#1431,1.);
#882=VECTOR('',#1432,1.);
#883=VECTOR('',#1435,1.);
#884=VECTOR('',#1438,1.);
#885=VECTOR('',#1439,1.);
#886=VECTOR('',#1440,1.);
#887=VECTOR('',#1441,1.);
#888=VECTOR('',#1442,1.);
#889=VECTOR('',#1443,1.);
#890=VECTOR('',#1446,1.);
#891=VECTOR('',#1447,1.);
#892=VECTOR('',#1448,1.);
#893=VECTOR('',#1449,1.);
#894=VECTOR('',#1450,1.);
#895=VECTOR('',#1453,1.);
#896=VECTOR('',#1454,1.);
#897=VECTOR('',#1455,1.);
#898=VECTOR('',#1456,1.);
#899=VECTOR('',#1459,1.);
#900=VECTOR('',#1460,1.);
#901=VECTOR('',#1461,1.);
#902=VECTOR('',#1462,1.);
#903=VECTOR('',#1465,1.);
#904=VECTOR('',#1466,1.);
#905=VECTOR('',#1467,1.);
#906=VECTOR('',#1468,1.);
#907=VECTOR('',#1471,1.);
#908=VECTOR('',#1472,1.);
#909=VECTOR('',#1473,1.);
#910=VECTOR('',#1474,1.);
#911=VECTOR('',#1479,1.);
#912=VECTOR('',#1484,1.);
#913=VECTOR('',#1485,1.);
#914=VECTOR('',#1486,1.);
#915=VECTOR('',#1489,1.);
#916=VECTOR('',#1490,1.);
#917=VECTOR('',#1491,1.);
#918=VECTOR('',#1494,1.);
#919=VECTOR('',#1495,1.);
#920=VECTOR('',#1498,1.);
#921=VECTOR('',#1499,1.);
#922=VECTOR('',#1500,1.);
#923=VECTOR('',#1503,1.);
#924=VECTOR('',#1504,1.);
#925=VECTOR('',#1507,1.);
#926=VECTOR('',#1508,1.);
#927=VECTOR('',#1509,1.);
#928=VECTOR('',#1510,1.);
#929=VECTOR('',#1513,1.);
#930=VECTOR('',#1514,1.);
#931=VECTOR('',#1515,1.);
#932=VECTOR('',#1518,1.);
#933=VECTOR('',#1519,1.);
#934=VECTOR('',#1520,1.);
#935=VECTOR('',#1521,1.);
#936=VECTOR('',#1524,1.);
#937=VECTOR('',#1527,1.);
#938=VECTOR('',#1528,1.);
#939=VECTOR('',#1529,1.);
#940=VECTOR('',#1530,1.);
#941=VECTOR('',#1531,1.);
#942=VECTOR('',#1532,1.);
#943=VECTOR('',#1541,1.);
#944=VECTOR('',#1542,1.);
#945=VECTOR('',#1543,1.);
#946=VECTOR('',#1546,1.);
#947=VECTOR('',#1551,1.);
#948=VECTOR('',#1554,1.);
#949=VECTOR('',#1557,1.);
#950=VECTOR('',#1558,1.);
#951=VECTOR('',#1559,1.);
#952=VECTOR('',#1572,1.);
#953=VECTOR('',#1573,1.);
#954=VECTOR('',#1574,1.);
#955=VECTOR('',#1575,1.);
#956=VECTOR('',#1576,1.);
#957=VECTOR('',#1583,1.);
#958=VECTOR('',#1586,1.);
#959=VECTOR('',#1587,1.);
#960=VECTOR('',#1588,1.);
#961=VECTOR('',#1593,1.);
#962=VECTOR('',#1594,1.);
#963=VECTOR('',#1599,1.);
#964=VECTOR('',#1602,1.);
#965=VECTOR('',#1603,1.);
#966=VECTOR('',#1604,1.);
#967=VECTOR('',#1607,1.);
#968=VECTOR('',#1610,1.);
#969=VECTOR('',#1611,1.);
#970=VECTOR('',#1612,1.);
#971=VECTOR('',#1615,1.);
#972=VECTOR('',#1616,1.);
#973=VECTOR('',#1619,1.);
#974=VECTOR('',#1622,1.);
#975=VECTOR('',#1629,1.);
#976=VECTOR('',#1632,1.);
#977=VECTOR('',#1633,1.);
#978=VECTOR('',#1634,1.);
#979=VECTOR('',#1635,1.);
#980=VECTOR('',#1636,1.);
#981=VECTOR('',#1637,1.);
#982=VECTOR('',#1650,1.);
#983=VECTOR('',#1651,1.);
#984=VECTOR('',#1652,1.);
#985=VECTOR('',#1655,1.);
#986=VECTOR('',#1656,1.);
#987=VECTOR('',#1659,1.);
#988=VECTOR('',#1660,1.);
#989=VECTOR('',#1663,1.);
#990=VECTOR('',#1664,1.);
#991=VECTOR('',#1667,1.);
#992=VECTOR('',#1668,1.);
#993=VECTOR('',#1671,1.);
#994=VECTOR('',#1680,1.);
#995=VECTOR('',#1681,1.);
#996=VECTOR('',#1684,1.);
#997=VECTOR('',#1685,1.);
#998=VECTOR('',#1688,1.);
#999=VECTOR('',#1689,1.);
#1000=VECTOR('',#1692,1.);
#1001=VECTOR('',#1693,1.);
#1002=VECTOR('',#1696,1.);
#1003=VECTOR('',#1699,1.);
#1004=VECTOR('',#1700,1.);
#1005=VECTOR('',#1703,1.);
#1006=VECTOR('',#1710,1.);
#1007=EDGE_LOOP('',(#51,#52,#53,#54));
#1008=EDGE_LOOP('',(#55,#56,#57,#58));
#1009=EDGE_LOOP('',(#59,#60,#61,#62,#63,#64,#65,#66));
#1010=EDGE_LOOP('',(#67,#68,#69,#70));
#1011=EDGE_LOOP('',(#71,#72,#73,#74,#75,#76));
#1012=EDGE_LOOP('',(#77,#78,#79,#80));
#1013=EDGE_LOOP('',(#81,#82,#83,#84,#85,#86,#87,#88,#89));
#1014=EDGE_LOOP('',(#90,#91,#92,#93));
#1015=EDGE_LOOP('',(#94,#95,#96,#97,#98,#99));
#1016=EDGE_LOOP('',(#100,#101,#102,#103,#104,#105));
#1017=EDGE_LOOP('',(#106,#107,#108,#109));
#1018=EDGE_LOOP('',(#110,#111,#112,#113));
#1019=EDGE_LOOP('',(#114,#115,#116,#117));
#1020=EDGE_LOOP('',(#118,#119,#120,#121));
#1021=EDGE_LOOP('',(#122,#123,#124,#125));
#1022=EDGE_LOOP('',(#126,#127,#128,#129));
#1023=EDGE_LOOP('',(#130,#131,#132,#133,#134,#135,#136));
#1024=EDGE_LOOP('',(#137,#138,#139,#140));
#1025=EDGE_LOOP('',(#141,#142,#143,#144,#145,#146));
#1026=EDGE_LOOP('',(#147,#148,#149,#150));
#1027=EDGE_LOOP('',(#151,#152,#153,#154,#155,#156));
#1028=EDGE_LOOP('',(#157,#158,#159,#160));
#1029=EDGE_LOOP('',(#161,#162,#163,#164,#165,#166));
#1030=EDGE_LOOP('',(#167,#168,#169,#170,#171,#172,#173,#174,#175,#176,#177,
#178,#179,#180,#181,#182,#183,#184,#185));
#1031=EDGE_LOOP('',(#186,#187,#188,#189));
#1032=EDGE_LOOP('',(#190,#191,#192,#193,#194,#195));
#1033=EDGE_LOOP('',(#196,#197,#198,#199));
#1034=EDGE_LOOP('',(#200,#201,#202,#203,#204,#205));
#1035=EDGE_LOOP('',(#206,#207,#208,#209,#210));
#1036=EDGE_LOOP('',(#211,#212,#213,#214));
#1037=EDGE_LOOP('',(#215,#216,#217));
#1038=EDGE_LOOP('',(#218,#219,#220,#221,#222,#223));
#1039=EDGE_LOOP('',(#224,#225,#226,#227,#228,#229,#230));
#1040=EDGE_LOOP('',(#231,#232,#233,#234,#235,#236,#237,#238,#239,#240,#241,
#242,#243,#244));
#1041=EDGE_LOOP('',(#245,#246,#247,#248));
#1042=EDGE_LOOP('',(#249,#250,#251,#252,#253,#254));
#1043=EDGE_LOOP('',(#255,#256,#257,#258,#259));
#1044=EDGE_LOOP('',(#260,#261,#262,#263));
#1045=EDGE_LOOP('',(#264,#265,#266,#267,#268,#269));
#1046=EDGE_LOOP('',(#270,#271,#272,#273));
#1047=EDGE_LOOP('',(#274,#275,#276,#277,#278));
#1048=EDGE_LOOP('',(#279,#280,#281,#282));
#1049=EDGE_LOOP('',(#283,#284,#285,#286));
#1050=EDGE_LOOP('',(#287,#288,#289,#290));
#1051=EDGE_LOOP('',(#291,#292,#293,#294,#295,#296,#297,#298,#299,#300));
#1052=EDGE_LOOP('',(#301,#302,#303,#304,#305,#306,#307,#308));
#1053=EDGE_LOOP('',(#309));
#1054=EDGE_LOOP('',(#310,#311,#312,#313));
#1055=EDGE_LOOP('',(#314,#315,#316,#317,#318,#319,#320,#321,#322,#323,#324,
#325));
#1056=EDGE_LOOP('',(#326,#327,#328,#329));
#1057=EDGE_LOOP('',(#330,#331,#332,#333));
#1058=EDGE_LOOP('',(#334,#335,#336,#337));
#1059=EDGE_LOOP('',(#338,#339,#340,#341));
#1060=EDGE_LOOP('',(#342,#343,#344,#345));
#1061=EDGE_LOOP('',(#346,#347,#348,#349));
#1062=EDGE_LOOP('',(#350));
#1063=EDGE_LOOP('',(#351));
#1064=EDGE_LOOP('',(#352));
#1065=EDGE_LOOP('',(#353,#354,#355,#356,#357,#358));
#1066=EDGE_LOOP('',(#359,#360,#361,#362));
#1067=EDGE_LOOP('',(#363,#364,#365,#366));
#1068=EDGE_LOOP('',(#367,#368,#369,#370));
#1069=EDGE_LOOP('',(#371,#372,#373,#374,#375));
#1070=EDGE_LOOP('',(#376,#377,#378,#379,#380,#381));
#1071=EDGE_LOOP('',(#382,#383,#384,#385));
#1072=EDGE_LOOP('',(#386,#387,#388,#389,#390,#391));
#1073=EDGE_LOOP('',(#392,#393,#394,#395));
#1074=EDGE_LOOP('',(#396,#397,#398,#399,#400));
#1075=EDGE_LOOP('',(#401,#402,#403,#404));
#1076=EDGE_LOOP('',(#405,#406,#407,#408));
#1077=FACE_BOUND('',#1007,.T.);
#1078=FACE_BOUND('',#1008,.T.);
#1079=FACE_BOUND('',#1009,.T.);
#1080=FACE_BOUND('',#1010,.T.);
#1081=FACE_BOUND('',#1011,.T.);
#1082=FACE_BOUND('',#1012,.T.);
#1083=FACE_BOUND('',#1013,.T.);
#1084=FACE_BOUND('',#1014,.T.);
#1085=FACE_BOUND('',#1015,.T.);
#1086=FACE_BOUND('',#1016,.T.);
#1087=FACE_BOUND('',#1017,.T.);
#1088=FACE_BOUND('',#1018,.T.);
#1089=FACE_BOUND('',#1019,.T.);
#1090=FACE_BOUND('',#1020,.T.);
#1091=FACE_BOUND('',#1021,.T.);
#1092=FACE_BOUND('',#1022,.T.);
#1093=FACE_BOUND('',#1023,.T.);
#1094=FACE_BOUND('',#1024,.T.);
#1095=FACE_BOUND('',#1025,.T.);
#1096=FACE_BOUND('',#1026,.T.);
#1097=FACE_BOUND('',#1027,.T.);
#1098=FACE_BOUND('',#1028,.T.);
#1099=FACE_BOUND('',#1029,.T.);
#1100=FACE_BOUND('',#1030,.T.);
#1101=FACE_BOUND('',#1031,.T.);
#1102=FACE_BOUND('',#1032,.T.);
#1103=FACE_BOUND('',#1033,.T.);
#1104=FACE_BOUND('',#1034,.T.);
#1105=FACE_BOUND('',#1035,.T.);
#1106=FACE_BOUND('',#1036,.T.);
#1107=FACE_BOUND('',#1037,.T.);
#1108=FACE_BOUND('',#1038,.T.);
#1109=FACE_BOUND('',#1039,.T.);
#1110=FACE_BOUND('',#1040,.T.);
#1111=FACE_BOUND('',#1041,.T.);
#1112=FACE_BOUND('',#1042,.T.);
#1113=FACE_BOUND('',#1043,.T.);
#1114=FACE_BOUND('',#1044,.T.);
#1115=FACE_BOUND('',#1045,.T.);
#1116=FACE_BOUND('',#1046,.T.);
#1117=FACE_BOUND('',#1047,.T.);
#1118=FACE_BOUND('',#1048,.T.);
#1119=FACE_BOUND('',#1049,.T.);
#1120=FACE_BOUND('',#1050,.T.);
#1121=FACE_BOUND('',#1051,.T.);
#1122=FACE_BOUND('',#1052,.T.);
#1123=FACE_BOUND('',#1053,.T.);
#1124=FACE_BOUND('',#1054,.T.);
#1125=FACE_BOUND('',#1055,.T.);
#1126=FACE_BOUND('',#1056,.T.);
#1127=FACE_BOUND('',#1057,.T.);
#1128=FACE_BOUND('',#1058,.T.);
#1129=FACE_BOUND('',#1059,.T.);
#1130=FACE_BOUND('',#1060,.T.);
#1131=FACE_BOUND('',#1061,.T.);
#1132=FACE_BOUND('',#1062,.T.);
#1133=FACE_BOUND('',#1063,.T.);
#1134=FACE_BOUND('',#1064,.T.);
#1135=FACE_BOUND('',#1065,.T.);
#1136=FACE_BOUND('',#1066,.T.);
#1137=FACE_BOUND('',#1067,.T.);
#1138=FACE_BOUND('',#1068,.T.);
#1139=FACE_BOUND('',#1069,.T.);
#1140=FACE_BOUND('',#1070,.T.);
#1141=FACE_BOUND('',#1071,.T.);
#1142=FACE_BOUND('',#1072,.T.);
#1143=FACE_BOUND('',#1073,.T.);
#1144=FACE_BOUND('',#1074,.T.);
#1145=FACE_BOUND('',#1075,.T.);
#1146=FACE_BOUND('',#1076,.T.);
#1147=PLANE('',#1281);
#1148=PLANE('',#1283);
#1149=PLANE('',#1284);
#1150=PLANE('',#1294);
#1151=PLANE('',#1295);
#1152=PLANE('',#1296);
#1153=PLANE('',#1297);
#1154=PLANE('',#1298);
#1155=PLANE('',#1299);
#1156=PLANE('',#1300);
#1157=PLANE('',#1301);
#1158=PLANE('',#1302);
#1159=PLANE('',#1306);
#1160=PLANE('',#1307);
#1161=PLANE('',#1308);
#1162=PLANE('',#1309);
#1163=PLANE('',#1310);
#1164=PLANE('',#1311);
#1165=PLANE('',#1312);
#1166=PLANE('',#1313);
#1167=PLANE('',#1314);
#1168=PLANE('',#1319);
#1169=PLANE('',#1320);
#1170=PLANE('',#1324);
#1171=PLANE('',#1330);
#1172=PLANE('',#1334);
#1173=PLANE('',#1336);
#1174=PLANE('',#1339);
#1175=PLANE('',#1340);
#1176=PLANE('',#1341);
#1177=PLANE('',#1342);
#1178=PLANE('',#1343);
#1179=PLANE('',#1344);
#1180=PLANE('',#1347);
#1181=PLANE('',#1348);
#1182=PLANE('',#1349);
#1183=PLANE('',#1353);
#1184=PLANE('',#1354);
#1185=PLANE('',#1355);
#1186=PLANE('',#1356);
#1187=PLANE('',#1357);
#1188=PLANE('',#1358);
#1189=PLANE('',#1359);
#1190=PLANE('',#1362);
#1191=PLANE('',#1363);
#1192=PLANE('',#1364);
#1193=PLANE('',#1365);
#1194=PLANE('',#1366);
#1195=PLANE('',#1367);
#1196=PLANE('',#1368);
#1197=PLANE('',#1369);
#1198=PLANE('',#1370);
#1199=PLANE('',#1371);
#1200=PLANE('',#1372);
#1201=PLANE('',#1373);
#1202=ADVANCED_FACE('',(#1077),#1147,.F.);
#1203=ADVANCED_FACE('',(#1078),#1148,.F.);
#1204=ADVANCED_FACE('',(#1079),#1149,.F.);
#1205=ADVANCED_FACE('',(#1080,#1081),#21,.F.);
#1206=ADVANCED_FACE('',(#1082),#1150,.F.);
#1207=ADVANCED_FACE('',(#1083),#1151,.T.);
#1208=ADVANCED_FACE('',(#1084),#1152,.T.);
#1209=ADVANCED_FACE('',(#1085),#1153,.T.);
#1210=ADVANCED_FACE('',(#1086),#1154,.T.);
#1211=ADVANCED_FACE('',(#1087),#1155,.T.);
#1212=ADVANCED_FACE('',(#1088),#1156,.F.);
#1213=ADVANCED_FACE('',(#1089),#1157,.T.);
#1214=ADVANCED_FACE('',(#1090),#1158,.F.);
#1215=ADVANCED_FACE('',(#1091),#15,.T.);
#1216=ADVANCED_FACE('',(#1092),#1159,.F.);
#1217=ADVANCED_FACE('',(#1093),#1160,.T.);
#1218=ADVANCED_FACE('',(#1094),#1161,.F.);
#1219=ADVANCED_FACE('',(#1095),#1162,.F.);
#1220=ADVANCED_FACE('',(#1096),#1163,.T.);
#1221=ADVANCED_FACE('',(#1097),#1164,.T.);
#1222=ADVANCED_FACE('',(#1098),#1165,.F.);
#1223=ADVANCED_FACE('',(#1099),#1166,.F.);
#1224=ADVANCED_FACE('',(#1100),#1167,.T.);
#1225=ADVANCED_FACE('',(#1101),#22,.T.);
#1226=ADVANCED_FACE('',(#1102),#1168,.F.);
#1227=ADVANCED_FACE('',(#1103),#1169,.F.);
#1228=ADVANCED_FACE('',(#1104),#23,.F.);
#1229=ADVANCED_FACE('',(#1105),#1170,.F.);
#1230=ADVANCED_FACE('',(#1106),#14,.T.);
#1231=ADVANCED_FACE('',(#1107),#13,.F.);
#1232=ADVANCED_FACE('',(#1108),#1171,.F.);
#1233=ADVANCED_FACE('',(#1109),#24,.T.);
#1234=ADVANCED_FACE('',(#1110),#1172,.F.);
#1235=ADVANCED_FACE('',(#1111),#1173,.F.);
#1236=ADVANCED_FACE('',(#1112),#25,.F.);
#1237=ADVANCED_FACE('',(#1113),#1174,.F.);
#1238=ADVANCED_FACE('',(#1114),#1175,.F.);
#1239=ADVANCED_FACE('',(#1115),#1176,.T.);
#1240=ADVANCED_FACE('',(#1116),#1177,.F.);
#1241=ADVANCED_FACE('',(#1117),#1178,.T.);
#1242=ADVANCED_FACE('',(#1118),#1179,.T.);
#1243=ADVANCED_FACE('',(#1119),#26,.T.);
#1244=ADVANCED_FACE('',(#1120),#1180,.F.);
#1245=ADVANCED_FACE('',(#1121),#1181,.F.);
#1246=ADVANCED_FACE('',(#1122),#1182,.F.);
#1247=ADVANCED_FACE('',(#1123,#1124),#27,.T.);
#1248=ADVANCED_FACE('',(#1125),#1183,.T.);
#1249=ADVANCED_FACE('',(#1126),#1184,.T.);
#1250=ADVANCED_FACE('',(#1127),#1185,.T.);
#1251=ADVANCED_FACE('',(#1128),#1186,.T.);
#1252=ADVANCED_FACE('',(#1129),#1187,.T.);
#1253=ADVANCED_FACE('',(#1130),#1188,.T.);
#1254=ADVANCED_FACE('',(#1131),#1189,.T.);
#1255=ADVANCED_FACE('',(#1132,#1133),#28,.F.);
#1256=ADVANCED_FACE('',(#1134,#1135),#1190,.F.);
#1257=ADVANCED_FACE('',(#1136),#1191,.F.);
#1258=ADVANCED_FACE('',(#1137),#1192,.T.);
#1259=ADVANCED_FACE('',(#1138),#1193,.T.);
#1260=ADVANCED_FACE('',(#1139),#1194,.F.);
#1261=ADVANCED_FACE('',(#1140),#1195,.T.);
#1262=ADVANCED_FACE('',(#1141),#1196,.F.);
#1263=ADVANCED_FACE('',(#1142),#1197,.T.);
#1264=ADVANCED_FACE('',(#1143),#1198,.F.);
#1265=ADVANCED_FACE('',(#1144),#1199,.T.);
#1266=ADVANCED_FACE('',(#1145),#1200,.F.);
#1267=ADVANCED_FACE('',(#1146),#1201,.T.);
#1268=CLOSED_SHELL('',(#1202,#1203,#1204,#1205,#1206,#1207,#1208,#1209,
#1210,#1211,#1212,#1213,#1214,#1215,#1216,#1217,#1218,#1219,#1220,#1221,
#1222,#1223,#1224,#1225,#1226,#1227,#1228,#1229,#1230,#1231,#1232,#1233,
#1234,#1235,#1236,#1237,#1238,#1239,#1240,#1241,#1242,#1243,#1244,#1245,
#1246,#1247,#1248,#1249,#1250,#1251,#1252,#1253,#1254,#1255,#1256,#1257,
#1258,#1259,#1260,#1261,#1262,#1263,#1264,#1265,#1266,#1267));
#1269=STYLED_ITEM('',(#1270),#1277);
#1270=PRESENTATION_STYLE_ASSIGNMENT((#1271));
#1271=SURFACE_STYLE_USAGE(.BOTH.,#1272);
#1272=SURFACE_SIDE_STYLE('',(#1273));
#1273=SURFACE_STYLE_FILL_AREA(#1274);
#1274=FILL_AREA_STYLE('',(#1275));
#1275=FILL_AREA_STYLE_COLOUR('',#1276);
#1276=COLOUR_RGB('',0.235294117647059,0.235294117647059,0.235294117647059);
#1277=MANIFOLD_SOLID_BREP('Top Right Back',#1268);
#1278=SHAPE_DEFINITION_REPRESENTATION(#2092,#1279);
#1279=SHAPE_REPRESENTATION('Top Right Back',(#1280),#2087);
#1280=AXIS2_PLACEMENT_3D('',#1713,#1374,#1375);
#1281=AXIS2_PLACEMENT_3D('',#1714,#1376,#1377);
#1282=AXIS2_PLACEMENT_3D('',#1718,#1379,#1380);
#1283=AXIS2_PLACEMENT_3D('',#1723,#1383,#1384);
#1284=AXIS2_PLACEMENT_3D('',#1732,#1389,#1390);
#1285=AXIS2_PLACEMENT_3D('',#1746,#1398,#1399);
#1286=AXIS2_PLACEMENT_3D('',#1750,#1401,#1402);
#1287=AXIS2_PLACEMENT_3D('',#1754,#1404,#1405);
#1288=AXIS2_PLACEMENT_3D('',#1755,#1406,#1407);
#1289=AXIS2_PLACEMENT_3D('',#1758,#1408,#1409);
#1290=AXIS2_PLACEMENT_3D('',#1760,#1410,#1411);
#1291=AXIS2_PLACEMENT_3D('',#1762,#1412,#1413);
#1292=AXIS2_PLACEMENT_3D('',#1764,#1414,#1415);
#1293=AXIS2_PLACEMENT_3D('',#1766,#1416,#1417);
#1294=AXIS2_PLACEMENT_3D('',#1767,#1418,#1419);
#1295=AXIS2_PLACEMENT_3D('',#1776,#1424,#1425);
#1296=AXIS2_PLACEMENT_3D('',#1789,#1433,#1434);
#1297=AXIS2_PLACEMENT_3D('',#1791,#1436,#1437);
#1298=AXIS2_PLACEMENT_3D('',#1804,#1444,#1445);
#1299=AXIS2_PLACEMENT_3D('',#1814,#1451,#1452);
#1300=AXIS2_PLACEMENT_3D('',#1823,#1457,#1458);
#1301=AXIS2_PLACEMENT_3D('',#1832,#1463,#1464);
#1302=AXIS2_PLACEMENT_3D('',#1841,#1469,#1470);
#1303=AXIS2_PLACEMENT_3D('',#1850,#1475,#1476);
#1304=AXIS2_PLACEMENT_3D('',#1851,#1477,#1478);
#1305=AXIS2_PLACEMENT_3D('',#1855,#1480,#1481);
#1306=AXIS2_PLACEMENT_3D('',#1856,#1482,#1483);
#1307=AXIS2_PLACEMENT_3D('',#1862,#1487,#1488);
#1308=AXIS2_PLACEMENT_3D('',#1867,#1492,#1493);
#1309=AXIS2_PLACEMENT_3D('',#1871,#1496,#1497);
#1310=AXIS2_PLACEMENT_3D('',#1876,#1501,#1502);
#1311=AXIS2_PLACEMENT_3D('',#1880,#1505,#1506);
#1312=AXIS2_PLACEMENT_3D('',#1888,#1511,#1512);
#1313=AXIS2_PLACEMENT_3D('',#1894,#1516,#1517);
#1314=AXIS2_PLACEMENT_3D('',#1902,#1522,#1523);
#1315=AXIS2_PLACEMENT_3D('',#1904,#1525,#1526);
#1316=AXIS2_PLACEMENT_3D('',#1916,#1533,#1534);
#1317=AXIS2_PLACEMENT_3D('',#1917,#1535,#1536);
#1318=AXIS2_PLACEMENT_3D('',#1918,#1537,#1538);
#1319=AXIS2_PLACEMENT_3D('',#1919,#1539,#1540);
#1320=AXIS2_PLACEMENT_3D('',#1925,#1544,#1545);
#1321=AXIS2_PLACEMENT_3D('',#1927,#1547,#1548);
#1322=AXIS2_PLACEMENT_3D('',#1928,#1549,#1550);
#1323=AXIS2_PLACEMENT_3D('',#1931,#1552,#1553);
#1324=AXIS2_PLACEMENT_3D('',#1934,#1555,#1556);
#1325=AXIS2_PLACEMENT_3D('',#1940,#1560,#1561);
#1326=AXIS2_PLACEMENT_3D('',#1941,#1562,#1563);
#1327=AXIS2_PLACEMENT_3D('',#1943,#1564,#1565);
#1328=AXIS2_PLACEMENT_3D('',#1944,#1566,#1567);
#1329=AXIS2_PLACEMENT_3D('',#1945,#1568,#1569);
#1330=AXIS2_PLACEMENT_3D('',#1946,#1570,#1571);
#1331=AXIS2_PLACEMENT_3D('',#1956,#1577,#1578);
#1332=AXIS2_PLACEMENT_3D('',#1957,#1579,#1580);
#1333=AXIS2_PLACEMENT_3D('',#1959,#1581,#1582);
#1334=AXIS2_PLACEMENT_3D('',#1961,#1584,#1585);
#1335=AXIS2_PLACEMENT_3D('',#1966,#1589,#1590);
#1336=AXIS2_PLACEMENT_3D('',#1967,#1591,#1592);
#1337=AXIS2_PLACEMENT_3D('',#1971,#1595,#1596);
#1338=AXIS2_PLACEMENT_3D('',#1972,#1597,#1598);
#1339=AXIS2_PLACEMENT_3D('',#1975,#1600,#1601);
#1340=AXIS2_PLACEMENT_3D('',#1981,#1605,#1606);
#1341=AXIS2_PLACEMENT_3D('',#1983,#1608,#1609);
#1342=AXIS2_PLACEMENT_3D('',#1989,#1613,#1614);
#1343=AXIS2_PLACEMENT_3D('',#1993,#1617,#1618);
#1344=AXIS2_PLACEMENT_3D('',#1995,#1620,#1621);
#1345=AXIS2_PLACEMENT_3D('',#1997,#1623,#1624);
#1346=AXIS2_PLACEMENT_3D('',#1998,#1625,#1626);
#1347=AXIS2_PLACEMENT_3D('',#1999,#1627,#1628);
#1348=AXIS2_PLACEMENT_3D('',#2001,#1630,#1631);
#1349=AXIS2_PLACEMENT_3D('',#2012,#1638,#1639);
#1350=AXIS2_PLACEMENT_3D('',#2013,#1640,#1641);
#1351=AXIS2_PLACEMENT_3D('',#2014,#1642,#1643);
#1352=AXIS2_PLACEMENT_3D('',#2027,#1644,#1645);
#1353=AXIS2_PLACEMENT_3D('',#2028,#1646,#1647);
#1354=AXIS2_PLACEMENT_3D('',#2029,#1648,#1649);
#1355=AXIS2_PLACEMENT_3D('',#2035,#1653,#1654);
#1356=AXIS2_PLACEMENT_3D('',#2039,#1657,#1658);
#1357=AXIS2_PLACEMENT_3D('',#2043,#1661,#1662);
#1358=AXIS2_PLACEMENT_3D('',#2047,#1665,#1666);
#1359=AXIS2_PLACEMENT_3D('',#2051,#1669,#1670);
#1360=AXIS2_PLACEMENT_3D('',#2053,#1672,#1673);
#1361=AXIS2_PLACEMENT_3D('',#2054,#1674,#1675);
#1362=AXIS2_PLACEMENT_3D('',#2056,#1676,#1677);
#1363=AXIS2_PLACEMENT_3D('',#2057,#1678,#1679);
#1364=AXIS2_PLACEMENT_3D('',#2061,#1682,#1683);
#1365=AXIS2_PLACEMENT_3D('',#2065,#1686,#1687);
#1366=AXIS2_PLACEMENT_3D('',#2069,#1690,#1691);
#1367=AXIS2_PLACEMENT_3D('',#2073,#1694,#1695);
#1368=AXIS2_PLACEMENT_3D('',#2075,#1697,#1698);
#1369=AXIS2_PLACEMENT_3D('',#2079,#1701,#1702);
#1370=AXIS2_PLACEMENT_3D('',#2081,#1704,#1705);
#1371=AXIS2_PLACEMENT_3D('',#2082,#1706,#1707);
#1372=AXIS2_PLACEMENT_3D('',#2083,#1708,#1709);
#1373=AXIS2_PLACEMENT_3D('',#2085,#1711,#1712);
#1374=DIRECTION('',(0.,0.,1.));
#1375=DIRECTION('',(1.,0.,0.));
#1376=DIRECTION('',(1.,0.,0.));
#1377=DIRECTION('',(0.,1.,0.));
#1378=DIRECTION('',(0.,0.,1.));
#1379=DIRECTION('',(1.,0.,0.));
#1380=DIRECTION('',(0.,0.,-1.));
#1381=DIRECTION('',(0.,0.,-1.));
#1382=DIRECTION('',(0.,1.,0.));
#1383=DIRECTION('',(0.,0.,1.));
#1384=DIRECTION('',(1.,0.,0.));
#1385=DIRECTION('',(6.12323399573677E-17,1.,0.));
#1386=DIRECTION('',(-1.,0.,0.));
#1387=DIRECTION('',(0.,1.,0.));
#1388=DIRECTION('',(-1.,0.,0.));
#1389=DIRECTION('',(0.,-1.,0.));
#1390=DIRECTION('',(0.,0.,-1.));
#1391=DIRECTION('',(0.,0.,-1.));
#1392=DIRECTION('',(0.,0.,-1.));
#1393=DIRECTION('',(1.,0.,0.));
#1394=DIRECTION('',(0.,0.,-1.));
#1395=DIRECTION('',(-1.,0.,0.));
#1396=DIRECTION('',(0.,0.,-1.));
#1397=DIRECTION('',(-1.,0.,0.));
#1398=DIRECTION('',(0.,0.,1.));
#1399=DIRECTION('',(1.,0.,0.));
#1400=DIRECTION('',(0.,0.,-1.));
#1401=DIRECTION('',(0.,0.,1.));
#1402=DIRECTION('',(1.,0.,0.));
#1403=DIRECTION('',(0.,0.,-1.));
#1404=DIRECTION('',(0.,0.,-1.));
#1405=DIRECTION('',(-1.,0.,0.));
#1406=DIRECTION('',(-0.612372435695789,0.612372435695789,0.500000000000014));
#1407=DIRECTION('',(0.353553390593284,-0.353553390593284,0.866025403784431));
#1408=DIRECTION('',(9.71242825364666E-15,-9.71242825364665E-15,1.));
#1409=DIRECTION('',(1.,0.,-9.71242825364666E-15));
#1410=DIRECTION('',(0.612372435695797,-0.612372435695797,0.5));
#1411=DIRECTION('',(-0.35355339059327,0.35355339059327,0.866025403784442));
#1412=DIRECTION('',(0.612372435695791,-0.61237243569579,-0.500000000000011));
#1413=DIRECTION('',(0.353553390593282,-0.353553390593281,0.866025403784432));
#1414=DIRECTION('',(-9.71242825364666E-15,9.71242825364665E-15,-1.));
#1415=DIRECTION('',(-1.,0.,9.71242825364666E-15));
#1416=DIRECTION('',(-0.612372435695798,0.612372435695798,-0.499999999999992));
#1417=DIRECTION('',(-0.353553390593269,0.353553390593268,0.866025403784444));
#1418=DIRECTION('',(0.,1.,0.));
#1419=DIRECTION('',(0.,0.,1.));
#1420=DIRECTION('',(1.,0.,0.));
#1421=DIRECTION('',(0.,0.,-1.));
#1422=DIRECTION('',(1.,0.,0.));
#1423=DIRECTION('',(0.,0.,-1.));
#1424=DIRECTION('',(0.,-1.,0.));
#1425=DIRECTION('',(0.,0.,-1.));
#1426=DIRECTION('',(0.,0.,-1.));
#1427=DIRECTION('',(-1.,0.,0.));
#1428=DIRECTION('',(0.,0.,-1.));
#1429=DIRECTION('',(0.,0.,1.));
#1430=DIRECTION('',(-0.866025403784439,0.,0.5));
#1431=DIRECTION('',(-1.,0.,0.));
#1432=DIRECTION('',(-1.,0.,0.));
#1433=DIRECTION('',(-1.,0.,0.));
#1434=DIRECTION('',(0.,0.,1.));
#1435=DIRECTION('',(0.,1.,0.));
#1436=DIRECTION('',(1.,0.,0.));
#1437=DIRECTION('',(0.,0.,-1.));
#1438=DIRECTION('',(0.,0.,-1.));
#1439=DIRECTION('',(0.,1.,0.));
#1440=DIRECTION('',(0.,0.,-1.));
#1441=DIRECTION('',(0.,1.,0.));
#1442=DIRECTION('',(0.,0.,-1.));
#1443=DIRECTION('',(0.,-1.,0.));
#1444=DIRECTION('',(-1.,-9.09124651674711E-17,0.));
#1445=DIRECTION('',(9.09124651674711E-17,-1.,0.));
#1446=DIRECTION('',(0.,-1.,0.));
#1447=DIRECTION('',(0.,0.,-1.));
#1448=DIRECTION('',(-9.09124651674711E-17,1.,0.));
#1449=DIRECTION('',(0.,0.,1.));
#1450=DIRECTION('',(-9.09124651674711E-17,1.,0.));
#1451=DIRECTION('',(-1.,-1.85998161270758E-16,0.));
#1452=DIRECTION('',(1.85998161270758E-16,-1.,0.));
#1453=DIRECTION('',(0.,0.,1.));
#1454=DIRECTION('',(-1.85998161270758E-16,1.,0.));
#1455=DIRECTION('',(0.,0.,1.));
#1456=DIRECTION('',(-1.85998161270758E-16,1.,0.));
#1457=DIRECTION('',(1.,1.81824930334942E-16,0.));
#1458=DIRECTION('',(-1.81824930334942E-16,1.,0.));
#1459=DIRECTION('',(0.,0.,-1.));
#1460=DIRECTION('',(1.81824930334942E-16,-1.,0.));
#1461=DIRECTION('',(0.,0.,-1.));
#1462=DIRECTION('',(1.81824930334942E-16,-1.,0.));
#1463=DIRECTION('',(-1.,-1.85998161270758E-16,0.));
#1464=DIRECTION('',(1.85998161270758E-16,-1.,0.));
#1465=DIRECTION('',(1.85998161270758E-16,-1.,0.));
#1466=DIRECTION('',(0.,0.,1.));
#1467=DIRECTION('',(1.85998161270758E-16,-1.,0.));
#1468=DIRECTION('',(0.,0.,1.));
#1469=DIRECTION('',(-0.707106781186548,0.,-0.707106781186548));
#1470=DIRECTION('',(0.,-1.,0.));
#1471=DIRECTION('',(0.,1.,0.));
#1472=DIRECTION('',(-0.707106781186548,0.,0.707106781186548));
#1473=DIRECTION('',(0.,-1.,0.));
#1474=DIRECTION('',(0.707106781186548,0.,-0.707106781186548));
#1475=DIRECTION('',(0.,0.,-1.));
#1476=DIRECTION('',(-1.,0.,0.));
#1477=DIRECTION('',(0.,0.,1.));
#1478=DIRECTION('',(1.,0.,0.));
#1479=DIRECTION('',(0.,0.707106781186548,-0.707106781186548));
#1480=DIRECTION('',(0.,0.,1.));
#1481=DIRECTION('',(1.,0.,0.));
#1482=DIRECTION('',(0.,-0.707106781186548,-0.707106781186548));
#1483=DIRECTION('',(1.,0.,0.));
#1484=DIRECTION('',(0.,-0.707106781186548,0.707106781186548));
#1485=DIRECTION('',(-1.,0.,0.));
#1486=DIRECTION('',(1.,0.,0.));
#1487=DIRECTION('',(0.,0.,1.));
#1488=DIRECTION('',(1.,0.,0.));
#1489=DIRECTION('',(1.,0.,0.));
#1490=DIRECTION('',(0.,1.,0.));
#1491=DIRECTION('',(-1.,0.,0.));
#1492=DIRECTION('',(0.,1.,0.));
#1493=DIRECTION('',(0.,0.,1.));
#1494=DIRECTION('',(0.,0.,-1.));
#1495=DIRECTION('',(-1.,0.,0.));
#1496=DIRECTION('',(0.,0.,1.));
#1497=DIRECTION('',(1.,0.,0.));
#1498=DIRECTION('',(1.,0.,0.));
#1499=DIRECTION('',(0.,1.,0.));
#1500=DIRECTION('',(-1.,0.,0.));
#1501=DIRECTION('',(0.,-1.,0.));
#1502=DIRECTION('',(0.,0.,-1.));
#1503=DIRECTION('',(0.,0.,1.));
#1504=DIRECTION('',(-1.,0.,0.));
#1505=DIRECTION('',(0.,0.,1.));
#1506=DIRECTION('',(1.,0.,0.));
#1507=DIRECTION('',(0.,1.,0.));
#1508=DIRECTION('',(1.,0.,0.));
#1509=DIRECTION('',(1.85998161270758E-16,-1.,0.));
#1510=DIRECTION('',(1.,0.,0.));
#1511=DIRECTION('',(0.,1.,0.));
#1512=DIRECTION('',(0.,0.,1.));
#1513=DIRECTION('',(-1.,0.,0.));
#1514=DIRECTION('',(0.,0.,-1.));
#1515=DIRECTION('',(1.,0.,0.));
#1516=DIRECTION('',(0.,0.,1.));
#1517=DIRECTION('',(1.,0.,0.));
#1518=DIRECTION('',(1.,0.,0.));
#1519=DIRECTION('',(0.,1.,0.));
#1520=DIRECTION('',(-1.,0.,0.));
#1521=DIRECTION('',(0.,-1.,0.));
#1522=DIRECTION('',(0.,-1.,0.));
#1523=DIRECTION('',(1.,0.,0.));
#1524=DIRECTION('',(0.906307787036646,0.,0.422618261740708));
#1525=DIRECTION('',(0.,-1.,0.));
#1526=DIRECTION('',(0.,0.,-1.));
#1527=DIRECTION('',(1.,0.,0.));
#1528=DIRECTION('',(0.,0.,1.));
#1529=DIRECTION('',(1.,0.,0.));
#1530=DIRECTION('',(0.,0.,1.));
#1531=DIRECTION('',(1.,0.,0.));
#1532=DIRECTION('',(1.,0.,0.));
#1533=DIRECTION('',(0.,-1.,0.));
#1534=DIRECTION('',(0.,0.,-1.));
#1535=DIRECTION('',(0.,1.,0.));
#1536=DIRECTION('',(0.,0.,1.));
#1537=DIRECTION('',(0.,1.,0.));
#1538=DIRECTION('',(0.,0.,1.));
#1539=DIRECTION('',(0.,0.,1.));
#1540=DIRECTION('',(1.,0.,0.));
#1541=DIRECTION('',(0.,1.,0.));
#1542=DIRECTION('',(1.,0.,0.));
#1543=DIRECTION('',(-9.09124651674711E-17,1.,0.));
#1544=DIRECTION('',(0.,0.,1.));
#1545=DIRECTION('',(1.,0.,0.));
#1546=DIRECTION('',(1.,0.,0.));
#1547=DIRECTION('',(0.,1.,0.));
#1548=DIRECTION('',(0.,0.,1.));
#1549=DIRECTION('',(0.,-1.,1.09273919746571E-15));
#1550=DIRECTION('',(0.,-1.09273919746571E-15,-1.));
#1551=DIRECTION('',(0.,-1.,0.));
#1552=DIRECTION('',(0.,1.,0.));
#1553=DIRECTION('',(0.,0.,1.));
#1554=DIRECTION('',(0.,1.,0.));
#1555=DIRECTION('',(0.,0.,1.));
#1556=DIRECTION('',(1.,0.,0.));
#1557=DIRECTION('',(1.,0.,0.));
#1558=DIRECTION('',(-9.09124651674711E-17,1.,0.));
#1559=DIRECTION('',(1.,0.,0.));
#1560=DIRECTION('',(0.,0.,1.));
#1561=DIRECTION('',(1.,0.,0.));
#1562=DIRECTION('',(0.,0.,1.));
#1563=DIRECTION('',(1.,0.,0.));
#1564=DIRECTION('',(-1.,0.,0.));
#1565=DIRECTION('',(0.,0.,1.));
#1566=DIRECTION('',(0.,1.,0.));
#1567=DIRECTION('',(0.,0.,1.));
#1568=DIRECTION('',(-1.,0.,0.));
#1569=DIRECTION('',(0.,0.,1.));
#1570=DIRECTION('',(0.,0.,1.));
#1571=DIRECTION('',(1.,0.,0.));
#1572=DIRECTION('',(0.,1.,0.));
#1573=DIRECTION('',(1.,-6.12323399573677E-17,0.));
#1574=DIRECTION('',(-6.12323399573677E-17,-1.,0.));
#1575=DIRECTION('',(0.,1.,0.));
#1576=DIRECTION('',(1.,0.,0.));
#1577=DIRECTION('',(-1.,0.,0.));
#1578=DIRECTION('',(0.,0.,1.));
#1579=DIRECTION('',(-0.5,0.,-0.866025403784439));
#1580=DIRECTION('',(-0.866025403784439,0.,0.5));
#1581=DIRECTION('',(1.,0.,0.));
#1582=DIRECTION('',(0.,0.,-1.));
#1583=DIRECTION('',(-1.,0.,0.));
#1584=DIRECTION('',(1.,0.,0.));
#1585=DIRECTION('',(0.,1.,0.));
#1586=DIRECTION('',(0.,0.906307787036647,0.422618261740705));
#1587=DIRECTION('',(0.,-1.,0.));
#1588=DIRECTION('',(0.,0.,-1.));
#1589=DIRECTION('',(1.,0.,0.));
#1590=DIRECTION('',(0.,0.,-1.));
#1591=DIRECTION('',(0.,0.,1.));
#1592=DIRECTION('',(1.,0.,0.));
#1593=DIRECTION('',(1.,0.,0.));
#1594=DIRECTION('',(0.,1.,0.));
#1595=DIRECTION('',(1.,0.,0.));
#1596=DIRECTION('',(0.,0.,-1.));
#1597=DIRECTION('',(-1.,0.,0.));
#1598=DIRECTION('',(0.,0.,1.));
#1599=DIRECTION('',(-1.,0.,0.));
#1600=DIRECTION('',(0.,1.,0.));
#1601=DIRECTION('',(0.,0.,1.));
#1602=DIRECTION('',(0.,0.,-1.));
#1603=DIRECTION('',(1.,0.,0.));
#1604=DIRECTION('',(0.,0.,-1.));
#1605=DIRECTION('',(0.,1.,0.));
#1606=DIRECTION('',(0.,0.,1.));
#1607=DIRECTION('',(1.,0.,0.));
#1608=DIRECTION('',(0.,1.,0.));
#1609=DIRECTION('',(0.,0.,1.));
#1610=DIRECTION('',(1.,0.,0.));
#1611=DIRECTION('',(0.,0.,-1.));
#1612=DIRECTION('',(0.,0.,-1.));
#1613=DIRECTION('',(0.,1.,0.));
#1614=DIRECTION('',(0.,0.,1.));
#1615=DIRECTION('',(0.,0.,-1.));
#1616=DIRECTION('',(1.,0.,0.));
#1617=DIRECTION('',(-1.,0.,0.));
#1618=DIRECTION('',(0.,0.,1.));
#1619=DIRECTION('',(0.,1.,0.));
#1620=DIRECTION('',(-1.,0.,0.));
#1621=DIRECTION('',(0.,0.,1.));
#1622=DIRECTION('',(0.,1.,0.));
#1623=DIRECTION('',(0.,0.,-1.));
#1624=DIRECTION('',(-1.,0.,0.));
#1625=DIRECTION('',(0.,0.,-1.));
#1626=DIRECTION('',(-1.,0.,0.));
#1627=DIRECTION('',(1.,0.,0.));
#1628=DIRECTION('',(0.,0.,-1.));
#1629=DIRECTION('',(0.,-1.,0.));
#1630=DIRECTION('',(-1.,-9.09124651674711E-17,0.));
#1631=DIRECTION('',(9.09124651674711E-17,-1.,0.));
#1632=DIRECTION('',(-9.09124651674711E-17,1.,0.));
#1633=DIRECTION('',(0.,0.,-1.));
#1634=DIRECTION('',(0.,1.,0.));
#1635=DIRECTION('',(0.,0.,-1.));
#1636=DIRECTION('',(0.,1.,0.));
#1637=DIRECTION('',(0.,0.,-1.));
#1638=DIRECTION('',(0.,0.,1.));
#1639=DIRECTION('',(1.,0.,0.));
#1640=DIRECTION('',(0.,0.,1.));
#1641=DIRECTION('',(1.,0.,0.));
#1642=DIRECTION('',(0.,0.,-1.));
#1643=DIRECTION('',(-1.,0.,0.));
#1644=DIRECTION('',(0.,0.,-1.));
#1645=DIRECTION('',(-1.,0.,0.));
#1646=DIRECTION('',(0.,0.,-1.));
#1647=DIRECTION('',(1.,0.,0.));
#1648=DIRECTION('',(-0.612372435695789,0.612372435695789,0.500000000000014));
#1649=DIRECTION('',(-0.707106781186547,-0.707106781186548,0.));
#1650=DIRECTION('',(-0.707106781186547,-0.707106781186548,0.));
#1651=DIRECTION('',(-0.353553390593284,0.353553390593284,-0.866025403784431));
#1652=DIRECTION('',(-0.707106781186547,-0.707106781186548,0.));
#1653=DIRECTION('',(9.71242825364666E-15,-9.71242825364665E-15,1.));
#1654=DIRECTION('',(1.,-6.12323399573677E-17,-9.71242825364666E-15));
#1655=DIRECTION('',(-0.707106781186548,0.707106781186547,1.37354477598827E-14));
#1656=DIRECTION('',(-0.707106781186547,-0.707106781186548,0.));
#1657=DIRECTION('',(0.612372435695797,-0.612372435695797,0.5));
#1658=DIRECTION('',(0.707106781186547,0.707106781186548,0.));
#1659=DIRECTION('',(-0.35355339059327,0.35355339059327,0.866025403784442));
#1660=DIRECTION('',(-0.707106781186547,-0.707106781186548,0.));
#1661=DIRECTION('',(0.612372435695791,-0.61237243569579,-0.500000000000011));
#1662=DIRECTION('',(0.707106781186547,0.707106781186548,0.));
#1663=DIRECTION('',(0.353553390593282,-0.353553390593281,0.866025403784433));
#1664=DIRECTION('',(-0.707106781186547,-0.707106781186548,0.));
#1665=DIRECTION('',(-9.71242825364666E-15,9.71242825364665E-15,-1.));
#1666=DIRECTION('',(-1.,6.12323399573677E-17,9.71242825364666E-15));
#1667=DIRECTION('',(0.707106781186548,-0.707106781186547,-1.37354477598827E-14));
#1668=DIRECTION('',(-0.707106781186547,-0.707106781186548,0.));
#1669=DIRECTION('',(-0.612372435695798,0.612372435695798,-0.499999999999992));
#1670=DIRECTION('',(-0.707106781186547,-0.707106781186548,0.));
#1671=DIRECTION('',(0.353553390593269,-0.353553390593268,-0.866025403784443));
#1672=DIRECTION('',(0.707106781186547,0.707106781186548,0.));
#1673=DIRECTION('',(-0.707106781186548,0.707106781186547,0.));
#1674=DIRECTION('',(0.707106781186547,0.707106781186548,0.));
#1675=DIRECTION('',(-0.707106781186548,0.707106781186547,0.));
#1676=DIRECTION('',(0.707106781186547,0.707106781186548,0.));
#1677=DIRECTION('',(-0.707106781186548,0.707106781186547,0.));
#1678=DIRECTION('',(0.,-1.,0.));
#1679=DIRECTION('',(1.,0.,0.));
#1680=DIRECTION('',(0.,0.,1.));
#1681=DIRECTION('',(1.,0.,0.));
#1682=DIRECTION('',(1.,0.,0.));
#1683=DIRECTION('',(0.,0.,1.));
#1684=DIRECTION('',(0.,-0.866025403784439,-0.5));
#1685=DIRECTION('',(0.,0.,1.));
#1686=DIRECTION('',(0.,0.,-1.));
#1687=DIRECTION('',(1.,0.,0.));
#1688=DIRECTION('',(1.,0.,0.));
#1689=DIRECTION('',(0.,1.,0.));
#1690=DIRECTION('',(1.,0.,0.));
#1691=DIRECTION('',(0.,0.,1.));
#1692=DIRECTION('',(0.,0.,1.));
#1693=DIRECTION('',(0.,0.866025403784439,0.5));
#1694=DIRECTION('',(0.,-1.,0.));
#1695=DIRECTION('',(1.,0.,0.));
#1696=DIRECTION('',(1.,0.,0.));
#1697=DIRECTION('',(-6.12323399573677E-17,-1.,0.));
#1698=DIRECTION('',(0.,0.,-1.));
#1699=DIRECTION('',(0.866025403784439,-5.30287619362454E-17,-0.5));
#1700=DIRECTION('',(0.,0.,-1.));
#1701=DIRECTION('',(-1.,6.12323399573677E-17,0.));
#1702=DIRECTION('',(-6.12323399573677E-17,-1.,0.));
#1703=DIRECTION('',(6.12323399573677E-17,1.,0.));
#1704=DIRECTION('',(0.,0.5,-0.866025403784439));
#1705=DIRECTION('',(1.,0.,0.));
#1706=DIRECTION('',(-0.5,0.,-0.866025403784439));
#1707=DIRECTION('',(0.,-1.,0.));
#1708=DIRECTION('',(0.422618261740708,7.86062196032158E-17,-0.906307787036646));
#1709=DIRECTION('',(1.85998161270758E-16,-1.,0.));
#1710=DIRECTION('',(0.671542934237814,0.67154293423782,0.313145613014979));
#1711=DIRECTION('',(0.,-0.422618261740705,0.906307787036647));
#1712=DIRECTION('',(1.,0.,0.));
#1713=CARTESIAN_POINT('',(0.,0.,0.));
#1714=CARTESIAN_POINT('',(0.0001,0.,0.));
#1715=CARTESIAN_POINT('',(0.0001,0.188649999999998,0.31005));
#1716=CARTESIAN_POINT('',(0.0001,0.188649999999998,0.30725));
#1717=CARTESIAN_POINT('',(0.0001,0.188649999999998,0.320734835591592));
#1718=CARTESIAN_POINT('',(0.0001,0.17765,0.310536796564404));
#1719=CARTESIAN_POINT('',(0.0001,0.19265,0.310536796564404));
#1720=CARTESIAN_POINT('',(0.0001,0.19265,0.0083));
#1721=CARTESIAN_POINT('',(0.0001,0.19265,0.30725));
#1722=CARTESIAN_POINT('',(0.0001,-2.77555756156289E-17,0.30725));
#1723=CARTESIAN_POINT('',(-2.77555756156289E-17,0.0179999999999986,0.31005));
#1724=CARTESIAN_POINT('',(0.01,-4.16333634234433E-17,0.31005));
#1725=CARTESIAN_POINT('',(0.01,0.184974999999998,0.31005));
#1726=CARTESIAN_POINT('',(0.01,0.188649999999996,0.31005));
#1727=CARTESIAN_POINT('',(0.,0.188649999999998,0.31005));
#1728=CARTESIAN_POINT('',(0.15265,0.188649999999998,0.31005));
#1729=CARTESIAN_POINT('',(0.15265,0.186812499999996,0.31005));
#1730=CARTESIAN_POINT('',(0.15265,0.184974999999998,0.31005));
#1731=CARTESIAN_POINT('',(5.55111512312578E-17,0.184974999999998,0.31005));
#1732=CARTESIAN_POINT('',(5.55111512312578E-17,0.184974999999998,0.31005));
#1733=CARTESIAN_POINT('',(0.01,0.184974999999996,0.005));
#1734=CARTESIAN_POINT('',(0.01,0.184974999999996,0.30725));
#1735=CARTESIAN_POINT('',(0.15265,0.184974999999998,0.31005));
#1736=CARTESIAN_POINT('',(0.15265,0.184974999999998,0.167525));
#1737=CARTESIAN_POINT('',(0.1541125,0.184974999999998,0.167525));
#1738=CARTESIAN_POINT('',(0.155575,0.184974999999997,0.167525));
#1739=CARTESIAN_POINT('',(0.155575,0.184974999999997,0.167525));
#1740=CARTESIAN_POINT('',(0.155575,0.184974999999998,0.157625));
#1741=CARTESIAN_POINT('',(5.55111512312578E-17,0.184974999999998,0.157625));
#1742=CARTESIAN_POINT('',(0.14935,0.184974999999998,0.157625));
#1743=CARTESIAN_POINT('',(0.14935,0.184974999999998,0.31005));
#1744=CARTESIAN_POINT('',(0.14935,0.184974999999998,0.30725));
#1745=CARTESIAN_POINT('',(5.55111512312578E-17,0.184974999999998,0.30725));
#1746=CARTESIAN_POINT('',(0.155575,0.155575,0.0083));
#1747=CARTESIAN_POINT('',(0.155575,0.180975,0.31675));
#1748=CARTESIAN_POINT('',(0.155575,0.180975,0.157625));
#1749=CARTESIAN_POINT('',(0.155575,0.180975,0.29135));
#1750=CARTESIAN_POINT('',(0.155575,0.155575,0.157625));
#1751=CARTESIAN_POINT('',(0.180975,0.155575,0.157625));
#1752=CARTESIAN_POINT('',(0.180975,0.155575,0.0083));
#1753=CARTESIAN_POINT('',(0.180975,0.155575,0.29135));
#1754=CARTESIAN_POINT('',(0.155575,0.155575,0.29135));
#1755=CARTESIAN_POINT('',(0.155575,0.155575,0.155525));
#1756=CARTESIAN_POINT('',(0.17490745338773,0.172049715354483,0.159025));
#1757=CARTESIAN_POINT('',(0.176164442219064,0.17044896615257,0.162525));
#1758=CARTESIAN_POINT('',(0.155575,0.155575,0.159025));
#1759=CARTESIAN_POINT('',(0.172049715354483,0.17490745338773,0.159025));
#1760=CARTESIAN_POINT('',(0.155575,0.155575,0.155525));
#1761=CARTESIAN_POINT('',(0.17044896615257,0.176164442219064,0.162525));
#1762=CARTESIAN_POINT('',(0.155575,0.155575,0.169525));
#1763=CARTESIAN_POINT('',(0.172049715354483,0.17490745338773,0.166025));
#1764=CARTESIAN_POINT('',(0.155575,0.155575,0.166025));
#1765=CARTESIAN_POINT('',(0.17490745338773,0.172049715354483,0.166025));
#1766=CARTESIAN_POINT('',(0.155575,0.155575,0.169525));
#1767=CARTESIAN_POINT('',(0.186812499999996,0.15265,0.31005));
#1768=CARTESIAN_POINT('',(0.186812499999996,0.15265,0.167525));
#1769=CARTESIAN_POINT('',(0.184974999999996,0.15265,0.167525));
#1770=CARTESIAN_POINT('',(0.188649999999996,0.15265,0.167525));
#1771=CARTESIAN_POINT('',(0.188649999999996,0.15265,0.31005));
#1772=CARTESIAN_POINT('',(0.188649999999996,0.15265,0.31005));
#1773=CARTESIAN_POINT('',(0.186812499999996,0.15265,0.31005));
#1774=CARTESIAN_POINT('',(0.184974999999996,0.15265,0.31005));
#1775=CARTESIAN_POINT('',(0.184974999999996,0.15265,0.31005));
#1776=CARTESIAN_POINT('',(0.,0.188649999999998,0.31005));
#1777=CARTESIAN_POINT('',(0.14935,0.188649999999998,0.31005));
#1778=CARTESIAN_POINT('',(0.14935,0.188649999999998,0.30725));
#1779=CARTESIAN_POINT('',(0.14935,0.188649999999998,0.167525));
#1780=CARTESIAN_POINT('',(0.151,0.188649999999998,0.167525));
#1781=CARTESIAN_POINT('',(0.15265,0.188649999999998,0.167525));
#1782=CARTESIAN_POINT('',(0.15265,0.188649999999998,0.31005));
#1783=CARTESIAN_POINT('',(0.01,0.188649999999996,0.31255));
#1784=CARTESIAN_POINT('',(0.01,0.188649999999996,0.31505));
#1785=CARTESIAN_POINT('',(0.01,0.188649999999998,0.31505));
#1786=CARTESIAN_POINT('',(0.000153575922687083,0.188649999999998,0.320734835591592));
#1787=CARTESIAN_POINT('',(0.,0.188649999999998,0.320734835591592));
#1788=CARTESIAN_POINT('',(0.,0.188649999999998,0.30725));
#1789=CARTESIAN_POINT('',(0.15265,0.186812499999996,0.31005));
#1790=CARTESIAN_POINT('',(0.15265,0.186812499999998,0.167525));
#1791=CARTESIAN_POINT('',(0.19265,0.,0.0083));
#1792=CARTESIAN_POINT('',(0.19265,0.14935,0.30725));
#1793=CARTESIAN_POINT('',(0.19265,0.14935,0.30725));
#1794=CARTESIAN_POINT('',(0.19265,0.14935,0.167525));
#1795=CARTESIAN_POINT('',(0.19265,0.1583,0.167525));
#1796=CARTESIAN_POINT('',(0.19265,0.16725,0.167525));
#1797=CARTESIAN_POINT('',(0.19265,0.16725,0.0083));
#1798=CARTESIAN_POINT('',(0.19265,0.16725,0.310536796564404));
#1799=CARTESIAN_POINT('',(0.19265,0.,0.310536796564404));
#1800=CARTESIAN_POINT('',(0.19265,0.,0.310536796564404));
#1801=CARTESIAN_POINT('',(0.19265,0.,0.0083));
#1802=CARTESIAN_POINT('',(0.19265,0.,0.30725));
#1803=CARTESIAN_POINT('',(0.19265,0.,0.30725));
#1804=CARTESIAN_POINT('',(0.188649999999996,-2.77555756156289E-16,0.31005));
#1805=CARTESIAN_POINT('',(0.188649999999996,0.151,0.167525));
#1806=CARTESIAN_POINT('',(0.188649999999996,0.14935,0.167525));
#1807=CARTESIAN_POINT('',(0.188649999999996,0.14935,0.31005));
#1808=CARTESIAN_POINT('',(0.188649999999996,0.14935,0.30725));
#1809=CARTESIAN_POINT('',(0.188649999999996,-2.77555756156289E-16,0.30725));
#1810=CARTESIAN_POINT('',(0.188649999999996,0.,0.30725));
#1811=CARTESIAN_POINT('',(0.188649999999996,0.,0.31005));
#1812=CARTESIAN_POINT('',(0.188649999999996,0.,0.31005));
#1813=CARTESIAN_POINT('',(0.188649999999996,-2.77555756156289E-16,0.31005));
#1814=CARTESIAN_POINT('',(0.149225,0.,0.316748));
#1815=CARTESIAN_POINT('',(0.149225,0.,0.316748));
#1816=CARTESIAN_POINT('',(0.149225,0.,0.31675));
#1817=CARTESIAN_POINT('',(0.149225,0.,0.318211184728088));
#1818=CARTESIAN_POINT('',(0.149225,0.,0.318211184728088));
#1819=CARTESIAN_POINT('',(0.149225,0.149225,0.318211184728088));
#1820=CARTESIAN_POINT('',(0.149225,0.149225,0.316748));
#1821=CARTESIAN_POINT('',(0.149225,0.149225,0.31675));
#1822=CARTESIAN_POINT('',(0.149225,0.,0.31675));
#1823=CARTESIAN_POINT('',(0.15265,0.,0.323425));
#1824=CARTESIAN_POINT('',(0.15265,0.,0.323425));
#1825=CARTESIAN_POINT('',(0.15265,0.,0.323425));
#1826=CARTESIAN_POINT('',(0.15265,0.,0.31975));
#1827=CARTESIAN_POINT('',(0.15265,0.,0.323425));
#1828=CARTESIAN_POINT('',(0.15265,0.15265,0.323425));
#1829=CARTESIAN_POINT('',(0.15265,0.15265,0.323425));
#1830=CARTESIAN_POINT('',(0.15265,0.15265,0.31975));
#1831=CARTESIAN_POINT('',(0.15265,0.,0.31975));
#1832=CARTESIAN_POINT('',(0.149225,0.,0.316748));
#1833=CARTESIAN_POINT('',(0.149225,2.77555756156289E-17,0.323425));
#1834=CARTESIAN_POINT('',(0.149225,0.149225,0.323425));
#1835=CARTESIAN_POINT('',(0.149225,0.,0.323425));
#1836=CARTESIAN_POINT('',(0.149225,0.,0.316748));
#1837=CARTESIAN_POINT('',(0.149225,0.,0.32675));
#1838=CARTESIAN_POINT('',(0.149225,0.,0.32675));
#1839=CARTESIAN_POINT('',(0.149225,0.149225,0.32675));
#1840=CARTESIAN_POINT('',(0.149225,0.149225,0.316748));
#1841=CARTESIAN_POINT('',(0.19265,0.,0.31675));
#1842=CARTESIAN_POINT('',(0.18265,0.,0.32675));
#1843=CARTESIAN_POINT('',(0.18265,0.,0.32675));
#1844=CARTESIAN_POINT('',(0.18265,0.16725,0.32675));
#1845=CARTESIAN_POINT('',(0.19265,0.,0.31675));
#1846=CARTESIAN_POINT('',(0.188256601717798,0.,0.321143398282202));
#1847=CARTESIAN_POINT('',(0.188256601717798,0.,0.321143398282202));
#1848=CARTESIAN_POINT('',(0.188256601717798,0.16725,0.321143398282202));
#1849=CARTESIAN_POINT('',(0.18265,0.16725,0.32675));
#1850=CARTESIAN_POINT('',(0.16725,0.16725,0.32675));
#1851=CARTESIAN_POINT('',(0.16725,0.16725,0.321143398282202));
#1852=CARTESIAN_POINT('',(0.16725,0.188256601717799,0.321143398282202));
#1853=CARTESIAN_POINT('',(0.16725,0.18265,0.32675));
#1854=CARTESIAN_POINT('',(0.16725,0.18265,0.32675));
#1855=CARTESIAN_POINT('',(0.16725,0.16725,0.32675));
#1856=CARTESIAN_POINT('',(0.,0.19265,0.31675));
#1857=CARTESIAN_POINT('',(0.0001,0.19265,0.31675));
#1858=CARTESIAN_POINT('',(0.0001,0.18265,0.32675));
#1859=CARTESIAN_POINT('',(0.0001,0.188256601717799,0.321143398282202));
#1860=CARTESIAN_POINT('',(0.,0.18265,0.32675));
#1861=CARTESIAN_POINT('',(0.,0.188256601717799,0.321143398282202));
#1862=CARTESIAN_POINT('',(0.,0.,0.32675));
#1863=CARTESIAN_POINT('',(0.,0.,0.32675));
#1864=CARTESIAN_POINT('',(0.0001,0.,0.32675));
#1865=CARTESIAN_POINT('',(0.0001,0.149225,0.32675));
#1866=CARTESIAN_POINT('',(-2.77555756156289E-17,0.149225,0.32675));
#1867=CARTESIAN_POINT('',(-2.77555756156289E-17,0.149225,0.316748));
#1868=CARTESIAN_POINT('',(0.0001,0.149225,0.316748));
#1869=CARTESIAN_POINT('',(0.0001,0.149225,0.323425));
#1870=CARTESIAN_POINT('',(0.,0.149225,0.323425));
#1871=CARTESIAN_POINT('',(0.,0.,0.323425));
#1872=CARTESIAN_POINT('',(0.,0.,0.323425));
#1873=CARTESIAN_POINT('',(0.0001,0.,0.323425));
#1874=CARTESIAN_POINT('',(0.0001,0.15265,0.323425));
#1875=CARTESIAN_POINT('',(-2.77555756156289E-17,0.15265,0.323425));
#1876=CARTESIAN_POINT('',(-2.77555756156289E-17,0.15265,0.323425));
#1877=CARTESIAN_POINT('',(0.0001,0.15265,0.323425));
#1878=CARTESIAN_POINT('',(0.0001,0.15265,0.31975));
#1879=CARTESIAN_POINT('',(-2.77555756156289E-17,0.15265,0.31975));
#1880=CARTESIAN_POINT('',(0.,0.,0.31975));
#1881=CARTESIAN_POINT('',(0.0001,0.,0.31975));
#1882=CARTESIAN_POINT('',(9.9999999999989E-5,0.152525,0.31975));
#1883=CARTESIAN_POINT('',(0.149225,0.152525,0.31975));
#1884=CARTESIAN_POINT('',(0.152525,0.152525,0.31975));
#1885=CARTESIAN_POINT('',(0.152525,2.83693695478224E-17,0.31975));
#1886=CARTESIAN_POINT('',(0.152525,0.,0.31975));
#1887=CARTESIAN_POINT('',(0.,0.,0.31975));
#1888=CARTESIAN_POINT('',(-2.77555756156289E-17,0.149225,0.316748));
#1889=CARTESIAN_POINT('',(0.,0.149225,0.318211184728088));
#1890=CARTESIAN_POINT('',(0.0001,0.149225,0.318211184728088));
#1891=CARTESIAN_POINT('',(0.0001,0.149225,0.316748));
#1892=CARTESIAN_POINT('',(0.0001,0.149225,0.31675));
#1893=CARTESIAN_POINT('',(-2.77555756156289E-17,0.149225,0.31675));
#1894=CARTESIAN_POINT('',(0.,0.,0.31675));
#1895=CARTESIAN_POINT('',(0.,0.,0.31675));
#1896=CARTESIAN_POINT('',(0.155575,0.,0.31675));
#1897=CARTESIAN_POINT('',(0.0001,0.,0.31675));
#1898=CARTESIAN_POINT('',(9.9999999999989E-5,0.155575,0.31675));
#1899=CARTESIAN_POINT('',(0.180975,0.155575,0.31675));
#1900=CARTESIAN_POINT('',(0.155575,0.155575,0.31675));
#1901=CARTESIAN_POINT('',(0.155575,-0.180975,0.31675));
#1902=CARTESIAN_POINT('',(0.,0.,0.));
#1903=CARTESIAN_POINT('',(-0.0952294454273672,0.,0.204220204755271));
#1904=CARTESIAN_POINT('',(0.155575,0.,0.29135));
#1905=CARTESIAN_POINT('',(0.175382826735914,0.,0.30725));
#1906=CARTESIAN_POINT('',(-2.77555756156289E-17,0.,0.30725));
#1907=CARTESIAN_POINT('',(0.181075,0.,0.30725));
#1908=CARTESIAN_POINT('',(0.181075,0.,0.30675));
#1909=CARTESIAN_POINT('',(0.181075,0.,0.320765767664977));
#1910=CARTESIAN_POINT('',(0.,0.,0.320765767664977));
#1911=CARTESIAN_POINT('',(0.188549999999996,0.,0.320765767664977));
#1912=CARTESIAN_POINT('',(0.188549999999996,0.,0.31255));
#1913=CARTESIAN_POINT('',(0.188549999999996,0.,0.31005));
#1914=CARTESIAN_POINT('',(-2.77555756156289E-17,0.,0.31005));
#1915=CARTESIAN_POINT('',(-2.77555756156289E-17,0.,0.30725));
#1916=CARTESIAN_POINT('',(0.17765,0.,0.310536796564404));
#1917=CARTESIAN_POINT('',(0.17765,0.,0.310536796564404));
#1918=CARTESIAN_POINT('',(0.17765,0.16725,0.310536796564404));
#1919=CARTESIAN_POINT('',(-2.77555756156289E-17,0.0179999999999986,0.31005));
#1920=CARTESIAN_POINT('',(0.188549999999996,-0.01,0.31005));
#1921=CARTESIAN_POINT('',(0.188549999999996,-0.0099,0.31005));
#1922=CARTESIAN_POINT('',(-2.77555756156289E-17,-0.0099,0.31005));
#1923=CARTESIAN_POINT('',(0.184974999999996,-0.0099,0.31005));
#1924=CARTESIAN_POINT('',(0.184974999999996,-2.77555756156289E-16,0.31005));
#1925=CARTESIAN_POINT('',(-2.77555756156289E-17,-2.77555756156289E-17,0.30725));
#1926=CARTESIAN_POINT('',(0.1868125,0.14935,0.30725));
#1927=CARTESIAN_POINT('',(0.155575,0.,0.29135));
#1928=CARTESIAN_POINT('',(0.155575,0.155575,0.29135));
#1929=CARTESIAN_POINT('',(0.180975,0.180975,0.29135));
#1930=CARTESIAN_POINT('',(0.180975,0.14935,0.29135));
#1931=CARTESIAN_POINT('',(0.155575,0.14935,0.29135));
#1932=CARTESIAN_POINT('',(0.175382826735914,0.14935,0.30725));
#1933=CARTESIAN_POINT('',(0.175382826735914,-0.14935,0.30725));
#1934=CARTESIAN_POINT('',(-2.77555756156289E-17,-2.77555756156289E-17,0.30725));
#1935=CARTESIAN_POINT('',(0.1868125,0.14935,0.30725));
#1936=CARTESIAN_POINT('',(0.184974999999996,0.14935,0.30725));
#1937=CARTESIAN_POINT('',(0.184974999999996,-2.77555756156289E-16,0.30725));
#1938=CARTESIAN_POINT('',(0.184974999999996,0.,0.30725));
#1939=CARTESIAN_POINT('',(-2.77555756156289E-17,0.,0.30725));
#1940=CARTESIAN_POINT('',(0.16725,0.16725,0.310536796564404));
#1941=CARTESIAN_POINT('',(0.16725,0.16725,0.310536796564404));
#1942=CARTESIAN_POINT('',(0.16725,0.19265,0.310536796564404));
#1943=CARTESIAN_POINT('',(0.16725,0.17765,0.310536796564404));
#1944=CARTESIAN_POINT('',(0.155575,0.155575,0.29135));
#1945=CARTESIAN_POINT('',(0.155575,0.155575,0.29135));
#1946=CARTESIAN_POINT('',(-2.77555756156289E-17,-2.77555756156289E-17,0.30725));
#1947=CARTESIAN_POINT('',(0.0001,-2.77555756156289E-17,0.30725));
#1948=CARTESIAN_POINT('',(9.9999999999989E-5,0.175382826735914,0.30725));
#1949=CARTESIAN_POINT('',(0.0001,0.180975,0.30725));
#1950=CARTESIAN_POINT('',(-1.38777878078145E-17,0.180975,0.30725));
#1951=CARTESIAN_POINT('',(0.01,0.180975,0.30725));
#1952=CARTESIAN_POINT('',(0.01,-2.77555756156289E-17,0.30725));
#1953=CARTESIAN_POINT('',(0.14935,0.1868125,0.30725));
#1954=CARTESIAN_POINT('',(0.14935,0.175382826735914,0.30725));
#1955=CARTESIAN_POINT('',(0.14935,0.175382826735914,0.30725));
#1956=CARTESIAN_POINT('',(0.,0.17765,0.310536796564404));
#1957=CARTESIAN_POINT('',(0.0178170976553475,0.17765,0.310536796564404));
#1958=CARTESIAN_POINT('',(0.0001,0.188621241963589,0.320765767664977));
#1959=CARTESIAN_POINT('',(0.0001,0.17765,0.310536796564404));
#1960=CARTESIAN_POINT('',(0.,0.19265,0.310536796564404));
#1961=CARTESIAN_POINT('',(0.0001,0.,0.));
#1962=CARTESIAN_POINT('',(0.0001,0.149225,0.318211184728088));
#1963=CARTESIAN_POINT('',(0.0001,1.38777878078145E-17,0.320765767664977));
#1964=CARTESIAN_POINT('',(0.0001,0.180975,0.320765767664977));
#1965=CARTESIAN_POINT('',(0.0001,0.180975,0.));
#1966=CARTESIAN_POINT('',(0.0001,0.155575,0.29135));
#1967=CARTESIAN_POINT('',(-2.77555756156289E-17,-2.77555756156289E-17,0.30725));
#1968=CARTESIAN_POINT('',(0.,0.19265,0.30725));
#1969=CARTESIAN_POINT('',(0.14935,0.19265,0.30725));
#1970=CARTESIAN_POINT('',(0.14935,0.1868125,0.30725));
#1971=CARTESIAN_POINT('',(-5.55111512312578E-17,0.155575,0.29135));
#1972=CARTESIAN_POINT('',(0.14935,0.155575,0.29135));
#1973=CARTESIAN_POINT('',(0.14935,0.180975,0.29135));
#1974=CARTESIAN_POINT('',(-0.180975,0.180975,0.29135));
#1975=CARTESIAN_POINT('',(0.1868125,0.14935,0.30725));
#1976=CARTESIAN_POINT('',(0.180975,0.14935,0.30725));
#1977=CARTESIAN_POINT('',(0.180975,0.14935,0.157625));
#1978=CARTESIAN_POINT('',(0.1868125,0.14935,0.157625));
#1979=CARTESIAN_POINT('',(0.184974999999996,0.14935,0.157625));
#1980=CARTESIAN_POINT('',(0.184974999999996,0.14935,0.31005));
#1981=CARTESIAN_POINT('',(0.1868125,0.14935,0.30725));
#1982=CARTESIAN_POINT('',(0.19065,0.14935,0.167525));
#1983=CARTESIAN_POINT('',(0.,0.19265,0.0083));
#1984=CARTESIAN_POINT('',(0.1583,0.19265,0.167525));
#1985=CARTESIAN_POINT('',(0.14935,0.19265,0.167525));
#1986=CARTESIAN_POINT('',(0.16725,0.19265,0.167525));
#1987=CARTESIAN_POINT('',(0.14935,0.19265,0.30725));
#1988=CARTESIAN_POINT('',(0.16725,0.19265,0.0083));
#1989=CARTESIAN_POINT('',(-5.55111512312578E-17,0.180975,0.0083));
#1990=CARTESIAN_POINT('',(0.14935,0.180975,0.30725));
#1991=CARTESIAN_POINT('',(0.14935,0.180975,0.157625));
#1992=CARTESIAN_POINT('',(-5.55111512312578E-17,0.180975,0.157625));
#1993=CARTESIAN_POINT('',(0.14935,0.1868125,0.30725));
#1994=CARTESIAN_POINT('',(0.14935,0.1868125,0.157625));
#1995=CARTESIAN_POINT('',(0.14935,0.1868125,0.30725));
#1996=CARTESIAN_POINT('',(0.14935,0.19065,0.167525));
#1997=CARTESIAN_POINT('',(0.16725,0.16725,0.0083));
#1998=CARTESIAN_POINT('',(0.16725,0.16725,0.167525));
#1999=CARTESIAN_POINT('',(0.180975,5.55111512312578E-17,0.0083));
#2000=CARTESIAN_POINT('',(0.180975,5.55111512312578E-17,0.157625));
#2001=CARTESIAN_POINT('',(0.184974999999996,-2.77555756156289E-16,0.31005));
#2002=CARTESIAN_POINT('',(0.184974999999996,-2.77555756156289E-16,0.157625));
#2003=CARTESIAN_POINT('',(0.184974999999996,0.155575,0.157625));
#2004=CARTESIAN_POINT('',(0.184974999999996,0.155575,0.167525));
#2005=CARTESIAN_POINT('',(0.184974999999996,0.155575,0.167525));
#2006=CARTESIAN_POINT('',(0.184974999999996,0.1541125,0.167525));
#2007=CARTESIAN_POINT('',(0.184974999999996,-0.0099,0.005));
#2008=CARTESIAN_POINT('',(0.184974999999996,-0.0099,0.30675));
#2009=CARTESIAN_POINT('',(0.184974999999996,-0.01,0.30675));
#2010=CARTESIAN_POINT('',(0.184974999999996,0.,0.30675));
#2011=CARTESIAN_POINT('',(0.184974999999996,0.,0.005));
#2012=CARTESIAN_POINT('',(0.,0.,0.157625));
#2013=CARTESIAN_POINT('',(0.155575,0.155575,0.157625));
#2014=CARTESIAN_POINT('',(0.155575,0.155575,0.167525));
#2015=CARTESIAN_POINT('',(0.175174807315222,0.177500173701165,0.160877559732625));
#2016=CARTESIAN_POINT('',(0.174651572521185,0.177943478255103,0.162525417689618));
#2017=CARTESIAN_POINT('',(0.175174388403301,0.177500489967584,0.164170769508902));
#2018=CARTESIAN_POINT('',(0.176375941891371,0.176378425894439,0.164851900997105));
#2019=CARTESIAN_POINT('',(0.177500678893696,0.175174243809949,0.164171624673156));
#2020=CARTESIAN_POINT('',(0.177942950220472,0.174652163524109,0.162525355977828));
#2021=CARTESIAN_POINT('',(0.177502096375595,0.175172588517856,0.160881495825489));
#2022=CARTESIAN_POINT('',(0.176378882711397,0.176375518756625,0.160197737646507));
#2023=CARTESIAN_POINT('',(0.175174807315222,0.177500173701165,0.160877559732625));
#2024=CARTESIAN_POINT('',(0.174651572521185,0.177943478255103,0.162525417689618));
#2025=CARTESIAN_POINT('',(0.175174388403301,0.177500489967584,0.164170769508902));
#2026=CARTESIAN_POINT('',(0.174825914300544,0.177795762781527,0.162525));
#2027=CARTESIAN_POINT('',(0.155575,0.155575,0.167525));
#2028=CARTESIAN_POINT('',(0.171,-0.0353553390593274,0.167525));
#2029=CARTESIAN_POINT('',(0.177949297162723,0.173662690112853,0.160775));
#2030=CARTESIAN_POINT('',(0.178663731671035,0.172948255604541,0.162525));
#2031=CARTESIAN_POINT('',(0.178663731671035,0.172948255604541,0.162525));
#2032=CARTESIAN_POINT('',(0.177949297162723,0.173662690112853,0.160775));
#2033=CARTESIAN_POINT('',(0.177234862654412,0.174377124621165,0.159025));
#2034=CARTESIAN_POINT('',(0.177234862654412,0.174377124621165,0.159025));
#2035=CARTESIAN_POINT('',(0.175805993637788,0.175805993637788,0.159025));
#2036=CARTESIAN_POINT('',(0.175805993637788,0.175805993637788,0.159025));
#2037=CARTESIAN_POINT('',(0.174377124621165,0.177234862654412,0.159025));
#2038=CARTESIAN_POINT('',(0.174377124621165,0.177234862654412,0.159025));
#2039=CARTESIAN_POINT('',(0.173662690112853,0.177949297162723,0.160775));
#2040=CARTESIAN_POINT('',(0.173662690112853,0.177949297162723,0.160775));
#2041=CARTESIAN_POINT('',(0.172948255604541,0.178663731671035,0.162525));
#2042=CARTESIAN_POINT('',(0.172948255604541,0.178663731671035,0.162525));
#2043=CARTESIAN_POINT('',(0.173662690112853,0.177949297162723,0.164275));
#2044=CARTESIAN_POINT('',(0.173662690112853,0.177949297162723,0.164275));
#2045=CARTESIAN_POINT('',(0.174377124621165,0.177234862654412,0.166025));
#2046=CARTESIAN_POINT('',(0.174377124621165,0.177234862654412,0.166025));
#2047=CARTESIAN_POINT('',(0.175805993637788,0.175805993637788,0.166025));
#2048=CARTESIAN_POINT('',(0.175805993637788,0.175805993637788,0.166025));
#2049=CARTESIAN_POINT('',(0.177234862654412,0.174377124621165,0.166025));
#2050=CARTESIAN_POINT('',(0.177234862654412,0.174377124621165,0.166025));
#2051=CARTESIAN_POINT('',(0.177949297162723,0.173662690112853,0.164275));
#2052=CARTESIAN_POINT('',(0.177949297162723,0.173662690112853,0.164275));
#2053=CARTESIAN_POINT('',(0.16470441717316,0.16470441717316,0.162525));
#2054=CARTESIAN_POINT('',(0.175805993637788,0.175805993637788,0.162525));
#2055=CARTESIAN_POINT('',(0.174321069397297,0.17729091787828,0.162525));
#2056=CARTESIAN_POINT('',(0.175805993637788,0.175805993637788,0.162525));
#2057=CARTESIAN_POINT('',(0.182685,0.,0.3109));
#2058=CARTESIAN_POINT('',(0.181075,0.,0.30675));
#2059=CARTESIAN_POINT('',(0.181075,0.,0.30675));
#2060=CARTESIAN_POINT('',(-2.77555756156289E-17,0.,0.30675));
#2061=CARTESIAN_POINT('',(0.188549999999996,-0.01,0.31255));
#2062=CARTESIAN_POINT('',(0.188549999999996,0.,0.320765767664977));
#2063=CARTESIAN_POINT('',(0.188549999999996,-0.0099,0.31505));
#2064=CARTESIAN_POINT('',(0.188549999999996,-0.0099,0.31255));
#2065=CARTESIAN_POINT('',(-2.77555756156289E-17,-0.01,0.30675));
#2066=CARTESIAN_POINT('',(-2.77555756156289E-17,-0.0099,0.30675));
#2067=CARTESIAN_POINT('',(0.181075,-0.0099,0.30675));
#2068=CARTESIAN_POINT('',(0.181075,-0.01,0.30675));
#2069=CARTESIAN_POINT('',(0.181075,-0.01,0.30675));
#2070=CARTESIAN_POINT('',(0.181075,-0.0099,0.30675));
#2071=CARTESIAN_POINT('',(0.181075,-0.0099,0.31505));
#2072=CARTESIAN_POINT('',(0.181075,-0.0135690054257054,0.312931698729811));
#2073=CARTESIAN_POINT('',(0.182685,-0.0099,0.3109));
#2074=CARTESIAN_POINT('',(2.77555756156289E-17,-0.0099,0.31505));
#2075=CARTESIAN_POINT('',(0.01,0.180975,0.3109));
#2076=CARTESIAN_POINT('',(0.0117970027128527,0.180975,0.3140125));
#2077=CARTESIAN_POINT('',(0.01,0.180975,0.31505));
#2078=CARTESIAN_POINT('',(0.01,0.180975,0.3109));
#2079=CARTESIAN_POINT('',(0.01,0.182685,0.3109));
#2080=CARTESIAN_POINT('',(0.01,1.38777878078145E-17,0.31505));
#2081=CARTESIAN_POINT('',(0.,0.,0.320765767664977));
#2082=CARTESIAN_POINT('',(0.01,1.38777878078145E-17,0.31505));
#2083=CARTESIAN_POINT('',(0.152525,2.83693695478224E-17,0.31975));
#2084=CARTESIAN_POINT('',(0.0819290148034967,0.0819290148034962,0.286830551467873));
#2085=CARTESIAN_POINT('',(-2.77555756156289E-17,0.149225,0.318211184728088));
#2086=MECHANICAL_DESIGN_GEOMETRIC_PRESENTATION_REPRESENTATION('',(#1269),
#2087);
#2087=(
GEOMETRIC_REPRESENTATION_CONTEXT(3)
GLOBAL_UNCERTAINTY_ASSIGNED_CONTEXT((#2088))
GLOBAL_UNIT_ASSIGNED_CONTEXT((#2091,#2090,#2089))
REPRESENTATION_CONTEXT('Top Right Back','TOP_LEVEL_ASSEMBLY_PART')
);
#2088=UNCERTAINTY_MEASURE_WITH_UNIT(LENGTH_MEASURE(2.E-5),#2091,
'DISTANCE_ACCURACY_VALUE','Maximum Tolerance applied to model');
#2089=(
NAMED_UNIT(*)
SI_UNIT($,.STERADIAN.)
SOLID_ANGLE_UNIT()
);
#2090=(
NAMED_UNIT(*)
PLANE_ANGLE_UNIT()
SI_UNIT($,.RADIAN.)
);
#2091=(
LENGTH_UNIT()
NAMED_UNIT(*)
SI_UNIT($,.METRE.)
);
#2092=PRODUCT_DEFINITION_SHAPE('','',#2093);
#2093=PRODUCT_DEFINITION('','',#2095,#2094);
#2094=PRODUCT_DEFINITION_CONTEXT('',#2101,'design');
#2095=PRODUCT_DEFINITION_FORMATION_WITH_SPECIFIED_SOURCE('','',#2097,
 .NOT_KNOWN.);
#2096=PRODUCT_RELATED_PRODUCT_CATEGORY('','',(#2097));
#2097=PRODUCT('Top Right Back','Top Right Back','Top Right Back',(#2099));
#2098=PRODUCT_CATEGORY('','');
#2099=PRODUCT_CONTEXT('',#2101,'mechanical');
#2100=APPLICATION_PROTOCOL_DEFINITION('international standard',
'ap242_managed_model_based_3d_engineering',2020,#2101);
#2101=APPLICATION_CONTEXT('managed model based 3d engineering');
ENDSEC;
END-ISO-10303-21;
