ISO-10303-21;
HEADER;
/* Generated by software containing ST-Developer
 * from STEP Tools, Inc. (www.steptools.com) 
 */
/* OPTION: using custom renumber hook */

FILE_DESCRIPTION(
/* description */ ('STEP AP242 Edition 2',
'CAx-IF Rec.Pracs.---Representation and Presentation of Product Manufa
cturing Information (PMI)---4.0---2014-10-13',
'CAx-IF Rec.Pracs.---3D Tessellated Geometry---0.4---2014-09-14','2;1',
'CAx-IF Rec.Pracs.---User Defined Attributes---1.5---2016-08-15'),
/* implementation_level */ '2;1');

FILE_NAME(
/* name */ 'N-Metheus - Part 1 (3)',
/* time_stamp */ '2026-01-30T20:52:40Z',
/* author */ (''),
/* organization */ (''),
/* preprocessor_version */ 'ST-DEVELOPER v20',
/* originating_system */ 'ONSHAPE BY PTC INC, 1.210',
/* authorisation */ '  ');

FILE_SCHEMA (('AP242_MANAGED_MODEL_BASED_3D_ENGINEERING_MIM_LF { 1 0 10303 442 3 1 4 }'));
ENDSEC;

DATA;
#10=SHAPE_REPRESENTATION_RELATIONSHIP('','',#235,#11);
#11=ADVANCED_BREP_SHAPE_REPRESENTATION('',(#233),#381);
#12=CYLINDRICAL_SURFACE('',#255,0.0021);
#13=CYLINDRICAL_SURFACE('',#256,0.0021);
#14=CYLINDRICAL_SURFACE('',#257,0.0021);
#15=CYLINDRICAL_SURFACE('',#258,0.0021);
#16=CYLINDRICAL_SURFACE('',#259,0.0021);
#17=CYLINDRICAL_SURFACE('',#260,0.0021);
#18=CIRCLE('',#242,0.0021);
#19=CIRCLE('',#243,0.0021);
#20=CIRCLE('',#244,0.0021);
#21=CIRCLE('',#245,0.0021);
#22=CIRCLE('',#246,0.0021);
#23=CIRCLE('',#247,0.0021);
#24=CIRCLE('',#249,0.0021);
#25=CIRCLE('',#250,0.0021);
#26=CIRCLE('',#251,0.0021);
#27=CIRCLE('',#252,0.0021);
#28=CIRCLE('',#253,0.0021);
#29=CIRCLE('',#254,0.0021);
#30=ORIENTED_EDGE('',*,*,#78,.F.);
#31=ORIENTED_EDGE('',*,*,#79,.F.);
#32=ORIENTED_EDGE('',*,*,#80,.T.);
#33=ORIENTED_EDGE('',*,*,#81,.T.);
#34=ORIENTED_EDGE('',*,*,#82,.T.);
#35=ORIENTED_EDGE('',*,*,#83,.F.);
#36=ORIENTED_EDGE('',*,*,#84,.F.);
#37=ORIENTED_EDGE('',*,*,#79,.T.);
#38=ORIENTED_EDGE('',*,*,#85,.T.);
#39=ORIENTED_EDGE('',*,*,#86,.F.);
#40=ORIENTED_EDGE('',*,*,#87,.F.);
#41=ORIENTED_EDGE('',*,*,#83,.T.);
#42=ORIENTED_EDGE('',*,*,#88,.F.);
#43=ORIENTED_EDGE('',*,*,#81,.F.);
#44=ORIENTED_EDGE('',*,*,#89,.T.);
#45=ORIENTED_EDGE('',*,*,#86,.T.);
#46=ORIENTED_EDGE('',*,*,#90,.F.);
#47=ORIENTED_EDGE('',*,*,#91,.F.);
#48=ORIENTED_EDGE('',*,*,#92,.F.);
#49=ORIENTED_EDGE('',*,*,#93,.F.);
#50=ORIENTED_EDGE('',*,*,#94,.F.);
#51=ORIENTED_EDGE('',*,*,#95,.F.);
#52=ORIENTED_EDGE('',*,*,#80,.F.);
#53=ORIENTED_EDGE('',*,*,#84,.T.);
#54=ORIENTED_EDGE('',*,*,#87,.T.);
#55=ORIENTED_EDGE('',*,*,#89,.F.);
#56=ORIENTED_EDGE('',*,*,#96,.F.);
#57=ORIENTED_EDGE('',*,*,#97,.F.);
#58=ORIENTED_EDGE('',*,*,#98,.F.);
#59=ORIENTED_EDGE('',*,*,#99,.F.);
#60=ORIENTED_EDGE('',*,*,#100,.F.);
#61=ORIENTED_EDGE('',*,*,#101,.F.);
#62=ORIENTED_EDGE('',*,*,#78,.T.);
#63=ORIENTED_EDGE('',*,*,#88,.T.);
#64=ORIENTED_EDGE('',*,*,#85,.F.);
#65=ORIENTED_EDGE('',*,*,#82,.F.);
#66=ORIENTED_EDGE('',*,*,#101,.T.);
#67=ORIENTED_EDGE('',*,*,#95,.T.);
#68=ORIENTED_EDGE('',*,*,#100,.T.);
#69=ORIENTED_EDGE('',*,*,#94,.T.);
#70=ORIENTED_EDGE('',*,*,#99,.T.);
#71=ORIENTED_EDGE('',*,*,#93,.T.);
#72=ORIENTED_EDGE('',*,*,#98,.T.);
#73=ORIENTED_EDGE('',*,*,#92,.T.);
#74=ORIENTED_EDGE('',*,*,#97,.T.);
#75=ORIENTED_EDGE('',*,*,#91,.T.);
#76=ORIENTED_EDGE('',*,*,#96,.T.);
#77=ORIENTED_EDGE('',*,*,#90,.T.);
#78=EDGE_CURVE('',#102,#103,#122,.T.);
#79=EDGE_CURVE('',#104,#102,#123,.T.);
#80=EDGE_CURVE('',#104,#105,#124,.T.);
#81=EDGE_CURVE('',#105,#103,#125,.T.);
#82=EDGE_CURVE('',#102,#106,#126,.T.);
#83=EDGE_CURVE('',#107,#106,#127,.T.);
#84=EDGE_CURVE('',#104,#107,#128,.T.);
#85=EDGE_CURVE('',#106,#108,#129,.T.);
#86=EDGE_CURVE('',#109,#108,#130,.T.);
#87=EDGE_CURVE('',#107,#109,#131,.T.);
#88=EDGE_CURVE('',#103,#108,#132,.T.);
#89=EDGE_CURVE('',#105,#109,#133,.T.);
#90=EDGE_CURVE('',#110,#110,#18,.T.);
#91=EDGE_CURVE('',#111,#111,#19,.T.);
#92=EDGE_CURVE('',#112,#112,#20,.T.);
#93=EDGE_CURVE('',#113,#113,#21,.T.);
#94=EDGE_CURVE('',#114,#114,#22,.T.);
#95=EDGE_CURVE('',#115,#115,#23,.T.);
#96=EDGE_CURVE('',#116,#116,#24,.F.);
#97=EDGE_CURVE('',#117,#117,#25,.F.);
#98=EDGE_CURVE('',#118,#118,#26,.F.);
#99=EDGE_CURVE('',#119,#119,#27,.F.);
#100=EDGE_CURVE('',#120,#120,#28,.F.);
#101=EDGE_CURVE('',#121,#121,#29,.F.);
#102=VERTEX_POINT('',#326);
#103=VERTEX_POINT('',#327);
#104=VERTEX_POINT('',#329);
#105=VERTEX_POINT('',#331);
#106=VERTEX_POINT('',#335);
#107=VERTEX_POINT('',#337);
#108=VERTEX_POINT('',#341);
#109=VERTEX_POINT('',#343);
#110=VERTEX_POINT('',#350);
#111=VERTEX_POINT('',#352);
#112=VERTEX_POINT('',#354);
#113=VERTEX_POINT('',#356);
#114=VERTEX_POINT('',#358);
#115=VERTEX_POINT('',#360);
#116=VERTEX_POINT('',#363);
#117=VERTEX_POINT('',#365);
#118=VERTEX_POINT('',#367);
#119=VERTEX_POINT('',#369);
#120=VERTEX_POINT('',#371);
#121=VERTEX_POINT('',#373);
#122=LINE('',#325,#134);
#123=LINE('',#328,#135);
#124=LINE('',#330,#136);
#125=LINE('',#332,#137);
#126=LINE('',#334,#138);
#127=LINE('',#336,#139);
#128=LINE('',#338,#140);
#129=LINE('',#340,#141);
#130=LINE('',#342,#142);
#131=LINE('',#344,#143);
#132=LINE('',#346,#144);
#133=LINE('',#347,#145);
#134=VECTOR('',#265,1.);
#135=VECTOR('',#266,1.);
#136=VECTOR('',#267,1.);
#137=VECTOR('',#268,1.);
#138=VECTOR('',#271,1.);
#139=VECTOR('',#272,1.);
#140=VECTOR('',#273,1.);
#141=VECTOR('',#276,1.);
#142=VECTOR('',#277,1.);
#143=VECTOR('',#278,1.);
#144=VECTOR('',#281,1.);
#145=VECTOR('',#282,1.);
#146=EDGE_LOOP('',(#30,#31,#32,#33));
#147=EDGE_LOOP('',(#34,#35,#36,#37));
#148=EDGE_LOOP('',(#38,#39,#40,#41));
#149=EDGE_LOOP('',(#42,#43,#44,#45));
#150=EDGE_LOOP('',(#46));
#151=EDGE_LOOP('',(#47));
#152=EDGE_LOOP('',(#48));
#153=EDGE_LOOP('',(#49));
#154=EDGE_LOOP('',(#50));
#155=EDGE_LOOP('',(#51));
#156=EDGE_LOOP('',(#52,#53,#54,#55));
#157=EDGE_LOOP('',(#56));
#158=EDGE_LOOP('',(#57));
#159=EDGE_LOOP('',(#58));
#160=EDGE_LOOP('',(#59));
#161=EDGE_LOOP('',(#60));
#162=EDGE_LOOP('',(#61));
#163=EDGE_LOOP('',(#62,#63,#64,#65));
#164=EDGE_LOOP('',(#66));
#165=EDGE_LOOP('',(#67));
#166=EDGE_LOOP('',(#68));
#167=EDGE_LOOP('',(#69));
#168=EDGE_LOOP('',(#70));
#169=EDGE_LOOP('',(#71));
#170=EDGE_LOOP('',(#72));
#171=EDGE_LOOP('',(#73));
#172=EDGE_LOOP('',(#74));
#173=EDGE_LOOP('',(#75));
#174=EDGE_LOOP('',(#76));
#175=EDGE_LOOP('',(#77));
#176=FACE_BOUND('',#146,.T.);
#177=FACE_BOUND('',#147,.T.);
#178=FACE_BOUND('',#148,.T.);
#179=FACE_BOUND('',#149,.T.);
#180=FACE_BOUND('',#150,.T.);
#181=FACE_BOUND('',#151,.T.);
#182=FACE_BOUND('',#152,.T.);
#183=FACE_BOUND('',#153,.T.);
#184=FACE_BOUND('',#154,.T.);
#185=FACE_BOUND('',#155,.T.);
#186=FACE_BOUND('',#156,.T.);
#187=FACE_BOUND('',#157,.T.);
#188=FACE_BOUND('',#158,.T.);
#189=FACE_BOUND('',#159,.T.);
#190=FACE_BOUND('',#160,.T.);
#191=FACE_BOUND('',#161,.T.);
#192=FACE_BOUND('',#162,.T.);
#193=FACE_BOUND('',#163,.T.);
#194=FACE_BOUND('',#164,.T.);
#195=FACE_BOUND('',#165,.T.);
#196=FACE_BOUND('',#166,.T.);
#197=FACE_BOUND('',#167,.T.);
#198=FACE_BOUND('',#168,.T.);
#199=FACE_BOUND('',#169,.T.);
#200=FACE_BOUND('',#170,.T.);
#201=FACE_BOUND('',#171,.T.);
#202=FACE_BOUND('',#172,.T.);
#203=FACE_BOUND('',#173,.T.);
#204=FACE_BOUND('',#174,.T.);
#205=FACE_BOUND('',#175,.T.);
#206=PLANE('',#237);
#207=PLANE('',#238);
#208=PLANE('',#239);
#209=PLANE('',#240);
#210=PLANE('',#241);
#211=PLANE('',#248);
#212=ADVANCED_FACE('',(#176),#206,.T.);
#213=ADVANCED_FACE('',(#177),#207,.F.);
#214=ADVANCED_FACE('',(#178),#208,.F.);
#215=ADVANCED_FACE('',(#179),#209,.T.);
#216=ADVANCED_FACE('',(#180,#181,#182,#183,#184,#185,#186),#210,.T.);
#217=ADVANCED_FACE('',(#187,#188,#189,#190,#191,#192,#193),#211,.F.);
#218=ADVANCED_FACE('',(#194,#195),#12,.F.);
#219=ADVANCED_FACE('',(#196,#197),#13,.F.);
#220=ADVANCED_FACE('',(#198,#199),#14,.F.);
#221=ADVANCED_FACE('',(#200,#201),#15,.F.);
#222=ADVANCED_FACE('',(#202,#203),#16,.F.);
#223=ADVANCED_FACE('',(#204,#205),#17,.F.);
#224=CLOSED_SHELL('',(#212,#213,#214,#215,#216,#217,#218,#219,#220,#221,
#222,#223));
#225=STYLED_ITEM('',(#226),#233);
#226=PRESENTATION_STYLE_ASSIGNMENT((#227));
#227=SURFACE_STYLE_USAGE(.BOTH.,#228);
#228=SURFACE_SIDE_STYLE('',(#229));
#229=SURFACE_STYLE_FILL_AREA(#230);
#230=FILL_AREA_STYLE('',(#231));
#231=FILL_AREA_STYLE_COLOUR('',#232);
#232=COLOUR_RGB('',0.149019607843137,0.149019607843137,0.149019607843137);
#233=MANIFOLD_SOLID_BREP('Part 1',#224);
#234=SHAPE_DEFINITION_REPRESENTATION(#386,#235);
#235=SHAPE_REPRESENTATION('Part 1',(#236),#381);
#236=AXIS2_PLACEMENT_3D('',#323,#261,#262);
#237=AXIS2_PLACEMENT_3D('',#324,#263,#264);
#238=AXIS2_PLACEMENT_3D('',#333,#269,#270);
#239=AXIS2_PLACEMENT_3D('',#339,#274,#275);
#240=AXIS2_PLACEMENT_3D('',#345,#279,#280);
#241=AXIS2_PLACEMENT_3D('',#348,#283,#284);
#242=AXIS2_PLACEMENT_3D('',#349,#285,#286);
#243=AXIS2_PLACEMENT_3D('',#351,#287,#288);
#244=AXIS2_PLACEMENT_3D('',#353,#289,#290);
#245=AXIS2_PLACEMENT_3D('',#355,#291,#292);
#246=AXIS2_PLACEMENT_3D('',#357,#293,#294);
#247=AXIS2_PLACEMENT_3D('',#359,#295,#296);
#248=AXIS2_PLACEMENT_3D('',#361,#297,#298);
#249=AXIS2_PLACEMENT_3D('',#362,#299,#300);
#250=AXIS2_PLACEMENT_3D('',#364,#301,#302);
#251=AXIS2_PLACEMENT_3D('',#366,#303,#304);
#252=AXIS2_PLACEMENT_3D('',#368,#305,#306);
#253=AXIS2_PLACEMENT_3D('',#370,#307,#308);
#254=AXIS2_PLACEMENT_3D('',#372,#309,#310);
#255=AXIS2_PLACEMENT_3D('',#374,#311,#312);
#256=AXIS2_PLACEMENT_3D('',#375,#313,#314);
#257=AXIS2_PLACEMENT_3D('',#376,#315,#316);
#258=AXIS2_PLACEMENT_3D('',#377,#317,#318);
#259=AXIS2_PLACEMENT_3D('',#378,#319,#320);
#260=AXIS2_PLACEMENT_3D('',#379,#321,#322);
#261=DIRECTION('',(0.,0.,1.));
#262=DIRECTION('',(1.,0.,0.));
#263=DIRECTION('',(1.,1.82123199577617E-16,0.));
#264=DIRECTION('',(-1.82123199577617E-16,1.,0.));
#265=DIRECTION('',(1.82123199577617E-16,-1.,0.));
#266=DIRECTION('',(0.,0.,-1.));
#267=DIRECTION('',(1.82123199577617E-16,-1.,0.));
#268=DIRECTION('',(0.,0.,-1.));
#269=DIRECTION('',(0.,-1.,0.));
#270=DIRECTION('',(0.,0.,-1.));
#271=DIRECTION('',(-1.,0.,0.));
#272=DIRECTION('',(0.,0.,-1.));
#273=DIRECTION('',(-1.,0.,0.));
#274=DIRECTION('',(1.,1.82123199577617E-16,0.));
#275=DIRECTION('',(-1.82123199577617E-16,1.,0.));
#276=DIRECTION('',(1.82123199577617E-16,-1.,0.));
#277=DIRECTION('',(0.,0.,-1.));
#278=DIRECTION('',(1.82123199577617E-16,-1.,0.));
#279=DIRECTION('',(0.,-1.,0.));
#280=DIRECTION('',(0.,0.,-1.));
#281=DIRECTION('',(-1.,0.,0.));
#282=DIRECTION('',(-1.,0.,0.));
#283=DIRECTION('',(0.,0.,1.));
#284=DIRECTION('',(1.,0.,0.));
#285=DIRECTION('',(0.,0.,1.));
#286=DIRECTION('',(1.,0.,0.));
#287=DIRECTION('',(0.,0.,1.));
#288=DIRECTION('',(1.,0.,0.));
#289=DIRECTION('',(0.,0.,1.));
#290=DIRECTION('',(1.,0.,0.));
#291=DIRECTION('',(0.,0.,1.));
#292=DIRECTION('',(1.,0.,0.));
#293=DIRECTION('',(0.,0.,1.));
#294=DIRECTION('',(1.,0.,0.));
#295=DIRECTION('',(0.,0.,1.));
#296=DIRECTION('',(1.,0.,0.));
#297=DIRECTION('',(0.,0.,1.));
#298=DIRECTION('',(1.,0.,0.));
#299=DIRECTION('',(0.,0.,1.));
#300=DIRECTION('',(1.,0.,0.));
#301=DIRECTION('',(0.,0.,1.));
#302=DIRECTION('',(1.,0.,0.));
#303=DIRECTION('',(0.,0.,1.));
#304=DIRECTION('',(1.,0.,0.));
#305=DIRECTION('',(0.,0.,1.));
#306=DIRECTION('',(1.,0.,0.));
#307=DIRECTION('',(0.,0.,1.));
#308=DIRECTION('',(1.,0.,0.));
#309=DIRECTION('',(0.,0.,1.));
#310=DIRECTION('',(1.,0.,0.));
#311=DIRECTION('',(0.,0.,1.));
#312=DIRECTION('',(1.,0.,0.));
#313=DIRECTION('',(0.,0.,1.));
#314=DIRECTION('',(1.,0.,0.));
#315=DIRECTION('',(0.,0.,1.));
#316=DIRECTION('',(1.,0.,0.));
#317=DIRECTION('',(0.,0.,1.));
#318=DIRECTION('',(1.,0.,0.));
#319=DIRECTION('',(0.,0.,1.));
#320=DIRECTION('',(1.,0.,0.));
#321=DIRECTION('',(0.,0.,1.));
#322=DIRECTION('',(1.,0.,0.));
#323=CARTESIAN_POINT('',(0.,0.,0.));
#324=CARTESIAN_POINT('',(0.1524,0.,0.003175));
#325=CARTESIAN_POINT('',(0.1524,0.,0.));
#326=CARTESIAN_POINT('',(0.1524,0.1524,0.));
#327=CARTESIAN_POINT('',(0.1524,-0.1524,0.));
#328=CARTESIAN_POINT('',(0.1524,0.1524,0.003175));
#329=CARTESIAN_POINT('',(0.1524,0.1524,0.003175));
#330=CARTESIAN_POINT('',(0.1524,0.,0.003175));
#331=CARTESIAN_POINT('',(0.1524,-0.1524,0.003175));
#332=CARTESIAN_POINT('',(0.1524,-0.1524,0.003175));
#333=CARTESIAN_POINT('',(0.,0.1524,0.003175));
#334=CARTESIAN_POINT('',(0.,0.1524,0.));
#335=CARTESIAN_POINT('',(-0.1524,0.1524,0.));
#336=CARTESIAN_POINT('',(-0.1524,0.1524,0.003175));
#337=CARTESIAN_POINT('',(-0.1524,0.1524,0.003175));
#338=CARTESIAN_POINT('',(0.,0.1524,0.003175));
#339=CARTESIAN_POINT('',(-0.1524,0.,0.003175));
#340=CARTESIAN_POINT('',(-0.1524,0.,0.));
#341=CARTESIAN_POINT('',(-0.1524,-0.1524,0.));
#342=CARTESIAN_POINT('',(-0.1524,-0.1524,0.003175));
#343=CARTESIAN_POINT('',(-0.1524,-0.1524,0.003175));
#344=CARTESIAN_POINT('',(-0.1524,0.,0.003175));
#345=CARTESIAN_POINT('',(2.77555756156289E-17,-0.1524,0.003175));
#346=CARTESIAN_POINT('',(2.77555756156289E-17,-0.1524,0.));
#347=CARTESIAN_POINT('',(2.77555756156289E-17,-0.1524,0.003175));
#348=CARTESIAN_POINT('',(0.,0.,0.003175));
#349=CARTESIAN_POINT('',(0.1424,-0.124225,0.003175));
#350=CARTESIAN_POINT('',(0.1445,-0.124225,0.003175));
#351=CARTESIAN_POINT('',(-0.1444,0.04,0.003175));
#352=CARTESIAN_POINT('',(-0.1423,0.04,0.003175));
#353=CARTESIAN_POINT('',(0.1424,0.124225,0.003175));
#354=CARTESIAN_POINT('',(0.1445,0.124225,0.003175));
#355=CARTESIAN_POINT('',(0.1424,0.104225,0.003175));
#356=CARTESIAN_POINT('',(0.1445,0.104225,0.003175));
#357=CARTESIAN_POINT('',(0.1424,-0.104225,0.003175));
#358=CARTESIAN_POINT('',(0.1445,-0.104225,0.003175));
#359=CARTESIAN_POINT('',(-0.1444,-0.04,0.003175));
#360=CARTESIAN_POINT('',(-0.1423,-0.04,0.003175));
#361=CARTESIAN_POINT('',(0.,0.,0.));
#362=CARTESIAN_POINT('',(0.1424,-0.124225,0.));
#363=CARTESIAN_POINT('',(0.1445,-0.124225,0.));
#364=CARTESIAN_POINT('',(-0.1444,0.04,0.));
#365=CARTESIAN_POINT('',(-0.1423,0.04,0.));
#366=CARTESIAN_POINT('',(0.1424,0.124225,0.));
#367=CARTESIAN_POINT('',(0.1445,0.124225,0.));
#368=CARTESIAN_POINT('',(0.1424,0.104225,0.));
#369=CARTESIAN_POINT('',(0.1445,0.104225,0.));
#370=CARTESIAN_POINT('',(0.1424,-0.104225,0.));
#371=CARTESIAN_POINT('',(0.1445,-0.104225,0.));
#372=CARTESIAN_POINT('',(-0.1444,-0.04,0.));
#373=CARTESIAN_POINT('',(-0.1423,-0.04,0.));
#374=CARTESIAN_POINT('',(-0.1444,-0.04,-1.99999999999983E-6));
#375=CARTESIAN_POINT('',(0.1424,-0.104225,-1.99999999999983E-6));
#376=CARTESIAN_POINT('',(0.1424,0.104225,-1.99999999999983E-6));
#377=CARTESIAN_POINT('',(0.1424,0.124225,-1.99999999999983E-6));
#378=CARTESIAN_POINT('',(-0.1444,0.04,-1.99999999999983E-6));
#379=CARTESIAN_POINT('',(0.1424,-0.124225,-1.99999999999983E-6));
#380=MECHANICAL_DESIGN_GEOMETRIC_PRESENTATION_REPRESENTATION('',(#225),
#381);
#381=(
GEOMETRIC_REPRESENTATION_CONTEXT(3)
GLOBAL_UNCERTAINTY_ASSIGNED_CONTEXT((#382))
GLOBAL_UNIT_ASSIGNED_CONTEXT((#385,#384,#383))
REPRESENTATION_CONTEXT('Part 1','TOP_LEVEL_ASSEMBLY_PART')
);
#382=UNCERTAINTY_MEASURE_WITH_UNIT(LENGTH_MEASURE(1.E-8),#385,
'DISTANCE_ACCURACY_VALUE','Maximum Tolerance applied to model');
#383=(
NAMED_UNIT(*)
SI_UNIT($,.STERADIAN.)
SOLID_ANGLE_UNIT()
);
#384=(
NAMED_UNIT(*)
PLANE_ANGLE_UNIT()
SI_UNIT($,.RADIAN.)
);
#385=(
LENGTH_UNIT()
NAMED_UNIT(*)
SI_UNIT($,.METRE.)
);
#386=PRODUCT_DEFINITION_SHAPE('','',#387);
#387=PRODUCT_DEFINITION('','',#389,#388);
#388=PRODUCT_DEFINITION_CONTEXT('',#395,'design');
#389=PRODUCT_DEFINITION_FORMATION_WITH_SPECIFIED_SOURCE('','',#391,
 .NOT_KNOWN.);
#390=PRODUCT_RELATED_PRODUCT_CATEGORY('','',(#391));
#391=PRODUCT('Part 1','Part 1','Part 1',(#393));
#392=PRODUCT_CATEGORY('','');
#393=PRODUCT_CONTEXT('',#395,'mechanical');
#394=APPLICATION_PROTOCOL_DEFINITION('international standard',
'ap242_managed_model_based_3d_engineering',2020,#395);
#395=APPLICATION_CONTEXT('managed model based 3d engineering');
ENDSEC;
END-ISO-10303-21;
