ISO-10303-21;
HEADER;
/* Generated by software containing ST-Developer
 * from STEP Tools, Inc. (www.steptools.com) 
 */
/* OPTION: using custom renumber hook */

FILE_DESCRIPTION(
/* description */ ('STEP AP242 Edition 2',
'CAx-IF Rec.Pracs.---Representation and Presentation of Product Manufa
cturing Information (PMI)---4.0---2014-10-13',
'CAx-IF Rec.Pracs.---3D Tessellated Geometry---0.4---2014-09-14','2;1',
'CAx-IF Rec.Pracs.---User Defined Attributes---1.5---2016-08-15'),
/* implementation_level */ '2;1');

FILE_NAME(
/* name */ 'N-Metheus - Bottom Right Back',
/* time_stamp */ '2026-01-30T20:52:38Z',
/* author */ (''),
/* organization */ (''),
/* preprocessor_version */ 'ST-DEVELOPER v20',
/* originating_system */ 'ONSHAPE BY PTC INC, 1.210',
/* authorisation */ '  ');

FILE_SCHEMA (('AP242_MANAGED_MODEL_BASED_3D_ENGINEERING_MIM_LF { 1 0 10303 442 3 1 4 }'));
ENDSEC;

DATA;
#10=SHAPE_REPRESENTATION_RELATIONSHIP('','',#1144,#11);
#11=ADVANCED_BREP_SHAPE_REPRESENTATION('',(#1142),#1957);
#12=(
BOUNDED_SURFACE()
B_SPLINE_SURFACE(3,2,((#1815,#1816,#1817),(#1818,#1819,#1820),(#1821,#1822,
#1823),(#1824,#1825,#1826),(#1827,#1828,#1829),(#1830,#1831,#1832),(#1833,
#1834,#1835),(#1836,#1837,#1838)),.UNSPECIFIED.,.F.,.F.,.F.)
B_SPLINE_SURFACE_WITH_KNOTS((4,1,1,1,1,4),(3,3),(4.66206934168767E-17,0.00151575555027906,
0.00303151110055806,0.00606302220111608,0.0090945333016741,0.0121260444022321),
(0.,1.),.UNSPECIFIED.)
GEOMETRIC_REPRESENTATION_ITEM()
RATIONAL_B_SPLINE_SURFACE(((1.,0.707106781186544,1.),(1.,0.711514439299998,
1.),(1.,0.73444703653402,1.),(1.,0.810565740166524,1.),(1.,0.909716623180621,
1.),(1.,0.983295243082891,1.),(1.,0.999999999999663,1.),(1.,1.,1.)))
REPRESENTATION_ITEM('')
SURFACE()
);
#13=(
BOUNDED_SURFACE()
B_SPLINE_SURFACE(3,2,((#1861,#1862,#1863),(#1864,#1865,#1866),(#1867,#1868,
#1869),(#1870,#1871,#1872),(#1873,#1874,#1875),(#1876,#1877,#1878),(#1879,
#1880,#1881),(#1882,#1883,#1884)),.UNSPECIFIED.,.F.,.F.,.F.)
B_SPLINE_SURFACE_WITH_KNOTS((4,1,1,1,1,4),(3,3),(-1.68918698473242E-16,
0.00151575555027881,0.0030315111005578,0.00606302220111576,0.00909453330167373,
0.0121260444022317),(0.,1.),.UNSPECIFIED.)
GEOMETRIC_REPRESENTATION_ITEM()
RATIONAL_B_SPLINE_SURFACE(((1.,0.707106781186551,1.),(1.,0.711514439292096,
1.),(1.,0.734447036537595,1.),(1.,0.810565740164438,1.),(1.,0.909716623181333,
1.),(1.,0.983295243082682,1.),(1.,0.999999999999664,1.),(1.,1.,1.)))
REPRESENTATION_ITEM('')
SURFACE()
);
#14=TOROIDAL_SURFACE('',#1198,0.005826,0.001);
#15=TOROIDAL_SURFACE('',#1203,0.006,0.001);
#16=TOROIDAL_SURFACE('',#1206,0.0204,0.005);
#17=TOROIDAL_SURFACE('',#1208,0.006,0.001);
#18=B_SPLINE_CURVE_WITH_KNOTS('',3,(#1675,#1676,#1677,#1678,#1679,#1680,
#1681,#1682,#1683,#1684,#1685),.UNSPECIFIED.,.T.,.F.,(1,1,1,1,1,1,1,1,1,
1,1,1,1,1,1),(-0.0084510358606081,-0.00563402390707207,-0.00281701195353603,
0.,0.00281701195353603,0.00563402390707207,0.0084510358606081,0.0112680478141441,
0.0140850597676802,0.0169020717212162,0.0197190836747522,0.0225360956282883,
0.0253531075818243,0.0281701195353603,0.0309871314888964),.UNSPECIFIED.);
#19=B_SPLINE_CURVE_WITH_KNOTS('',3,(#1839,#1840,#1841,#1842,#1843,#1844,
#1845),.UNSPECIFIED.,.F.,.F.,(4,1,1,1,4),(0.,0.0026693616885244,0.0053387233770488,
0.00800808506557319,0.0106774467540976),.UNSPECIFIED.);
#20=B_SPLINE_CURVE_WITH_KNOTS('',3,(#1846,#1847,#1848,#1849,#1850,#1851,
#1852),.UNSPECIFIED.,.F.,.F.,(4,1,1,1,4),(0.,0.00268923395091267,0.00537846790182535,
0.00806770185273802,0.0107569358036507),.UNSPECIFIED.);
#21=B_SPLINE_CURVE_WITH_KNOTS('',3,(#1854,#1855,#1856,#1857,#1858,#1859,
#1860),.UNSPECIFIED.,.F.,.F.,(4,1,1,1,4),(0.,0.00268923395091263,0.00537846790182526,
0.00806770185273789,0.0107569358036505),.UNSPECIFIED.);
#22=B_SPLINE_CURVE_WITH_KNOTS('',3,(#1885,#1886,#1887,#1888,#1889,#1890,
#1891),.UNSPECIFIED.,.F.,.F.,(4,1,1,1,4),(0.,0.00266936168852423,0.00533872337704847,
0.00800808506557271,0.0106774467540969),.UNSPECIFIED.);
#23=B_SPLINE_CURVE_WITH_KNOTS('',3,(#1923,#1924,#1925,#1926,#1927,#1928,
#1929,#1930,#1931,#1932,#1933),.UNSPECIFIED.,.T.,.F.,(1,1,1,1,1,1,1,1,1,
1,1,1,1,1,1),(-0.00492515803017032,-0.00328343868678022,-0.00164171934339011,
0.,0.00164171934339011,0.00328343868678022,0.00492515803017032,0.00656687737356043,
0.00820859671695054,0.00985031606034065,0.0114920354037308,0.0131337547471209,
0.014775474090511,0.0164171934339011,0.0180589127772912),.UNSPECIFIED.);
#24=CYLINDRICAL_SURFACE('',#1162,0.0254);
#25=CYLINDRICAL_SURFACE('',#1168,0.0254);
#26=CYLINDRICAL_SURFACE('',#1185,0.004826);
#27=CYLINDRICAL_SURFACE('',#1195,0.001);
#28=CYLINDRICAL_SURFACE('',#1201,0.001);
#29=CYLINDRICAL_SURFACE('',#1210,0.003175);
#30=CYLINDRICAL_SURFACE('',#1212,0.006826);
#31=CYLINDRICAL_SURFACE('',#1214,0.005);
#32=CYLINDRICAL_SURFACE('',#1215,0.005);
#33=CYLINDRICAL_SURFACE('',#1223,0.029499999999996);
#34=CYLINDRICAL_SURFACE('',#1227,0.0021);
#35=CYLINDRICAL_SURFACE('',#1229,0.0036);
#36=CIRCLE('',#1153,0.0254);
#37=CIRCLE('',#1154,0.029499999999996);
#38=CIRCLE('',#1163,0.0254);
#39=CIRCLE('',#1164,0.0254);
#40=CIRCLE('',#1169,0.0254);
#41=CIRCLE('',#1170,0.0254);
#42=CIRCLE('',#1171,0.0254);
#43=CIRCLE('',#1178,0.005);
#44=CIRCLE('',#1181,0.005);
#45=CIRCLE('',#1182,0.006826);
#46=CIRCLE('',#1183,0.005);
#47=CIRCLE('',#1184,0.003175);
#48=CIRCLE('',#1186,0.004826);
#49=CIRCLE('',#1187,0.004826);
#50=CIRCLE('',#1189,0.0204);
#51=CIRCLE('',#1190,0.006);
#52=CIRCLE('',#1191,0.005826);
#53=CIRCLE('',#1192,0.006);
#54=CIRCLE('',#1194,0.003175);
#55=CIRCLE('',#1196,0.001);
#56=CIRCLE('',#1197,0.001);
#57=CIRCLE('',#1199,0.001);
#58=CIRCLE('',#1200,0.006826);
#59=CIRCLE('',#1202,0.001);
#60=CIRCLE('',#1204,0.001);
#61=CIRCLE('',#1205,0.005);
#62=CIRCLE('',#1207,0.001);
#63=CIRCLE('',#1209,0.005);
#64=CIRCLE('',#1216,0.005);
#65=CIRCLE('',#1224,0.029499999999996);
#66=CIRCLE('',#1228,0.0021);
#67=CIRCLE('',#1230,0.0036);
#68=ORIENTED_EDGE('',*,*,#384,.F.);
#69=ORIENTED_EDGE('',*,*,#385,.T.);
#70=ORIENTED_EDGE('',*,*,#386,.T.);
#71=ORIENTED_EDGE('',*,*,#387,.F.);
#72=ORIENTED_EDGE('',*,*,#388,.T.);
#73=ORIENTED_EDGE('',*,*,#389,.F.);
#74=ORIENTED_EDGE('',*,*,#390,.F.);
#75=ORIENTED_EDGE('',*,*,#391,.T.);
#76=ORIENTED_EDGE('',*,*,#392,.T.);
#77=ORIENTED_EDGE('',*,*,#393,.T.);
#78=ORIENTED_EDGE('',*,*,#394,.F.);
#79=ORIENTED_EDGE('',*,*,#395,.F.);
#80=ORIENTED_EDGE('',*,*,#396,.T.);
#81=ORIENTED_EDGE('',*,*,#397,.T.);
#82=ORIENTED_EDGE('',*,*,#398,.T.);
#83=ORIENTED_EDGE('',*,*,#399,.F.);
#84=ORIENTED_EDGE('',*,*,#400,.F.);
#85=ORIENTED_EDGE('',*,*,#401,.F.);
#86=ORIENTED_EDGE('',*,*,#402,.T.);
#87=ORIENTED_EDGE('',*,*,#403,.T.);
#88=ORIENTED_EDGE('',*,*,#404,.T.);
#89=ORIENTED_EDGE('',*,*,#405,.F.);
#90=ORIENTED_EDGE('',*,*,#403,.F.);
#91=ORIENTED_EDGE('',*,*,#406,.T.);
#92=ORIENTED_EDGE('',*,*,#407,.F.);
#93=ORIENTED_EDGE('',*,*,#408,.T.);
#94=ORIENTED_EDGE('',*,*,#409,.T.);
#95=ORIENTED_EDGE('',*,*,#410,.F.);
#96=ORIENTED_EDGE('',*,*,#411,.F.);
#97=ORIENTED_EDGE('',*,*,#412,.F.);
#98=ORIENTED_EDGE('',*,*,#413,.F.);
#99=ORIENTED_EDGE('',*,*,#414,.F.);
#100=ORIENTED_EDGE('',*,*,#401,.T.);
#101=ORIENTED_EDGE('',*,*,#415,.F.);
#102=ORIENTED_EDGE('',*,*,#387,.T.);
#103=ORIENTED_EDGE('',*,*,#416,.T.);
#104=ORIENTED_EDGE('',*,*,#417,.T.);
#105=ORIENTED_EDGE('',*,*,#418,.T.);
#106=ORIENTED_EDGE('',*,*,#419,.T.);
#107=ORIENTED_EDGE('',*,*,#420,.T.);
#108=ORIENTED_EDGE('',*,*,#421,.T.);
#109=ORIENTED_EDGE('',*,*,#422,.F.);
#110=ORIENTED_EDGE('',*,*,#423,.F.);
#111=ORIENTED_EDGE('',*,*,#424,.T.);
#112=ORIENTED_EDGE('',*,*,#425,.T.);
#113=ORIENTED_EDGE('',*,*,#426,.F.);
#114=ORIENTED_EDGE('',*,*,#412,.T.);
#115=ORIENTED_EDGE('',*,*,#427,.T.);
#116=ORIENTED_EDGE('',*,*,#419,.F.);
#117=ORIENTED_EDGE('',*,*,#428,.T.);
#118=ORIENTED_EDGE('',*,*,#429,.F.);
#119=ORIENTED_EDGE('',*,*,#430,.F.);
#120=ORIENTED_EDGE('',*,*,#431,.T.);
#121=ORIENTED_EDGE('',*,*,#432,.F.);
#122=ORIENTED_EDGE('',*,*,#417,.F.);
#123=ORIENTED_EDGE('',*,*,#433,.T.);
#124=ORIENTED_EDGE('',*,*,#434,.T.);
#125=ORIENTED_EDGE('',*,*,#435,.F.);
#126=ORIENTED_EDGE('',*,*,#436,.F.);
#127=ORIENTED_EDGE('',*,*,#437,.F.);
#128=ORIENTED_EDGE('',*,*,#438,.T.);
#129=ORIENTED_EDGE('',*,*,#439,.F.);
#130=ORIENTED_EDGE('',*,*,#440,.T.);
#131=ORIENTED_EDGE('',*,*,#441,.T.);
#132=ORIENTED_EDGE('',*,*,#410,.T.);
#133=ORIENTED_EDGE('',*,*,#442,.F.);
#134=ORIENTED_EDGE('',*,*,#420,.F.);
#135=ORIENTED_EDGE('',*,*,#432,.T.);
#136=ORIENTED_EDGE('',*,*,#443,.T.);
#137=ORIENTED_EDGE('',*,*,#425,.F.);
#138=ORIENTED_EDGE('',*,*,#444,.T.);
#139=ORIENTED_EDGE('',*,*,#445,.T.);
#140=ORIENTED_EDGE('',*,*,#440,.F.);
#141=ORIENTED_EDGE('',*,*,#446,.T.);
#142=ORIENTED_EDGE('',*,*,#423,.T.);
#143=ORIENTED_EDGE('',*,*,#447,.T.);
#144=ORIENTED_EDGE('',*,*,#418,.F.);
#145=ORIENTED_EDGE('',*,*,#437,.T.);
#146=ORIENTED_EDGE('',*,*,#448,.T.);
#147=ORIENTED_EDGE('',*,*,#428,.F.);
#148=ORIENTED_EDGE('',*,*,#449,.F.);
#149=ORIENTED_EDGE('',*,*,#450,.F.);
#150=ORIENTED_EDGE('',*,*,#451,.F.);
#151=ORIENTED_EDGE('',*,*,#438,.F.);
#152=ORIENTED_EDGE('',*,*,#452,.F.);
#153=ORIENTED_EDGE('',*,*,#453,.F.);
#154=ORIENTED_EDGE('',*,*,#454,.F.);
#155=ORIENTED_EDGE('',*,*,#455,.T.);
#156=ORIENTED_EDGE('',*,*,#456,.F.);
#157=ORIENTED_EDGE('',*,*,#402,.F.);
#158=ORIENTED_EDGE('',*,*,#414,.T.);
#159=ORIENTED_EDGE('',*,*,#457,.F.);
#160=ORIENTED_EDGE('',*,*,#458,.F.);
#161=ORIENTED_EDGE('',*,*,#459,.T.);
#162=ORIENTED_EDGE('',*,*,#406,.F.);
#163=ORIENTED_EDGE('',*,*,#388,.F.);
#164=ORIENTED_EDGE('',*,*,#415,.T.);
#165=ORIENTED_EDGE('',*,*,#400,.T.);
#166=ORIENTED_EDGE('',*,*,#460,.F.);
#167=ORIENTED_EDGE('',*,*,#416,.F.);
#168=ORIENTED_EDGE('',*,*,#386,.F.);
#169=ORIENTED_EDGE('',*,*,#461,.T.);
#170=ORIENTED_EDGE('',*,*,#462,.T.);
#171=ORIENTED_EDGE('',*,*,#463,.T.);
#172=ORIENTED_EDGE('',*,*,#464,.T.);
#173=ORIENTED_EDGE('',*,*,#465,.T.);
#174=ORIENTED_EDGE('',*,*,#433,.F.);
#175=ORIENTED_EDGE('',*,*,#459,.F.);
#176=ORIENTED_EDGE('',*,*,#466,.F.);
#177=ORIENTED_EDGE('',*,*,#453,.T.);
#178=ORIENTED_EDGE('',*,*,#467,.T.);
#179=ORIENTED_EDGE('',*,*,#391,.F.);
#180=ORIENTED_EDGE('',*,*,#468,.F.);
#181=ORIENTED_EDGE('',*,*,#469,.F.);
#182=ORIENTED_EDGE('',*,*,#404,.F.);
#183=ORIENTED_EDGE('',*,*,#455,.F.);
#184=ORIENTED_EDGE('',*,*,#470,.T.);
#185=ORIENTED_EDGE('',*,*,#450,.T.);
#186=ORIENTED_EDGE('',*,*,#471,.F.);
#187=ORIENTED_EDGE('',*,*,#393,.F.);
#188=ORIENTED_EDGE('',*,*,#472,.T.);
#189=ORIENTED_EDGE('',*,*,#431,.F.);
#190=ORIENTED_EDGE('',*,*,#473,.T.);
#191=ORIENTED_EDGE('',*,*,#474,.T.);
#192=ORIENTED_EDGE('',*,*,#407,.T.);
#193=ORIENTED_EDGE('',*,*,#426,.T.);
#194=ORIENTED_EDGE('',*,*,#443,.F.);
#195=ORIENTED_EDGE('',*,*,#436,.T.);
#196=ORIENTED_EDGE('',*,*,#475,.T.);
#197=ORIENTED_EDGE('',*,*,#476,.F.);
#198=ORIENTED_EDGE('',*,*,#477,.T.);
#199=ORIENTED_EDGE('',*,*,#429,.T.);
#200=ORIENTED_EDGE('',*,*,#448,.F.);
#201=ORIENTED_EDGE('',*,*,#427,.F.);
#202=ORIENTED_EDGE('',*,*,#411,.T.);
#203=ORIENTED_EDGE('',*,*,#441,.F.);
#204=ORIENTED_EDGE('',*,*,#447,.F.);
#205=ORIENTED_EDGE('',*,*,#478,.T.);
#206=ORIENTED_EDGE('',*,*,#479,.T.);
#207=ORIENTED_EDGE('',*,*,#434,.F.);
#208=ORIENTED_EDGE('',*,*,#465,.F.);
#209=ORIENTED_EDGE('',*,*,#480,.F.);
#210=ORIENTED_EDGE('',*,*,#481,.F.);
#211=ORIENTED_EDGE('',*,*,#478,.F.);
#212=ORIENTED_EDGE('',*,*,#482,.T.);
#213=ORIENTED_EDGE('',*,*,#483,.T.);
#214=ORIENTED_EDGE('',*,*,#484,.T.);
#215=ORIENTED_EDGE('',*,*,#468,.T.);
#216=ORIENTED_EDGE('',*,*,#390,.T.);
#217=ORIENTED_EDGE('',*,*,#471,.T.);
#218=ORIENTED_EDGE('',*,*,#452,.T.);
#219=ORIENTED_EDGE('',*,*,#442,.T.);
#220=ORIENTED_EDGE('',*,*,#409,.F.);
#221=ORIENTED_EDGE('',*,*,#485,.F.);
#222=ORIENTED_EDGE('',*,*,#486,.F.);
#223=ORIENTED_EDGE('',*,*,#487,.T.);
#224=ORIENTED_EDGE('',*,*,#488,.F.);
#225=ORIENTED_EDGE('',*,*,#483,.F.);
#226=ORIENTED_EDGE('',*,*,#489,.T.);
#227=ORIENTED_EDGE('',*,*,#490,.F.);
#228=ORIENTED_EDGE('',*,*,#491,.F.);
#229=ORIENTED_EDGE('',*,*,#492,.T.);
#230=ORIENTED_EDGE('',*,*,#493,.T.);
#231=ORIENTED_EDGE('',*,*,#494,.T.);
#232=ORIENTED_EDGE('',*,*,#395,.T.);
#233=ORIENTED_EDGE('',*,*,#495,.F.);
#234=ORIENTED_EDGE('',*,*,#496,.F.);
#235=ORIENTED_EDGE('',*,*,#497,.T.);
#236=ORIENTED_EDGE('',*,*,#498,.F.);
#237=ORIENTED_EDGE('',*,*,#498,.T.);
#238=ORIENTED_EDGE('',*,*,#499,.T.);
#239=ORIENTED_EDGE('',*,*,#500,.T.);
#240=ORIENTED_EDGE('',*,*,#501,.T.);
#241=ORIENTED_EDGE('',*,*,#502,.T.);
#242=ORIENTED_EDGE('',*,*,#503,.T.);
#243=ORIENTED_EDGE('',*,*,#504,.T.);
#244=ORIENTED_EDGE('',*,*,#505,.T.);
#245=ORIENTED_EDGE('',*,*,#497,.F.);
#246=ORIENTED_EDGE('',*,*,#506,.T.);
#247=ORIENTED_EDGE('',*,*,#501,.F.);
#248=ORIENTED_EDGE('',*,*,#507,.F.);
#249=ORIENTED_EDGE('',*,*,#508,.F.);
#250=ORIENTED_EDGE('',*,*,#509,.T.);
#251=ORIENTED_EDGE('',*,*,#502,.F.);
#252=ORIENTED_EDGE('',*,*,#506,.F.);
#253=ORIENTED_EDGE('',*,*,#510,.F.);
#254=ORIENTED_EDGE('',*,*,#511,.T.);
#255=ORIENTED_EDGE('',*,*,#503,.F.);
#256=ORIENTED_EDGE('',*,*,#509,.F.);
#257=ORIENTED_EDGE('',*,*,#512,.F.);
#258=ORIENTED_EDGE('',*,*,#513,.T.);
#259=ORIENTED_EDGE('',*,*,#504,.F.);
#260=ORIENTED_EDGE('',*,*,#511,.F.);
#261=ORIENTED_EDGE('',*,*,#514,.F.);
#262=ORIENTED_EDGE('',*,*,#515,.F.);
#263=ORIENTED_EDGE('',*,*,#516,.F.);
#264=ORIENTED_EDGE('',*,*,#513,.F.);
#265=ORIENTED_EDGE('',*,*,#463,.F.);
#266=ORIENTED_EDGE('',*,*,#517,.T.);
#267=ORIENTED_EDGE('',*,*,#499,.F.);
#268=ORIENTED_EDGE('',*,*,#516,.T.);
#269=ORIENTED_EDGE('',*,*,#517,.F.);
#270=ORIENTED_EDGE('',*,*,#518,.F.);
#271=ORIENTED_EDGE('',*,*,#519,.T.);
#272=ORIENTED_EDGE('',*,*,#507,.T.);
#273=ORIENTED_EDGE('',*,*,#500,.F.);
#274=ORIENTED_EDGE('',*,*,#519,.F.);
#275=ORIENTED_EDGE('',*,*,#520,.F.);
#276=ORIENTED_EDGE('',*,*,#505,.F.);
#277=ORIENTED_EDGE('',*,*,#496,.T.);
#278=ORIENTED_EDGE('',*,*,#521,.F.);
#279=ORIENTED_EDGE('',*,*,#508,.T.);
#280=ORIENTED_EDGE('',*,*,#522,.T.);
#281=ORIENTED_EDGE('',*,*,#492,.F.);
#282=ORIENTED_EDGE('',*,*,#523,.F.);
#283=ORIENTED_EDGE('',*,*,#510,.T.);
#284=ORIENTED_EDGE('',*,*,#521,.T.);
#285=ORIENTED_EDGE('',*,*,#491,.T.);
#286=ORIENTED_EDGE('',*,*,#524,.T.);
#287=ORIENTED_EDGE('',*,*,#512,.T.);
#288=ORIENTED_EDGE('',*,*,#523,.T.);
#289=ORIENTED_EDGE('',*,*,#490,.T.);
#290=ORIENTED_EDGE('',*,*,#482,.F.);
#291=ORIENTED_EDGE('',*,*,#480,.T.);
#292=ORIENTED_EDGE('',*,*,#464,.F.);
#293=ORIENTED_EDGE('',*,*,#515,.T.);
#294=ORIENTED_EDGE('',*,*,#514,.T.);
#295=ORIENTED_EDGE('',*,*,#524,.F.);
#296=ORIENTED_EDGE('',*,*,#489,.F.);
#297=ORIENTED_EDGE('',*,*,#525,.T.);
#298=ORIENTED_EDGE('',*,*,#526,.T.);
#299=ORIENTED_EDGE('',*,*,#493,.F.);
#300=ORIENTED_EDGE('',*,*,#522,.F.);
#301=ORIENTED_EDGE('',*,*,#520,.T.);
#302=ORIENTED_EDGE('',*,*,#518,.T.);
#303=ORIENTED_EDGE('',*,*,#462,.F.);
#304=ORIENTED_EDGE('',*,*,#397,.F.);
#305=ORIENTED_EDGE('',*,*,#527,.F.);
#306=ORIENTED_EDGE('',*,*,#525,.F.);
#307=ORIENTED_EDGE('',*,*,#461,.F.);
#308=ORIENTED_EDGE('',*,*,#385,.F.);
#309=ORIENTED_EDGE('',*,*,#528,.F.);
#310=ORIENTED_EDGE('',*,*,#396,.F.);
#311=ORIENTED_EDGE('',*,*,#494,.F.);
#312=ORIENTED_EDGE('',*,*,#526,.F.);
#313=ORIENTED_EDGE('',*,*,#527,.T.);
#314=ORIENTED_EDGE('',*,*,#529,.F.);
#315=ORIENTED_EDGE('',*,*,#389,.T.);
#316=ORIENTED_EDGE('',*,*,#460,.T.);
#317=ORIENTED_EDGE('',*,*,#399,.T.);
#318=ORIENTED_EDGE('',*,*,#392,.F.);
#319=ORIENTED_EDGE('',*,*,#467,.F.);
#320=ORIENTED_EDGE('',*,*,#456,.T.);
#321=ORIENTED_EDGE('',*,*,#472,.F.);
#322=ORIENTED_EDGE('',*,*,#530,.F.);
#323=ORIENTED_EDGE('',*,*,#475,.F.);
#324=ORIENTED_EDGE('',*,*,#435,.T.);
#325=ORIENTED_EDGE('',*,*,#479,.F.);
#326=ORIENTED_EDGE('',*,*,#481,.T.);
#327=ORIENTED_EDGE('',*,*,#488,.T.);
#328=ORIENTED_EDGE('',*,*,#413,.T.);
#329=ORIENTED_EDGE('',*,*,#531,.F.);
#330=ORIENTED_EDGE('',*,*,#532,.F.);
#331=ORIENTED_EDGE('',*,*,#457,.T.);
#332=ORIENTED_EDGE('',*,*,#533,.T.);
#333=ORIENTED_EDGE('',*,*,#422,.T.);
#334=ORIENTED_EDGE('',*,*,#534,.F.);
#335=ORIENTED_EDGE('',*,*,#535,.F.);
#336=ORIENTED_EDGE('',*,*,#531,.T.);
#337=ORIENTED_EDGE('',*,*,#421,.F.);
#338=ORIENTED_EDGE('',*,*,#445,.F.);
#339=ORIENTED_EDGE('',*,*,#536,.T.);
#340=ORIENTED_EDGE('',*,*,#534,.T.);
#341=ORIENTED_EDGE('',*,*,#532,.T.);
#342=ORIENTED_EDGE('',*,*,#535,.T.);
#343=ORIENTED_EDGE('',*,*,#536,.F.);
#344=ORIENTED_EDGE('',*,*,#444,.F.);
#345=ORIENTED_EDGE('',*,*,#424,.F.);
#346=ORIENTED_EDGE('',*,*,#446,.F.);
#347=ORIENTED_EDGE('',*,*,#439,.T.);
#348=ORIENTED_EDGE('',*,*,#451,.T.);
#349=ORIENTED_EDGE('',*,*,#470,.F.);
#350=ORIENTED_EDGE('',*,*,#454,.T.);
#351=ORIENTED_EDGE('',*,*,#466,.T.);
#352=ORIENTED_EDGE('',*,*,#458,.T.);
#353=ORIENTED_EDGE('',*,*,#537,.T.);
#354=ORIENTED_EDGE('',*,*,#533,.F.);
#355=ORIENTED_EDGE('',*,*,#449,.T.);
#356=ORIENTED_EDGE('',*,*,#538,.T.);
#357=ORIENTED_EDGE('',*,*,#537,.F.);
#358=ORIENTED_EDGE('',*,*,#538,.F.);
#359=ORIENTED_EDGE('',*,*,#408,.F.);
#360=ORIENTED_EDGE('',*,*,#474,.F.);
#361=ORIENTED_EDGE('',*,*,#539,.T.);
#362=ORIENTED_EDGE('',*,*,#485,.T.);
#363=ORIENTED_EDGE('',*,*,#530,.T.);
#364=ORIENTED_EDGE('',*,*,#487,.F.);
#365=ORIENTED_EDGE('',*,*,#540,.F.);
#366=ORIENTED_EDGE('',*,*,#476,.T.);
#367=ORIENTED_EDGE('',*,*,#539,.F.);
#368=ORIENTED_EDGE('',*,*,#473,.F.);
#369=ORIENTED_EDGE('',*,*,#430,.T.);
#370=ORIENTED_EDGE('',*,*,#477,.F.);
#371=ORIENTED_EDGE('',*,*,#540,.T.);
#372=ORIENTED_EDGE('',*,*,#486,.T.);
#373=ORIENTED_EDGE('',*,*,#528,.T.);
#374=ORIENTED_EDGE('',*,*,#541,.F.);
#375=ORIENTED_EDGE('',*,*,#495,.T.);
#376=ORIENTED_EDGE('',*,*,#394,.T.);
#377=ORIENTED_EDGE('',*,*,#405,.T.);
#378=ORIENTED_EDGE('',*,*,#469,.T.);
#379=ORIENTED_EDGE('',*,*,#484,.F.);
#380=ORIENTED_EDGE('',*,*,#541,.T.);
#381=ORIENTED_EDGE('',*,*,#384,.T.);
#382=ORIENTED_EDGE('',*,*,#529,.T.);
#383=ORIENTED_EDGE('',*,*,#398,.F.);
#384=EDGE_CURVE('',#542,#543,#647,.T.);
#385=EDGE_CURVE('',#542,#544,#648,.T.);
#386=EDGE_CURVE('',#544,#545,#649,.F.);
#387=EDGE_CURVE('',#546,#545,#650,.T.);
#388=EDGE_CURVE('',#546,#547,#651,.T.);
#389=EDGE_CURVE('',#543,#547,#652,.T.);
#390=EDGE_CURVE('',#548,#549,#653,.T.);
#391=EDGE_CURVE('',#548,#550,#654,.T.);
#392=EDGE_CURVE('',#550,#551,#655,.T.);
#393=EDGE_CURVE('',#551,#549,#656,.T.);
#394=EDGE_CURVE('',#552,#553,#657,.T.);
#395=EDGE_CURVE('',#554,#552,#658,.T.);
#396=EDGE_CURVE('',#554,#555,#659,.T.);
#397=EDGE_CURVE('',#555,#553,#660,.T.);
#398=EDGE_CURVE('',#556,#557,#661,.T.);
#399=EDGE_CURVE('',#558,#557,#662,.T.);
#400=EDGE_CURVE('',#559,#558,#663,.T.);
#401=EDGE_CURVE('',#560,#559,#664,.T.);
#402=EDGE_CURVE('',#560,#561,#665,.T.);
#403=EDGE_CURVE('',#561,#556,#666,.T.);
#404=EDGE_CURVE('',#562,#563,#667,.T.);
#405=EDGE_CURVE('',#556,#563,#668,.T.);
#406=EDGE_CURVE('',#561,#562,#669,.T.);
#407=EDGE_CURVE('',#564,#565,#670,.T.);
#408=EDGE_CURVE('',#564,#566,#671,.T.);
#409=EDGE_CURVE('',#566,#567,#672,.T.);
#410=EDGE_CURVE('',#568,#567,#673,.T.);
#411=EDGE_CURVE('',#569,#568,#674,.T.);
#412=EDGE_CURVE('',#565,#569,#675,.T.);
#413=EDGE_CURVE('',#570,#571,#676,.T.);
#414=EDGE_CURVE('',#560,#570,#677,.T.);
#415=EDGE_CURVE('',#546,#559,#678,.T.);
#416=EDGE_CURVE('',#545,#572,#36,.F.);
#417=EDGE_CURVE('',#572,#573,#679,.T.);
#418=EDGE_CURVE('',#573,#574,#680,.T.);
#419=EDGE_CURVE('',#574,#575,#681,.T.);
#420=EDGE_CURVE('',#575,#576,#682,.T.);
#421=EDGE_CURVE('',#576,#577,#683,.T.);
#422=EDGE_CURVE('',#571,#577,#37,.F.);
#423=EDGE_CURVE('',#578,#579,#684,.T.);
#424=EDGE_CURVE('',#578,#580,#685,.T.);
#425=EDGE_CURVE('',#580,#581,#686,.T.);
#426=EDGE_CURVE('',#565,#581,#687,.T.);
#427=EDGE_CURVE('',#569,#579,#688,.T.);
#428=EDGE_CURVE('',#574,#582,#689,.T.);
#429=EDGE_CURVE('',#583,#582,#690,.T.);
#430=EDGE_CURVE('',#584,#583,#691,.T.);
#431=EDGE_CURVE('',#584,#585,#692,.T.);
#432=EDGE_CURVE('',#575,#585,#693,.T.);
#433=EDGE_CURVE('',#572,#586,#694,.T.);
#434=EDGE_CURVE('',#586,#587,#695,.T.);
#435=EDGE_CURVE('',#588,#587,#696,.T.);
#436=EDGE_CURVE('',#589,#588,#697,.T.);
#437=EDGE_CURVE('',#573,#589,#698,.T.);
#438=EDGE_CURVE('',#590,#591,#699,.F.);
#439=EDGE_CURVE('',#592,#591,#700,.T.);
#440=EDGE_CURVE('',#592,#593,#701,.T.);
#441=EDGE_CURVE('',#593,#568,#702,.T.);
#442=EDGE_CURVE('',#590,#567,#703,.T.);
#443=EDGE_CURVE('',#585,#581,#704,.T.);
#444=EDGE_CURVE('',#580,#594,#705,.T.);
#445=EDGE_CURVE('',#594,#576,#706,.T.);
#446=EDGE_CURVE('',#592,#578,#707,.T.);
#447=EDGE_CURVE('',#579,#593,#708,.T.);
#448=EDGE_CURVE('',#589,#582,#709,.T.);
#449=EDGE_CURVE('',#595,#595,#18,.T.);
#450=EDGE_CURVE('',#596,#597,#710,.T.);
#451=EDGE_CURVE('',#591,#596,#38,.T.);
#452=EDGE_CURVE('',#597,#590,#39,.F.);
#453=EDGE_CURVE('',#598,#599,#711,.T.);
#454=EDGE_CURVE('',#600,#598,#712,.T.);
#455=EDGE_CURVE('',#600,#601,#713,.T.);
#456=EDGE_CURVE('',#599,#601,#714,.T.);
#457=EDGE_CURVE('',#602,#570,#715,.T.);
#458=EDGE_CURVE('',#603,#602,#716,.T.);
#459=EDGE_CURVE('',#603,#562,#717,.T.);
#460=EDGE_CURVE('',#547,#558,#718,.T.);
#461=EDGE_CURVE('',#544,#604,#40,.F.);
#462=EDGE_CURVE('',#604,#605,#719,.T.);
#463=EDGE_CURVE('',#605,#606,#41,.F.);
#464=EDGE_CURVE('',#606,#607,#720,.F.);
#465=EDGE_CURVE('',#607,#586,#42,.F.);
#466=EDGE_CURVE('',#598,#603,#721,.T.);
#467=EDGE_CURVE('',#599,#550,#722,.T.);
#468=EDGE_CURVE('',#608,#548,#723,.T.);
#469=EDGE_CURVE('',#563,#608,#724,.T.);
#470=EDGE_CURVE('',#600,#596,#725,.T.);
#471=EDGE_CURVE('',#549,#597,#726,.T.);
#472=EDGE_CURVE('',#551,#601,#727,.T.);
#473=EDGE_CURVE('',#584,#609,#728,.T.);
#474=EDGE_CURVE('',#609,#564,#729,.T.);
#475=EDGE_CURVE('',#588,#610,#730,.T.);
#476=EDGE_CURVE('',#611,#610,#731,.T.);
#477=EDGE_CURVE('',#611,#583,#732,.T.);
#478=EDGE_CURVE('',#612,#613,#733,.T.);
#479=EDGE_CURVE('',#613,#587,#734,.T.);
#480=EDGE_CURVE('',#612,#607,#43,.F.);
#481=EDGE_CURVE('',#613,#614,#735,.T.);
#482=EDGE_CURVE('',#612,#615,#736,.F.);
#483=EDGE_CURVE('',#615,#614,#737,.T.);
#484=EDGE_CURVE('',#616,#608,#738,.T.);
#485=EDGE_CURVE('',#617,#566,#739,.T.);
#486=EDGE_CURVE('',#618,#617,#740,.T.);
#487=EDGE_CURVE('',#618,#619,#741,.T.);
#488=EDGE_CURVE('',#614,#619,#742,.T.);
#489=EDGE_CURVE('',#615,#620,#44,.T.);
#490=EDGE_CURVE('',#621,#620,#743,.T.);
#491=EDGE_CURVE('',#622,#621,#45,.T.);
#492=EDGE_CURVE('',#622,#623,#744,.T.);
#493=EDGE_CURVE('',#623,#624,#46,.T.);
#494=EDGE_CURVE('',#624,#554,#745,.T.);
#495=EDGE_CURVE('',#616,#552,#746,.T.);
#496=EDGE_CURVE('',#625,#625,#47,.F.);
#497=EDGE_CURVE('',#626,#626,#48,.T.);
#498=EDGE_CURVE('',#627,#627,#49,.T.);
#499=EDGE_CURVE('',#628,#629,#50,.T.);
#500=EDGE_CURVE('',#629,#630,#51,.F.);
#501=EDGE_CURVE('',#630,#631,#747,.F.);
#502=EDGE_CURVE('',#631,#632,#52,.T.);
#503=EDGE_CURVE('',#632,#633,#748,.T.);
#504=EDGE_CURVE('',#633,#628,#53,.F.);
#505=EDGE_CURVE('',#634,#634,#54,.T.);
#506=EDGE_CURVE('',#635,#631,#55,.T.);
#507=EDGE_CURVE('',#636,#630,#56,.T.);
#508=EDGE_CURVE('',#635,#636,#749,.T.);
#509=EDGE_CURVE('',#637,#632,#57,.T.);
#510=EDGE_CURVE('',#637,#635,#58,.F.);
#511=EDGE_CURVE('',#638,#633,#59,.T.);
#512=EDGE_CURVE('',#638,#637,#750,.F.);
#513=EDGE_CURVE('',#639,#628,#60,.T.);
#514=EDGE_CURVE('',#639,#638,#61,.T.);
#515=EDGE_CURVE('',#606,#639,#19,.F.);
#516=EDGE_CURVE('',#628,#606,#20,.T.);
#517=EDGE_CURVE('',#605,#629,#21,.F.);
#518=EDGE_CURVE('',#640,#605,#22,.T.);
#519=EDGE_CURVE('',#640,#629,#62,.T.);
#520=EDGE_CURVE('',#636,#640,#63,.T.);
#521=EDGE_CURVE('',#635,#622,#751,.T.);
#522=EDGE_CURVE('',#636,#623,#752,.F.);
#523=EDGE_CURVE('',#637,#621,#753,.T.);
#524=EDGE_CURVE('',#620,#638,#754,.F.);
#525=EDGE_CURVE('',#604,#641,#64,.F.);
#526=EDGE_CURVE('',#641,#624,#755,.F.);
#527=EDGE_CURVE('',#641,#555,#756,.T.);
#528=EDGE_CURVE('',#553,#542,#757,.T.);
#529=EDGE_CURVE('',#543,#557,#758,.T.);
#530=EDGE_CURVE('',#610,#619,#759,.T.);
#531=EDGE_CURVE('',#642,#571,#760,.T.);
#532=EDGE_CURVE('',#602,#642,#761,.T.);
#533=EDGE_CURVE('',#643,#643,#23,.T.);
#534=EDGE_CURVE('',#644,#577,#762,.F.);
#535=EDGE_CURVE('',#642,#644,#65,.F.);
#536=EDGE_CURVE('',#594,#644,#763,.T.);
#537=EDGE_CURVE('',#645,#645,#66,.T.);
#538=EDGE_CURVE('',#646,#646,#67,.T.);
#539=EDGE_CURVE('',#609,#617,#764,.T.);
#540=EDGE_CURVE('',#611,#618,#765,.T.);
#541=EDGE_CURVE('',#616,#542,#766,.T.);
#542=VERTEX_POINT('',#1544);
#543=VERTEX_POINT('',#1545);
#544=VERTEX_POINT('',#1547);
#545=VERTEX_POINT('',#1549);
#546=VERTEX_POINT('',#1551);
#547=VERTEX_POINT('',#1553);
#548=VERTEX_POINT('',#1557);
#549=VERTEX_POINT('',#1558);
#550=VERTEX_POINT('',#1560);
#551=VERTEX_POINT('',#1562);
#552=VERTEX_POINT('',#1566);
#553=VERTEX_POINT('',#1567);
#554=VERTEX_POINT('',#1569);
#555=VERTEX_POINT('',#1571);
#556=VERTEX_POINT('',#1575);
#557=VERTEX_POINT('',#1576);
#558=VERTEX_POINT('',#1578);
#559=VERTEX_POINT('',#1580);
#560=VERTEX_POINT('',#1582);
#561=VERTEX_POINT('',#1584);
#562=VERTEX_POINT('',#1588);
#563=VERTEX_POINT('',#1589);
#564=VERTEX_POINT('',#1594);
#565=VERTEX_POINT('',#1595);
#566=VERTEX_POINT('',#1597);
#567=VERTEX_POINT('',#1599);
#568=VERTEX_POINT('',#1601);
#569=VERTEX_POINT('',#1603);
#570=VERTEX_POINT('',#1607);
#571=VERTEX_POINT('',#1608);
#572=VERTEX_POINT('',#1612);
#573=VERTEX_POINT('',#1614);
#574=VERTEX_POINT('',#1616);
#575=VERTEX_POINT('',#1618);
#576=VERTEX_POINT('',#1620);
#577=VERTEX_POINT('',#1622);
#578=VERTEX_POINT('',#1626);
#579=VERTEX_POINT('',#1627);
#580=VERTEX_POINT('',#1629);
#581=VERTEX_POINT('',#1631);
#582=VERTEX_POINT('',#1636);
#583=VERTEX_POINT('',#1638);
#584=VERTEX_POINT('',#1640);
#585=VERTEX_POINT('',#1642);
#586=VERTEX_POINT('',#1646);
#587=VERTEX_POINT('',#1648);
#588=VERTEX_POINT('',#1650);
#589=VERTEX_POINT('',#1652);
#590=VERTEX_POINT('',#1656);
#591=VERTEX_POINT('',#1657);
#592=VERTEX_POINT('',#1659);
#593=VERTEX_POINT('',#1661);
#594=VERTEX_POINT('',#1667);
#595=VERTEX_POINT('',#1686);
#596=VERTEX_POINT('',#1688);
#597=VERTEX_POINT('',#1689);
#598=VERTEX_POINT('',#1694);
#599=VERTEX_POINT('',#1695);
#600=VERTEX_POINT('',#1697);
#601=VERTEX_POINT('',#1699);
#602=VERTEX_POINT('',#1703);
#603=VERTEX_POINT('',#1705);
#604=VERTEX_POINT('',#1711);
#605=VERTEX_POINT('',#1713);
#606=VERTEX_POINT('',#1715);
#607=VERTEX_POINT('',#1717);
#608=VERTEX_POINT('',#1723);
#609=VERTEX_POINT('',#1731);
#610=VERTEX_POINT('',#1735);
#611=VERTEX_POINT('',#1737);
#612=VERTEX_POINT('',#1742);
#613=VERTEX_POINT('',#1743);
#614=VERTEX_POINT('',#1748);
#615=VERTEX_POINT('',#1750);
#616=VERTEX_POINT('',#1754);
#617=VERTEX_POINT('',#1756);
#618=VERTEX_POINT('',#1758);
#619=VERTEX_POINT('',#1760);
#620=VERTEX_POINT('',#1763);
#621=VERTEX_POINT('',#1765);
#622=VERTEX_POINT('',#1767);
#623=VERTEX_POINT('',#1769);
#624=VERTEX_POINT('',#1771);
#625=VERTEX_POINT('',#1775);
#626=VERTEX_POINT('',#1778);
#627=VERTEX_POINT('',#1780);
#628=VERTEX_POINT('',#1783);
#629=VERTEX_POINT('',#1784);
#630=VERTEX_POINT('',#1786);
#631=VERTEX_POINT('',#1788);
#632=VERTEX_POINT('',#1790);
#633=VERTEX_POINT('',#1792);
#634=VERTEX_POINT('',#1796);
#635=VERTEX_POINT('',#1799);
#636=VERTEX_POINT('',#1801);
#637=VERTEX_POINT('',#1805);
#638=VERTEX_POINT('',#1809);
#639=VERTEX_POINT('',#1813);
#640=VERTEX_POINT('',#1892);
#641=VERTEX_POINT('',#1907);
#642=VERTEX_POINT('',#1920);
#643=VERTEX_POINT('',#1934);
#644=VERTEX_POINT('',#1936);
#645=VERTEX_POINT('',#1943);
#646=VERTEX_POINT('',#1946);
#647=LINE('',#1543,#767);
#648=LINE('',#1546,#768);
#649=LINE('',#1548,#769);
#650=LINE('',#1550,#770);
#651=LINE('',#1552,#771);
#652=LINE('',#1554,#772);
#653=LINE('',#1556,#773);
#654=LINE('',#1559,#774);
#655=LINE('',#1561,#775);
#656=LINE('',#1563,#776);
#657=LINE('',#1565,#777);
#658=LINE('',#1568,#778);
#659=LINE('',#1570,#779);
#660=LINE('',#1572,#780);
#661=LINE('',#1574,#781);
#662=LINE('',#1577,#782);
#663=LINE('',#1579,#783);
#664=LINE('',#1581,#784);
#665=LINE('',#1583,#785);
#666=LINE('',#1585,#786);
#667=LINE('',#1587,#787);
#668=LINE('',#1590,#788);
#669=LINE('',#1591,#789);
#670=LINE('',#1593,#790);
#671=LINE('',#1596,#791);
#672=LINE('',#1598,#792);
#673=LINE('',#1600,#793);
#674=LINE('',#1602,#794);
#675=LINE('',#1604,#795);
#676=LINE('',#1606,#796);
#677=LINE('',#1609,#797);
#678=LINE('',#1610,#798);
#679=LINE('',#1613,#799);
#680=LINE('',#1615,#800);
#681=LINE('',#1617,#801);
#682=LINE('',#1619,#802);
#683=LINE('',#1621,#803);
#684=LINE('',#1625,#804);
#685=LINE('',#1628,#805);
#686=LINE('',#1630,#806);
#687=LINE('',#1632,#807);
#688=LINE('',#1633,#808);
#689=LINE('',#1635,#809);
#690=LINE('',#1637,#810);
#691=LINE('',#1639,#811);
#692=LINE('',#1641,#812);
#693=LINE('',#1643,#813);
#694=LINE('',#1645,#814);
#695=LINE('',#1647,#815);
#696=LINE('',#1649,#816);
#697=LINE('',#1651,#817);
#698=LINE('',#1653,#818);
#699=LINE('',#1655,#819);
#700=LINE('',#1658,#820);
#701=LINE('',#1660,#821);
#702=LINE('',#1662,#822);
#703=LINE('',#1663,#823);
#704=LINE('',#1665,#824);
#705=LINE('',#1666,#825);
#706=LINE('',#1668,#826);
#707=LINE('',#1670,#827);
#708=LINE('',#1671,#828);
#709=LINE('',#1673,#829);
#710=LINE('',#1687,#830);
#711=LINE('',#1693,#831);
#712=LINE('',#1696,#832);
#713=LINE('',#1698,#833);
#714=LINE('',#1700,#834);
#715=LINE('',#1702,#835);
#716=LINE('',#1704,#836);
#717=LINE('',#1706,#837);
#718=LINE('',#1708,#838);
#719=LINE('',#1712,#839);
#720=LINE('',#1716,#840);
#721=LINE('',#1720,#841);
#722=LINE('',#1721,#842);
#723=LINE('',#1722,#843);
#724=LINE('',#1724,#844);
#725=LINE('',#1726,#845);
#726=LINE('',#1727,#846);
#727=LINE('',#1728,#847);
#728=LINE('',#1730,#848);
#729=LINE('',#1732,#849);
#730=LINE('',#1734,#850);
#731=LINE('',#1736,#851);
#732=LINE('',#1738,#852);
#733=LINE('',#1741,#853);
#734=LINE('',#1744,#854);
#735=LINE('',#1747,#855);
#736=LINE('',#1749,#856);
#737=LINE('',#1751,#857);
#738=LINE('',#1753,#858);
#739=LINE('',#1755,#859);
#740=LINE('',#1757,#860);
#741=LINE('',#1759,#861);
#742=LINE('',#1761,#862);
#743=LINE('',#1764,#863);
#744=LINE('',#1768,#864);
#745=LINE('',#1772,#865);
#746=LINE('',#1773,#866);
#747=LINE('',#1787,#867);
#748=LINE('',#1791,#868);
#749=LINE('',#1802,#869);
#750=LINE('',#1810,#870);
#751=LINE('',#1898,#871);
#752=LINE('',#1899,#872);
#753=LINE('',#1901,#873);
#754=LINE('',#1903,#874);
#755=LINE('',#1908,#875);
#756=LINE('',#1910,#876);
#757=LINE('',#1911,#877);
#758=LINE('',#1914,#878);
#759=LINE('',#1917,#879);
#760=LINE('',#1919,#880);
#761=LINE('',#1921,#881);
#762=LINE('',#1935,#882);
#763=LINE('',#1939,#883);
#764=LINE('',#1949,#884);
#765=LINE('',#1951,#885);
#766=LINE('',#1954,#886);
#767=VECTOR('',#1241,1.);
#768=VECTOR('',#1242,1.);
#769=VECTOR('',#1243,1.);
#770=VECTOR('',#1244,1.);
#771=VECTOR('',#1245,1.);
#772=VECTOR('',#1246,1.);
#773=VECTOR('',#1249,1.);
#774=VECTOR('',#1250,1.);
#775=VECTOR('',#1251,1.);
#776=VECTOR('',#1252,1.);
#777=VECTOR('',#1255,1.);
#778=VECTOR('',#1256,1.);
#779=VECTOR('',#1257,1.);
#780=VECTOR('',#1258,1.);
#781=VECTOR('',#1261,1.);
#782=VECTOR('',#1262,1.);
#783=VECTOR('',#1263,1.);
#784=VECTOR('',#1264,1.);
#785=VECTOR('',#1265,1.);
#786=VECTOR('',#1266,1.);
#787=VECTOR('',#1269,1.);
#788=VECTOR('',#1270,1.);
#789=VECTOR('',#1271,1.);
#790=VECTOR('',#1274,1.);
#791=VECTOR('',#1275,1.);
#792=VECTOR('',#1276,1.);
#793=VECTOR('',#1277,1.);
#794=VECTOR('',#1278,1.);
#795=VECTOR('',#1279,1.);
#796=VECTOR('',#1282,1.);
#797=VECTOR('',#1283,1.);
#798=VECTOR('',#1284,1.);
#799=VECTOR('',#1287,1.);
#800=VECTOR('',#1288,1.);
#801=VECTOR('',#1289,1.);
#802=VECTOR('',#1290,1.);
#803=VECTOR('',#1291,1.);
#804=VECTOR('',#1296,1.);
#805=VECTOR('',#1297,1.);
#806=VECTOR('',#1298,1.);
#807=VECTOR('',#1299,1.);
#808=VECTOR('',#1300,1.);
#809=VECTOR('',#1303,1.);
#810=VECTOR('',#1304,1.);
#811=VECTOR('',#1305,1.);
#812=VECTOR('',#1306,1.);
#813=VECTOR('',#1307,1.);
#814=VECTOR('',#1310,1.);
#815=VECTOR('',#1311,1.);
#816=VECTOR('',#1312,1.);
#817=VECTOR('',#1313,1.);
#818=VECTOR('',#1314,1.);
#819=VECTOR('',#1317,1.);
#820=VECTOR('',#1318,1.);
#821=VECTOR('',#1319,1.);
#822=VECTOR('',#1320,1.);
#823=VECTOR('',#1321,1.);
#824=VECTOR('',#1324,1.);
#825=VECTOR('',#1325,1.);
#826=VECTOR('',#1326,1.);
#827=VECTOR('',#1329,1.);
#828=VECTOR('',#1330,1.);
#829=VECTOR('',#1333,1.);
#830=VECTOR('',#1336,1.);
#831=VECTOR('',#1343,1.);
#832=VECTOR('',#1344,1.);
#833=VECTOR('',#1345,1.);
#834=VECTOR('',#1346,1.);
#835=VECTOR('',#1349,1.);
#836=VECTOR('',#1350,1.);
#837=VECTOR('',#1351,1.);
#838=VECTOR('',#1354,1.);
#839=VECTOR('',#1359,1.);
#840=VECTOR('',#1362,1.);
#841=VECTOR('',#1367,1.);
#842=VECTOR('',#1368,1.);
#843=VECTOR('',#1369,1.);
#844=VECTOR('',#1370,1.);
#845=VECTOR('',#1373,1.);
#846=VECTOR('',#1374,1.);
#847=VECTOR('',#1375,1.);
#848=VECTOR('',#1378,1.);
#849=VECTOR('',#1379,1.);
#850=VECTOR('',#1382,1.);
#851=VECTOR('',#1383,1.);
#852=VECTOR('',#1384,1.);
#853=VECTOR('',#1389,1.);
#854=VECTOR('',#1390,1.);
#855=VECTOR('',#1395,1.);
#856=VECTOR('',#1396,1.);
#857=VECTOR('',#1397,1.);
#858=VECTOR('',#1400,1.);
#859=VECTOR('',#1401,1.);
#860=VECTOR('',#1402,1.);
#861=VECTOR('',#1403,1.);
#862=VECTOR('',#1404,1.);
#863=VECTOR('',#1407,1.);
#864=VECTOR('',#1410,1.);
#865=VECTOR('',#1413,1.);
#866=VECTOR('',#1414,1.);
#867=VECTOR('',#1429,1.);
#868=VECTOR('',#1432,1.);
#869=VECTOR('',#1445,1.);
#870=VECTOR('',#1456,1.);
#871=VECTOR('',#1475,1.);
#872=VECTOR('',#1476,1.);
#873=VECTOR('',#1479,1.);
#874=VECTOR('',#1482,1.);
#875=VECTOR('',#1489,1.);
#876=VECTOR('',#1492,1.);
#877=VECTOR('',#1493,1.);
#878=VECTOR('',#1498,1.);
#879=VECTOR('',#1503,1.);
#880=VECTOR('',#1506,1.);
#881=VECTOR('',#1507,1.);
#882=VECTOR('',#1510,1.);
#883=VECTOR('',#1515,1.);
#884=VECTOR('',#1530,1.);
#885=VECTOR('',#1533,1.);
#886=VECTOR('',#1538,1.);
#887=EDGE_LOOP('',(#68,#69,#70,#71,#72,#73));
#888=EDGE_LOOP('',(#74,#75,#76,#77));
#889=EDGE_LOOP('',(#78,#79,#80,#81));
#890=EDGE_LOOP('',(#82,#83,#84,#85,#86,#87));
#891=EDGE_LOOP('',(#88,#89,#90,#91));
#892=EDGE_LOOP('',(#92,#93,#94,#95,#96,#97));
#893=EDGE_LOOP('',(#98,#99,#100,#101,#102,#103,#104,#105,#106,#107,#108,
#109));
#894=EDGE_LOOP('',(#110,#111,#112,#113,#114,#115));
#895=EDGE_LOOP('',(#116,#117,#118,#119,#120,#121));
#896=EDGE_LOOP('',(#122,#123,#124,#125,#126,#127));
#897=EDGE_LOOP('',(#128,#129,#130,#131,#132,#133));
#898=EDGE_LOOP('',(#134,#135,#136,#137,#138,#139));
#899=EDGE_LOOP('',(#140,#141,#142,#143));
#900=EDGE_LOOP('',(#144,#145,#146,#147));
#901=EDGE_LOOP('',(#148));
#902=EDGE_LOOP('',(#149,#150,#151,#152));
#903=EDGE_LOOP('',(#153,#154,#155,#156));
#904=EDGE_LOOP('',(#157,#158,#159,#160,#161,#162));
#905=EDGE_LOOP('',(#163,#164,#165,#166));
#906=EDGE_LOOP('',(#167,#168,#169,#170,#171,#172,#173,#174));
#907=EDGE_LOOP('',(#175,#176,#177,#178,#179,#180,#181,#182));
#908=EDGE_LOOP('',(#183,#184,#185,#186,#187,#188));
#909=EDGE_LOOP('',(#189,#190,#191,#192,#193,#194));
#910=EDGE_LOOP('',(#195,#196,#197,#198,#199,#200));
#911=EDGE_LOOP('',(#201,#202,#203,#204));
#912=EDGE_LOOP('',(#205,#206,#207,#208,#209));
#913=EDGE_LOOP('',(#210,#211,#212,#213));
#914=EDGE_LOOP('',(#214,#215,#216,#217,#218,#219,#220,#221,#222,#223,#224,
#225,#226,#227,#228,#229,#230,#231,#232,#233));
#915=EDGE_LOOP('',(#234));
#916=EDGE_LOOP('',(#235));
#917=EDGE_LOOP('',(#236));
#918=EDGE_LOOP('',(#237));
#919=EDGE_LOOP('',(#238,#239,#240,#241,#242,#243));
#920=EDGE_LOOP('',(#244));
#921=EDGE_LOOP('',(#245));
#922=EDGE_LOOP('',(#246,#247,#248,#249));
#923=EDGE_LOOP('',(#250,#251,#252,#253));
#924=EDGE_LOOP('',(#254,#255,#256,#257));
#925=EDGE_LOOP('',(#258,#259,#260,#261));
#926=EDGE_LOOP('',(#262,#263,#264));
#927=EDGE_LOOP('',(#265,#266,#267,#268));
#928=EDGE_LOOP('',(#269,#270,#271));
#929=EDGE_LOOP('',(#272,#273,#274,#275));
#930=EDGE_LOOP('',(#276));
#931=EDGE_LOOP('',(#277));
#932=EDGE_LOOP('',(#278,#279,#280,#281));
#933=EDGE_LOOP('',(#282,#283,#284,#285));
#934=EDGE_LOOP('',(#286,#287,#288,#289));
#935=EDGE_LOOP('',(#290,#291,#292,#293,#294,#295,#296));
#936=EDGE_LOOP('',(#297,#298,#299,#300,#301,#302,#303));
#937=EDGE_LOOP('',(#304,#305,#306,#307,#308,#309));
#938=EDGE_LOOP('',(#310,#311,#312,#313));
#939=EDGE_LOOP('',(#314,#315,#316,#317));
#940=EDGE_LOOP('',(#318,#319,#320,#321));
#941=EDGE_LOOP('',(#322,#323,#324,#325,#326,#327));
#942=EDGE_LOOP('',(#328,#329,#330,#331));
#943=EDGE_LOOP('',(#332));
#944=EDGE_LOOP('',(#333,#334,#335,#336));
#945=EDGE_LOOP('',(#337,#338,#339,#340));
#946=EDGE_LOOP('',(#341,#342,#343,#344,#345,#346,#347,#348,#349,#350,#351,
#352));
#947=EDGE_LOOP('',(#353));
#948=EDGE_LOOP('',(#354));
#949=EDGE_LOOP('',(#355));
#950=EDGE_LOOP('',(#356));
#951=EDGE_LOOP('',(#357));
#952=EDGE_LOOP('',(#358));
#953=EDGE_LOOP('',(#359,#360,#361,#362));
#954=EDGE_LOOP('',(#363,#364,#365,#366));
#955=EDGE_LOOP('',(#367,#368,#369,#370,#371,#372));
#956=EDGE_LOOP('',(#373,#374,#375,#376));
#957=EDGE_LOOP('',(#377,#378,#379,#380,#381,#382,#383));
#958=FACE_BOUND('',#887,.T.);
#959=FACE_BOUND('',#888,.T.);
#960=FACE_BOUND('',#889,.T.);
#961=FACE_BOUND('',#890,.T.);
#962=FACE_BOUND('',#891,.T.);
#963=FACE_BOUND('',#892,.T.);
#964=FACE_BOUND('',#893,.T.);
#965=FACE_BOUND('',#894,.T.);
#966=FACE_BOUND('',#895,.T.);
#967=FACE_BOUND('',#896,.T.);
#968=FACE_BOUND('',#897,.T.);
#969=FACE_BOUND('',#898,.T.);
#970=FACE_BOUND('',#899,.T.);
#971=FACE_BOUND('',#900,.T.);
#972=FACE_BOUND('',#901,.T.);
#973=FACE_BOUND('',#902,.T.);
#974=FACE_BOUND('',#903,.T.);
#975=FACE_BOUND('',#904,.T.);
#976=FACE_BOUND('',#905,.T.);
#977=FACE_BOUND('',#906,.T.);
#978=FACE_BOUND('',#907,.T.);
#979=FACE_BOUND('',#908,.T.);
#980=FACE_BOUND('',#909,.T.);
#981=FACE_BOUND('',#910,.T.);
#982=FACE_BOUND('',#911,.T.);
#983=FACE_BOUND('',#912,.T.);
#984=FACE_BOUND('',#913,.T.);
#985=FACE_BOUND('',#914,.T.);
#986=FACE_BOUND('',#915,.T.);
#987=FACE_BOUND('',#916,.T.);
#988=FACE_BOUND('',#917,.T.);
#989=FACE_BOUND('',#918,.T.);
#990=FACE_BOUND('',#919,.T.);
#991=FACE_BOUND('',#920,.T.);
#992=FACE_BOUND('',#921,.T.);
#993=FACE_BOUND('',#922,.T.);
#994=FACE_BOUND('',#923,.T.);
#995=FACE_BOUND('',#924,.T.);
#996=FACE_BOUND('',#925,.T.);
#997=FACE_BOUND('',#926,.T.);
#998=FACE_BOUND('',#927,.T.);
#999=FACE_BOUND('',#928,.T.);
#1000=FACE_BOUND('',#929,.T.);
#1001=FACE_BOUND('',#930,.T.);
#1002=FACE_BOUND('',#931,.T.);
#1003=FACE_BOUND('',#932,.T.);
#1004=FACE_BOUND('',#933,.T.);
#1005=FACE_BOUND('',#934,.T.);
#1006=FACE_BOUND('',#935,.T.);
#1007=FACE_BOUND('',#936,.T.);
#1008=FACE_BOUND('',#937,.T.);
#1009=FACE_BOUND('',#938,.T.);
#1010=FACE_BOUND('',#939,.T.);
#1011=FACE_BOUND('',#940,.T.);
#1012=FACE_BOUND('',#941,.T.);
#1013=FACE_BOUND('',#942,.T.);
#1014=FACE_BOUND('',#943,.T.);
#1015=FACE_BOUND('',#944,.T.);
#1016=FACE_BOUND('',#945,.T.);
#1017=FACE_BOUND('',#946,.T.);
#1018=FACE_BOUND('',#947,.T.);
#1019=FACE_BOUND('',#948,.T.);
#1020=FACE_BOUND('',#949,.T.);
#1021=FACE_BOUND('',#950,.T.);
#1022=FACE_BOUND('',#951,.T.);
#1023=FACE_BOUND('',#952,.T.);
#1024=FACE_BOUND('',#953,.T.);
#1025=FACE_BOUND('',#954,.T.);
#1026=FACE_BOUND('',#955,.T.);
#1027=FACE_BOUND('',#956,.T.);
#1028=FACE_BOUND('',#957,.T.);
#1029=PLANE('',#1146);
#1030=PLANE('',#1147);
#1031=PLANE('',#1148);
#1032=PLANE('',#1149);
#1033=PLANE('',#1150);
#1034=PLANE('',#1151);
#1035=PLANE('',#1152);
#1036=PLANE('',#1155);
#1037=PLANE('',#1156);
#1038=PLANE('',#1157);
#1039=PLANE('',#1158);
#1040=PLANE('',#1159);
#1041=PLANE('',#1160);
#1042=PLANE('',#1161);
#1043=PLANE('',#1165);
#1044=PLANE('',#1166);
#1045=PLANE('',#1167);
#1046=PLANE('',#1172);
#1047=PLANE('',#1173);
#1048=PLANE('',#1174);
#1049=PLANE('',#1175);
#1050=PLANE('',#1176);
#1051=PLANE('',#1177);
#1052=PLANE('',#1179);
#1053=PLANE('',#1180);
#1054=PLANE('',#1188);
#1055=PLANE('',#1193);
#1056=PLANE('',#1211);
#1057=PLANE('',#1213);
#1058=PLANE('',#1217);
#1059=PLANE('',#1218);
#1060=PLANE('',#1219);
#1061=PLANE('',#1220);
#1062=PLANE('',#1221);
#1063=PLANE('',#1222);
#1064=PLANE('',#1225);
#1065=PLANE('',#1226);
#1066=PLANE('',#1231);
#1067=PLANE('',#1232);
#1068=PLANE('',#1233);
#1069=PLANE('',#1234);
#1070=PLANE('',#1235);
#1071=PLANE('',#1236);
#1072=ADVANCED_FACE('',(#958),#1029,.F.);
#1073=ADVANCED_FACE('',(#959),#1030,.F.);
#1074=ADVANCED_FACE('',(#960),#1031,.F.);
#1075=ADVANCED_FACE('',(#961),#1032,.F.);
#1076=ADVANCED_FACE('',(#962),#1033,.T.);
#1077=ADVANCED_FACE('',(#963),#1034,.T.);
#1078=ADVANCED_FACE('',(#964),#1035,.T.);
#1079=ADVANCED_FACE('',(#965),#1036,.T.);
#1080=ADVANCED_FACE('',(#966),#1037,.F.);
#1081=ADVANCED_FACE('',(#967),#1038,.F.);
#1082=ADVANCED_FACE('',(#968),#1039,.T.);
#1083=ADVANCED_FACE('',(#969),#1040,.F.);
#1084=ADVANCED_FACE('',(#970),#1041,.F.);
#1085=ADVANCED_FACE('',(#971),#1042,.F.);
#1086=ADVANCED_FACE('',(#972,#973),#24,.T.);
#1087=ADVANCED_FACE('',(#974),#1043,.T.);
#1088=ADVANCED_FACE('',(#975),#1044,.T.);
#1089=ADVANCED_FACE('',(#976),#1045,.T.);
#1090=ADVANCED_FACE('',(#977),#25,.F.);
#1091=ADVANCED_FACE('',(#978),#1046,.T.);
#1092=ADVANCED_FACE('',(#979),#1047,.T.);
#1093=ADVANCED_FACE('',(#980),#1048,.T.);
#1094=ADVANCED_FACE('',(#981),#1049,.T.);
#1095=ADVANCED_FACE('',(#982),#1050,.T.);
#1096=ADVANCED_FACE('',(#983),#1051,.T.);
#1097=ADVANCED_FACE('',(#984),#1052,.F.);
#1098=ADVANCED_FACE('',(#985,#986),#1053,.F.);
#1099=ADVANCED_FACE('',(#987,#988),#26,.F.);
#1100=ADVANCED_FACE('',(#989,#990),#1054,.T.);
#1101=ADVANCED_FACE('',(#991,#992),#1055,.T.);
#1102=ADVANCED_FACE('',(#993),#27,.T.);
#1103=ADVANCED_FACE('',(#994),#14,.T.);
#1104=ADVANCED_FACE('',(#995),#28,.T.);
#1105=ADVANCED_FACE('',(#996),#15,.T.);
#1106=ADVANCED_FACE('',(#997),#12,.T.);
#1107=ADVANCED_FACE('',(#998),#16,.F.);
#1108=ADVANCED_FACE('',(#999),#13,.T.);
#1109=ADVANCED_FACE('',(#1000),#17,.T.);
#1110=ADVANCED_FACE('',(#1001,#1002),#29,.F.);
#1111=ADVANCED_FACE('',(#1003),#1056,.T.);
#1112=ADVANCED_FACE('',(#1004),#30,.T.);
#1113=ADVANCED_FACE('',(#1005),#1057,.F.);
#1114=ADVANCED_FACE('',(#1006),#31,.F.);
#1115=ADVANCED_FACE('',(#1007),#32,.F.);
#1116=ADVANCED_FACE('',(#1008),#1058,.T.);
#1117=ADVANCED_FACE('',(#1009),#1059,.T.);
#1118=ADVANCED_FACE('',(#1010),#1060,.T.);
#1119=ADVANCED_FACE('',(#1011),#1061,.T.);
#1120=ADVANCED_FACE('',(#1012),#1062,.T.);
#1121=ADVANCED_FACE('',(#1013),#1063,.F.);
#1122=ADVANCED_FACE('',(#1014,#1015),#33,.F.);
#1123=ADVANCED_FACE('',(#1016),#1064,.T.);
#1124=ADVANCED_FACE('',(#1017),#1065,.T.);
#1125=ADVANCED_FACE('',(#1018,#1019),#34,.F.);
#1126=ADVANCED_FACE('',(#1020,#1021),#35,.F.);
#1127=ADVANCED_FACE('',(#1022,#1023),#1066,.T.);
#1128=ADVANCED_FACE('',(#1024),#1067,.T.);
#1129=ADVANCED_FACE('',(#1025),#1068,.F.);
#1130=ADVANCED_FACE('',(#1026),#1069,.T.);
#1131=ADVANCED_FACE('',(#1027),#1070,.F.);
#1132=ADVANCED_FACE('',(#1028),#1071,.T.);
#1133=CLOSED_SHELL('',(#1072,#1073,#1074,#1075,#1076,#1077,#1078,#1079,
#1080,#1081,#1082,#1083,#1084,#1085,#1086,#1087,#1088,#1089,#1090,#1091,
#1092,#1093,#1094,#1095,#1096,#1097,#1098,#1099,#1100,#1101,#1102,#1103,
#1104,#1105,#1106,#1107,#1108,#1109,#1110,#1111,#1112,#1113,#1114,#1115,
#1116,#1117,#1118,#1119,#1120,#1121,#1122,#1123,#1124,#1125,#1126,#1127,
#1128,#1129,#1130,#1131,#1132));
#1134=STYLED_ITEM('',(#1135),#1142);
#1135=PRESENTATION_STYLE_ASSIGNMENT((#1136));
#1136=SURFACE_STYLE_USAGE(.BOTH.,#1137);
#1137=SURFACE_SIDE_STYLE('',(#1138));
#1138=SURFACE_STYLE_FILL_AREA(#1139);
#1139=FILL_AREA_STYLE('',(#1140));
#1140=FILL_AREA_STYLE_COLOUR('',#1141);
#1141=COLOUR_RGB('',0.235294117647059,0.235294117647059,0.235294117647059);
#1142=MANIFOLD_SOLID_BREP('Bottom Right Back',#1133);
#1143=SHAPE_DEFINITION_REPRESENTATION(#1962,#1144);
#1144=SHAPE_REPRESENTATION('Bottom Right Back',(#1145),#1957);
#1145=AXIS2_PLACEMENT_3D('',#1541,#1237,#1238);
#1146=AXIS2_PLACEMENT_3D('',#1542,#1239,#1240);
#1147=AXIS2_PLACEMENT_3D('',#1555,#1247,#1248);
#1148=AXIS2_PLACEMENT_3D('',#1564,#1253,#1254);
#1149=AXIS2_PLACEMENT_3D('',#1573,#1259,#1260);
#1150=AXIS2_PLACEMENT_3D('',#1586,#1267,#1268);
#1151=AXIS2_PLACEMENT_3D('',#1592,#1272,#1273);
#1152=AXIS2_PLACEMENT_3D('',#1605,#1280,#1281);
#1153=AXIS2_PLACEMENT_3D('',#1611,#1285,#1286);
#1154=AXIS2_PLACEMENT_3D('',#1623,#1292,#1293);
#1155=AXIS2_PLACEMENT_3D('',#1624,#1294,#1295);
#1156=AXIS2_PLACEMENT_3D('',#1634,#1301,#1302);
#1157=AXIS2_PLACEMENT_3D('',#1644,#1308,#1309);
#1158=AXIS2_PLACEMENT_3D('',#1654,#1315,#1316);
#1159=AXIS2_PLACEMENT_3D('',#1664,#1322,#1323);
#1160=AXIS2_PLACEMENT_3D('',#1669,#1327,#1328);
#1161=AXIS2_PLACEMENT_3D('',#1672,#1331,#1332);
#1162=AXIS2_PLACEMENT_3D('',#1674,#1334,#1335);
#1163=AXIS2_PLACEMENT_3D('',#1690,#1337,#1338);
#1164=AXIS2_PLACEMENT_3D('',#1691,#1339,#1340);
#1165=AXIS2_PLACEMENT_3D('',#1692,#1341,#1342);
#1166=AXIS2_PLACEMENT_3D('',#1701,#1347,#1348);
#1167=AXIS2_PLACEMENT_3D('',#1707,#1352,#1353);
#1168=AXIS2_PLACEMENT_3D('',#1709,#1355,#1356);
#1169=AXIS2_PLACEMENT_3D('',#1710,#1357,#1358);
#1170=AXIS2_PLACEMENT_3D('',#1714,#1360,#1361);
#1171=AXIS2_PLACEMENT_3D('',#1718,#1363,#1364);
#1172=AXIS2_PLACEMENT_3D('',#1719,#1365,#1366);
#1173=AXIS2_PLACEMENT_3D('',#1725,#1371,#1372);
#1174=AXIS2_PLACEMENT_3D('',#1729,#1376,#1377);
#1175=AXIS2_PLACEMENT_3D('',#1733,#1380,#1381);
#1176=AXIS2_PLACEMENT_3D('',#1739,#1385,#1386);
#1177=AXIS2_PLACEMENT_3D('',#1740,#1387,#1388);
#1178=AXIS2_PLACEMENT_3D('',#1745,#1391,#1392);
#1179=AXIS2_PLACEMENT_3D('',#1746,#1393,#1394);
#1180=AXIS2_PLACEMENT_3D('',#1752,#1398,#1399);
#1181=AXIS2_PLACEMENT_3D('',#1762,#1405,#1406);
#1182=AXIS2_PLACEMENT_3D('',#1766,#1408,#1409);
#1183=AXIS2_PLACEMENT_3D('',#1770,#1411,#1412);
#1184=AXIS2_PLACEMENT_3D('',#1774,#1415,#1416);
#1185=AXIS2_PLACEMENT_3D('',#1776,#1417,#1418);
#1186=AXIS2_PLACEMENT_3D('',#1777,#1419,#1420);
#1187=AXIS2_PLACEMENT_3D('',#1779,#1421,#1422);
#1188=AXIS2_PLACEMENT_3D('',#1781,#1423,#1424);
#1189=AXIS2_PLACEMENT_3D('',#1782,#1425,#1426);
#1190=AXIS2_PLACEMENT_3D('',#1785,#1427,#1428);
#1191=AXIS2_PLACEMENT_3D('',#1789,#1430,#1431);
#1192=AXIS2_PLACEMENT_3D('',#1793,#1433,#1434);
#1193=AXIS2_PLACEMENT_3D('',#1794,#1435,#1436);
#1194=AXIS2_PLACEMENT_3D('',#1795,#1437,#1438);
#1195=AXIS2_PLACEMENT_3D('',#1797,#1439,#1440);
#1196=AXIS2_PLACEMENT_3D('',#1798,#1441,#1442);
#1197=AXIS2_PLACEMENT_3D('',#1800,#1443,#1444);
#1198=AXIS2_PLACEMENT_3D('',#1803,#1446,#1447);
#1199=AXIS2_PLACEMENT_3D('',#1804,#1448,#1449);
#1200=AXIS2_PLACEMENT_3D('',#1806,#1450,#1451);
#1201=AXIS2_PLACEMENT_3D('',#1807,#1452,#1453);
#1202=AXIS2_PLACEMENT_3D('',#1808,#1454,#1455);
#1203=AXIS2_PLACEMENT_3D('',#1811,#1457,#1458);
#1204=AXIS2_PLACEMENT_3D('',#1812,#1459,#1460);
#1205=AXIS2_PLACEMENT_3D('',#1814,#1461,#1462);
#1206=AXIS2_PLACEMENT_3D('',#1853,#1463,#1464);
#1207=AXIS2_PLACEMENT_3D('',#1893,#1465,#1466);
#1208=AXIS2_PLACEMENT_3D('',#1894,#1467,#1468);
#1209=AXIS2_PLACEMENT_3D('',#1895,#1469,#1470);
#1210=AXIS2_PLACEMENT_3D('',#1896,#1471,#1472);
#1211=AXIS2_PLACEMENT_3D('',#1897,#1473,#1474);
#1212=AXIS2_PLACEMENT_3D('',#1900,#1477,#1478);
#1213=AXIS2_PLACEMENT_3D('',#1902,#1480,#1481);
#1214=AXIS2_PLACEMENT_3D('',#1904,#1483,#1484);
#1215=AXIS2_PLACEMENT_3D('',#1905,#1485,#1486);
#1216=AXIS2_PLACEMENT_3D('',#1906,#1487,#1488);
#1217=AXIS2_PLACEMENT_3D('',#1909,#1490,#1491);
#1218=AXIS2_PLACEMENT_3D('',#1912,#1494,#1495);
#1219=AXIS2_PLACEMENT_3D('',#1913,#1496,#1497);
#1220=AXIS2_PLACEMENT_3D('',#1915,#1499,#1500);
#1221=AXIS2_PLACEMENT_3D('',#1916,#1501,#1502);
#1222=AXIS2_PLACEMENT_3D('',#1918,#1504,#1505);
#1223=AXIS2_PLACEMENT_3D('',#1922,#1508,#1509);
#1224=AXIS2_PLACEMENT_3D('',#1937,#1511,#1512);
#1225=AXIS2_PLACEMENT_3D('',#1938,#1513,#1514);
#1226=AXIS2_PLACEMENT_3D('',#1940,#1516,#1517);
#1227=AXIS2_PLACEMENT_3D('',#1941,#1518,#1519);
#1228=AXIS2_PLACEMENT_3D('',#1942,#1520,#1521);
#1229=AXIS2_PLACEMENT_3D('',#1944,#1522,#1523);
#1230=AXIS2_PLACEMENT_3D('',#1945,#1524,#1525);
#1231=AXIS2_PLACEMENT_3D('',#1947,#1526,#1527);
#1232=AXIS2_PLACEMENT_3D('',#1948,#1528,#1529);
#1233=AXIS2_PLACEMENT_3D('',#1950,#1531,#1532);
#1234=AXIS2_PLACEMENT_3D('',#1952,#1534,#1535);
#1235=AXIS2_PLACEMENT_3D('',#1953,#1536,#1537);
#1236=AXIS2_PLACEMENT_3D('',#1955,#1539,#1540);
#1237=DIRECTION('',(0.,0.,1.));
#1238=DIRECTION('',(1.,0.,0.));
#1239=DIRECTION('',(0.,1.,0.));
#1240=DIRECTION('',(0.,0.,1.));
#1241=DIRECTION('',(0.,0.,1.));
#1242=DIRECTION('',(1.,0.,0.));
#1243=DIRECTION('',(0.,0.,-1.));
#1244=DIRECTION('',(1.,0.,0.));
#1245=DIRECTION('',(0.,0.,-1.));
#1246=DIRECTION('',(1.,0.,0.));
#1247=DIRECTION('',(1.,0.,0.));
#1248=DIRECTION('',(0.,1.,0.));
#1249=DIRECTION('',(0.,1.,0.));
#1250=DIRECTION('',(0.,0.,1.));
#1251=DIRECTION('',(0.,1.,0.));
#1252=DIRECTION('',(0.,0.,-1.));
#1253=DIRECTION('',(1.,0.,0.));
#1254=DIRECTION('',(0.,1.,0.));
#1255=DIRECTION('',(0.,0.,1.));
#1256=DIRECTION('',(0.,1.,0.));
#1257=DIRECTION('',(0.,0.,1.));
#1258=DIRECTION('',(0.,1.,0.));
#1259=DIRECTION('',(0.,-1.,0.));
#1260=DIRECTION('',(0.,0.,-1.));
#1261=DIRECTION('',(0.,0.,1.));
#1262=DIRECTION('',(-1.,0.,0.));
#1263=DIRECTION('',(0.,0.,-1.));
#1264=DIRECTION('',(-1.,0.,0.));
#1265=DIRECTION('',(0.,0.,-1.));
#1266=DIRECTION('',(-1.,0.,0.));
#1267=DIRECTION('',(0.,0.,1.));
#1268=DIRECTION('',(1.,0.,0.));
#1269=DIRECTION('',(-1.,0.,0.));
#1270=DIRECTION('',(6.12323399573677E-17,1.,0.));
#1271=DIRECTION('',(0.,1.,0.));
#1272=DIRECTION('',(0.,-1.,0.));
#1273=DIRECTION('',(1.,0.,0.));
#1274=DIRECTION('',(1.,0.,0.));
#1275=DIRECTION('',(0.,0.,-1.));
#1276=DIRECTION('',(1.,0.,0.));
#1277=DIRECTION('',(0.,0.,-1.));
#1278=DIRECTION('',(1.,0.,0.));
#1279=DIRECTION('',(0.,0.,1.));
#1280=DIRECTION('',(0.,0.,1.));
#1281=DIRECTION('',(1.,0.,0.));
#1282=DIRECTION('',(1.,0.,0.));
#1283=DIRECTION('',(0.,1.,0.));
#1284=DIRECTION('',(0.,1.,0.));
#1285=DIRECTION('',(0.,0.,1.));
#1286=DIRECTION('',(1.,0.,0.));
#1287=DIRECTION('',(0.,-1.,0.));
#1288=DIRECTION('',(1.,0.,0.));
#1289=DIRECTION('',(-9.09124651674711E-17,1.,0.));
#1290=DIRECTION('',(1.,0.,0.));
#1291=DIRECTION('',(0.,1.,0.));
#1292=DIRECTION('',(0.,0.,1.));
#1293=DIRECTION('',(1.,0.,0.));
#1294=DIRECTION('',(-1.,-9.09124651674711E-17,0.));
#1295=DIRECTION('',(9.09124651674711E-17,-1.,0.));
#1296=DIRECTION('',(0.,0.,-1.));
#1297=DIRECTION('',(0.,1.,0.));
#1298=DIRECTION('',(0.,0.,-1.));
#1299=DIRECTION('',(-9.09124651674711E-17,1.,0.));
#1300=DIRECTION('',(-9.09124651674711E-17,1.,0.));
#1301=DIRECTION('',(-1.,-9.09124651674711E-17,0.));
#1302=DIRECTION('',(9.09124651674711E-17,-1.,0.));
#1303=DIRECTION('',(0.,0.,-1.));
#1304=DIRECTION('',(-9.09124651674711E-17,1.,0.));
#1305=DIRECTION('',(0.,0.,1.));
#1306=DIRECTION('',(-9.09124651674711E-17,1.,0.));
#1307=DIRECTION('',(0.,0.,-1.));
#1308=DIRECTION('',(1.,0.,0.));
#1309=DIRECTION('',(0.,0.,-1.));
#1310=DIRECTION('',(0.,0.,-1.));
#1311=DIRECTION('',(0.,-1.,0.));
#1312=DIRECTION('',(0.,0.,-1.));
#1313=DIRECTION('',(0.,-1.,0.));
#1314=DIRECTION('',(0.,0.,-1.));
#1315=DIRECTION('',(1.,0.,0.));
#1316=DIRECTION('',(0.,0.,-1.));
#1317=DIRECTION('',(0.,0.,-1.));
#1318=DIRECTION('',(0.,1.,0.));
#1319=DIRECTION('',(0.,0.,-1.));
#1320=DIRECTION('',(0.,-1.,0.));
#1321=DIRECTION('',(0.,-1.,0.));
#1322=DIRECTION('',(0.,1.,0.));
#1323=DIRECTION('',(0.,0.,1.));
#1324=DIRECTION('',(1.,0.,0.));
#1325=DIRECTION('',(-1.,0.,0.));
#1326=DIRECTION('',(0.,0.,-1.));
#1327=DIRECTION('',(0.,1.,0.));
#1328=DIRECTION('',(0.,0.,1.));
#1329=DIRECTION('',(-1.,0.,0.));
#1330=DIRECTION('',(1.,0.,0.));
#1331=DIRECTION('',(0.,1.,0.));
#1332=DIRECTION('',(0.,0.,1.));
#1333=DIRECTION('',(1.,0.,0.));
#1334=DIRECTION('',(0.,0.,-1.));
#1335=DIRECTION('',(-1.,0.,0.));
#1336=DIRECTION('',(0.,0.,-1.));
#1337=DIRECTION('',(0.,0.,1.));
#1338=DIRECTION('',(1.,0.,0.));
#1339=DIRECTION('',(0.,0.,1.));
#1340=DIRECTION('',(1.,0.,0.));
#1341=DIRECTION('',(-1.,0.,0.));
#1342=DIRECTION('',(0.,0.,1.));
#1343=DIRECTION('',(0.,0.,-1.));
#1344=DIRECTION('',(0.,-1.,0.));
#1345=DIRECTION('',(0.,0.,-1.));
#1346=DIRECTION('',(0.,1.,0.));
#1347=DIRECTION('',(-1.,0.,0.));
#1348=DIRECTION('',(0.,0.,1.));
#1349=DIRECTION('',(0.,0.,-1.));
#1350=DIRECTION('',(0.,-1.,0.));
#1351=DIRECTION('',(0.,0.,-1.));
#1352=DIRECTION('',(-1.,0.,0.));
#1353=DIRECTION('',(0.,0.,1.));
#1354=DIRECTION('',(0.,1.,0.));
#1355=DIRECTION('',(0.,0.,1.));
#1356=DIRECTION('',(1.,0.,0.));
#1357=DIRECTION('',(0.,0.,1.));
#1358=DIRECTION('',(1.,0.,0.));
#1359=DIRECTION('',(0.,0.,1.));
#1360=DIRECTION('',(0.,0.,1.));
#1361=DIRECTION('',(1.,0.,0.));
#1362=DIRECTION('',(0.,0.,1.));
#1363=DIRECTION('',(0.,0.,1.));
#1364=DIRECTION('',(1.,0.,0.));
#1365=DIRECTION('',(0.,-1.,0.));
#1366=DIRECTION('',(0.,0.,-1.));
#1367=DIRECTION('',(1.,0.,0.));
#1368=DIRECTION('',(-1.,0.,0.));
#1369=DIRECTION('',(-1.,6.12323399573677E-17,0.));
#1370=DIRECTION('',(0.,0.,-1.));
#1371=DIRECTION('',(0.,1.,0.));
#1372=DIRECTION('',(0.,0.,1.));
#1373=DIRECTION('',(1.,0.,0.));
#1374=DIRECTION('',(1.,0.,0.));
#1375=DIRECTION('',(1.,0.,0.));
#1376=DIRECTION('',(0.,0.,1.));
#1377=DIRECTION('',(1.,0.,0.));
#1378=DIRECTION('',(1.,0.,0.));
#1379=DIRECTION('',(0.,1.,0.));
#1380=DIRECTION('',(0.,0.,1.));
#1381=DIRECTION('',(1.,0.,0.));
#1382=DIRECTION('',(1.,0.,0.));
#1383=DIRECTION('',(0.,1.,0.));
#1384=DIRECTION('',(1.,0.,0.));
#1385=DIRECTION('',(0.,0.,1.));
#1386=DIRECTION('',(1.,0.,0.));
#1387=DIRECTION('',(0.,0.,1.));
#1388=DIRECTION('',(1.,0.,0.));
#1389=DIRECTION('',(0.,-1.,0.));
#1390=DIRECTION('',(1.,0.,0.));
#1391=DIRECTION('',(0.,0.,1.));
#1392=DIRECTION('',(1.,0.,0.));
#1393=DIRECTION('',(1.,0.,0.));
#1394=DIRECTION('',(0.,0.,-1.));
#1395=DIRECTION('',(0.,0.,-1.));
#1396=DIRECTION('',(0.,0.,1.));
#1397=DIRECTION('',(0.,-1.,0.));
#1398=DIRECTION('',(0.,0.,1.));
#1399=DIRECTION('',(1.,0.,0.));
#1400=DIRECTION('',(6.12323399573677E-17,1.,0.));
#1401=DIRECTION('',(0.,1.,0.));
#1402=DIRECTION('',(1.,0.,0.));
#1403=DIRECTION('',(0.,1.,0.));
#1404=DIRECTION('',(1.,0.,0.));
#1405=DIRECTION('',(0.,0.,1.));
#1406=DIRECTION('',(1.,0.,0.));
#1407=DIRECTION('',(0.707106781186548,0.707106781186548,0.));
#1408=DIRECTION('',(0.,0.,1.));
#1409=DIRECTION('',(1.,0.,0.));
#1410=DIRECTION('',(0.707106781186546,0.707106781186549,0.));
#1411=DIRECTION('',(0.,0.,1.));
#1412=DIRECTION('',(1.,0.,0.));
#1413=DIRECTION('',(-1.,1.70210081784086E-16,0.));
#1414=DIRECTION('',(-1.,6.12323399573677E-17,0.));
#1415=DIRECTION('',(0.,0.,1.));
#1416=DIRECTION('',(1.,0.,0.));
#1417=DIRECTION('',(0.,0.,-1.));
#1418=DIRECTION('',(-1.,0.,0.));
#1419=DIRECTION('',(0.,0.,-1.));
#1420=DIRECTION('',(-1.,0.,0.));
#1421=DIRECTION('',(0.,0.,-1.));
#1422=DIRECTION('',(-1.,0.,0.));
#1423=DIRECTION('',(0.,0.,1.));
#1424=DIRECTION('',(1.,0.,0.));
#1425=DIRECTION('',(0.,0.,1.));
#1426=DIRECTION('',(1.,0.,0.));
#1427=DIRECTION('',(0.,0.,1.));
#1428=DIRECTION('',(1.,0.,0.));
#1429=DIRECTION('',(0.707106781186546,0.707106781186549,0.));
#1430=DIRECTION('',(0.,0.,1.));
#1431=DIRECTION('',(1.,0.,0.));
#1432=DIRECTION('',(0.707106781186548,0.707106781186548,0.));
#1433=DIRECTION('',(0.,0.,1.));
#1434=DIRECTION('',(1.,0.,0.));
#1435=DIRECTION('',(0.,0.,1.));
#1436=DIRECTION('',(1.,0.,0.));
#1437=DIRECTION('',(0.,0.,-1.));
#1438=DIRECTION('',(-1.,0.,0.));
#1439=DIRECTION('',(0.707106781186546,0.707106781186549,0.));
#1440=DIRECTION('',(-0.707106781186549,0.707106781186546,0.));
#1441=DIRECTION('',(0.707106781186548,0.707106781186548,0.));
#1442=DIRECTION('',(-0.707106781186548,0.707106781186548,0.));
#1443=DIRECTION('',(0.707106781186548,0.707106781186548,0.));
#1444=DIRECTION('',(-0.707106781186548,0.707106781186548,0.));
#1445=DIRECTION('',(0.707106781186546,0.707106781186549,0.));
#1446=DIRECTION('',(0.,0.,1.));
#1447=DIRECTION('',(1.,0.,0.));
#1448=DIRECTION('',(-0.707106781186548,-0.707106781186548,0.));
#1449=DIRECTION('',(0.707106781186548,-0.707106781186548,0.));
#1450=DIRECTION('',(0.,0.,1.));
#1451=DIRECTION('',(1.,0.,0.));
#1452=DIRECTION('',(-0.707106781186548,-0.707106781186548,0.));
#1453=DIRECTION('',(0.707106781186548,-0.707106781186548,0.));
#1454=DIRECTION('',(-0.707106781186548,-0.707106781186548,0.));
#1455=DIRECTION('',(0.707106781186548,-0.707106781186548,0.));
#1456=DIRECTION('',(0.707106781186548,0.707106781186548,0.));
#1457=DIRECTION('',(0.,0.,1.));
#1458=DIRECTION('',(1.,0.,0.));
#1459=DIRECTION('',(-0.950912622449961,-0.309459503756691,0.));
#1460=DIRECTION('',(0.309459503756691,-0.950912622449961,0.));
#1461=DIRECTION('',(0.,0.,1.));
#1462=DIRECTION('',(1.,0.,0.));
#1463=DIRECTION('',(0.,0.,1.));
#1464=DIRECTION('',(1.,0.,0.));
#1465=DIRECTION('',(0.309459503756691,0.950912622449961,0.));
#1466=DIRECTION('',(-0.950912622449961,0.309459503756691,0.));
#1467=DIRECTION('',(0.,0.,1.));
#1468=DIRECTION('',(1.,0.,0.));
#1469=DIRECTION('',(0.,0.,1.));
#1470=DIRECTION('',(1.,0.,0.));
#1471=DIRECTION('',(0.,0.,-1.));
#1472=DIRECTION('',(-1.,0.,0.));
#1473=DIRECTION('',(-0.707106781186549,0.707106781186546,0.));
#1474=DIRECTION('',(-0.707106781186546,-0.707106781186549,0.));
#1475=DIRECTION('',(0.,0.,-1.));
#1476=DIRECTION('',(0.,0.,1.));
#1477=DIRECTION('',(0.,0.,-1.));
#1478=DIRECTION('',(-1.,0.,0.));
#1479=DIRECTION('',(0.,0.,-1.));
#1480=DIRECTION('',(-0.707106781186548,0.707106781186548,0.));
#1481=DIRECTION('',(-0.707106781186548,-0.707106781186548,0.));
#1482=DIRECTION('',(0.,0.,-1.));
#1483=DIRECTION('',(0.,0.,1.));
#1484=DIRECTION('',(1.,0.,0.));
#1485=DIRECTION('',(0.,0.,1.));
#1486=DIRECTION('',(1.,0.,0.));
#1487=DIRECTION('',(0.,0.,1.));
#1488=DIRECTION('',(1.,0.,0.));
#1489=DIRECTION('',(0.,0.,1.));
#1490=DIRECTION('',(0.,0.,1.));
#1491=DIRECTION('',(1.,0.,0.));
#1492=DIRECTION('',(-1.,1.70210081784086E-16,0.));
#1493=DIRECTION('',(1.,0.,0.));
#1494=DIRECTION('',(-1.70210081784086E-16,-1.,0.));
#1495=DIRECTION('',(1.,-1.70210081784086E-16,0.));
#1496=DIRECTION('',(0.,0.,1.));
#1497=DIRECTION('',(1.,0.,0.));
#1498=DIRECTION('',(6.12323399573677E-17,1.,0.));
#1499=DIRECTION('',(0.,0.,1.));
#1500=DIRECTION('',(1.,0.,0.));
#1501=DIRECTION('',(0.,-1.,0.));
#1502=DIRECTION('',(1.,0.,0.));
#1503=DIRECTION('',(0.,0.,-1.));
#1504=DIRECTION('',(0.,1.,0.));
#1505=DIRECTION('',(0.,0.,1.));
#1506=DIRECTION('',(0.,0.,-1.));
#1507=DIRECTION('',(1.,0.,0.));
#1508=DIRECTION('',(0.,0.,-1.));
#1509=DIRECTION('',(-1.,0.,0.));
#1510=DIRECTION('',(0.,0.,1.));
#1511=DIRECTION('',(0.,0.,1.));
#1512=DIRECTION('',(1.,0.,0.));
#1513=DIRECTION('',(-1.,0.,0.));
#1514=DIRECTION('',(0.,0.,1.));
#1515=DIRECTION('',(0.,1.,0.));
#1516=DIRECTION('',(0.,0.,1.));
#1517=DIRECTION('',(1.,0.,0.));
#1518=DIRECTION('',(0.707106781186547,0.707106781186548,0.));
#1519=DIRECTION('',(-0.707106781186548,0.707106781186547,0.));
#1520=DIRECTION('',(0.707106781186547,0.707106781186548,0.));
#1521=DIRECTION('',(-0.707106781186548,0.707106781186547,0.));
#1522=DIRECTION('',(-0.707106781186547,-0.707106781186548,0.));
#1523=DIRECTION('',(0.707106781186548,-0.707106781186547,0.));
#1524=DIRECTION('',(-0.707106781186547,-0.707106781186548,0.));
#1525=DIRECTION('',(0.707106781186548,-0.707106781186547,0.));
#1526=DIRECTION('',(0.707106781186547,0.707106781186548,0.));
#1527=DIRECTION('',(-0.707106781186548,0.707106781186547,0.));
#1528=DIRECTION('',(1.,0.,0.));
#1529=DIRECTION('',(0.,0.,-1.));
#1530=DIRECTION('',(0.,0.,-1.));
#1531=DIRECTION('',(1.,0.,0.));
#1532=DIRECTION('',(0.,0.,-1.));
#1533=DIRECTION('',(0.,0.,-1.));
#1534=DIRECTION('',(0.,-1.,0.));
#1535=DIRECTION('',(1.,0.,0.));
#1536=DIRECTION('',(-6.12323399573677E-17,-1.,0.));
#1537=DIRECTION('',(0.,0.,1.));
#1538=DIRECTION('',(0.,0.,1.));
#1539=DIRECTION('',(-1.,6.12323399573677E-17,0.));
#1540=DIRECTION('',(-6.12323399573677E-17,-1.,0.));
#1541=CARTESIAN_POINT('',(0.,0.,0.));
#1542=CARTESIAN_POINT('',(-5.55111512312578E-17,0.180975,0.0083));
#1543=CARTESIAN_POINT('',(0.01,0.180975,0.00415));
#1544=CARTESIAN_POINT('',(0.01,0.180975,0.003));
#1545=CARTESIAN_POINT('',(0.01,0.180975,0.0083));
#1546=CARTESIAN_POINT('',(-5.55111512312578E-17,0.180975,0.003));
#1547=CARTESIAN_POINT('',(0.155575,0.180975,0.003));
#1548=CARTESIAN_POINT('',(0.155575,0.180975,0.31675));
#1549=CARTESIAN_POINT('',(0.155575,0.180975,0.157525));
#1550=CARTESIAN_POINT('',(-5.55111512312578E-17,0.180975,0.157525));
#1551=CARTESIAN_POINT('',(0.14935,0.180975,0.157525));
#1552=CARTESIAN_POINT('',(0.14935,0.180975,0.30725));
#1553=CARTESIAN_POINT('',(0.14935,0.180975,0.0083));
#1554=CARTESIAN_POINT('',(-5.55111512312578E-17,0.180975,0.0083));
#1555=CARTESIAN_POINT('',(0.0001,0.,0.));
#1556=CARTESIAN_POINT('',(0.0001,0.,0.));
#1557=CARTESIAN_POINT('',(0.0001,0.188649999999996,0.));
#1558=CARTESIAN_POINT('',(0.0001,0.19265,0.));
#1559=CARTESIAN_POINT('',(0.0001,0.188649999999998,0.31005));
#1560=CARTESIAN_POINT('',(0.0001,0.188649999999998,0.0083));
#1561=CARTESIAN_POINT('',(0.0001,-2.77555756156289E-17,0.0083));
#1562=CARTESIAN_POINT('',(0.0001,0.19265,0.0083));
#1563=CARTESIAN_POINT('',(0.0001,0.19265,0.0083));
#1564=CARTESIAN_POINT('',(0.0001,0.,0.));
#1565=CARTESIAN_POINT('',(0.0001,0.180975,0.00415));
#1566=CARTESIAN_POINT('',(0.0001,0.180975,0.));
#1567=CARTESIAN_POINT('',(0.0001,0.180975,0.003));
#1568=CARTESIAN_POINT('',(0.0001,0.,0.));
#1569=CARTESIAN_POINT('',(0.0001,0.17272,0.));
#1570=CARTESIAN_POINT('',(0.0001,0.17272,0.003));
#1571=CARTESIAN_POINT('',(0.0001,0.17272,0.003));
#1572=CARTESIAN_POINT('',(0.0001,0.,0.003));
#1573=CARTESIAN_POINT('',(5.55111512312578E-17,0.184974999999998,0.31005));
#1574=CARTESIAN_POINT('',(0.01,0.184974999999996,0.31005));
#1575=CARTESIAN_POINT('',(0.01,0.184974999999998,0.005));
#1576=CARTESIAN_POINT('',(0.01,0.184974999999996,0.0083));
#1577=CARTESIAN_POINT('',(5.55111512312578E-17,0.184974999999998,0.0083));
#1578=CARTESIAN_POINT('',(0.14935,0.184974999999998,0.0083));
#1579=CARTESIAN_POINT('',(0.14935,0.184974999999998,0.31005));
#1580=CARTESIAN_POINT('',(0.14935,0.184974999999998,0.157525));
#1581=CARTESIAN_POINT('',(5.55111512312578E-17,0.184974999999998,0.157525));
#1582=CARTESIAN_POINT('',(0.15265,0.184974999999998,0.157525));
#1583=CARTESIAN_POINT('',(0.15265,0.184974999999998,0.31005));
#1584=CARTESIAN_POINT('',(0.15265,0.184974999999998,0.005));
#1585=CARTESIAN_POINT('',(5.55111512312578E-17,0.184974999999998,0.005));
#1586=CARTESIAN_POINT('',(-2.77555756156289E-17,0.0179999999999986,0.005));
#1587=CARTESIAN_POINT('',(0.,0.188649999999998,0.005));
#1588=CARTESIAN_POINT('',(0.15265,0.188649999999998,0.005));
#1589=CARTESIAN_POINT('',(0.01,0.188649999999996,0.005));
#1590=CARTESIAN_POINT('',(0.01,-4.16333634234433E-17,0.005));
#1591=CARTESIAN_POINT('',(0.15265,0.186812499999996,0.005));
#1592=CARTESIAN_POINT('',(0.,0.,0.));
#1593=CARTESIAN_POINT('',(-2.77555756156289E-17,0.,0.005));
#1594=CARTESIAN_POINT('',(0.188549999999996,0.,0.005));
#1595=CARTESIAN_POINT('',(0.188649999999996,0.,0.005));
#1596=CARTESIAN_POINT('',(0.188549999999996,0.,0.0025));
#1597=CARTESIAN_POINT('',(0.188549999999996,0.,0.));
#1598=CARTESIAN_POINT('',(2.77555756156289E-17,0.,0.));
#1599=CARTESIAN_POINT('',(0.19265,0.,0.));
#1600=CARTESIAN_POINT('',(0.19265,0.,0.0083));
#1601=CARTESIAN_POINT('',(0.19265,0.,0.0083));
#1602=CARTESIAN_POINT('',(-2.77555756156289E-17,0.,0.0083));
#1603=CARTESIAN_POINT('',(0.188649999999996,0.,0.0083));
#1604=CARTESIAN_POINT('',(0.188649999999996,0.,0.31005));
#1605=CARTESIAN_POINT('',(0.,0.,0.157525));
#1606=CARTESIAN_POINT('',(0.1541125,0.185074999999998,0.157525));
#1607=CARTESIAN_POINT('',(0.15265,0.185074999999997,0.157525));
#1608=CARTESIAN_POINT('',(0.155575,0.185074999999997,0.157525));
#1609=CARTESIAN_POINT('',(0.15265,0.186812499999996,0.157525));
#1610=CARTESIAN_POINT('',(0.14935,0.1868125,0.157525));
#1611=CARTESIAN_POINT('',(0.155575,0.155575,0.157525));
#1612=CARTESIAN_POINT('',(0.180975,0.155575,0.157525));
#1613=CARTESIAN_POINT('',(0.180975,5.55111512312578E-17,0.157525));
#1614=CARTESIAN_POINT('',(0.180975,0.14935,0.157525));
#1615=CARTESIAN_POINT('',(0.1868125,0.14935,0.157525));
#1616=CARTESIAN_POINT('',(0.184974999999996,0.14935,0.157525));
#1617=CARTESIAN_POINT('',(0.184974999999996,-2.77555756156289E-16,0.157525));
#1618=CARTESIAN_POINT('',(0.184974999999996,0.15265,0.157525));
#1619=CARTESIAN_POINT('',(0.186812499999996,0.15265,0.157525));
#1620=CARTESIAN_POINT('',(0.185074999999996,0.15265,0.157525));
#1621=CARTESIAN_POINT('',(0.185074999999996,0.1541125,0.157525));
#1622=CARTESIAN_POINT('',(0.185074999999996,0.155575,0.157525));
#1623=CARTESIAN_POINT('',(0.155575,0.155575,0.157525));
#1624=CARTESIAN_POINT('',(0.188649999999996,-2.77555756156289E-16,0.31005));
#1625=CARTESIAN_POINT('',(0.188649999999996,0.14935,0.31005));
#1626=CARTESIAN_POINT('',(0.188649999999996,0.14935,0.167425));
#1627=CARTESIAN_POINT('',(0.188649999999996,0.14935,0.0083));
#1628=CARTESIAN_POINT('',(0.188649999999996,0.151,0.167425));
#1629=CARTESIAN_POINT('',(0.188649999999996,0.15265,0.167425));
#1630=CARTESIAN_POINT('',(0.188649999999996,0.15265,0.31005));
#1631=CARTESIAN_POINT('',(0.188649999999996,0.15265,0.005));
#1632=CARTESIAN_POINT('',(0.188649999999996,-2.77555756156289E-16,0.005));
#1633=CARTESIAN_POINT('',(0.188649999999996,-2.77555756156289E-16,0.0083));
#1634=CARTESIAN_POINT('',(0.184974999999996,-2.77555756156289E-16,0.31005));
#1635=CARTESIAN_POINT('',(0.184974999999996,0.14935,0.31005));
#1636=CARTESIAN_POINT('',(0.184974999999996,0.14935,0.0083));
#1637=CARTESIAN_POINT('',(0.184974999999996,-2.77555756156289E-16,0.0083));
#1638=CARTESIAN_POINT('',(0.184974999999996,-0.0099,0.0083));
#1639=CARTESIAN_POINT('',(0.184974999999996,-0.0099,0.31005));
#1640=CARTESIAN_POINT('',(0.184974999999996,-0.0099,0.005));
#1641=CARTESIAN_POINT('',(0.184974999999996,-2.77555756156289E-16,0.005));
#1642=CARTESIAN_POINT('',(0.184974999999996,0.15265,0.005));
#1643=CARTESIAN_POINT('',(0.184974999999996,0.15265,0.31005));
#1644=CARTESIAN_POINT('',(0.180975,5.55111512312578E-17,0.0083));
#1645=CARTESIAN_POINT('',(0.180975,0.155575,0.0083));
#1646=CARTESIAN_POINT('',(0.180975,0.155575,0.003));
#1647=CARTESIAN_POINT('',(0.180975,5.55111512312578E-17,0.003));
#1648=CARTESIAN_POINT('',(0.180975,0.,0.003));
#1649=CARTESIAN_POINT('',(0.180975,0.,0.0083));
#1650=CARTESIAN_POINT('',(0.180975,0.,0.0083));
#1651=CARTESIAN_POINT('',(0.180975,5.55111512312578E-17,0.0083));
#1652=CARTESIAN_POINT('',(0.180975,0.14935,0.0083));
#1653=CARTESIAN_POINT('',(0.180975,0.14935,0.30725));
#1654=CARTESIAN_POINT('',(0.19265,0.,0.0083));
#1655=CARTESIAN_POINT('',(0.19265,0.16725,0.0083));
#1656=CARTESIAN_POINT('',(0.19265,0.16725,0.));
#1657=CARTESIAN_POINT('',(0.19265,0.16725,0.167425));
#1658=CARTESIAN_POINT('',(0.19265,0.1583,0.167425));
#1659=CARTESIAN_POINT('',(0.19265,0.14935,0.167425));
#1660=CARTESIAN_POINT('',(0.19265,0.14935,0.30725));
#1661=CARTESIAN_POINT('',(0.19265,0.14935,0.0083));
#1662=CARTESIAN_POINT('',(0.19265,0.,0.0083));
#1663=CARTESIAN_POINT('',(0.19265,0.,0.));
#1664=CARTESIAN_POINT('',(0.186812499999996,0.15265,0.31005));
#1665=CARTESIAN_POINT('',(0.186812499999996,0.15265,0.005));
#1666=CARTESIAN_POINT('',(0.186812499999996,0.15265,0.167425));
#1667=CARTESIAN_POINT('',(0.185074999999996,0.15265,0.167425));
#1668=CARTESIAN_POINT('',(0.185074999999996,0.15265,0.167525));
#1669=CARTESIAN_POINT('',(0.1868125,0.14935,0.30725));
#1670=CARTESIAN_POINT('',(0.19065,0.14935,0.167425));
#1671=CARTESIAN_POINT('',(0.1868125,0.14935,0.0083));
#1672=CARTESIAN_POINT('',(0.1868125,0.14935,0.30725));
#1673=CARTESIAN_POINT('',(0.1868125,0.14935,0.0083));
#1674=CARTESIAN_POINT('',(0.16725,0.16725,0.0083));
#1675=CARTESIAN_POINT('',(0.187113637782351,0.183127442902204,0.165349088467436));
#1676=CARTESIAN_POINT('',(0.187805250980892,0.182161896285975,0.162524313327946));
#1677=CARTESIAN_POINT('',(0.187114072759069,0.183126673471625,0.15970365822078));
#1678=CARTESIAN_POINT('',(0.185257922216476,0.185253223033893,0.15853588652137));
#1679=CARTESIAN_POINT('',(0.183125897375107,0.187114921614312,0.159702799106587));
#1680=CARTESIAN_POINT('',(0.18216314832552,0.187804228822337,0.162524093764578));
#1681=CARTESIAN_POINT('',(0.183123212112031,0.187116876608338,0.165342582592881));
#1682=CARTESIAN_POINT('',(0.185253246397871,0.185257997570813,0.166514580206885));
#1683=CARTESIAN_POINT('',(0.187113637782351,0.183127442902204,0.165349088467436));
#1684=CARTESIAN_POINT('',(0.187805250980892,0.182161896285975,0.162524313327946));
#1685=CARTESIAN_POINT('',(0.187114072759069,0.183126673471625,0.15970365822078));
#1686=CARTESIAN_POINT('',(0.187574785744165,0.182483616919622,0.162525));
#1687=CARTESIAN_POINT('',(0.16725,0.19265,0.0083));
#1688=CARTESIAN_POINT('',(0.16725,0.19265,0.167425));
#1689=CARTESIAN_POINT('',(0.16725,0.19265,0.));
#1690=CARTESIAN_POINT('',(0.16725,0.16725,0.167425));
#1691=CARTESIAN_POINT('',(0.16725,0.16725,0.));
#1692=CARTESIAN_POINT('',(0.14935,0.1868125,0.30725));
#1693=CARTESIAN_POINT('',(0.14935,0.188649999999998,0.31005));
#1694=CARTESIAN_POINT('',(0.14935,0.188649999999998,0.167425));
#1695=CARTESIAN_POINT('',(0.14935,0.188649999999998,0.0083));
#1696=CARTESIAN_POINT('',(0.14935,0.19065,0.167425));
#1697=CARTESIAN_POINT('',(0.14935,0.19265,0.167425));
#1698=CARTESIAN_POINT('',(0.14935,0.19265,0.30725));
#1699=CARTESIAN_POINT('',(0.14935,0.19265,0.0083));
#1700=CARTESIAN_POINT('',(0.14935,0.1868125,0.0083));
#1701=CARTESIAN_POINT('',(0.15265,0.186812499999996,0.31005));
#1702=CARTESIAN_POINT('',(0.15265,0.185074999999998,0.167525));
#1703=CARTESIAN_POINT('',(0.15265,0.185074999999998,0.167425));
#1704=CARTESIAN_POINT('',(0.15265,0.186812499999998,0.167425));
#1705=CARTESIAN_POINT('',(0.15265,0.188649999999998,0.167425));
#1706=CARTESIAN_POINT('',(0.15265,0.188649999999998,0.31005));
#1707=CARTESIAN_POINT('',(0.14935,0.1868125,0.30725));
#1708=CARTESIAN_POINT('',(0.14935,0.1868125,0.0083));
#1709=CARTESIAN_POINT('',(0.155575,0.155575,0.0083));
#1710=CARTESIAN_POINT('',(0.155575,0.155575,0.003));
#1711=CARTESIAN_POINT('',(0.159797874221207,0.180621503414886,0.003));
#1712=CARTESIAN_POINT('',(0.159797874221207,0.180621503414886,0.0083));
#1713=CARTESIAN_POINT('',(0.159797874221207,0.180621503414886,0.0133));
#1714=CARTESIAN_POINT('',(0.155575,0.155575,0.0133));
#1715=CARTESIAN_POINT('',(0.180621503414886,0.159797874221207,0.0133));
#1716=CARTESIAN_POINT('',(0.180621503414886,0.159797874221207,0.0083));
#1717=CARTESIAN_POINT('',(0.180621503414886,0.159797874221207,0.003));
#1718=CARTESIAN_POINT('',(0.155575,0.155575,0.003));
#1719=CARTESIAN_POINT('',(0.,0.188649999999998,0.31005));
#1720=CARTESIAN_POINT('',(0.151,0.188649999999998,0.167425));
#1721=CARTESIAN_POINT('',(0.,0.188649999999998,0.0083));
#1722=CARTESIAN_POINT('',(0.01,0.188649999999996,0.));
#1723=CARTESIAN_POINT('',(0.01,0.188649999999996,0.));
#1724=CARTESIAN_POINT('',(0.01,0.188649999999996,0.00249999999999997));
#1725=CARTESIAN_POINT('',(0.,0.19265,0.0083));
#1726=CARTESIAN_POINT('',(0.1583,0.19265,0.167425));
#1727=CARTESIAN_POINT('',(0.,0.19265,0.));
#1728=CARTESIAN_POINT('',(0.,0.19265,0.0083));
#1729=CARTESIAN_POINT('',(-2.77555756156289E-17,0.0179999999999986,0.005));
#1730=CARTESIAN_POINT('',(-2.77555756156289E-17,-0.0099,0.005));
#1731=CARTESIAN_POINT('',(0.188549999999996,-0.0099,0.005));
#1732=CARTESIAN_POINT('',(0.188549999999996,-0.01,0.005));
#1733=CARTESIAN_POINT('',(-2.77555756156289E-17,-2.77555756156289E-17,0.0083));
#1734=CARTESIAN_POINT('',(-2.77555756156289E-17,0.,0.0083));
#1735=CARTESIAN_POINT('',(0.181075,0.,0.0083));
#1736=CARTESIAN_POINT('',(0.181075,-0.01,0.0083));
#1737=CARTESIAN_POINT('',(0.181075,-0.0099,0.0083));
#1738=CARTESIAN_POINT('',(-2.77555756156289E-17,-0.0099,0.0083));
#1739=CARTESIAN_POINT('',(-2.77555756156289E-17,-2.77555756156289E-17,0.0083));
#1740=CARTESIAN_POINT('',(2.77555756156289E-17,0.,0.003));
#1741=CARTESIAN_POINT('',(0.17272,8.32667268468867E-17,0.003));
#1742=CARTESIAN_POINT('',(0.17272,0.162988120380331,0.003));
#1743=CARTESIAN_POINT('',(0.17272,0.,0.003));
#1744=CARTESIAN_POINT('',(2.77555756156289E-17,0.,0.003));
#1745=CARTESIAN_POINT('',(0.175691089356837,0.158966599768213,0.003));
#1746=CARTESIAN_POINT('',(0.17272,8.32667268468867E-17,0.003));
#1747=CARTESIAN_POINT('',(0.17272,0.,0.003));
#1748=CARTESIAN_POINT('',(0.17272,0.,0.));
#1749=CARTESIAN_POINT('',(0.17272,0.162988120380331,0.0083));
#1750=CARTESIAN_POINT('',(0.17272,0.162988120380331,0.));
#1751=CARTESIAN_POINT('',(0.17272,8.32667268468867E-17,0.));
#1752=CARTESIAN_POINT('',(2.77555756156289E-17,0.,0.));
#1753=CARTESIAN_POINT('',(0.01,1.38777878078145E-17,0.));
#1754=CARTESIAN_POINT('',(0.01,0.180975,0.));
#1755=CARTESIAN_POINT('',(0.188549999999996,-0.01,0.));
#1756=CARTESIAN_POINT('',(0.188549999999996,-0.0099,0.));
#1757=CARTESIAN_POINT('',(2.77555756156289E-17,-0.0099,0.));
#1758=CARTESIAN_POINT('',(0.181075,-0.0099,0.));
#1759=CARTESIAN_POINT('',(0.181075,-0.01,0.));
#1760=CARTESIAN_POINT('',(0.181075,0.,0.));
#1761=CARTESIAN_POINT('',(2.77555756156289E-17,0.,0.));
#1762=CARTESIAN_POINT('',(0.175691089356837,0.158966599768213,0.));
#1763=CARTESIAN_POINT('',(0.172155555450904,0.162502133674146,0.));
#1764=CARTESIAN_POINT('',(0.1768475,0.167194078223242,0.));
#1765=CARTESIAN_POINT('',(0.169926710888379,0.160273289111621,0.));
#1766=CARTESIAN_POINT('',(0.1651,0.1651,0.));
#1767=CARTESIAN_POINT('',(0.160273289111621,0.169926710888379,0.));
#1768=CARTESIAN_POINT('',(0.167194078223241,0.1768475,0.));
#1769=CARTESIAN_POINT('',(0.162502133674145,0.172155555450904,0.));
#1770=CARTESIAN_POINT('',(0.158966599768213,0.175691089356837,0.));
#1771=CARTESIAN_POINT('',(0.162988120380331,0.17272,0.));
#1772=CARTESIAN_POINT('',(-8.32667268468867E-17,0.17272,0.));
#1773=CARTESIAN_POINT('',(0.01,0.180975,0.));
#1774=CARTESIAN_POINT('',(0.1651,0.1651,0.));
#1775=CARTESIAN_POINT('',(0.168275,0.1651,0.));
#1776=CARTESIAN_POINT('',(0.1651,0.1651,0.0083));
#1777=CARTESIAN_POINT('',(0.1651,0.1651,0.00195));
#1778=CARTESIAN_POINT('',(0.160274,0.1651,0.00195));
#1779=CARTESIAN_POINT('',(0.1651,0.1651,0.0083));
#1780=CARTESIAN_POINT('',(0.160274,0.1651,0.0083));
#1781=CARTESIAN_POINT('',(2.77555756156289E-17,0.,0.0083));
#1782=CARTESIAN_POINT('',(0.155575,0.155575,0.0083));
#1783=CARTESIAN_POINT('',(0.173834332334297,0.164672075502913,0.0083));
#1784=CARTESIAN_POINT('',(0.164672075502912,0.173834332334297,0.0083));
#1785=CARTESIAN_POINT('',(0.158966599768213,0.175691089356837,0.0083));
#1786=CARTESIAN_POINT('',(0.163209240455332,0.171448448669718,0.0083));
#1787=CARTESIAN_POINT('',(-0.00411960410719257,0.00411960410719258,0.0083));
#1788=CARTESIAN_POINT('',(0.160980395892807,0.169219604107193,0.0083));
#1789=CARTESIAN_POINT('',(0.1651,0.1651,0.0083));
#1790=CARTESIAN_POINT('',(0.169219604107193,0.160980395892807,0.0083));
#1791=CARTESIAN_POINT('',(0.171448448669718,0.163209240455332,0.0083));
#1792=CARTESIAN_POINT('',(0.171448448669718,0.163209240455332,0.0083));
#1793=CARTESIAN_POINT('',(0.175691089356837,0.158966599768213,0.0083));
#1794=CARTESIAN_POINT('',(0.169926,0.1651,0.00195));
#1795=CARTESIAN_POINT('',(0.1651,0.1651,0.00195));
#1796=CARTESIAN_POINT('',(0.161925,0.1651,0.00195));
#1797=CARTESIAN_POINT('',(0.167901185004427,0.176140393218814,0.0073));
#1798=CARTESIAN_POINT('',(0.160980395892807,0.169219604107193,0.0073));
#1799=CARTESIAN_POINT('',(0.160273289111621,0.169926710888379,0.0073));
#1800=CARTESIAN_POINT('',(0.163209240455332,0.171448448669718,0.0073));
#1801=CARTESIAN_POINT('',(0.162502133674145,0.172155555450904,0.0073));
#1802=CARTESIAN_POINT('',(0.167194078223241,0.1768475,0.0073));
#1803=CARTESIAN_POINT('',(0.1651,0.1651,0.0073));
#1804=CARTESIAN_POINT('',(0.169219604107193,0.160980395892807,0.0073));
#1805=CARTESIAN_POINT('',(0.169926710888379,0.160273289111621,0.0073));
#1806=CARTESIAN_POINT('',(0.1651,0.1651,0.0073));
#1807=CARTESIAN_POINT('',(0.0041196041071928,-0.00411960410719278,0.0073));
#1808=CARTESIAN_POINT('',(0.171448448669718,0.163209240455332,0.0073));
#1809=CARTESIAN_POINT('',(0.172155555450904,0.162502133674146,0.0073));
#1810=CARTESIAN_POINT('',(0.169926710888379,0.160273289111621,0.0073));
#1811=CARTESIAN_POINT('',(0.175691089356837,0.158966599768213,0.0073));
#1812=CARTESIAN_POINT('',(0.173834332334297,0.164672075502913,0.0073));
#1813=CARTESIAN_POINT('',(0.174143791838054,0.163721162880463,0.0073));
#1814=CARTESIAN_POINT('',(0.175691089356837,0.158966599768213,0.0073));
#1815=CARTESIAN_POINT('',(0.174143791838054,0.163721162880463,0.0073));
#1816=CARTESIAN_POINT('',(0.174143791838054,0.163721162880463,0.00830000000000001));
#1817=CARTESIAN_POINT('',(0.173834332334297,0.164672075502913,0.0083));
#1818=CARTESIAN_POINT('',(0.17455128464117,0.163853774981365,0.00730000000568617));
#1819=CARTESIAN_POINT('',(0.174469518204081,0.163827165385183,0.00828761049186166));
#1820=CARTESIAN_POINT('',(0.174247445601435,0.1647934064038,0.00830000000000001));
#1821=CARTESIAN_POINT('',(0.175379666672905,0.16400835107096,0.00742778275971654));
#1822=CARTESIAN_POINT('',(0.175126568366913,0.163977723684753,0.00832544454298957));
#1823=CARTESIAN_POINT('',(0.175095402859981,0.164908451694368,0.00840648563523999));
#1824=CARTESIAN_POINT('',(0.177006735571409,0.163903965928996,0.00809029790913711));
#1825=CARTESIAN_POINT('',(0.176596873923979,0.163993819702655,0.00870772645642332));
#1826=CARTESIAN_POINT('',(0.176781423708187,0.16467663167985,0.00895858158971016));
#1827=CARTESIAN_POINT('',(0.178707288003557,0.163132879113555,0.00940814891772291));
#1828=CARTESIAN_POINT('',(0.178412304510574,0.163366152496951,0.0097251197633967));
#1829=CARTESIAN_POINT('',(0.178565712593009,0.16369705861693,0.0100567907651915));
#1830=CARTESIAN_POINT('',(0.180065710165368,0.161637741120614,0.0112885117269542));
#1831=CARTESIAN_POINT('',(0.179987214632742,0.161807232313378,0.0114264707426831));
#1832=CARTESIAN_POINT('',(0.180008239292346,0.161926917783044,0.0116237597723417));
#1833=CARTESIAN_POINT('',(0.180516353183913,0.160421536087783,0.0126328395783221));
#1834=CARTESIAN_POINT('',(0.180508227938411,0.160469728144568,0.0126884362768454));
#1835=CARTESIAN_POINT('',(0.18050010269371,0.160517920194215,0.0127440329819338));
#1836=CARTESIAN_POINT('',(0.180621503414885,0.159797874221206,0.0133));
#1837=CARTESIAN_POINT('',(0.180621503414885,0.159797874221206,0.0133));
#1838=CARTESIAN_POINT('',(0.180621503414885,0.159797874221206,0.0133));
#1839=CARTESIAN_POINT('',(0.174143791838054,0.163721162880463,0.0073));
#1840=CARTESIAN_POINT('',(0.175008027035863,0.164002414584488,0.00729999999999999));
#1841=CARTESIAN_POINT('',(0.176790349010837,0.164040810414208,0.00788836187203256));
#1842=CARTESIAN_POINT('',(0.178790949471409,0.163062695122092,0.00950240997445535));
#1843=CARTESIAN_POINT('',(0.180090053604602,0.161584419616594,0.0113484662963224));
#1844=CARTESIAN_POINT('',(0.18051972892074,0.160401514083927,0.0126542580454644));
#1845=CARTESIAN_POINT('',(0.180621503414886,0.159797874221207,0.0133));
#1846=CARTESIAN_POINT('',(0.173834332334297,0.164672075502913,0.0083));
#1847=CARTESIAN_POINT('',(0.174712150555443,0.164929889734816,0.00830000000000002));
#1848=CARTESIAN_POINT('',(0.176532268167616,0.164845541523603,0.00878420519770423));
#1849=CARTESIAN_POINT('',(0.178632381772254,0.163632939099881,0.0101164253016536));
#1850=CARTESIAN_POINT('',(0.180027340322909,0.161881818016105,0.0116601597579955));
#1851=CARTESIAN_POINT('',(0.180502928066897,0.160501162480042,0.0127569720869205));
#1852=CARTESIAN_POINT('',(0.180621503414886,0.159797874221207,0.0133));
#1853=CARTESIAN_POINT('',(0.155575,0.155575,0.0133));
#1854=CARTESIAN_POINT('',(0.164672075502913,0.173834332334297,0.0083));
#1855=CARTESIAN_POINT('',(0.164929889734816,0.174712150555443,0.00829999999999998));
#1856=CARTESIAN_POINT('',(0.164845541523599,0.176532268167616,0.00878420519769896));
#1857=CARTESIAN_POINT('',(0.163632939099894,0.178632381772252,0.0101164253016719));
#1858=CARTESIAN_POINT('',(0.161881818016054,0.180027340322917,0.0116601597579276));
#1859=CARTESIAN_POINT('',(0.160501162480151,0.180502928066879,0.0127569720870664));
#1860=CARTESIAN_POINT('',(0.159797874221207,0.180621503414886,0.0133));
#1861=CARTESIAN_POINT('',(0.164672075502912,0.173834332334297,0.0083));
#1862=CARTESIAN_POINT('',(0.163721162880463,0.174143791838054,0.00829999999999999));
#1863=CARTESIAN_POINT('',(0.163721162880463,0.174143791838054,0.0073));
#1864=CARTESIAN_POINT('',(0.164793406404164,0.174247445601328,0.00829999999999999));
#1865=CARTESIAN_POINT('',(0.163827165385538,0.174469518203954,0.00828761049188354));
#1866=CARTESIAN_POINT('',(0.16385377498138,0.174551284641219,0.00730000000568617));
#1867=CARTESIAN_POINT('',(0.164908451694204,0.175095402860029,0.00840648563524016));
#1868=CARTESIAN_POINT('',(0.163977723684597,0.175126568366964,0.00832544454298008));
#1869=CARTESIAN_POINT('',(0.164008351070953,0.175379666672882,0.00742778275971674));
#1870=CARTESIAN_POINT('',(0.164676631679945,0.176781423708159,0.00895858158970913));
#1871=CARTESIAN_POINT('',(0.163993819702736,0.17659687392396,0.00870772645642802));
#1872=CARTESIAN_POINT('',(0.163903965928999,0.177006735571422,0.00809029790913589));
#1873=CARTESIAN_POINT('',(0.163697058616902,0.178565712593018,0.0100567907651994));
#1874=CARTESIAN_POINT('',(0.163366152496937,0.178412304510549,0.00972511976340384));
#1875=CARTESIAN_POINT('',(0.163132879113561,0.178707288003552,0.00940814891773234));
#1876=CARTESIAN_POINT('',(0.161926917783036,0.180008239292346,0.0116237597723127));
#1877=CARTESIAN_POINT('',(0.161807232313351,0.179987214632846,0.0114264707426509));
#1878=CARTESIAN_POINT('',(0.161637741120591,0.180065710165374,0.0112885117269195));
#1879=CARTESIAN_POINT('',(0.160517920194251,0.180500102693703,0.012744032981996));
#1880=CARTESIAN_POINT('',(0.160469728144638,0.180508227938186,0.0126884362769155));
#1881=CARTESIAN_POINT('',(0.160421536087834,0.180516353183905,0.0126328395783966));
#1882=CARTESIAN_POINT('',(0.159797874221206,0.180621503414885,0.0133));
#1883=CARTESIAN_POINT('',(0.159797874221206,0.180621503414885,0.0133));
#1884=CARTESIAN_POINT('',(0.159797874221206,0.180621503414885,0.0133));
#1885=CARTESIAN_POINT('',(0.163721162880462,0.174143791838054,0.0073));
#1886=CARTESIAN_POINT('',(0.164002414584488,0.175008027035864,0.00730000000000003));
#1887=CARTESIAN_POINT('',(0.164040810414197,0.176790349010839,0.00788836187202195));
#1888=CARTESIAN_POINT('',(0.163062695122131,0.178790949471403,0.00950240997449308));
#1889=CARTESIAN_POINT('',(0.161584419616449,0.180090053604626,0.0113484662961829));
#1890=CARTESIAN_POINT('',(0.16040151408424,0.180519728920687,0.0126542580457649));
#1891=CARTESIAN_POINT('',(0.159797874221207,0.180621503414886,0.0133));
#1892=CARTESIAN_POINT('',(0.163721162880462,0.174143791838054,0.0073));
#1893=CARTESIAN_POINT('',(0.164672075502912,0.173834332334297,0.0073));
#1894=CARTESIAN_POINT('',(0.158966599768213,0.175691089356837,0.0073));
#1895=CARTESIAN_POINT('',(0.158966599768213,0.175691089356837,0.0073));
#1896=CARTESIAN_POINT('',(0.1651,0.1651,0.0083));
#1897=CARTESIAN_POINT('',(0.167194078223241,0.1768475,0.0083));
#1898=CARTESIAN_POINT('',(0.160273289111621,0.169926710888379,0.0083));
#1899=CARTESIAN_POINT('',(0.162502133674145,0.172155555450904,0.0083));
#1900=CARTESIAN_POINT('',(0.1651,0.1651,0.0083));
#1901=CARTESIAN_POINT('',(0.169926710888379,0.160273289111621,0.0083));
#1902=CARTESIAN_POINT('',(0.1768475,0.167194078223242,0.0083));
#1903=CARTESIAN_POINT('',(0.172155555450904,0.162502133674146,0.0083));
#1904=CARTESIAN_POINT('',(0.175691089356837,0.158966599768213,0.0083));
#1905=CARTESIAN_POINT('',(0.158966599768213,0.175691089356837,0.0083));
#1906=CARTESIAN_POINT('',(0.158966599768213,0.175691089356837,0.003));
#1907=CARTESIAN_POINT('',(0.162988120380331,0.17272,0.003));
#1908=CARTESIAN_POINT('',(0.162988120380331,0.17272,0.0083));
#1909=CARTESIAN_POINT('',(2.77555756156289E-17,0.,0.003));
#1910=CARTESIAN_POINT('',(-8.32667268468867E-17,0.17272,0.003));
#1911=CARTESIAN_POINT('',(-5.55111512312578E-17,0.180975,0.003));
#1912=CARTESIAN_POINT('',(-8.32667268468867E-17,0.17272,0.003));
#1913=CARTESIAN_POINT('',(-2.77555756156289E-17,-2.77555756156289E-17,0.0083));
#1914=CARTESIAN_POINT('',(0.01,-4.16333634234433E-17,0.0083));
#1915=CARTESIAN_POINT('',(-2.77555756156289E-17,-2.77555756156289E-17,0.0083));
#1916=CARTESIAN_POINT('',(0.,0.,0.));
#1917=CARTESIAN_POINT('',(0.181075,0.,0.0083));
#1918=CARTESIAN_POINT('',(0.1541125,0.185074999999998,0.167525));
#1919=CARTESIAN_POINT('',(0.155575,0.185074999999997,0.167525));
#1920=CARTESIAN_POINT('',(0.155575,0.185074999999997,0.167425));
#1921=CARTESIAN_POINT('',(0.1541125,0.185074999999998,0.167425));
#1922=CARTESIAN_POINT('',(0.155575,0.155575,0.167525));
#1923=CARTESIAN_POINT('',(0.175245607557569,0.177570974134734,0.160877559629339));
#1924=CARTESIAN_POINT('',(0.174722509080008,0.178014414692255,0.16252541772721));
#1925=CARTESIAN_POINT('',(0.175245188762807,0.177571290622555,0.164170769461819));
#1926=CARTESIAN_POINT('',(0.176446607963733,0.176449091373719,0.16485190081761));
#1927=CARTESIAN_POINT('',(0.177571478791513,0.175245044829174,0.164171625438584));
#1928=CARTESIAN_POINT('',(0.178013886784205,0.174723099731109,0.162525355593445));
#1929=CARTESIAN_POINT('',(0.177572897059994,0.175243389507466,0.160881495983109));
#1930=CARTESIAN_POINT('',(0.176449549031736,0.176446183883612,0.16019773763367));
#1931=CARTESIAN_POINT('',(0.175245607557569,0.177570974134734,0.160877559629339));
#1932=CARTESIAN_POINT('',(0.174722509080008,0.178014414692255,0.16252541772721));
#1933=CARTESIAN_POINT('',(0.175245188762807,0.177571290622555,0.164170769461819));
#1934=CARTESIAN_POINT('',(0.174896805440068,0.177866653921051,0.162525));
#1935=CARTESIAN_POINT('',(0.185074999999996,0.155575,0.167525));
#1936=CARTESIAN_POINT('',(0.185074999999996,0.155575,0.167425));
#1937=CARTESIAN_POINT('',(0.155575,0.155575,0.167425));
#1938=CARTESIAN_POINT('',(0.185074999999996,0.1541125,0.167525));
#1939=CARTESIAN_POINT('',(0.185074999999996,0.1541125,0.167425));
#1940=CARTESIAN_POINT('',(0.171,-0.0353553390593274,0.167425));
#1941=CARTESIAN_POINT('',(0.16470441717316,0.16470441717316,0.162525));
#1942=CARTESIAN_POINT('',(0.182382086702823,0.182382086702823,0.162525));
#1943=CARTESIAN_POINT('',(0.180897162462332,0.183867010943315,0.162525));
#1944=CARTESIAN_POINT('',(0.189453154514689,0.189453154514688,0.162525));
#1945=CARTESIAN_POINT('',(0.182382086702823,0.182382086702823,0.162525));
#1946=CARTESIAN_POINT('',(0.184927671115095,0.179836502290551,0.162525));
#1947=CARTESIAN_POINT('',(0.179836502290552,0.184927671115095,0.162525));
#1948=CARTESIAN_POINT('',(0.188549999999996,-0.01,0.0025));
#1949=CARTESIAN_POINT('',(0.188549999999996,-0.0099,0.0025));
#1950=CARTESIAN_POINT('',(0.181075,-0.01,0.0083));
#1951=CARTESIAN_POINT('',(0.181075,-0.0099,0.0083));
#1952=CARTESIAN_POINT('',(0.182685,-0.0099,0.00415));
#1953=CARTESIAN_POINT('',(0.01,0.180975,0.00415));
#1954=CARTESIAN_POINT('',(0.01,0.180975,0.00415));
#1955=CARTESIAN_POINT('',(0.01,0.182685,0.00415));
#1956=MECHANICAL_DESIGN_GEOMETRIC_PRESENTATION_REPRESENTATION('',(#1134),
#1957);
#1957=(
GEOMETRIC_REPRESENTATION_CONTEXT(3)
GLOBAL_UNCERTAINTY_ASSIGNED_CONTEXT((#1958))
GLOBAL_UNIT_ASSIGNED_CONTEXT((#1961,#1960,#1959))
REPRESENTATION_CONTEXT('Bottom Right Back','TOP_LEVEL_ASSEMBLY_PART')
);
#1958=UNCERTAINTY_MEASURE_WITH_UNIT(LENGTH_MEASURE(2.E-5),#1961,
'DISTANCE_ACCURACY_VALUE','Maximum Tolerance applied to model');
#1959=(
NAMED_UNIT(*)
SI_UNIT($,.STERADIAN.)
SOLID_ANGLE_UNIT()
);
#1960=(
NAMED_UNIT(*)
PLANE_ANGLE_UNIT()
SI_UNIT($,.RADIAN.)
);
#1961=(
LENGTH_UNIT()
NAMED_UNIT(*)
SI_UNIT($,.METRE.)
);
#1962=PRODUCT_DEFINITION_SHAPE('','',#1963);
#1963=PRODUCT_DEFINITION('','',#1965,#1964);
#1964=PRODUCT_DEFINITION_CONTEXT('',#1971,'design');
#1965=PRODUCT_DEFINITION_FORMATION_WITH_SPECIFIED_SOURCE('','',#1967,
 .NOT_KNOWN.);
#1966=PRODUCT_RELATED_PRODUCT_CATEGORY('','',(#1967));
#1967=PRODUCT('Bottom Right Back','Bottom Right Back',
'Bottom Right Back',(#1969));
#1968=PRODUCT_CATEGORY('','');
#1969=PRODUCT_CONTEXT('',#1971,'mechanical');
#1970=APPLICATION_PROTOCOL_DEFINITION('international standard',
'ap242_managed_model_based_3d_engineering',2020,#1971);
#1971=APPLICATION_CONTEXT('managed model based 3d engineering');
ENDSEC;
END-ISO-10303-21;
