ISO-10303-21;
HEADER;
/* Generated by software containing ST-Developer
 * from STEP Tools, Inc. (www.steptools.com) 
 */
/* OPTION: using custom renumber hook */

FILE_DESCRIPTION(
/* description */ ('STEP AP242 Edition 2',
'CAx-IF Rec.Pracs.---Representation and Presentation of Product Manufa
cturing Information (PMI)---4.0---2014-10-13',
'CAx-IF Rec.Pracs.---3D Tessellated Geometry---0.4---2014-09-14','2;1',
'CAx-IF Rec.Pracs.---User Defined Attributes---1.5---2016-08-15'),
/* implementation_level */ '2;1');

FILE_NAME(
/* name */ 'N-Metheus - Bottom Left Back',
/* time_stamp */ '2026-01-30T20:52:38Z',
/* author */ (''),
/* organization */ (''),
/* preprocessor_version */ 'ST-DEVELOPER v20',
/* originating_system */ 'ONSHAPE BY PTC INC, 1.210',
/* authorisation */ '  ');

FILE_SCHEMA (('AP242_MANAGED_MODEL_BASED_3D_ENGINEERING_MIM_LF { 1 0 10303 442 3 1 4 }'));
ENDSEC;

DATA;
#10=SHAPE_REPRESENTATION_RELATIONSHIP('','',#1144,#11);
#11=ADVANCED_BREP_SHAPE_REPRESENTATION('',(#1142),#1957);
#12=(
BOUNDED_SURFACE()
B_SPLINE_SURFACE(3,2,((#1855,#1856,#1857),(#1858,#1859,#1860),(#1861,#1862,
#1863),(#1864,#1865,#1866),(#1867,#1868,#1869),(#1870,#1871,#1872),(#1873,
#1874,#1875),(#1876,#1877,#1878)),.UNSPECIFIED.,.F.,.F.,.F.)
B_SPLINE_SURFACE_WITH_KNOTS((4,1,1,1,1,4),(3,3),(7.02563007770607E-17,0.00151575555027908,
0.00303151110055808,0.0060630222011161,0.00909453330167411,0.0121260444022321),
(0.,1.),.UNSPECIFIED.)
GEOMETRIC_REPRESENTATION_ITEM()
RATIONAL_B_SPLINE_SURFACE(((1.,0.707106781186544,1.),(1.,0.711514439299998,
1.),(1.,0.734447036534023,1.),(1.,0.810565740166508,1.),(1.,0.909716623180626,
1.),(1.,0.983295243082889,1.),(1.,0.999999999999663,1.),(1.,1.,1.)))
REPRESENTATION_ITEM('')
SURFACE()
);
#13=(
BOUNDED_SURFACE()
B_SPLINE_SURFACE(3,2,((#1890,#1891,#1892),(#1893,#1894,#1895),(#1896,#1897,
#1898),(#1899,#1900,#1901),(#1902,#1903,#1904),(#1905,#1906,#1907),(#1908,
#1909,#1910),(#1911,#1912,#1913)),.UNSPECIFIED.,.F.,.F.,.F.)
B_SPLINE_SURFACE_WITH_KNOTS((4,1,1,1,1,4),(3,3),(-1.65449251521288E-16,
0.00151575555027882,0.0030315111005578,0.00606302220111577,0.00909453330167373,
0.0121260444022317),(0.,1.),.UNSPECIFIED.)
GEOMETRIC_REPRESENTATION_ITEM()
RATIONAL_B_SPLINE_SURFACE(((1.,0.707106781186551,1.),(1.,0.711514439292096,
1.),(1.,0.734447036537595,1.),(1.,0.810565740164436,1.),(1.,0.90971662318134,
1.),(1.,0.98329524308268,1.),(1.,0.999999999999663,1.),(1.,1.,1.)))
REPRESENTATION_ITEM('')
SURFACE()
);
#14=TOROIDAL_SURFACE('',#1206,0.0204,0.005);
#15=TOROIDAL_SURFACE('',#1210,0.006,0.001);
#16=TOROIDAL_SURFACE('',#1214,0.005826,0.001);
#17=TOROIDAL_SURFACE('',#1218,0.006,0.001);
#18=B_SPLINE_CURVE_WITH_KNOTS('',3,(#1706,#1707,#1708,#1709,#1710,#1711,
#1712,#1713,#1714,#1715,#1716),.UNSPECIFIED.,.T.,.F.,(1,1,1,1,1,1,1,1,1,
1,1,1,1,1,1),(-0.00845103586060823,-0.00563402390707215,-0.00281701195353608,
0.,0.00281701195353608,0.00563402390707215,0.00845103586060823,0.0112680478141443,
0.0140850597676804,0.0169020717212165,0.0197190836747525,0.0225360956282886,
0.0253531075818247,0.0281701195353608,0.0309871314888968),.UNSPECIFIED.);
#19=B_SPLINE_CURVE_WITH_KNOTS('',3,(#1823,#1824,#1825,#1826,#1827,#1828,
#1829),.UNSPECIFIED.,.F.,.F.,(4,1,1,1,4),(0.,0.00266936168852445,0.0053387233770489,
0.00800808506557335,0.0106774467540978),.UNSPECIFIED.);
#20=B_SPLINE_CURVE_WITH_KNOTS('',3,(#1831,#1832,#1833,#1834,#1835,#1836,
#1837),.UNSPECIFIED.,.F.,.F.,(4,1,1,1,4),(0.,0.00268923395091273,0.00537846790182546,
0.00806770185273819,0.0107569358036509),.UNSPECIFIED.);
#21=B_SPLINE_CURVE_WITH_KNOTS('',3,(#1838,#1839,#1840,#1841,#1842,#1843,
#1844),.UNSPECIFIED.,.F.,.F.,(4,1,1,1,4),(0.,0.00268923395091273,0.00537846790182546,
0.00806770185273819,0.0107569358036509),.UNSPECIFIED.);
#22=B_SPLINE_CURVE_WITH_KNOTS('',3,(#1846,#1847,#1848,#1849,#1850,#1851,
#1852),.UNSPECIFIED.,.F.,.F.,(4,1,1,1,4),(0.,0.00266936168852445,0.0053387233770489,
0.00800808506557335,0.0106774467540978),.UNSPECIFIED.);
#23=B_SPLINE_CURVE_WITH_KNOTS('',3,(#1923,#1924,#1925,#1926,#1927,#1928,
#1929,#1930,#1931,#1932,#1933),.UNSPECIFIED.,.T.,.F.,(1,1,1,1,1,1,1,1,1,
1,1,1,1,1,1),(-0.00492515803017115,-0.00328343868678077,-0.00164171934339038,
0.,0.00164171934339038,0.00328343868678077,0.00492515803017115,0.00656687737356153,
0.00820859671695192,0.0098503160603423,0.0114920354037327,0.0131337547471231,
0.0147754740905134,0.0164171934339038,0.0180589127772942),.UNSPECIFIED.);
#24=CYLINDRICAL_SURFACE('',#1166,0.0254);
#25=CYLINDRICAL_SURFACE('',#1170,0.0254);
#26=CYLINDRICAL_SURFACE('',#1190,0.006826);
#27=CYLINDRICAL_SURFACE('',#1199,0.003175);
#28=CYLINDRICAL_SURFACE('',#1203,0.004826);
#29=CYLINDRICAL_SURFACE('',#1204,0.005);
#30=CYLINDRICAL_SURFACE('',#1207,0.005);
#31=CYLINDRICAL_SURFACE('',#1212,0.001);
#32=CYLINDRICAL_SURFACE('',#1216,0.001);
#33=CYLINDRICAL_SURFACE('',#1223,0.029499999999996);
#34=CYLINDRICAL_SURFACE('',#1227,0.0021);
#35=CYLINDRICAL_SURFACE('',#1229,0.0036);
#36=CIRCLE('',#1151,0.029499999999996);
#37=CIRCLE('',#1152,0.0254);
#38=CIRCLE('',#1167,0.0254);
#39=CIRCLE('',#1168,0.0254);
#40=CIRCLE('',#1169,0.0254);
#41=CIRCLE('',#1171,0.0254);
#42=CIRCLE('',#1172,0.0254);
#43=CIRCLE('',#1174,0.005);
#44=CIRCLE('',#1175,0.006826);
#45=CIRCLE('',#1176,0.005);
#46=CIRCLE('',#1177,0.003175);
#47=CIRCLE('',#1182,0.005);
#48=CIRCLE('',#1188,0.005);
#49=CIRCLE('',#1191,0.006826);
#50=CIRCLE('',#1194,0.0204);
#51=CIRCLE('',#1195,0.006);
#52=CIRCLE('',#1196,0.005826);
#53=CIRCLE('',#1197,0.006);
#54=CIRCLE('',#1198,0.004826);
#55=CIRCLE('',#1200,0.003175);
#56=CIRCLE('',#1202,0.004826);
#57=CIRCLE('',#1205,0.005);
#58=CIRCLE('',#1208,0.005);
#59=CIRCLE('',#1209,0.001);
#60=CIRCLE('',#1211,0.001);
#61=CIRCLE('',#1213,0.001);
#62=CIRCLE('',#1215,0.001);
#63=CIRCLE('',#1217,0.001);
#64=CIRCLE('',#1219,0.001);
#65=CIRCLE('',#1224,0.029499999999996);
#66=CIRCLE('',#1228,0.0021);
#67=CIRCLE('',#1230,0.0036);
#68=ORIENTED_EDGE('',*,*,#384,.T.);
#69=ORIENTED_EDGE('',*,*,#385,.F.);
#70=ORIENTED_EDGE('',*,*,#386,.F.);
#71=ORIENTED_EDGE('',*,*,#387,.T.);
#72=ORIENTED_EDGE('',*,*,#388,.T.);
#73=ORIENTED_EDGE('',*,*,#389,.F.);
#74=ORIENTED_EDGE('',*,*,#390,.F.);
#75=ORIENTED_EDGE('',*,*,#391,.F.);
#76=ORIENTED_EDGE('',*,*,#392,.T.);
#77=ORIENTED_EDGE('',*,*,#393,.T.);
#78=ORIENTED_EDGE('',*,*,#394,.T.);
#79=ORIENTED_EDGE('',*,*,#395,.F.);
#80=ORIENTED_EDGE('',*,*,#393,.F.);
#81=ORIENTED_EDGE('',*,*,#396,.T.);
#82=ORIENTED_EDGE('',*,*,#397,.F.);
#83=ORIENTED_EDGE('',*,*,#398,.T.);
#84=ORIENTED_EDGE('',*,*,#399,.T.);
#85=ORIENTED_EDGE('',*,*,#400,.F.);
#86=ORIENTED_EDGE('',*,*,#401,.F.);
#87=ORIENTED_EDGE('',*,*,#402,.F.);
#88=ORIENTED_EDGE('',*,*,#403,.T.);
#89=ORIENTED_EDGE('',*,*,#404,.T.);
#90=ORIENTED_EDGE('',*,*,#405,.T.);
#91=ORIENTED_EDGE('',*,*,#406,.F.);
#92=ORIENTED_EDGE('',*,*,#407,.F.);
#93=ORIENTED_EDGE('',*,*,#391,.T.);
#94=ORIENTED_EDGE('',*,*,#408,.F.);
#95=ORIENTED_EDGE('',*,*,#409,.F.);
#96=ORIENTED_EDGE('',*,*,#410,.T.);
#97=ORIENTED_EDGE('',*,*,#411,.T.);
#98=ORIENTED_EDGE('',*,*,#412,.T.);
#99=ORIENTED_EDGE('',*,*,#413,.T.);
#100=ORIENTED_EDGE('',*,*,#414,.F.);
#101=ORIENTED_EDGE('',*,*,#415,.F.);
#102=ORIENTED_EDGE('',*,*,#416,.T.);
#103=ORIENTED_EDGE('',*,*,#409,.T.);
#104=ORIENTED_EDGE('',*,*,#417,.T.);
#105=ORIENTED_EDGE('',*,*,#418,.T.);
#106=ORIENTED_EDGE('',*,*,#419,.F.);
#107=ORIENTED_EDGE('',*,*,#420,.T.);
#108=ORIENTED_EDGE('',*,*,#421,.T.);
#109=ORIENTED_EDGE('',*,*,#422,.T.);
#110=ORIENTED_EDGE('',*,*,#387,.F.);
#111=ORIENTED_EDGE('',*,*,#423,.F.);
#112=ORIENTED_EDGE('',*,*,#424,.F.);
#113=ORIENTED_EDGE('',*,*,#425,.F.);
#114=ORIENTED_EDGE('',*,*,#426,.T.);
#115=ORIENTED_EDGE('',*,*,#427,.T.);
#116=ORIENTED_EDGE('',*,*,#385,.T.);
#117=ORIENTED_EDGE('',*,*,#428,.F.);
#118=ORIENTED_EDGE('',*,*,#429,.F.);
#119=ORIENTED_EDGE('',*,*,#394,.F.);
#120=ORIENTED_EDGE('',*,*,#411,.F.);
#121=ORIENTED_EDGE('',*,*,#430,.T.);
#122=ORIENTED_EDGE('',*,*,#431,.T.);
#123=ORIENTED_EDGE('',*,*,#432,.F.);
#124=ORIENTED_EDGE('',*,*,#433,.F.);
#125=ORIENTED_EDGE('',*,*,#434,.F.);
#126=ORIENTED_EDGE('',*,*,#435,.T.);
#127=ORIENTED_EDGE('',*,*,#436,.F.);
#128=ORIENTED_EDGE('',*,*,#437,.T.);
#129=ORIENTED_EDGE('',*,*,#438,.T.);
#130=ORIENTED_EDGE('',*,*,#400,.T.);
#131=ORIENTED_EDGE('',*,*,#439,.F.);
#132=ORIENTED_EDGE('',*,*,#413,.F.);
#133=ORIENTED_EDGE('',*,*,#440,.T.);
#134=ORIENTED_EDGE('',*,*,#441,.F.);
#135=ORIENTED_EDGE('',*,*,#442,.F.);
#136=ORIENTED_EDGE('',*,*,#443,.T.);
#137=ORIENTED_EDGE('',*,*,#444,.F.);
#138=ORIENTED_EDGE('',*,*,#445,.F.);
#139=ORIENTED_EDGE('',*,*,#446,.T.);
#140=ORIENTED_EDGE('',*,*,#447,.T.);
#141=ORIENTED_EDGE('',*,*,#448,.F.);
#142=ORIENTED_EDGE('',*,*,#402,.T.);
#143=ORIENTED_EDGE('',*,*,#449,.T.);
#144=ORIENTED_EDGE('',*,*,#426,.F.);
#145=ORIENTED_EDGE('',*,*,#450,.F.);
#146=ORIENTED_EDGE('',*,*,#419,.T.);
#147=ORIENTED_EDGE('',*,*,#451,.F.);
#148=ORIENTED_EDGE('',*,*,#417,.F.);
#149=ORIENTED_EDGE('',*,*,#408,.T.);
#150=ORIENTED_EDGE('',*,*,#390,.T.);
#151=ORIENTED_EDGE('',*,*,#452,.F.);
#152=ORIENTED_EDGE('',*,*,#437,.F.);
#153=ORIENTED_EDGE('',*,*,#453,.T.);
#154=ORIENTED_EDGE('',*,*,#445,.T.);
#155=ORIENTED_EDGE('',*,*,#454,.T.);
#156=ORIENTED_EDGE('',*,*,#412,.F.);
#157=ORIENTED_EDGE('',*,*,#434,.T.);
#158=ORIENTED_EDGE('',*,*,#455,.T.);
#159=ORIENTED_EDGE('',*,*,#440,.F.);
#160=ORIENTED_EDGE('',*,*,#392,.F.);
#161=ORIENTED_EDGE('',*,*,#407,.T.);
#162=ORIENTED_EDGE('',*,*,#456,.F.);
#163=ORIENTED_EDGE('',*,*,#457,.F.);
#164=ORIENTED_EDGE('',*,*,#424,.T.);
#165=ORIENTED_EDGE('',*,*,#396,.F.);
#166=ORIENTED_EDGE('',*,*,#403,.F.);
#167=ORIENTED_EDGE('',*,*,#444,.T.);
#168=ORIENTED_EDGE('',*,*,#458,.T.);
#169=ORIENTED_EDGE('',*,*,#447,.F.);
#170=ORIENTED_EDGE('',*,*,#459,.T.);
#171=ORIENTED_EDGE('',*,*,#460,.T.);
#172=ORIENTED_EDGE('',*,*,#410,.F.);
#173=ORIENTED_EDGE('',*,*,#416,.F.);
#174=ORIENTED_EDGE('',*,*,#461,.T.);
#175=ORIENTED_EDGE('',*,*,#462,.T.);
#176=ORIENTED_EDGE('',*,*,#463,.T.);
#177=ORIENTED_EDGE('',*,*,#464,.T.);
#178=ORIENTED_EDGE('',*,*,#465,.T.);
#179=ORIENTED_EDGE('',*,*,#430,.F.);
#180=ORIENTED_EDGE('',*,*,#466,.F.);
#181=ORIENTED_EDGE('',*,*,#421,.F.);
#182=ORIENTED_EDGE('',*,*,#467,.T.);
#183=ORIENTED_EDGE('',*,*,#435,.F.);
#184=ORIENTED_EDGE('',*,*,#468,.F.);
#185=ORIENTED_EDGE('',*,*,#469,.T.);
#186=ORIENTED_EDGE('',*,*,#428,.T.);
#187=ORIENTED_EDGE('',*,*,#384,.F.);
#188=ORIENTED_EDGE('',*,*,#422,.F.);
#189=ORIENTED_EDGE('',*,*,#468,.T.);
#190=ORIENTED_EDGE('',*,*,#439,.T.);
#191=ORIENTED_EDGE('',*,*,#399,.F.);
#192=ORIENTED_EDGE('',*,*,#470,.F.);
#193=ORIENTED_EDGE('',*,*,#471,.F.);
#194=ORIENTED_EDGE('',*,*,#472,.T.);
#195=ORIENTED_EDGE('',*,*,#473,.F.);
#196=ORIENTED_EDGE('',*,*,#474,.T.);
#197=ORIENTED_EDGE('',*,*,#475,.T.);
#198=ORIENTED_EDGE('',*,*,#476,.F.);
#199=ORIENTED_EDGE('',*,*,#477,.F.);
#200=ORIENTED_EDGE('',*,*,#478,.T.);
#201=ORIENTED_EDGE('',*,*,#479,.T.);
#202=ORIENTED_EDGE('',*,*,#480,.T.);
#203=ORIENTED_EDGE('',*,*,#481,.F.);
#204=ORIENTED_EDGE('',*,*,#482,.F.);
#205=ORIENTED_EDGE('',*,*,#483,.F.);
#206=ORIENTED_EDGE('',*,*,#423,.T.);
#207=ORIENTED_EDGE('',*,*,#386,.T.);
#208=ORIENTED_EDGE('',*,*,#427,.F.);
#209=ORIENTED_EDGE('',*,*,#451,.T.);
#210=ORIENTED_EDGE('',*,*,#484,.F.);
#211=ORIENTED_EDGE('',*,*,#418,.F.);
#212=ORIENTED_EDGE('',*,*,#452,.T.);
#213=ORIENTED_EDGE('',*,*,#389,.T.);
#214=ORIENTED_EDGE('',*,*,#485,.T.);
#215=ORIENTED_EDGE('',*,*,#486,.T.);
#216=ORIENTED_EDGE('',*,*,#480,.F.);
#217=ORIENTED_EDGE('',*,*,#487,.F.);
#218=ORIENTED_EDGE('',*,*,#415,.T.);
#219=ORIENTED_EDGE('',*,*,#488,.T.);
#220=ORIENTED_EDGE('',*,*,#489,.T.);
#221=ORIENTED_EDGE('',*,*,#485,.F.);
#222=ORIENTED_EDGE('',*,*,#490,.F.);
#223=ORIENTED_EDGE('',*,*,#461,.F.);
#224=ORIENTED_EDGE('',*,*,#449,.F.);
#225=ORIENTED_EDGE('',*,*,#401,.T.);
#226=ORIENTED_EDGE('',*,*,#438,.F.);
#227=ORIENTED_EDGE('',*,*,#454,.F.);
#228=ORIENTED_EDGE('',*,*,#433,.T.);
#229=ORIENTED_EDGE('',*,*,#491,.T.);
#230=ORIENTED_EDGE('',*,*,#492,.F.);
#231=ORIENTED_EDGE('',*,*,#493,.T.);
#232=ORIENTED_EDGE('',*,*,#441,.T.);
#233=ORIENTED_EDGE('',*,*,#455,.F.);
#234=ORIENTED_EDGE('',*,*,#443,.F.);
#235=ORIENTED_EDGE('',*,*,#494,.T.);
#236=ORIENTED_EDGE('',*,*,#495,.T.);
#237=ORIENTED_EDGE('',*,*,#397,.T.);
#238=ORIENTED_EDGE('',*,*,#448,.T.);
#239=ORIENTED_EDGE('',*,*,#458,.F.);
#240=ORIENTED_EDGE('',*,*,#474,.F.);
#241=ORIENTED_EDGE('',*,*,#496,.T.);
#242=ORIENTED_EDGE('',*,*,#497,.T.);
#243=ORIENTED_EDGE('',*,*,#498,.F.);
#244=ORIENTED_EDGE('',*,*,#497,.F.);
#245=ORIENTED_EDGE('',*,*,#499,.T.);
#246=ORIENTED_EDGE('',*,*,#431,.F.);
#247=ORIENTED_EDGE('',*,*,#465,.F.);
#248=ORIENTED_EDGE('',*,*,#500,.F.);
#249=ORIENTED_EDGE('',*,*,#501,.F.);
#250=ORIENTED_EDGE('',*,*,#502,.T.);
#251=ORIENTED_EDGE('',*,*,#503,.T.);
#252=ORIENTED_EDGE('',*,*,#478,.F.);
#253=ORIENTED_EDGE('',*,*,#504,.F.);
#254=ORIENTED_EDGE('',*,*,#505,.T.);
#255=ORIENTED_EDGE('',*,*,#501,.T.);
#256=ORIENTED_EDGE('',*,*,#477,.T.);
#257=ORIENTED_EDGE('',*,*,#506,.T.);
#258=ORIENTED_EDGE('',*,*,#507,.T.);
#259=ORIENTED_EDGE('',*,*,#504,.T.);
#260=ORIENTED_EDGE('',*,*,#476,.T.);
#261=ORIENTED_EDGE('',*,*,#508,.T.);
#262=ORIENTED_EDGE('',*,*,#509,.T.);
#263=ORIENTED_EDGE('',*,*,#510,.T.);
#264=ORIENTED_EDGE('',*,*,#511,.T.);
#265=ORIENTED_EDGE('',*,*,#512,.T.);
#266=ORIENTED_EDGE('',*,*,#513,.T.);
#267=ORIENTED_EDGE('',*,*,#514,.T.);
#268=ORIENTED_EDGE('',*,*,#515,.F.);
#269=ORIENTED_EDGE('',*,*,#483,.T.);
#270=ORIENTED_EDGE('',*,*,#515,.T.);
#271=ORIENTED_EDGE('',*,*,#516,.F.);
#272=ORIENTED_EDGE('',*,*,#516,.T.);
#273=ORIENTED_EDGE('',*,*,#514,.F.);
#274=ORIENTED_EDGE('',*,*,#490,.T.);
#275=ORIENTED_EDGE('',*,*,#487,.T.);
#276=ORIENTED_EDGE('',*,*,#479,.F.);
#277=ORIENTED_EDGE('',*,*,#503,.F.);
#278=ORIENTED_EDGE('',*,*,#517,.T.);
#279=ORIENTED_EDGE('',*,*,#518,.T.);
#280=ORIENTED_EDGE('',*,*,#462,.F.);
#281=ORIENTED_EDGE('',*,*,#463,.F.);
#282=ORIENTED_EDGE('',*,*,#519,.T.);
#283=ORIENTED_EDGE('',*,*,#508,.F.);
#284=ORIENTED_EDGE('',*,*,#520,.T.);
#285=ORIENTED_EDGE('',*,*,#475,.F.);
#286=ORIENTED_EDGE('',*,*,#498,.T.);
#287=ORIENTED_EDGE('',*,*,#500,.T.);
#288=ORIENTED_EDGE('',*,*,#464,.F.);
#289=ORIENTED_EDGE('',*,*,#521,.T.);
#290=ORIENTED_EDGE('',*,*,#522,.T.);
#291=ORIENTED_EDGE('',*,*,#506,.F.);
#292=ORIENTED_EDGE('',*,*,#521,.F.);
#293=ORIENTED_EDGE('',*,*,#520,.F.);
#294=ORIENTED_EDGE('',*,*,#523,.F.);
#295=ORIENTED_EDGE('',*,*,#523,.T.);
#296=ORIENTED_EDGE('',*,*,#513,.F.);
#297=ORIENTED_EDGE('',*,*,#524,.F.);
#298=ORIENTED_EDGE('',*,*,#522,.F.);
#299=ORIENTED_EDGE('',*,*,#524,.T.);
#300=ORIENTED_EDGE('',*,*,#512,.F.);
#301=ORIENTED_EDGE('',*,*,#525,.F.);
#302=ORIENTED_EDGE('',*,*,#507,.F.);
#303=ORIENTED_EDGE('',*,*,#525,.T.);
#304=ORIENTED_EDGE('',*,*,#511,.F.);
#305=ORIENTED_EDGE('',*,*,#526,.F.);
#306=ORIENTED_EDGE('',*,*,#505,.F.);
#307=ORIENTED_EDGE('',*,*,#526,.T.);
#308=ORIENTED_EDGE('',*,*,#510,.F.);
#309=ORIENTED_EDGE('',*,*,#527,.F.);
#310=ORIENTED_EDGE('',*,*,#502,.F.);
#311=ORIENTED_EDGE('',*,*,#527,.T.);
#312=ORIENTED_EDGE('',*,*,#509,.F.);
#313=ORIENTED_EDGE('',*,*,#528,.F.);
#314=ORIENTED_EDGE('',*,*,#517,.F.);
#315=ORIENTED_EDGE('',*,*,#519,.F.);
#316=ORIENTED_EDGE('',*,*,#518,.F.);
#317=ORIENTED_EDGE('',*,*,#528,.T.);
#318=ORIENTED_EDGE('',*,*,#529,.F.);
#319=ORIENTED_EDGE('',*,*,#491,.F.);
#320=ORIENTED_EDGE('',*,*,#432,.T.);
#321=ORIENTED_EDGE('',*,*,#499,.F.);
#322=ORIENTED_EDGE('',*,*,#496,.F.);
#323=ORIENTED_EDGE('',*,*,#473,.T.);
#324=ORIENTED_EDGE('',*,*,#530,.F.);
#325=ORIENTED_EDGE('',*,*,#481,.T.);
#326=ORIENTED_EDGE('',*,*,#486,.F.);
#327=ORIENTED_EDGE('',*,*,#489,.F.);
#328=ORIENTED_EDGE('',*,*,#404,.F.);
#329=ORIENTED_EDGE('',*,*,#460,.F.);
#330=ORIENTED_EDGE('',*,*,#531,.T.);
#331=ORIENTED_EDGE('',*,*,#532,.T.);
#332=ORIENTED_EDGE('',*,*,#533,.T.);
#333=ORIENTED_EDGE('',*,*,#405,.F.);
#334=ORIENTED_EDGE('',*,*,#532,.F.);
#335=ORIENTED_EDGE('',*,*,#534,.T.);
#336=ORIENTED_EDGE('',*,*,#535,.T.);
#337=ORIENTED_EDGE('',*,*,#406,.T.);
#338=ORIENTED_EDGE('',*,*,#535,.F.);
#339=ORIENTED_EDGE('',*,*,#536,.F.);
#340=ORIENTED_EDGE('',*,*,#456,.T.);
#341=ORIENTED_EDGE('',*,*,#531,.F.);
#342=ORIENTED_EDGE('',*,*,#459,.F.);
#343=ORIENTED_EDGE('',*,*,#446,.F.);
#344=ORIENTED_EDGE('',*,*,#453,.F.);
#345=ORIENTED_EDGE('',*,*,#436,.T.);
#346=ORIENTED_EDGE('',*,*,#467,.F.);
#347=ORIENTED_EDGE('',*,*,#420,.F.);
#348=ORIENTED_EDGE('',*,*,#450,.T.);
#349=ORIENTED_EDGE('',*,*,#425,.T.);
#350=ORIENTED_EDGE('',*,*,#457,.T.);
#351=ORIENTED_EDGE('',*,*,#536,.T.);
#352=ORIENTED_EDGE('',*,*,#534,.F.);
#353=ORIENTED_EDGE('',*,*,#537,.T.);
#354=ORIENTED_EDGE('',*,*,#533,.F.);
#355=ORIENTED_EDGE('',*,*,#466,.T.);
#356=ORIENTED_EDGE('',*,*,#538,.T.);
#357=ORIENTED_EDGE('',*,*,#537,.F.);
#358=ORIENTED_EDGE('',*,*,#538,.F.);
#359=ORIENTED_EDGE('',*,*,#398,.F.);
#360=ORIENTED_EDGE('',*,*,#495,.F.);
#361=ORIENTED_EDGE('',*,*,#539,.T.);
#362=ORIENTED_EDGE('',*,*,#470,.T.);
#363=ORIENTED_EDGE('',*,*,#529,.T.);
#364=ORIENTED_EDGE('',*,*,#472,.F.);
#365=ORIENTED_EDGE('',*,*,#540,.F.);
#366=ORIENTED_EDGE('',*,*,#492,.T.);
#367=ORIENTED_EDGE('',*,*,#539,.F.);
#368=ORIENTED_EDGE('',*,*,#494,.F.);
#369=ORIENTED_EDGE('',*,*,#442,.T.);
#370=ORIENTED_EDGE('',*,*,#493,.F.);
#371=ORIENTED_EDGE('',*,*,#540,.T.);
#372=ORIENTED_EDGE('',*,*,#471,.T.);
#373=ORIENTED_EDGE('',*,*,#541,.F.);
#374=ORIENTED_EDGE('',*,*,#482,.T.);
#375=ORIENTED_EDGE('',*,*,#530,.T.);
#376=ORIENTED_EDGE('',*,*,#488,.F.);
#377=ORIENTED_EDGE('',*,*,#395,.T.);
#378=ORIENTED_EDGE('',*,*,#429,.T.);
#379=ORIENTED_EDGE('',*,*,#469,.F.);
#380=ORIENTED_EDGE('',*,*,#541,.T.);
#381=ORIENTED_EDGE('',*,*,#414,.T.);
#382=ORIENTED_EDGE('',*,*,#484,.T.);
#383=ORIENTED_EDGE('',*,*,#388,.F.);
#384=EDGE_CURVE('',#542,#543,#647,.T.);
#385=EDGE_CURVE('',#544,#543,#648,.T.);
#386=EDGE_CURVE('',#545,#544,#649,.T.);
#387=EDGE_CURVE('',#545,#542,#650,.T.);
#388=EDGE_CURVE('',#546,#547,#651,.T.);
#389=EDGE_CURVE('',#548,#547,#652,.T.);
#390=EDGE_CURVE('',#549,#548,#653,.T.);
#391=EDGE_CURVE('',#550,#549,#654,.T.);
#392=EDGE_CURVE('',#550,#551,#655,.T.);
#393=EDGE_CURVE('',#551,#546,#656,.T.);
#394=EDGE_CURVE('',#552,#553,#657,.T.);
#395=EDGE_CURVE('',#546,#553,#658,.T.);
#396=EDGE_CURVE('',#551,#552,#659,.T.);
#397=EDGE_CURVE('',#554,#555,#660,.T.);
#398=EDGE_CURVE('',#554,#556,#661,.T.);
#399=EDGE_CURVE('',#556,#557,#662,.T.);
#400=EDGE_CURVE('',#558,#557,#663,.T.);
#401=EDGE_CURVE('',#559,#558,#664,.T.);
#402=EDGE_CURVE('',#555,#559,#665,.T.);
#403=EDGE_CURVE('',#560,#561,#666,.T.);
#404=EDGE_CURVE('',#561,#562,#667,.T.);
#405=EDGE_CURVE('',#562,#563,#36,.T.);
#406=EDGE_CURVE('',#564,#563,#668,.T.);
#407=EDGE_CURVE('',#550,#564,#669,.T.);
#408=EDGE_CURVE('',#565,#549,#670,.T.);
#409=EDGE_CURVE('',#566,#565,#671,.T.);
#410=EDGE_CURVE('',#566,#567,#37,.F.);
#411=EDGE_CURVE('',#567,#568,#672,.T.);
#412=EDGE_CURVE('',#568,#569,#673,.T.);
#413=EDGE_CURVE('',#569,#560,#674,.T.);
#414=EDGE_CURVE('',#570,#571,#675,.T.);
#415=EDGE_CURVE('',#572,#570,#676,.T.);
#416=EDGE_CURVE('',#572,#566,#677,.F.);
#417=EDGE_CURVE('',#565,#573,#678,.T.);
#418=EDGE_CURVE('',#573,#571,#679,.T.);
#419=EDGE_CURVE('',#574,#575,#680,.T.);
#420=EDGE_CURVE('',#574,#576,#681,.T.);
#421=EDGE_CURVE('',#576,#577,#682,.T.);
#422=EDGE_CURVE('',#577,#542,#683,.T.);
#423=EDGE_CURVE('',#575,#545,#684,.T.);
#424=EDGE_CURVE('',#578,#552,#685,.T.);
#425=EDGE_CURVE('',#579,#578,#686,.T.);
#426=EDGE_CURVE('',#579,#580,#687,.T.);
#427=EDGE_CURVE('',#580,#544,#688,.T.);
#428=EDGE_CURVE('',#581,#543,#689,.T.);
#429=EDGE_CURVE('',#553,#581,#690,.T.);
#430=EDGE_CURVE('',#567,#582,#691,.T.);
#431=EDGE_CURVE('',#582,#583,#692,.T.);
#432=EDGE_CURVE('',#584,#583,#693,.T.);
#433=EDGE_CURVE('',#585,#584,#694,.T.);
#434=EDGE_CURVE('',#568,#585,#695,.T.);
#435=EDGE_CURVE('',#586,#587,#696,.F.);
#436=EDGE_CURVE('',#588,#587,#697,.T.);
#437=EDGE_CURVE('',#588,#589,#698,.T.);
#438=EDGE_CURVE('',#589,#558,#699,.T.);
#439=EDGE_CURVE('',#586,#557,#700,.T.);
#440=EDGE_CURVE('',#569,#590,#701,.T.);
#441=EDGE_CURVE('',#591,#590,#702,.T.);
#442=EDGE_CURVE('',#592,#591,#703,.T.);
#443=EDGE_CURVE('',#592,#593,#704,.T.);
#444=EDGE_CURVE('',#560,#593,#705,.T.);
#445=EDGE_CURVE('',#594,#595,#706,.T.);
#446=EDGE_CURVE('',#594,#596,#707,.T.);
#447=EDGE_CURVE('',#596,#597,#708,.T.);
#448=EDGE_CURVE('',#555,#597,#709,.T.);
#449=EDGE_CURVE('',#559,#595,#710,.T.);
#450=EDGE_CURVE('',#574,#579,#711,.T.);
#451=EDGE_CURVE('',#580,#575,#712,.T.);
#452=EDGE_CURVE('',#573,#548,#713,.T.);
#453=EDGE_CURVE('',#588,#594,#714,.T.);
#454=EDGE_CURVE('',#595,#589,#715,.T.);
#455=EDGE_CURVE('',#585,#590,#716,.T.);
#456=EDGE_CURVE('',#598,#564,#717,.T.);
#457=EDGE_CURVE('',#578,#598,#718,.T.);
#458=EDGE_CURVE('',#593,#597,#719,.T.);
#459=EDGE_CURVE('',#596,#599,#720,.T.);
#460=EDGE_CURVE('',#599,#561,#721,.T.);
#461=EDGE_CURVE('',#572,#600,#38,.F.);
#462=EDGE_CURVE('',#600,#601,#722,.F.);
#463=EDGE_CURVE('',#601,#602,#39,.F.);
#464=EDGE_CURVE('',#602,#603,#723,.T.);
#465=EDGE_CURVE('',#603,#582,#40,.F.);
#466=EDGE_CURVE('',#604,#604,#18,.T.);
#467=EDGE_CURVE('',#576,#587,#41,.F.);
#468=EDGE_CURVE('',#577,#586,#42,.F.);
#469=EDGE_CURVE('',#605,#581,#724,.T.);
#470=EDGE_CURVE('',#606,#556,#725,.T.);
#471=EDGE_CURVE('',#607,#606,#726,.T.);
#472=EDGE_CURVE('',#607,#608,#727,.T.);
#473=EDGE_CURVE('',#609,#608,#728,.T.);
#474=EDGE_CURVE('',#609,#610,#729,.T.);
#475=EDGE_CURVE('',#610,#611,#43,.T.);
#476=EDGE_CURVE('',#612,#611,#730,.T.);
#477=EDGE_CURVE('',#613,#612,#44,.T.);
#478=EDGE_CURVE('',#613,#614,#731,.T.);
#479=EDGE_CURVE('',#614,#615,#45,.T.);
#480=EDGE_CURVE('',#615,#616,#732,.T.);
#481=EDGE_CURVE('',#617,#616,#733,.T.);
#482=EDGE_CURVE('',#605,#617,#734,.T.);
#483=EDGE_CURVE('',#618,#618,#46,.F.);
#484=EDGE_CURVE('',#571,#547,#735,.T.);
#485=EDGE_CURVE('',#619,#620,#736,.T.);
#486=EDGE_CURVE('',#620,#616,#737,.T.);
#487=EDGE_CURVE('',#619,#615,#738,.T.);
#488=EDGE_CURVE('',#570,#621,#739,.T.);
#489=EDGE_CURVE('',#621,#620,#740,.T.);
#490=EDGE_CURVE('',#600,#619,#47,.F.);
#491=EDGE_CURVE('',#584,#622,#741,.T.);
#492=EDGE_CURVE('',#623,#622,#742,.T.);
#493=EDGE_CURVE('',#623,#591,#743,.T.);
#494=EDGE_CURVE('',#592,#624,#744,.T.);
#495=EDGE_CURVE('',#624,#554,#745,.T.);
#496=EDGE_CURVE('',#609,#625,#746,.T.);
#497=EDGE_CURVE('',#625,#626,#747,.T.);
#498=EDGE_CURVE('',#610,#626,#748,.F.);
#499=EDGE_CURVE('',#625,#583,#749,.T.);
#500=EDGE_CURVE('',#626,#603,#48,.F.);
#501=EDGE_CURVE('',#627,#613,#750,.T.);
#502=EDGE_CURVE('',#627,#628,#751,.T.);
#503=EDGE_CURVE('',#628,#614,#752,.T.);
#504=EDGE_CURVE('',#629,#612,#753,.T.);
#505=EDGE_CURVE('',#629,#627,#49,.F.);
#506=EDGE_CURVE('',#611,#630,#754,.T.);
#507=EDGE_CURVE('',#630,#629,#755,.F.);
#508=EDGE_CURVE('',#631,#632,#50,.T.);
#509=EDGE_CURVE('',#632,#633,#51,.F.);
#510=EDGE_CURVE('',#633,#634,#756,.F.);
#511=EDGE_CURVE('',#634,#635,#52,.T.);
#512=EDGE_CURVE('',#635,#636,#757,.T.);
#513=EDGE_CURVE('',#636,#631,#53,.F.);
#514=EDGE_CURVE('',#637,#637,#54,.T.);
#515=EDGE_CURVE('',#638,#638,#55,.T.);
#516=EDGE_CURVE('',#639,#639,#56,.T.);
#517=EDGE_CURVE('',#628,#640,#57,.T.);
#518=EDGE_CURVE('',#640,#601,#19,.T.);
#519=EDGE_CURVE('',#601,#632,#20,.F.);
#520=EDGE_CURVE('',#631,#602,#21,.T.);
#521=EDGE_CURVE('',#602,#641,#22,.F.);
#522=EDGE_CURVE('',#641,#630,#58,.T.);
#523=EDGE_CURVE('',#641,#631,#59,.T.);
#524=EDGE_CURVE('',#630,#636,#60,.T.);
#525=EDGE_CURVE('',#629,#635,#61,.T.);
#526=EDGE_CURVE('',#627,#634,#62,.T.);
#527=EDGE_CURVE('',#628,#633,#63,.T.);
#528=EDGE_CURVE('',#640,#632,#64,.T.);
#529=EDGE_CURVE('',#622,#608,#758,.T.);
#530=EDGE_CURVE('',#617,#621,#759,.T.);
#531=EDGE_CURVE('',#599,#642,#760,.T.);
#532=EDGE_CURVE('',#642,#562,#761,.F.);
#533=EDGE_CURVE('',#643,#643,#23,.T.);
#534=EDGE_CURVE('',#642,#644,#65,.T.);
#535=EDGE_CURVE('',#644,#563,#762,.T.);
#536=EDGE_CURVE('',#598,#644,#763,.T.);
#537=EDGE_CURVE('',#645,#645,#66,.T.);
#538=EDGE_CURVE('',#646,#646,#67,.T.);
#539=EDGE_CURVE('',#624,#606,#764,.T.);
#540=EDGE_CURVE('',#623,#607,#765,.T.);
#541=EDGE_CURVE('',#605,#570,#766,.T.);
#542=VERTEX_POINT('',#1544);
#543=VERTEX_POINT('',#1545);
#544=VERTEX_POINT('',#1547);
#545=VERTEX_POINT('',#1549);
#546=VERTEX_POINT('',#1553);
#547=VERTEX_POINT('',#1554);
#548=VERTEX_POINT('',#1556);
#549=VERTEX_POINT('',#1558);
#550=VERTEX_POINT('',#1560);
#551=VERTEX_POINT('',#1562);
#552=VERTEX_POINT('',#1566);
#553=VERTEX_POINT('',#1567);
#554=VERTEX_POINT('',#1572);
#555=VERTEX_POINT('',#1573);
#556=VERTEX_POINT('',#1575);
#557=VERTEX_POINT('',#1577);
#558=VERTEX_POINT('',#1579);
#559=VERTEX_POINT('',#1581);
#560=VERTEX_POINT('',#1585);
#561=VERTEX_POINT('',#1586);
#562=VERTEX_POINT('',#1588);
#563=VERTEX_POINT('',#1590);
#564=VERTEX_POINT('',#1592);
#565=VERTEX_POINT('',#1595);
#566=VERTEX_POINT('',#1597);
#567=VERTEX_POINT('',#1599);
#568=VERTEX_POINT('',#1601);
#569=VERTEX_POINT('',#1603);
#570=VERTEX_POINT('',#1607);
#571=VERTEX_POINT('',#1608);
#572=VERTEX_POINT('',#1610);
#573=VERTEX_POINT('',#1613);
#574=VERTEX_POINT('',#1617);
#575=VERTEX_POINT('',#1618);
#576=VERTEX_POINT('',#1620);
#577=VERTEX_POINT('',#1622);
#578=VERTEX_POINT('',#1627);
#579=VERTEX_POINT('',#1629);
#580=VERTEX_POINT('',#1631);
#581=VERTEX_POINT('',#1634);
#582=VERTEX_POINT('',#1638);
#583=VERTEX_POINT('',#1640);
#584=VERTEX_POINT('',#1642);
#585=VERTEX_POINT('',#1644);
#586=VERTEX_POINT('',#1648);
#587=VERTEX_POINT('',#1649);
#588=VERTEX_POINT('',#1651);
#589=VERTEX_POINT('',#1653);
#590=VERTEX_POINT('',#1658);
#591=VERTEX_POINT('',#1660);
#592=VERTEX_POINT('',#1662);
#593=VERTEX_POINT('',#1664);
#594=VERTEX_POINT('',#1668);
#595=VERTEX_POINT('',#1669);
#596=VERTEX_POINT('',#1671);
#597=VERTEX_POINT('',#1673);
#598=VERTEX_POINT('',#1688);
#599=VERTEX_POINT('',#1693);
#600=VERTEX_POINT('',#1697);
#601=VERTEX_POINT('',#1699);
#602=VERTEX_POINT('',#1701);
#603=VERTEX_POINT('',#1703);
#604=VERTEX_POINT('',#1717);
#605=VERTEX_POINT('',#1722);
#606=VERTEX_POINT('',#1724);
#607=VERTEX_POINT('',#1726);
#608=VERTEX_POINT('',#1728);
#609=VERTEX_POINT('',#1730);
#610=VERTEX_POINT('',#1732);
#611=VERTEX_POINT('',#1734);
#612=VERTEX_POINT('',#1736);
#613=VERTEX_POINT('',#1738);
#614=VERTEX_POINT('',#1740);
#615=VERTEX_POINT('',#1742);
#616=VERTEX_POINT('',#1744);
#617=VERTEX_POINT('',#1746);
#618=VERTEX_POINT('',#1749);
#619=VERTEX_POINT('',#1755);
#620=VERTEX_POINT('',#1756);
#621=VERTEX_POINT('',#1761);
#622=VERTEX_POINT('',#1767);
#623=VERTEX_POINT('',#1769);
#624=VERTEX_POINT('',#1773);
#625=VERTEX_POINT('',#1777);
#626=VERTEX_POINT('',#1779);
#627=VERTEX_POINT('',#1786);
#628=VERTEX_POINT('',#1788);
#629=VERTEX_POINT('',#1792);
#630=VERTEX_POINT('',#1796);
#631=VERTEX_POINT('',#1800);
#632=VERTEX_POINT('',#1801);
#633=VERTEX_POINT('',#1803);
#634=VERTEX_POINT('',#1805);
#635=VERTEX_POINT('',#1807);
#636=VERTEX_POINT('',#1809);
#637=VERTEX_POINT('',#1812);
#638=VERTEX_POINT('',#1815);
#639=VERTEX_POINT('',#1818);
#640=VERTEX_POINT('',#1822);
#641=VERTEX_POINT('',#1853);
#642=VERTEX_POINT('',#1920);
#643=VERTEX_POINT('',#1934);
#644=VERTEX_POINT('',#1936);
#645=VERTEX_POINT('',#1943);
#646=VERTEX_POINT('',#1946);
#647=LINE('',#1543,#767);
#648=LINE('',#1546,#768);
#649=LINE('',#1548,#769);
#650=LINE('',#1550,#770);
#651=LINE('',#1552,#771);
#652=LINE('',#1555,#772);
#653=LINE('',#1557,#773);
#654=LINE('',#1559,#774);
#655=LINE('',#1561,#775);
#656=LINE('',#1563,#776);
#657=LINE('',#1565,#777);
#658=LINE('',#1568,#778);
#659=LINE('',#1569,#779);
#660=LINE('',#1571,#780);
#661=LINE('',#1574,#781);
#662=LINE('',#1576,#782);
#663=LINE('',#1578,#783);
#664=LINE('',#1580,#784);
#665=LINE('',#1582,#785);
#666=LINE('',#1584,#786);
#667=LINE('',#1587,#787);
#668=LINE('',#1591,#788);
#669=LINE('',#1593,#789);
#670=LINE('',#1594,#790);
#671=LINE('',#1596,#791);
#672=LINE('',#1600,#792);
#673=LINE('',#1602,#793);
#674=LINE('',#1604,#794);
#675=LINE('',#1606,#795);
#676=LINE('',#1609,#796);
#677=LINE('',#1611,#797);
#678=LINE('',#1612,#798);
#679=LINE('',#1614,#799);
#680=LINE('',#1616,#800);
#681=LINE('',#1619,#801);
#682=LINE('',#1621,#802);
#683=LINE('',#1623,#803);
#684=LINE('',#1624,#804);
#685=LINE('',#1626,#805);
#686=LINE('',#1628,#806);
#687=LINE('',#1630,#807);
#688=LINE('',#1632,#808);
#689=LINE('',#1633,#809);
#690=LINE('',#1635,#810);
#691=LINE('',#1637,#811);
#692=LINE('',#1639,#812);
#693=LINE('',#1641,#813);
#694=LINE('',#1643,#814);
#695=LINE('',#1645,#815);
#696=LINE('',#1647,#816);
#697=LINE('',#1650,#817);
#698=LINE('',#1652,#818);
#699=LINE('',#1654,#819);
#700=LINE('',#1655,#820);
#701=LINE('',#1657,#821);
#702=LINE('',#1659,#822);
#703=LINE('',#1661,#823);
#704=LINE('',#1663,#824);
#705=LINE('',#1665,#825);
#706=LINE('',#1667,#826);
#707=LINE('',#1670,#827);
#708=LINE('',#1672,#828);
#709=LINE('',#1674,#829);
#710=LINE('',#1675,#830);
#711=LINE('',#1677,#831);
#712=LINE('',#1678,#832);
#713=LINE('',#1680,#833);
#714=LINE('',#1682,#834);
#715=LINE('',#1683,#835);
#716=LINE('',#1685,#836);
#717=LINE('',#1687,#837);
#718=LINE('',#1689,#838);
#719=LINE('',#1691,#839);
#720=LINE('',#1692,#840);
#721=LINE('',#1694,#841);
#722=LINE('',#1698,#842);
#723=LINE('',#1702,#843);
#724=LINE('',#1721,#844);
#725=LINE('',#1723,#845);
#726=LINE('',#1725,#846);
#727=LINE('',#1727,#847);
#728=LINE('',#1729,#848);
#729=LINE('',#1731,#849);
#730=LINE('',#1735,#850);
#731=LINE('',#1739,#851);
#732=LINE('',#1743,#852);
#733=LINE('',#1745,#853);
#734=LINE('',#1747,#854);
#735=LINE('',#1752,#855);
#736=LINE('',#1754,#856);
#737=LINE('',#1757,#857);
#738=LINE('',#1758,#858);
#739=LINE('',#1760,#859);
#740=LINE('',#1762,#860);
#741=LINE('',#1766,#861);
#742=LINE('',#1768,#862);
#743=LINE('',#1770,#863);
#744=LINE('',#1772,#864);
#745=LINE('',#1774,#865);
#746=LINE('',#1776,#866);
#747=LINE('',#1778,#867);
#748=LINE('',#1780,#868);
#749=LINE('',#1782,#869);
#750=LINE('',#1785,#870);
#751=LINE('',#1787,#871);
#752=LINE('',#1789,#872);
#753=LINE('',#1791,#873);
#754=LINE('',#1795,#874);
#755=LINE('',#1797,#875);
#756=LINE('',#1804,#876);
#757=LINE('',#1808,#877);
#758=LINE('',#1915,#878);
#759=LINE('',#1917,#879);
#760=LINE('',#1919,#880);
#761=LINE('',#1921,#881);
#762=LINE('',#1937,#882);
#763=LINE('',#1939,#883);
#764=LINE('',#1949,#884);
#765=LINE('',#1951,#885);
#766=LINE('',#1954,#886);
#767=VECTOR('',#1241,1.);
#768=VECTOR('',#1242,1.);
#769=VECTOR('',#1243,1.);
#770=VECTOR('',#1244,1.);
#771=VECTOR('',#1247,1.);
#772=VECTOR('',#1248,1.);
#773=VECTOR('',#1249,1.);
#774=VECTOR('',#1250,1.);
#775=VECTOR('',#1251,1.);
#776=VECTOR('',#1252,1.);
#777=VECTOR('',#1255,1.);
#778=VECTOR('',#1256,1.);
#779=VECTOR('',#1257,1.);
#780=VECTOR('',#1260,1.);
#781=VECTOR('',#1261,1.);
#782=VECTOR('',#1262,1.);
#783=VECTOR('',#1263,1.);
#784=VECTOR('',#1264,1.);
#785=VECTOR('',#1265,1.);
#786=VECTOR('',#1268,1.);
#787=VECTOR('',#1269,1.);
#788=VECTOR('',#1272,1.);
#789=VECTOR('',#1273,1.);
#790=VECTOR('',#1274,1.);
#791=VECTOR('',#1275,1.);
#792=VECTOR('',#1278,1.);
#793=VECTOR('',#1279,1.);
#794=VECTOR('',#1280,1.);
#795=VECTOR('',#1283,1.);
#796=VECTOR('',#1284,1.);
#797=VECTOR('',#1285,1.);
#798=VECTOR('',#1286,1.);
#799=VECTOR('',#1287,1.);
#800=VECTOR('',#1290,1.);
#801=VECTOR('',#1291,1.);
#802=VECTOR('',#1292,1.);
#803=VECTOR('',#1293,1.);
#804=VECTOR('',#1294,1.);
#805=VECTOR('',#1297,1.);
#806=VECTOR('',#1298,1.);
#807=VECTOR('',#1299,1.);
#808=VECTOR('',#1300,1.);
#809=VECTOR('',#1301,1.);
#810=VECTOR('',#1302,1.);
#811=VECTOR('',#1305,1.);
#812=VECTOR('',#1306,1.);
#813=VECTOR('',#1307,1.);
#814=VECTOR('',#1308,1.);
#815=VECTOR('',#1309,1.);
#816=VECTOR('',#1312,1.);
#817=VECTOR('',#1313,1.);
#818=VECTOR('',#1314,1.);
#819=VECTOR('',#1315,1.);
#820=VECTOR('',#1316,1.);
#821=VECTOR('',#1319,1.);
#822=VECTOR('',#1320,1.);
#823=VECTOR('',#1321,1.);
#824=VECTOR('',#1322,1.);
#825=VECTOR('',#1323,1.);
#826=VECTOR('',#1326,1.);
#827=VECTOR('',#1327,1.);
#828=VECTOR('',#1328,1.);
#829=VECTOR('',#1329,1.);
#830=VECTOR('',#1330,1.);
#831=VECTOR('',#1333,1.);
#832=VECTOR('',#1334,1.);
#833=VECTOR('',#1337,1.);
#834=VECTOR('',#1340,1.);
#835=VECTOR('',#1341,1.);
#836=VECTOR('',#1344,1.);
#837=VECTOR('',#1347,1.);
#838=VECTOR('',#1348,1.);
#839=VECTOR('',#1351,1.);
#840=VECTOR('',#1352,1.);
#841=VECTOR('',#1353,1.);
#842=VECTOR('',#1358,1.);
#843=VECTOR('',#1361,1.);
#844=VECTOR('',#1372,1.);
#845=VECTOR('',#1373,1.);
#846=VECTOR('',#1374,1.);
#847=VECTOR('',#1375,1.);
#848=VECTOR('',#1376,1.);
#849=VECTOR('',#1377,1.);
#850=VECTOR('',#1380,1.);
#851=VECTOR('',#1383,1.);
#852=VECTOR('',#1386,1.);
#853=VECTOR('',#1387,1.);
#854=VECTOR('',#1388,1.);
#855=VECTOR('',#1395,1.);
#856=VECTOR('',#1398,1.);
#857=VECTOR('',#1399,1.);
#858=VECTOR('',#1400,1.);
#859=VECTOR('',#1403,1.);
#860=VECTOR('',#1404,1.);
#861=VECTOR('',#1411,1.);
#862=VECTOR('',#1412,1.);
#863=VECTOR('',#1413,1.);
#864=VECTOR('',#1416,1.);
#865=VECTOR('',#1417,1.);
#866=VECTOR('',#1420,1.);
#867=VECTOR('',#1421,1.);
#868=VECTOR('',#1422,1.);
#869=VECTOR('',#1425,1.);
#870=VECTOR('',#1430,1.);
#871=VECTOR('',#1431,1.);
#872=VECTOR('',#1432,1.);
#873=VECTOR('',#1435,1.);
#874=VECTOR('',#1440,1.);
#875=VECTOR('',#1441,1.);
#876=VECTOR('',#1448,1.);
#877=VECTOR('',#1451,1.);
#878=VECTOR('',#1500,1.);
#879=VECTOR('',#1503,1.);
#880=VECTOR('',#1506,1.);
#881=VECTOR('',#1507,1.);
#882=VECTOR('',#1512,1.);
#883=VECTOR('',#1515,1.);
#884=VECTOR('',#1530,1.);
#885=VECTOR('',#1533,1.);
#886=VECTOR('',#1538,1.);
#887=EDGE_LOOP('',(#68,#69,#70,#71));
#888=EDGE_LOOP('',(#72,#73,#74,#75,#76,#77));
#889=EDGE_LOOP('',(#78,#79,#80,#81));
#890=EDGE_LOOP('',(#82,#83,#84,#85,#86,#87));
#891=EDGE_LOOP('',(#88,#89,#90,#91,#92,#93,#94,#95,#96,#97,#98,#99));
#892=EDGE_LOOP('',(#100,#101,#102,#103,#104,#105));
#893=EDGE_LOOP('',(#106,#107,#108,#109,#110,#111));
#894=EDGE_LOOP('',(#112,#113,#114,#115,#116,#117,#118,#119));
#895=EDGE_LOOP('',(#120,#121,#122,#123,#124,#125));
#896=EDGE_LOOP('',(#126,#127,#128,#129,#130,#131));
#897=EDGE_LOOP('',(#132,#133,#134,#135,#136,#137));
#898=EDGE_LOOP('',(#138,#139,#140,#141,#142,#143));
#899=EDGE_LOOP('',(#144,#145,#146,#147));
#900=EDGE_LOOP('',(#148,#149,#150,#151));
#901=EDGE_LOOP('',(#152,#153,#154,#155));
#902=EDGE_LOOP('',(#156,#157,#158,#159));
#903=EDGE_LOOP('',(#160,#161,#162,#163,#164,#165));
#904=EDGE_LOOP('',(#166,#167,#168,#169,#170,#171));
#905=EDGE_LOOP('',(#172,#173,#174,#175,#176,#177,#178,#179));
#906=EDGE_LOOP('',(#180));
#907=EDGE_LOOP('',(#181,#182,#183,#184));
#908=EDGE_LOOP('',(#185,#186,#187,#188,#189,#190,#191,#192,#193,#194,#195,
#196,#197,#198,#199,#200,#201,#202,#203,#204));
#909=EDGE_LOOP('',(#205));
#910=EDGE_LOOP('',(#206,#207,#208,#209));
#911=EDGE_LOOP('',(#210,#211,#212,#213));
#912=EDGE_LOOP('',(#214,#215,#216,#217));
#913=EDGE_LOOP('',(#218,#219,#220,#221,#222,#223));
#914=EDGE_LOOP('',(#224,#225,#226,#227));
#915=EDGE_LOOP('',(#228,#229,#230,#231,#232,#233));
#916=EDGE_LOOP('',(#234,#235,#236,#237,#238,#239));
#917=EDGE_LOOP('',(#240,#241,#242,#243));
#918=EDGE_LOOP('',(#244,#245,#246,#247,#248));
#919=EDGE_LOOP('',(#249,#250,#251,#252));
#920=EDGE_LOOP('',(#253,#254,#255,#256));
#921=EDGE_LOOP('',(#257,#258,#259,#260));
#922=EDGE_LOOP('',(#261,#262,#263,#264,#265,#266));
#923=EDGE_LOOP('',(#267));
#924=EDGE_LOOP('',(#268));
#925=EDGE_LOOP('',(#269));
#926=EDGE_LOOP('',(#270));
#927=EDGE_LOOP('',(#271));
#928=EDGE_LOOP('',(#272));
#929=EDGE_LOOP('',(#273));
#930=EDGE_LOOP('',(#274,#275,#276,#277,#278,#279,#280));
#931=EDGE_LOOP('',(#281,#282,#283,#284));
#932=EDGE_LOOP('',(#285,#286,#287,#288,#289,#290,#291));
#933=EDGE_LOOP('',(#292,#293,#294));
#934=EDGE_LOOP('',(#295,#296,#297,#298));
#935=EDGE_LOOP('',(#299,#300,#301,#302));
#936=EDGE_LOOP('',(#303,#304,#305,#306));
#937=EDGE_LOOP('',(#307,#308,#309,#310));
#938=EDGE_LOOP('',(#311,#312,#313,#314));
#939=EDGE_LOOP('',(#315,#316,#317));
#940=EDGE_LOOP('',(#318,#319,#320,#321,#322,#323));
#941=EDGE_LOOP('',(#324,#325,#326,#327));
#942=EDGE_LOOP('',(#328,#329,#330,#331));
#943=EDGE_LOOP('',(#332));
#944=EDGE_LOOP('',(#333,#334,#335,#336));
#945=EDGE_LOOP('',(#337,#338,#339,#340));
#946=EDGE_LOOP('',(#341,#342,#343,#344,#345,#346,#347,#348,#349,#350,#351,
#352));
#947=EDGE_LOOP('',(#353));
#948=EDGE_LOOP('',(#354));
#949=EDGE_LOOP('',(#355));
#950=EDGE_LOOP('',(#356));
#951=EDGE_LOOP('',(#357));
#952=EDGE_LOOP('',(#358));
#953=EDGE_LOOP('',(#359,#360,#361,#362));
#954=EDGE_LOOP('',(#363,#364,#365,#366));
#955=EDGE_LOOP('',(#367,#368,#369,#370,#371,#372));
#956=EDGE_LOOP('',(#373,#374,#375,#376));
#957=EDGE_LOOP('',(#377,#378,#379,#380,#381,#382,#383));
#958=FACE_BOUND('',#887,.T.);
#959=FACE_BOUND('',#888,.T.);
#960=FACE_BOUND('',#889,.T.);
#961=FACE_BOUND('',#890,.T.);
#962=FACE_BOUND('',#891,.T.);
#963=FACE_BOUND('',#892,.T.);
#964=FACE_BOUND('',#893,.T.);
#965=FACE_BOUND('',#894,.T.);
#966=FACE_BOUND('',#895,.T.);
#967=FACE_BOUND('',#896,.T.);
#968=FACE_BOUND('',#897,.T.);
#969=FACE_BOUND('',#898,.T.);
#970=FACE_BOUND('',#899,.T.);
#971=FACE_BOUND('',#900,.T.);
#972=FACE_BOUND('',#901,.T.);
#973=FACE_BOUND('',#902,.T.);
#974=FACE_BOUND('',#903,.T.);
#975=FACE_BOUND('',#904,.T.);
#976=FACE_BOUND('',#905,.T.);
#977=FACE_BOUND('',#906,.T.);
#978=FACE_BOUND('',#907,.T.);
#979=FACE_BOUND('',#908,.T.);
#980=FACE_BOUND('',#909,.T.);
#981=FACE_BOUND('',#910,.T.);
#982=FACE_BOUND('',#911,.T.);
#983=FACE_BOUND('',#912,.T.);
#984=FACE_BOUND('',#913,.T.);
#985=FACE_BOUND('',#914,.T.);
#986=FACE_BOUND('',#915,.T.);
#987=FACE_BOUND('',#916,.T.);
#988=FACE_BOUND('',#917,.T.);
#989=FACE_BOUND('',#918,.T.);
#990=FACE_BOUND('',#919,.T.);
#991=FACE_BOUND('',#920,.T.);
#992=FACE_BOUND('',#921,.T.);
#993=FACE_BOUND('',#922,.T.);
#994=FACE_BOUND('',#923,.T.);
#995=FACE_BOUND('',#924,.T.);
#996=FACE_BOUND('',#925,.T.);
#997=FACE_BOUND('',#926,.T.);
#998=FACE_BOUND('',#927,.T.);
#999=FACE_BOUND('',#928,.T.);
#1000=FACE_BOUND('',#929,.T.);
#1001=FACE_BOUND('',#930,.T.);
#1002=FACE_BOUND('',#931,.T.);
#1003=FACE_BOUND('',#932,.T.);
#1004=FACE_BOUND('',#933,.T.);
#1005=FACE_BOUND('',#934,.T.);
#1006=FACE_BOUND('',#935,.T.);
#1007=FACE_BOUND('',#936,.T.);
#1008=FACE_BOUND('',#937,.T.);
#1009=FACE_BOUND('',#938,.T.);
#1010=FACE_BOUND('',#939,.T.);
#1011=FACE_BOUND('',#940,.T.);
#1012=FACE_BOUND('',#941,.T.);
#1013=FACE_BOUND('',#942,.T.);
#1014=FACE_BOUND('',#943,.T.);
#1015=FACE_BOUND('',#944,.T.);
#1016=FACE_BOUND('',#945,.T.);
#1017=FACE_BOUND('',#946,.T.);
#1018=FACE_BOUND('',#947,.T.);
#1019=FACE_BOUND('',#948,.T.);
#1020=FACE_BOUND('',#949,.T.);
#1021=FACE_BOUND('',#950,.T.);
#1022=FACE_BOUND('',#951,.T.);
#1023=FACE_BOUND('',#952,.T.);
#1024=FACE_BOUND('',#953,.T.);
#1025=FACE_BOUND('',#954,.T.);
#1026=FACE_BOUND('',#955,.T.);
#1027=FACE_BOUND('',#956,.T.);
#1028=FACE_BOUND('',#957,.T.);
#1029=PLANE('',#1146);
#1030=PLANE('',#1147);
#1031=PLANE('',#1148);
#1032=PLANE('',#1149);
#1033=PLANE('',#1150);
#1034=PLANE('',#1153);
#1035=PLANE('',#1154);
#1036=PLANE('',#1155);
#1037=PLANE('',#1156);
#1038=PLANE('',#1157);
#1039=PLANE('',#1158);
#1040=PLANE('',#1159);
#1041=PLANE('',#1160);
#1042=PLANE('',#1161);
#1043=PLANE('',#1162);
#1044=PLANE('',#1163);
#1045=PLANE('',#1164);
#1046=PLANE('',#1165);
#1047=PLANE('',#1173);
#1048=PLANE('',#1178);
#1049=PLANE('',#1179);
#1050=PLANE('',#1180);
#1051=PLANE('',#1181);
#1052=PLANE('',#1183);
#1053=PLANE('',#1184);
#1054=PLANE('',#1185);
#1055=PLANE('',#1186);
#1056=PLANE('',#1187);
#1057=PLANE('',#1189);
#1058=PLANE('',#1192);
#1059=PLANE('',#1193);
#1060=PLANE('',#1201);
#1061=PLANE('',#1220);
#1062=PLANE('',#1221);
#1063=PLANE('',#1222);
#1064=PLANE('',#1225);
#1065=PLANE('',#1226);
#1066=PLANE('',#1231);
#1067=PLANE('',#1232);
#1068=PLANE('',#1233);
#1069=PLANE('',#1234);
#1070=PLANE('',#1235);
#1071=PLANE('',#1236);
#1072=ADVANCED_FACE('',(#958),#1029,.T.);
#1073=ADVANCED_FACE('',(#959),#1030,.F.);
#1074=ADVANCED_FACE('',(#960),#1031,.T.);
#1075=ADVANCED_FACE('',(#961),#1032,.T.);
#1076=ADVANCED_FACE('',(#962),#1033,.T.);
#1077=ADVANCED_FACE('',(#963),#1034,.T.);
#1078=ADVANCED_FACE('',(#964),#1035,.F.);
#1079=ADVANCED_FACE('',(#965),#1036,.T.);
#1080=ADVANCED_FACE('',(#966),#1037,.F.);
#1081=ADVANCED_FACE('',(#967),#1038,.T.);
#1082=ADVANCED_FACE('',(#968),#1039,.F.);
#1083=ADVANCED_FACE('',(#969),#1040,.T.);
#1084=ADVANCED_FACE('',(#970),#1041,.T.);
#1085=ADVANCED_FACE('',(#971),#1042,.T.);
#1086=ADVANCED_FACE('',(#972),#1043,.F.);
#1087=ADVANCED_FACE('',(#973),#1044,.F.);
#1088=ADVANCED_FACE('',(#974),#1045,.T.);
#1089=ADVANCED_FACE('',(#975),#1046,.F.);
#1090=ADVANCED_FACE('',(#976),#24,.F.);
#1091=ADVANCED_FACE('',(#977,#978),#25,.T.);
#1092=ADVANCED_FACE('',(#979,#980),#1047,.F.);
#1093=ADVANCED_FACE('',(#981),#1048,.T.);
#1094=ADVANCED_FACE('',(#982),#1049,.T.);
#1095=ADVANCED_FACE('',(#983),#1050,.T.);
#1096=ADVANCED_FACE('',(#984),#1051,.T.);
#1097=ADVANCED_FACE('',(#985),#1052,.T.);
#1098=ADVANCED_FACE('',(#986),#1053,.T.);
#1099=ADVANCED_FACE('',(#987),#1054,.T.);
#1100=ADVANCED_FACE('',(#988),#1055,.T.);
#1101=ADVANCED_FACE('',(#989),#1056,.T.);
#1102=ADVANCED_FACE('',(#990),#1057,.T.);
#1103=ADVANCED_FACE('',(#991),#26,.T.);
#1104=ADVANCED_FACE('',(#992),#1058,.F.);
#1105=ADVANCED_FACE('',(#993,#994),#1059,.T.);
#1106=ADVANCED_FACE('',(#995,#996),#27,.F.);
#1107=ADVANCED_FACE('',(#997,#998),#1060,.T.);
#1108=ADVANCED_FACE('',(#999,#1000),#28,.F.);
#1109=ADVANCED_FACE('',(#1001),#29,.F.);
#1110=ADVANCED_FACE('',(#1002),#14,.F.);
#1111=ADVANCED_FACE('',(#1003),#30,.F.);
#1112=ADVANCED_FACE('',(#1004),#12,.T.);
#1113=ADVANCED_FACE('',(#1005),#15,.T.);
#1114=ADVANCED_FACE('',(#1006),#31,.T.);
#1115=ADVANCED_FACE('',(#1007),#16,.T.);
#1116=ADVANCED_FACE('',(#1008),#32,.T.);
#1117=ADVANCED_FACE('',(#1009),#17,.T.);
#1118=ADVANCED_FACE('',(#1010),#13,.T.);
#1119=ADVANCED_FACE('',(#1011),#1061,.T.);
#1120=ADVANCED_FACE('',(#1012),#1062,.T.);
#1121=ADVANCED_FACE('',(#1013),#1063,.F.);
#1122=ADVANCED_FACE('',(#1014,#1015),#33,.F.);
#1123=ADVANCED_FACE('',(#1016),#1064,.T.);
#1124=ADVANCED_FACE('',(#1017),#1065,.T.);
#1125=ADVANCED_FACE('',(#1018,#1019),#34,.F.);
#1126=ADVANCED_FACE('',(#1020,#1021),#35,.F.);
#1127=ADVANCED_FACE('',(#1022,#1023),#1066,.T.);
#1128=ADVANCED_FACE('',(#1024),#1067,.T.);
#1129=ADVANCED_FACE('',(#1025),#1068,.F.);
#1130=ADVANCED_FACE('',(#1026),#1069,.T.);
#1131=ADVANCED_FACE('',(#1027),#1070,.F.);
#1132=ADVANCED_FACE('',(#1028),#1071,.T.);
#1133=CLOSED_SHELL('',(#1072,#1073,#1074,#1075,#1076,#1077,#1078,#1079,
#1080,#1081,#1082,#1083,#1084,#1085,#1086,#1087,#1088,#1089,#1090,#1091,
#1092,#1093,#1094,#1095,#1096,#1097,#1098,#1099,#1100,#1101,#1102,#1103,
#1104,#1105,#1106,#1107,#1108,#1109,#1110,#1111,#1112,#1113,#1114,#1115,
#1116,#1117,#1118,#1119,#1120,#1121,#1122,#1123,#1124,#1125,#1126,#1127,
#1128,#1129,#1130,#1131,#1132));
#1134=STYLED_ITEM('',(#1135),#1142);
#1135=PRESENTATION_STYLE_ASSIGNMENT((#1136));
#1136=SURFACE_STYLE_USAGE(.BOTH.,#1137);
#1137=SURFACE_SIDE_STYLE('',(#1138));
#1138=SURFACE_STYLE_FILL_AREA(#1139);
#1139=FILL_AREA_STYLE('',(#1140));
#1140=FILL_AREA_STYLE_COLOUR('',#1141);
#1141=COLOUR_RGB('',0.235294117647059,0.235294117647059,0.235294117647059);
#1142=MANIFOLD_SOLID_BREP('Bottom Left Back',#1133);
#1143=SHAPE_DEFINITION_REPRESENTATION(#1962,#1144);
#1144=SHAPE_REPRESENTATION('Bottom Left Back',(#1145),#1957);
#1145=AXIS2_PLACEMENT_3D('',#1541,#1237,#1238);
#1146=AXIS2_PLACEMENT_3D('',#1542,#1239,#1240);
#1147=AXIS2_PLACEMENT_3D('',#1551,#1245,#1246);
#1148=AXIS2_PLACEMENT_3D('',#1564,#1253,#1254);
#1149=AXIS2_PLACEMENT_3D('',#1570,#1258,#1259);
#1150=AXIS2_PLACEMENT_3D('',#1583,#1266,#1267);
#1151=AXIS2_PLACEMENT_3D('',#1589,#1270,#1271);
#1152=AXIS2_PLACEMENT_3D('',#1598,#1276,#1277);
#1153=AXIS2_PLACEMENT_3D('',#1605,#1281,#1282);
#1154=AXIS2_PLACEMENT_3D('',#1615,#1288,#1289);
#1155=AXIS2_PLACEMENT_3D('',#1625,#1295,#1296);
#1156=AXIS2_PLACEMENT_3D('',#1636,#1303,#1304);
#1157=AXIS2_PLACEMENT_3D('',#1646,#1310,#1311);
#1158=AXIS2_PLACEMENT_3D('',#1656,#1317,#1318);
#1159=AXIS2_PLACEMENT_3D('',#1666,#1324,#1325);
#1160=AXIS2_PLACEMENT_3D('',#1676,#1331,#1332);
#1161=AXIS2_PLACEMENT_3D('',#1679,#1335,#1336);
#1162=AXIS2_PLACEMENT_3D('',#1681,#1338,#1339);
#1163=AXIS2_PLACEMENT_3D('',#1684,#1342,#1343);
#1164=AXIS2_PLACEMENT_3D('',#1686,#1345,#1346);
#1165=AXIS2_PLACEMENT_3D('',#1690,#1349,#1350);
#1166=AXIS2_PLACEMENT_3D('',#1695,#1354,#1355);
#1167=AXIS2_PLACEMENT_3D('',#1696,#1356,#1357);
#1168=AXIS2_PLACEMENT_3D('',#1700,#1359,#1360);
#1169=AXIS2_PLACEMENT_3D('',#1704,#1362,#1363);
#1170=AXIS2_PLACEMENT_3D('',#1705,#1364,#1365);
#1171=AXIS2_PLACEMENT_3D('',#1718,#1366,#1367);
#1172=AXIS2_PLACEMENT_3D('',#1719,#1368,#1369);
#1173=AXIS2_PLACEMENT_3D('',#1720,#1370,#1371);
#1174=AXIS2_PLACEMENT_3D('',#1733,#1378,#1379);
#1175=AXIS2_PLACEMENT_3D('',#1737,#1381,#1382);
#1176=AXIS2_PLACEMENT_3D('',#1741,#1384,#1385);
#1177=AXIS2_PLACEMENT_3D('',#1748,#1389,#1390);
#1178=AXIS2_PLACEMENT_3D('',#1750,#1391,#1392);
#1179=AXIS2_PLACEMENT_3D('',#1751,#1393,#1394);
#1180=AXIS2_PLACEMENT_3D('',#1753,#1396,#1397);
#1181=AXIS2_PLACEMENT_3D('',#1759,#1401,#1402);
#1182=AXIS2_PLACEMENT_3D('',#1763,#1405,#1406);
#1183=AXIS2_PLACEMENT_3D('',#1764,#1407,#1408);
#1184=AXIS2_PLACEMENT_3D('',#1765,#1409,#1410);
#1185=AXIS2_PLACEMENT_3D('',#1771,#1414,#1415);
#1186=AXIS2_PLACEMENT_3D('',#1775,#1418,#1419);
#1187=AXIS2_PLACEMENT_3D('',#1781,#1423,#1424);
#1188=AXIS2_PLACEMENT_3D('',#1783,#1426,#1427);
#1189=AXIS2_PLACEMENT_3D('',#1784,#1428,#1429);
#1190=AXIS2_PLACEMENT_3D('',#1790,#1433,#1434);
#1191=AXIS2_PLACEMENT_3D('',#1793,#1436,#1437);
#1192=AXIS2_PLACEMENT_3D('',#1794,#1438,#1439);
#1193=AXIS2_PLACEMENT_3D('',#1798,#1442,#1443);
#1194=AXIS2_PLACEMENT_3D('',#1799,#1444,#1445);
#1195=AXIS2_PLACEMENT_3D('',#1802,#1446,#1447);
#1196=AXIS2_PLACEMENT_3D('',#1806,#1449,#1450);
#1197=AXIS2_PLACEMENT_3D('',#1810,#1452,#1453);
#1198=AXIS2_PLACEMENT_3D('',#1811,#1454,#1455);
#1199=AXIS2_PLACEMENT_3D('',#1813,#1456,#1457);
#1200=AXIS2_PLACEMENT_3D('',#1814,#1458,#1459);
#1201=AXIS2_PLACEMENT_3D('',#1816,#1460,#1461);
#1202=AXIS2_PLACEMENT_3D('',#1817,#1462,#1463);
#1203=AXIS2_PLACEMENT_3D('',#1819,#1464,#1465);
#1204=AXIS2_PLACEMENT_3D('',#1820,#1466,#1467);
#1205=AXIS2_PLACEMENT_3D('',#1821,#1468,#1469);
#1206=AXIS2_PLACEMENT_3D('',#1830,#1470,#1471);
#1207=AXIS2_PLACEMENT_3D('',#1845,#1472,#1473);
#1208=AXIS2_PLACEMENT_3D('',#1854,#1474,#1475);
#1209=AXIS2_PLACEMENT_3D('',#1879,#1476,#1477);
#1210=AXIS2_PLACEMENT_3D('',#1880,#1478,#1479);
#1211=AXIS2_PLACEMENT_3D('',#1881,#1480,#1481);
#1212=AXIS2_PLACEMENT_3D('',#1882,#1482,#1483);
#1213=AXIS2_PLACEMENT_3D('',#1883,#1484,#1485);
#1214=AXIS2_PLACEMENT_3D('',#1884,#1486,#1487);
#1215=AXIS2_PLACEMENT_3D('',#1885,#1488,#1489);
#1216=AXIS2_PLACEMENT_3D('',#1886,#1490,#1491);
#1217=AXIS2_PLACEMENT_3D('',#1887,#1492,#1493);
#1218=AXIS2_PLACEMENT_3D('',#1888,#1494,#1495);
#1219=AXIS2_PLACEMENT_3D('',#1889,#1496,#1497);
#1220=AXIS2_PLACEMENT_3D('',#1914,#1498,#1499);
#1221=AXIS2_PLACEMENT_3D('',#1916,#1501,#1502);
#1222=AXIS2_PLACEMENT_3D('',#1918,#1504,#1505);
#1223=AXIS2_PLACEMENT_3D('',#1922,#1508,#1509);
#1224=AXIS2_PLACEMENT_3D('',#1935,#1510,#1511);
#1225=AXIS2_PLACEMENT_3D('',#1938,#1513,#1514);
#1226=AXIS2_PLACEMENT_3D('',#1940,#1516,#1517);
#1227=AXIS2_PLACEMENT_3D('',#1941,#1518,#1519);
#1228=AXIS2_PLACEMENT_3D('',#1942,#1520,#1521);
#1229=AXIS2_PLACEMENT_3D('',#1944,#1522,#1523);
#1230=AXIS2_PLACEMENT_3D('',#1945,#1524,#1525);
#1231=AXIS2_PLACEMENT_3D('',#1947,#1526,#1527);
#1232=AXIS2_PLACEMENT_3D('',#1948,#1528,#1529);
#1233=AXIS2_PLACEMENT_3D('',#1950,#1531,#1532);
#1234=AXIS2_PLACEMENT_3D('',#1952,#1534,#1535);
#1235=AXIS2_PLACEMENT_3D('',#1953,#1536,#1537);
#1236=AXIS2_PLACEMENT_3D('',#1955,#1539,#1540);
#1237=DIRECTION('',(0.,0.,1.));
#1238=DIRECTION('',(1.,0.,0.));
#1239=DIRECTION('',(0.,-1.,0.));
#1240=DIRECTION('',(1.,0.,0.));
#1241=DIRECTION('',(1.,0.,0.));
#1242=DIRECTION('',(0.,0.,-1.));
#1243=DIRECTION('',(1.,0.,0.));
#1244=DIRECTION('',(0.,0.,-1.));
#1245=DIRECTION('',(1.,-9.09124651674711E-17,0.));
#1246=DIRECTION('',(9.09124651674711E-17,1.,0.));
#1247=DIRECTION('',(0.,0.,1.));
#1248=DIRECTION('',(-9.09124651674711E-17,-1.,0.));
#1249=DIRECTION('',(0.,0.,-1.));
#1250=DIRECTION('',(-9.09124651674711E-17,-1.,0.));
#1251=DIRECTION('',(0.,0.,-1.));
#1252=DIRECTION('',(-9.09124651674711E-17,-1.,0.));
#1253=DIRECTION('',(0.,0.,1.));
#1254=DIRECTION('',(1.,0.,0.));
#1255=DIRECTION('',(-9.0912465167471E-17,-1.,0.));
#1256=DIRECTION('',(-1.,1.22464679914735E-16,0.));
#1257=DIRECTION('',(-1.,0.,0.));
#1258=DIRECTION('',(1.,0.,0.));
#1259=DIRECTION('',(0.,1.,0.));
#1260=DIRECTION('',(0.,1.,0.));
#1261=DIRECTION('',(0.,0.,-1.));
#1262=DIRECTION('',(0.,1.,0.));
#1263=DIRECTION('',(0.,0.,-1.));
#1264=DIRECTION('',(0.,1.,0.));
#1265=DIRECTION('',(0.,0.,1.));
#1266=DIRECTION('',(0.,0.,1.));
#1267=DIRECTION('',(1.,0.,0.));
#1268=DIRECTION('',(0.,1.,0.));
#1269=DIRECTION('',(-1.,0.,0.));
#1270=DIRECTION('',(0.,0.,1.));
#1271=DIRECTION('',(1.,0.,0.));
#1272=DIRECTION('',(0.,1.,0.));
#1273=DIRECTION('',(-1.,0.,0.));
#1274=DIRECTION('',(-1.,0.,0.));
#1275=DIRECTION('',(0.,-1.,0.));
#1276=DIRECTION('',(0.,0.,1.));
#1277=DIRECTION('',(1.,0.,0.));
#1278=DIRECTION('',(1.,0.,0.));
#1279=DIRECTION('',(0.,1.,0.));
#1280=DIRECTION('',(-1.,0.,0.));
#1281=DIRECTION('',(1.,0.,0.));
#1282=DIRECTION('',(0.,0.,-1.));
#1283=DIRECTION('',(0.,0.,1.));
#1284=DIRECTION('',(0.,-1.,0.));
#1285=DIRECTION('',(0.,0.,-1.));
#1286=DIRECTION('',(0.,0.,-1.));
#1287=DIRECTION('',(0.,-1.,0.));
#1288=DIRECTION('',(1.,0.,0.));
#1289=DIRECTION('',(0.,0.,-1.));
#1290=DIRECTION('',(0.,0.,-1.));
#1291=DIRECTION('',(0.,1.,0.));
#1292=DIRECTION('',(0.,0.,-1.));
#1293=DIRECTION('',(0.,-1.,0.));
#1294=DIRECTION('',(0.,-1.,0.));
#1295=DIRECTION('',(1.,-9.0912465167471E-17,0.));
#1296=DIRECTION('',(9.0912465167471E-17,1.,0.));
#1297=DIRECTION('',(0.,0.,-1.));
#1298=DIRECTION('',(0.,1.,0.));
#1299=DIRECTION('',(0.,0.,-1.));
#1300=DIRECTION('',(-9.0912465167471E-17,-1.,0.));
#1301=DIRECTION('',(-1.22464679914735E-16,-1.,0.));
#1302=DIRECTION('',(0.,0.,-1.));
#1303=DIRECTION('',(0.,1.,0.));
#1304=DIRECTION('',(0.,0.,1.));
#1305=DIRECTION('',(0.,0.,-1.));
#1306=DIRECTION('',(1.,0.,0.));
#1307=DIRECTION('',(0.,0.,-1.));
#1308=DIRECTION('',(1.,0.,0.));
#1309=DIRECTION('',(0.,0.,-1.));
#1310=DIRECTION('',(0.,1.,0.));
#1311=DIRECTION('',(0.,0.,1.));
#1312=DIRECTION('',(0.,0.,-1.));
#1313=DIRECTION('',(-1.,0.,0.));
#1314=DIRECTION('',(0.,0.,-1.));
#1315=DIRECTION('',(1.,0.,0.));
#1316=DIRECTION('',(1.,0.,0.));
#1317=DIRECTION('',(0.,-1.,0.));
#1318=DIRECTION('',(0.,0.,-1.));
#1319=DIRECTION('',(0.,0.,-1.));
#1320=DIRECTION('',(-1.,0.,0.));
#1321=DIRECTION('',(0.,0.,1.));
#1322=DIRECTION('',(-1.,0.,0.));
#1323=DIRECTION('',(0.,0.,-1.));
#1324=DIRECTION('',(0.,-1.,0.));
#1325=DIRECTION('',(0.,0.,-1.));
#1326=DIRECTION('',(0.,0.,-1.));
#1327=DIRECTION('',(-1.,0.,0.));
#1328=DIRECTION('',(0.,0.,-1.));
#1329=DIRECTION('',(-1.,0.,0.));
#1330=DIRECTION('',(-1.,0.,0.));
#1331=DIRECTION('',(0.,-1.,0.));
#1332=DIRECTION('',(0.,0.,-1.));
#1333=DIRECTION('',(1.,0.,0.));
#1334=DIRECTION('',(-1.,0.,0.));
#1335=DIRECTION('',(0.,-1.,0.));
#1336=DIRECTION('',(0.,0.,-1.));
#1337=DIRECTION('',(-1.,0.,0.));
#1338=DIRECTION('',(-1.,0.,0.));
#1339=DIRECTION('',(0.,0.,1.));
#1340=DIRECTION('',(0.,-1.,0.));
#1341=DIRECTION('',(0.,1.,0.));
#1342=DIRECTION('',(-1.,0.,0.));
#1343=DIRECTION('',(0.,0.,1.));
#1344=DIRECTION('',(0.,1.,0.));
#1345=DIRECTION('',(0.,-1.,0.));
#1346=DIRECTION('',(0.,0.,-1.));
#1347=DIRECTION('',(0.,0.,-1.));
#1348=DIRECTION('',(1.,0.,0.));
#1349=DIRECTION('',(-1.,0.,0.));
#1350=DIRECTION('',(0.,0.,1.));
#1351=DIRECTION('',(0.,1.,0.));
#1352=DIRECTION('',(0.,-1.,0.));
#1353=DIRECTION('',(0.,0.,-1.));
#1354=DIRECTION('',(0.,0.,-1.));
#1355=DIRECTION('',(-1.,0.,0.));
#1356=DIRECTION('',(0.,0.,1.));
#1357=DIRECTION('',(1.,0.,0.));
#1358=DIRECTION('',(0.,0.,-1.));
#1359=DIRECTION('',(0.,0.,1.));
#1360=DIRECTION('',(1.,0.,0.));
#1361=DIRECTION('',(0.,0.,-1.));
#1362=DIRECTION('',(0.,0.,1.));
#1363=DIRECTION('',(1.,0.,0.));
#1364=DIRECTION('',(0.,0.,1.));
#1365=DIRECTION('',(1.,0.,0.));
#1366=DIRECTION('',(0.,0.,1.));
#1367=DIRECTION('',(1.,0.,0.));
#1368=DIRECTION('',(0.,0.,1.));
#1369=DIRECTION('',(1.,0.,0.));
#1370=DIRECTION('',(0.,0.,1.));
#1371=DIRECTION('',(1.,0.,0.));
#1372=DIRECTION('',(-1.,1.22464679914735E-16,0.));
#1373=DIRECTION('',(-1.,6.12323399573677E-17,0.));
#1374=DIRECTION('',(6.12323399573677E-17,1.,0.));
#1375=DIRECTION('',(-1.,6.12323399573677E-17,0.));
#1376=DIRECTION('',(0.,1.,0.));
#1377=DIRECTION('',(-1.,1.70210081784086E-16,0.));
#1378=DIRECTION('',(0.,0.,1.));
#1379=DIRECTION('',(1.,0.,0.));
#1380=DIRECTION('',(-0.707106781186549,0.707106781186546,0.));
#1381=DIRECTION('',(0.,0.,1.));
#1382=DIRECTION('',(1.,0.,0.));
#1383=DIRECTION('',(-0.707106781186548,0.707106781186548,0.));
#1384=DIRECTION('',(0.,0.,1.));
#1385=DIRECTION('',(1.,0.,0.));
#1386=DIRECTION('',(0.,-1.,0.));
#1387=DIRECTION('',(1.,0.,0.));
#1388=DIRECTION('',(-1.22464679914735E-16,-1.,0.));
#1389=DIRECTION('',(0.,0.,1.));
#1390=DIRECTION('',(1.,0.,0.));
#1391=DIRECTION('',(0.,0.,1.));
#1392=DIRECTION('',(1.,0.,0.));
#1393=DIRECTION('',(0.,0.,1.));
#1394=DIRECTION('',(1.,0.,0.));
#1395=DIRECTION('',(-1.,1.22464679914735E-16,0.));
#1396=DIRECTION('',(1.,0.,0.));
#1397=DIRECTION('',(0.,0.,-1.));
#1398=DIRECTION('',(0.,-1.,0.));
#1399=DIRECTION('',(0.,0.,-1.));
#1400=DIRECTION('',(0.,0.,-1.));
#1401=DIRECTION('',(0.,0.,1.));
#1402=DIRECTION('',(1.,0.,0.));
#1403=DIRECTION('',(0.,-1.,0.));
#1404=DIRECTION('',(1.,0.,0.));
#1405=DIRECTION('',(0.,0.,1.));
#1406=DIRECTION('',(1.,0.,0.));
#1407=DIRECTION('',(0.,0.,1.));
#1408=DIRECTION('',(1.,0.,0.));
#1409=DIRECTION('',(0.,0.,1.));
#1410=DIRECTION('',(1.,0.,0.));
#1411=DIRECTION('',(0.,1.,0.));
#1412=DIRECTION('',(-1.,6.12323399573677E-17,0.));
#1413=DIRECTION('',(6.12323399573677E-17,1.,0.));
#1414=DIRECTION('',(0.,0.,1.));
#1415=DIRECTION('',(1.,0.,0.));
#1416=DIRECTION('',(6.12323399573677E-17,1.,0.));
#1417=DIRECTION('',(-1.,6.12323399573677E-17,0.));
#1418=DIRECTION('',(-1.70210081784086E-16,-1.,0.));
#1419=DIRECTION('',(1.,-1.70210081784086E-16,0.));
#1420=DIRECTION('',(0.,0.,1.));
#1421=DIRECTION('',(-1.,1.70210081784086E-16,0.));
#1422=DIRECTION('',(0.,0.,-1.));
#1423=DIRECTION('',(0.,0.,1.));
#1424=DIRECTION('',(1.,0.,0.));
#1425=DIRECTION('',(0.,1.,0.));
#1426=DIRECTION('',(0.,0.,1.));
#1427=DIRECTION('',(1.,0.,0.));
#1428=DIRECTION('',(-0.707106781186548,-0.707106781186548,0.));
#1429=DIRECTION('',(0.707106781186548,-0.707106781186548,0.));
#1430=DIRECTION('',(0.,0.,-1.));
#1431=DIRECTION('',(-0.707106781186548,0.707106781186548,0.));
#1432=DIRECTION('',(0.,0.,-1.));
#1433=DIRECTION('',(0.,0.,-1.));
#1434=DIRECTION('',(-1.,0.,0.));
#1435=DIRECTION('',(0.,0.,-1.));
#1436=DIRECTION('',(0.,0.,1.));
#1437=DIRECTION('',(1.,0.,0.));
#1438=DIRECTION('',(-0.707106781186546,-0.707106781186549,0.));
#1439=DIRECTION('',(0.707106781186549,-0.707106781186546,0.));
#1440=DIRECTION('',(0.,0.,1.));
#1441=DIRECTION('',(-0.707106781186549,0.707106781186546,0.));
#1442=DIRECTION('',(0.,0.,1.));
#1443=DIRECTION('',(1.,0.,0.));
#1444=DIRECTION('',(0.,0.,1.));
#1445=DIRECTION('',(1.,0.,0.));
#1446=DIRECTION('',(0.,0.,1.));
#1447=DIRECTION('',(1.,0.,0.));
#1448=DIRECTION('',(-0.707106781186548,0.707106781186548,0.));
#1449=DIRECTION('',(0.,0.,1.));
#1450=DIRECTION('',(1.,0.,0.));
#1451=DIRECTION('',(-0.707106781186549,0.707106781186546,0.));
#1452=DIRECTION('',(0.,0.,1.));
#1453=DIRECTION('',(1.,0.,0.));
#1454=DIRECTION('',(0.,0.,-1.));
#1455=DIRECTION('',(-1.,0.,0.));
#1456=DIRECTION('',(0.,0.,-1.));
#1457=DIRECTION('',(-1.,0.,0.));
#1458=DIRECTION('',(0.,0.,-1.));
#1459=DIRECTION('',(-1.,0.,0.));
#1460=DIRECTION('',(0.,0.,1.));
#1461=DIRECTION('',(1.,0.,0.));
#1462=DIRECTION('',(0.,0.,-1.));
#1463=DIRECTION('',(-1.,0.,0.));
#1464=DIRECTION('',(0.,0.,-1.));
#1465=DIRECTION('',(-1.,0.,0.));
#1466=DIRECTION('',(0.,0.,-1.));
#1467=DIRECTION('',(-1.,0.,0.));
#1468=DIRECTION('',(0.,0.,1.));
#1469=DIRECTION('',(1.,0.,0.));
#1470=DIRECTION('',(0.,0.,1.));
#1471=DIRECTION('',(1.,0.,0.));
#1472=DIRECTION('',(0.,0.,-1.));
#1473=DIRECTION('',(-1.,0.,0.));
#1474=DIRECTION('',(0.,0.,1.));
#1475=DIRECTION('',(1.,0.,0.));
#1476=DIRECTION('',(0.309459503756691,-0.950912622449961,0.));
#1477=DIRECTION('',(0.950912622449961,0.309459503756691,0.));
#1478=DIRECTION('',(0.,0.,1.));
#1479=DIRECTION('',(1.,0.,0.));
#1480=DIRECTION('',(0.707106781186548,-0.707106781186548,0.));
#1481=DIRECTION('',(0.707106781186548,0.707106781186548,0.));
#1482=DIRECTION('',(0.707106781186549,-0.707106781186546,0.));
#1483=DIRECTION('',(0.707106781186546,0.707106781186549,0.));
#1484=DIRECTION('',(0.707106781186548,-0.707106781186548,0.));
#1485=DIRECTION('',(0.707106781186548,0.707106781186548,0.));
#1486=DIRECTION('',(0.,0.,1.));
#1487=DIRECTION('',(1.,0.,0.));
#1488=DIRECTION('',(-0.707106781186548,0.707106781186548,0.));
#1489=DIRECTION('',(-0.707106781186548,-0.707106781186548,0.));
#1490=DIRECTION('',(-0.707106781186548,0.707106781186548,0.));
#1491=DIRECTION('',(-0.707106781186548,-0.707106781186548,0.));
#1492=DIRECTION('',(-0.707106781186548,0.707106781186548,0.));
#1493=DIRECTION('',(-0.707106781186548,-0.707106781186548,0.));
#1494=DIRECTION('',(0.,0.,1.));
#1495=DIRECTION('',(1.,0.,0.));
#1496=DIRECTION('',(-0.950912622449961,0.309459503756691,-8.58922665649383E-15));
#1497=DIRECTION('',(-0.309459503756691,-0.950912622449961,0.));
#1498=DIRECTION('',(1.,0.,0.));
#1499=DIRECTION('',(0.,1.,0.));
#1500=DIRECTION('',(0.,0.,-1.));
#1501=DIRECTION('',(0.,-1.,0.));
#1502=DIRECTION('',(1.,0.,0.));
#1503=DIRECTION('',(0.,0.,1.));
#1504=DIRECTION('',(0.,1.,0.));
#1505=DIRECTION('',(0.,0.,1.));
#1506=DIRECTION('',(-1.,0.,0.));
#1507=DIRECTION('',(0.,0.,1.));
#1508=DIRECTION('',(0.,0.,-1.));
#1509=DIRECTION('',(1.,0.,0.));
#1510=DIRECTION('',(0.,0.,1.));
#1511=DIRECTION('',(1.,0.,0.));
#1512=DIRECTION('',(0.,0.,-1.));
#1513=DIRECTION('',(1.,0.,0.));
#1514=DIRECTION('',(0.,0.,1.));
#1515=DIRECTION('',(0.,1.,0.));
#1516=DIRECTION('',(0.,0.,1.));
#1517=DIRECTION('',(-1.,0.,0.));
#1518=DIRECTION('',(-0.707106781186548,0.707106781186547,0.));
#1519=DIRECTION('',(-0.707106781186547,-0.707106781186548,0.));
#1520=DIRECTION('',(-0.707106781186548,0.707106781186547,0.));
#1521=DIRECTION('',(-0.707106781186547,-0.707106781186548,0.));
#1522=DIRECTION('',(0.707106781186548,-0.707106781186547,0.));
#1523=DIRECTION('',(0.707106781186547,0.707106781186548,0.));
#1524=DIRECTION('',(0.707106781186548,-0.707106781186547,0.));
#1525=DIRECTION('',(0.707106781186547,0.707106781186548,0.));
#1526=DIRECTION('',(-0.707106781186548,0.707106781186547,0.));
#1527=DIRECTION('',(-0.707106781186547,-0.707106781186548,0.));
#1528=DIRECTION('',(6.12323399573677E-17,1.,0.));
#1529=DIRECTION('',(0.,0.,-1.));
#1530=DIRECTION('',(0.,0.,-1.));
#1531=DIRECTION('',(6.12323399573677E-17,1.,0.));
#1532=DIRECTION('',(0.,0.,-1.));
#1533=DIRECTION('',(0.,0.,-1.));
#1534=DIRECTION('',(1.,-6.12323399573677E-17,0.));
#1535=DIRECTION('',(6.12323399573677E-17,1.,0.));
#1536=DIRECTION('',(1.,-1.22464679914735E-16,0.));
#1537=DIRECTION('',(0.,0.,1.));
#1538=DIRECTION('',(0.,0.,1.));
#1539=DIRECTION('',(-1.22464679914735E-16,-1.,0.));
#1540=DIRECTION('',(1.,-1.22464679914735E-16,0.));
#1541=CARTESIAN_POINT('',(0.,0.,0.));
#1542=CARTESIAN_POINT('',(0.,0.0001,0.));
#1543=CARTESIAN_POINT('',(2.77555756156289E-17,0.0001,0.));
#1544=CARTESIAN_POINT('',(-0.19265,0.0001,0.));
#1545=CARTESIAN_POINT('',(-0.188649999999996,0.0001,0.));
#1546=CARTESIAN_POINT('',(-0.188649999999997,0.0001,0.31005));
#1547=CARTESIAN_POINT('',(-0.188649999999997,0.0001,0.0083));
#1548=CARTESIAN_POINT('',(-2.77555756156289E-17,0.0001,0.0083));
#1549=CARTESIAN_POINT('',(-0.19265,0.0001,0.0083));
#1550=CARTESIAN_POINT('',(-0.19265,0.0001,0.0083));
#1551=CARTESIAN_POINT('',(-0.184974999999997,-2.4980018054066E-16,0.31005));
#1552=CARTESIAN_POINT('',(-0.184974999999996,0.01,0.31005));
#1553=CARTESIAN_POINT('',(-0.184974999999997,0.01,0.005));
#1554=CARTESIAN_POINT('',(-0.184974999999996,0.01,0.0083));
#1555=CARTESIAN_POINT('',(-0.184974999999997,-2.4980018054066E-16,0.0083));
#1556=CARTESIAN_POINT('',(-0.184974999999997,0.14935,0.0083));
#1557=CARTESIAN_POINT('',(-0.184974999999997,0.14935,0.31005));
#1558=CARTESIAN_POINT('',(-0.184974999999997,0.14935,0.157525));
#1559=CARTESIAN_POINT('',(-0.184974999999997,-2.4980018054066E-16,0.157525));
#1560=CARTESIAN_POINT('',(-0.184974999999997,0.15265,0.157525));
#1561=CARTESIAN_POINT('',(-0.184974999999997,0.15265,0.31005));
#1562=CARTESIAN_POINT('',(-0.184974999999997,0.15265,0.005));
#1563=CARTESIAN_POINT('',(-0.184974999999997,-2.4980018054066E-16,0.005));
#1564=CARTESIAN_POINT('',(-2.77555756156289E-17,0.0179999999999986,0.005));
#1565=CARTESIAN_POINT('',(-0.188649999999997,-1.52655665885959E-16,0.005));
#1566=CARTESIAN_POINT('',(-0.188649999999997,0.15265,0.005));
#1567=CARTESIAN_POINT('',(-0.188649999999996,0.01,0.005));
#1568=CARTESIAN_POINT('',(3.46944695195361E-17,0.01,0.005));
#1569=CARTESIAN_POINT('',(-0.186812499999997,0.15265,0.005));
#1570=CARTESIAN_POINT('',(0.,0.,0.));
#1571=CARTESIAN_POINT('',(0.,0.0179999999999986,0.005));
#1572=CARTESIAN_POINT('',(0.,0.188549999999996,0.005));
#1573=CARTESIAN_POINT('',(0.,0.188649999999998,0.005));
#1574=CARTESIAN_POINT('',(0.,0.188549999999996,0.0025));
#1575=CARTESIAN_POINT('',(0.,0.188549999999996,0.));
#1576=CARTESIAN_POINT('',(0.,0.,0.));
#1577=CARTESIAN_POINT('',(0.,0.19265,0.));
#1578=CARTESIAN_POINT('',(0.,0.19265,0.0083));
#1579=CARTESIAN_POINT('',(0.,0.19265,0.0083));
#1580=CARTESIAN_POINT('',(0.,-2.77555756156289E-17,0.0083));
#1581=CARTESIAN_POINT('',(0.,0.188649999999998,0.0083));
#1582=CARTESIAN_POINT('',(0.,0.188649999999998,0.31005));
#1583=CARTESIAN_POINT('',(0.,0.,0.157525));
#1584=CARTESIAN_POINT('',(-0.15265,0.186812499999996,0.157525));
#1585=CARTESIAN_POINT('',(-0.15265,0.184974999999996,0.157525));
#1586=CARTESIAN_POINT('',(-0.15265,0.185074999999997,0.157525));
#1587=CARTESIAN_POINT('',(-0.171,0.185074999999998,0.157525));
#1588=CARTESIAN_POINT('',(-0.155575,0.185074999999997,0.157525));
#1589=CARTESIAN_POINT('',(-0.155575,0.155575,0.157525));
#1590=CARTESIAN_POINT('',(-0.185074999999996,0.155575,0.157525));
#1591=CARTESIAN_POINT('',(-0.185074999999996,-0.0353553390593274,0.157525));
#1592=CARTESIAN_POINT('',(-0.185074999999996,0.15265,0.157525));
#1593=CARTESIAN_POINT('',(-0.186812499999997,0.15265,0.157525));
#1594=CARTESIAN_POINT('',(-0.1868125,0.14935,0.157525));
#1595=CARTESIAN_POINT('',(-0.180975,0.14935,0.157525));
#1596=CARTESIAN_POINT('',(-0.180975,-8.32667268468867E-17,0.157525));
#1597=CARTESIAN_POINT('',(-0.180975,0.155575,0.157525));
#1598=CARTESIAN_POINT('',(-0.155575,0.155575,0.157525));
#1599=CARTESIAN_POINT('',(-0.155575,0.180975,0.157525));
#1600=CARTESIAN_POINT('',(-5.55111512312578E-17,0.180975,0.157525));
#1601=CARTESIAN_POINT('',(-0.14935,0.180975,0.157525));
#1602=CARTESIAN_POINT('',(-0.14935,0.1868125,0.157525));
#1603=CARTESIAN_POINT('',(-0.14935,0.184974999999998,0.157525));
#1604=CARTESIAN_POINT('',(5.55111512312578E-17,0.184974999999998,0.157525));
#1605=CARTESIAN_POINT('',(-0.180975,-8.32667268468867E-17,0.0083));
#1606=CARTESIAN_POINT('',(-0.180975,0.01,0.00415));
#1607=CARTESIAN_POINT('',(-0.180975,0.01,0.003));
#1608=CARTESIAN_POINT('',(-0.180975,0.01,0.0083));
#1609=CARTESIAN_POINT('',(-0.180975,-8.32667268468867E-17,0.003));
#1610=CARTESIAN_POINT('',(-0.180975,0.155575,0.003));
#1611=CARTESIAN_POINT('',(-0.180975,0.155575,0.0083));
#1612=CARTESIAN_POINT('',(-0.180975,0.14935,0.30725));
#1613=CARTESIAN_POINT('',(-0.180975,0.14935,0.0083));
#1614=CARTESIAN_POINT('',(-0.180975,-8.32667268468867E-17,0.0083));
#1615=CARTESIAN_POINT('',(-0.19265,0.,0.0083));
#1616=CARTESIAN_POINT('',(-0.19265,0.14935,0.30725));
#1617=CARTESIAN_POINT('',(-0.19265,0.14935,0.167425));
#1618=CARTESIAN_POINT('',(-0.19265,0.14935,0.0083));
#1619=CARTESIAN_POINT('',(-0.19265,-0.0353553390593274,0.167425));
#1620=CARTESIAN_POINT('',(-0.19265,0.16725,0.167425));
#1621=CARTESIAN_POINT('',(-0.19265,0.16725,0.));
#1622=CARTESIAN_POINT('',(-0.19265,0.16725,0.));
#1623=CARTESIAN_POINT('',(-0.19265,0.,0.));
#1624=CARTESIAN_POINT('',(-0.19265,0.,0.0083));
#1625=CARTESIAN_POINT('',(-0.188649999999997,-1.52655665885959E-16,0.31005));
#1626=CARTESIAN_POINT('',(-0.188649999999997,0.15265,0.31005));
#1627=CARTESIAN_POINT('',(-0.188649999999996,0.15265,0.167425));
#1628=CARTESIAN_POINT('',(-0.188649999999996,-0.0353553390593274,0.167425));
#1629=CARTESIAN_POINT('',(-0.188649999999996,0.14935,0.167425));
#1630=CARTESIAN_POINT('',(-0.188649999999997,0.14935,0.31005));
#1631=CARTESIAN_POINT('',(-0.188649999999997,0.14935,0.0083));
#1632=CARTESIAN_POINT('',(-0.188649999999997,-1.52655665885959E-16,0.0083));
#1633=CARTESIAN_POINT('',(-0.188649999999996,0.01,0.));
#1634=CARTESIAN_POINT('',(-0.188649999999996,0.01,0.));
#1635=CARTESIAN_POINT('',(-0.188649999999996,0.01,0.00249999999999997));
#1636=CARTESIAN_POINT('',(-5.55111512312578E-17,0.180975,0.0083));
#1637=CARTESIAN_POINT('',(-0.155575,0.180975,0.0083));
#1638=CARTESIAN_POINT('',(-0.155575,0.180975,0.003));
#1639=CARTESIAN_POINT('',(-5.55111512312578E-17,0.180975,0.003));
#1640=CARTESIAN_POINT('',(0.,0.180975,0.003));
#1641=CARTESIAN_POINT('',(0.,0.180975,0.0083));
#1642=CARTESIAN_POINT('',(0.,0.180975,0.0083));
#1643=CARTESIAN_POINT('',(-5.55111512312578E-17,0.180975,0.0083));
#1644=CARTESIAN_POINT('',(-0.14935,0.180975,0.0083));
#1645=CARTESIAN_POINT('',(-0.14935,0.180975,0.30725));
#1646=CARTESIAN_POINT('',(0.,0.19265,0.0083));
#1647=CARTESIAN_POINT('',(-0.16725,0.19265,0.32675));
#1648=CARTESIAN_POINT('',(-0.16725,0.19265,0.));
#1649=CARTESIAN_POINT('',(-0.16725,0.19265,0.167425));
#1650=CARTESIAN_POINT('',(-0.171,0.19265,0.167425));
#1651=CARTESIAN_POINT('',(-0.14935,0.19265,0.167425));
#1652=CARTESIAN_POINT('',(-0.14935,0.19265,0.30725));
#1653=CARTESIAN_POINT('',(-0.14935,0.19265,0.0083));
#1654=CARTESIAN_POINT('',(0.,0.19265,0.0083));
#1655=CARTESIAN_POINT('',(0.,0.19265,0.));
#1656=CARTESIAN_POINT('',(5.55111512312578E-17,0.184974999999998,0.31005));
#1657=CARTESIAN_POINT('',(-0.14935,0.184974999999998,0.31005));
#1658=CARTESIAN_POINT('',(-0.14935,0.184974999999998,0.0083));
#1659=CARTESIAN_POINT('',(5.55111512312578E-17,0.184974999999998,0.0083));
#1660=CARTESIAN_POINT('',(0.0099,0.184974999999996,0.0083));
#1661=CARTESIAN_POINT('',(0.0099,0.184974999999996,0.31005));
#1662=CARTESIAN_POINT('',(0.0099,0.184974999999996,0.005));
#1663=CARTESIAN_POINT('',(5.55111512312578E-17,0.184974999999998,0.005));
#1664=CARTESIAN_POINT('',(-0.15265,0.184974999999996,0.005));
#1665=CARTESIAN_POINT('',(-0.15265,0.184974999999996,0.31005));
#1666=CARTESIAN_POINT('',(0.,0.188649999999998,0.31005));
#1667=CARTESIAN_POINT('',(-0.14935,0.188649999999998,0.31005));
#1668=CARTESIAN_POINT('',(-0.14935,0.188649999999998,0.167425));
#1669=CARTESIAN_POINT('',(-0.14935,0.188649999999998,0.0083));
#1670=CARTESIAN_POINT('',(-0.171,0.188649999999998,0.167425));
#1671=CARTESIAN_POINT('',(-0.15265,0.188649999999998,0.167425));
#1672=CARTESIAN_POINT('',(-0.15265,0.188649999999996,0.31005));
#1673=CARTESIAN_POINT('',(-0.15265,0.188649999999996,0.005));
#1674=CARTESIAN_POINT('',(0.,0.188649999999998,0.005));
#1675=CARTESIAN_POINT('',(0.,0.188649999999998,0.0083));
#1676=CARTESIAN_POINT('',(-0.1868125,0.14935,0.30725));
#1677=CARTESIAN_POINT('',(-0.171,0.14935,0.167425));
#1678=CARTESIAN_POINT('',(-0.1868125,0.14935,0.0083));
#1679=CARTESIAN_POINT('',(-0.1868125,0.14935,0.30725));
#1680=CARTESIAN_POINT('',(-0.1868125,0.14935,0.0083));
#1681=CARTESIAN_POINT('',(-0.14935,0.1868125,0.30725));
#1682=CARTESIAN_POINT('',(-0.14935,-0.0353553390593274,0.167425));
#1683=CARTESIAN_POINT('',(-0.14935,0.1868125,0.0083));
#1684=CARTESIAN_POINT('',(-0.14935,0.1868125,0.30725));
#1685=CARTESIAN_POINT('',(-0.14935,0.1868125,0.0083));
#1686=CARTESIAN_POINT('',(-0.186812499999997,0.15265,0.31005));
#1687=CARTESIAN_POINT('',(-0.185074999999996,0.15265,0.167525));
#1688=CARTESIAN_POINT('',(-0.185074999999996,0.15265,0.167425));
#1689=CARTESIAN_POINT('',(-0.171,0.15265,0.167425));
#1690=CARTESIAN_POINT('',(-0.15265,0.186812499999996,0.31005));
#1691=CARTESIAN_POINT('',(-0.15265,0.186812499999996,0.005));
#1692=CARTESIAN_POINT('',(-0.15265,-0.0353553390593274,0.167425));
#1693=CARTESIAN_POINT('',(-0.15265,0.185074999999998,0.167425));
#1694=CARTESIAN_POINT('',(-0.15265,0.185074999999998,0.167525));
#1695=CARTESIAN_POINT('',(-0.155575,0.155575,0.0083));
#1696=CARTESIAN_POINT('',(-0.155575,0.155575,0.003));
#1697=CARTESIAN_POINT('',(-0.180621503414886,0.159797874221206,0.003));
#1698=CARTESIAN_POINT('',(-0.180621503414886,0.159797874221206,0.0083));
#1699=CARTESIAN_POINT('',(-0.180621503414886,0.159797874221206,0.0133));
#1700=CARTESIAN_POINT('',(-0.155575,0.155575,0.0133));
#1701=CARTESIAN_POINT('',(-0.159797874221207,0.180621503414886,0.0133));
#1702=CARTESIAN_POINT('',(-0.159797874221207,0.180621503414886,0.0083));
#1703=CARTESIAN_POINT('',(-0.159797874221207,0.180621503414886,0.003));
#1704=CARTESIAN_POINT('',(-0.155575,0.155575,0.003));
#1705=CARTESIAN_POINT('',(-0.16725,0.16725,0.0083));
#1706=CARTESIAN_POINT('',(-0.183127442902204,0.187113637782351,0.165349088467436));
#1707=CARTESIAN_POINT('',(-0.182161896285975,0.187805250980892,0.162524313327946));
#1708=CARTESIAN_POINT('',(-0.183126673471625,0.187114072759069,0.15970365822078));
#1709=CARTESIAN_POINT('',(-0.185253223033894,0.185257922216476,0.15853588652137));
#1710=CARTESIAN_POINT('',(-0.187114921614313,0.183125897375107,0.159702799106587));
#1711=CARTESIAN_POINT('',(-0.187804228822337,0.18216314832552,0.162524093764579));
#1712=CARTESIAN_POINT('',(-0.187116876608338,0.183123212112031,0.165342582592881));
#1713=CARTESIAN_POINT('',(-0.185257997570813,0.185253246397872,0.166514580206885));
#1714=CARTESIAN_POINT('',(-0.183127442902204,0.187113637782351,0.165349088467436));
#1715=CARTESIAN_POINT('',(-0.182161896285975,0.187805250980892,0.162524313327946));
#1716=CARTESIAN_POINT('',(-0.183126673471625,0.187114072759069,0.15970365822078));
#1717=CARTESIAN_POINT('',(-0.182483616919622,0.187574785744165,0.162525));
#1718=CARTESIAN_POINT('',(-0.16725,0.16725,0.167425));
#1719=CARTESIAN_POINT('',(-0.16725,0.16725,0.));
#1720=CARTESIAN_POINT('',(2.77555756156289E-17,0.,0.));
#1721=CARTESIAN_POINT('',(-2.08166817117217E-17,0.01,0.));
#1722=CARTESIAN_POINT('',(-0.180975,0.01,0.));
#1723=CARTESIAN_POINT('',(0.01,0.188549999999996,0.));
#1724=CARTESIAN_POINT('',(0.0099,0.188549999999996,0.));
#1725=CARTESIAN_POINT('',(0.0099,4.16333634234433E-17,0.));
#1726=CARTESIAN_POINT('',(0.0099,0.181075,0.));
#1727=CARTESIAN_POINT('',(0.01,0.181075,0.));
#1728=CARTESIAN_POINT('',(0.,0.181075,0.));
#1729=CARTESIAN_POINT('',(0.,0.,0.));
#1730=CARTESIAN_POINT('',(0.,0.17272,0.));
#1731=CARTESIAN_POINT('',(-8.32667268468867E-17,0.17272,0.));
#1732=CARTESIAN_POINT('',(-0.162988120380331,0.17272,0.));
#1733=CARTESIAN_POINT('',(-0.158966599768213,0.175691089356837,0.));
#1734=CARTESIAN_POINT('',(-0.162502133674145,0.172155555450904,0.));
#1735=CARTESIAN_POINT('',(-0.167194078223242,0.1768475,0.));
#1736=CARTESIAN_POINT('',(-0.160273289111621,0.169926710888379,0.));
#1737=CARTESIAN_POINT('',(-0.1651,0.1651,0.));
#1738=CARTESIAN_POINT('',(-0.169926710888379,0.160273289111621,0.));
#1739=CARTESIAN_POINT('',(-0.1768475,0.167194078223241,0.));
#1740=CARTESIAN_POINT('',(-0.172155555450904,0.162502133674145,0.));
#1741=CARTESIAN_POINT('',(-0.175691089356837,0.158966599768213,0.));
#1742=CARTESIAN_POINT('',(-0.17272,0.162988120380331,0.));
#1743=CARTESIAN_POINT('',(-0.17272,-1.11022302462516E-16,0.));
#1744=CARTESIAN_POINT('',(-0.17272,0.0001,0.));
#1745=CARTESIAN_POINT('',(2.77555756156289E-17,0.0001,0.));
#1746=CARTESIAN_POINT('',(-0.180975,0.0001,0.));
#1747=CARTESIAN_POINT('',(-0.180975,0.01,0.));
#1748=CARTESIAN_POINT('',(-0.1651,0.1651,0.));
#1749=CARTESIAN_POINT('',(-0.161925,0.1651,0.));
#1750=CARTESIAN_POINT('',(-2.77555756156289E-17,-2.77555756156289E-17,0.0083));
#1751=CARTESIAN_POINT('',(-2.77555756156289E-17,-2.77555756156289E-17,0.0083));
#1752=CARTESIAN_POINT('',(3.46944695195361E-17,0.01,0.0083));
#1753=CARTESIAN_POINT('',(-0.17272,-1.11022302462516E-16,0.003));
#1754=CARTESIAN_POINT('',(-0.17272,-1.11022302462516E-16,0.003));
#1755=CARTESIAN_POINT('',(-0.17272,0.162988120380331,0.003));
#1756=CARTESIAN_POINT('',(-0.17272,0.0001,0.003));
#1757=CARTESIAN_POINT('',(-0.17272,0.0001,0.003));
#1758=CARTESIAN_POINT('',(-0.17272,0.162988120380331,0.0083));
#1759=CARTESIAN_POINT('',(2.77555756156289E-17,0.,0.003));
#1760=CARTESIAN_POINT('',(-0.180975,-8.32667268468867E-17,0.003));
#1761=CARTESIAN_POINT('',(-0.180975,0.0001,0.003));
#1762=CARTESIAN_POINT('',(2.77555756156289E-17,0.0001,0.003));
#1763=CARTESIAN_POINT('',(-0.175691089356837,0.158966599768213,0.003));
#1764=CARTESIAN_POINT('',(-2.77555756156289E-17,-2.77555756156289E-17,0.0083));
#1765=CARTESIAN_POINT('',(-2.77555756156289E-17,-2.77555756156289E-17,0.0083));
#1766=CARTESIAN_POINT('',(0.,-2.77555756156289E-17,0.0083));
#1767=CARTESIAN_POINT('',(0.,0.181075,0.0083));
#1768=CARTESIAN_POINT('',(0.01,0.181075,0.0083));
#1769=CARTESIAN_POINT('',(0.0099,0.181075,0.0083));
#1770=CARTESIAN_POINT('',(0.0099,-1.38777878078145E-17,0.0083));
#1771=CARTESIAN_POINT('',(-2.77555756156289E-17,0.0179999999999986,0.005));
#1772=CARTESIAN_POINT('',(0.0099,-1.38777878078145E-17,0.005));
#1773=CARTESIAN_POINT('',(0.0099,0.188549999999996,0.005));
#1774=CARTESIAN_POINT('',(0.01,0.188549999999996,0.005));
#1775=CARTESIAN_POINT('',(-8.32667268468867E-17,0.17272,0.003));
#1776=CARTESIAN_POINT('',(0.,0.17272,0.003));
#1777=CARTESIAN_POINT('',(0.,0.17272,0.003));
#1778=CARTESIAN_POINT('',(-8.32667268468867E-17,0.17272,0.003));
#1779=CARTESIAN_POINT('',(-0.162988120380331,0.17272,0.003));
#1780=CARTESIAN_POINT('',(-0.162988120380331,0.17272,0.0083));
#1781=CARTESIAN_POINT('',(2.77555756156289E-17,0.,0.003));
#1782=CARTESIAN_POINT('',(0.,0.,0.003));
#1783=CARTESIAN_POINT('',(-0.158966599768213,0.175691089356837,0.003));
#1784=CARTESIAN_POINT('',(-0.1768475,0.167194078223241,0.0083));
#1785=CARTESIAN_POINT('',(-0.169926710888379,0.160273289111621,0.0083));
#1786=CARTESIAN_POINT('',(-0.169926710888379,0.160273289111621,0.0073));
#1787=CARTESIAN_POINT('',(-0.1768475,0.167194078223241,0.0073));
#1788=CARTESIAN_POINT('',(-0.172155555450904,0.162502133674145,0.0073));
#1789=CARTESIAN_POINT('',(-0.172155555450904,0.162502133674145,0.0083));
#1790=CARTESIAN_POINT('',(-0.1651,0.1651,0.0083));
#1791=CARTESIAN_POINT('',(-0.160273289111621,0.169926710888379,0.0083));
#1792=CARTESIAN_POINT('',(-0.160273289111621,0.169926710888379,0.0073));
#1793=CARTESIAN_POINT('',(-0.1651,0.1651,0.0073));
#1794=CARTESIAN_POINT('',(-0.167194078223242,0.1768475,0.0083));
#1795=CARTESIAN_POINT('',(-0.162502133674145,0.172155555450904,0.0083));
#1796=CARTESIAN_POINT('',(-0.162502133674145,0.172155555450904,0.0073));
#1797=CARTESIAN_POINT('',(-0.160273289111621,0.169926710888379,0.0073));
#1798=CARTESIAN_POINT('',(2.77555756156289E-17,0.,0.0083));
#1799=CARTESIAN_POINT('',(-0.155575,0.155575,0.0083));
#1800=CARTESIAN_POINT('',(-0.164672075502913,0.173834332334297,0.0083));
#1801=CARTESIAN_POINT('',(-0.173834332334297,0.164672075502912,0.0083));
#1802=CARTESIAN_POINT('',(-0.175691089356837,0.158966599768213,0.0083));
#1803=CARTESIAN_POINT('',(-0.171448448669718,0.163209240455332,0.0083));
#1804=CARTESIAN_POINT('',(-0.00411960410719286,-0.00411960410719288,0.0083));
#1805=CARTESIAN_POINT('',(-0.169219604107193,0.160980395892807,0.0083));
#1806=CARTESIAN_POINT('',(-0.1651,0.1651,0.0083));
#1807=CARTESIAN_POINT('',(-0.160980395892807,0.169219604107193,0.0083));
#1808=CARTESIAN_POINT('',(-0.163209240455332,0.171448448669718,0.0083));
#1809=CARTESIAN_POINT('',(-0.163209240455332,0.171448448669718,0.0083));
#1810=CARTESIAN_POINT('',(-0.158966599768213,0.175691089356837,0.0083));
#1811=CARTESIAN_POINT('',(-0.1651,0.1651,0.0083));
#1812=CARTESIAN_POINT('',(-0.169926,0.1651,0.0083));
#1813=CARTESIAN_POINT('',(-0.1651,0.1651,0.0083));
#1814=CARTESIAN_POINT('',(-0.1651,0.1651,0.00195));
#1815=CARTESIAN_POINT('',(-0.168275,0.1651,0.00195));
#1816=CARTESIAN_POINT('',(-0.160274,0.1651,0.00195));
#1817=CARTESIAN_POINT('',(-0.1651,0.1651,0.00195));
#1818=CARTESIAN_POINT('',(-0.169926,0.1651,0.00195));
#1819=CARTESIAN_POINT('',(-0.1651,0.1651,0.0083));
#1820=CARTESIAN_POINT('',(-0.175691089356837,0.158966599768213,0.0083));
#1821=CARTESIAN_POINT('',(-0.175691089356837,0.158966599768213,0.0073));
#1822=CARTESIAN_POINT('',(-0.174143791838054,0.163721162880462,0.0073));
#1823=CARTESIAN_POINT('',(-0.174143791838054,0.163721162880462,0.0073));
#1824=CARTESIAN_POINT('',(-0.175008027035863,0.164002414584488,0.00729999999999994));
#1825=CARTESIAN_POINT('',(-0.176790349010837,0.164040810414209,0.00788836187203303));
#1826=CARTESIAN_POINT('',(-0.17879094947141,0.163062695122091,0.00950240997445372));
#1827=CARTESIAN_POINT('',(-0.180090053604601,0.1615844196166,0.0113484662963289));
#1828=CARTESIAN_POINT('',(-0.180519728920742,0.160401514083913,0.0126542580454507));
#1829=CARTESIAN_POINT('',(-0.180621503414886,0.159797874221206,0.0133));
#1830=CARTESIAN_POINT('',(-0.155575,0.155575,0.0133));
#1831=CARTESIAN_POINT('',(-0.173834332334297,0.164672075502912,0.0083));
#1832=CARTESIAN_POINT('',(-0.174712150555443,0.164929889734816,0.00829999999999998));
#1833=CARTESIAN_POINT('',(-0.176532268167616,0.164845541523602,0.00878420519770226));
#1834=CARTESIAN_POINT('',(-0.178632381772253,0.163632939099886,0.0101164253016606));
#1835=CARTESIAN_POINT('',(-0.180027340322912,0.161881818016086,0.0116601597579703));
#1836=CARTESIAN_POINT('',(-0.18050292806689,0.160501162480083,0.0127569720869753));
#1837=CARTESIAN_POINT('',(-0.180621503414886,0.159797874221206,0.0133));
#1838=CARTESIAN_POINT('',(-0.164672075502913,0.173834332334297,0.0083));
#1839=CARTESIAN_POINT('',(-0.164929889734816,0.174712150555443,0.00830000000000002));
#1840=CARTESIAN_POINT('',(-0.164845541523585,0.176532268167619,0.00878420519768065));
#1841=CARTESIAN_POINT('',(-0.163632939099943,0.178632381772243,0.0101164253017362));
#1842=CARTESIAN_POINT('',(-0.161881818015875,0.180027340322948,0.011660159757689));
#1843=CARTESIAN_POINT('',(-0.160501162480538,0.180502928066814,0.0127569720875806));
#1844=CARTESIAN_POINT('',(-0.159797874221207,0.180621503414886,0.0133));
#1845=CARTESIAN_POINT('',(-0.158966599768213,0.175691089356837,0.0083));
#1846=CARTESIAN_POINT('',(-0.163721162880463,0.174143791838054,0.0073));
#1847=CARTESIAN_POINT('',(-0.164002414584488,0.175008027035863,0.00729999999999999));
#1848=CARTESIAN_POINT('',(-0.164040810414194,0.176790349010839,0.00788836187201955));
#1849=CARTESIAN_POINT('',(-0.16306269512214,0.178790949471401,0.00950240997450088));
#1850=CARTESIAN_POINT('',(-0.161584419616418,0.180090053604631,0.0113484662961534));
#1851=CARTESIAN_POINT('',(-0.160401514084306,0.180519728920676,0.0126542580458284));
#1852=CARTESIAN_POINT('',(-0.159797874221207,0.180621503414886,0.0133));
#1853=CARTESIAN_POINT('',(-0.163721162880463,0.174143791838054,0.0073));
#1854=CARTESIAN_POINT('',(-0.158966599768213,0.175691089356837,0.0073));
#1855=CARTESIAN_POINT('',(-0.163721162880463,0.174143791838054,0.0073));
#1856=CARTESIAN_POINT('',(-0.163721162880463,0.174143791838054,0.00830000000000001));
#1857=CARTESIAN_POINT('',(-0.164672075502913,0.173834332334297,0.0083));
#1858=CARTESIAN_POINT('',(-0.163853774981364,0.17455128464117,0.00730000000568617));
#1859=CARTESIAN_POINT('',(-0.163827165385183,0.174469518204081,0.00828761049186166));
#1860=CARTESIAN_POINT('',(-0.1647934064038,0.174247445601435,0.00830000000000001));
#1861=CARTESIAN_POINT('',(-0.164008351070961,0.175379666672904,0.00742778275971799));
#1862=CARTESIAN_POINT('',(-0.163977723684755,0.175126568366913,0.00832544454299137));
#1863=CARTESIAN_POINT('',(-0.164908451694369,0.17509540285998,0.00840648563524119));
#1864=CARTESIAN_POINT('',(-0.16390396592899,0.17700673557141,0.00809029790912989));
#1865=CARTESIAN_POINT('',(-0.163993819702646,0.176596873923981,0.0087077264564152));
#1866=CARTESIAN_POINT('',(-0.164676631679844,0.176781423708188,0.00895858158970414));
#1867=CARTESIAN_POINT('',(-0.1631328791136,0.178707288003549,0.00940814891778084));
#1868=CARTESIAN_POINT('',(-0.163366152497014,0.178412304510567,0.00972511976345486));
#1869=CARTESIAN_POINT('',(-0.163697058616981,0.178565712593001,0.0100567907652398));
#1870=CARTESIAN_POINT('',(-0.161637741120451,0.180065710165396,0.0112885117267427));
#1871=CARTESIAN_POINT('',(-0.161807232313166,0.179987214632768,0.0114264707424867));
#1872=CARTESIAN_POINT('',(-0.161926917782857,0.180008239292377,0.0116237597721652));
#1873=CARTESIAN_POINT('',(-0.160421536088133,0.180516353183854,0.012632839578777));
#1874=CARTESIAN_POINT('',(-0.160469728145016,0.180508227938354,0.0126884362772609));
#1875=CARTESIAN_POINT('',(-0.160517920194617,0.180500102693642,0.0127440329823133));
#1876=CARTESIAN_POINT('',(-0.159797874221206,0.180621503414885,0.0133));
#1877=CARTESIAN_POINT('',(-0.159797874221206,0.180621503414885,0.0133));
#1878=CARTESIAN_POINT('',(-0.159797874221206,0.180621503414885,0.0133));
#1879=CARTESIAN_POINT('',(-0.164672075502913,0.173834332334297,0.0073));
#1880=CARTESIAN_POINT('',(-0.158966599768213,0.175691089356837,0.0073));
#1881=CARTESIAN_POINT('',(-0.163209240455332,0.171448448669718,0.0073));
#1882=CARTESIAN_POINT('',(0.00411960410719311,0.0041196041071931,0.0073));
#1883=CARTESIAN_POINT('',(-0.160980395892807,0.169219604107193,0.0073));
#1884=CARTESIAN_POINT('',(-0.1651,0.1651,0.0073));
#1885=CARTESIAN_POINT('',(-0.169219604107193,0.160980395892807,0.0073));
#1886=CARTESIAN_POINT('',(-0.176140393218814,0.167901185004427,0.0073));
#1887=CARTESIAN_POINT('',(-0.171448448669718,0.163209240455332,0.0073));
#1888=CARTESIAN_POINT('',(-0.175691089356837,0.158966599768213,0.0073));
#1889=CARTESIAN_POINT('',(-0.173834332334297,0.164672075502912,0.0073));
#1890=CARTESIAN_POINT('',(-0.173834332334297,0.164672075502912,0.0083));
#1891=CARTESIAN_POINT('',(-0.174143791838054,0.163721162880463,0.00829999999999999));
#1892=CARTESIAN_POINT('',(-0.174143791838054,0.163721162880463,0.0073));
#1893=CARTESIAN_POINT('',(-0.174247445601328,0.164793406404164,0.00829999999999999));
#1894=CARTESIAN_POINT('',(-0.174469518203954,0.163827165385538,0.00828761049188354));
#1895=CARTESIAN_POINT('',(-0.174551284641219,0.16385377498138,0.00730000000568617));
#1896=CARTESIAN_POINT('',(-0.175095402860029,0.164908451694203,0.00840648563523963));
#1897=CARTESIAN_POINT('',(-0.175126568366964,0.163977723684596,0.00832544454297927));
#1898=CARTESIAN_POINT('',(-0.175379666672882,0.164008351070953,0.0074277827597161));
#1899=CARTESIAN_POINT('',(-0.176781423708159,0.164676631679947,0.00895858158971174));
#1900=CARTESIAN_POINT('',(-0.17659687392396,0.163993819702739,0.00870772645643165));
#1901=CARTESIAN_POINT('',(-0.177006735571422,0.163903965929001,0.00809029790913901));
#1902=CARTESIAN_POINT('',(-0.178565712593021,0.163697058616884,0.0100567907651784));
#1903=CARTESIAN_POINT('',(-0.178412304510553,0.163366152496915,0.00972511976337795));
#1904=CARTESIAN_POINT('',(-0.178707288003554,0.163132879113548,0.00940814891770724));
#1905=CARTESIAN_POINT('',(-0.180008239292335,0.161926917783102,0.0116237597723893));
#1906=CARTESIAN_POINT('',(-0.179987214632833,0.161807232313424,0.0114264707427384));
#1907=CARTESIAN_POINT('',(-0.180065710165366,0.161637741120638,0.0112885117270112));
#1908=CARTESIAN_POINT('',(-0.180500102693727,0.16051792019411,0.0127440329818312));
#1909=CARTESIAN_POINT('',(-0.180508227938214,0.160469728144483,0.0126884362767306));
#1910=CARTESIAN_POINT('',(-0.180516353183922,0.160421536087733,0.0126328395781994));
#1911=CARTESIAN_POINT('',(-0.180621503414885,0.159797874221206,0.0133));
#1912=CARTESIAN_POINT('',(-0.180621503414885,0.159797874221206,0.0133));
#1913=CARTESIAN_POINT('',(-0.180621503414885,0.159797874221206,0.0133));
#1914=CARTESIAN_POINT('',(0.,0.,0.));
#1915=CARTESIAN_POINT('',(0.,0.181075,0.0083));
#1916=CARTESIAN_POINT('',(0.,0.0001,0.));
#1917=CARTESIAN_POINT('',(-0.180975,0.0001,0.));
#1918=CARTESIAN_POINT('',(-0.1541125,0.185074999999998,0.167525));
#1919=CARTESIAN_POINT('',(-0.171,0.185074999999998,0.167425));
#1920=CARTESIAN_POINT('',(-0.155575,0.185074999999998,0.167425));
#1921=CARTESIAN_POINT('',(-0.155575,0.185074999999998,0.167525));
#1922=CARTESIAN_POINT('',(-0.155575,0.155575,0.167525));
#1923=CARTESIAN_POINT('',(-0.177570974134733,0.17524560755757,0.160877559629339));
#1924=CARTESIAN_POINT('',(-0.178014414692255,0.174722509080008,0.16252541772721));
#1925=CARTESIAN_POINT('',(-0.177571290622555,0.175245188762807,0.164170769461819));
#1926=CARTESIAN_POINT('',(-0.176449091373719,0.176446607963733,0.16485190081761));
#1927=CARTESIAN_POINT('',(-0.175245044829173,0.177571478791514,0.164171625438584));
#1928=CARTESIAN_POINT('',(-0.174723099731109,0.178013886784206,0.162525355593445));
#1929=CARTESIAN_POINT('',(-0.175243389507465,0.177572897059994,0.160881495983109));
#1930=CARTESIAN_POINT('',(-0.176446183883612,0.176449549031736,0.16019773763367));
#1931=CARTESIAN_POINT('',(-0.177570974134733,0.17524560755757,0.160877559629339));
#1932=CARTESIAN_POINT('',(-0.178014414692255,0.174722509080008,0.16252541772721));
#1933=CARTESIAN_POINT('',(-0.177571290622555,0.175245188762807,0.164170769461819));
#1934=CARTESIAN_POINT('',(-0.177866653921051,0.174896805440068,0.162525));
#1935=CARTESIAN_POINT('',(-0.155575,0.155575,0.167425));
#1936=CARTESIAN_POINT('',(-0.185074999999996,0.155575,0.167425));
#1937=CARTESIAN_POINT('',(-0.185074999999996,0.155575,0.167525));
#1938=CARTESIAN_POINT('',(-0.185074999999996,0.1541125,0.167525));
#1939=CARTESIAN_POINT('',(-0.185074999999996,-0.0353553390593274,0.167425));
#1940=CARTESIAN_POINT('',(-0.171,-0.0353553390593274,0.167425));
#1941=CARTESIAN_POINT('',(-0.16470441717316,0.16470441717316,0.162525));
#1942=CARTESIAN_POINT('',(-0.182382086702823,0.182382086702823,0.162525));
#1943=CARTESIAN_POINT('',(-0.183867010943315,0.180897162462332,0.162525));
#1944=CARTESIAN_POINT('',(-0.189453154514688,0.189453154514689,0.162525));
#1945=CARTESIAN_POINT('',(-0.182382086702823,0.182382086702823,0.162525));
#1946=CARTESIAN_POINT('',(-0.179836502290551,0.184927671115095,0.162525));
#1947=CARTESIAN_POINT('',(-0.184927671115095,0.179836502290552,0.162525));
#1948=CARTESIAN_POINT('',(0.01,0.188549999999996,0.0025));
#1949=CARTESIAN_POINT('',(0.0099,0.188549999999996,0.0025));
#1950=CARTESIAN_POINT('',(0.01,0.181075,0.0083));
#1951=CARTESIAN_POINT('',(0.0099,0.181075,0.0083));
#1952=CARTESIAN_POINT('',(0.0099,0.182685,0.00415));
#1953=CARTESIAN_POINT('',(-0.180975,0.01,0.00415));
#1954=CARTESIAN_POINT('',(-0.180975,0.01,0.00415));
#1955=CARTESIAN_POINT('',(-0.182685,0.01,0.00415));
#1956=MECHANICAL_DESIGN_GEOMETRIC_PRESENTATION_REPRESENTATION('',(#1134),
#1957);
#1957=(
GEOMETRIC_REPRESENTATION_CONTEXT(3)
GLOBAL_UNCERTAINTY_ASSIGNED_CONTEXT((#1958))
GLOBAL_UNIT_ASSIGNED_CONTEXT((#1961,#1960,#1959))
REPRESENTATION_CONTEXT('Bottom Left Back','TOP_LEVEL_ASSEMBLY_PART')
);
#1958=UNCERTAINTY_MEASURE_WITH_UNIT(LENGTH_MEASURE(2.E-5),#1961,
'DISTANCE_ACCURACY_VALUE','Maximum Tolerance applied to model');
#1959=(
NAMED_UNIT(*)
SI_UNIT($,.STERADIAN.)
SOLID_ANGLE_UNIT()
);
#1960=(
NAMED_UNIT(*)
PLANE_ANGLE_UNIT()
SI_UNIT($,.RADIAN.)
);
#1961=(
LENGTH_UNIT()
NAMED_UNIT(*)
SI_UNIT($,.METRE.)
);
#1962=PRODUCT_DEFINITION_SHAPE('','',#1963);
#1963=PRODUCT_DEFINITION('','',#1965,#1964);
#1964=PRODUCT_DEFINITION_CONTEXT('',#1971,'design');
#1965=PRODUCT_DEFINITION_FORMATION_WITH_SPECIFIED_SOURCE('','',#1967,
 .NOT_KNOWN.);
#1966=PRODUCT_RELATED_PRODUCT_CATEGORY('','',(#1967));
#1967=PRODUCT('Bottom Left Back','Bottom Left Back','Bottom Left Back',
(#1969));
#1968=PRODUCT_CATEGORY('','');
#1969=PRODUCT_CONTEXT('',#1971,'mechanical');
#1970=APPLICATION_PROTOCOL_DEFINITION('international standard',
'ap242_managed_model_based_3d_engineering',2020,#1971);
#1971=APPLICATION_CONTEXT('managed model based 3d engineering');
ENDSEC;
END-ISO-10303-21;
