ISO-10303-21;
HEADER;
/* Generated by software containing ST-Developer
 * from STEP Tools, Inc. (www.steptools.com) 
 */
/* OPTION: using custom renumber hook */

FILE_DESCRIPTION(
/* description */ ('STEP AP242 Edition 2',
'CAx-IF Rec.Pracs.---Representation and Presentation of Product Manufa
cturing Information (PMI)---4.0---2014-10-13',
'CAx-IF Rec.Pracs.---3D Tessellated Geometry---0.4---2014-09-14','2;1',
'CAx-IF Rec.Pracs.---User Defined Attributes---1.5---2016-08-15'),
/* implementation_level */ '2;1');

FILE_NAME(
/* name */ 'N-Metheus - Top Left Front',
/* time_stamp */ '2026-01-30T20:52:42Z',
/* author */ (''),
/* organization */ (''),
/* preprocessor_version */ 'ST-DEVELOPER v20',
/* originating_system */ 'ONSHAPE BY PTC INC, 1.210',
/* authorisation */ '  ');

FILE_SCHEMA (('AP242_MANAGED_MODEL_BASED_3D_ENGINEERING_MIM_LF { 1 0 10303 442 3 1 4 }'));
ENDSEC;

DATA;
#10=SHAPE_REPRESENTATION_RELATIONSHIP('','',#1195,#11);
#11=ADVANCED_BREP_SHAPE_REPRESENTATION('',(#1193),#1955);
#12=B_SPLINE_CURVE_WITH_KNOTS('',3,(#1879,#1880,#1881,#1882,#1883,#1884,
#1885,#1886,#1887,#1888,#1889),.UNSPECIFIED.,.T.,.F.,(1,1,1,1,1,1,1,1,1,
1,1,1,1,1,1),(-0.00492516856910752,-0.00328344571273835,-0.00164172285636917,
0.,0.00164172285636917,0.00328344571273835,0.00492516856910752,0.0065668914254767,
0.00820861428184587,0.00985033713821505,0.0114920599945842,0.0131337828509534,
0.0147755057073226,0.0164172285636917,0.0180589514200609),.UNSPECIFIED.);
#13=SPHERICAL_SURFACE('',#1245,0.0254);
#14=DEGENERATE_TOROIDAL_SURFACE('',#1243,0.0104,0.015,.T.);
#15=CONICAL_SURFACE('',#1226,0.0154,0.785398163397448);
#16=ELLIPSE('',#1208,0.0507999999999986,0.0254);
#17=ELLIPSE('',#1210,0.0508,0.0254);
#18=ELLIPSE('',#1211,0.0507999999999989,0.0254);
#19=ELLIPSE('',#1213,0.0508000000000008,0.0254);
#20=ELLIPSE('',#1240,0.03,0.015);
#21=CYLINDRICAL_SURFACE('',#1205,0.0254);
#22=CYLINDRICAL_SURFACE('',#1216,0.0254);
#23=CYLINDRICAL_SURFACE('',#1237,0.0254);
#24=CYLINDRICAL_SURFACE('',#1239,0.015);
#25=CYLINDRICAL_SURFACE('',#1250,0.015);
#26=CYLINDRICAL_SURFACE('',#1251,0.0254);
#27=CYLINDRICAL_SURFACE('',#1262,0.0293999999999962);
#28=CYLINDRICAL_SURFACE('',#1271,0.0021);
#29=CIRCLE('',#1198,0.015);
#30=CIRCLE('',#1200,0.015);
#31=CIRCLE('',#1201,0.0254);
#32=CIRCLE('',#1203,0.0254);
#33=CIRCLE('',#1204,0.015);
#34=CIRCLE('',#1206,0.0254);
#35=CIRCLE('',#1207,0.0254);
#36=CIRCLE('',#1209,0.0254);
#37=CIRCLE('',#1212,0.0254);
#38=CIRCLE('',#1217,0.0254);
#39=CIRCLE('',#1218,0.0254);
#40=CIRCLE('',#1221,0.0254);
#41=CIRCLE('',#1227,0.0210066017177982);
#42=CIRCLE('',#1228,0.0154);
#43=CIRCLE('',#1238,0.0254);
#44=CIRCLE('',#1241,0.015);
#45=CIRCLE('',#1244,0.015);
#46=CIRCLE('',#1246,0.0254);
#47=CIRCLE('',#1252,0.0254);
#48=CIRCLE('',#1260,0.0293999999999962);
#49=CIRCLE('',#1263,0.0293999999999962);
#50=CIRCLE('',#1272,0.0021);
#51=ORIENTED_EDGE('',*,*,#385,.T.);
#52=ORIENTED_EDGE('',*,*,#386,.F.);
#53=ORIENTED_EDGE('',*,*,#387,.T.);
#54=ORIENTED_EDGE('',*,*,#388,.T.);
#55=ORIENTED_EDGE('',*,*,#389,.F.);
#56=ORIENTED_EDGE('',*,*,#390,.T.);
#57=ORIENTED_EDGE('',*,*,#391,.F.);
#58=ORIENTED_EDGE('',*,*,#392,.T.);
#59=ORIENTED_EDGE('',*,*,#393,.T.);
#60=ORIENTED_EDGE('',*,*,#394,.F.);
#61=ORIENTED_EDGE('',*,*,#395,.F.);
#62=ORIENTED_EDGE('',*,*,#396,.F.);
#63=ORIENTED_EDGE('',*,*,#397,.F.);
#64=ORIENTED_EDGE('',*,*,#398,.T.);
#65=ORIENTED_EDGE('',*,*,#399,.T.);
#66=ORIENTED_EDGE('',*,*,#400,.T.);
#67=ORIENTED_EDGE('',*,*,#401,.T.);
#68=ORIENTED_EDGE('',*,*,#402,.T.);
#69=ORIENTED_EDGE('',*,*,#403,.T.);
#70=ORIENTED_EDGE('',*,*,#404,.T.);
#71=ORIENTED_EDGE('',*,*,#405,.F.);
#72=ORIENTED_EDGE('',*,*,#406,.F.);
#73=ORIENTED_EDGE('',*,*,#407,.F.);
#74=ORIENTED_EDGE('',*,*,#408,.F.);
#75=ORIENTED_EDGE('',*,*,#409,.T.);
#76=ORIENTED_EDGE('',*,*,#410,.T.);
#77=ORIENTED_EDGE('',*,*,#411,.F.);
#78=ORIENTED_EDGE('',*,*,#412,.F.);
#79=ORIENTED_EDGE('',*,*,#413,.T.);
#80=ORIENTED_EDGE('',*,*,#414,.F.);
#81=ORIENTED_EDGE('',*,*,#415,.F.);
#82=ORIENTED_EDGE('',*,*,#416,.T.);
#83=ORIENTED_EDGE('',*,*,#417,.T.);
#84=ORIENTED_EDGE('',*,*,#418,.T.);
#85=ORIENTED_EDGE('',*,*,#419,.F.);
#86=ORIENTED_EDGE('',*,*,#420,.F.);
#87=ORIENTED_EDGE('',*,*,#421,.T.);
#88=ORIENTED_EDGE('',*,*,#422,.F.);
#89=ORIENTED_EDGE('',*,*,#423,.T.);
#90=ORIENTED_EDGE('',*,*,#424,.F.);
#91=ORIENTED_EDGE('',*,*,#425,.F.);
#92=ORIENTED_EDGE('',*,*,#426,.F.);
#93=ORIENTED_EDGE('',*,*,#427,.F.);
#94=ORIENTED_EDGE('',*,*,#428,.F.);
#95=ORIENTED_EDGE('',*,*,#429,.F.);
#96=ORIENTED_EDGE('',*,*,#430,.F.);
#97=ORIENTED_EDGE('',*,*,#431,.F.);
#98=ORIENTED_EDGE('',*,*,#432,.T.);
#99=ORIENTED_EDGE('',*,*,#433,.T.);
#100=ORIENTED_EDGE('',*,*,#434,.F.);
#101=ORIENTED_EDGE('',*,*,#435,.F.);
#102=ORIENTED_EDGE('',*,*,#413,.F.);
#103=ORIENTED_EDGE('',*,*,#436,.T.);
#104=ORIENTED_EDGE('',*,*,#437,.T.);
#105=ORIENTED_EDGE('',*,*,#432,.F.);
#106=ORIENTED_EDGE('',*,*,#438,.F.);
#107=ORIENTED_EDGE('',*,*,#439,.T.);
#108=ORIENTED_EDGE('',*,*,#440,.F.);
#109=ORIENTED_EDGE('',*,*,#441,.T.);
#110=ORIENTED_EDGE('',*,*,#442,.F.);
#111=ORIENTED_EDGE('',*,*,#443,.T.);
#112=ORIENTED_EDGE('',*,*,#444,.F.);
#113=ORIENTED_EDGE('',*,*,#445,.F.);
#114=ORIENTED_EDGE('',*,*,#446,.T.);
#115=ORIENTED_EDGE('',*,*,#387,.F.);
#116=ORIENTED_EDGE('',*,*,#447,.T.);
#117=ORIENTED_EDGE('',*,*,#442,.T.);
#118=ORIENTED_EDGE('',*,*,#448,.F.);
#119=ORIENTED_EDGE('',*,*,#449,.T.);
#120=ORIENTED_EDGE('',*,*,#450,.F.);
#121=ORIENTED_EDGE('',*,*,#451,.F.);
#122=ORIENTED_EDGE('',*,*,#452,.T.);
#123=ORIENTED_EDGE('',*,*,#453,.T.);
#124=ORIENTED_EDGE('',*,*,#445,.T.);
#125=ORIENTED_EDGE('',*,*,#454,.T.);
#126=ORIENTED_EDGE('',*,*,#396,.T.);
#127=ORIENTED_EDGE('',*,*,#455,.F.);
#128=ORIENTED_EDGE('',*,*,#456,.F.);
#129=ORIENTED_EDGE('',*,*,#457,.F.);
#130=ORIENTED_EDGE('',*,*,#394,.T.);
#131=ORIENTED_EDGE('',*,*,#458,.T.);
#132=ORIENTED_EDGE('',*,*,#459,.T.);
#133=ORIENTED_EDGE('',*,*,#392,.F.);
#134=ORIENTED_EDGE('',*,*,#460,.T.);
#135=ORIENTED_EDGE('',*,*,#461,.F.);
#136=ORIENTED_EDGE('',*,*,#462,.F.);
#137=ORIENTED_EDGE('',*,*,#463,.T.);
#138=ORIENTED_EDGE('',*,*,#464,.T.);
#139=ORIENTED_EDGE('',*,*,#389,.T.);
#140=ORIENTED_EDGE('',*,*,#465,.F.);
#141=ORIENTED_EDGE('',*,*,#466,.F.);
#142=ORIENTED_EDGE('',*,*,#467,.T.);
#143=ORIENTED_EDGE('',*,*,#456,.T.);
#144=ORIENTED_EDGE('',*,*,#468,.F.);
#145=ORIENTED_EDGE('',*,*,#405,.T.);
#146=ORIENTED_EDGE('',*,*,#469,.T.);
#147=ORIENTED_EDGE('',*,*,#463,.F.);
#148=ORIENTED_EDGE('',*,*,#470,.T.);
#149=ORIENTED_EDGE('',*,*,#471,.T.);
#150=ORIENTED_EDGE('',*,*,#472,.T.);
#151=ORIENTED_EDGE('',*,*,#403,.F.);
#152=ORIENTED_EDGE('',*,*,#473,.T.);
#153=ORIENTED_EDGE('',*,*,#460,.F.);
#154=ORIENTED_EDGE('',*,*,#391,.T.);
#155=ORIENTED_EDGE('',*,*,#421,.F.);
#156=ORIENTED_EDGE('',*,*,#474,.T.);
#157=ORIENTED_EDGE('',*,*,#461,.T.);
#158=ORIENTED_EDGE('',*,*,#473,.F.);
#159=ORIENTED_EDGE('',*,*,#474,.F.);
#160=ORIENTED_EDGE('',*,*,#420,.T.);
#161=ORIENTED_EDGE('',*,*,#475,.T.);
#162=ORIENTED_EDGE('',*,*,#458,.F.);
#163=ORIENTED_EDGE('',*,*,#393,.F.);
#164=ORIENTED_EDGE('',*,*,#462,.T.);
#165=ORIENTED_EDGE('',*,*,#475,.F.);
#166=ORIENTED_EDGE('',*,*,#419,.T.);
#167=ORIENTED_EDGE('',*,*,#476,.T.);
#168=ORIENTED_EDGE('',*,*,#459,.F.);
#169=ORIENTED_EDGE('',*,*,#418,.F.);
#170=ORIENTED_EDGE('',*,*,#477,.T.);
#171=ORIENTED_EDGE('',*,*,#468,.T.);
#172=ORIENTED_EDGE('',*,*,#455,.T.);
#173=ORIENTED_EDGE('',*,*,#395,.T.);
#174=ORIENTED_EDGE('',*,*,#457,.T.);
#175=ORIENTED_EDGE('',*,*,#476,.F.);
#176=ORIENTED_EDGE('',*,*,#417,.F.);
#177=ORIENTED_EDGE('',*,*,#478,.T.);
#178=ORIENTED_EDGE('',*,*,#466,.T.);
#179=ORIENTED_EDGE('',*,*,#477,.F.);
#180=ORIENTED_EDGE('',*,*,#479,.T.);
#181=ORIENTED_EDGE('',*,*,#406,.T.);
#182=ORIENTED_EDGE('',*,*,#470,.F.);
#183=ORIENTED_EDGE('',*,*,#465,.T.);
#184=ORIENTED_EDGE('',*,*,#402,.F.);
#185=ORIENTED_EDGE('',*,*,#480,.T.);
#186=ORIENTED_EDGE('',*,*,#401,.F.);
#187=ORIENTED_EDGE('',*,*,#481,.F.);
#188=ORIENTED_EDGE('',*,*,#452,.F.);
#189=ORIENTED_EDGE('',*,*,#482,.F.);
#190=ORIENTED_EDGE('',*,*,#483,.T.);
#191=ORIENTED_EDGE('',*,*,#480,.F.);
#192=ORIENTED_EDGE('',*,*,#386,.T.);
#193=ORIENTED_EDGE('',*,*,#484,.T.);
#194=ORIENTED_EDGE('',*,*,#485,.T.);
#195=ORIENTED_EDGE('',*,*,#397,.T.);
#196=ORIENTED_EDGE('',*,*,#454,.F.);
#197=ORIENTED_EDGE('',*,*,#486,.F.);
#198=ORIENTED_EDGE('',*,*,#447,.F.);
#199=ORIENTED_EDGE('',*,*,#487,.F.);
#200=ORIENTED_EDGE('',*,*,#488,.T.);
#201=ORIENTED_EDGE('',*,*,#388,.F.);
#202=ORIENTED_EDGE('',*,*,#446,.F.);
#203=ORIENTED_EDGE('',*,*,#453,.F.);
#204=ORIENTED_EDGE('',*,*,#481,.T.);
#205=ORIENTED_EDGE('',*,*,#400,.F.);
#206=ORIENTED_EDGE('',*,*,#489,.T.);
#207=ORIENTED_EDGE('',*,*,#486,.T.);
#208=ORIENTED_EDGE('',*,*,#467,.F.);
#209=ORIENTED_EDGE('',*,*,#490,.F.);
#210=ORIENTED_EDGE('',*,*,#443,.F.);
#211=ORIENTED_EDGE('',*,*,#425,.T.);
#212=ORIENTED_EDGE('',*,*,#491,.T.);
#213=ORIENTED_EDGE('',*,*,#483,.F.);
#214=ORIENTED_EDGE('',*,*,#492,.F.);
#215=ORIENTED_EDGE('',*,*,#493,.T.);
#216=ORIENTED_EDGE('',*,*,#408,.T.);
#217=ORIENTED_EDGE('',*,*,#494,.T.);
#218=ORIENTED_EDGE('',*,*,#495,.T.);
#219=ORIENTED_EDGE('',*,*,#436,.F.);
#220=ORIENTED_EDGE('',*,*,#412,.T.);
#221=ORIENTED_EDGE('',*,*,#496,.F.);
#222=ORIENTED_EDGE('',*,*,#497,.F.);
#223=ORIENTED_EDGE('',*,*,#498,.T.);
#224=ORIENTED_EDGE('',*,*,#438,.T.);
#225=ORIENTED_EDGE('',*,*,#499,.F.);
#226=ORIENTED_EDGE('',*,*,#414,.T.);
#227=ORIENTED_EDGE('',*,*,#435,.T.);
#228=ORIENTED_EDGE('',*,*,#500,.T.);
#229=ORIENTED_EDGE('',*,*,#416,.F.);
#230=ORIENTED_EDGE('',*,*,#501,.F.);
#231=ORIENTED_EDGE('',*,*,#490,.T.);
#232=ORIENTED_EDGE('',*,*,#478,.F.);
#233=ORIENTED_EDGE('',*,*,#494,.F.);
#234=ORIENTED_EDGE('',*,*,#407,.T.);
#235=ORIENTED_EDGE('',*,*,#479,.F.);
#236=ORIENTED_EDGE('',*,*,#491,.F.);
#237=ORIENTED_EDGE('',*,*,#502,.F.);
#238=ORIENTED_EDGE('',*,*,#503,.F.);
#239=ORIENTED_EDGE('',*,*,#504,.T.);
#240=ORIENTED_EDGE('',*,*,#505,.T.);
#241=ORIENTED_EDGE('',*,*,#440,.T.);
#242=ORIENTED_EDGE('',*,*,#501,.T.);
#243=ORIENTED_EDGE('',*,*,#415,.T.);
#244=ORIENTED_EDGE('',*,*,#499,.T.);
#245=ORIENTED_EDGE('',*,*,#506,.T.);
#246=ORIENTED_EDGE('',*,*,#507,.T.);
#247=ORIENTED_EDGE('',*,*,#508,.F.);
#248=ORIENTED_EDGE('',*,*,#509,.F.);
#249=ORIENTED_EDGE('',*,*,#439,.F.);
#250=ORIENTED_EDGE('',*,*,#498,.F.);
#251=ORIENTED_EDGE('',*,*,#510,.T.);
#252=ORIENTED_EDGE('',*,*,#511,.T.);
#253=ORIENTED_EDGE('',*,*,#512,.F.);
#254=ORIENTED_EDGE('',*,*,#492,.T.);
#255=ORIENTED_EDGE('',*,*,#513,.F.);
#256=ORIENTED_EDGE('',*,*,#514,.F.);
#257=ORIENTED_EDGE('',*,*,#502,.T.);
#258=ORIENTED_EDGE('',*,*,#424,.T.);
#259=ORIENTED_EDGE('',*,*,#514,.T.);
#260=ORIENTED_EDGE('',*,*,#515,.T.);
#261=ORIENTED_EDGE('',*,*,#506,.F.);
#262=ORIENTED_EDGE('',*,*,#495,.F.);
#263=ORIENTED_EDGE('',*,*,#503,.T.);
#264=ORIENTED_EDGE('',*,*,#434,.T.);
#265=ORIENTED_EDGE('',*,*,#516,.T.);
#266=ORIENTED_EDGE('',*,*,#504,.F.);
#267=ORIENTED_EDGE('',*,*,#500,.F.);
#268=ORIENTED_EDGE('',*,*,#517,.F.);
#269=ORIENTED_EDGE('',*,*,#422,.T.);
#270=ORIENTED_EDGE('',*,*,#482,.T.);
#271=ORIENTED_EDGE('',*,*,#451,.T.);
#272=ORIENTED_EDGE('',*,*,#450,.T.);
#273=ORIENTED_EDGE('',*,*,#518,.T.);
#274=ORIENTED_EDGE('',*,*,#519,.T.);
#275=ORIENTED_EDGE('',*,*,#507,.F.);
#276=ORIENTED_EDGE('',*,*,#515,.F.);
#277=ORIENTED_EDGE('',*,*,#513,.T.);
#278=ORIENTED_EDGE('',*,*,#423,.F.);
#279=ORIENTED_EDGE('',*,*,#517,.T.);
#280=ORIENTED_EDGE('',*,*,#449,.F.);
#281=ORIENTED_EDGE('',*,*,#520,.T.);
#282=ORIENTED_EDGE('',*,*,#521,.T.);
#283=ORIENTED_EDGE('',*,*,#518,.F.);
#284=ORIENTED_EDGE('',*,*,#522,.T.);
#285=ORIENTED_EDGE('',*,*,#521,.F.);
#286=ORIENTED_EDGE('',*,*,#523,.T.);
#287=ORIENTED_EDGE('',*,*,#508,.T.);
#288=ORIENTED_EDGE('',*,*,#519,.F.);
#289=ORIENTED_EDGE('',*,*,#448,.T.);
#290=ORIENTED_EDGE('',*,*,#444,.T.);
#291=ORIENTED_EDGE('',*,*,#441,.F.);
#292=ORIENTED_EDGE('',*,*,#505,.F.);
#293=ORIENTED_EDGE('',*,*,#516,.F.);
#294=ORIENTED_EDGE('',*,*,#433,.F.);
#295=ORIENTED_EDGE('',*,*,#437,.F.);
#296=ORIENTED_EDGE('',*,*,#509,.T.);
#297=ORIENTED_EDGE('',*,*,#523,.F.);
#298=ORIENTED_EDGE('',*,*,#520,.F.);
#299=ORIENTED_EDGE('',*,*,#426,.T.);
#300=ORIENTED_EDGE('',*,*,#524,.F.);
#301=ORIENTED_EDGE('',*,*,#525,.T.);
#302=ORIENTED_EDGE('',*,*,#526,.T.);
#303=ORIENTED_EDGE('',*,*,#427,.T.);
#304=ORIENTED_EDGE('',*,*,#526,.F.);
#305=ORIENTED_EDGE('',*,*,#527,.T.);
#306=ORIENTED_EDGE('',*,*,#528,.T.);
#307=ORIENTED_EDGE('',*,*,#428,.T.);
#308=ORIENTED_EDGE('',*,*,#528,.F.);
#309=ORIENTED_EDGE('',*,*,#529,.T.);
#310=ORIENTED_EDGE('',*,*,#530,.T.);
#311=ORIENTED_EDGE('',*,*,#429,.T.);
#312=ORIENTED_EDGE('',*,*,#530,.F.);
#313=ORIENTED_EDGE('',*,*,#531,.T.);
#314=ORIENTED_EDGE('',*,*,#532,.T.);
#315=ORIENTED_EDGE('',*,*,#430,.T.);
#316=ORIENTED_EDGE('',*,*,#532,.F.);
#317=ORIENTED_EDGE('',*,*,#533,.T.);
#318=ORIENTED_EDGE('',*,*,#534,.T.);
#319=ORIENTED_EDGE('',*,*,#431,.T.);
#320=ORIENTED_EDGE('',*,*,#534,.F.);
#321=ORIENTED_EDGE('',*,*,#535,.T.);
#322=ORIENTED_EDGE('',*,*,#524,.T.);
#323=ORIENTED_EDGE('',*,*,#536,.T.);
#324=ORIENTED_EDGE('',*,*,#522,.F.);
#325=ORIENTED_EDGE('',*,*,#536,.F.);
#326=ORIENTED_EDGE('',*,*,#525,.F.);
#327=ORIENTED_EDGE('',*,*,#535,.F.);
#328=ORIENTED_EDGE('',*,*,#533,.F.);
#329=ORIENTED_EDGE('',*,*,#531,.F.);
#330=ORIENTED_EDGE('',*,*,#529,.F.);
#331=ORIENTED_EDGE('',*,*,#527,.F.);
#332=ORIENTED_EDGE('',*,*,#411,.T.);
#333=ORIENTED_EDGE('',*,*,#537,.T.);
#334=ORIENTED_EDGE('',*,*,#538,.F.);
#335=ORIENTED_EDGE('',*,*,#496,.T.);
#336=ORIENTED_EDGE('',*,*,#539,.T.);
#337=ORIENTED_EDGE('',*,*,#511,.F.);
#338=ORIENTED_EDGE('',*,*,#540,.F.);
#339=ORIENTED_EDGE('',*,*,#541,.T.);
#340=ORIENTED_EDGE('',*,*,#542,.F.);
#341=ORIENTED_EDGE('',*,*,#541,.F.);
#342=ORIENTED_EDGE('',*,*,#543,.T.);
#343=ORIENTED_EDGE('',*,*,#544,.T.);
#344=ORIENTED_EDGE('',*,*,#409,.F.);
#345=ORIENTED_EDGE('',*,*,#538,.T.);
#346=ORIENTED_EDGE('',*,*,#545,.F.);
#347=ORIENTED_EDGE('',*,*,#543,.F.);
#348=ORIENTED_EDGE('',*,*,#540,.T.);
#349=ORIENTED_EDGE('',*,*,#510,.F.);
#350=ORIENTED_EDGE('',*,*,#497,.T.);
#351=ORIENTED_EDGE('',*,*,#493,.F.);
#352=ORIENTED_EDGE('',*,*,#512,.T.);
#353=ORIENTED_EDGE('',*,*,#539,.F.);
#354=ORIENTED_EDGE('',*,*,#542,.T.);
#355=ORIENTED_EDGE('',*,*,#546,.T.);
#356=ORIENTED_EDGE('',*,*,#547,.T.);
#357=ORIENTED_EDGE('',*,*,#484,.F.);
#358=ORIENTED_EDGE('',*,*,#385,.F.);
#359=ORIENTED_EDGE('',*,*,#488,.F.);
#360=ORIENTED_EDGE('',*,*,#399,.F.);
#361=ORIENTED_EDGE('',*,*,#548,.T.);
#362=ORIENTED_EDGE('',*,*,#549,.T.);
#363=ORIENTED_EDGE('',*,*,#489,.F.);
#364=ORIENTED_EDGE('',*,*,#487,.T.);
#365=ORIENTED_EDGE('',*,*,#549,.F.);
#366=ORIENTED_EDGE('',*,*,#550,.T.);
#367=ORIENTED_EDGE('',*,*,#546,.F.);
#368=ORIENTED_EDGE('',*,*,#544,.F.);
#369=ORIENTED_EDGE('',*,*,#545,.T.);
#370=ORIENTED_EDGE('',*,*,#537,.F.);
#371=ORIENTED_EDGE('',*,*,#410,.F.);
#372=ORIENTED_EDGE('',*,*,#398,.F.);
#373=ORIENTED_EDGE('',*,*,#485,.F.);
#374=ORIENTED_EDGE('',*,*,#547,.F.);
#375=ORIENTED_EDGE('',*,*,#550,.F.);
#376=ORIENTED_EDGE('',*,*,#548,.F.);
#377=ORIENTED_EDGE('',*,*,#390,.F.);
#378=ORIENTED_EDGE('',*,*,#464,.F.);
#379=ORIENTED_EDGE('',*,*,#551,.F.);
#380=ORIENTED_EDGE('',*,*,#471,.F.);
#381=ORIENTED_EDGE('',*,*,#404,.F.);
#382=ORIENTED_EDGE('',*,*,#472,.F.);
#383=ORIENTED_EDGE('',*,*,#551,.T.);
#384=ORIENTED_EDGE('',*,*,#469,.F.);
#385=EDGE_CURVE('',#552,#553,#661,.T.);
#386=EDGE_CURVE('',#554,#553,#29,.F.);
#387=EDGE_CURVE('',#554,#555,#662,.T.);
#388=EDGE_CURVE('',#555,#552,#663,.T.);
#389=EDGE_CURVE('',#556,#557,#664,.T.);
#390=EDGE_CURVE('',#556,#558,#665,.F.);
#391=EDGE_CURVE('',#559,#558,#666,.T.);
#392=EDGE_CURVE('',#559,#560,#667,.T.);
#393=EDGE_CURVE('',#560,#561,#668,.T.);
#394=EDGE_CURVE('',#562,#561,#669,.T.);
#395=EDGE_CURVE('',#563,#562,#670,.T.);
#396=EDGE_CURVE('',#564,#563,#671,.T.);
#397=EDGE_CURVE('',#565,#564,#30,.F.);
#398=EDGE_CURVE('',#565,#566,#672,.F.);
#399=EDGE_CURVE('',#566,#567,#673,.T.);
#400=EDGE_CURVE('',#567,#568,#674,.T.);
#401=EDGE_CURVE('',#568,#569,#31,.F.);
#402=EDGE_CURVE('',#569,#557,#675,.T.);
#403=EDGE_CURVE('',#570,#571,#676,.T.);
#404=EDGE_CURVE('',#571,#572,#677,.T.);
#405=EDGE_CURVE('',#573,#572,#678,.T.);
#406=EDGE_CURVE('',#574,#573,#679,.T.);
#407=EDGE_CURVE('',#575,#574,#32,.F.);
#408=EDGE_CURVE('',#576,#575,#680,.T.);
#409=EDGE_CURVE('',#576,#577,#681,.T.);
#410=EDGE_CURVE('',#577,#578,#682,.T.);
#411=EDGE_CURVE('',#579,#578,#683,.T.);
#412=EDGE_CURVE('',#580,#579,#684,.T.);
#413=EDGE_CURVE('',#580,#581,#685,.T.);
#414=EDGE_CURVE('',#582,#581,#686,.T.);
#415=EDGE_CURVE('',#583,#582,#687,.T.);
#416=EDGE_CURVE('',#583,#584,#33,.F.);
#417=EDGE_CURVE('',#584,#585,#688,.T.);
#418=EDGE_CURVE('',#585,#586,#689,.T.);
#419=EDGE_CURVE('',#587,#586,#690,.T.);
#420=EDGE_CURVE('',#588,#587,#691,.T.);
#421=EDGE_CURVE('',#588,#570,#692,.T.);
#422=EDGE_CURVE('',#589,#590,#693,.F.);
#423=EDGE_CURVE('',#589,#591,#34,.F.);
#424=EDGE_CURVE('',#592,#591,#694,.T.);
#425=EDGE_CURVE('',#590,#592,#35,.T.);
#426=EDGE_CURVE('',#593,#594,#16,.F.);
#427=EDGE_CURVE('',#595,#593,#36,.F.);
#428=EDGE_CURVE('',#596,#595,#17,.F.);
#429=EDGE_CURVE('',#597,#596,#18,.F.);
#430=EDGE_CURVE('',#598,#597,#37,.F.);
#431=EDGE_CURVE('',#594,#598,#19,.F.);
#432=EDGE_CURVE('',#599,#600,#695,.T.);
#433=EDGE_CURVE('',#600,#601,#696,.T.);
#434=EDGE_CURVE('',#602,#601,#697,.T.);
#435=EDGE_CURVE('',#581,#602,#698,.T.);
#436=EDGE_CURVE('',#580,#599,#699,.T.);
#437=EDGE_CURVE('',#603,#600,#700,.T.);
#438=EDGE_CURVE('',#604,#599,#701,.T.);
#439=EDGE_CURVE('',#604,#603,#702,.T.);
#440=EDGE_CURVE('',#605,#606,#703,.F.);
#441=EDGE_CURVE('',#605,#607,#38,.F.);
#442=EDGE_CURVE('',#608,#607,#704,.T.);
#443=EDGE_CURVE('',#608,#606,#39,.F.);
#444=EDGE_CURVE('',#609,#607,#705,.T.);
#445=EDGE_CURVE('',#610,#609,#706,.T.);
#446=EDGE_CURVE('',#610,#555,#707,.T.);
#447=EDGE_CURVE('',#554,#608,#708,.T.);
#448=EDGE_CURVE('',#611,#609,#709,.T.);
#449=EDGE_CURVE('',#611,#612,#710,.T.);
#450=EDGE_CURVE('',#613,#612,#711,.T.);
#451=EDGE_CURVE('',#614,#613,#712,.T.);
#452=EDGE_CURVE('',#614,#615,#40,.F.);
#453=EDGE_CURVE('',#615,#610,#713,.T.);
#454=EDGE_CURVE('',#616,#564,#714,.F.);
#455=EDGE_CURVE('',#617,#563,#715,.T.);
#456=EDGE_CURVE('',#616,#617,#716,.T.);
#457=EDGE_CURVE('',#562,#618,#717,.T.);
#458=EDGE_CURVE('',#561,#619,#718,.T.);
#459=EDGE_CURVE('',#619,#618,#719,.T.);
#460=EDGE_CURVE('',#559,#620,#720,.T.);
#461=EDGE_CURVE('',#621,#620,#721,.T.);
#462=EDGE_CURVE('',#560,#621,#722,.T.);
#463=EDGE_CURVE('',#622,#623,#723,.T.);
#464=EDGE_CURVE('',#623,#556,#724,.T.);
#465=EDGE_CURVE('',#622,#557,#725,.T.);
#466=EDGE_CURVE('',#624,#625,#726,.T.);
#467=EDGE_CURVE('',#624,#616,#41,.T.);
#468=EDGE_CURVE('',#625,#617,#42,.T.);
#469=EDGE_CURVE('',#572,#623,#727,.T.);
#470=EDGE_CURVE('',#622,#573,#728,.T.);
#471=EDGE_CURVE('',#558,#626,#729,.T.);
#472=EDGE_CURVE('',#626,#571,#730,.T.);
#473=EDGE_CURVE('',#570,#620,#731,.T.);
#474=EDGE_CURVE('',#588,#621,#732,.T.);
#475=EDGE_CURVE('',#587,#619,#733,.T.);
#476=EDGE_CURVE('',#586,#618,#734,.T.);
#477=EDGE_CURVE('',#585,#625,#735,.T.);
#478=EDGE_CURVE('',#584,#624,#736,.F.);
#479=EDGE_CURVE('',#627,#574,#737,.F.);
#480=EDGE_CURVE('',#569,#627,#738,.T.);
#481=EDGE_CURVE('',#615,#568,#739,.F.);
#482=EDGE_CURVE('',#590,#614,#740,.F.);
#483=EDGE_CURVE('',#590,#627,#43,.F.);
#484=EDGE_CURVE('',#553,#628,#741,.F.);
#485=EDGE_CURVE('',#628,#565,#20,.T.);
#486=EDGE_CURVE('',#608,#616,#44,.T.);
#487=EDGE_CURVE('',#629,#630,#742,.T.);
#488=EDGE_CURVE('',#629,#552,#743,.T.);
#489=EDGE_CURVE('',#567,#630,#744,.T.);
#490=EDGE_CURVE('',#606,#624,#45,.T.);
#491=EDGE_CURVE('',#592,#627,#46,.T.);
#492=EDGE_CURVE('',#631,#632,#745,.T.);
#493=EDGE_CURVE('',#631,#576,#746,.T.);
#494=EDGE_CURVE('',#575,#633,#747,.T.);
#495=EDGE_CURVE('',#633,#632,#748,.T.);
#496=EDGE_CURVE('',#634,#579,#749,.T.);
#497=EDGE_CURVE('',#635,#634,#750,.T.);
#498=EDGE_CURVE('',#635,#604,#751,.T.);
#499=EDGE_CURVE('',#582,#636,#752,.T.);
#500=EDGE_CURVE('',#602,#636,#753,.T.);
#501=EDGE_CURVE('',#606,#583,#754,.T.);
#502=EDGE_CURVE('',#637,#592,#755,.T.);
#503=EDGE_CURVE('',#633,#637,#47,.T.);
#504=EDGE_CURVE('',#636,#638,#756,.T.);
#505=EDGE_CURVE('',#638,#605,#757,.T.);
#506=EDGE_CURVE('',#632,#639,#758,.T.);
#507=EDGE_CURVE('',#639,#640,#759,.T.);
#508=EDGE_CURVE('',#641,#640,#760,.T.);
#509=EDGE_CURVE('',#603,#641,#761,.T.);
#510=EDGE_CURVE('',#635,#642,#762,.T.);
#511=EDGE_CURVE('',#642,#643,#763,.T.);
#512=EDGE_CURVE('',#631,#643,#764,.T.);
#513=EDGE_CURVE('',#644,#591,#765,.T.);
#514=EDGE_CURVE('',#637,#644,#766,.T.);
#515=EDGE_CURVE('',#644,#639,#767,.T.);
#516=EDGE_CURVE('',#601,#638,#768,.T.);
#517=EDGE_CURVE('',#589,#613,#769,.T.);
#518=EDGE_CURVE('',#612,#645,#770,.T.);
#519=EDGE_CURVE('',#645,#640,#48,.F.);
#520=EDGE_CURVE('',#611,#646,#771,.T.);
#521=EDGE_CURVE('',#646,#645,#772,.T.);
#522=EDGE_CURVE('',#647,#647,#12,.T.);
#523=EDGE_CURVE('',#646,#641,#49,.T.);
#524=EDGE_CURVE('',#648,#594,#773,.T.);
#525=EDGE_CURVE('',#648,#649,#774,.T.);
#526=EDGE_CURVE('',#649,#593,#775,.T.);
#527=EDGE_CURVE('',#649,#650,#776,.T.);
#528=EDGE_CURVE('',#650,#595,#777,.T.);
#529=EDGE_CURVE('',#650,#651,#778,.T.);
#530=EDGE_CURVE('',#651,#596,#779,.T.);
#531=EDGE_CURVE('',#651,#652,#780,.T.);
#532=EDGE_CURVE('',#652,#597,#781,.T.);
#533=EDGE_CURVE('',#652,#653,#782,.T.);
#534=EDGE_CURVE('',#653,#598,#783,.T.);
#535=EDGE_CURVE('',#653,#648,#784,.T.);
#536=EDGE_CURVE('',#654,#654,#50,.F.);
#537=EDGE_CURVE('',#578,#655,#785,.F.);
#538=EDGE_CURVE('',#634,#655,#786,.T.);
#539=EDGE_CURVE('',#656,#643,#787,.T.);
#540=EDGE_CURVE('',#657,#642,#788,.T.);
#541=EDGE_CURVE('',#657,#656,#789,.T.);
#542=EDGE_CURVE('',#656,#576,#790,.T.);
#543=EDGE_CURVE('',#657,#658,#791,.T.);
#544=EDGE_CURVE('',#658,#577,#792,.F.);
#545=EDGE_CURVE('',#658,#655,#793,.T.);
#546=EDGE_CURVE('',#629,#659,#794,.T.);
#547=EDGE_CURVE('',#659,#628,#795,.F.);
#548=EDGE_CURVE('',#566,#660,#796,.F.);
#549=EDGE_CURVE('',#660,#630,#797,.T.);
#550=EDGE_CURVE('',#660,#659,#798,.T.);
#551=EDGE_CURVE('',#626,#623,#799,.T.);
#552=VERTEX_POINT('',#1608);
#553=VERTEX_POINT('',#1609);
#554=VERTEX_POINT('',#1611);
#555=VERTEX_POINT('',#1613);
#556=VERTEX_POINT('',#1617);
#557=VERTEX_POINT('',#1618);
#558=VERTEX_POINT('',#1620);
#559=VERTEX_POINT('',#1622);
#560=VERTEX_POINT('',#1624);
#561=VERTEX_POINT('',#1626);
#562=VERTEX_POINT('',#1628);
#563=VERTEX_POINT('',#1630);
#564=VERTEX_POINT('',#1632);
#565=VERTEX_POINT('',#1634);
#566=VERTEX_POINT('',#1636);
#567=VERTEX_POINT('',#1638);
#568=VERTEX_POINT('',#1640);
#569=VERTEX_POINT('',#1642);
#570=VERTEX_POINT('',#1646);
#571=VERTEX_POINT('',#1647);
#572=VERTEX_POINT('',#1649);
#573=VERTEX_POINT('',#1651);
#574=VERTEX_POINT('',#1653);
#575=VERTEX_POINT('',#1655);
#576=VERTEX_POINT('',#1657);
#577=VERTEX_POINT('',#1659);
#578=VERTEX_POINT('',#1661);
#579=VERTEX_POINT('',#1663);
#580=VERTEX_POINT('',#1665);
#581=VERTEX_POINT('',#1667);
#582=VERTEX_POINT('',#1669);
#583=VERTEX_POINT('',#1671);
#584=VERTEX_POINT('',#1673);
#585=VERTEX_POINT('',#1675);
#586=VERTEX_POINT('',#1677);
#587=VERTEX_POINT('',#1679);
#588=VERTEX_POINT('',#1681);
#589=VERTEX_POINT('',#1685);
#590=VERTEX_POINT('',#1686);
#591=VERTEX_POINT('',#1688);
#592=VERTEX_POINT('',#1690);
#593=VERTEX_POINT('',#1693);
#594=VERTEX_POINT('',#1694);
#595=VERTEX_POINT('',#1696);
#596=VERTEX_POINT('',#1698);
#597=VERTEX_POINT('',#1700);
#598=VERTEX_POINT('',#1702);
#599=VERTEX_POINT('',#1706);
#600=VERTEX_POINT('',#1707);
#601=VERTEX_POINT('',#1709);
#602=VERTEX_POINT('',#1711);
#603=VERTEX_POINT('',#1716);
#604=VERTEX_POINT('',#1718);
#605=VERTEX_POINT('',#1722);
#606=VERTEX_POINT('',#1723);
#607=VERTEX_POINT('',#1725);
#608=VERTEX_POINT('',#1727);
#609=VERTEX_POINT('',#1731);
#610=VERTEX_POINT('',#1733);
#611=VERTEX_POINT('',#1738);
#612=VERTEX_POINT('',#1740);
#613=VERTEX_POINT('',#1742);
#614=VERTEX_POINT('',#1744);
#615=VERTEX_POINT('',#1746);
#616=VERTEX_POINT('',#1750);
#617=VERTEX_POINT('',#1752);
#618=VERTEX_POINT('',#1756);
#619=VERTEX_POINT('',#1758);
#620=VERTEX_POINT('',#1762);
#621=VERTEX_POINT('',#1764);
#622=VERTEX_POINT('',#1768);
#623=VERTEX_POINT('',#1769);
#624=VERTEX_POINT('',#1774);
#625=VERTEX_POINT('',#1775);
#626=VERTEX_POINT('',#1783);
#627=VERTEX_POINT('',#1798);
#628=VERTEX_POINT('',#1806);
#629=VERTEX_POINT('',#1811);
#630=VERTEX_POINT('',#1812);
#631=VERTEX_POINT('',#1821);
#632=VERTEX_POINT('',#1822);
#633=VERTEX_POINT('',#1825);
#634=VERTEX_POINT('',#1829);
#635=VERTEX_POINT('',#1831);
#636=VERTEX_POINT('',#1835);
#637=VERTEX_POINT('',#1841);
#638=VERTEX_POINT('',#1845);
#639=VERTEX_POINT('',#1849);
#640=VERTEX_POINT('',#1851);
#641=VERTEX_POINT('',#1853);
#642=VERTEX_POINT('',#1856);
#643=VERTEX_POINT('',#1858);
#644=VERTEX_POINT('',#1862);
#645=VERTEX_POINT('',#1872);
#646=VERTEX_POINT('',#1876);
#647=VERTEX_POINT('',#1890);
#648=VERTEX_POINT('',#1895);
#649=VERTEX_POINT('',#1897);
#650=VERTEX_POINT('',#1901);
#651=VERTEX_POINT('',#1905);
#652=VERTEX_POINT('',#1909);
#653=VERTEX_POINT('',#1913);
#654=VERTEX_POINT('',#1919);
#655=VERTEX_POINT('',#1923);
#656=VERTEX_POINT('',#1927);
#657=VERTEX_POINT('',#1929);
#658=VERTEX_POINT('',#1934);
#659=VERTEX_POINT('',#1941);
#660=VERTEX_POINT('',#1945);
#661=LINE('',#1607,#800);
#662=LINE('',#1612,#801);
#663=LINE('',#1614,#802);
#664=LINE('',#1616,#803);
#665=LINE('',#1619,#804);
#666=LINE('',#1621,#805);
#667=LINE('',#1623,#806);
#668=LINE('',#1625,#807);
#669=LINE('',#1627,#808);
#670=LINE('',#1629,#809);
#671=LINE('',#1631,#810);
#672=LINE('',#1635,#811);
#673=LINE('',#1637,#812);
#674=LINE('',#1639,#813);
#675=LINE('',#1643,#814);
#676=LINE('',#1645,#815);
#677=LINE('',#1648,#816);
#678=LINE('',#1650,#817);
#679=LINE('',#1652,#818);
#680=LINE('',#1656,#819);
#681=LINE('',#1658,#820);
#682=LINE('',#1660,#821);
#683=LINE('',#1662,#822);
#684=LINE('',#1664,#823);
#685=LINE('',#1666,#824);
#686=LINE('',#1668,#825);
#687=LINE('',#1670,#826);
#688=LINE('',#1674,#827);
#689=LINE('',#1676,#828);
#690=LINE('',#1678,#829);
#691=LINE('',#1680,#830);
#692=LINE('',#1682,#831);
#693=LINE('',#1684,#832);
#694=LINE('',#1689,#833);
#695=LINE('',#1705,#834);
#696=LINE('',#1708,#835);
#697=LINE('',#1710,#836);
#698=LINE('',#1712,#837);
#699=LINE('',#1713,#838);
#700=LINE('',#1715,#839);
#701=LINE('',#1717,#840);
#702=LINE('',#1719,#841);
#703=LINE('',#1721,#842);
#704=LINE('',#1726,#843);
#705=LINE('',#1730,#844);
#706=LINE('',#1732,#845);
#707=LINE('',#1734,#846);
#708=LINE('',#1735,#847);
#709=LINE('',#1737,#848);
#710=LINE('',#1739,#849);
#711=LINE('',#1741,#850);
#712=LINE('',#1743,#851);
#713=LINE('',#1747,#852);
#714=LINE('',#1749,#853);
#715=LINE('',#1751,#854);
#716=LINE('',#1753,#855);
#717=LINE('',#1755,#856);
#718=LINE('',#1757,#857);
#719=LINE('',#1759,#858);
#720=LINE('',#1761,#859);
#721=LINE('',#1763,#860);
#722=LINE('',#1765,#861);
#723=LINE('',#1767,#862);
#724=LINE('',#1770,#863);
#725=LINE('',#1771,#864);
#726=LINE('',#1773,#865);
#727=LINE('',#1779,#866);
#728=LINE('',#1780,#867);
#729=LINE('',#1782,#868);
#730=LINE('',#1784,#869);
#731=LINE('',#1785,#870);
#732=LINE('',#1787,#871);
#733=LINE('',#1789,#872);
#734=LINE('',#1791,#873);
#735=LINE('',#1793,#874);
#736=LINE('',#1795,#875);
#737=LINE('',#1797,#876);
#738=LINE('',#1799,#877);
#739=LINE('',#1801,#878);
#740=LINE('',#1802,#879);
#741=LINE('',#1805,#880);
#742=LINE('',#1810,#881);
#743=LINE('',#1813,#882);
#744=LINE('',#1814,#883);
#745=LINE('',#1820,#884);
#746=LINE('',#1823,#885);
#747=LINE('',#1824,#886);
#748=LINE('',#1826,#887);
#749=LINE('',#1828,#888);
#750=LINE('',#1830,#889);
#751=LINE('',#1832,#890);
#752=LINE('',#1834,#891);
#753=LINE('',#1836,#892);
#754=LINE('',#1838,#893);
#755=LINE('',#1840,#894);
#756=LINE('',#1844,#895);
#757=LINE('',#1846,#896);
#758=LINE('',#1848,#897);
#759=LINE('',#1850,#898);
#760=LINE('',#1852,#899);
#761=LINE('',#1854,#900);
#762=LINE('',#1855,#901);
#763=LINE('',#1857,#902);
#764=LINE('',#1859,#903);
#765=LINE('',#1861,#904);
#766=LINE('',#1863,#905);
#767=LINE('',#1865,#906);
#768=LINE('',#1867,#907);
#769=LINE('',#1869,#908);
#770=LINE('',#1871,#909);
#771=LINE('',#1875,#910);
#772=LINE('',#1877,#911);
#773=LINE('',#1894,#912);
#774=LINE('',#1896,#913);
#775=LINE('',#1898,#914);
#776=LINE('',#1900,#915);
#777=LINE('',#1902,#916);
#778=LINE('',#1904,#917);
#779=LINE('',#1906,#918);
#780=LINE('',#1908,#919);
#781=LINE('',#1910,#920);
#782=LINE('',#1912,#921);
#783=LINE('',#1914,#922);
#784=LINE('',#1916,#923);
#785=LINE('',#1922,#924);
#786=LINE('',#1924,#925);
#787=LINE('',#1926,#926);
#788=LINE('',#1928,#927);
#789=LINE('',#1930,#928);
#790=LINE('',#1932,#929);
#791=LINE('',#1933,#930);
#792=LINE('',#1935,#931);
#793=LINE('',#1937,#932);
#794=LINE('',#1940,#933);
#795=LINE('',#1942,#934);
#796=LINE('',#1944,#935);
#797=LINE('',#1946,#936);
#798=LINE('',#1948,#937);
#799=LINE('',#1952,#938);
#800=VECTOR('',#1290,1.);
#801=VECTOR('',#1293,1.);
#802=VECTOR('',#1294,1.);
#803=VECTOR('',#1297,1.);
#804=VECTOR('',#1298,1.);
#805=VECTOR('',#1299,1.);
#806=VECTOR('',#1300,1.);
#807=VECTOR('',#1301,1.);
#808=VECTOR('',#1302,1.);
#809=VECTOR('',#1303,1.);
#810=VECTOR('',#1304,1.);
#811=VECTOR('',#1307,1.);
#812=VECTOR('',#1308,1.);
#813=VECTOR('',#1309,1.);
#814=VECTOR('',#1312,1.);
#815=VECTOR('',#1315,1.);
#816=VECTOR('',#1316,1.);
#817=VECTOR('',#1317,1.);
#818=VECTOR('',#1318,1.);
#819=VECTOR('',#1321,1.);
#820=VECTOR('',#1322,1.);
#821=VECTOR('',#1323,1.);
#822=VECTOR('',#1324,1.);
#823=VECTOR('',#1325,1.);
#824=VECTOR('',#1326,1.);
#825=VECTOR('',#1327,1.);
#826=VECTOR('',#1328,1.);
#827=VECTOR('',#1331,1.);
#828=VECTOR('',#1332,1.);
#829=VECTOR('',#1333,1.);
#830=VECTOR('',#1334,1.);
#831=VECTOR('',#1335,1.);
#832=VECTOR('',#1338,1.);
#833=VECTOR('',#1341,1.);
#834=VECTOR('',#1358,1.);
#835=VECTOR('',#1359,1.);
#836=VECTOR('',#1360,1.);
#837=VECTOR('',#1361,1.);
#838=VECTOR('',#1362,1.);
#839=VECTOR('',#1365,1.);
#840=VECTOR('',#1366,1.);
#841=VECTOR('',#1367,1.);
#842=VECTOR('',#1370,1.);
#843=VECTOR('',#1373,1.);
#844=VECTOR('',#1378,1.);
#845=VECTOR('',#1379,1.);
#846=VECTOR('',#1380,1.);
#847=VECTOR('',#1381,1.);
#848=VECTOR('',#1384,1.);
#849=VECTOR('',#1385,1.);
#850=VECTOR('',#1386,1.);
#851=VECTOR('',#1387,1.);
#852=VECTOR('',#1390,1.);
#853=VECTOR('',#1393,1.);
#854=VECTOR('',#1394,1.);
#855=VECTOR('',#1395,1.);
#856=VECTOR('',#1398,1.);
#857=VECTOR('',#1399,1.);
#858=VECTOR('',#1400,1.);
#859=VECTOR('',#1403,1.);
#860=VECTOR('',#1404,1.);
#861=VECTOR('',#1405,1.);
#862=VECTOR('',#1408,1.);
#863=VECTOR('',#1409,1.);
#864=VECTOR('',#1410,1.);
#865=VECTOR('',#1413,1.);
#866=VECTOR('',#1420,1.);
#867=VECTOR('',#1421,1.);
#868=VECTOR('',#1424,1.);
#869=VECTOR('',#1425,1.);
#870=VECTOR('',#1426,1.);
#871=VECTOR('',#1429,1.);
#872=VECTOR('',#1432,1.);
#873=VECTOR('',#1435,1.);
#874=VECTOR('',#1438,1.);
#875=VECTOR('',#1441,1.);
#876=VECTOR('',#1444,1.);
#877=VECTOR('',#1445,1.);
#878=VECTOR('',#1448,1.);
#879=VECTOR('',#1449,1.);
#880=VECTOR('',#1454,1.);
#881=VECTOR('',#1461,1.);
#882=VECTOR('',#1462,1.);
#883=VECTOR('',#1463,1.);
#884=VECTOR('',#1474,1.);
#885=VECTOR('',#1475,1.);
#886=VECTOR('',#1476,1.);
#887=VECTOR('',#1477,1.);
#888=VECTOR('',#1480,1.);
#889=VECTOR('',#1481,1.);
#890=VECTOR('',#1482,1.);
#891=VECTOR('',#1485,1.);
#892=VECTOR('',#1486,1.);
#893=VECTOR('',#1489,1.);
#894=VECTOR('',#1492,1.);
#895=VECTOR('',#1497,1.);
#896=VECTOR('',#1498,1.);
#897=VECTOR('',#1501,1.);
#898=VECTOR('',#1502,1.);
#899=VECTOR('',#1503,1.);
#900=VECTOR('',#1504,1.);
#901=VECTOR('',#1505,1.);
#902=VECTOR('',#1506,1.);
#903=VECTOR('',#1507,1.);
#904=VECTOR('',#1510,1.);
#905=VECTOR('',#1511,1.);
#906=VECTOR('',#1514,1.);
#907=VECTOR('',#1517,1.);
#908=VECTOR('',#1520,1.);
#909=VECTOR('',#1523,1.);
#910=VECTOR('',#1528,1.);
#911=VECTOR('',#1529,1.);
#912=VECTOR('',#1538,1.);
#913=VECTOR('',#1539,1.);
#914=VECTOR('',#1540,1.);
#915=VECTOR('',#1543,1.);
#916=VECTOR('',#1544,1.);
#917=VECTOR('',#1547,1.);
#918=VECTOR('',#1548,1.);
#919=VECTOR('',#1551,1.);
#920=VECTOR('',#1552,1.);
#921=VECTOR('',#1555,1.);
#922=VECTOR('',#1556,1.);
#923=VECTOR('',#1559,1.);
#924=VECTOR('',#1568,1.);
#925=VECTOR('',#1569,1.);
#926=VECTOR('',#1572,1.);
#927=VECTOR('',#1573,1.);
#928=VECTOR('',#1574,1.);
#929=VECTOR('',#1577,1.);
#930=VECTOR('',#1578,1.);
#931=VECTOR('',#1579,1.);
#932=VECTOR('',#1582,1.);
#933=VECTOR('',#1587,1.);
#934=VECTOR('',#1588,1.);
#935=VECTOR('',#1591,1.);
#936=VECTOR('',#1592,1.);
#937=VECTOR('',#1595,1.);
#938=VECTOR('',#1602,1.);
#939=EDGE_LOOP('',(#51,#52,#53,#54));
#940=EDGE_LOOP('',(#55,#56,#57,#58,#59,#60,#61,#62,#63,#64,#65,#66,#67,
#68));
#941=EDGE_LOOP('',(#69,#70,#71,#72,#73,#74,#75,#76,#77,#78,#79,#80,#81,
#82,#83,#84,#85,#86,#87));
#942=EDGE_LOOP('',(#88,#89,#90,#91));
#943=EDGE_LOOP('',(#92,#93,#94,#95,#96,#97));
#944=EDGE_LOOP('',(#98,#99,#100,#101,#102,#103));
#945=EDGE_LOOP('',(#104,#105,#106,#107));
#946=EDGE_LOOP('',(#108,#109,#110,#111));
#947=EDGE_LOOP('',(#112,#113,#114,#115,#116,#117));
#948=EDGE_LOOP('',(#118,#119,#120,#121,#122,#123,#124));
#949=EDGE_LOOP('',(#125,#126,#127,#128));
#950=EDGE_LOOP('',(#129,#130,#131,#132));
#951=EDGE_LOOP('',(#133,#134,#135,#136));
#952=EDGE_LOOP('',(#137,#138,#139,#140));
#953=EDGE_LOOP('',(#141,#142,#143,#144));
#954=EDGE_LOOP('',(#145,#146,#147,#148));
#955=EDGE_LOOP('',(#149,#150,#151,#152,#153,#154));
#956=EDGE_LOOP('',(#155,#156,#157,#158));
#957=EDGE_LOOP('',(#159,#160,#161,#162,#163,#164));
#958=EDGE_LOOP('',(#165,#166,#167,#168));
#959=EDGE_LOOP('',(#169,#170,#171,#172,#173,#174,#175));
#960=EDGE_LOOP('',(#176,#177,#178,#179));
#961=EDGE_LOOP('',(#180,#181,#182,#183,#184,#185));
#962=EDGE_LOOP('',(#186,#187,#188,#189,#190,#191));
#963=EDGE_LOOP('',(#192,#193,#194,#195,#196,#197,#198));
#964=EDGE_LOOP('',(#199,#200,#201,#202,#203,#204,#205,#206));
#965=EDGE_LOOP('',(#207,#208,#209,#210));
#966=EDGE_LOOP('',(#211,#212,#213));
#967=EDGE_LOOP('',(#214,#215,#216,#217,#218));
#968=EDGE_LOOP('',(#219,#220,#221,#222,#223,#224));
#969=EDGE_LOOP('',(#225,#226,#227,#228));
#970=EDGE_LOOP('',(#229,#230,#231,#232));
#971=EDGE_LOOP('',(#233,#234,#235,#236,#237,#238));
#972=EDGE_LOOP('',(#239,#240,#241,#242,#243,#244));
#973=EDGE_LOOP('',(#245,#246,#247,#248,#249,#250,#251,#252,#253,#254));
#974=EDGE_LOOP('',(#255,#256,#257,#258));
#975=EDGE_LOOP('',(#259,#260,#261,#262,#263));
#976=EDGE_LOOP('',(#264,#265,#266,#267));
#977=EDGE_LOOP('',(#268,#269,#270,#271));
#978=EDGE_LOOP('',(#272,#273,#274,#275,#276,#277,#278,#279));
#979=EDGE_LOOP('',(#280,#281,#282,#283));
#980=EDGE_LOOP('',(#284));
#981=EDGE_LOOP('',(#285,#286,#287,#288));
#982=EDGE_LOOP('',(#289,#290,#291,#292,#293,#294,#295,#296,#297,#298));
#983=EDGE_LOOP('',(#299,#300,#301,#302));
#984=EDGE_LOOP('',(#303,#304,#305,#306));
#985=EDGE_LOOP('',(#307,#308,#309,#310));
#986=EDGE_LOOP('',(#311,#312,#313,#314));
#987=EDGE_LOOP('',(#315,#316,#317,#318));
#988=EDGE_LOOP('',(#319,#320,#321,#322));
#989=EDGE_LOOP('',(#323));
#990=EDGE_LOOP('',(#324));
#991=EDGE_LOOP('',(#325));
#992=EDGE_LOOP('',(#326,#327,#328,#329,#330,#331));
#993=EDGE_LOOP('',(#332,#333,#334,#335));
#994=EDGE_LOOP('',(#336,#337,#338,#339));
#995=EDGE_LOOP('',(#340,#341,#342,#343,#344));
#996=EDGE_LOOP('',(#345,#346,#347,#348,#349,#350));
#997=EDGE_LOOP('',(#351,#352,#353,#354));
#998=EDGE_LOOP('',(#355,#356,#357,#358,#359));
#999=EDGE_LOOP('',(#360,#361,#362,#363));
#1000=EDGE_LOOP('',(#364,#365,#366,#367));
#1001=EDGE_LOOP('',(#368,#369,#370,#371));
#1002=EDGE_LOOP('',(#372,#373,#374,#375,#376));
#1003=EDGE_LOOP('',(#377,#378,#379,#380));
#1004=EDGE_LOOP('',(#381,#382,#383,#384));
#1005=FACE_BOUND('',#939,.T.);
#1006=FACE_BOUND('',#940,.T.);
#1007=FACE_BOUND('',#941,.T.);
#1008=FACE_BOUND('',#942,.T.);
#1009=FACE_BOUND('',#943,.T.);
#1010=FACE_BOUND('',#944,.T.);
#1011=FACE_BOUND('',#945,.T.);
#1012=FACE_BOUND('',#946,.T.);
#1013=FACE_BOUND('',#947,.T.);
#1014=FACE_BOUND('',#948,.T.);
#1015=FACE_BOUND('',#949,.T.);
#1016=FACE_BOUND('',#950,.T.);
#1017=FACE_BOUND('',#951,.T.);
#1018=FACE_BOUND('',#952,.T.);
#1019=FACE_BOUND('',#953,.T.);
#1020=FACE_BOUND('',#954,.T.);
#1021=FACE_BOUND('',#955,.T.);
#1022=FACE_BOUND('',#956,.T.);
#1023=FACE_BOUND('',#957,.T.);
#1024=FACE_BOUND('',#958,.T.);
#1025=FACE_BOUND('',#959,.T.);
#1026=FACE_BOUND('',#960,.T.);
#1027=FACE_BOUND('',#961,.T.);
#1028=FACE_BOUND('',#962,.T.);
#1029=FACE_BOUND('',#963,.T.);
#1030=FACE_BOUND('',#964,.T.);
#1031=FACE_BOUND('',#965,.T.);
#1032=FACE_BOUND('',#966,.T.);
#1033=FACE_BOUND('',#967,.T.);
#1034=FACE_BOUND('',#968,.T.);
#1035=FACE_BOUND('',#969,.T.);
#1036=FACE_BOUND('',#970,.T.);
#1037=FACE_BOUND('',#971,.T.);
#1038=FACE_BOUND('',#972,.T.);
#1039=FACE_BOUND('',#973,.T.);
#1040=FACE_BOUND('',#974,.T.);
#1041=FACE_BOUND('',#975,.T.);
#1042=FACE_BOUND('',#976,.T.);
#1043=FACE_BOUND('',#977,.T.);
#1044=FACE_BOUND('',#978,.T.);
#1045=FACE_BOUND('',#979,.T.);
#1046=FACE_BOUND('',#980,.T.);
#1047=FACE_BOUND('',#981,.T.);
#1048=FACE_BOUND('',#982,.T.);
#1049=FACE_BOUND('',#983,.T.);
#1050=FACE_BOUND('',#984,.T.);
#1051=FACE_BOUND('',#985,.T.);
#1052=FACE_BOUND('',#986,.T.);
#1053=FACE_BOUND('',#987,.T.);
#1054=FACE_BOUND('',#988,.T.);
#1055=FACE_BOUND('',#989,.T.);
#1056=FACE_BOUND('',#990,.T.);
#1057=FACE_BOUND('',#991,.T.);
#1058=FACE_BOUND('',#992,.T.);
#1059=FACE_BOUND('',#993,.T.);
#1060=FACE_BOUND('',#994,.T.);
#1061=FACE_BOUND('',#995,.T.);
#1062=FACE_BOUND('',#996,.T.);
#1063=FACE_BOUND('',#997,.T.);
#1064=FACE_BOUND('',#998,.T.);
#1065=FACE_BOUND('',#999,.T.);
#1066=FACE_BOUND('',#1000,.T.);
#1067=FACE_BOUND('',#1001,.T.);
#1068=FACE_BOUND('',#1002,.T.);
#1069=FACE_BOUND('',#1003,.T.);
#1070=FACE_BOUND('',#1004,.T.);
#1071=PLANE('',#1197);
#1072=PLANE('',#1199);
#1073=PLANE('',#1202);
#1074=PLANE('',#1214);
#1075=PLANE('',#1215);
#1076=PLANE('',#1219);
#1077=PLANE('',#1220);
#1078=PLANE('',#1222);
#1079=PLANE('',#1223);
#1080=PLANE('',#1224);
#1081=PLANE('',#1225);
#1082=PLANE('',#1229);
#1083=PLANE('',#1230);
#1084=PLANE('',#1231);
#1085=PLANE('',#1232);
#1086=PLANE('',#1233);
#1087=PLANE('',#1234);
#1088=PLANE('',#1235);
#1089=PLANE('',#1236);
#1090=PLANE('',#1242);
#1091=PLANE('',#1247);
#1092=PLANE('',#1248);
#1093=PLANE('',#1249);
#1094=PLANE('',#1253);
#1095=PLANE('',#1254);
#1096=PLANE('',#1255);
#1097=PLANE('',#1256);
#1098=PLANE('',#1257);
#1099=PLANE('',#1258);
#1100=PLANE('',#1259);
#1101=PLANE('',#1261);
#1102=PLANE('',#1264);
#1103=PLANE('',#1265);
#1104=PLANE('',#1266);
#1105=PLANE('',#1267);
#1106=PLANE('',#1268);
#1107=PLANE('',#1269);
#1108=PLANE('',#1270);
#1109=PLANE('',#1273);
#1110=PLANE('',#1274);
#1111=PLANE('',#1275);
#1112=PLANE('',#1276);
#1113=PLANE('',#1277);
#1114=PLANE('',#1278);
#1115=PLANE('',#1279);
#1116=PLANE('',#1280);
#1117=PLANE('',#1281);
#1118=PLANE('',#1282);
#1119=PLANE('',#1283);
#1120=PLANE('',#1284);
#1121=PLANE('',#1285);
#1122=ADVANCED_FACE('',(#1005),#1071,.T.);
#1123=ADVANCED_FACE('',(#1006),#1072,.T.);
#1124=ADVANCED_FACE('',(#1007),#1073,.F.);
#1125=ADVANCED_FACE('',(#1008,#1009),#21,.F.);
#1126=ADVANCED_FACE('',(#1010),#1074,.T.);
#1127=ADVANCED_FACE('',(#1011),#1075,.F.);
#1128=ADVANCED_FACE('',(#1012),#22,.T.);
#1129=ADVANCED_FACE('',(#1013),#1076,.F.);
#1130=ADVANCED_FACE('',(#1014),#1077,.T.);
#1131=ADVANCED_FACE('',(#1015),#1078,.T.);
#1132=ADVANCED_FACE('',(#1016),#1079,.T.);
#1133=ADVANCED_FACE('',(#1017),#1080,.F.);
#1134=ADVANCED_FACE('',(#1018),#1081,.T.);
#1135=ADVANCED_FACE('',(#1019),#15,.T.);
#1136=ADVANCED_FACE('',(#1020),#1082,.F.);
#1137=ADVANCED_FACE('',(#1021),#1083,.T.);
#1138=ADVANCED_FACE('',(#1022),#1084,.T.);
#1139=ADVANCED_FACE('',(#1023),#1085,.F.);
#1140=ADVANCED_FACE('',(#1024),#1086,.F.);
#1141=ADVANCED_FACE('',(#1025),#1087,.T.);
#1142=ADVANCED_FACE('',(#1026),#1088,.T.);
#1143=ADVANCED_FACE('',(#1027),#1089,.F.);
#1144=ADVANCED_FACE('',(#1028),#23,.F.);
#1145=ADVANCED_FACE('',(#1029),#24,.T.);
#1146=ADVANCED_FACE('',(#1030),#1090,.F.);
#1147=ADVANCED_FACE('',(#1031),#14,.T.);
#1148=ADVANCED_FACE('',(#1032),#13,.F.);
#1149=ADVANCED_FACE('',(#1033),#1091,.F.);
#1150=ADVANCED_FACE('',(#1034),#1092,.F.);
#1151=ADVANCED_FACE('',(#1035),#1093,.F.);
#1152=ADVANCED_FACE('',(#1036),#25,.T.);
#1153=ADVANCED_FACE('',(#1037),#26,.F.);
#1154=ADVANCED_FACE('',(#1038),#1094,.F.);
#1155=ADVANCED_FACE('',(#1039),#1095,.F.);
#1156=ADVANCED_FACE('',(#1040),#1096,.T.);
#1157=ADVANCED_FACE('',(#1041),#1097,.F.);
#1158=ADVANCED_FACE('',(#1042),#1098,.F.);
#1159=ADVANCED_FACE('',(#1043),#1099,.T.);
#1160=ADVANCED_FACE('',(#1044),#1100,.F.);
#1161=ADVANCED_FACE('',(#1045),#1101,.F.);
#1162=ADVANCED_FACE('',(#1046,#1047),#27,.T.);
#1163=ADVANCED_FACE('',(#1048),#1102,.T.);
#1164=ADVANCED_FACE('',(#1049),#1103,.T.);
#1165=ADVANCED_FACE('',(#1050),#1104,.T.);
#1166=ADVANCED_FACE('',(#1051),#1105,.T.);
#1167=ADVANCED_FACE('',(#1052),#1106,.T.);
#1168=ADVANCED_FACE('',(#1053),#1107,.T.);
#1169=ADVANCED_FACE('',(#1054),#1108,.T.);
#1170=ADVANCED_FACE('',(#1055,#1056),#28,.F.);
#1171=ADVANCED_FACE('',(#1057,#1058),#1109,.F.);
#1172=ADVANCED_FACE('',(#1059),#1110,.T.);
#1173=ADVANCED_FACE('',(#1060),#1111,.T.);
#1174=ADVANCED_FACE('',(#1061),#1112,.F.);
#1175=ADVANCED_FACE('',(#1062),#1113,.T.);
#1176=ADVANCED_FACE('',(#1063),#1114,.F.);
#1177=ADVANCED_FACE('',(#1064),#1115,.F.);
#1178=ADVANCED_FACE('',(#1065),#1116,.F.);
#1179=ADVANCED_FACE('',(#1066),#1117,.T.);
#1180=ADVANCED_FACE('',(#1067),#1118,.T.);
#1181=ADVANCED_FACE('',(#1068),#1119,.F.);
#1182=ADVANCED_FACE('',(#1069),#1120,.F.);
#1183=ADVANCED_FACE('',(#1070),#1121,.T.);
#1184=CLOSED_SHELL('',(#1122,#1123,#1124,#1125,#1126,#1127,#1128,#1129,
#1130,#1131,#1132,#1133,#1134,#1135,#1136,#1137,#1138,#1139,#1140,#1141,
#1142,#1143,#1144,#1145,#1146,#1147,#1148,#1149,#1150,#1151,#1152,#1153,
#1154,#1155,#1156,#1157,#1158,#1159,#1160,#1161,#1162,#1163,#1164,#1165,
#1166,#1167,#1168,#1169,#1170,#1171,#1172,#1173,#1174,#1175,#1176,#1177,
#1178,#1179,#1180,#1181,#1182,#1183));
#1185=STYLED_ITEM('',(#1186),#1193);
#1186=PRESENTATION_STYLE_ASSIGNMENT((#1187));
#1187=SURFACE_STYLE_USAGE(.BOTH.,#1188);
#1188=SURFACE_SIDE_STYLE('',(#1189));
#1189=SURFACE_STYLE_FILL_AREA(#1190);
#1190=FILL_AREA_STYLE('',(#1191));
#1191=FILL_AREA_STYLE_COLOUR('',#1192);
#1192=COLOUR_RGB('',0.235294117647059,0.235294117647059,0.235294117647059);
#1193=MANIFOLD_SOLID_BREP('Top Left Front',#1184);
#1194=SHAPE_DEFINITION_REPRESENTATION(#1960,#1195);
#1195=SHAPE_REPRESENTATION('Top Left Front',(#1196),#1955);
#1196=AXIS2_PLACEMENT_3D('',#1605,#1286,#1287);
#1197=AXIS2_PLACEMENT_3D('',#1606,#1288,#1289);
#1198=AXIS2_PLACEMENT_3D('',#1610,#1291,#1292);
#1199=AXIS2_PLACEMENT_3D('',#1615,#1295,#1296);
#1200=AXIS2_PLACEMENT_3D('',#1633,#1305,#1306);
#1201=AXIS2_PLACEMENT_3D('',#1641,#1310,#1311);
#1202=AXIS2_PLACEMENT_3D('',#1644,#1313,#1314);
#1203=AXIS2_PLACEMENT_3D('',#1654,#1319,#1320);
#1204=AXIS2_PLACEMENT_3D('',#1672,#1329,#1330);
#1205=AXIS2_PLACEMENT_3D('',#1683,#1336,#1337);
#1206=AXIS2_PLACEMENT_3D('',#1687,#1339,#1340);
#1207=AXIS2_PLACEMENT_3D('',#1691,#1342,#1343);
#1208=AXIS2_PLACEMENT_3D('',#1692,#1344,#1345);
#1209=AXIS2_PLACEMENT_3D('',#1695,#1346,#1347);
#1210=AXIS2_PLACEMENT_3D('',#1697,#1348,#1349);
#1211=AXIS2_PLACEMENT_3D('',#1699,#1350,#1351);
#1212=AXIS2_PLACEMENT_3D('',#1701,#1352,#1353);
#1213=AXIS2_PLACEMENT_3D('',#1703,#1354,#1355);
#1214=AXIS2_PLACEMENT_3D('',#1704,#1356,#1357);
#1215=AXIS2_PLACEMENT_3D('',#1714,#1363,#1364);
#1216=AXIS2_PLACEMENT_3D('',#1720,#1368,#1369);
#1217=AXIS2_PLACEMENT_3D('',#1724,#1371,#1372);
#1218=AXIS2_PLACEMENT_3D('',#1728,#1374,#1375);
#1219=AXIS2_PLACEMENT_3D('',#1729,#1376,#1377);
#1220=AXIS2_PLACEMENT_3D('',#1736,#1382,#1383);
#1221=AXIS2_PLACEMENT_3D('',#1745,#1388,#1389);
#1222=AXIS2_PLACEMENT_3D('',#1748,#1391,#1392);
#1223=AXIS2_PLACEMENT_3D('',#1754,#1396,#1397);
#1224=AXIS2_PLACEMENT_3D('',#1760,#1401,#1402);
#1225=AXIS2_PLACEMENT_3D('',#1766,#1406,#1407);
#1226=AXIS2_PLACEMENT_3D('',#1772,#1411,#1412);
#1227=AXIS2_PLACEMENT_3D('',#1776,#1414,#1415);
#1228=AXIS2_PLACEMENT_3D('',#1777,#1416,#1417);
#1229=AXIS2_PLACEMENT_3D('',#1778,#1418,#1419);
#1230=AXIS2_PLACEMENT_3D('',#1781,#1422,#1423);
#1231=AXIS2_PLACEMENT_3D('',#1786,#1427,#1428);
#1232=AXIS2_PLACEMENT_3D('',#1788,#1430,#1431);
#1233=AXIS2_PLACEMENT_3D('',#1790,#1433,#1434);
#1234=AXIS2_PLACEMENT_3D('',#1792,#1436,#1437);
#1235=AXIS2_PLACEMENT_3D('',#1794,#1439,#1440);
#1236=AXIS2_PLACEMENT_3D('',#1796,#1442,#1443);
#1237=AXIS2_PLACEMENT_3D('',#1800,#1446,#1447);
#1238=AXIS2_PLACEMENT_3D('',#1803,#1450,#1451);
#1239=AXIS2_PLACEMENT_3D('',#1804,#1452,#1453);
#1240=AXIS2_PLACEMENT_3D('',#1807,#1455,#1456);
#1241=AXIS2_PLACEMENT_3D('',#1808,#1457,#1458);
#1242=AXIS2_PLACEMENT_3D('',#1809,#1459,#1460);
#1243=AXIS2_PLACEMENT_3D('',#1815,#1464,#1465);
#1244=AXIS2_PLACEMENT_3D('',#1816,#1466,#1467);
#1245=AXIS2_PLACEMENT_3D('',#1817,#1468,#1469);
#1246=AXIS2_PLACEMENT_3D('',#1818,#1470,#1471);
#1247=AXIS2_PLACEMENT_3D('',#1819,#1472,#1473);
#1248=AXIS2_PLACEMENT_3D('',#1827,#1478,#1479);
#1249=AXIS2_PLACEMENT_3D('',#1833,#1483,#1484);
#1250=AXIS2_PLACEMENT_3D('',#1837,#1487,#1488);
#1251=AXIS2_PLACEMENT_3D('',#1839,#1490,#1491);
#1252=AXIS2_PLACEMENT_3D('',#1842,#1493,#1494);
#1253=AXIS2_PLACEMENT_3D('',#1843,#1495,#1496);
#1254=AXIS2_PLACEMENT_3D('',#1847,#1499,#1500);
#1255=AXIS2_PLACEMENT_3D('',#1860,#1508,#1509);
#1256=AXIS2_PLACEMENT_3D('',#1864,#1512,#1513);
#1257=AXIS2_PLACEMENT_3D('',#1866,#1515,#1516);
#1258=AXIS2_PLACEMENT_3D('',#1868,#1518,#1519);
#1259=AXIS2_PLACEMENT_3D('',#1870,#1521,#1522);
#1260=AXIS2_PLACEMENT_3D('',#1873,#1524,#1525);
#1261=AXIS2_PLACEMENT_3D('',#1874,#1526,#1527);
#1262=AXIS2_PLACEMENT_3D('',#1878,#1530,#1531);
#1263=AXIS2_PLACEMENT_3D('',#1891,#1532,#1533);
#1264=AXIS2_PLACEMENT_3D('',#1892,#1534,#1535);
#1265=AXIS2_PLACEMENT_3D('',#1893,#1536,#1537);
#1266=AXIS2_PLACEMENT_3D('',#1899,#1541,#1542);
#1267=AXIS2_PLACEMENT_3D('',#1903,#1545,#1546);
#1268=AXIS2_PLACEMENT_3D('',#1907,#1549,#1550);
#1269=AXIS2_PLACEMENT_3D('',#1911,#1553,#1554);
#1270=AXIS2_PLACEMENT_3D('',#1915,#1557,#1558);
#1271=AXIS2_PLACEMENT_3D('',#1917,#1560,#1561);
#1272=AXIS2_PLACEMENT_3D('',#1918,#1562,#1563);
#1273=AXIS2_PLACEMENT_3D('',#1920,#1564,#1565);
#1274=AXIS2_PLACEMENT_3D('',#1921,#1566,#1567);
#1275=AXIS2_PLACEMENT_3D('',#1925,#1570,#1571);
#1276=AXIS2_PLACEMENT_3D('',#1931,#1575,#1576);
#1277=AXIS2_PLACEMENT_3D('',#1936,#1580,#1581);
#1278=AXIS2_PLACEMENT_3D('',#1938,#1583,#1584);
#1279=AXIS2_PLACEMENT_3D('',#1939,#1585,#1586);
#1280=AXIS2_PLACEMENT_3D('',#1943,#1589,#1590);
#1281=AXIS2_PLACEMENT_3D('',#1947,#1593,#1594);
#1282=AXIS2_PLACEMENT_3D('',#1949,#1596,#1597);
#1283=AXIS2_PLACEMENT_3D('',#1950,#1598,#1599);
#1284=AXIS2_PLACEMENT_3D('',#1951,#1600,#1601);
#1285=AXIS2_PLACEMENT_3D('',#1953,#1603,#1604);
#1286=DIRECTION('',(0.,0.,1.));
#1287=DIRECTION('',(1.,0.,0.));
#1288=DIRECTION('',(1.,0.,0.));
#1289=DIRECTION('',(0.,1.,0.));
#1290=DIRECTION('',(0.,0.,1.));
#1291=DIRECTION('',(1.,0.,0.));
#1292=DIRECTION('',(0.,0.,-1.));
#1293=DIRECTION('',(0.,0.,-1.));
#1294=DIRECTION('',(0.,1.,0.));
#1295=DIRECTION('',(1.,0.,0.));
#1296=DIRECTION('',(0.,1.,0.));
#1297=DIRECTION('',(0.,0.,-1.));
#1298=DIRECTION('',(0.,0.906307787036647,-0.422618261740705));
#1299=DIRECTION('',(0.,1.,0.));
#1300=DIRECTION('',(0.,0.,1.));
#1301=DIRECTION('',(0.,1.,0.));
#1302=DIRECTION('',(0.,0.,-1.));
#1303=DIRECTION('',(0.,1.,0.));
#1304=DIRECTION('',(0.,0.707106781186548,0.707106781186548));
#1305=DIRECTION('',(1.,0.,0.));
#1306=DIRECTION('',(0.,0.,-1.));
#1307=DIRECTION('',(0.,-1.,0.));
#1308=DIRECTION('',(0.,0.,-1.));
#1309=DIRECTION('',(0.,1.,0.));
#1310=DIRECTION('',(1.,0.,0.));
#1311=DIRECTION('',(0.,0.,-1.));
#1312=DIRECTION('',(0.,1.,0.));
#1313=DIRECTION('',(0.,-1.,0.));
#1314=DIRECTION('',(1.,0.,0.));
#1315=DIRECTION('',(1.,0.,0.));
#1316=DIRECTION('',(0.906307787036646,0.,-0.422618261740708));
#1317=DIRECTION('',(0.,0.,1.));
#1318=DIRECTION('',(1.,0.,0.));
#1319=DIRECTION('',(0.,-1.,0.));
#1320=DIRECTION('',(0.,0.,-1.));
#1321=DIRECTION('',(1.,0.,0.));
#1322=DIRECTION('',(0.,0.,1.));
#1323=DIRECTION('',(-1.,0.,0.));
#1324=DIRECTION('',(0.,0.,1.));
#1325=DIRECTION('',(1.,0.,0.));
#1326=DIRECTION('',(0.,0.,-1.));
#1327=DIRECTION('',(1.,0.,0.));
#1328=DIRECTION('',(0.,0.,-1.));
#1329=DIRECTION('',(0.,-1.,0.));
#1330=DIRECTION('',(0.,0.,-1.));
#1331=DIRECTION('',(0.707106781186548,0.,0.707106781186548));
#1332=DIRECTION('',(1.,0.,0.));
#1333=DIRECTION('',(0.,0.,1.));
#1334=DIRECTION('',(1.,0.,0.));
#1335=DIRECTION('',(0.,0.,-1.));
#1336=DIRECTION('',(0.,0.,1.));
#1337=DIRECTION('',(1.,0.,0.));
#1338=DIRECTION('',(0.,0.,-1.));
#1339=DIRECTION('',(0.,0.,1.));
#1340=DIRECTION('',(1.,0.,0.));
#1341=DIRECTION('',(0.,0.,-1.));
#1342=DIRECTION('',(0.,0.,-1.));
#1343=DIRECTION('',(-1.,0.,0.));
#1344=DIRECTION('',(0.612372435695789,-0.612372435695789,0.500000000000014));
#1345=DIRECTION('',(-0.353553390593284,0.353553390593284,0.866025403784431));
#1346=DIRECTION('',(-9.71242825364665E-15,9.71242825364665E-15,1.));
#1347=DIRECTION('',(1.,0.,9.71242825364665E-15));
#1348=DIRECTION('',(-0.612372435695797,0.612372435695797,0.5));
#1349=DIRECTION('',(0.35355339059327,-0.35355339059327,0.866025403784442));
#1350=DIRECTION('',(-0.61237243569579,0.61237243569579,-0.500000000000011));
#1351=DIRECTION('',(-0.353553390593282,0.353553390593282,0.866025403784433));
#1352=DIRECTION('',(9.71242825364665E-15,-9.71242825364665E-15,-1.));
#1353=DIRECTION('',(-1.,0.,-9.71242825364665E-15));
#1354=DIRECTION('',(0.612372435695798,-0.612372435695798,-0.499999999999992));
#1355=DIRECTION('',(0.353553390593268,-0.353553390593268,0.866025403784443));
#1356=DIRECTION('',(1.,-9.0912465167471E-17,0.));
#1357=DIRECTION('',(9.0912465167471E-17,1.,0.));
#1358=DIRECTION('',(0.,0.,-1.));
#1359=DIRECTION('',(9.09124651674711E-17,1.,0.));
#1360=DIRECTION('',(0.,0.,-1.));
#1361=DIRECTION('',(-9.0912465167471E-17,-1.,0.));
#1362=DIRECTION('',(-9.0912465167471E-17,-1.,0.));
#1363=DIRECTION('',(0.,-1.,0.));
#1364=DIRECTION('',(0.,0.,-1.));
#1365=DIRECTION('',(-1.,0.,0.));
#1366=DIRECTION('',(-1.,0.,0.));
#1367=DIRECTION('',(0.,0.,-1.));
#1368=DIRECTION('',(0.,0.,-1.));
#1369=DIRECTION('',(-1.,0.,0.));
#1370=DIRECTION('',(0.,0.,-1.));
#1371=DIRECTION('',(0.,0.,-1.));
#1372=DIRECTION('',(-1.,0.,0.));
#1373=DIRECTION('',(0.,0.,-1.));
#1374=DIRECTION('',(0.,0.,1.));
#1375=DIRECTION('',(1.,0.,0.));
#1376=DIRECTION('',(0.,1.,0.));
#1377=DIRECTION('',(0.,0.,1.));
#1378=DIRECTION('',(-1.,0.,0.));
#1379=DIRECTION('',(0.,0.,-1.));
#1380=DIRECTION('',(1.,0.,0.));
#1381=DIRECTION('',(-1.,0.,0.));
#1382=DIRECTION('',(1.,0.,0.));
#1383=DIRECTION('',(0.,0.,-1.));
#1384=DIRECTION('',(0.,-1.,0.));
#1385=DIRECTION('',(0.,0.,-1.));
#1386=DIRECTION('',(0.,-1.,0.));
#1387=DIRECTION('',(0.,0.,-1.));
#1388=DIRECTION('',(1.,0.,0.));
#1389=DIRECTION('',(0.,0.,-1.));
#1390=DIRECTION('',(0.,-1.,0.));
#1391=DIRECTION('',(0.,-0.707106781186548,0.707106781186548));
#1392=DIRECTION('',(-1.,0.,0.));
#1393=DIRECTION('',(-1.,0.,0.));
#1394=DIRECTION('',(1.,0.,0.));
#1395=DIRECTION('',(0.,0.707106781186548,0.707106781186548));
#1396=DIRECTION('',(0.,1.,0.));
#1397=DIRECTION('',(0.,0.,1.));
#1398=DIRECTION('',(-1.,0.,0.));
#1399=DIRECTION('',(-1.,0.,0.));
#1400=DIRECTION('',(0.,0.,1.));
#1401=DIRECTION('',(0.,-1.,0.));
#1402=DIRECTION('',(0.,0.,-1.));
#1403=DIRECTION('',(-1.,0.,0.));
#1404=DIRECTION('',(0.,0.,-1.));
#1405=DIRECTION('',(-1.,0.,0.));
#1406=DIRECTION('',(0.,1.,0.));
#1407=DIRECTION('',(0.,0.,1.));
#1408=DIRECTION('',(0.,0.,1.));
#1409=DIRECTION('',(1.,0.,0.));
#1410=DIRECTION('',(1.,0.,0.));
#1411=DIRECTION('',(0.,0.,-1.));
#1412=DIRECTION('',(-1.,0.,0.));
#1413=DIRECTION('',(0.707106781186548,0.,0.707106781186548));
#1414=DIRECTION('',(0.,0.,1.));
#1415=DIRECTION('',(1.,0.,0.));
#1416=DIRECTION('',(0.,0.,1.));
#1417=DIRECTION('',(1.,0.,0.));
#1418=DIRECTION('',(-1.,-1.85998161270758E-16,0.));
#1419=DIRECTION('',(1.85998161270758E-16,-1.,0.));
#1420=DIRECTION('',(1.85998161270758E-16,-1.,0.));
#1421=DIRECTION('',(-1.85998161270758E-16,1.,0.));
#1422=DIRECTION('',(0.,0.,1.));
#1423=DIRECTION('',(1.,0.,0.));
#1424=DIRECTION('',(-1.,0.,0.));
#1425=DIRECTION('',(-1.85998161270758E-16,1.,0.));
#1426=DIRECTION('',(1.81824930334942E-16,-1.,0.));
#1427=DIRECTION('',(1.,1.81824930334942E-16,0.));
#1428=DIRECTION('',(-1.81824930334942E-16,1.,0.));
#1429=DIRECTION('',(1.81824930334942E-16,-1.,0.));
#1430=DIRECTION('',(0.,0.,1.));
#1431=DIRECTION('',(1.,0.,0.));
#1432=DIRECTION('',(1.85998161270758E-16,-1.,0.));
#1433=DIRECTION('',(-1.,-1.85998161270758E-16,0.));
#1434=DIRECTION('',(1.85998161270758E-16,-1.,0.));
#1435=DIRECTION('',(1.85998161270758E-16,-1.,0.));
#1436=DIRECTION('',(0.,0.,1.));
#1437=DIRECTION('',(1.,0.,0.));
#1438=DIRECTION('',(0.,-1.,0.));
#1439=DIRECTION('',(-0.707106781186548,0.,0.707106781186548));
#1440=DIRECTION('',(0.,1.,0.));
#1441=DIRECTION('',(0.,1.,0.));
#1442=DIRECTION('',(0.,0.,1.));
#1443=DIRECTION('',(1.,0.,0.));
#1444=DIRECTION('',(0.,-1.,0.));
#1445=DIRECTION('',(-1.,0.,0.));
#1446=DIRECTION('',(-1.,0.,0.));
#1447=DIRECTION('',(0.,0.,1.));
#1448=DIRECTION('',(-1.,0.,0.));
#1449=DIRECTION('',(-1.,0.,0.));
#1450=DIRECTION('',(1.,0.,0.));
#1451=DIRECTION('',(0.,0.,-1.));
#1452=DIRECTION('',(1.,0.,0.));
#1453=DIRECTION('',(0.,0.,-1.));
#1454=DIRECTION('',(1.,0.,0.));
#1455=DIRECTION('',(-0.5,0.,0.866025403784438));
#1456=DIRECTION('',(0.866025403784438,0.,0.5));
#1457=DIRECTION('',(-1.,0.,0.));
#1458=DIRECTION('',(0.,0.,1.));
#1459=DIRECTION('',(0.,0.,1.));
#1460=DIRECTION('',(1.,0.,0.));
#1461=DIRECTION('',(1.83697019872103E-16,1.,0.));
#1462=DIRECTION('',(1.,-1.83697019872103E-16,0.));
#1463=DIRECTION('',(-1.,1.83697019872103E-16,0.));
#1464=DIRECTION('',(0.,0.,1.));
#1465=DIRECTION('',(1.,0.,0.));
#1466=DIRECTION('',(0.,1.,0.));
#1467=DIRECTION('',(0.,0.,1.));
#1468=DIRECTION('',(-1.,1.0927391974657E-15,0.));
#1469=DIRECTION('',(-1.0927391974657E-15,-1.,0.));
#1470=DIRECTION('',(0.,1.,1.09273919746571E-15));
#1471=DIRECTION('',(0.,-1.09273919746571E-15,1.));
#1472=DIRECTION('',(0.,0.,1.));
#1473=DIRECTION('',(1.,0.,0.));
#1474=DIRECTION('',(-9.09124651674711E-17,-1.,0.));
#1475=DIRECTION('',(1.,0.,0.));
#1476=DIRECTION('',(0.,-1.,0.));
#1477=DIRECTION('',(-1.,0.,0.));
#1478=DIRECTION('',(0.,0.,1.));
#1479=DIRECTION('',(1.,0.,0.));
#1480=DIRECTION('',(-1.22464679914735E-16,-1.,0.));
#1481=DIRECTION('',(-1.,1.22464679914735E-16,0.));
#1482=DIRECTION('',(-9.09124651674711E-17,-1.,0.));
#1483=DIRECTION('',(0.,0.,1.));
#1484=DIRECTION('',(1.,0.,0.));
#1485=DIRECTION('',(0.,-1.,0.));
#1486=DIRECTION('',(-1.,0.,0.));
#1487=DIRECTION('',(0.,-1.,0.));
#1488=DIRECTION('',(0.,0.,-1.));
#1489=DIRECTION('',(0.,1.,0.));
#1490=DIRECTION('',(0.,-1.,0.));
#1491=DIRECTION('',(0.,0.,-1.));
#1492=DIRECTION('',(0.,-1.,0.));
#1493=DIRECTION('',(0.,-1.,0.));
#1494=DIRECTION('',(0.,0.,-1.));
#1495=DIRECTION('',(1.,0.,0.));
#1496=DIRECTION('',(0.,0.,-1.));
#1497=DIRECTION('',(0.,0.,-1.));
#1498=DIRECTION('',(0.,-1.,0.));
#1499=DIRECTION('',(1.,-9.09124651674711E-17,0.));
#1500=DIRECTION('',(9.09124651674711E-17,1.,0.));
#1501=DIRECTION('',(0.,0.,-1.));
#1502=DIRECTION('',(-9.09124651674711E-17,-1.,0.));
#1503=DIRECTION('',(0.,0.,-1.));
#1504=DIRECTION('',(0.,-1.,0.));
#1505=DIRECTION('',(0.,0.,-1.));
#1506=DIRECTION('',(-1.22464679914735E-16,-1.,0.));
#1507=DIRECTION('',(0.,0.,-1.));
#1508=DIRECTION('',(1.,0.,0.));
#1509=DIRECTION('',(0.,0.,-1.));
#1510=DIRECTION('',(0.,-1.,0.));
#1511=DIRECTION('',(0.,0.,-1.));
#1512=DIRECTION('',(0.,-1.,0.));
#1513=DIRECTION('',(0.,0.,-1.));
#1514=DIRECTION('',(-1.,0.,0.));
#1515=DIRECTION('',(0.,-1.,0.));
#1516=DIRECTION('',(0.,0.,-1.));
#1517=DIRECTION('',(-1.,0.,0.));
#1518=DIRECTION('',(0.,1.,0.));
#1519=DIRECTION('',(0.,0.,1.));
#1520=DIRECTION('',(1.,0.,0.));
#1521=DIRECTION('',(0.,0.,1.));
#1522=DIRECTION('',(1.,0.,0.));
#1523=DIRECTION('',(-1.,0.,0.));
#1524=DIRECTION('',(0.,0.,1.));
#1525=DIRECTION('',(1.,0.,0.));
#1526=DIRECTION('',(0.,1.,0.));
#1527=DIRECTION('',(0.,0.,1.));
#1528=DIRECTION('',(-1.,0.,0.));
#1529=DIRECTION('',(0.,0.,-1.));
#1530=DIRECTION('',(0.,0.,-1.));
#1531=DIRECTION('',(1.,0.,0.));
#1532=DIRECTION('',(0.,0.,-1.));
#1533=DIRECTION('',(1.,0.,0.));
#1534=DIRECTION('',(0.,0.,-1.));
#1535=DIRECTION('',(-1.,0.,0.));
#1536=DIRECTION('',(0.612372435695789,-0.612372435695789,0.500000000000014));
#1537=DIRECTION('',(0.707106781186547,0.707106781186548,0.));
#1538=DIRECTION('',(0.707106781186547,0.707106781186548,0.));
#1539=DIRECTION('',(0.353553390593284,-0.353553390593284,-0.866025403784431));
#1540=DIRECTION('',(0.707106781186547,0.707106781186548,0.));
#1541=DIRECTION('',(-9.71242825364665E-15,9.71242825364665E-15,1.));
#1542=DIRECTION('',(-1.,1.83697019872103E-16,-9.71242825364666E-15));
#1543=DIRECTION('',(0.707106781186548,-0.707106781186547,1.37354477598827E-14));
#1544=DIRECTION('',(0.707106781186547,0.707106781186548,0.));
#1545=DIRECTION('',(-0.612372435695797,0.612372435695797,0.5));
#1546=DIRECTION('',(-0.707106781186547,-0.707106781186548,0.));
#1547=DIRECTION('',(0.35355339059327,-0.35355339059327,0.866025403784442));
#1548=DIRECTION('',(0.707106781186547,0.707106781186548,0.));
#1549=DIRECTION('',(-0.61237243569579,0.61237243569579,-0.500000000000011));
#1550=DIRECTION('',(-0.707106781186547,-0.707106781186548,0.));
#1551=DIRECTION('',(-0.353553390593282,0.353553390593281,0.866025403784433));
#1552=DIRECTION('',(0.707106781186547,0.707106781186548,0.));
#1553=DIRECTION('',(9.71242825364665E-15,-9.71242825364665E-15,-1.));
#1554=DIRECTION('',(1.,-1.83697019872103E-16,9.71242825364666E-15));
#1555=DIRECTION('',(-0.707106781186548,0.707106781186547,-1.37354477598827E-14));
#1556=DIRECTION('',(0.707106781186547,0.707106781186548,0.));
#1557=DIRECTION('',(0.612372435695798,-0.612372435695798,-0.499999999999992));
#1558=DIRECTION('',(0.707106781186547,0.707106781186548,0.));
#1559=DIRECTION('',(-0.353553390593269,0.353553390593268,-0.866025403784443));
#1560=DIRECTION('',(-0.707106781186547,-0.707106781186548,0.));
#1561=DIRECTION('',(0.707106781186548,-0.707106781186547,0.));
#1562=DIRECTION('',(-0.707106781186547,-0.707106781186548,0.));
#1563=DIRECTION('',(0.707106781186548,-0.707106781186547,0.));
#1564=DIRECTION('',(-0.707106781186547,-0.707106781186548,0.));
#1565=DIRECTION('',(0.707106781186548,-0.707106781186547,0.));
#1566=DIRECTION('',(-1.,1.22464679914735E-16,0.));
#1567=DIRECTION('',(0.,0.,1.));
#1568=DIRECTION('',(-1.06057523872491E-16,-0.86602540378444,0.5));
#1569=DIRECTION('',(0.,0.,1.));
#1570=DIRECTION('',(0.,0.,-1.));
#1571=DIRECTION('',(-1.,1.22464679914735E-16,0.));
#1572=DIRECTION('',(-1.,1.22464679914735E-16,0.));
#1573=DIRECTION('',(-1.,1.22464679914735E-16,0.));
#1574=DIRECTION('',(-1.22464679914735E-16,-1.,0.));
#1575=DIRECTION('',(-1.,1.22464679914735E-16,0.));
#1576=DIRECTION('',(0.,0.,1.));
#1577=DIRECTION('',(0.,0.,1.));
#1578=DIRECTION('',(0.,0.,1.));
#1579=DIRECTION('',(1.06057523872491E-16,0.86602540378444,-0.5));
#1580=DIRECTION('',(1.22464679914735E-16,1.,0.));
#1581=DIRECTION('',(-1.,1.22464679914735E-16,0.));
#1582=DIRECTION('',(-1.,1.22464679914735E-16,0.));
#1583=DIRECTION('',(1.22464679914735E-16,1.,0.));
#1584=DIRECTION('',(-1.,1.22464679914735E-16,0.));
#1585=DIRECTION('',(-1.83697019872103E-16,-1.,0.));
#1586=DIRECTION('',(0.,0.,1.));
#1587=DIRECTION('',(0.,0.,1.));
#1588=DIRECTION('',(-0.866025403784438,1.59086285808736E-16,-0.5));
#1589=DIRECTION('',(1.83697019872103E-16,1.,0.));
#1590=DIRECTION('',(0.,0.,-1.));
#1591=DIRECTION('',(0.866025403784438,-1.59086285808736E-16,0.5));
#1592=DIRECTION('',(0.,0.,-1.));
#1593=DIRECTION('',(1.,-1.83697019872103E-16,0.));
#1594=DIRECTION('',(1.83697019872103E-16,1.,0.));
#1595=DIRECTION('',(-1.83697019872103E-16,-1.,0.));
#1596=DIRECTION('',(0.,0.5,0.86602540378444));
#1597=DIRECTION('',(1.,0.,0.));
#1598=DIRECTION('',(-0.5,0.,0.866025403784438));
#1599=DIRECTION('',(0.,-1.,0.));
#1600=DIRECTION('',(0.,-0.422618261740705,-0.906307787036647));
#1601=DIRECTION('',(-1.,0.,0.));
#1602=DIRECTION('',(0.671542934237814,0.67154293423782,-0.313145613014979));
#1603=DIRECTION('',(0.422618261740708,7.86062196032158E-17,0.906307787036646));
#1604=DIRECTION('',(-1.85998161270758E-16,1.,0.));
#1605=CARTESIAN_POINT('',(0.,0.,0.));
#1606=CARTESIAN_POINT('',(-0.0001,0.,0.));
#1607=CARTESIAN_POINT('',(-0.0001,-0.188649999999996,0.31255));
#1608=CARTESIAN_POINT('',(-0.0001,-0.188649999999996,0.30725));
#1609=CARTESIAN_POINT('',(-0.0001,-0.188649999999996,0.320734835591593));
#1610=CARTESIAN_POINT('',(-0.0001,-0.17765,0.310536796564404));
#1611=CARTESIAN_POINT('',(-9.9999999999989E-5,-0.19265,0.310536796564404));
#1612=CARTESIAN_POINT('',(-0.0001,-0.19265,0.0083));
#1613=CARTESIAN_POINT('',(-0.0001,-0.19265,0.30725));
#1614=CARTESIAN_POINT('',(-0.0001,-2.77555756156289E-17,0.30725));
#1615=CARTESIAN_POINT('',(-0.0001,0.,0.));
#1616=CARTESIAN_POINT('',(-0.0001,-0.149225,0.316748));
#1617=CARTESIAN_POINT('',(-0.0001,-0.149225,0.318211184728088));
#1618=CARTESIAN_POINT('',(-0.0001,-0.149225,0.31675));
#1619=CARTESIAN_POINT('',(-0.0001,0.0952294454273669,0.204220204755272));
#1620=CARTESIAN_POINT('',(-0.0001,-0.152525,0.31975));
#1621=CARTESIAN_POINT('',(-0.0001,0.,0.31975));
#1622=CARTESIAN_POINT('',(-0.0001,-0.15265,0.31975));
#1623=CARTESIAN_POINT('',(-0.0001,-0.15265,0.323425));
#1624=CARTESIAN_POINT('',(-0.0001,-0.15265,0.323425));
#1625=CARTESIAN_POINT('',(-0.0001,0.,0.323425));
#1626=CARTESIAN_POINT('',(-0.0001,-0.149225,0.323425));
#1627=CARTESIAN_POINT('',(-0.0001,-0.149225,0.316748));
#1628=CARTESIAN_POINT('',(-0.0001,-0.149225,0.32675));
#1629=CARTESIAN_POINT('',(-0.0001,0.,0.32675));
#1630=CARTESIAN_POINT('',(-9.9999999999989E-5,-0.18265,0.32675));
#1631=CARTESIAN_POINT('',(-0.0001,-0.18265,0.32675));
#1632=CARTESIAN_POINT('',(-9.9999999999989E-5,-0.188256601717799,0.321143398282202));
#1633=CARTESIAN_POINT('',(-0.0001,-0.17765,0.310536796564404));
#1634=CARTESIAN_POINT('',(-0.0001,-0.188621241963589,0.320765767664977));
#1635=CARTESIAN_POINT('',(-0.0001,0.,0.320765767664977));
#1636=CARTESIAN_POINT('',(-0.0001,-0.180975,0.320765767664977));
#1637=CARTESIAN_POINT('',(-0.0001,-0.180975,0.3109));
#1638=CARTESIAN_POINT('',(-0.0001,-0.180975,0.30725));
#1639=CARTESIAN_POINT('',(-0.0001,-2.77555756156289E-17,0.30725));
#1640=CARTESIAN_POINT('',(-9.9999999999989E-5,-0.175382826735914,0.30725));
#1641=CARTESIAN_POINT('',(-0.0001,-0.155575,0.29135));
#1642=CARTESIAN_POINT('',(-0.0001,-0.155575,0.31675));
#1643=CARTESIAN_POINT('',(-0.0001,0.,0.31675));
#1644=CARTESIAN_POINT('',(0.,0.,0.));
#1645=CARTESIAN_POINT('',(0.,0.,0.31975));
#1646=CARTESIAN_POINT('',(-0.15265,0.,0.31975));
#1647=CARTESIAN_POINT('',(-0.152525,0.,0.31975));
#1648=CARTESIAN_POINT('',(-0.149225,0.,0.318211184728088));
#1649=CARTESIAN_POINT('',(-0.149225,0.,0.318211184728088));
#1650=CARTESIAN_POINT('',(-0.149225,0.,0.316748));
#1651=CARTESIAN_POINT('',(-0.149225,0.,0.31675));
#1652=CARTESIAN_POINT('',(0.,0.,0.31675));
#1653=CARTESIAN_POINT('',(-0.155575,0.,0.31675));
#1654=CARTESIAN_POINT('',(-0.155575,0.,0.29135));
#1655=CARTESIAN_POINT('',(-0.175382826735914,0.,0.30725));
#1656=CARTESIAN_POINT('',(-2.77555756156289E-17,0.,0.30725));
#1657=CARTESIAN_POINT('',(-0.181075,1.38777878078145E-17,0.30725));
#1658=CARTESIAN_POINT('',(-0.181075,1.38777878078145E-17,0.30675));
#1659=CARTESIAN_POINT('',(-0.181075,1.38777878078145E-17,0.320765767664977));
#1660=CARTESIAN_POINT('',(-0.188549999999996,0.,0.320765767664977));
#1661=CARTESIAN_POINT('',(-0.188549999999996,0.,0.320765767664977));
#1662=CARTESIAN_POINT('',(-0.188549999999996,1.38777878078145E-17,0.31255));
#1663=CARTESIAN_POINT('',(-0.188549999999996,1.38777878078145E-17,0.31005));
#1664=CARTESIAN_POINT('',(-2.77555756156289E-17,0.,0.31005));
#1665=CARTESIAN_POINT('',(-0.188649999999997,0.,0.31005));
#1666=CARTESIAN_POINT('',(-0.188649999999997,0.,0.31005));
#1667=CARTESIAN_POINT('',(-0.188649999999997,0.,0.30725));
#1668=CARTESIAN_POINT('',(-2.77555756156289E-17,0.,0.30725));
#1669=CARTESIAN_POINT('',(-0.19265,0.,0.30725));
#1670=CARTESIAN_POINT('',(-0.19265,0.,0.0083));
#1671=CARTESIAN_POINT('',(-0.19265,0.,0.310536796564404));
#1672=CARTESIAN_POINT('',(-0.17765,0.,0.310536796564404));
#1673=CARTESIAN_POINT('',(-0.188256601717798,0.,0.321143398282202));
#1674=CARTESIAN_POINT('',(-0.18265,0.,0.32675));
#1675=CARTESIAN_POINT('',(-0.18265,0.,0.32675));
#1676=CARTESIAN_POINT('',(0.,0.,0.32675));
#1677=CARTESIAN_POINT('',(-0.149225,0.,0.32675));
#1678=CARTESIAN_POINT('',(-0.149225,0.,0.316748));
#1679=CARTESIAN_POINT('',(-0.149225,0.,0.323425));
#1680=CARTESIAN_POINT('',(0.,0.,0.323425));
#1681=CARTESIAN_POINT('',(-0.15265,0.,0.323425));
#1682=CARTESIAN_POINT('',(-0.15265,0.,0.323425));
#1683=CARTESIAN_POINT('',(-0.155575,-0.155575,0.0083));
#1684=CARTESIAN_POINT('',(-0.155575,-0.180975,0.31675));
#1685=CARTESIAN_POINT('',(-0.155575,-0.180975,0.157625));
#1686=CARTESIAN_POINT('',(-0.155575,-0.180975,0.29135));
#1687=CARTESIAN_POINT('',(-0.155575,-0.155575,0.157625));
#1688=CARTESIAN_POINT('',(-0.180975,-0.155575,0.157625));
#1689=CARTESIAN_POINT('',(-0.180975,-0.155575,0.0083));
#1690=CARTESIAN_POINT('',(-0.180975,-0.155575,0.29135));
#1691=CARTESIAN_POINT('',(-0.155575,-0.155575,0.29135));
#1692=CARTESIAN_POINT('',(-0.155575,-0.155575,0.155525));
#1693=CARTESIAN_POINT('',(-0.17490745338773,-0.172049715354483,0.159025));
#1694=CARTESIAN_POINT('',(-0.176164442219064,-0.17044896615257,0.162525));
#1695=CARTESIAN_POINT('',(-0.155575,-0.155575,0.159025));
#1696=CARTESIAN_POINT('',(-0.172049715354483,-0.17490745338773,0.159025));
#1697=CARTESIAN_POINT('',(-0.155575,-0.155575,0.155525));
#1698=CARTESIAN_POINT('',(-0.17044896615257,-0.176164442219064,0.162525));
#1699=CARTESIAN_POINT('',(-0.155575,-0.155575,0.169525));
#1700=CARTESIAN_POINT('',(-0.172049715354483,-0.17490745338773,0.166025));
#1701=CARTESIAN_POINT('',(-0.155575,-0.155575,0.166025));
#1702=CARTESIAN_POINT('',(-0.17490745338773,-0.172049715354483,0.166025));
#1703=CARTESIAN_POINT('',(-0.155575,-0.155575,0.169525));
#1704=CARTESIAN_POINT('',(-0.188649999999997,-1.52655665885959E-16,0.31005));
#1705=CARTESIAN_POINT('',(-0.188649999999997,-0.15265,0.31005));
#1706=CARTESIAN_POINT('',(-0.188649999999997,-0.15265,0.31005));
#1707=CARTESIAN_POINT('',(-0.188649999999996,-0.15265,0.167525));
#1708=CARTESIAN_POINT('',(-0.188649999999996,-2.70616862252382E-16,0.167525));
#1709=CARTESIAN_POINT('',(-0.188649999999996,-0.14935,0.167525));
#1710=CARTESIAN_POINT('',(-0.188649999999997,-0.14935,0.31005));
#1711=CARTESIAN_POINT('',(-0.188649999999997,-0.14935,0.30725));
#1712=CARTESIAN_POINT('',(-0.188649999999997,-1.52655665885959E-16,0.30725));
#1713=CARTESIAN_POINT('',(-0.188649999999997,-1.52655665885959E-16,0.31005));
#1714=CARTESIAN_POINT('',(-0.186812499999997,-0.15265,0.31005));
#1715=CARTESIAN_POINT('',(-0.186812499999996,-0.15265,0.167525));
#1716=CARTESIAN_POINT('',(-0.184974999999996,-0.15265,0.167525));
#1717=CARTESIAN_POINT('',(-0.186812499999997,-0.15265,0.31005));
#1718=CARTESIAN_POINT('',(-0.184974999999997,-0.15265,0.31005));
#1719=CARTESIAN_POINT('',(-0.184974999999997,-0.15265,0.31005));
#1720=CARTESIAN_POINT('',(-0.16725,-0.16725,0.0083));
#1721=CARTESIAN_POINT('',(-0.19265,-0.16725,0.0083));
#1722=CARTESIAN_POINT('',(-0.19265,-0.16725,0.167525));
#1723=CARTESIAN_POINT('',(-0.19265,-0.16725,0.310536796564404));
#1724=CARTESIAN_POINT('',(-0.16725,-0.16725,0.167525));
#1725=CARTESIAN_POINT('',(-0.16725,-0.19265,0.167525));
#1726=CARTESIAN_POINT('',(-0.16725,-0.19265,0.0083));
#1727=CARTESIAN_POINT('',(-0.16725,-0.19265,0.310536796564404));
#1728=CARTESIAN_POINT('',(-0.16725,-0.16725,0.310536796564404));
#1729=CARTESIAN_POINT('',(2.77555756156289E-17,-0.19265,0.0083));
#1730=CARTESIAN_POINT('',(-2.77555756156289E-17,-0.19265,0.167525));
#1731=CARTESIAN_POINT('',(-0.14935,-0.19265,0.167525));
#1732=CARTESIAN_POINT('',(-0.14935,-0.19265,0.30725));
#1733=CARTESIAN_POINT('',(-0.14935,-0.19265,0.30725));
#1734=CARTESIAN_POINT('',(2.77555756156289E-17,-0.19265,0.30725));
#1735=CARTESIAN_POINT('',(-0.16725,-0.19265,0.310536796564404));
#1736=CARTESIAN_POINT('',(-0.14935,-0.1868125,0.30725));
#1737=CARTESIAN_POINT('',(-0.14935,-0.1868125,0.167525));
#1738=CARTESIAN_POINT('',(-0.14935,-0.184974999999996,0.167525));
#1739=CARTESIAN_POINT('',(-0.14935,-0.184974999999996,0.167525));
#1740=CARTESIAN_POINT('',(-0.14935,-0.184974999999996,0.157625));
#1741=CARTESIAN_POINT('',(-0.14935,-0.1868125,0.157625));
#1742=CARTESIAN_POINT('',(-0.14935,-0.180975,0.157625));
#1743=CARTESIAN_POINT('',(-0.14935,-0.180975,0.30725));
#1744=CARTESIAN_POINT('',(-0.14935,-0.180975,0.29135));
#1745=CARTESIAN_POINT('',(-0.14935,-0.155575,0.29135));
#1746=CARTESIAN_POINT('',(-0.14935,-0.175382826735914,0.30725));
#1747=CARTESIAN_POINT('',(-0.14935,-0.1868125,0.30725));
#1748=CARTESIAN_POINT('',(0.,-0.18265,0.32675));
#1749=CARTESIAN_POINT('',(0.16725,-0.188256601717799,0.321143398282202));
#1750=CARTESIAN_POINT('',(-0.16725,-0.188256601717799,0.321143398282202));
#1751=CARTESIAN_POINT('',(0.16725,-0.18265,0.32675));
#1752=CARTESIAN_POINT('',(-0.16725,-0.18265,0.32675));
#1753=CARTESIAN_POINT('',(-0.16725,-0.19265,0.31675));
#1754=CARTESIAN_POINT('',(0.,-0.149225,0.316748));
#1755=CARTESIAN_POINT('',(0.,-0.149225,0.32675));
#1756=CARTESIAN_POINT('',(-0.149225,-0.149225,0.32675));
#1757=CARTESIAN_POINT('',(0.,-0.149225,0.323425));
#1758=CARTESIAN_POINT('',(-0.149225,-0.149225,0.323425));
#1759=CARTESIAN_POINT('',(-0.149225,-0.149225,0.316748));
#1760=CARTESIAN_POINT('',(5.55111512312578E-17,-0.15265,0.323425));
#1761=CARTESIAN_POINT('',(5.55111512312578E-17,-0.15265,0.31975));
#1762=CARTESIAN_POINT('',(-0.15265,-0.15265,0.31975));
#1763=CARTESIAN_POINT('',(-0.15265,-0.15265,0.323425));
#1764=CARTESIAN_POINT('',(-0.15265,-0.15265,0.323425));
#1765=CARTESIAN_POINT('',(5.55111512312578E-17,-0.15265,0.323425));
#1766=CARTESIAN_POINT('',(0.,-0.149225,0.316748));
#1767=CARTESIAN_POINT('',(-0.149225,-0.149225,0.316748));
#1768=CARTESIAN_POINT('',(-0.149225,-0.149225,0.31675));
#1769=CARTESIAN_POINT('',(-0.149225,-0.149225,0.318211184728088));
#1770=CARTESIAN_POINT('',(0.,-0.149225,0.318211184728088));
#1771=CARTESIAN_POINT('',(0.,-0.149225,0.31675));
#1772=CARTESIAN_POINT('',(-0.16725,-0.16725,0.32675));
#1773=CARTESIAN_POINT('',(-0.19265,-0.16725,0.31675));
#1774=CARTESIAN_POINT('',(-0.188256601717798,-0.16725,0.321143398282202));
#1775=CARTESIAN_POINT('',(-0.18265,-0.16725,0.32675));
#1776=CARTESIAN_POINT('',(-0.16725,-0.16725,0.321143398282202));
#1777=CARTESIAN_POINT('',(-0.16725,-0.16725,0.32675));
#1778=CARTESIAN_POINT('',(-0.149225,0.,0.316748));
#1779=CARTESIAN_POINT('',(-0.149225,-0.149225,0.318211184728088));
#1780=CARTESIAN_POINT('',(-0.149225,0.,0.31675));
#1781=CARTESIAN_POINT('',(0.,0.,0.31975));
#1782=CARTESIAN_POINT('',(0.,-0.152525,0.31975));
#1783=CARTESIAN_POINT('',(-0.152525,-0.152525,0.31975));
#1784=CARTESIAN_POINT('',(-0.152525,-6.13793932193497E-19,0.31975));
#1785=CARTESIAN_POINT('',(-0.15265,0.,0.31975));
#1786=CARTESIAN_POINT('',(-0.15265,0.,0.323425));
#1787=CARTESIAN_POINT('',(-0.15265,0.,0.323425));
#1788=CARTESIAN_POINT('',(0.,0.,0.323425));
#1789=CARTESIAN_POINT('',(-0.149225,-2.77555756156289E-17,0.323425));
#1790=CARTESIAN_POINT('',(-0.149225,0.,0.316748));
#1791=CARTESIAN_POINT('',(-0.149225,0.,0.32675));
#1792=CARTESIAN_POINT('',(0.,0.,0.32675));
#1793=CARTESIAN_POINT('',(-0.18265,-0.16725,0.32675));
#1794=CARTESIAN_POINT('',(-0.18265,0.,0.32675));
#1795=CARTESIAN_POINT('',(-0.188256601717798,-0.16725,0.321143398282202));
#1796=CARTESIAN_POINT('',(0.,0.,0.31675));
#1797=CARTESIAN_POINT('',(-0.155575,0.,0.31675));
#1798=CARTESIAN_POINT('',(-0.155575,-0.155575,0.31675));
#1799=CARTESIAN_POINT('',(0.,-0.155575,0.31675));
#1800=CARTESIAN_POINT('',(0.,-0.155575,0.29135));
#1801=CARTESIAN_POINT('',(-0.14935,-0.175382826735914,0.30725));
#1802=CARTESIAN_POINT('',(0.,-0.180975,0.29135));
#1803=CARTESIAN_POINT('',(-0.155575,-0.155575,0.29135));
#1804=CARTESIAN_POINT('',(2.77555756156289E-17,-0.17765,0.310536796564404));
#1805=CARTESIAN_POINT('',(0.,-0.188649999999996,0.320734835591593));
#1806=CARTESIAN_POINT('',(-0.000153575922684668,-0.188649999999996,0.320734835591593));
#1807=CARTESIAN_POINT('',(-0.0178170976553475,-0.17765,0.310536796564404));
#1808=CARTESIAN_POINT('',(-0.16725,-0.17765,0.310536796564404));
#1809=CARTESIAN_POINT('',(-2.77555756156289E-17,-2.77555756156289E-17,0.30725));
#1810=CARTESIAN_POINT('',(-0.01,-2.77555756156289E-17,0.30725));
#1811=CARTESIAN_POINT('',(-0.01,-0.188649999999996,0.30725));
#1812=CARTESIAN_POINT('',(-0.01,-0.180975,0.30725));
#1813=CARTESIAN_POINT('',(-6.24500451351651E-17,-0.188649999999996,0.30725));
#1814=CARTESIAN_POINT('',(-6.24500451351651E-17,-0.180975,0.30725));
#1815=CARTESIAN_POINT('',(-0.16725,-0.16725,0.310536796564404));
#1816=CARTESIAN_POINT('',(-0.17765,-0.16725,0.310536796564404));
#1817=CARTESIAN_POINT('',(-0.155575,-0.155575,0.29135));
#1818=CARTESIAN_POINT('',(-0.155575,-0.155575,0.29135));
#1819=CARTESIAN_POINT('',(-2.77555756156289E-17,-2.77555756156289E-17,0.30725));
#1820=CARTESIAN_POINT('',(-0.184974999999997,-2.4980018054066E-16,0.30725));
#1821=CARTESIAN_POINT('',(-0.184974999999996,1.38777878078145E-17,0.30725));
#1822=CARTESIAN_POINT('',(-0.184974999999997,-0.14935,0.30725));
#1823=CARTESIAN_POINT('',(-2.77555756156289E-17,0.,0.30725));
#1824=CARTESIAN_POINT('',(-0.175382826735914,0.14935,0.30725));
#1825=CARTESIAN_POINT('',(-0.175382826735914,-0.14935,0.30725));
#1826=CARTESIAN_POINT('',(-0.1868125,-0.14935,0.30725));
#1827=CARTESIAN_POINT('',(-2.77555756156289E-17,0.0179999999999986,0.31005));
#1828=CARTESIAN_POINT('',(-0.188549999999996,0.01,0.31005));
#1829=CARTESIAN_POINT('',(-0.188549999999996,0.0099,0.31005));
#1830=CARTESIAN_POINT('',(1.38777878078145E-17,0.0099,0.31005));
#1831=CARTESIAN_POINT('',(-0.184974999999996,0.0099,0.31005));
#1832=CARTESIAN_POINT('',(-0.184974999999997,-2.4980018054066E-16,0.31005));
#1833=CARTESIAN_POINT('',(-2.77555756156289E-17,-2.77555756156289E-17,0.30725));
#1834=CARTESIAN_POINT('',(-0.19265,0.,0.30725));
#1835=CARTESIAN_POINT('',(-0.19265,-0.14935,0.30725));
#1836=CARTESIAN_POINT('',(-0.1868125,-0.14935,0.30725));
#1837=CARTESIAN_POINT('',(-0.17765,0.,0.310536796564404));
#1838=CARTESIAN_POINT('',(-0.19265,0.16725,0.310536796564404));
#1839=CARTESIAN_POINT('',(-0.155575,-8.32667268468867E-17,0.29135));
#1840=CARTESIAN_POINT('',(-0.180975,-8.32667268468867E-17,0.29135));
#1841=CARTESIAN_POINT('',(-0.180975,-0.14935,0.29135));
#1842=CARTESIAN_POINT('',(-0.155575,-0.14935,0.29135));
#1843=CARTESIAN_POINT('',(-0.19265,0.,0.0083));
#1844=CARTESIAN_POINT('',(-0.19265,-0.14935,0.30725));
#1845=CARTESIAN_POINT('',(-0.19265,-0.14935,0.167525));
#1846=CARTESIAN_POINT('',(-0.19265,6.93889390390723E-18,0.167525));
#1847=CARTESIAN_POINT('',(-0.184974999999997,-2.4980018054066E-16,0.31005));
#1848=CARTESIAN_POINT('',(-0.184974999999997,-0.14935,0.31005));
#1849=CARTESIAN_POINT('',(-0.184974999999997,-0.14935,0.157625));
#1850=CARTESIAN_POINT('',(-0.184974999999997,-2.4980018054066E-16,0.157625));
#1851=CARTESIAN_POINT('',(-0.184974999999996,-0.155575,0.157625));
#1852=CARTESIAN_POINT('',(-0.184974999999996,-0.155575,0.167525));
#1853=CARTESIAN_POINT('',(-0.184974999999996,-0.155575,0.167525));
#1854=CARTESIAN_POINT('',(-0.184974999999996,-0.1524625,0.167525));
#1855=CARTESIAN_POINT('',(-0.184974999999996,0.0099,0.005));
#1856=CARTESIAN_POINT('',(-0.184974999999996,0.0099,0.30675));
#1857=CARTESIAN_POINT('',(-0.184974999999996,0.01,0.30675));
#1858=CARTESIAN_POINT('',(-0.184974999999996,1.38777878078145E-17,0.30675));
#1859=CARTESIAN_POINT('',(-0.184974999999996,1.38777878078145E-17,0.005));
#1860=CARTESIAN_POINT('',(-0.180975,-8.32667268468867E-17,0.0083));
#1861=CARTESIAN_POINT('',(-0.180975,-8.32667268468867E-17,0.157625));
#1862=CARTESIAN_POINT('',(-0.180975,-0.14935,0.157625));
#1863=CARTESIAN_POINT('',(-0.180975,-0.14935,0.30725));
#1864=CARTESIAN_POINT('',(-0.1868125,-0.14935,0.30725));
#1865=CARTESIAN_POINT('',(-0.1868125,-0.14935,0.157625));
#1866=CARTESIAN_POINT('',(-0.1868125,-0.14935,0.30725));
#1867=CARTESIAN_POINT('',(-0.1868125,-0.14935,0.167525));
#1868=CARTESIAN_POINT('',(0.,-0.180975,0.0083));
#1869=CARTESIAN_POINT('',(0.,-0.180975,0.157625));
#1870=CARTESIAN_POINT('',(0.,0.,0.157625));
#1871=CARTESIAN_POINT('',(0.,-0.184974999999996,0.157625));
#1872=CARTESIAN_POINT('',(-0.155575,-0.184974999999996,0.157625));
#1873=CARTESIAN_POINT('',(-0.155575,-0.155575,0.157625));
#1874=CARTESIAN_POINT('',(-0.1524625,-0.184974999999996,0.167525));
#1875=CARTESIAN_POINT('',(-0.1524625,-0.184974999999996,0.167525));
#1876=CARTESIAN_POINT('',(-0.155575,-0.184974999999996,0.167525));
#1877=CARTESIAN_POINT('',(-0.155575,-0.184974999999996,0.167525));
#1878=CARTESIAN_POINT('',(-0.155575,-0.155575,0.167525));
#1879=CARTESIAN_POINT('',(-0.175174807315223,-0.177500173701165,0.164172440267375));
#1880=CARTESIAN_POINT('',(-0.174651572521184,-0.177943478255104,0.162524582310382));
#1881=CARTESIAN_POINT('',(-0.175174388403302,-0.177500489967583,0.160879230491098));
#1882=CARTESIAN_POINT('',(-0.176375941891371,-0.176378425894439,0.160198099002895));
#1883=CARTESIAN_POINT('',(-0.177500678893697,-0.175174243809949,0.160878375326844));
#1884=CARTESIAN_POINT('',(-0.177942950220472,-0.174652163524109,0.162524644022172));
#1885=CARTESIAN_POINT('',(-0.177502096375595,-0.175172588517856,0.164168504174511));
#1886=CARTESIAN_POINT('',(-0.176378882711397,-0.176375518756625,0.164852262353493));
#1887=CARTESIAN_POINT('',(-0.175174807315223,-0.177500173701165,0.164172440267375));
#1888=CARTESIAN_POINT('',(-0.174651572521184,-0.177943478255104,0.162524582310382));
#1889=CARTESIAN_POINT('',(-0.175174388403302,-0.177500489967583,0.160879230491098));
#1890=CARTESIAN_POINT('',(-0.174825914300544,-0.177795762781527,0.162525));
#1891=CARTESIAN_POINT('',(-0.155575,-0.155575,0.167525));
#1892=CARTESIAN_POINT('',(-0.171,0.0353553390593275,0.167525));
#1893=CARTESIAN_POINT('',(-0.177949297162723,-0.173662690112853,0.160775));
#1894=CARTESIAN_POINT('',(-0.178663731671035,-0.172948255604541,0.162525));
#1895=CARTESIAN_POINT('',(-0.178663731671035,-0.172948255604541,0.162525));
#1896=CARTESIAN_POINT('',(-0.177949297162723,-0.173662690112853,0.160775));
#1897=CARTESIAN_POINT('',(-0.177234862654412,-0.174377124621165,0.159025));
#1898=CARTESIAN_POINT('',(-0.177234862654412,-0.174377124621165,0.159025));
#1899=CARTESIAN_POINT('',(-0.175805993637788,-0.175805993637788,0.159025));
#1900=CARTESIAN_POINT('',(-0.175805993637788,-0.175805993637788,0.159025));
#1901=CARTESIAN_POINT('',(-0.174377124621165,-0.177234862654412,0.159025));
#1902=CARTESIAN_POINT('',(-0.174377124621165,-0.177234862654412,0.159025));
#1903=CARTESIAN_POINT('',(-0.173662690112853,-0.177949297162723,0.160775));
#1904=CARTESIAN_POINT('',(-0.173662690112853,-0.177949297162723,0.160775));
#1905=CARTESIAN_POINT('',(-0.172948255604541,-0.178663731671035,0.162525));
#1906=CARTESIAN_POINT('',(-0.172948255604541,-0.178663731671035,0.162525));
#1907=CARTESIAN_POINT('',(-0.173662690112853,-0.177949297162723,0.164275));
#1908=CARTESIAN_POINT('',(-0.173662690112853,-0.177949297162723,0.164275));
#1909=CARTESIAN_POINT('',(-0.174377124621165,-0.177234862654412,0.166025));
#1910=CARTESIAN_POINT('',(-0.174377124621165,-0.177234862654412,0.166025));
#1911=CARTESIAN_POINT('',(-0.175805993637788,-0.175805993637788,0.166025));
#1912=CARTESIAN_POINT('',(-0.175805993637788,-0.175805993637788,0.166025));
#1913=CARTESIAN_POINT('',(-0.177234862654412,-0.174377124621165,0.166025));
#1914=CARTESIAN_POINT('',(-0.177234862654412,-0.174377124621165,0.166025));
#1915=CARTESIAN_POINT('',(-0.177949297162723,-0.173662690112853,0.164275));
#1916=CARTESIAN_POINT('',(-0.177949297162723,-0.173662690112853,0.164275));
#1917=CARTESIAN_POINT('',(-0.16470441717316,-0.16470441717316,0.162525));
#1918=CARTESIAN_POINT('',(-0.175805993637788,-0.175805993637788,0.162525));
#1919=CARTESIAN_POINT('',(-0.174321069397297,-0.17729091787828,0.162525));
#1920=CARTESIAN_POINT('',(-0.175805993637788,-0.175805993637788,0.162525));
#1921=CARTESIAN_POINT('',(-0.188549999999996,0.01,0.31255));
#1922=CARTESIAN_POINT('',(-0.188549999999996,1.38777878078145E-17,0.320765767664977));
#1923=CARTESIAN_POINT('',(-0.188549999999996,0.0099,0.31505));
#1924=CARTESIAN_POINT('',(-0.188549999999996,0.0099,0.31255));
#1925=CARTESIAN_POINT('',(1.38777878078145E-17,0.01,0.30675));
#1926=CARTESIAN_POINT('',(6.93889390390723E-18,-6.93889390390723E-18,0.30675));
#1927=CARTESIAN_POINT('',(-0.181075,1.38777878078145E-17,0.30675));
#1928=CARTESIAN_POINT('',(1.38777878078145E-17,0.0099,0.30675));
#1929=CARTESIAN_POINT('',(-0.181075,0.0099,0.30675));
#1930=CARTESIAN_POINT('',(-0.181075,0.01,0.30675));
#1931=CARTESIAN_POINT('',(-0.181075,0.01,0.30675));
#1932=CARTESIAN_POINT('',(-0.181075,1.38777878078145E-17,0.30675));
#1933=CARTESIAN_POINT('',(-0.181075,0.0099,0.30675));
#1934=CARTESIAN_POINT('',(-0.181075,0.0099,0.31505));
#1935=CARTESIAN_POINT('',(-0.181075,0.0135690054257054,0.312931698729811));
#1936=CARTESIAN_POINT('',(-0.182685,0.0099,0.3109));
#1937=CARTESIAN_POINT('',(-4.16333634234433E-17,0.0099,0.31505));
#1938=CARTESIAN_POINT('',(-0.182685,1.38777878078145E-17,0.3109));
#1939=CARTESIAN_POINT('',(-0.01,-0.188649999999996,0.31255));
#1940=CARTESIAN_POINT('',(-0.01,-0.188649999999996,0.31255));
#1941=CARTESIAN_POINT('',(-0.01,-0.188649999999996,0.31505));
#1942=CARTESIAN_POINT('',(-0.0110825317547306,-0.188649999999996,0.314425));
#1943=CARTESIAN_POINT('',(-0.01,-0.180975,0.3109));
#1944=CARTESIAN_POINT('',(-0.0117970027128527,-0.180975,0.3140125));
#1945=CARTESIAN_POINT('',(-0.01,-0.180975,0.31505));
#1946=CARTESIAN_POINT('',(-0.01,-0.180975,0.3109));
#1947=CARTESIAN_POINT('',(-0.01,-0.182685,0.3109));
#1948=CARTESIAN_POINT('',(-0.01,-2.08166817117217E-17,0.31505));
#1949=CARTESIAN_POINT('',(0.,0.,0.320765767664977));
#1950=CARTESIAN_POINT('',(-0.01,-2.08166817117217E-17,0.31505));
#1951=CARTESIAN_POINT('',(0.,-0.152525,0.31975));
#1952=CARTESIAN_POINT('',(-0.0819290148034962,-0.0819290148034957,0.286830551467873));
#1953=CARTESIAN_POINT('',(-0.149225,0.,0.318211184728088));
#1954=MECHANICAL_DESIGN_GEOMETRIC_PRESENTATION_REPRESENTATION('',(#1185),
#1955);
#1955=(
GEOMETRIC_REPRESENTATION_CONTEXT(3)
GLOBAL_UNCERTAINTY_ASSIGNED_CONTEXT((#1956))
GLOBAL_UNIT_ASSIGNED_CONTEXT((#1959,#1958,#1957))
REPRESENTATION_CONTEXT('Top Left Front','TOP_LEVEL_ASSEMBLY_PART')
);
#1956=UNCERTAINTY_MEASURE_WITH_UNIT(LENGTH_MEASURE(2.E-5),#1959,
'DISTANCE_ACCURACY_VALUE','Maximum Tolerance applied to model');
#1957=(
NAMED_UNIT(*)
SI_UNIT($,.STERADIAN.)
SOLID_ANGLE_UNIT()
);
#1958=(
NAMED_UNIT(*)
PLANE_ANGLE_UNIT()
SI_UNIT($,.RADIAN.)
);
#1959=(
LENGTH_UNIT()
NAMED_UNIT(*)
SI_UNIT($,.METRE.)
);
#1960=PRODUCT_DEFINITION_SHAPE('','',#1961);
#1961=PRODUCT_DEFINITION('','',#1963,#1962);
#1962=PRODUCT_DEFINITION_CONTEXT('',#1969,'design');
#1963=PRODUCT_DEFINITION_FORMATION_WITH_SPECIFIED_SOURCE('','',#1965,
 .NOT_KNOWN.);
#1964=PRODUCT_RELATED_PRODUCT_CATEGORY('','',(#1965));
#1965=PRODUCT('Top Left Front','Top Left Front','Top Left Front',(#1967));
#1966=PRODUCT_CATEGORY('','');
#1967=PRODUCT_CONTEXT('',#1969,'mechanical');
#1968=APPLICATION_PROTOCOL_DEFINITION('international standard',
'ap242_managed_model_based_3d_engineering',2020,#1969);
#1969=APPLICATION_CONTEXT('managed model based 3d engineering');
ENDSEC;
END-ISO-10303-21;
