ISO-10303-21;
HEADER;
/* Generated by software containing ST-Developer
 * from STEP Tools, Inc. (www.steptools.com) 
 */
/* OPTION: using custom renumber hook */

FILE_DESCRIPTION(
/* description */ ('STEP AP242 Edition 2',
'CAx-IF Rec.Pracs.---Representation and Presentation of Product Manufa
cturing Information (PMI)---4.0---2014-10-13',
'CAx-IF Rec.Pracs.---3D Tessellated Geometry---0.4---2014-09-14','2;1',
'CAx-IF Rec.Pracs.---User Defined Attributes---1.5---2016-08-15'),
/* implementation_level */ '2;1');

FILE_NAME(
/* name */ 'N-Metheus - Part 1 (1)',
/* time_stamp */ '2026-01-30T20:52:40Z',
/* author */ (''),
/* organization */ (''),
/* preprocessor_version */ 'ST-DEVELOPER v20',
/* originating_system */ 'ONSHAPE BY PTC INC, 1.210',
/* authorisation */ '  ');

FILE_SCHEMA (('AP242_MANAGED_MODEL_BASED_3D_ENGINEERING_MIM_LF { 1 0 10303 442 3 1 4 }'));
ENDSEC;

DATA;
#10=SHAPE_REPRESENTATION_RELATIONSHIP('','',#327,#11);
#11=ADVANCED_BREP_SHAPE_REPRESENTATION('',(#325),#519);
#12=VERTEX_LOOP('',#145);
#13=DEGENERATE_TOROIDAL_SURFACE('',#333,0.000453157706441633,0.0370205708661418,
 .T.);
#14=CIRCLE('',#331,0.015);
#15=ORIENTED_EDGE('',*,*,#93,.F.);
#16=ORIENTED_EDGE('',*,*,#94,.T.);
#17=ORIENTED_EDGE('',*,*,#95,.T.);
#18=ORIENTED_EDGE('',*,*,#96,.T.);
#19=ORIENTED_EDGE('',*,*,#97,.T.);
#20=ORIENTED_EDGE('',*,*,#98,.T.);
#21=ORIENTED_EDGE('',*,*,#99,.T.);
#22=ORIENTED_EDGE('',*,*,#100,.T.);
#23=ORIENTED_EDGE('',*,*,#101,.T.);
#24=ORIENTED_EDGE('',*,*,#102,.T.);
#25=ORIENTED_EDGE('',*,*,#103,.T.);
#26=ORIENTED_EDGE('',*,*,#104,.T.);
#27=ORIENTED_EDGE('',*,*,#105,.T.);
#28=ORIENTED_EDGE('',*,*,#101,.F.);
#29=ORIENTED_EDGE('',*,*,#106,.T.);
#30=ORIENTED_EDGE('',*,*,#107,.T.);
#31=ORIENTED_EDGE('',*,*,#93,.T.);
#32=ORIENTED_EDGE('',*,*,#108,.T.);
#33=ORIENTED_EDGE('',*,*,#95,.F.);
#34=ORIENTED_EDGE('',*,*,#109,.T.);
#35=ORIENTED_EDGE('',*,*,#110,.T.);
#36=ORIENTED_EDGE('',*,*,#111,.T.);
#37=ORIENTED_EDGE('',*,*,#112,.T.);
#38=ORIENTED_EDGE('',*,*,#113,.T.);
#39=ORIENTED_EDGE('',*,*,#114,.T.);
#40=ORIENTED_EDGE('',*,*,#115,.T.);
#41=ORIENTED_EDGE('',*,*,#116,.F.);
#42=ORIENTED_EDGE('',*,*,#96,.F.);
#43=ORIENTED_EDGE('',*,*,#117,.F.);
#44=ORIENTED_EDGE('',*,*,#98,.F.);
#45=ORIENTED_EDGE('',*,*,#117,.T.);
#46=ORIENTED_EDGE('',*,*,#111,.F.);
#47=ORIENTED_EDGE('',*,*,#118,.F.);
#48=ORIENTED_EDGE('',*,*,#99,.F.);
#49=ORIENTED_EDGE('',*,*,#119,.F.);
#50=ORIENTED_EDGE('',*,*,#100,.F.);
#51=ORIENTED_EDGE('',*,*,#120,.F.);
#52=ORIENTED_EDGE('',*,*,#114,.F.);
#53=ORIENTED_EDGE('',*,*,#116,.T.);
#54=ORIENTED_EDGE('',*,*,#97,.F.);
#55=ORIENTED_EDGE('',*,*,#121,.F.);
#56=ORIENTED_EDGE('',*,*,#108,.F.);
#57=ORIENTED_EDGE('',*,*,#120,.T.);
#58=ORIENTED_EDGE('',*,*,#118,.T.);
#59=ORIENTED_EDGE('',*,*,#122,.F.);
#60=ORIENTED_EDGE('',*,*,#121,.T.);
#61=ORIENTED_EDGE('',*,*,#119,.T.);
#62=ORIENTED_EDGE('',*,*,#123,.F.);
#63=ORIENTED_EDGE('',*,*,#122,.T.);
#64=ORIENTED_EDGE('',*,*,#110,.F.);
#65=ORIENTED_EDGE('',*,*,#124,.F.);
#66=ORIENTED_EDGE('',*,*,#115,.F.);
#67=ORIENTED_EDGE('',*,*,#125,.F.);
#68=ORIENTED_EDGE('',*,*,#112,.F.);
#69=ORIENTED_EDGE('',*,*,#126,.F.);
#70=ORIENTED_EDGE('',*,*,#105,.F.);
#71=ORIENTED_EDGE('',*,*,#123,.T.);
#72=ORIENTED_EDGE('',*,*,#113,.F.);
#73=ORIENTED_EDGE('',*,*,#127,.F.);
#74=ORIENTED_EDGE('',*,*,#106,.F.);
#75=ORIENTED_EDGE('',*,*,#126,.T.);
#76=ORIENTED_EDGE('',*,*,#124,.T.);
#77=ORIENTED_EDGE('',*,*,#128,.F.);
#78=ORIENTED_EDGE('',*,*,#127,.T.);
#79=ORIENTED_EDGE('',*,*,#125,.T.);
#80=ORIENTED_EDGE('',*,*,#129,.F.);
#81=ORIENTED_EDGE('',*,*,#128,.T.);
#82=ORIENTED_EDGE('',*,*,#109,.F.);
#83=ORIENTED_EDGE('',*,*,#130,.F.);
#84=ORIENTED_EDGE('',*,*,#102,.F.);
#85=ORIENTED_EDGE('',*,*,#129,.T.);
#86=ORIENTED_EDGE('',*,*,#104,.F.);
#87=ORIENTED_EDGE('',*,*,#131,.F.);
#88=ORIENTED_EDGE('',*,*,#107,.F.);
#89=ORIENTED_EDGE('',*,*,#130,.T.);
#90=ORIENTED_EDGE('',*,*,#94,.F.);
#91=ORIENTED_EDGE('',*,*,#131,.T.);
#92=ORIENTED_EDGE('',*,*,#103,.F.);
#93=EDGE_CURVE('',#132,#133,#154,.T.);
#94=EDGE_CURVE('',#132,#134,#155,.T.);
#95=EDGE_CURVE('',#134,#135,#156,.T.);
#96=EDGE_CURVE('',#135,#133,#157,.T.);
#97=EDGE_CURVE('',#136,#137,#158,.T.);
#98=EDGE_CURVE('',#137,#138,#159,.T.);
#99=EDGE_CURVE('',#138,#139,#160,.T.);
#100=EDGE_CURVE('',#139,#136,#161,.T.);
#101=EDGE_CURVE('',#140,#140,#14,.T.);
#102=EDGE_CURVE('',#141,#142,#162,.T.);
#103=EDGE_CURVE('',#142,#143,#163,.T.);
#104=EDGE_CURVE('',#143,#144,#164,.T.);
#105=EDGE_CURVE('',#144,#141,#165,.T.);
#106=EDGE_CURVE('',#146,#147,#166,.T.);
#107=EDGE_CURVE('',#147,#132,#167,.T.);
#108=EDGE_CURVE('',#133,#146,#168,.T.);
#109=EDGE_CURVE('',#134,#148,#169,.T.);
#110=EDGE_CURVE('',#148,#149,#170,.T.);
#111=EDGE_CURVE('',#149,#135,#171,.T.);
#112=EDGE_CURVE('',#150,#151,#172,.T.);
#113=EDGE_CURVE('',#151,#152,#173,.T.);
#114=EDGE_CURVE('',#152,#153,#174,.T.);
#115=EDGE_CURVE('',#153,#150,#175,.T.);
#116=EDGE_CURVE('',#133,#137,#176,.F.);
#117=EDGE_CURVE('',#138,#135,#177,.T.);
#118=EDGE_CURVE('',#139,#149,#178,.F.);
#119=EDGE_CURVE('',#136,#152,#179,.T.);
#120=EDGE_CURVE('',#153,#139,#180,.T.);
#121=EDGE_CURVE('',#146,#136,#181,.T.);
#122=EDGE_CURVE('',#153,#149,#182,.F.);
#123=EDGE_CURVE('',#146,#152,#183,.T.);
#124=EDGE_CURVE('',#150,#148,#184,.T.);
#125=EDGE_CURVE('',#151,#144,#185,.F.);
#126=EDGE_CURVE('',#141,#150,#186,.F.);
#127=EDGE_CURVE('',#147,#151,#187,.F.);
#128=EDGE_CURVE('',#141,#148,#188,.F.);
#129=EDGE_CURVE('',#147,#144,#189,.T.);
#130=EDGE_CURVE('',#142,#134,#190,.F.);
#131=EDGE_CURVE('',#132,#143,#191,.T.);
#132=VERTEX_POINT('',#438);
#133=VERTEX_POINT('',#439);
#134=VERTEX_POINT('',#441);
#135=VERTEX_POINT('',#443);
#136=VERTEX_POINT('',#447);
#137=VERTEX_POINT('',#448);
#138=VERTEX_POINT('',#450);
#139=VERTEX_POINT('',#452);
#140=VERTEX_POINT('',#455);
#141=VERTEX_POINT('',#458);
#142=VERTEX_POINT('',#459);
#143=VERTEX_POINT('',#461);
#144=VERTEX_POINT('',#463);
#145=VERTEX_POINT('',#466);
#146=VERTEX_POINT('',#469);
#147=VERTEX_POINT('',#470);
#148=VERTEX_POINT('',#475);
#149=VERTEX_POINT('',#477);
#150=VERTEX_POINT('',#481);
#151=VERTEX_POINT('',#482);
#152=VERTEX_POINT('',#484);
#153=VERTEX_POINT('',#486);
#154=LINE('',#437,#192);
#155=LINE('',#440,#193);
#156=LINE('',#442,#194);
#157=LINE('',#444,#195);
#158=LINE('',#446,#196);
#159=LINE('',#449,#197);
#160=LINE('',#451,#198);
#161=LINE('',#453,#199);
#162=LINE('',#457,#200);
#163=LINE('',#460,#201);
#164=LINE('',#462,#202);
#165=LINE('',#464,#203);
#166=LINE('',#468,#204);
#167=LINE('',#471,#205);
#168=LINE('',#472,#206);
#169=LINE('',#474,#207);
#170=LINE('',#476,#208);
#171=LINE('',#478,#209);
#172=LINE('',#480,#210);
#173=LINE('',#483,#211);
#174=LINE('',#485,#212);
#175=LINE('',#487,#213);
#176=LINE('',#489,#214);
#177=LINE('',#490,#215);
#178=LINE('',#492,#216);
#179=LINE('',#494,#217);
#180=LINE('',#495,#218);
#181=LINE('',#497,#219);
#182=LINE('',#499,#220);
#183=LINE('',#501,#221);
#184=LINE('',#503,#222);
#185=LINE('',#505,#223);
#186=LINE('',#506,#224);
#187=LINE('',#508,#225);
#188=LINE('',#510,#226);
#189=LINE('',#512,#227);
#190=LINE('',#514,#228);
#191=LINE('',#516,#229);
#192=VECTOR('',#355,1.);
#193=VECTOR('',#356,1.);
#194=VECTOR('',#357,1.);
#195=VECTOR('',#358,1.);
#196=VECTOR('',#361,1.);
#197=VECTOR('',#362,1.);
#198=VECTOR('',#363,1.);
#199=VECTOR('',#364,1.);
#200=VECTOR('',#369,1.);
#201=VECTOR('',#370,1.);
#202=VECTOR('',#371,1.);
#203=VECTOR('',#372,1.);
#204=VECTOR('',#377,1.);
#205=VECTOR('',#378,1.);
#206=VECTOR('',#379,1.);
#207=VECTOR('',#382,1.);
#208=VECTOR('',#383,1.);
#209=VECTOR('',#384,1.);
#210=VECTOR('',#387,1.);
#211=VECTOR('',#388,1.);
#212=VECTOR('',#389,1.);
#213=VECTOR('',#390,1.);
#214=VECTOR('',#393,1.);
#215=VECTOR('',#394,1.);
#216=VECTOR('',#397,1.);
#217=VECTOR('',#400,1.);
#218=VECTOR('',#401,1.);
#219=VECTOR('',#404,1.);
#220=VECTOR('',#407,1.);
#221=VECTOR('',#410,1.);
#222=VECTOR('',#413,1.);
#223=VECTOR('',#416,1.);
#224=VECTOR('',#417,1.);
#225=VECTOR('',#420,1.);
#226=VECTOR('',#423,1.);
#227=VECTOR('',#426,1.);
#228=VECTOR('',#429,1.);
#229=VECTOR('',#432,1.);
#230=EDGE_LOOP('',(#15,#16,#17,#18));
#231=EDGE_LOOP('',(#19,#20,#21,#22));
#232=EDGE_LOOP('',(#23));
#233=EDGE_LOOP('',(#24,#25,#26,#27));
#234=EDGE_LOOP('',(#28));
#235=EDGE_LOOP('',(#29,#30,#31,#32));
#236=EDGE_LOOP('',(#33,#34,#35,#36));
#237=EDGE_LOOP('',(#37,#38,#39,#40));
#238=EDGE_LOOP('',(#41,#42,#43,#44));
#239=EDGE_LOOP('',(#45,#46,#47,#48));
#240=EDGE_LOOP('',(#49,#50,#51,#52));
#241=EDGE_LOOP('',(#53,#54,#55,#56));
#242=EDGE_LOOP('',(#57,#58,#59));
#243=EDGE_LOOP('',(#60,#61,#62));
#244=EDGE_LOOP('',(#63,#64,#65,#66));
#245=EDGE_LOOP('',(#67,#68,#69,#70));
#246=EDGE_LOOP('',(#71,#72,#73,#74));
#247=EDGE_LOOP('',(#75,#76,#77));
#248=EDGE_LOOP('',(#78,#79,#80));
#249=EDGE_LOOP('',(#81,#82,#83,#84));
#250=EDGE_LOOP('',(#85,#86,#87,#88));
#251=EDGE_LOOP('',(#89,#90,#91,#92));
#252=FACE_BOUND('',#230,.T.);
#253=FACE_BOUND('',#231,.T.);
#254=FACE_BOUND('',#232,.T.);
#255=FACE_BOUND('',#233,.T.);
#256=FACE_BOUND('',#234,.T.);
#257=FACE_BOUND('',#12,.T.);
#258=FACE_BOUND('',#235,.T.);
#259=FACE_BOUND('',#236,.T.);
#260=FACE_BOUND('',#237,.T.);
#261=FACE_BOUND('',#238,.T.);
#262=FACE_BOUND('',#239,.T.);
#263=FACE_BOUND('',#240,.T.);
#264=FACE_BOUND('',#241,.T.);
#265=FACE_BOUND('',#242,.T.);
#266=FACE_BOUND('',#243,.T.);
#267=FACE_BOUND('',#244,.T.);
#268=FACE_BOUND('',#245,.T.);
#269=FACE_BOUND('',#246,.T.);
#270=FACE_BOUND('',#247,.T.);
#271=FACE_BOUND('',#248,.T.);
#272=FACE_BOUND('',#249,.T.);
#273=FACE_BOUND('',#250,.T.);
#274=FACE_BOUND('',#251,.T.);
#275=PLANE('',#329);
#276=PLANE('',#330);
#277=PLANE('',#332);
#278=PLANE('',#334);
#279=PLANE('',#335);
#280=PLANE('',#336);
#281=PLANE('',#337);
#282=PLANE('',#338);
#283=PLANE('',#339);
#284=PLANE('',#340);
#285=PLANE('',#341);
#286=PLANE('',#342);
#287=PLANE('',#343);
#288=PLANE('',#344);
#289=PLANE('',#345);
#290=PLANE('',#346);
#291=PLANE('',#347);
#292=PLANE('',#348);
#293=PLANE('',#349);
#294=PLANE('',#350);
#295=ADVANCED_FACE('',(#252),#275,.T.);
#296=ADVANCED_FACE('',(#253,#254),#276,.T.);
#297=ADVANCED_FACE('',(#255),#277,.F.);
#298=ADVANCED_FACE('',(#256,#257),#13,.F.);
#299=ADVANCED_FACE('',(#258),#278,.F.);
#300=ADVANCED_FACE('',(#259),#279,.T.);
#301=ADVANCED_FACE('',(#260),#280,.F.);
#302=ADVANCED_FACE('',(#261),#281,.F.);
#303=ADVANCED_FACE('',(#262),#282,.F.);
#304=ADVANCED_FACE('',(#263),#283,.T.);
#305=ADVANCED_FACE('',(#264),#284,.T.);
#306=ADVANCED_FACE('',(#265),#285,.T.);
#307=ADVANCED_FACE('',(#266),#286,.T.);
#308=ADVANCED_FACE('',(#267),#287,.T.);
#309=ADVANCED_FACE('',(#268),#288,.F.);
#310=ADVANCED_FACE('',(#269),#289,.F.);
#311=ADVANCED_FACE('',(#270),#290,.T.);
#312=ADVANCED_FACE('',(#271),#291,.T.);
#313=ADVANCED_FACE('',(#272),#292,.T.);
#314=ADVANCED_FACE('',(#273),#293,.F.);
#315=ADVANCED_FACE('',(#274),#294,.T.);
#316=CLOSED_SHELL('',(#295,#296,#297,#298,#299,#300,#301,#302,#303,#304,
#305,#306,#307,#308,#309,#310,#311,#312,#313,#314,#315));
#317=STYLED_ITEM('',(#318),#325);
#318=PRESENTATION_STYLE_ASSIGNMENT((#319));
#319=SURFACE_STYLE_USAGE(.BOTH.,#320);
#320=SURFACE_SIDE_STYLE('',(#321));
#321=SURFACE_STYLE_FILL_AREA(#322);
#322=FILL_AREA_STYLE('',(#323));
#323=FILL_AREA_STYLE_COLOUR('',#324);
#324=COLOUR_RGB('',0.615686274509804,0.811764705882353,0.929411764705882);
#325=MANIFOLD_SOLID_BREP('Part 1',#316);
#326=SHAPE_DEFINITION_REPRESENTATION(#524,#327);
#327=SHAPE_REPRESENTATION('Part 1',(#328),#519);
#328=AXIS2_PLACEMENT_3D('',#435,#351,#352);
#329=AXIS2_PLACEMENT_3D('',#436,#353,#354);
#330=AXIS2_PLACEMENT_3D('',#445,#359,#360);
#331=AXIS2_PLACEMENT_3D('',#454,#365,#366);
#332=AXIS2_PLACEMENT_3D('',#456,#367,#368);
#333=AXIS2_PLACEMENT_3D('',#465,#373,#374);
#334=AXIS2_PLACEMENT_3D('',#467,#375,#376);
#335=AXIS2_PLACEMENT_3D('',#473,#380,#381);
#336=AXIS2_PLACEMENT_3D('',#479,#385,#386);
#337=AXIS2_PLACEMENT_3D('',#488,#391,#392);
#338=AXIS2_PLACEMENT_3D('',#491,#395,#396);
#339=AXIS2_PLACEMENT_3D('',#493,#398,#399);
#340=AXIS2_PLACEMENT_3D('',#496,#402,#403);
#341=AXIS2_PLACEMENT_3D('',#498,#405,#406);
#342=AXIS2_PLACEMENT_3D('',#500,#408,#409);
#343=AXIS2_PLACEMENT_3D('',#502,#411,#412);
#344=AXIS2_PLACEMENT_3D('',#504,#414,#415);
#345=AXIS2_PLACEMENT_3D('',#507,#418,#419);
#346=AXIS2_PLACEMENT_3D('',#509,#421,#422);
#347=AXIS2_PLACEMENT_3D('',#511,#424,#425);
#348=AXIS2_PLACEMENT_3D('',#513,#427,#428);
#349=AXIS2_PLACEMENT_3D('',#515,#430,#431);
#350=AXIS2_PLACEMENT_3D('',#517,#433,#434);
#351=DIRECTION('',(0.,0.,1.));
#352=DIRECTION('',(1.,0.,0.));
#353=DIRECTION('',(9.23646443115771E-17,-1.,0.));
#354=DIRECTION('',(1.,9.23646443115771E-17,0.));
#355=DIRECTION('',(0.,0.,1.));
#356=DIRECTION('',(1.,9.23646443115771E-17,0.));
#357=DIRECTION('',(0.,0.,1.));
#358=DIRECTION('',(-1.,-9.23646443115771E-17,0.));
#359=DIRECTION('',(0.,0.,1.));
#360=DIRECTION('',(1.,0.,0.));
#361=DIRECTION('',(0.,-1.,0.));
#362=DIRECTION('',(1.,9.23646443115771E-17,0.));
#363=DIRECTION('',(0.,1.,0.));
#364=DIRECTION('',(-1.,0.,0.));
#365=DIRECTION('',(1.9436677601981E-15,-6.12323399573677E-17,-1.));
#366=DIRECTION('',(-1.,0.,-1.9436677601981E-15));
#367=DIRECTION('',(0.,0.,1.));
#368=DIRECTION('',(1.,0.,0.));
#369=DIRECTION('',(0.,-1.,0.));
#370=DIRECTION('',(-1.,-9.23646443115771E-17,0.));
#371=DIRECTION('',(0.,1.,0.));
#372=DIRECTION('',(1.,0.,0.));
#373=DIRECTION('',(1.9436677601981E-15,-6.12323399573677E-17,-1.));
#374=DIRECTION('',(-1.,0.,-1.9436677601981E-15));
#375=DIRECTION('',(1.,0.,0.));
#376=DIRECTION('',(0.,0.,-1.));
#377=DIRECTION('',(0.,0.,-1.));
#378=DIRECTION('',(0.,-1.,0.));
#379=DIRECTION('',(0.,1.,0.));
#380=DIRECTION('',(1.,0.,0.));
#381=DIRECTION('',(0.,0.,-1.));
#382=DIRECTION('',(0.,1.,0.));
#383=DIRECTION('',(0.,0.,1.));
#384=DIRECTION('',(0.,-1.,0.));
#385=DIRECTION('',(0.,-1.,0.));
#386=DIRECTION('',(0.,0.,-1.));
#387=DIRECTION('',(-1.,0.,0.));
#388=DIRECTION('',(0.,0.,1.));
#389=DIRECTION('',(1.,0.,0.));
#390=DIRECTION('',(0.,0.,-1.));
#391=DIRECTION('',(-6.53116663345996E-17,0.707106781186547,-0.707106781186548));
#392=DIRECTION('',(-1.,-9.23646443115771E-17,0.));
#393=DIRECTION('',(-0.577350269189626,-0.577350269189626,-0.577350269189625));
#394=DIRECTION('',(0.577350269189626,-0.577350269189626,-0.577350269189626));
#395=DIRECTION('',(-0.707106781186547,0.,-0.707106781186548));
#396=DIRECTION('',(0.,1.,0.));
#397=DIRECTION('',(-0.707106781186548,0.,0.707106781186547));
#398=DIRECTION('',(0.,0.707106781186547,0.707106781186548));
#399=DIRECTION('',(-1.,0.,0.));
#400=DIRECTION('',(0.,0.707106781186548,-0.707106781186547));
#401=DIRECTION('',(0.,-0.707106781186548,0.707106781186547));
#402=DIRECTION('',(-0.707106781186547,0.,0.707106781186548));
#403=DIRECTION('',(0.,-1.,0.));
#404=DIRECTION('',(0.707106781186548,0.,0.707106781186547));
#405=DIRECTION('',(0.577350269189626,0.577350269189626,0.577350269189626));
#406=DIRECTION('',(0.707106781186548,0.,-0.707106781186547));
#407=DIRECTION('',(-0.707106781186548,0.707106781186548,0.));
#408=DIRECTION('',(-0.577350269189626,0.577350269189626,0.577350269189626));
#409=DIRECTION('',(0.707106781186548,0.,0.707106781186547));
#410=DIRECTION('',(0.707106781186548,0.707106781186548,0.));
#411=DIRECTION('',(0.707106781186548,0.707106781186548,0.));
#412=DIRECTION('',(0.,0.,-1.));
#413=DIRECTION('',(0.707106781186548,-0.707106781186548,0.));
#414=DIRECTION('',(0.,-0.707106781186547,0.707106781186548));
#415=DIRECTION('',(-1.,0.,0.));
#416=DIRECTION('',(0.,0.707106781186548,0.707106781186547));
#417=DIRECTION('',(0.,-0.707106781186548,-0.707106781186547));
#418=DIRECTION('',(0.707106781186548,-0.707106781186548,0.));
#419=DIRECTION('',(0.,0.,1.));
#420=DIRECTION('',(-0.707106781186548,-0.707106781186548,0.));
#421=DIRECTION('',(0.577350269189626,0.577350269189626,-0.577350269189626));
#422=DIRECTION('',(-0.707106781186548,0.,-0.707106781186547));
#423=DIRECTION('',(-0.707106781186548,0.,-0.707106781186547));
#424=DIRECTION('',(-0.577350269189626,0.577350269189626,-0.577350269189626));
#425=DIRECTION('',(-0.707106781186548,0.,0.707106781186547));
#426=DIRECTION('',(0.707106781186548,0.,-0.707106781186547));
#427=DIRECTION('',(0.707106781186547,0.,-0.707106781186548));
#428=DIRECTION('',(0.,1.,0.));
#429=DIRECTION('',(-0.577350269189626,0.577350269189626,-0.577350269189626));
#430=DIRECTION('',(0.707106781186547,0.,0.707106781186548));
#431=DIRECTION('',(0.,-1.,0.));
#432=DIRECTION('',(0.577350269189626,0.577350269189626,-0.577350269189625));
#433=DIRECTION('',(6.53116663345996E-17,-0.707106781186547,-0.707106781186548));
#434=DIRECTION('',(1.,9.23646443115771E-17,0.));
#435=CARTESIAN_POINT('',(0.,0.,0.));
#436=CARTESIAN_POINT('',(0.,-0.075125,0.00615));
#437=CARTESIAN_POINT('',(-0.03,-0.075125,-2.00000000000027E-6));
#438=CARTESIAN_POINT('',(-0.03,-0.075125,0.001));
#439=CARTESIAN_POINT('',(-0.03,-0.075125,0.00515));
#440=CARTESIAN_POINT('',(0.03,-0.075125,0.001));
#441=CARTESIAN_POINT('',(0.03,-0.075125,0.001));
#442=CARTESIAN_POINT('',(0.03,-0.075125,-2.00000000000027E-6));
#443=CARTESIAN_POINT('',(0.03,-0.075125,0.00515));
#444=CARTESIAN_POINT('',(0.,-0.075125,0.00515));
#445=CARTESIAN_POINT('',(1.38777878078145E-17,1.38777878078145E-17,0.00615));
#446=CARTESIAN_POINT('',(-0.029,-0.075125,0.00615));
#447=CARTESIAN_POINT('',(-0.029,0.029,0.00615));
#448=CARTESIAN_POINT('',(-0.029,-0.074125,0.00615));
#449=CARTESIAN_POINT('',(2.07243170674101E-17,-0.074125,0.00615));
#450=CARTESIAN_POINT('',(0.029,-0.074125,0.00615));
#451=CARTESIAN_POINT('',(0.029,1.38777878078145E-17,0.00615));
#452=CARTESIAN_POINT('',(0.029,0.029,0.00615));
#453=CARTESIAN_POINT('',(-0.03,0.029,0.00615));
#454=CARTESIAN_POINT('',(5.5081596409475E-32,-9.74316105944706E-19,0.00615));
#455=CARTESIAN_POINT('',(-0.015,-9.74316105944706E-19,0.00614999999999997));
#456=CARTESIAN_POINT('',(1.38777878078145E-17,1.38777878078145E-17,0.));
#457=CARTESIAN_POINT('',(0.029,-0.075125,0.));
#458=CARTESIAN_POINT('',(0.029,0.029,0.));
#459=CARTESIAN_POINT('',(0.029,-0.074125,0.));
#460=CARTESIAN_POINT('',(-0.03,-0.074125,0.));
#461=CARTESIAN_POINT('',(-0.029,-0.074125,0.));
#462=CARTESIAN_POINT('',(-0.029,1.38777878078145E-17,0.));
#463=CARTESIAN_POINT('',(-0.029,0.029,0.));
#464=CARTESIAN_POINT('',(1.38777878078145E-17,0.029,0.));
#465=CARTESIAN_POINT('',(-6.61905426302401E-17,1.11020403010884E-18,0.0401927972784459));
#466=CARTESIAN_POINT('',(5.78241158658936E-18,-1.15648231731787E-18,0.003175));
#467=CARTESIAN_POINT('',(-0.03,-0.0225625,-2.00000000000027E-6));
#468=CARTESIAN_POINT('',(-0.03,0.029,-2.00000000000027E-6));
#469=CARTESIAN_POINT('',(-0.03,0.029,0.00515));
#470=CARTESIAN_POINT('',(-0.03,0.029,0.001));
#471=CARTESIAN_POINT('',(-0.03,-0.0225625,0.001));
#472=CARTESIAN_POINT('',(-0.03,0.03,0.00515));
#473=CARTESIAN_POINT('',(0.03,-0.0225625,-2.00000000000027E-6));
#474=CARTESIAN_POINT('',(0.03,0.03,0.001));
#475=CARTESIAN_POINT('',(0.03,0.029,0.001));
#476=CARTESIAN_POINT('',(0.03,0.029,0.00615));
#477=CARTESIAN_POINT('',(0.03,0.029,0.00515));
#478=CARTESIAN_POINT('',(0.03,-0.0225625,0.00515));
#479=CARTESIAN_POINT('',(-1.7347234759768E-17,0.03,-2.00000000000027E-6));
#480=CARTESIAN_POINT('',(-1.7347234759768E-17,0.03,0.001));
#481=CARTESIAN_POINT('',(0.029,0.03,0.001));
#482=CARTESIAN_POINT('',(-0.029,0.03,0.001));
#483=CARTESIAN_POINT('',(-0.029,0.03,-2.00000000000027E-6));
#484=CARTESIAN_POINT('',(-0.029,0.03,0.00515));
#485=CARTESIAN_POINT('',(0.03,0.03,0.00515));
#486=CARTESIAN_POINT('',(0.029,0.03,0.00515));
#487=CARTESIAN_POINT('',(0.029,0.03,0.));
#488=CARTESIAN_POINT('',(0.,-0.075125,0.00515));
#489=CARTESIAN_POINT('',(-0.0124791666666666,-0.0576041666666667,0.0226708333333333));
#490=CARTESIAN_POINT('',(0.00429166666666664,-0.0494166666666667,0.0308583333333333));
#491=CARTESIAN_POINT('',(0.029,1.38777878078145E-17,0.00615));
#492=CARTESIAN_POINT('',(0.029,0.029,0.00615));
#493=CARTESIAN_POINT('',(-1.7347234759768E-17,0.03,0.00515));
#494=CARTESIAN_POINT('',(-0.029,0.0295,0.00565));
#495=CARTESIAN_POINT('',(0.029,0.029,0.00615));
#496=CARTESIAN_POINT('',(-0.03,-0.0225625,0.00515));
#497=CARTESIAN_POINT('',(-0.03,0.029,0.00515));
#498=CARTESIAN_POINT('',(0.029,0.029,0.00615));
#499=CARTESIAN_POINT('',(0.0295,0.0295,0.00515));
#500=CARTESIAN_POINT('',(-0.03,0.029,0.00515));
#501=CARTESIAN_POINT('',(-0.03,0.029,0.00515));
#502=CARTESIAN_POINT('',(0.03,0.029,-2.00000000000027E-6));
#503=CARTESIAN_POINT('',(0.03,0.029,0.001));
#504=CARTESIAN_POINT('',(-1.7347234759768E-17,0.03,0.001));
#505=CARTESIAN_POINT('',(-0.029,0.029,0.));
#506=CARTESIAN_POINT('',(0.029,0.0295,0.0005));
#507=CARTESIAN_POINT('',(-0.029,0.03,-2.00000000000027E-6));
#508=CARTESIAN_POINT('',(-0.0295,0.0295,0.001));
#509=CARTESIAN_POINT('',(0.03,0.029,0.001));
#510=CARTESIAN_POINT('',(0.03,0.029,0.001));
#511=CARTESIAN_POINT('',(-0.029,0.029,0.));
#512=CARTESIAN_POINT('',(-0.029,0.029,0.));
#513=CARTESIAN_POINT('',(0.029,1.38777878078145E-17,0.));
#514=CARTESIAN_POINT('',(0.00429166666666664,-0.0494166666666667,-0.0247083333333333));
#515=CARTESIAN_POINT('',(-0.03,-0.0225625,0.001));
#516=CARTESIAN_POINT('',(-0.0124791666666667,-0.0576041666666667,-0.0165208333333333));
#517=CARTESIAN_POINT('',(2.07243170674101E-17,-0.074125,0.));
#518=MECHANICAL_DESIGN_GEOMETRIC_PRESENTATION_REPRESENTATION('',(#317),
#519);
#519=(
GEOMETRIC_REPRESENTATION_CONTEXT(3)
GLOBAL_UNCERTAINTY_ASSIGNED_CONTEXT((#520))
GLOBAL_UNIT_ASSIGNED_CONTEXT((#523,#522,#521))
REPRESENTATION_CONTEXT('Part 1','TOP_LEVEL_ASSEMBLY_PART')
);
#520=UNCERTAINTY_MEASURE_WITH_UNIT(LENGTH_MEASURE(1.E-8),#523,
'DISTANCE_ACCURACY_VALUE','Maximum Tolerance applied to model');
#521=(
NAMED_UNIT(*)
SI_UNIT($,.STERADIAN.)
SOLID_ANGLE_UNIT()
);
#522=(
NAMED_UNIT(*)
PLANE_ANGLE_UNIT()
SI_UNIT($,.RADIAN.)
);
#523=(
LENGTH_UNIT()
NAMED_UNIT(*)
SI_UNIT($,.METRE.)
);
#524=PRODUCT_DEFINITION_SHAPE('','',#525);
#525=PRODUCT_DEFINITION('','',#527,#526);
#526=PRODUCT_DEFINITION_CONTEXT('',#533,'design');
#527=PRODUCT_DEFINITION_FORMATION_WITH_SPECIFIED_SOURCE('','',#529,
 .NOT_KNOWN.);
#528=PRODUCT_RELATED_PRODUCT_CATEGORY('','',(#529));
#529=PRODUCT('Part 1','Part 1','Part 1',(#531));
#530=PRODUCT_CATEGORY('','');
#531=PRODUCT_CONTEXT('',#533,'mechanical');
#532=APPLICATION_PROTOCOL_DEFINITION('international standard',
'ap242_managed_model_based_3d_engineering',2020,#533);
#533=APPLICATION_CONTEXT('managed model based 3d engineering');
ENDSEC;
END-ISO-10303-21;
