ISO-10303-21;
HEADER;
/* Generated by software containing ST-Developer
 * from STEP Tools, Inc. (www.steptools.com) 
 */
/* OPTION: using custom renumber hook */

FILE_DESCRIPTION(
/* description */ ('STEP AP242 Edition 2',
'CAx-IF Rec.Pracs.---Representation and Presentation of Product Manufa
cturing Information (PMI)---4.0---2014-10-13',
'CAx-IF Rec.Pracs.---3D Tessellated Geometry---0.4---2014-09-14','2;1',
'CAx-IF Rec.Pracs.---User Defined Attributes---1.5---2016-08-15'),
/* implementation_level */ '2;1');

FILE_NAME(
/* name */ 'N-Metheus - Bottom Left Front',
/* time_stamp */ '2026-01-30T20:52:38Z',
/* author */ (''),
/* organization */ (''),
/* preprocessor_version */ 'ST-DEVELOPER v20',
/* originating_system */ 'ONSHAPE BY PTC INC, 1.210',
/* authorisation */ '  ');

FILE_SCHEMA (('AP242_MANAGED_MODEL_BASED_3D_ENGINEERING_MIM_LF { 1 0 10303 442 3 1 4 }'));
ENDSEC;

DATA;
#10=SHAPE_REPRESENTATION_RELATIONSHIP('','',#1116,#11);
#11=ADVANCED_BREP_SHAPE_REPRESENTATION('',(#1114),#1940);
#12=TOROIDAL_SURFACE('',#1168,0.006,0.001);
#13=TOROIDAL_SURFACE('',#1173,0.005826,0.001);
#14=TOROIDAL_SURFACE('',#1180,0.006,0.001);
#15=TOROIDAL_SURFACE('',#1183,0.0204,0.005);
#16=(
BOUNDED_SURFACE()
B_SPLINE_SURFACE(3,2,((#1752,#1753,#1754),(#1755,#1756,#1757),(#1758,#1759,
#1760),(#1761,#1762,#1763),(#1764,#1765,#1766),(#1767,#1768,#1769),(#1770,
#1771,#1772),(#1773,#1774,#1775)),.UNSPECIFIED.,.F.,.F.,.F.)
B_SPLINE_SURFACE_WITH_KNOTS((4,1,1,1,1,4),(3,3),(4.77048955893622E-17,0.00151575555027906,
0.00303151110055806,0.00606302220111608,0.00909453330167409,0.0121260444022321),
(0.,1.),.UNSPECIFIED.)
GEOMETRIC_REPRESENTATION_ITEM()
RATIONAL_B_SPLINE_SURFACE(((1.,0.707106781186544,1.),(1.,0.711514439299998,
1.),(1.,0.734447036534023,1.),(1.,0.810565740166508,1.),(1.,0.909716623180626,
1.),(1.,0.983295243082889,1.),(1.,0.999999999999663,1.),(1.,1.,1.)))
REPRESENTATION_ITEM('')
SURFACE()
);
#17=(
BOUNDED_SURFACE()
B_SPLINE_SURFACE(3,2,((#1815,#1816,#1817),(#1818,#1819,#1820),(#1821,#1822,
#1823),(#1824,#1825,#1826),(#1827,#1828,#1829),(#1830,#1831,#1832),(#1833,
#1834,#1835),(#1836,#1837,#1838)),.UNSPECIFIED.,.F.,.F.,.F.)
B_SPLINE_SURFACE_WITH_KNOTS((4,1,1,1,1,4),(3,3),(4.66206934168767E-17,0.00151575555027906,
0.00303151110055806,0.00606302220111608,0.0090945333016741,0.0121260444022321),
(0.,1.),.UNSPECIFIED.)
GEOMETRIC_REPRESENTATION_ITEM()
RATIONAL_B_SPLINE_SURFACE(((1.,0.707106781186544,1.),(1.,0.711514439299998,
1.),(1.,0.73444703653402,1.),(1.,0.810565740166524,1.),(1.,0.909716623180621,
1.),(1.,0.983295243082891,1.),(1.,0.999999999999663,1.),(1.,1.,1.)))
REPRESENTATION_ITEM('')
SURFACE()
);
#18=B_SPLINE_CURVE_WITH_KNOTS('',3,(#1568,#1569,#1570,#1571,#1572,#1573,
#1574),.UNSPECIFIED.,.F.,.F.,(4,1,1,1,4),(0.,0.00130897590195964,0.00261795180391928,
0.00392692770587892,0.00523590360783856),.UNSPECIFIED.);
#19=B_SPLINE_CURVE_WITH_KNOTS('',3,(#1583,#1584,#1585,#1586,#1587,#1588,
#1589,#1590,#1591,#1592,#1593),.UNSPECIFIED.,.T.,.F.,(1,1,1,1,1,1,1,1,1,
1,1,1,1,1,1),(-0.00492518945724081,-0.00328345963816054,-0.00164172981908027,
0.,0.00164172981908027,0.00328345963816054,0.00492518945724081,0.00656691927632107,
0.00820864909540134,0.00985037891448161,0.0114921087335619,0.0131338385526421,
0.0147755683717224,0.0164172981908027,0.018059028009883),.UNSPECIFIED.);
#20=B_SPLINE_CURVE_WITH_KNOTS('',3,(#1596,#1597,#1598,#1599,#1600,#1601,
#1602),.UNSPECIFIED.,.F.,.F.,(4,1,1,1,4),(0.,0.00251913007562127,0.00503826015124253,
0.0075573902268638,0.0100765203024851),.UNSPECIFIED.);
#21=B_SPLINE_CURVE_WITH_KNOTS('',3,(#1608,#1609,#1610,#1611,#1612,#1613,
#1614,#1615,#1616,#1617,#1618),.UNSPECIFIED.,.T.,.F.,(1,1,1,1,1,1,1,1,1,
1,1,1,1,1,1),(-0.00845104411548189,-0.0056340293691035,-0.00281701462272512,
1.23653268184262E-10,0.00281701487003165,0.00563402961641004,0.00845104436278842,
0.0112680591091668,0.0140850738555452,0.0169020886019236,0.019719103348302,
0.0225361180946804,0.0253531328410587,0.0281701475874371,0.0309871623338155),
 .UNSPECIFIED.);
#22=B_SPLINE_CURVE_WITH_KNOTS('',3,(#1703,#1704,#1705,#1706,#1707,#1708,
#1709),.UNSPECIFIED.,.F.,.F.,(4,1,1,1,4),(0.00738407153016142,0.00844648556783755,
0.00950889960551368,0.0105713136431898,0.0116337276808659),
 .UNSPECIFIED.);
#23=B_SPLINE_CURVE_WITH_KNOTS('',3,(#1776,#1777,#1778,#1779,#1780,#1781,
#1782),.UNSPECIFIED.,.F.,.F.,(4,1,1,1,4),(0.,0.00268923395091276,0.00537846790182551,
0.00806770185273827,0.010756935803651),.UNSPECIFIED.);
#24=B_SPLINE_CURVE_WITH_KNOTS('',3,(#1783,#1784,#1785,#1786,#1787,#1788,
#1789),.UNSPECIFIED.,.F.,.F.,(4,1,1,1,4),(0.,0.00266936168852445,0.0053387233770489,
0.00800808506557335,0.0106774467540978),.UNSPECIFIED.);
#25=B_SPLINE_CURVE_WITH_KNOTS('',3,(#1839,#1840,#1841,#1842,#1843,#1844,
#1845),.UNSPECIFIED.,.F.,.F.,(4,1,1,1,4),(0.,0.00266936168852445,0.00533872337704891,
0.00800808506557336,0.0106774467540978),.UNSPECIFIED.);
#26=B_SPLINE_CURVE_WITH_KNOTS('',3,(#1846,#1847,#1848,#1849,#1850,#1851,
#1852),.UNSPECIFIED.,.F.,.F.,(4,1,1,1,4),(0.,0.00268923395091276,0.00537846790182552,
0.00806770185273828,0.010756935803651),.UNSPECIFIED.);
#27=CYLINDRICAL_SURFACE('',#1125,0.0294999999999962);
#28=CYLINDRICAL_SURFACE('',#1128,0.0254);
#29=CYLINDRICAL_SURFACE('',#1139,0.0021);
#30=CYLINDRICAL_SURFACE('',#1143,0.0036);
#31=CYLINDRICAL_SURFACE('',#1149,0.0076);
#32=CYLINDRICAL_SURFACE('',#1152,0.0254);
#33=CYLINDRICAL_SURFACE('',#1158,0.004826);
#34=CYLINDRICAL_SURFACE('',#1171,0.001);
#35=CYLINDRICAL_SURFACE('',#1176,0.001);
#36=CYLINDRICAL_SURFACE('',#1188,0.005);
#37=CYLINDRICAL_SURFACE('',#1191,0.006826);
#38=CYLINDRICAL_SURFACE('',#1194,0.003175);
#39=CYLINDRICAL_SURFACE('',#1196,0.005);
#40=CYLINDRICAL_SURFACE('',#1206,0.0015);
#41=CIRCLE('',#1121,0.0254);
#42=CIRCLE('',#1122,0.0294999999999962);
#43=CIRCLE('',#1124,0.0076);
#44=CIRCLE('',#1126,0.0294999999999962);
#45=CIRCLE('',#1127,0.0294999999999962);
#46=CIRCLE('',#1129,0.0254);
#47=CIRCLE('',#1130,0.0254);
#48=CIRCLE('',#1140,0.0021);
#49=CIRCLE('',#1142,0.0036);
#50=CIRCLE('',#1145,0.0254);
#51=CIRCLE('',#1147,0.0015);
#52=CIRCLE('',#1148,0.0076);
#53=CIRCLE('',#1153,0.0254);
#54=CIRCLE('',#1154,0.0254);
#55=CIRCLE('',#1155,0.0254);
#56=CIRCLE('',#1159,0.004826);
#57=CIRCLE('',#1160,0.004826);
#58=CIRCLE('',#1162,0.006);
#59=CIRCLE('',#1163,0.0204);
#60=CIRCLE('',#1164,0.006);
#61=CIRCLE('',#1165,0.005826);
#62=CIRCLE('',#1167,0.001);
#63=CIRCLE('',#1169,0.005);
#64=CIRCLE('',#1170,0.001);
#65=CIRCLE('',#1172,0.001);
#66=CIRCLE('',#1174,0.006826);
#67=CIRCLE('',#1175,0.001);
#68=CIRCLE('',#1177,0.001);
#69=CIRCLE('',#1179,0.003175);
#70=CIRCLE('',#1181,0.005);
#71=CIRCLE('',#1182,0.001);
#72=CIRCLE('',#1185,0.005);
#73=CIRCLE('',#1189,0.005);
#74=CIRCLE('',#1192,0.006826);
#75=CIRCLE('',#1195,0.003175);
#76=CIRCLE('',#1197,0.005);
#77=CIRCLE('',#1198,0.005);
#78=ORIENTED_EDGE('',*,*,#386,.F.);
#79=ORIENTED_EDGE('',*,*,#387,.F.);
#80=ORIENTED_EDGE('',*,*,#388,.T.);
#81=ORIENTED_EDGE('',*,*,#389,.T.);
#82=ORIENTED_EDGE('',*,*,#390,.F.);
#83=ORIENTED_EDGE('',*,*,#391,.T.);
#84=ORIENTED_EDGE('',*,*,#392,.T.);
#85=ORIENTED_EDGE('',*,*,#393,.T.);
#86=ORIENTED_EDGE('',*,*,#394,.T.);
#87=ORIENTED_EDGE('',*,*,#395,.F.);
#88=ORIENTED_EDGE('',*,*,#396,.F.);
#89=ORIENTED_EDGE('',*,*,#397,.T.);
#90=ORIENTED_EDGE('',*,*,#398,.F.);
#91=ORIENTED_EDGE('',*,*,#399,.T.);
#92=ORIENTED_EDGE('',*,*,#400,.T.);
#93=ORIENTED_EDGE('',*,*,#401,.T.);
#94=ORIENTED_EDGE('',*,*,#402,.F.);
#95=ORIENTED_EDGE('',*,*,#403,.F.);
#96=ORIENTED_EDGE('',*,*,#404,.T.);
#97=ORIENTED_EDGE('',*,*,#405,.F.);
#98=ORIENTED_EDGE('',*,*,#406,.T.);
#99=ORIENTED_EDGE('',*,*,#407,.T.);
#100=ORIENTED_EDGE('',*,*,#388,.F.);
#101=ORIENTED_EDGE('',*,*,#408,.F.);
#102=ORIENTED_EDGE('',*,*,#409,.F.);
#103=ORIENTED_EDGE('',*,*,#410,.T.);
#104=ORIENTED_EDGE('',*,*,#411,.F.);
#105=ORIENTED_EDGE('',*,*,#403,.T.);
#106=ORIENTED_EDGE('',*,*,#412,.F.);
#107=ORIENTED_EDGE('',*,*,#413,.F.);
#108=ORIENTED_EDGE('',*,*,#414,.T.);
#109=ORIENTED_EDGE('',*,*,#415,.T.);
#110=ORIENTED_EDGE('',*,*,#416,.F.);
#111=ORIENTED_EDGE('',*,*,#417,.F.);
#112=ORIENTED_EDGE('',*,*,#404,.F.);
#113=ORIENTED_EDGE('',*,*,#418,.F.);
#114=ORIENTED_EDGE('',*,*,#419,.T.);
#115=ORIENTED_EDGE('',*,*,#420,.F.);
#116=ORIENTED_EDGE('',*,*,#406,.F.);
#117=ORIENTED_EDGE('',*,*,#421,.F.);
#118=ORIENTED_EDGE('',*,*,#402,.T.);
#119=ORIENTED_EDGE('',*,*,#422,.F.);
#120=ORIENTED_EDGE('',*,*,#423,.F.);
#121=ORIENTED_EDGE('',*,*,#412,.T.);
#122=ORIENTED_EDGE('',*,*,#424,.T.);
#123=ORIENTED_EDGE('',*,*,#414,.F.);
#124=ORIENTED_EDGE('',*,*,#425,.F.);
#125=ORIENTED_EDGE('',*,*,#426,.T.);
#126=ORIENTED_EDGE('',*,*,#409,.T.);
#127=ORIENTED_EDGE('',*,*,#427,.F.);
#128=ORIENTED_EDGE('',*,*,#428,.F.);
#129=ORIENTED_EDGE('',*,*,#429,.T.);
#130=ORIENTED_EDGE('',*,*,#426,.F.);
#131=ORIENTED_EDGE('',*,*,#430,.T.);
#132=ORIENTED_EDGE('',*,*,#431,.T.);
#133=ORIENTED_EDGE('',*,*,#432,.F.);
#134=ORIENTED_EDGE('',*,*,#433,.T.);
#135=ORIENTED_EDGE('',*,*,#434,.T.);
#136=ORIENTED_EDGE('',*,*,#419,.F.);
#137=ORIENTED_EDGE('',*,*,#435,.F.);
#138=ORIENTED_EDGE('',*,*,#436,.T.);
#139=ORIENTED_EDGE('',*,*,#437,.T.);
#140=ORIENTED_EDGE('',*,*,#431,.F.);
#141=ORIENTED_EDGE('',*,*,#438,.F.);
#142=ORIENTED_EDGE('',*,*,#439,.T.);
#143=ORIENTED_EDGE('',*,*,#440,.F.);
#144=ORIENTED_EDGE('',*,*,#441,.F.);
#145=ORIENTED_EDGE('',*,*,#442,.T.);
#146=ORIENTED_EDGE('',*,*,#436,.F.);
#147=ORIENTED_EDGE('',*,*,#443,.F.);
#148=ORIENTED_EDGE('',*,*,#422,.T.);
#149=ORIENTED_EDGE('',*,*,#401,.F.);
#150=ORIENTED_EDGE('',*,*,#444,.T.);
#151=ORIENTED_EDGE('',*,*,#445,.T.);
#152=ORIENTED_EDGE('',*,*,#439,.F.);
#153=ORIENTED_EDGE('',*,*,#446,.F.);
#154=ORIENTED_EDGE('',*,*,#423,.T.);
#155=ORIENTED_EDGE('',*,*,#446,.T.);
#156=ORIENTED_EDGE('',*,*,#443,.T.);
#157=ORIENTED_EDGE('',*,*,#438,.T.);
#158=ORIENTED_EDGE('',*,*,#435,.T.);
#159=ORIENTED_EDGE('',*,*,#418,.T.);
#160=ORIENTED_EDGE('',*,*,#410,.F.);
#161=ORIENTED_EDGE('',*,*,#430,.F.);
#162=ORIENTED_EDGE('',*,*,#425,.T.);
#163=ORIENTED_EDGE('',*,*,#413,.T.);
#164=ORIENTED_EDGE('',*,*,#416,.T.);
#165=ORIENTED_EDGE('',*,*,#447,.T.);
#166=ORIENTED_EDGE('',*,*,#447,.F.);
#167=ORIENTED_EDGE('',*,*,#448,.T.);
#168=ORIENTED_EDGE('',*,*,#448,.F.);
#169=ORIENTED_EDGE('',*,*,#421,.T.);
#170=ORIENTED_EDGE('',*,*,#449,.F.);
#171=ORIENTED_EDGE('',*,*,#415,.F.);
#172=ORIENTED_EDGE('',*,*,#424,.F.);
#173=ORIENTED_EDGE('',*,*,#429,.F.);
#174=ORIENTED_EDGE('',*,*,#450,.F.);
#175=ORIENTED_EDGE('',*,*,#451,.T.);
#176=ORIENTED_EDGE('',*,*,#452,.F.);
#177=ORIENTED_EDGE('',*,*,#453,.T.);
#178=ORIENTED_EDGE('',*,*,#453,.F.);
#179=ORIENTED_EDGE('',*,*,#405,.T.);
#180=ORIENTED_EDGE('',*,*,#417,.T.);
#181=ORIENTED_EDGE('',*,*,#454,.F.);
#182=ORIENTED_EDGE('',*,*,#455,.F.);
#183=ORIENTED_EDGE('',*,*,#456,.T.);
#184=ORIENTED_EDGE('',*,*,#450,.T.);
#185=ORIENTED_EDGE('',*,*,#428,.T.);
#186=ORIENTED_EDGE('',*,*,#457,.T.);
#187=ORIENTED_EDGE('',*,*,#399,.F.);
#188=ORIENTED_EDGE('',*,*,#458,.T.);
#189=ORIENTED_EDGE('',*,*,#459,.T.);
#190=ORIENTED_EDGE('',*,*,#460,.F.);
#191=ORIENTED_EDGE('',*,*,#397,.F.);
#192=ORIENTED_EDGE('',*,*,#461,.F.);
#193=ORIENTED_EDGE('',*,*,#451,.F.);
#194=ORIENTED_EDGE('',*,*,#456,.F.);
#195=ORIENTED_EDGE('',*,*,#462,.T.);
#196=ORIENTED_EDGE('',*,*,#463,.T.);
#197=ORIENTED_EDGE('',*,*,#464,.T.);
#198=ORIENTED_EDGE('',*,*,#465,.T.);
#199=ORIENTED_EDGE('',*,*,#466,.T.);
#200=ORIENTED_EDGE('',*,*,#467,.F.);
#201=ORIENTED_EDGE('',*,*,#400,.F.);
#202=ORIENTED_EDGE('',*,*,#460,.T.);
#203=ORIENTED_EDGE('',*,*,#468,.F.);
#204=ORIENTED_EDGE('',*,*,#469,.F.);
#205=ORIENTED_EDGE('',*,*,#470,.T.);
#206=ORIENTED_EDGE('',*,*,#444,.F.);
#207=ORIENTED_EDGE('',*,*,#458,.F.);
#208=ORIENTED_EDGE('',*,*,#398,.T.);
#209=ORIENTED_EDGE('',*,*,#467,.T.);
#210=ORIENTED_EDGE('',*,*,#471,.F.);
#211=ORIENTED_EDGE('',*,*,#392,.F.);
#212=ORIENTED_EDGE('',*,*,#472,.T.);
#213=ORIENTED_EDGE('',*,*,#473,.T.);
#214=ORIENTED_EDGE('',*,*,#474,.F.);
#215=ORIENTED_EDGE('',*,*,#474,.T.);
#216=ORIENTED_EDGE('',*,*,#475,.T.);
#217=ORIENTED_EDGE('',*,*,#476,.T.);
#218=ORIENTED_EDGE('',*,*,#477,.T.);
#219=ORIENTED_EDGE('',*,*,#478,.T.);
#220=ORIENTED_EDGE('',*,*,#479,.T.);
#221=ORIENTED_EDGE('',*,*,#480,.T.);
#222=ORIENTED_EDGE('',*,*,#481,.F.);
#223=ORIENTED_EDGE('',*,*,#457,.F.);
#224=ORIENTED_EDGE('',*,*,#427,.T.);
#225=ORIENTED_EDGE('',*,*,#408,.T.);
#226=ORIENTED_EDGE('',*,*,#387,.T.);
#227=ORIENTED_EDGE('',*,*,#482,.F.);
#228=ORIENTED_EDGE('',*,*,#483,.F.);
#229=ORIENTED_EDGE('',*,*,#484,.F.);
#230=ORIENTED_EDGE('',*,*,#485,.F.);
#231=ORIENTED_EDGE('',*,*,#485,.T.);
#232=ORIENTED_EDGE('',*,*,#486,.F.);
#233=ORIENTED_EDGE('',*,*,#487,.F.);
#234=ORIENTED_EDGE('',*,*,#478,.F.);
#235=ORIENTED_EDGE('',*,*,#487,.T.);
#236=ORIENTED_EDGE('',*,*,#488,.F.);
#237=ORIENTED_EDGE('',*,*,#489,.F.);
#238=ORIENTED_EDGE('',*,*,#479,.F.);
#239=ORIENTED_EDGE('',*,*,#489,.T.);
#240=ORIENTED_EDGE('',*,*,#490,.F.);
#241=ORIENTED_EDGE('',*,*,#491,.F.);
#242=ORIENTED_EDGE('',*,*,#480,.F.);
#243=ORIENTED_EDGE('',*,*,#491,.T.);
#244=ORIENTED_EDGE('',*,*,#492,.F.);
#245=ORIENTED_EDGE('',*,*,#493,.F.);
#246=ORIENTED_EDGE('',*,*,#475,.F.);
#247=ORIENTED_EDGE('',*,*,#494,.T.);
#248=ORIENTED_EDGE('',*,*,#473,.F.);
#249=ORIENTED_EDGE('',*,*,#493,.T.);
#250=ORIENTED_EDGE('',*,*,#495,.F.);
#251=ORIENTED_EDGE('',*,*,#496,.F.);
#252=ORIENTED_EDGE('',*,*,#476,.F.);
#253=ORIENTED_EDGE('',*,*,#496,.T.);
#254=ORIENTED_EDGE('',*,*,#497,.F.);
#255=ORIENTED_EDGE('',*,*,#498,.F.);
#256=ORIENTED_EDGE('',*,*,#477,.F.);
#257=ORIENTED_EDGE('',*,*,#498,.T.);
#258=ORIENTED_EDGE('',*,*,#464,.F.);
#259=ORIENTED_EDGE('',*,*,#483,.T.);
#260=ORIENTED_EDGE('',*,*,#455,.T.);
#261=ORIENTED_EDGE('',*,*,#499,.T.);
#262=ORIENTED_EDGE('',*,*,#500,.T.);
#263=ORIENTED_EDGE('',*,*,#501,.T.);
#264=ORIENTED_EDGE('',*,*,#502,.F.);
#265=ORIENTED_EDGE('',*,*,#462,.F.);
#266=ORIENTED_EDGE('',*,*,#503,.F.);
#267=ORIENTED_EDGE('',*,*,#504,.T.);
#268=ORIENTED_EDGE('',*,*,#505,.T.);
#269=ORIENTED_EDGE('',*,*,#500,.F.);
#270=ORIENTED_EDGE('',*,*,#505,.F.);
#271=ORIENTED_EDGE('',*,*,#506,.T.);
#272=ORIENTED_EDGE('',*,*,#507,.T.);
#273=ORIENTED_EDGE('',*,*,#501,.F.);
#274=ORIENTED_EDGE('',*,*,#507,.F.);
#275=ORIENTED_EDGE('',*,*,#508,.F.);
#276=ORIENTED_EDGE('',*,*,#509,.F.);
#277=ORIENTED_EDGE('',*,*,#486,.T.);
#278=ORIENTED_EDGE('',*,*,#484,.T.);
#279=ORIENTED_EDGE('',*,*,#463,.F.);
#280=ORIENTED_EDGE('',*,*,#502,.T.);
#281=ORIENTED_EDGE('',*,*,#510,.F.);
#282=ORIENTED_EDGE('',*,*,#488,.T.);
#283=ORIENTED_EDGE('',*,*,#509,.T.);
#284=ORIENTED_EDGE('',*,*,#511,.F.);
#285=ORIENTED_EDGE('',*,*,#512,.F.);
#286=ORIENTED_EDGE('',*,*,#490,.T.);
#287=ORIENTED_EDGE('',*,*,#510,.T.);
#288=ORIENTED_EDGE('',*,*,#513,.T.);
#289=ORIENTED_EDGE('',*,*,#514,.T.);
#290=ORIENTED_EDGE('',*,*,#492,.T.);
#291=ORIENTED_EDGE('',*,*,#512,.T.);
#292=ORIENTED_EDGE('',*,*,#515,.T.);
#293=ORIENTED_EDGE('',*,*,#494,.F.);
#294=ORIENTED_EDGE('',*,*,#516,.T.);
#295=ORIENTED_EDGE('',*,*,#517,.F.);
#296=ORIENTED_EDGE('',*,*,#518,.T.);
#297=ORIENTED_EDGE('',*,*,#519,.T.);
#298=ORIENTED_EDGE('',*,*,#465,.F.);
#299=ORIENTED_EDGE('',*,*,#497,.T.);
#300=ORIENTED_EDGE('',*,*,#495,.T.);
#301=ORIENTED_EDGE('',*,*,#514,.F.);
#302=ORIENTED_EDGE('',*,*,#393,.F.);
#303=ORIENTED_EDGE('',*,*,#471,.T.);
#304=ORIENTED_EDGE('',*,*,#466,.F.);
#305=ORIENTED_EDGE('',*,*,#519,.F.);
#306=ORIENTED_EDGE('',*,*,#520,.F.);
#307=ORIENTED_EDGE('',*,*,#394,.F.);
#308=ORIENTED_EDGE('',*,*,#520,.T.);
#309=ORIENTED_EDGE('',*,*,#518,.F.);
#310=ORIENTED_EDGE('',*,*,#521,.F.);
#311=ORIENTED_EDGE('',*,*,#522,.F.);
#312=ORIENTED_EDGE('',*,*,#440,.T.);
#313=ORIENTED_EDGE('',*,*,#445,.F.);
#314=ORIENTED_EDGE('',*,*,#470,.F.);
#315=ORIENTED_EDGE('',*,*,#523,.T.);
#316=ORIENTED_EDGE('',*,*,#524,.T.);
#317=ORIENTED_EDGE('',*,*,#391,.F.);
#318=ORIENTED_EDGE('',*,*,#525,.F.);
#319=ORIENTED_EDGE('',*,*,#526,.T.);
#320=ORIENTED_EDGE('',*,*,#468,.T.);
#321=ORIENTED_EDGE('',*,*,#459,.F.);
#322=ORIENTED_EDGE('',*,*,#472,.F.);
#323=ORIENTED_EDGE('',*,*,#527,.F.);
#324=ORIENTED_EDGE('',*,*,#432,.T.);
#325=ORIENTED_EDGE('',*,*,#437,.F.);
#326=ORIENTED_EDGE('',*,*,#442,.F.);
#327=ORIENTED_EDGE('',*,*,#528,.T.);
#328=ORIENTED_EDGE('',*,*,#529,.T.);
#329=ORIENTED_EDGE('',*,*,#389,.F.);
#330=ORIENTED_EDGE('',*,*,#407,.F.);
#331=ORIENTED_EDGE('',*,*,#420,.T.);
#332=ORIENTED_EDGE('',*,*,#434,.F.);
#333=ORIENTED_EDGE('',*,*,#530,.T.);
#334=ORIENTED_EDGE('',*,*,#531,.F.);
#335=ORIENTED_EDGE('',*,*,#532,.F.);
#336=ORIENTED_EDGE('',*,*,#533,.T.);
#337=ORIENTED_EDGE('',*,*,#395,.T.);
#338=ORIENTED_EDGE('',*,*,#521,.T.);
#339=ORIENTED_EDGE('',*,*,#517,.T.);
#340=ORIENTED_EDGE('',*,*,#515,.F.);
#341=ORIENTED_EDGE('',*,*,#513,.F.);
#342=ORIENTED_EDGE('',*,*,#511,.T.);
#343=ORIENTED_EDGE('',*,*,#508,.T.);
#344=ORIENTED_EDGE('',*,*,#506,.F.);
#345=ORIENTED_EDGE('',*,*,#504,.F.);
#346=ORIENTED_EDGE('',*,*,#534,.F.);
#347=ORIENTED_EDGE('',*,*,#516,.F.);
#348=ORIENTED_EDGE('',*,*,#522,.T.);
#349=ORIENTED_EDGE('',*,*,#535,.T.);
#350=ORIENTED_EDGE('',*,*,#530,.F.);
#351=ORIENTED_EDGE('',*,*,#433,.F.);
#352=ORIENTED_EDGE('',*,*,#527,.T.);
#353=ORIENTED_EDGE('',*,*,#441,.T.);
#354=ORIENTED_EDGE('',*,*,#396,.T.);
#355=ORIENTED_EDGE('',*,*,#411,.T.);
#356=ORIENTED_EDGE('',*,*,#449,.T.);
#357=ORIENTED_EDGE('',*,*,#461,.T.);
#358=ORIENTED_EDGE('',*,*,#452,.T.);
#359=ORIENTED_EDGE('',*,*,#535,.F.);
#360=ORIENTED_EDGE('',*,*,#524,.F.);
#361=ORIENTED_EDGE('',*,*,#536,.T.);
#362=ORIENTED_EDGE('',*,*,#531,.T.);
#363=ORIENTED_EDGE('',*,*,#390,.T.);
#364=ORIENTED_EDGE('',*,*,#533,.F.);
#365=ORIENTED_EDGE('',*,*,#537,.F.);
#366=ORIENTED_EDGE('',*,*,#525,.T.);
#367=ORIENTED_EDGE('',*,*,#536,.F.);
#368=ORIENTED_EDGE('',*,*,#523,.F.);
#369=ORIENTED_EDGE('',*,*,#469,.T.);
#370=ORIENTED_EDGE('',*,*,#526,.F.);
#371=ORIENTED_EDGE('',*,*,#537,.T.);
#372=ORIENTED_EDGE('',*,*,#532,.T.);
#373=ORIENTED_EDGE('',*,*,#538,.F.);
#374=ORIENTED_EDGE('',*,*,#534,.T.);
#375=ORIENTED_EDGE('',*,*,#503,.T.);
#376=ORIENTED_EDGE('',*,*,#499,.F.);
#377=ORIENTED_EDGE('',*,*,#386,.T.);
#378=ORIENTED_EDGE('',*,*,#529,.F.);
#379=ORIENTED_EDGE('',*,*,#539,.F.);
#380=ORIENTED_EDGE('',*,*,#482,.T.);
#381=ORIENTED_EDGE('',*,*,#539,.T.);
#382=ORIENTED_EDGE('',*,*,#528,.F.);
#383=ORIENTED_EDGE('',*,*,#538,.T.);
#384=ORIENTED_EDGE('',*,*,#454,.T.);
#385=ORIENTED_EDGE('',*,*,#481,.T.);
#386=EDGE_CURVE('',#540,#541,#643,.T.);
#387=EDGE_CURVE('',#542,#540,#644,.T.);
#388=EDGE_CURVE('',#542,#543,#645,.T.);
#389=EDGE_CURVE('',#543,#541,#646,.T.);
#390=EDGE_CURVE('',#544,#545,#647,.T.);
#391=EDGE_CURVE('',#544,#546,#648,.T.);
#392=EDGE_CURVE('',#546,#547,#649,.T.);
#393=EDGE_CURVE('',#547,#548,#650,.T.);
#394=EDGE_CURVE('',#548,#549,#651,.T.);
#395=EDGE_CURVE('',#545,#549,#652,.T.);
#396=EDGE_CURVE('',#550,#551,#653,.T.);
#397=EDGE_CURVE('',#550,#552,#41,.F.);
#398=EDGE_CURVE('',#553,#552,#654,.T.);
#399=EDGE_CURVE('',#553,#554,#655,.T.);
#400=EDGE_CURVE('',#554,#555,#656,.T.);
#401=EDGE_CURVE('',#555,#556,#657,.T.);
#402=EDGE_CURVE('',#557,#556,#658,.T.);
#403=EDGE_CURVE('',#551,#557,#42,.F.);
#404=EDGE_CURVE('',#558,#559,#659,.T.);
#405=EDGE_CURVE('',#560,#559,#43,.T.);
#406=EDGE_CURVE('',#560,#561,#660,.T.);
#407=EDGE_CURVE('',#561,#543,#661,.T.);
#408=EDGE_CURVE('',#562,#542,#662,.T.);
#409=EDGE_CURVE('',#563,#562,#663,.T.);
#410=EDGE_CURVE('',#563,#558,#664,.T.);
#411=EDGE_CURVE('',#551,#564,#18,.T.);
#412=EDGE_CURVE('',#565,#557,#665,.F.);
#413=EDGE_CURVE('',#566,#565,#44,.F.);
#414=EDGE_CURVE('',#566,#567,#666,.T.);
#415=EDGE_CURVE('',#567,#564,#45,.F.);
#416=EDGE_CURVE('',#568,#568,#19,.T.);
#417=EDGE_CURVE('',#559,#560,#20,.T.);
#418=EDGE_CURVE('',#569,#558,#46,.T.);
#419=EDGE_CURVE('',#569,#570,#667,.T.);
#420=EDGE_CURVE('',#561,#570,#47,.F.);
#421=EDGE_CURVE('',#571,#571,#21,.T.);
#422=EDGE_CURVE('',#572,#556,#668,.T.);
#423=EDGE_CURVE('',#565,#572,#669,.T.);
#424=EDGE_CURVE('',#573,#567,#670,.T.);
#425=EDGE_CURVE('',#574,#566,#671,.T.);
#426=EDGE_CURVE('',#574,#573,#672,.T.);
#427=EDGE_CURVE('',#575,#562,#673,.T.);
#428=EDGE_CURVE('',#576,#575,#674,.T.);
#429=EDGE_CURVE('',#576,#573,#675,.T.);
#430=EDGE_CURVE('',#574,#563,#676,.T.);
#431=EDGE_CURVE('',#577,#578,#677,.T.);
#432=EDGE_CURVE('',#579,#578,#678,.T.);
#433=EDGE_CURVE('',#579,#580,#679,.T.);
#434=EDGE_CURVE('',#580,#570,#680,.T.);
#435=EDGE_CURVE('',#577,#569,#681,.T.);
#436=EDGE_CURVE('',#581,#582,#682,.T.);
#437=EDGE_CURVE('',#582,#578,#683,.T.);
#438=EDGE_CURVE('',#581,#577,#684,.T.);
#439=EDGE_CURVE('',#583,#584,#685,.T.);
#440=EDGE_CURVE('',#585,#584,#686,.T.);
#441=EDGE_CURVE('',#586,#585,#687,.T.);
#442=EDGE_CURVE('',#586,#582,#688,.T.);
#443=EDGE_CURVE('',#583,#581,#689,.T.);
#444=EDGE_CURVE('',#555,#587,#690,.T.);
#445=EDGE_CURVE('',#587,#584,#691,.T.);
#446=EDGE_CURVE('',#572,#583,#692,.T.);
#447=EDGE_CURVE('',#588,#588,#48,.T.);
#448=EDGE_CURVE('',#589,#589,#49,.T.);
#449=EDGE_CURVE('',#564,#590,#693,.F.);
#450=EDGE_CURVE('',#591,#576,#694,.T.);
#451=EDGE_CURVE('',#591,#590,#50,.F.);
#452=EDGE_CURVE('',#592,#592,#51,.T.);
#453=EDGE_CURVE('',#593,#593,#52,.T.);
#454=EDGE_CURVE('',#594,#595,#695,.T.);
#455=EDGE_CURVE('',#596,#594,#696,.T.);
#456=EDGE_CURVE('',#596,#591,#697,.F.);
#457=EDGE_CURVE('',#575,#595,#698,.T.);
#458=EDGE_CURVE('',#553,#597,#699,.T.);
#459=EDGE_CURVE('',#597,#598,#700,.T.);
#460=EDGE_CURVE('',#554,#598,#701,.T.);
#461=EDGE_CURVE('',#590,#550,#22,.T.);
#462=EDGE_CURVE('',#596,#599,#53,.F.);
#463=EDGE_CURVE('',#599,#600,#702,.T.);
#464=EDGE_CURVE('',#600,#601,#54,.F.);
#465=EDGE_CURVE('',#601,#602,#703,.F.);
#466=EDGE_CURVE('',#602,#603,#55,.F.);
#467=EDGE_CURVE('',#552,#603,#704,.T.);
#468=EDGE_CURVE('',#604,#598,#705,.T.);
#469=EDGE_CURVE('',#605,#604,#706,.T.);
#470=EDGE_CURVE('',#605,#587,#707,.T.);
#471=EDGE_CURVE('',#547,#603,#708,.T.);
#472=EDGE_CURVE('',#546,#597,#709,.T.);
#473=EDGE_CURVE('',#606,#606,#56,.T.);
#474=EDGE_CURVE('',#607,#607,#57,.T.);
#475=EDGE_CURVE('',#608,#609,#710,.T.);
#476=EDGE_CURVE('',#609,#610,#58,.F.);
#477=EDGE_CURVE('',#610,#611,#59,.T.);
#478=EDGE_CURVE('',#611,#612,#60,.F.);
#479=EDGE_CURVE('',#612,#613,#711,.F.);
#480=EDGE_CURVE('',#613,#608,#61,.T.);
#481=EDGE_CURVE('',#595,#614,#712,.T.);
#482=EDGE_CURVE('',#614,#540,#713,.T.);
#483=EDGE_CURVE('',#600,#611,#23,.F.);
#484=EDGE_CURVE('',#615,#600,#24,.T.);
#485=EDGE_CURVE('',#611,#615,#62,.T.);
#486=EDGE_CURVE('',#616,#615,#63,.T.);
#487=EDGE_CURVE('',#612,#616,#64,.T.);
#488=EDGE_CURVE('',#617,#616,#714,.T.);
#489=EDGE_CURVE('',#613,#617,#65,.T.);
#490=EDGE_CURVE('',#618,#617,#66,.F.);
#491=EDGE_CURVE('',#608,#618,#67,.T.);
#492=EDGE_CURVE('',#619,#618,#715,.F.);
#493=EDGE_CURVE('',#609,#619,#68,.T.);
#494=EDGE_CURVE('',#620,#620,#69,.T.);
#495=EDGE_CURVE('',#621,#619,#70,.T.);
#496=EDGE_CURVE('',#610,#621,#71,.T.);
#497=EDGE_CURVE('',#601,#621,#25,.F.);
#498=EDGE_CURVE('',#610,#601,#26,.T.);
#499=EDGE_CURVE('',#594,#622,#716,.T.);
#500=EDGE_CURVE('',#622,#623,#717,.T.);
#501=EDGE_CURVE('',#623,#624,#718,.T.);
#502=EDGE_CURVE('',#599,#624,#72,.F.);
#503=EDGE_CURVE('',#625,#622,#719,.T.);
#504=EDGE_CURVE('',#625,#626,#720,.T.);
#505=EDGE_CURVE('',#626,#623,#721,.T.);
#506=EDGE_CURVE('',#626,#627,#722,.T.);
#507=EDGE_CURVE('',#627,#624,#723,.T.);
#508=EDGE_CURVE('',#628,#627,#73,.T.);
#509=EDGE_CURVE('',#616,#628,#724,.F.);
#510=EDGE_CURVE('',#617,#629,#725,.T.);
#511=EDGE_CURVE('',#629,#628,#726,.T.);
#512=EDGE_CURVE('',#618,#630,#727,.T.);
#513=EDGE_CURVE('',#629,#630,#74,.T.);
#514=EDGE_CURVE('',#631,#619,#728,.F.);
#515=EDGE_CURVE('',#630,#631,#729,.T.);
#516=EDGE_CURVE('',#632,#632,#75,.F.);
#517=EDGE_CURVE('',#633,#631,#76,.T.);
#518=EDGE_CURVE('',#633,#634,#730,.T.);
#519=EDGE_CURVE('',#634,#602,#77,.F.);
#520=EDGE_CURVE('',#548,#634,#731,.T.);
#521=EDGE_CURVE('',#549,#633,#732,.T.);
#522=EDGE_CURVE('',#585,#635,#733,.T.);
#523=EDGE_CURVE('',#605,#636,#734,.T.);
#524=EDGE_CURVE('',#636,#635,#735,.T.);
#525=EDGE_CURVE('',#637,#544,#736,.T.);
#526=EDGE_CURVE('',#637,#604,#737,.T.);
#527=EDGE_CURVE('',#579,#586,#738,.T.);
#528=EDGE_CURVE('',#638,#639,#739,.T.);
#529=EDGE_CURVE('',#639,#541,#740,.T.);
#530=EDGE_CURVE('',#580,#640,#741,.T.);
#531=EDGE_CURVE('',#641,#640,#742,.T.);
#532=EDGE_CURVE('',#642,#641,#743,.T.);
#533=EDGE_CURVE('',#642,#545,#744,.T.);
#534=EDGE_CURVE('',#638,#625,#745,.T.);
#535=EDGE_CURVE('',#635,#640,#746,.T.);
#536=EDGE_CURVE('',#636,#641,#747,.T.);
#537=EDGE_CURVE('',#637,#642,#748,.T.);
#538=EDGE_CURVE('',#638,#594,#749,.T.);
#539=EDGE_CURVE('',#614,#639,#750,.T.);
#540=VERTEX_POINT('',#1516);
#541=VERTEX_POINT('',#1517);
#542=VERTEX_POINT('',#1519);
#543=VERTEX_POINT('',#1521);
#544=VERTEX_POINT('',#1525);
#545=VERTEX_POINT('',#1526);
#546=VERTEX_POINT('',#1528);
#547=VERTEX_POINT('',#1530);
#548=VERTEX_POINT('',#1532);
#549=VERTEX_POINT('',#1534);
#550=VERTEX_POINT('',#1538);
#551=VERTEX_POINT('',#1539);
#552=VERTEX_POINT('',#1541);
#553=VERTEX_POINT('',#1543);
#554=VERTEX_POINT('',#1545);
#555=VERTEX_POINT('',#1547);
#556=VERTEX_POINT('',#1549);
#557=VERTEX_POINT('',#1551);
#558=VERTEX_POINT('',#1555);
#559=VERTEX_POINT('',#1556);
#560=VERTEX_POINT('',#1558);
#561=VERTEX_POINT('',#1560);
#562=VERTEX_POINT('',#1563);
#563=VERTEX_POINT('',#1565);
#564=VERTEX_POINT('',#1575);
#565=VERTEX_POINT('',#1577);
#566=VERTEX_POINT('',#1579);
#567=VERTEX_POINT('',#1581);
#568=VERTEX_POINT('',#1594);
#569=VERTEX_POINT('',#1604);
#570=VERTEX_POINT('',#1606);
#571=VERTEX_POINT('',#1619);
#572=VERTEX_POINT('',#1622);
#573=VERTEX_POINT('',#1626);
#574=VERTEX_POINT('',#1628);
#575=VERTEX_POINT('',#1632);
#576=VERTEX_POINT('',#1634);
#577=VERTEX_POINT('',#1639);
#578=VERTEX_POINT('',#1640);
#579=VERTEX_POINT('',#1642);
#580=VERTEX_POINT('',#1644);
#581=VERTEX_POINT('',#1649);
#582=VERTEX_POINT('',#1650);
#583=VERTEX_POINT('',#1655);
#584=VERTEX_POINT('',#1656);
#585=VERTEX_POINT('',#1658);
#586=VERTEX_POINT('',#1660);
#587=VERTEX_POINT('',#1665);
#588=VERTEX_POINT('',#1671);
#589=VERTEX_POINT('',#1674);
#590=VERTEX_POINT('',#1678);
#591=VERTEX_POINT('',#1680);
#592=VERTEX_POINT('',#1684);
#593=VERTEX_POINT('',#1686);
#594=VERTEX_POINT('',#1690);
#595=VERTEX_POINT('',#1691);
#596=VERTEX_POINT('',#1693);
#597=VERTEX_POINT('',#1698);
#598=VERTEX_POINT('',#1700);
#599=VERTEX_POINT('',#1711);
#600=VERTEX_POINT('',#1713);
#601=VERTEX_POINT('',#1715);
#602=VERTEX_POINT('',#1717);
#603=VERTEX_POINT('',#1719);
#604=VERTEX_POINT('',#1723);
#605=VERTEX_POINT('',#1725);
#606=VERTEX_POINT('',#1732);
#607=VERTEX_POINT('',#1734);
#608=VERTEX_POINT('',#1737);
#609=VERTEX_POINT('',#1738);
#610=VERTEX_POINT('',#1740);
#611=VERTEX_POINT('',#1742);
#612=VERTEX_POINT('',#1744);
#613=VERTEX_POINT('',#1746);
#614=VERTEX_POINT('',#1750);
#615=VERTEX_POINT('',#1790);
#616=VERTEX_POINT('',#1794);
#617=VERTEX_POINT('',#1798);
#618=VERTEX_POINT('',#1802);
#619=VERTEX_POINT('',#1806);
#620=VERTEX_POINT('',#1810);
#621=VERTEX_POINT('',#1813);
#622=VERTEX_POINT('',#1856);
#623=VERTEX_POINT('',#1858);
#624=VERTEX_POINT('',#1860);
#625=VERTEX_POINT('',#1864);
#626=VERTEX_POINT('',#1866);
#627=VERTEX_POINT('',#1870);
#628=VERTEX_POINT('',#1874);
#629=VERTEX_POINT('',#1878);
#630=VERTEX_POINT('',#1882);
#631=VERTEX_POINT('',#1886);
#632=VERTEX_POINT('',#1890);
#633=VERTEX_POINT('',#1893);
#634=VERTEX_POINT('',#1895);
#635=VERTEX_POINT('',#1903);
#636=VERTEX_POINT('',#1905);
#637=VERTEX_POINT('',#1909);
#638=VERTEX_POINT('',#1915);
#639=VERTEX_POINT('',#1916);
#640=VERTEX_POINT('',#1919);
#641=VERTEX_POINT('',#1921);
#642=VERTEX_POINT('',#1923);
#643=LINE('',#1515,#751);
#644=LINE('',#1518,#752);
#645=LINE('',#1520,#753);
#646=LINE('',#1522,#754);
#647=LINE('',#1524,#755);
#648=LINE('',#1527,#756);
#649=LINE('',#1529,#757);
#650=LINE('',#1531,#758);
#651=LINE('',#1533,#759);
#652=LINE('',#1535,#760);
#653=LINE('',#1537,#761);
#654=LINE('',#1542,#762);
#655=LINE('',#1544,#763);
#656=LINE('',#1546,#764);
#657=LINE('',#1548,#765);
#658=LINE('',#1550,#766);
#659=LINE('',#1554,#767);
#660=LINE('',#1559,#768);
#661=LINE('',#1561,#769);
#662=LINE('',#1562,#770);
#663=LINE('',#1564,#771);
#664=LINE('',#1566,#772);
#665=LINE('',#1576,#773);
#666=LINE('',#1580,#774);
#667=LINE('',#1605,#775);
#668=LINE('',#1621,#776);
#669=LINE('',#1623,#777);
#670=LINE('',#1625,#778);
#671=LINE('',#1627,#779);
#672=LINE('',#1629,#780);
#673=LINE('',#1631,#781);
#674=LINE('',#1633,#782);
#675=LINE('',#1635,#783);
#676=LINE('',#1636,#784);
#677=LINE('',#1638,#785);
#678=LINE('',#1641,#786);
#679=LINE('',#1643,#787);
#680=LINE('',#1645,#788);
#681=LINE('',#1646,#789);
#682=LINE('',#1648,#790);
#683=LINE('',#1651,#791);
#684=LINE('',#1652,#792);
#685=LINE('',#1654,#793);
#686=LINE('',#1657,#794);
#687=LINE('',#1659,#795);
#688=LINE('',#1661,#796);
#689=LINE('',#1662,#797);
#690=LINE('',#1664,#798);
#691=LINE('',#1666,#799);
#692=LINE('',#1667,#800);
#693=LINE('',#1677,#801);
#694=LINE('',#1679,#802);
#695=LINE('',#1689,#803);
#696=LINE('',#1692,#804);
#697=LINE('',#1694,#805);
#698=LINE('',#1695,#806);
#699=LINE('',#1697,#807);
#700=LINE('',#1699,#808);
#701=LINE('',#1701,#809);
#702=LINE('',#1712,#810);
#703=LINE('',#1716,#811);
#704=LINE('',#1720,#812);
#705=LINE('',#1722,#813);
#706=LINE('',#1724,#814);
#707=LINE('',#1726,#815);
#708=LINE('',#1728,#816);
#709=LINE('',#1729,#817);
#710=LINE('',#1736,#818);
#711=LINE('',#1745,#819);
#712=LINE('',#1749,#820);
#713=LINE('',#1751,#821);
#714=LINE('',#1797,#822);
#715=LINE('',#1805,#823);
#716=LINE('',#1855,#824);
#717=LINE('',#1857,#825);
#718=LINE('',#1859,#826);
#719=LINE('',#1863,#827);
#720=LINE('',#1865,#828);
#721=LINE('',#1867,#829);
#722=LINE('',#1869,#830);
#723=LINE('',#1871,#831);
#724=LINE('',#1875,#832);
#725=LINE('',#1877,#833);
#726=LINE('',#1879,#834);
#727=LINE('',#1881,#835);
#728=LINE('',#1885,#836);
#729=LINE('',#1887,#837);
#730=LINE('',#1894,#838);
#731=LINE('',#1898,#839);
#732=LINE('',#1900,#840);
#733=LINE('',#1902,#841);
#734=LINE('',#1904,#842);
#735=LINE('',#1906,#843);
#736=LINE('',#1908,#844);
#737=LINE('',#1910,#845);
#738=LINE('',#1912,#846);
#739=LINE('',#1914,#847);
#740=LINE('',#1917,#848);
#741=LINE('',#1918,#849);
#742=LINE('',#1920,#850);
#743=LINE('',#1922,#851);
#744=LINE('',#1924,#852);
#745=LINE('',#1925,#853);
#746=LINE('',#1927,#854);
#747=LINE('',#1930,#855);
#748=LINE('',#1932,#856);
#749=LINE('',#1935,#857);
#750=LINE('',#1937,#858);
#751=VECTOR('',#1217,1.);
#752=VECTOR('',#1218,1.);
#753=VECTOR('',#1219,1.);
#754=VECTOR('',#1220,1.);
#755=VECTOR('',#1223,1.);
#756=VECTOR('',#1224,1.);
#757=VECTOR('',#1225,1.);
#758=VECTOR('',#1226,1.);
#759=VECTOR('',#1227,1.);
#760=VECTOR('',#1228,1.);
#761=VECTOR('',#1231,1.);
#762=VECTOR('',#1234,1.);
#763=VECTOR('',#1235,1.);
#764=VECTOR('',#1236,1.);
#765=VECTOR('',#1237,1.);
#766=VECTOR('',#1238,1.);
#767=VECTOR('',#1243,1.);
#768=VECTOR('',#1246,1.);
#769=VECTOR('',#1247,1.);
#770=VECTOR('',#1248,1.);
#771=VECTOR('',#1249,1.);
#772=VECTOR('',#1250,1.);
#773=VECTOR('',#1253,1.);
#774=VECTOR('',#1256,1.);
#775=VECTOR('',#1263,1.);
#776=VECTOR('',#1268,1.);
#777=VECTOR('',#1269,1.);
#778=VECTOR('',#1272,1.);
#779=VECTOR('',#1273,1.);
#780=VECTOR('',#1274,1.);
#781=VECTOR('',#1277,1.);
#782=VECTOR('',#1278,1.);
#783=VECTOR('',#1279,1.);
#784=VECTOR('',#1280,1.);
#785=VECTOR('',#1283,1.);
#786=VECTOR('',#1284,1.);
#787=VECTOR('',#1285,1.);
#788=VECTOR('',#1286,1.);
#789=VECTOR('',#1287,1.);
#790=VECTOR('',#1290,1.);
#791=VECTOR('',#1291,1.);
#792=VECTOR('',#1292,1.);
#793=VECTOR('',#1295,1.);
#794=VECTOR('',#1296,1.);
#795=VECTOR('',#1297,1.);
#796=VECTOR('',#1298,1.);
#797=VECTOR('',#1299,1.);
#798=VECTOR('',#1302,1.);
#799=VECTOR('',#1303,1.);
#800=VECTOR('',#1304,1.);
#801=VECTOR('',#1319,1.);
#802=VECTOR('',#1320,1.);
#803=VECTOR('',#1333,1.);
#804=VECTOR('',#1334,1.);
#805=VECTOR('',#1335,1.);
#806=VECTOR('',#1336,1.);
#807=VECTOR('',#1339,1.);
#808=VECTOR('',#1340,1.);
#809=VECTOR('',#1341,1.);
#810=VECTOR('',#1346,1.);
#811=VECTOR('',#1349,1.);
#812=VECTOR('',#1352,1.);
#813=VECTOR('',#1355,1.);
#814=VECTOR('',#1356,1.);
#815=VECTOR('',#1357,1.);
#816=VECTOR('',#1360,1.);
#817=VECTOR('',#1361,1.);
#818=VECTOR('',#1370,1.);
#819=VECTOR('',#1377,1.);
#820=VECTOR('',#1382,1.);
#821=VECTOR('',#1383,1.);
#822=VECTOR('',#1394,1.);
#823=VECTOR('',#1405,1.);
#824=VECTOR('',#1422,1.);
#825=VECTOR('',#1423,1.);
#826=VECTOR('',#1424,1.);
#827=VECTOR('',#1429,1.);
#828=VECTOR('',#1430,1.);
#829=VECTOR('',#1431,1.);
#830=VECTOR('',#1434,1.);
#831=VECTOR('',#1435,1.);
#832=VECTOR('',#1440,1.);
#833=VECTOR('',#1443,1.);
#834=VECTOR('',#1444,1.);
#835=VECTOR('',#1447,1.);
#836=VECTOR('',#1452,1.);
#837=VECTOR('',#1453,1.);
#838=VECTOR('',#1462,1.);
#839=VECTOR('',#1467,1.);
#840=VECTOR('',#1470,1.);
#841=VECTOR('',#1473,1.);
#842=VECTOR('',#1474,1.);
#843=VECTOR('',#1475,1.);
#844=VECTOR('',#1478,1.);
#845=VECTOR('',#1479,1.);
#846=VECTOR('',#1482,1.);
#847=VECTOR('',#1485,1.);
#848=VECTOR('',#1486,1.);
#849=VECTOR('',#1487,1.);
#850=VECTOR('',#1488,1.);
#851=VECTOR('',#1489,1.);
#852=VECTOR('',#1490,1.);
#853=VECTOR('',#1491,1.);
#854=VECTOR('',#1494,1.);
#855=VECTOR('',#1499,1.);
#856=VECTOR('',#1502,1.);
#857=VECTOR('',#1507,1.);
#858=VECTOR('',#1510,1.);
#859=EDGE_LOOP('',(#78,#79,#80,#81));
#860=EDGE_LOOP('',(#82,#83,#84,#85,#86,#87));
#861=EDGE_LOOP('',(#88,#89,#90,#91,#92,#93,#94,#95));
#862=EDGE_LOOP('',(#96,#97,#98,#99,#100,#101,#102,#103));
#863=EDGE_LOOP('',(#104,#105,#106,#107,#108,#109));
#864=EDGE_LOOP('',(#110));
#865=EDGE_LOOP('',(#111,#112,#113,#114,#115,#116));
#866=EDGE_LOOP('',(#117));
#867=EDGE_LOOP('',(#118,#119,#120,#121));
#868=EDGE_LOOP('',(#122,#123,#124,#125));
#869=EDGE_LOOP('',(#126,#127,#128,#129,#130,#131));
#870=EDGE_LOOP('',(#132,#133,#134,#135,#136,#137));
#871=EDGE_LOOP('',(#138,#139,#140,#141));
#872=EDGE_LOOP('',(#142,#143,#144,#145,#146,#147));
#873=EDGE_LOOP('',(#148,#149,#150,#151,#152,#153));
#874=EDGE_LOOP('',(#154,#155,#156,#157,#158,#159,#160,#161,#162,#163));
#875=EDGE_LOOP('',(#164));
#876=EDGE_LOOP('',(#165));
#877=EDGE_LOOP('',(#166));
#878=EDGE_LOOP('',(#167));
#879=EDGE_LOOP('',(#168));
#880=EDGE_LOOP('',(#169));
#881=EDGE_LOOP('',(#170,#171,#172,#173,#174,#175));
#882=EDGE_LOOP('',(#176));
#883=EDGE_LOOP('',(#177));
#884=EDGE_LOOP('',(#178));
#885=EDGE_LOOP('',(#179,#180));
#886=EDGE_LOOP('',(#181,#182,#183,#184,#185,#186));
#887=EDGE_LOOP('',(#187,#188,#189,#190));
#888=EDGE_LOOP('',(#191,#192,#193,#194,#195,#196,#197,#198,#199,#200));
#889=EDGE_LOOP('',(#201,#202,#203,#204,#205,#206));
#890=EDGE_LOOP('',(#207,#208,#209,#210,#211,#212));
#891=EDGE_LOOP('',(#213));
#892=EDGE_LOOP('',(#214));
#893=EDGE_LOOP('',(#215));
#894=EDGE_LOOP('',(#216,#217,#218,#219,#220,#221));
#895=EDGE_LOOP('',(#222,#223,#224,#225,#226,#227));
#896=EDGE_LOOP('',(#228,#229,#230));
#897=EDGE_LOOP('',(#231,#232,#233,#234));
#898=EDGE_LOOP('',(#235,#236,#237,#238));
#899=EDGE_LOOP('',(#239,#240,#241,#242));
#900=EDGE_LOOP('',(#243,#244,#245,#246));
#901=EDGE_LOOP('',(#247));
#902=EDGE_LOOP('',(#248));
#903=EDGE_LOOP('',(#249,#250,#251,#252));
#904=EDGE_LOOP('',(#253,#254,#255));
#905=EDGE_LOOP('',(#256,#257,#258,#259));
#906=EDGE_LOOP('',(#260,#261,#262,#263,#264,#265));
#907=EDGE_LOOP('',(#266,#267,#268,#269));
#908=EDGE_LOOP('',(#270,#271,#272,#273));
#909=EDGE_LOOP('',(#274,#275,#276,#277,#278,#279,#280));
#910=EDGE_LOOP('',(#281,#282,#283,#284));
#911=EDGE_LOOP('',(#285,#286,#287,#288));
#912=EDGE_LOOP('',(#289,#290,#291,#292));
#913=EDGE_LOOP('',(#293));
#914=EDGE_LOOP('',(#294));
#915=EDGE_LOOP('',(#295,#296,#297,#298,#299,#300,#301));
#916=EDGE_LOOP('',(#302,#303,#304,#305,#306));
#917=EDGE_LOOP('',(#307,#308,#309,#310));
#918=EDGE_LOOP('',(#311,#312,#313,#314,#315,#316));
#919=EDGE_LOOP('',(#317,#318,#319,#320,#321,#322));
#920=EDGE_LOOP('',(#323,#324,#325,#326));
#921=EDGE_LOOP('',(#327,#328,#329,#330,#331,#332,#333,#334,#335,#336,#337,
#338,#339,#340,#341,#342,#343,#344,#345,#346));
#922=EDGE_LOOP('',(#347));
#923=EDGE_LOOP('',(#348,#349,#350,#351,#352,#353));
#924=EDGE_LOOP('',(#354,#355,#356,#357));
#925=EDGE_LOOP('',(#358));
#926=EDGE_LOOP('',(#359,#360,#361,#362));
#927=EDGE_LOOP('',(#363,#364,#365,#366));
#928=EDGE_LOOP('',(#367,#368,#369,#370,#371,#372));
#929=EDGE_LOOP('',(#373,#374,#375,#376));
#930=EDGE_LOOP('',(#377,#378,#379,#380));
#931=EDGE_LOOP('',(#381,#382,#383,#384,#385));
#932=FACE_BOUND('',#859,.T.);
#933=FACE_BOUND('',#860,.T.);
#934=FACE_BOUND('',#861,.T.);
#935=FACE_BOUND('',#862,.T.);
#936=FACE_BOUND('',#863,.T.);
#937=FACE_BOUND('',#864,.T.);
#938=FACE_BOUND('',#865,.T.);
#939=FACE_BOUND('',#866,.T.);
#940=FACE_BOUND('',#867,.T.);
#941=FACE_BOUND('',#868,.T.);
#942=FACE_BOUND('',#869,.T.);
#943=FACE_BOUND('',#870,.T.);
#944=FACE_BOUND('',#871,.T.);
#945=FACE_BOUND('',#872,.T.);
#946=FACE_BOUND('',#873,.T.);
#947=FACE_BOUND('',#874,.T.);
#948=FACE_BOUND('',#875,.T.);
#949=FACE_BOUND('',#876,.T.);
#950=FACE_BOUND('',#877,.T.);
#951=FACE_BOUND('',#878,.T.);
#952=FACE_BOUND('',#879,.T.);
#953=FACE_BOUND('',#880,.T.);
#954=FACE_BOUND('',#881,.T.);
#955=FACE_BOUND('',#882,.T.);
#956=FACE_BOUND('',#883,.T.);
#957=FACE_BOUND('',#884,.T.);
#958=FACE_BOUND('',#885,.T.);
#959=FACE_BOUND('',#886,.T.);
#960=FACE_BOUND('',#887,.T.);
#961=FACE_BOUND('',#888,.T.);
#962=FACE_BOUND('',#889,.T.);
#963=FACE_BOUND('',#890,.T.);
#964=FACE_BOUND('',#891,.T.);
#965=FACE_BOUND('',#892,.T.);
#966=FACE_BOUND('',#893,.T.);
#967=FACE_BOUND('',#894,.T.);
#968=FACE_BOUND('',#895,.T.);
#969=FACE_BOUND('',#896,.T.);
#970=FACE_BOUND('',#897,.T.);
#971=FACE_BOUND('',#898,.T.);
#972=FACE_BOUND('',#899,.T.);
#973=FACE_BOUND('',#900,.T.);
#974=FACE_BOUND('',#901,.T.);
#975=FACE_BOUND('',#902,.T.);
#976=FACE_BOUND('',#903,.T.);
#977=FACE_BOUND('',#904,.T.);
#978=FACE_BOUND('',#905,.T.);
#979=FACE_BOUND('',#906,.T.);
#980=FACE_BOUND('',#907,.T.);
#981=FACE_BOUND('',#908,.T.);
#982=FACE_BOUND('',#909,.T.);
#983=FACE_BOUND('',#910,.T.);
#984=FACE_BOUND('',#911,.T.);
#985=FACE_BOUND('',#912,.T.);
#986=FACE_BOUND('',#913,.T.);
#987=FACE_BOUND('',#914,.T.);
#988=FACE_BOUND('',#915,.T.);
#989=FACE_BOUND('',#916,.T.);
#990=FACE_BOUND('',#917,.T.);
#991=FACE_BOUND('',#918,.T.);
#992=FACE_BOUND('',#919,.T.);
#993=FACE_BOUND('',#920,.T.);
#994=FACE_BOUND('',#921,.T.);
#995=FACE_BOUND('',#922,.T.);
#996=FACE_BOUND('',#923,.T.);
#997=FACE_BOUND('',#924,.T.);
#998=FACE_BOUND('',#925,.T.);
#999=FACE_BOUND('',#926,.T.);
#1000=FACE_BOUND('',#927,.T.);
#1001=FACE_BOUND('',#928,.T.);
#1002=FACE_BOUND('',#929,.T.);
#1003=FACE_BOUND('',#930,.T.);
#1004=FACE_BOUND('',#931,.T.);
#1005=PLANE('',#1118);
#1006=PLANE('',#1119);
#1007=PLANE('',#1120);
#1008=PLANE('',#1123);
#1009=PLANE('',#1131);
#1010=PLANE('',#1132);
#1011=PLANE('',#1133);
#1012=PLANE('',#1134);
#1013=PLANE('',#1135);
#1014=PLANE('',#1136);
#1015=PLANE('',#1137);
#1016=PLANE('',#1138);
#1017=PLANE('',#1141);
#1018=PLANE('',#1144);
#1019=PLANE('',#1146);
#1020=PLANE('',#1150);
#1021=PLANE('',#1151);
#1022=PLANE('',#1156);
#1023=PLANE('',#1157);
#1024=PLANE('',#1161);
#1025=PLANE('',#1166);
#1026=PLANE('',#1178);
#1027=PLANE('',#1184);
#1028=PLANE('',#1186);
#1029=PLANE('',#1187);
#1030=PLANE('',#1190);
#1031=PLANE('',#1193);
#1032=PLANE('',#1199);
#1033=PLANE('',#1200);
#1034=PLANE('',#1201);
#1035=PLANE('',#1202);
#1036=PLANE('',#1203);
#1037=PLANE('',#1204);
#1038=PLANE('',#1205);
#1039=PLANE('',#1207);
#1040=PLANE('',#1208);
#1041=PLANE('',#1209);
#1042=PLANE('',#1210);
#1043=PLANE('',#1211);
#1044=PLANE('',#1212);
#1045=ADVANCED_FACE('',(#932),#1005,.T.);
#1046=ADVANCED_FACE('',(#933),#1006,.F.);
#1047=ADVANCED_FACE('',(#934),#1007,.T.);
#1048=ADVANCED_FACE('',(#935),#1008,.F.);
#1049=ADVANCED_FACE('',(#936,#937),#27,.F.);
#1050=ADVANCED_FACE('',(#938,#939),#28,.T.);
#1051=ADVANCED_FACE('',(#940),#1009,.T.);
#1052=ADVANCED_FACE('',(#941),#1010,.T.);
#1053=ADVANCED_FACE('',(#942),#1011,.F.);
#1054=ADVANCED_FACE('',(#943),#1012,.T.);
#1055=ADVANCED_FACE('',(#944),#1013,.T.);
#1056=ADVANCED_FACE('',(#945),#1014,.T.);
#1057=ADVANCED_FACE('',(#946),#1015,.T.);
#1058=ADVANCED_FACE('',(#947),#1016,.T.);
#1059=ADVANCED_FACE('',(#948,#949),#29,.F.);
#1060=ADVANCED_FACE('',(#950,#951),#1017,.T.);
#1061=ADVANCED_FACE('',(#952,#953),#30,.F.);
#1062=ADVANCED_FACE('',(#954),#1018,.T.);
#1063=ADVANCED_FACE('',(#955,#956),#1019,.T.);
#1064=ADVANCED_FACE('',(#957,#958),#31,.F.);
#1065=ADVANCED_FACE('',(#959),#1020,.T.);
#1066=ADVANCED_FACE('',(#960),#1021,.F.);
#1067=ADVANCED_FACE('',(#961),#32,.F.);
#1068=ADVANCED_FACE('',(#962),#1022,.F.);
#1069=ADVANCED_FACE('',(#963),#1023,.T.);
#1070=ADVANCED_FACE('',(#964,#965),#33,.F.);
#1071=ADVANCED_FACE('',(#966,#967),#1024,.T.);
#1072=ADVANCED_FACE('',(#968),#1025,.T.);
#1073=ADVANCED_FACE('',(#969),#16,.T.);
#1074=ADVANCED_FACE('',(#970),#12,.T.);
#1075=ADVANCED_FACE('',(#971),#34,.T.);
#1076=ADVANCED_FACE('',(#972),#13,.T.);
#1077=ADVANCED_FACE('',(#973),#35,.T.);
#1078=ADVANCED_FACE('',(#974,#975),#1026,.T.);
#1079=ADVANCED_FACE('',(#976),#14,.T.);
#1080=ADVANCED_FACE('',(#977),#17,.T.);
#1081=ADVANCED_FACE('',(#978),#15,.F.);
#1082=ADVANCED_FACE('',(#979),#1027,.T.);
#1083=ADVANCED_FACE('',(#980),#1028,.T.);
#1084=ADVANCED_FACE('',(#981),#1029,.F.);
#1085=ADVANCED_FACE('',(#982),#36,.F.);
#1086=ADVANCED_FACE('',(#983),#1030,.T.);
#1087=ADVANCED_FACE('',(#984),#37,.T.);
#1088=ADVANCED_FACE('',(#985),#1031,.F.);
#1089=ADVANCED_FACE('',(#986,#987),#38,.F.);
#1090=ADVANCED_FACE('',(#988),#39,.F.);
#1091=ADVANCED_FACE('',(#989),#1032,.T.);
#1092=ADVANCED_FACE('',(#990),#1033,.T.);
#1093=ADVANCED_FACE('',(#991),#1034,.T.);
#1094=ADVANCED_FACE('',(#992),#1035,.T.);
#1095=ADVANCED_FACE('',(#993),#1036,.T.);
#1096=ADVANCED_FACE('',(#994,#995),#1037,.F.);
#1097=ADVANCED_FACE('',(#996),#1038,.F.);
#1098=ADVANCED_FACE('',(#997,#998),#40,.F.);
#1099=ADVANCED_FACE('',(#999),#1039,.T.);
#1100=ADVANCED_FACE('',(#1000),#1040,.F.);
#1101=ADVANCED_FACE('',(#1001),#1041,.T.);
#1102=ADVANCED_FACE('',(#1002),#1042,.F.);
#1103=ADVANCED_FACE('',(#1003),#1043,.F.);
#1104=ADVANCED_FACE('',(#1004),#1044,.T.);
#1105=CLOSED_SHELL('',(#1045,#1046,#1047,#1048,#1049,#1050,#1051,#1052,
#1053,#1054,#1055,#1056,#1057,#1058,#1059,#1060,#1061,#1062,#1063,#1064,
#1065,#1066,#1067,#1068,#1069,#1070,#1071,#1072,#1073,#1074,#1075,#1076,
#1077,#1078,#1079,#1080,#1081,#1082,#1083,#1084,#1085,#1086,#1087,#1088,
#1089,#1090,#1091,#1092,#1093,#1094,#1095,#1096,#1097,#1098,#1099,#1100,
#1101,#1102,#1103,#1104));
#1106=STYLED_ITEM('',(#1107),#1114);
#1107=PRESENTATION_STYLE_ASSIGNMENT((#1108));
#1108=SURFACE_STYLE_USAGE(.BOTH.,#1109);
#1109=SURFACE_SIDE_STYLE('',(#1110));
#1110=SURFACE_STYLE_FILL_AREA(#1111);
#1111=FILL_AREA_STYLE('',(#1112));
#1112=FILL_AREA_STYLE_COLOUR('',#1113);
#1113=COLOUR_RGB('',0.235294117647059,0.235294117647059,0.235294117647059);
#1114=MANIFOLD_SOLID_BREP('Bottom Left Front',#1105);
#1115=SHAPE_DEFINITION_REPRESENTATION(#1945,#1116);
#1116=SHAPE_REPRESENTATION('Bottom Left Front',(#1117),#1940);
#1117=AXIS2_PLACEMENT_3D('',#1513,#1213,#1214);
#1118=AXIS2_PLACEMENT_3D('',#1514,#1215,#1216);
#1119=AXIS2_PLACEMENT_3D('',#1523,#1221,#1222);
#1120=AXIS2_PLACEMENT_3D('',#1536,#1229,#1230);
#1121=AXIS2_PLACEMENT_3D('',#1540,#1232,#1233);
#1122=AXIS2_PLACEMENT_3D('',#1552,#1239,#1240);
#1123=AXIS2_PLACEMENT_3D('',#1553,#1241,#1242);
#1124=AXIS2_PLACEMENT_3D('',#1557,#1244,#1245);
#1125=AXIS2_PLACEMENT_3D('',#1567,#1251,#1252);
#1126=AXIS2_PLACEMENT_3D('',#1578,#1254,#1255);
#1127=AXIS2_PLACEMENT_3D('',#1582,#1257,#1258);
#1128=AXIS2_PLACEMENT_3D('',#1595,#1259,#1260);
#1129=AXIS2_PLACEMENT_3D('',#1603,#1261,#1262);
#1130=AXIS2_PLACEMENT_3D('',#1607,#1264,#1265);
#1131=AXIS2_PLACEMENT_3D('',#1620,#1266,#1267);
#1132=AXIS2_PLACEMENT_3D('',#1624,#1270,#1271);
#1133=AXIS2_PLACEMENT_3D('',#1630,#1275,#1276);
#1134=AXIS2_PLACEMENT_3D('',#1637,#1281,#1282);
#1135=AXIS2_PLACEMENT_3D('',#1647,#1288,#1289);
#1136=AXIS2_PLACEMENT_3D('',#1653,#1293,#1294);
#1137=AXIS2_PLACEMENT_3D('',#1663,#1300,#1301);
#1138=AXIS2_PLACEMENT_3D('',#1668,#1305,#1306);
#1139=AXIS2_PLACEMENT_3D('',#1669,#1307,#1308);
#1140=AXIS2_PLACEMENT_3D('',#1670,#1309,#1310);
#1141=AXIS2_PLACEMENT_3D('',#1672,#1311,#1312);
#1142=AXIS2_PLACEMENT_3D('',#1673,#1313,#1314);
#1143=AXIS2_PLACEMENT_3D('',#1675,#1315,#1316);
#1144=AXIS2_PLACEMENT_3D('',#1676,#1317,#1318);
#1145=AXIS2_PLACEMENT_3D('',#1681,#1321,#1322);
#1146=AXIS2_PLACEMENT_3D('',#1682,#1323,#1324);
#1147=AXIS2_PLACEMENT_3D('',#1683,#1325,#1326);
#1148=AXIS2_PLACEMENT_3D('',#1685,#1327,#1328);
#1149=AXIS2_PLACEMENT_3D('',#1687,#1329,#1330);
#1150=AXIS2_PLACEMENT_3D('',#1688,#1331,#1332);
#1151=AXIS2_PLACEMENT_3D('',#1696,#1337,#1338);
#1152=AXIS2_PLACEMENT_3D('',#1702,#1342,#1343);
#1153=AXIS2_PLACEMENT_3D('',#1710,#1344,#1345);
#1154=AXIS2_PLACEMENT_3D('',#1714,#1347,#1348);
#1155=AXIS2_PLACEMENT_3D('',#1718,#1350,#1351);
#1156=AXIS2_PLACEMENT_3D('',#1721,#1353,#1354);
#1157=AXIS2_PLACEMENT_3D('',#1727,#1358,#1359);
#1158=AXIS2_PLACEMENT_3D('',#1730,#1362,#1363);
#1159=AXIS2_PLACEMENT_3D('',#1731,#1364,#1365);
#1160=AXIS2_PLACEMENT_3D('',#1733,#1366,#1367);
#1161=AXIS2_PLACEMENT_3D('',#1735,#1368,#1369);
#1162=AXIS2_PLACEMENT_3D('',#1739,#1371,#1372);
#1163=AXIS2_PLACEMENT_3D('',#1741,#1373,#1374);
#1164=AXIS2_PLACEMENT_3D('',#1743,#1375,#1376);
#1165=AXIS2_PLACEMENT_3D('',#1747,#1378,#1379);
#1166=AXIS2_PLACEMENT_3D('',#1748,#1380,#1381);
#1167=AXIS2_PLACEMENT_3D('',#1791,#1384,#1385);
#1168=AXIS2_PLACEMENT_3D('',#1792,#1386,#1387);
#1169=AXIS2_PLACEMENT_3D('',#1793,#1388,#1389);
#1170=AXIS2_PLACEMENT_3D('',#1795,#1390,#1391);
#1171=AXIS2_PLACEMENT_3D('',#1796,#1392,#1393);
#1172=AXIS2_PLACEMENT_3D('',#1799,#1395,#1396);
#1173=AXIS2_PLACEMENT_3D('',#1800,#1397,#1398);
#1174=AXIS2_PLACEMENT_3D('',#1801,#1399,#1400);
#1175=AXIS2_PLACEMENT_3D('',#1803,#1401,#1402);
#1176=AXIS2_PLACEMENT_3D('',#1804,#1403,#1404);
#1177=AXIS2_PLACEMENT_3D('',#1807,#1406,#1407);
#1178=AXIS2_PLACEMENT_3D('',#1808,#1408,#1409);
#1179=AXIS2_PLACEMENT_3D('',#1809,#1410,#1411);
#1180=AXIS2_PLACEMENT_3D('',#1811,#1412,#1413);
#1181=AXIS2_PLACEMENT_3D('',#1812,#1414,#1415);
#1182=AXIS2_PLACEMENT_3D('',#1814,#1416,#1417);
#1183=AXIS2_PLACEMENT_3D('',#1853,#1418,#1419);
#1184=AXIS2_PLACEMENT_3D('',#1854,#1420,#1421);
#1185=AXIS2_PLACEMENT_3D('',#1861,#1425,#1426);
#1186=AXIS2_PLACEMENT_3D('',#1862,#1427,#1428);
#1187=AXIS2_PLACEMENT_3D('',#1868,#1432,#1433);
#1188=AXIS2_PLACEMENT_3D('',#1872,#1436,#1437);
#1189=AXIS2_PLACEMENT_3D('',#1873,#1438,#1439);
#1190=AXIS2_PLACEMENT_3D('',#1876,#1441,#1442);
#1191=AXIS2_PLACEMENT_3D('',#1880,#1445,#1446);
#1192=AXIS2_PLACEMENT_3D('',#1883,#1448,#1449);
#1193=AXIS2_PLACEMENT_3D('',#1884,#1450,#1451);
#1194=AXIS2_PLACEMENT_3D('',#1888,#1454,#1455);
#1195=AXIS2_PLACEMENT_3D('',#1889,#1456,#1457);
#1196=AXIS2_PLACEMENT_3D('',#1891,#1458,#1459);
#1197=AXIS2_PLACEMENT_3D('',#1892,#1460,#1461);
#1198=AXIS2_PLACEMENT_3D('',#1896,#1463,#1464);
#1199=AXIS2_PLACEMENT_3D('',#1897,#1465,#1466);
#1200=AXIS2_PLACEMENT_3D('',#1899,#1468,#1469);
#1201=AXIS2_PLACEMENT_3D('',#1901,#1471,#1472);
#1202=AXIS2_PLACEMENT_3D('',#1907,#1476,#1477);
#1203=AXIS2_PLACEMENT_3D('',#1911,#1480,#1481);
#1204=AXIS2_PLACEMENT_3D('',#1913,#1483,#1484);
#1205=AXIS2_PLACEMENT_3D('',#1926,#1492,#1493);
#1206=AXIS2_PLACEMENT_3D('',#1928,#1495,#1496);
#1207=AXIS2_PLACEMENT_3D('',#1929,#1497,#1498);
#1208=AXIS2_PLACEMENT_3D('',#1931,#1500,#1501);
#1209=AXIS2_PLACEMENT_3D('',#1933,#1503,#1504);
#1210=AXIS2_PLACEMENT_3D('',#1934,#1505,#1506);
#1211=AXIS2_PLACEMENT_3D('',#1936,#1508,#1509);
#1212=AXIS2_PLACEMENT_3D('',#1938,#1511,#1512);
#1213=DIRECTION('',(0.,0.,1.));
#1214=DIRECTION('',(1.,0.,0.));
#1215=DIRECTION('',(1.,0.,0.));
#1216=DIRECTION('',(0.,1.,0.));
#1217=DIRECTION('',(0.,0.,-1.));
#1218=DIRECTION('',(0.,1.,0.));
#1219=DIRECTION('',(0.,0.,-1.));
#1220=DIRECTION('',(0.,1.,0.));
#1221=DIRECTION('',(0.,-1.,0.));
#1222=DIRECTION('',(1.,0.,0.));
#1223=DIRECTION('',(0.,0.,-1.));
#1224=DIRECTION('',(1.,0.,0.));
#1225=DIRECTION('',(0.,0.,-1.));
#1226=DIRECTION('',(1.,0.,0.));
#1227=DIRECTION('',(0.,0.,-1.));
#1228=DIRECTION('',(1.,0.,0.));
#1229=DIRECTION('',(0.,0.,1.));
#1230=DIRECTION('',(1.,0.,0.));
#1231=DIRECTION('',(0.,-1.,0.));
#1232=DIRECTION('',(0.,0.,1.));
#1233=DIRECTION('',(1.,0.,0.));
#1234=DIRECTION('',(0.,-1.,0.));
#1235=DIRECTION('',(-1.,0.,0.));
#1236=DIRECTION('',(-9.09124651674711E-17,-1.,0.));
#1237=DIRECTION('',(-1.,0.,0.));
#1238=DIRECTION('',(0.,1.,0.));
#1239=DIRECTION('',(0.,0.,1.));
#1240=DIRECTION('',(1.,0.,0.));
#1241=DIRECTION('',(0.,1.,0.));
#1242=DIRECTION('',(0.,0.,1.));
#1243=DIRECTION('',(0.,0.,-1.));
#1244=DIRECTION('',(0.,-1.,0.));
#1245=DIRECTION('',(0.,0.,-1.));
#1246=DIRECTION('',(0.,0.,-1.));
#1247=DIRECTION('',(1.,0.,0.));
#1248=DIRECTION('',(1.,0.,0.));
#1249=DIRECTION('',(0.,0.,-1.));
#1250=DIRECTION('',(-1.,0.,0.));
#1251=DIRECTION('',(0.,0.,-1.));
#1252=DIRECTION('',(1.,0.,0.));
#1253=DIRECTION('',(0.,0.,1.));
#1254=DIRECTION('',(0.,0.,1.));
#1255=DIRECTION('',(1.,0.,0.));
#1256=DIRECTION('',(0.,0.,-1.));
#1257=DIRECTION('',(0.,0.,1.));
#1258=DIRECTION('',(1.,0.,0.));
#1259=DIRECTION('',(0.,0.,-1.));
#1260=DIRECTION('',(1.,0.,0.));
#1261=DIRECTION('',(0.,0.,1.));
#1262=DIRECTION('',(1.,0.,0.));
#1263=DIRECTION('',(0.,0.,-1.));
#1264=DIRECTION('',(0.,0.,1.));
#1265=DIRECTION('',(1.,0.,0.));
#1266=DIRECTION('',(1.,0.,0.));
#1267=DIRECTION('',(0.,0.,1.));
#1268=DIRECTION('',(0.,0.,-1.));
#1269=DIRECTION('',(0.,1.,0.));
#1270=DIRECTION('',(0.,1.,0.));
#1271=DIRECTION('',(0.,0.,1.));
#1272=DIRECTION('',(-1.,0.,0.));
#1273=DIRECTION('',(-1.,0.,0.));
#1274=DIRECTION('',(0.,0.,-1.));
#1275=DIRECTION('',(-1.,0.,0.));
#1276=DIRECTION('',(0.,0.,-1.));
#1277=DIRECTION('',(0.,-1.,0.));
#1278=DIRECTION('',(0.,0.,-1.));
#1279=DIRECTION('',(0.,-1.,0.));
#1280=DIRECTION('',(0.,-1.,0.));
#1281=DIRECTION('',(-1.,0.,0.));
#1282=DIRECTION('',(0.,0.,-1.));
#1283=DIRECTION('',(0.,0.,-1.));
#1284=DIRECTION('',(0.,-1.,0.));
#1285=DIRECTION('',(0.,0.,-1.));
#1286=DIRECTION('',(0.,-1.,0.));
#1287=DIRECTION('',(0.,-1.,0.));
#1288=DIRECTION('',(0.,1.,0.));
#1289=DIRECTION('',(0.,0.,1.));
#1290=DIRECTION('',(0.,0.,-1.));
#1291=DIRECTION('',(-1.,0.,0.));
#1292=DIRECTION('',(-1.,0.,0.));
#1293=DIRECTION('',(1.,-9.09124651674711E-17,0.));
#1294=DIRECTION('',(-9.09124651674711E-17,-1.,0.));
#1295=DIRECTION('',(0.,0.,-1.));
#1296=DIRECTION('',(-9.0912465167471E-17,-1.,0.));
#1297=DIRECTION('',(0.,0.,-1.));
#1298=DIRECTION('',(-9.0912465167471E-17,-1.,0.));
#1299=DIRECTION('',(9.09124651674711E-17,1.,0.));
#1300=DIRECTION('',(0.,1.,0.));
#1301=DIRECTION('',(0.,0.,1.));
#1302=DIRECTION('',(0.,0.,-1.));
#1303=DIRECTION('',(-1.,0.,0.));
#1304=DIRECTION('',(-1.,0.,0.));
#1305=DIRECTION('',(0.,0.,1.));
#1306=DIRECTION('',(-1.,0.,0.));
#1307=DIRECTION('',(0.707106781186548,0.707106781186547,0.));
#1308=DIRECTION('',(0.707106781186547,-0.707106781186548,0.));
#1309=DIRECTION('',(-0.707106781186548,-0.707106781186547,0.));
#1310=DIRECTION('',(0.707106781186547,-0.707106781186548,0.));
#1311=DIRECTION('',(-0.707106781186548,-0.707106781186547,0.));
#1312=DIRECTION('',(-0.707106781186547,0.707106781186548,0.));
#1313=DIRECTION('',(-0.707106781186548,-0.707106781186547,0.));
#1314=DIRECTION('',(0.707106781186547,-0.707106781186548,0.));
#1315=DIRECTION('',(0.707106781186548,0.707106781186547,0.));
#1316=DIRECTION('',(0.707106781186547,-0.707106781186548,0.));
#1317=DIRECTION('',(0.,0.,1.));
#1318=DIRECTION('',(1.,0.,0.));
#1319=DIRECTION('',(0.,-1.,0.));
#1320=DIRECTION('',(1.,0.,0.));
#1321=DIRECTION('',(0.,0.,1.));
#1322=DIRECTION('',(1.,0.,0.));
#1323=DIRECTION('',(0.,-1.,0.));
#1324=DIRECTION('',(1.,0.,0.));
#1325=DIRECTION('',(0.,-1.,0.));
#1326=DIRECTION('',(0.,0.,-1.));
#1327=DIRECTION('',(0.,-1.,0.));
#1328=DIRECTION('',(0.,0.,-1.));
#1329=DIRECTION('',(0.,-1.,0.));
#1330=DIRECTION('',(0.,0.,-1.));
#1331=DIRECTION('',(0.,1.,0.));
#1332=DIRECTION('',(0.,0.,1.));
#1333=DIRECTION('',(0.,0.,1.));
#1334=DIRECTION('',(1.,0.,0.));
#1335=DIRECTION('',(0.,0.,-1.));
#1336=DIRECTION('',(1.,0.,0.));
#1337=DIRECTION('',(0.,-1.,0.));
#1338=DIRECTION('',(0.,0.,-1.));
#1339=DIRECTION('',(0.,0.,-1.));
#1340=DIRECTION('',(-1.,0.,0.));
#1341=DIRECTION('',(0.,0.,-1.));
#1342=DIRECTION('',(0.,0.,1.));
#1343=DIRECTION('',(1.,0.,0.));
#1344=DIRECTION('',(0.,0.,1.));
#1345=DIRECTION('',(1.,0.,0.));
#1346=DIRECTION('',(0.,0.,1.));
#1347=DIRECTION('',(0.,0.,1.));
#1348=DIRECTION('',(1.,0.,0.));
#1349=DIRECTION('',(0.,0.,1.));
#1350=DIRECTION('',(0.,0.,1.));
#1351=DIRECTION('',(1.,0.,0.));
#1352=DIRECTION('',(0.,0.,-1.));
#1353=DIRECTION('',(1.,-9.09124651674711E-17,0.));
#1354=DIRECTION('',(9.09124651674711E-17,1.,0.));
#1355=DIRECTION('',(-9.09124651674711E-17,-1.,0.));
#1356=DIRECTION('',(0.,0.,1.));
#1357=DIRECTION('',(-9.09124651674711E-17,-1.,0.));
#1358=DIRECTION('',(1.,0.,0.));
#1359=DIRECTION('',(0.,0.,-1.));
#1360=DIRECTION('',(0.,-1.,0.));
#1361=DIRECTION('',(0.,-1.,0.));
#1362=DIRECTION('',(0.,0.,-1.));
#1363=DIRECTION('',(-1.,0.,0.));
#1364=DIRECTION('',(0.,0.,-1.));
#1365=DIRECTION('',(-1.,0.,0.));
#1366=DIRECTION('',(0.,0.,-1.));
#1367=DIRECTION('',(-1.,0.,0.));
#1368=DIRECTION('',(0.,0.,1.));
#1369=DIRECTION('',(1.,0.,0.));
#1370=DIRECTION('',(-0.707106781186548,-0.707106781186548,0.));
#1371=DIRECTION('',(0.,0.,1.));
#1372=DIRECTION('',(1.,0.,0.));
#1373=DIRECTION('',(0.,0.,1.));
#1374=DIRECTION('',(1.,0.,0.));
#1375=DIRECTION('',(0.,0.,1.));
#1376=DIRECTION('',(1.,0.,0.));
#1377=DIRECTION('',(-0.707106781186548,-0.707106781186548,0.));
#1378=DIRECTION('',(0.,0.,1.));
#1379=DIRECTION('',(1.,0.,0.));
#1380=DIRECTION('',(0.,0.,1.));
#1381=DIRECTION('',(1.,0.,0.));
#1382=DIRECTION('',(-1.83697019872103E-16,-1.,0.));
#1383=DIRECTION('',(1.,-1.83697019872103E-16,0.));
#1384=DIRECTION('',(0.309459503756691,0.950912622449961,0.));
#1385=DIRECTION('',(-0.950912622449961,0.309459503756691,0.));
#1386=DIRECTION('',(0.,0.,1.));
#1387=DIRECTION('',(1.,0.,0.));
#1388=DIRECTION('',(0.,0.,1.));
#1389=DIRECTION('',(1.,0.,0.));
#1390=DIRECTION('',(0.707106781186548,0.707106781186548,0.));
#1391=DIRECTION('',(-0.707106781186548,0.707106781186548,0.));
#1392=DIRECTION('',(-0.707106781186548,-0.707106781186548,0.));
#1393=DIRECTION('',(0.707106781186548,-0.707106781186548,0.));
#1394=DIRECTION('',(-0.707106781186548,-0.707106781186548,0.));
#1395=DIRECTION('',(0.707106781186548,0.707106781186548,0.));
#1396=DIRECTION('',(-0.707106781186548,0.707106781186548,0.));
#1397=DIRECTION('',(0.,0.,1.));
#1398=DIRECTION('',(1.,0.,0.));
#1399=DIRECTION('',(0.,0.,1.));
#1400=DIRECTION('',(1.,0.,0.));
#1401=DIRECTION('',(-0.707106781186548,-0.707106781186548,0.));
#1402=DIRECTION('',(0.707106781186548,-0.707106781186548,0.));
#1403=DIRECTION('',(0.707106781186548,0.707106781186548,0.));
#1404=DIRECTION('',(-0.707106781186548,0.707106781186548,0.));
#1405=DIRECTION('',(-0.707106781186548,-0.707106781186548,0.));
#1406=DIRECTION('',(-0.707106781186548,-0.707106781186548,0.));
#1407=DIRECTION('',(0.707106781186548,-0.707106781186548,0.));
#1408=DIRECTION('',(0.,0.,1.));
#1409=DIRECTION('',(1.,0.,0.));
#1410=DIRECTION('',(0.,0.,-1.));
#1411=DIRECTION('',(-1.,0.,0.));
#1412=DIRECTION('',(0.,0.,1.));
#1413=DIRECTION('',(1.,0.,0.));
#1414=DIRECTION('',(0.,0.,1.));
#1415=DIRECTION('',(1.,0.,0.));
#1416=DIRECTION('',(-0.950912622449961,-0.309459503756691,0.));
#1417=DIRECTION('',(0.309459503756691,-0.950912622449961,0.));
#1418=DIRECTION('',(0.,0.,1.));
#1419=DIRECTION('',(1.,0.,0.));
#1420=DIRECTION('',(0.,0.,1.));
#1421=DIRECTION('',(1.,0.,0.));
#1422=DIRECTION('',(1.,0.,0.));
#1423=DIRECTION('',(0.,1.,0.));
#1424=DIRECTION('',(-1.,-1.70210081784086E-16,0.));
#1425=DIRECTION('',(0.,0.,1.));
#1426=DIRECTION('',(1.,0.,0.));
#1427=DIRECTION('',(1.,0.,0.));
#1428=DIRECTION('',(0.,1.,0.));
#1429=DIRECTION('',(0.,0.,1.));
#1430=DIRECTION('',(0.,1.,0.));
#1431=DIRECTION('',(0.,0.,1.));
#1432=DIRECTION('',(1.70210081784086E-16,-1.,0.));
#1433=DIRECTION('',(1.,1.70210081784086E-16,0.));
#1434=DIRECTION('',(-1.,-1.70210081784086E-16,0.));
#1435=DIRECTION('',(0.,0.,1.));
#1436=DIRECTION('',(0.,0.,1.));
#1437=DIRECTION('',(1.,0.,0.));
#1438=DIRECTION('',(0.,0.,1.));
#1439=DIRECTION('',(1.,0.,0.));
#1440=DIRECTION('',(0.,0.,1.));
#1441=DIRECTION('',(0.707106781186548,-0.707106781186548,0.));
#1442=DIRECTION('',(0.707106781186548,0.707106781186548,0.));
#1443=DIRECTION('',(0.,0.,-1.));
#1444=DIRECTION('',(-0.707106781186548,-0.707106781186548,0.));
#1445=DIRECTION('',(0.,0.,-1.));
#1446=DIRECTION('',(-1.,0.,0.));
#1447=DIRECTION('',(0.,0.,-1.));
#1448=DIRECTION('',(0.,0.,1.));
#1449=DIRECTION('',(1.,0.,0.));
#1450=DIRECTION('',(0.707106781186548,-0.707106781186548,0.));
#1451=DIRECTION('',(0.707106781186548,0.707106781186548,0.));
#1452=DIRECTION('',(0.,0.,-1.));
#1453=DIRECTION('',(-0.707106781186548,-0.707106781186548,0.));
#1454=DIRECTION('',(0.,0.,-1.));
#1455=DIRECTION('',(-1.,0.,0.));
#1456=DIRECTION('',(0.,0.,1.));
#1457=DIRECTION('',(1.,0.,0.));
#1458=DIRECTION('',(0.,0.,1.));
#1459=DIRECTION('',(1.,0.,0.));
#1460=DIRECTION('',(0.,0.,1.));
#1461=DIRECTION('',(1.,0.,0.));
#1462=DIRECTION('',(0.,0.,1.));
#1463=DIRECTION('',(0.,0.,1.));
#1464=DIRECTION('',(1.,0.,0.));
#1465=DIRECTION('',(0.,0.,1.));
#1466=DIRECTION('',(1.,0.,0.));
#1467=DIRECTION('',(0.,-1.,0.));
#1468=DIRECTION('',(1.,0.,0.));
#1469=DIRECTION('',(0.,0.,-1.));
#1470=DIRECTION('',(0.,-1.,0.));
#1471=DIRECTION('',(0.,0.,1.));
#1472=DIRECTION('',(1.,0.,0.));
#1473=DIRECTION('',(1.,0.,0.));
#1474=DIRECTION('',(-1.,1.22464679914735E-16,0.));
#1475=DIRECTION('',(-1.22464679914735E-16,-1.,0.));
#1476=DIRECTION('',(0.,0.,1.));
#1477=DIRECTION('',(1.,0.,0.));
#1478=DIRECTION('',(-1.22464679914735E-16,-1.,0.));
#1479=DIRECTION('',(-1.,1.22464679914735E-16,0.));
#1480=DIRECTION('',(0.,0.,1.));
#1481=DIRECTION('',(1.,0.,0.));
#1482=DIRECTION('',(1.,0.,0.));
#1483=DIRECTION('',(0.,0.,1.));
#1484=DIRECTION('',(1.,0.,0.));
#1485=DIRECTION('',(-1.83697019872103E-16,-1.,0.));
#1486=DIRECTION('',(1.,-1.83697019872103E-16,0.));
#1487=DIRECTION('',(1.,0.,0.));
#1488=DIRECTION('',(-1.22464679914735E-16,-1.,0.));
#1489=DIRECTION('',(-1.,1.22464679914735E-16,0.));
#1490=DIRECTION('',(-1.22464679914735E-16,-1.,0.));
#1491=DIRECTION('',(1.,-1.83697019872103E-16,0.));
#1492=DIRECTION('',(0.,-1.,0.));
#1493=DIRECTION('',(1.,0.,0.));
#1494=DIRECTION('',(0.,0.,-1.));
#1495=DIRECTION('',(0.,-1.,0.));
#1496=DIRECTION('',(0.,0.,-1.));
#1497=DIRECTION('',(-1.,1.22464679914735E-16,0.));
#1498=DIRECTION('',(0.,0.,-1.));
#1499=DIRECTION('',(0.,0.,-1.));
#1500=DIRECTION('',(-1.,1.22464679914735E-16,0.));
#1501=DIRECTION('',(0.,0.,-1.));
#1502=DIRECTION('',(0.,0.,-1.));
#1503=DIRECTION('',(1.22464679914735E-16,1.,0.));
#1504=DIRECTION('',(-1.,1.22464679914735E-16,0.));
#1505=DIRECTION('',(1.83697019872103E-16,1.,0.));
#1506=DIRECTION('',(0.,0.,1.));
#1507=DIRECTION('',(0.,0.,1.));
#1508=DIRECTION('',(-1.83697019872103E-16,-1.,0.));
#1509=DIRECTION('',(0.,0.,-1.));
#1510=DIRECTION('',(0.,0.,-1.));
#1511=DIRECTION('',(1.,-1.83697019872103E-16,0.));
#1512=DIRECTION('',(1.83697019872103E-16,1.,0.));
#1513=CARTESIAN_POINT('',(0.,0.,0.));
#1514=CARTESIAN_POINT('',(-0.0001,0.,0.));
#1515=CARTESIAN_POINT('',(-0.0001,-0.188649999999996,0.));
#1516=CARTESIAN_POINT('',(-0.0001,-0.188649999999996,0.0083));
#1517=CARTESIAN_POINT('',(-0.0001,-0.188649999999996,0.));
#1518=CARTESIAN_POINT('',(-0.0001,-2.77555756156289E-17,0.0083));
#1519=CARTESIAN_POINT('',(-0.0001,-0.19265,0.0083));
#1520=CARTESIAN_POINT('',(-0.0001,-0.19265,0.167525));
#1521=CARTESIAN_POINT('',(-0.0001,-0.19265,0.));
#1522=CARTESIAN_POINT('',(-0.0001,0.,0.));
#1523=CARTESIAN_POINT('',(0.,0.,0.));
#1524=CARTESIAN_POINT('',(-0.181075,1.38777878078145E-17,0.0083));
#1525=CARTESIAN_POINT('',(-0.181075,0.,0.0083));
#1526=CARTESIAN_POINT('',(-0.181075,1.38777878078145E-17,0.));
#1527=CARTESIAN_POINT('',(-2.77555756156289E-17,0.,0.0083));
#1528=CARTESIAN_POINT('',(-0.180975,0.,0.0083));
#1529=CARTESIAN_POINT('',(-0.180975,0.,0.0083));
#1530=CARTESIAN_POINT('',(-0.180975,0.,0.003));
#1531=CARTESIAN_POINT('',(2.77555756156289E-17,0.,0.003));
#1532=CARTESIAN_POINT('',(-0.17272,0.,0.003));
#1533=CARTESIAN_POINT('',(-0.17272,0.,0.003));
#1534=CARTESIAN_POINT('',(-0.17272,0.,0.));
#1535=CARTESIAN_POINT('',(2.77555756156289E-17,0.,0.));
#1536=CARTESIAN_POINT('',(0.,0.,0.157525));
#1537=CARTESIAN_POINT('',(-0.162754019945775,-0.130173,0.157525));
#1538=CARTESIAN_POINT('',(-0.162754019945775,-0.179939352497412,0.157525));
#1539=CARTESIAN_POINT('',(-0.162754019945775,-0.184188138112027,0.157525));
#1540=CARTESIAN_POINT('',(-0.155575,-0.155575,0.157525));
#1541=CARTESIAN_POINT('',(-0.180975,-0.155575,0.157525));
#1542=CARTESIAN_POINT('',(-0.180975,-8.32667268468867E-17,0.157525));
#1543=CARTESIAN_POINT('',(-0.180975,-0.14935,0.157525));
#1544=CARTESIAN_POINT('',(-0.1868125,-0.14935,0.157525));
#1545=CARTESIAN_POINT('',(-0.184974999999997,-0.14935,0.157525));
#1546=CARTESIAN_POINT('',(-0.184974999999997,-2.4980018054066E-16,0.157525));
#1547=CARTESIAN_POINT('',(-0.184974999999997,-0.15265,0.157525));
#1548=CARTESIAN_POINT('',(-0.186812499999997,-0.15265,0.157525));
#1549=CARTESIAN_POINT('',(-0.185074999999996,-0.15265,0.157525));
#1550=CARTESIAN_POINT('',(-0.185074999999996,0.0353553390593275,0.157525));
#1551=CARTESIAN_POINT('',(-0.185074999999996,-0.155575,0.157525));
#1552=CARTESIAN_POINT('',(-0.155575,-0.155575,0.157525));
#1553=CARTESIAN_POINT('',(-2.77555756156289E-17,-0.19265,0.167525));
#1554=CARTESIAN_POINT('',(-0.16725,-0.19265,0.167525));
#1555=CARTESIAN_POINT('',(-0.16725,-0.19265,0.167425));
#1556=CARTESIAN_POINT('',(-0.16725,-0.19265,0.162471740891299));
#1557=CARTESIAN_POINT('',(-0.161275,-0.19265,0.157775));
#1558=CARTESIAN_POINT('',(-0.16725,-0.19265,0.153078259108701));
#1559=CARTESIAN_POINT('',(-0.16725,-0.19265,0.0083));
#1560=CARTESIAN_POINT('',(-0.16725,-0.19265,0.));
#1561=CARTESIAN_POINT('',(2.77555756156289E-17,-0.19265,0.));
#1562=CARTESIAN_POINT('',(2.77555756156289E-17,-0.19265,0.0083));
#1563=CARTESIAN_POINT('',(-0.14935,-0.19265,0.0083));
#1564=CARTESIAN_POINT('',(-0.14935,-0.19265,0.167525));
#1565=CARTESIAN_POINT('',(-0.14935,-0.19265,0.167425));
#1566=CARTESIAN_POINT('',(-0.171,-0.19265,0.167425));
#1567=CARTESIAN_POINT('',(-0.155575,-0.155575,0.167525));
#1568=CARTESIAN_POINT('',(-0.162754019945775,-0.184188138112027,0.157525));
#1569=CARTESIAN_POINT('',(-0.162827728509755,-0.184169644675588,0.157961065745202));
#1570=CARTESIAN_POINT('',(-0.162564199700078,-0.184239925685949,0.15887898451582));
#1571=CARTESIAN_POINT('',(-0.161282055388695,-0.184530219758443,0.159471488259212));
#1572=CARTESIAN_POINT('',(-0.159987012969109,-0.184747900310288,0.158885014315342));
#1573=CARTESIAN_POINT('',(-0.159722238210006,-0.184782121849736,0.157961262633755));
#1574=CARTESIAN_POINT('',(-0.159795980054225,-0.184771460870825,0.157525));
#1575=CARTESIAN_POINT('',(-0.159795980054225,-0.184771460870825,0.157525));
#1576=CARTESIAN_POINT('',(-0.185074999999996,-0.155575,0.167525));
#1577=CARTESIAN_POINT('',(-0.185074999999996,-0.155575,0.167425));
#1578=CARTESIAN_POINT('',(-0.155575,-0.155575,0.167425));
#1579=CARTESIAN_POINT('',(-0.155575,-0.185074999999996,0.167425));
#1580=CARTESIAN_POINT('',(-0.155575,-0.185074999999996,0.167525));
#1581=CARTESIAN_POINT('',(-0.155575,-0.185074999999996,0.157525));
#1582=CARTESIAN_POINT('',(-0.155575,-0.155575,0.157525));
#1583=CARTESIAN_POINT('',(-0.177447985938946,-0.175385508027063,0.160710945153184));
#1584=CARTESIAN_POINT('',(-0.178005873971023,-0.174732874938809,0.162275832966006));
#1585=CARTESIAN_POINT('',(-0.177680765953596,-0.175118805744472,0.163985175414188));
#1586=CARTESIAN_POINT('',(-0.176624578406563,-0.176269282026206,0.16483830069486));
#1587=CARTESIAN_POINT('',(-0.175384861442289,-0.177448566350418,0.164338308258288));
#1588=CARTESIAN_POINT('',(-0.174733534382113,-0.178005290243285,0.162774843479799));
#1589=CARTESIAN_POINT('',(-0.175117180873312,-0.177682202674383,0.161067344848998));
#1590=CARTESIAN_POINT('',(-0.176268835514978,-0.176625040194062,0.160211407933279));
#1591=CARTESIAN_POINT('',(-0.177447985938946,-0.175385508027063,0.160710945153184));
#1592=CARTESIAN_POINT('',(-0.178005873971023,-0.174732874938809,0.162275832966006));
#1593=CARTESIAN_POINT('',(-0.177680765953596,-0.175118805744472,0.163985175414188));
#1594=CARTESIAN_POINT('',(-0.177858707962773,-0.174905968921128,0.162299908738566));
#1595=CARTESIAN_POINT('',(-0.16725,-0.16725,0.167525));
#1596=CARTESIAN_POINT('',(-0.16725,-0.19265,0.162471740891299));
#1597=CARTESIAN_POINT('',(-0.167776432802549,-0.19265,0.161802034797642));
#1598=CARTESIAN_POINT('',(-0.168588413819153,-0.192618622181914,0.160310049911775));
#1599=CARTESIAN_POINT('',(-0.169017832528465,-0.192587659661334,0.157776382068479));
#1600=CARTESIAN_POINT('',(-0.168590254957349,-0.192618534612222,0.155244481586153));
#1601=CARTESIAN_POINT('',(-0.16777642997142,-0.19265,0.153747961600712));
#1602=CARTESIAN_POINT('',(-0.16725,-0.19265,0.153078259108701));
#1603=CARTESIAN_POINT('',(-0.16725,-0.16725,0.167425));
#1604=CARTESIAN_POINT('',(-0.19265,-0.16725,0.167425));
#1605=CARTESIAN_POINT('',(-0.19265,-0.16725,0.167525));
#1606=CARTESIAN_POINT('',(-0.19265,-0.16725,0.));
#1607=CARTESIAN_POINT('',(-0.16725,-0.16725,0.));
#1608=CARTESIAN_POINT('',(-0.187117046647739,-0.183123132010734,0.159706368389877));
#1609=CARTESIAN_POINT('',(-0.185255198692346,-0.185256169839335,0.158534527944976));
#1610=CARTESIAN_POINT('',(-0.183125241548294,-0.187115271597345,0.159705519830218));
#1611=CARTESIAN_POINT('',(-0.182162965696338,-0.187804399656291,0.162521672128291));
#1612=CARTESIAN_POINT('',(-0.183124599949733,-0.187115842169603,0.165345634250209));
#1613=CARTESIAN_POINT('',(-0.185254927146912,-0.18525620598042,0.166513863649077));
#1614=CARTESIAN_POINT('',(-0.187112942832583,-0.183128229129881,0.16534890958428));
#1615=CARTESIAN_POINT('',(-0.187804680014073,-0.182162586738147,0.16252836697781));
#1616=CARTESIAN_POINT('',(-0.187117046647739,-0.183123132010734,0.159706368389877));
#1617=CARTESIAN_POINT('',(-0.185255198692346,-0.185256169839335,0.158534527944976));
#1618=CARTESIAN_POINT('',(-0.183125241548294,-0.187115271597345,0.159705519830218));
#1619=CARTESIAN_POINT('',(-0.185210512190437,-0.185210512293839,0.158925));
#1620=CARTESIAN_POINT('',(-0.185074999999996,-0.1541125,0.167525));
#1621=CARTESIAN_POINT('',(-0.185074999999996,-0.15265,0.167525));
#1622=CARTESIAN_POINT('',(-0.185074999999996,-0.15265,0.167425));
#1623=CARTESIAN_POINT('',(-0.185074999999996,0.0353553390593275,0.167425));
#1624=CARTESIAN_POINT('',(-0.1524625,-0.185074999999996,0.167525));
#1625=CARTESIAN_POINT('',(-0.171,-0.185074999999996,0.157525));
#1626=CARTESIAN_POINT('',(-0.14935,-0.185074999999996,0.157525));
#1627=CARTESIAN_POINT('',(-0.171,-0.185074999999996,0.167425));
#1628=CARTESIAN_POINT('',(-0.14935,-0.185074999999996,0.167425));
#1629=CARTESIAN_POINT('',(-0.14935,-0.185074999999996,0.167525));
#1630=CARTESIAN_POINT('',(-0.14935,-0.1868125,0.167525));
#1631=CARTESIAN_POINT('',(-0.14935,-0.1868125,0.0083));
#1632=CARTESIAN_POINT('',(-0.14935,-0.180975,0.0083));
#1633=CARTESIAN_POINT('',(-0.14935,-0.180975,0.30725));
#1634=CARTESIAN_POINT('',(-0.14935,-0.180975,0.157525));
#1635=CARTESIAN_POINT('',(-0.14935,-0.1868125,0.157525));
#1636=CARTESIAN_POINT('',(-0.14935,0.0353553390593275,0.167425));
#1637=CARTESIAN_POINT('',(-0.19265,6.93889390390723E-18,0.167525));
#1638=CARTESIAN_POINT('',(-0.19265,-0.14935,0.167525));
#1639=CARTESIAN_POINT('',(-0.19265,-0.14935,0.167425));
#1640=CARTESIAN_POINT('',(-0.19265,-0.14935,0.0083));
#1641=CARTESIAN_POINT('',(-0.19265,0.,0.0083));
#1642=CARTESIAN_POINT('',(-0.19265,0.,0.0083));
#1643=CARTESIAN_POINT('',(-0.19265,0.,0.0083));
#1644=CARTESIAN_POINT('',(-0.19265,0.,0.));
#1645=CARTESIAN_POINT('',(-0.19265,0.,0.));
#1646=CARTESIAN_POINT('',(-0.19265,0.0353553390593275,0.167425));
#1647=CARTESIAN_POINT('',(-0.1868125,-0.14935,0.167525));
#1648=CARTESIAN_POINT('',(-0.188649999999996,-0.14935,0.167525));
#1649=CARTESIAN_POINT('',(-0.188649999999996,-0.14935,0.167425));
#1650=CARTESIAN_POINT('',(-0.188649999999997,-0.14935,0.0083));
#1651=CARTESIAN_POINT('',(-0.1868125,-0.14935,0.0083));
#1652=CARTESIAN_POINT('',(-0.171,-0.14935,0.167425));
#1653=CARTESIAN_POINT('',(-0.188649999999996,-2.70616862252382E-16,0.167525));
#1654=CARTESIAN_POINT('',(-0.188649999999996,-0.15265,0.167525));
#1655=CARTESIAN_POINT('',(-0.188649999999996,-0.15265,0.167425));
#1656=CARTESIAN_POINT('',(-0.188649999999997,-0.15265,0.005));
#1657=CARTESIAN_POINT('',(-0.188649999999997,-1.52655665885959E-16,0.005));
#1658=CARTESIAN_POINT('',(-0.188649999999997,0.,0.005));
#1659=CARTESIAN_POINT('',(-0.188649999999997,0.,0.31005));
#1660=CARTESIAN_POINT('',(-0.188649999999997,0.,0.0083));
#1661=CARTESIAN_POINT('',(-0.188649999999997,-1.52655665885959E-16,0.0083));
#1662=CARTESIAN_POINT('',(-0.188649999999996,0.0353553390593275,0.167425));
#1663=CARTESIAN_POINT('',(-0.186812499999996,-0.15265,0.167525));
#1664=CARTESIAN_POINT('',(-0.184974999999997,-0.15265,0.31005));
#1665=CARTESIAN_POINT('',(-0.184974999999997,-0.15265,0.005));
#1666=CARTESIAN_POINT('',(-0.186812499999997,-0.15265,0.005));
#1667=CARTESIAN_POINT('',(-0.171,-0.15265,0.167425));
#1668=CARTESIAN_POINT('',(-0.171,0.0353553390593275,0.167425));
#1669=CARTESIAN_POINT('',(-0.18521051382757,-0.18521051382757,0.162525));
#1670=CARTESIAN_POINT('',(-0.182382086702823,-0.182382086702823,0.162525));
#1671=CARTESIAN_POINT('',(-0.180897162462331,-0.183867010943315,0.162525));
#1672=CARTESIAN_POINT('',(-0.184927671115095,-0.179836502290552,0.162525));
#1673=CARTESIAN_POINT('',(-0.182382086702823,-0.182382086702823,0.162525));
#1674=CARTESIAN_POINT('',(-0.179836502290551,-0.184927671115095,0.162525));
#1675=CARTESIAN_POINT('',(-0.18521051382757,-0.18521051382757,0.162525));
#1676=CARTESIAN_POINT('',(0.,0.,0.157525));
#1677=CARTESIAN_POINT('',(-0.159795980054225,-0.130173,0.157525));
#1678=CARTESIAN_POINT('',(-0.159795980054225,-0.180621822700332,0.157525));
#1679=CARTESIAN_POINT('',(0.,-0.180975,0.157525));
#1680=CARTESIAN_POINT('',(-0.155575,-0.180975,0.157525));
#1681=CARTESIAN_POINT('',(-0.155575,-0.155575,0.157525));
#1682=CARTESIAN_POINT('',(-0.000812500000000049,-0.19065,0.155268398282202));
#1683=CARTESIAN_POINT('',(-0.161275,-0.19065,0.157775));
#1684=CARTESIAN_POINT('',(-0.161275,-0.19065,0.156275));
#1685=CARTESIAN_POINT('',(-0.161275,-0.19065,0.157775));
#1686=CARTESIAN_POINT('',(-0.161275,-0.19065,0.150175));
#1687=CARTESIAN_POINT('',(-0.161275,-0.19065,0.157775));
#1688=CARTESIAN_POINT('',(0.,-0.180975,0.0083));
#1689=CARTESIAN_POINT('',(-0.01,-0.180975,0.00415));
#1690=CARTESIAN_POINT('',(-0.01,-0.180975,0.003));
#1691=CARTESIAN_POINT('',(-0.01,-0.180975,0.0083));
#1692=CARTESIAN_POINT('',(0.,-0.180975,0.003));
#1693=CARTESIAN_POINT('',(-0.155575,-0.180975,0.003));
#1694=CARTESIAN_POINT('',(-0.155575,-0.180975,0.31675));
#1695=CARTESIAN_POINT('',(0.,-0.180975,0.0083));
#1696=CARTESIAN_POINT('',(-0.1868125,-0.14935,0.30725));
#1697=CARTESIAN_POINT('',(-0.180975,-0.14935,0.30725));
#1698=CARTESIAN_POINT('',(-0.180975,-0.14935,0.0083));
#1699=CARTESIAN_POINT('',(-0.1868125,-0.14935,0.0083));
#1700=CARTESIAN_POINT('',(-0.184974999999997,-0.14935,0.0083));
#1701=CARTESIAN_POINT('',(-0.184974999999997,-0.14935,0.31005));
#1702=CARTESIAN_POINT('',(-0.155575,-0.155575,0.0083));
#1703=CARTESIAN_POINT('',(-0.159795980054225,-0.180621822700331,0.157525));
#1704=CARTESIAN_POINT('',(-0.159855051560505,-0.180611867759029,0.157175528255938));
#1705=CARTESIAN_POINT('',(-0.160234356662372,-0.180549046407958,0.156520291326203));
#1706=CARTESIAN_POINT('',(-0.161287410689495,-0.180333322964965,0.156150116943766));
#1707=CARTESIAN_POINT('',(-0.162317928657678,-0.180068723758478,0.15652939070694));
#1708=CARTESIAN_POINT('',(-0.162694373010675,-0.179956927622252,0.157172123973129));
#1709=CARTESIAN_POINT('',(-0.162754019945775,-0.179939352497412,0.157525));
#1710=CARTESIAN_POINT('',(-0.155575,-0.155575,0.003));
#1711=CARTESIAN_POINT('',(-0.159797874221207,-0.180621503414886,0.003));
#1712=CARTESIAN_POINT('',(-0.159797874221207,-0.180621503414886,0.0083));
#1713=CARTESIAN_POINT('',(-0.159797874221207,-0.180621503414886,0.0133));
#1714=CARTESIAN_POINT('',(-0.155575,-0.155575,0.0133));
#1715=CARTESIAN_POINT('',(-0.180621503414886,-0.159797874221207,0.0133));
#1716=CARTESIAN_POINT('',(-0.180621503414886,-0.159797874221207,0.0083));
#1717=CARTESIAN_POINT('',(-0.180621503414886,-0.159797874221207,0.003));
#1718=CARTESIAN_POINT('',(-0.155575,-0.155575,0.003));
#1719=CARTESIAN_POINT('',(-0.180975,-0.155575,0.003));
#1720=CARTESIAN_POINT('',(-0.180975,-0.155575,0.0083));
#1721=CARTESIAN_POINT('',(-0.184974999999997,-2.4980018054066E-16,0.31005));
#1722=CARTESIAN_POINT('',(-0.184974999999997,-2.4980018054066E-16,0.0083));
#1723=CARTESIAN_POINT('',(-0.184974999999996,0.0099,0.0083));
#1724=CARTESIAN_POINT('',(-0.184974999999996,0.0099,0.31005));
#1725=CARTESIAN_POINT('',(-0.184974999999996,0.0099,0.005));
#1726=CARTESIAN_POINT('',(-0.184974999999997,-2.4980018054066E-16,0.005));
#1727=CARTESIAN_POINT('',(-0.180975,-8.32667268468867E-17,0.0083));
#1728=CARTESIAN_POINT('',(-0.180975,-8.32667268468867E-17,0.003));
#1729=CARTESIAN_POINT('',(-0.180975,-8.32667268468867E-17,0.0083));
#1730=CARTESIAN_POINT('',(-0.1651,-0.1651,0.0083));
#1731=CARTESIAN_POINT('',(-0.1651,-0.1651,0.00195));
#1732=CARTESIAN_POINT('',(-0.169926,-0.1651,0.00195));
#1733=CARTESIAN_POINT('',(-0.1651,-0.1651,0.0083));
#1734=CARTESIAN_POINT('',(-0.169926,-0.1651,0.0083));
#1735=CARTESIAN_POINT('',(2.77555756156289E-17,0.,0.0083));
#1736=CARTESIAN_POINT('',(-0.171448448669718,-0.163209240455332,0.0083));
#1737=CARTESIAN_POINT('',(-0.169219604107193,-0.160980395892807,0.0083));
#1738=CARTESIAN_POINT('',(-0.171448448669718,-0.163209240455332,0.0083));
#1739=CARTESIAN_POINT('',(-0.175691089356837,-0.158966599768213,0.0083));
#1740=CARTESIAN_POINT('',(-0.173834332334297,-0.164672075502913,0.0083));
#1741=CARTESIAN_POINT('',(-0.155575,-0.155575,0.0083));
#1742=CARTESIAN_POINT('',(-0.164672075502913,-0.173834332334297,0.0083));
#1743=CARTESIAN_POINT('',(-0.158966599768213,-0.175691089356837,0.0083));
#1744=CARTESIAN_POINT('',(-0.163209240455332,-0.171448448669718,0.0083));
#1745=CARTESIAN_POINT('',(0.00411960410719285,-0.00411960410719283,0.0083));
#1746=CARTESIAN_POINT('',(-0.160980395892807,-0.169219604107193,0.0083));
#1747=CARTESIAN_POINT('',(-0.1651,-0.1651,0.0083));
#1748=CARTESIAN_POINT('',(-2.77555756156289E-17,-2.77555756156289E-17,0.0083));
#1749=CARTESIAN_POINT('',(-0.01,3.46944695195361E-17,0.0083));
#1750=CARTESIAN_POINT('',(-0.01,-0.188649999999996,0.0083));
#1751=CARTESIAN_POINT('',(-0.01,-0.188649999999996,0.0083));
#1752=CARTESIAN_POINT('',(-0.164672075502913,-0.173834332334297,0.0083));
#1753=CARTESIAN_POINT('',(-0.163721162880463,-0.174143791838054,0.00830000000000001));
#1754=CARTESIAN_POINT('',(-0.163721162880463,-0.174143791838054,0.0073));
#1755=CARTESIAN_POINT('',(-0.1647934064038,-0.174247445601435,0.00830000000000001));
#1756=CARTESIAN_POINT('',(-0.163827165385183,-0.174469518204081,0.00828761049186166));
#1757=CARTESIAN_POINT('',(-0.163853774981364,-0.17455128464117,0.00730000000568617));
#1758=CARTESIAN_POINT('',(-0.164908451694369,-0.17509540285998,0.00840648563524077));
#1759=CARTESIAN_POINT('',(-0.163977723684754,-0.175126568366912,0.00832544454299073));
#1760=CARTESIAN_POINT('',(-0.164008351070961,-0.175379666672905,0.00742778275971747));
#1761=CARTESIAN_POINT('',(-0.164676631679847,-0.176781423708188,0.00895858158970623));
#1762=CARTESIAN_POINT('',(-0.163993819702651,-0.176596873923985,0.00870772645641808));
#1763=CARTESIAN_POINT('',(-0.163903965928992,-0.17700673557141,0.00809029790913245));
#1764=CARTESIAN_POINT('',(-0.16369705861696,-0.178565712593004,0.0100567907652231));
#1765=CARTESIAN_POINT('',(-0.163366152496983,-0.178412304510537,0.00972511976343436));
#1766=CARTESIAN_POINT('',(-0.163132879113584,-0.178707288003552,0.0094081489177603));
#1767=CARTESIAN_POINT('',(-0.161926917782936,-0.180008239292364,0.0116237597722264));
#1768=CARTESIAN_POINT('',(-0.161807232313272,-0.179987214632868,0.0114264707425559));
#1769=CARTESIAN_POINT('',(-0.161637741120511,-0.180065710165386,0.0112885117268177));
#1770=CARTESIAN_POINT('',(-0.160517920194447,-0.18050010269367,0.0127440329821818));
#1771=CARTESIAN_POINT('',(-0.160469728144792,-0.180508227938144,0.0126884362771145));
#1772=CARTESIAN_POINT('',(-0.160421536088004,-0.180516353183876,0.0126328395786157));
#1773=CARTESIAN_POINT('',(-0.159797874221206,-0.180621503414885,0.0133));
#1774=CARTESIAN_POINT('',(-0.159797874221206,-0.180621503414885,0.0133));
#1775=CARTESIAN_POINT('',(-0.159797874221206,-0.180621503414885,0.0133));
#1776=CARTESIAN_POINT('',(-0.164672075502913,-0.173834332334297,0.0083));
#1777=CARTESIAN_POINT('',(-0.164929889734816,-0.174712150555443,0.00830000000000002));
#1778=CARTESIAN_POINT('',(-0.164845541523589,-0.176532268167618,0.008784205197686));
#1779=CARTESIAN_POINT('',(-0.163632939099928,-0.178632381772246,0.0101164253017175));
#1780=CARTESIAN_POINT('',(-0.161881818015927,-0.180027340322939,0.0116601597577586));
#1781=CARTESIAN_POINT('',(-0.160501162480425,-0.180502928066833,0.0127569720874305));
#1782=CARTESIAN_POINT('',(-0.159797874221207,-0.180621503414886,0.0133));
#1783=CARTESIAN_POINT('',(-0.163721162880463,-0.174143791838054,0.0073));
#1784=CARTESIAN_POINT('',(-0.164002414584488,-0.175008027035863,0.00729999999999999));
#1785=CARTESIAN_POINT('',(-0.164040810414201,-0.176790349010838,0.00788836187202634));
#1786=CARTESIAN_POINT('',(-0.163062695122115,-0.178790949471406,0.00950240997447711));
#1787=CARTESIAN_POINT('',(-0.16158441961651,-0.180090053604616,0.0113484662962417));
#1788=CARTESIAN_POINT('',(-0.160401514084108,-0.180519728920709,0.0126542580456381));
#1789=CARTESIAN_POINT('',(-0.159797874221207,-0.180621503414886,0.0133));
#1790=CARTESIAN_POINT('',(-0.163721162880463,-0.174143791838054,0.0073));
#1791=CARTESIAN_POINT('',(-0.164672075502913,-0.173834332334297,0.0073));
#1792=CARTESIAN_POINT('',(-0.158966599768213,-0.175691089356837,0.0073));
#1793=CARTESIAN_POINT('',(-0.158966599768213,-0.175691089356837,0.0073));
#1794=CARTESIAN_POINT('',(-0.162502133674145,-0.172155555450904,0.0073));
#1795=CARTESIAN_POINT('',(-0.163209240455332,-0.171448448669718,0.0073));
#1796=CARTESIAN_POINT('',(-0.167901185004428,-0.176140393218814,0.0073));
#1797=CARTESIAN_POINT('',(-0.167194078223241,-0.1768475,0.0073));
#1798=CARTESIAN_POINT('',(-0.160273289111621,-0.169926710888379,0.0073));
#1799=CARTESIAN_POINT('',(-0.160980395892807,-0.169219604107193,0.0073));
#1800=CARTESIAN_POINT('',(-0.1651,-0.1651,0.0073));
#1801=CARTESIAN_POINT('',(-0.1651,-0.1651,0.0073));
#1802=CARTESIAN_POINT('',(-0.169926710888379,-0.160273289111621,0.0073));
#1803=CARTESIAN_POINT('',(-0.169219604107193,-0.160980395892807,0.0073));
#1804=CARTESIAN_POINT('',(-0.00411960410719278,0.00411960410719281,0.0073));
#1805=CARTESIAN_POINT('',(-0.169926710888379,-0.160273289111621,0.0073));
#1806=CARTESIAN_POINT('',(-0.172155555450904,-0.162502133674145,0.0073));
#1807=CARTESIAN_POINT('',(-0.171448448669718,-0.163209240455332,0.0073));
#1808=CARTESIAN_POINT('',(-0.160274,-0.1651,0.00195));
#1809=CARTESIAN_POINT('',(-0.1651,-0.1651,0.00195));
#1810=CARTESIAN_POINT('',(-0.168275,-0.1651,0.00195));
#1811=CARTESIAN_POINT('',(-0.175691089356837,-0.158966599768213,0.0073));
#1812=CARTESIAN_POINT('',(-0.175691089356837,-0.158966599768213,0.0073));
#1813=CARTESIAN_POINT('',(-0.174143791838054,-0.163721162880463,0.0073));
#1814=CARTESIAN_POINT('',(-0.173834332334297,-0.164672075502913,0.0073));
#1815=CARTESIAN_POINT('',(-0.174143791838054,-0.163721162880463,0.0073));
#1816=CARTESIAN_POINT('',(-0.174143791838054,-0.163721162880463,0.00830000000000001));
#1817=CARTESIAN_POINT('',(-0.173834332334297,-0.164672075502913,0.0083));
#1818=CARTESIAN_POINT('',(-0.17455128464117,-0.163853774981365,0.00730000000568617));
#1819=CARTESIAN_POINT('',(-0.174469518204081,-0.163827165385183,0.00828761049186166));
#1820=CARTESIAN_POINT('',(-0.174247445601435,-0.1647934064038,0.00830000000000001));
#1821=CARTESIAN_POINT('',(-0.175379666672905,-0.16400835107096,0.00742778275971654));
#1822=CARTESIAN_POINT('',(-0.175126568366913,-0.163977723684753,0.00832544454298957));
#1823=CARTESIAN_POINT('',(-0.175095402859981,-0.164908451694368,0.00840648563523999));
#1824=CARTESIAN_POINT('',(-0.177006735571409,-0.163903965928996,0.00809029790913711));
#1825=CARTESIAN_POINT('',(-0.176596873923979,-0.163993819702655,0.00870772645642332));
#1826=CARTESIAN_POINT('',(-0.176781423708187,-0.16467663167985,0.00895858158971016));
#1827=CARTESIAN_POINT('',(-0.178707288003557,-0.163132879113555,0.00940814891772291));
#1828=CARTESIAN_POINT('',(-0.178412304510574,-0.163366152496951,0.0097251197633967));
#1829=CARTESIAN_POINT('',(-0.178565712593009,-0.16369705861693,0.0100567907651915));
#1830=CARTESIAN_POINT('',(-0.180065710165368,-0.161637741120614,0.0112885117269542));
#1831=CARTESIAN_POINT('',(-0.179987214632742,-0.161807232313378,0.0114264707426831));
#1832=CARTESIAN_POINT('',(-0.180008239292346,-0.161926917783044,0.0116237597723417));
#1833=CARTESIAN_POINT('',(-0.180516353183913,-0.160421536087783,0.0126328395783221));
#1834=CARTESIAN_POINT('',(-0.180508227938411,-0.160469728144568,0.0126884362768454));
#1835=CARTESIAN_POINT('',(-0.18050010269371,-0.160517920194215,0.0127440329819338));
#1836=CARTESIAN_POINT('',(-0.180621503414885,-0.159797874221206,0.0133));
#1837=CARTESIAN_POINT('',(-0.180621503414885,-0.159797874221206,0.0133));
#1838=CARTESIAN_POINT('',(-0.180621503414885,-0.159797874221206,0.0133));
#1839=CARTESIAN_POINT('',(-0.174143791838054,-0.163721162880463,0.0073));
#1840=CARTESIAN_POINT('',(-0.175008027035864,-0.164002414584488,0.00729999999999999));
#1841=CARTESIAN_POINT('',(-0.176790349010837,-0.164040810414208,0.00788836187203255));
#1842=CARTESIAN_POINT('',(-0.178790949471409,-0.163062695122092,0.00950240997445539));
#1843=CARTESIAN_POINT('',(-0.180090053604602,-0.161584419616594,0.0113484662963224));
#1844=CARTESIAN_POINT('',(-0.18051972892074,-0.160401514083927,0.0126542580454644));
#1845=CARTESIAN_POINT('',(-0.180621503414886,-0.159797874221207,0.0133));
#1846=CARTESIAN_POINT('',(-0.173834332334297,-0.164672075502913,0.0083));
#1847=CARTESIAN_POINT('',(-0.174712150555443,-0.164929889734816,0.00830000000000002));
#1848=CARTESIAN_POINT('',(-0.176532268167616,-0.164845541523603,0.00878420519770423));
#1849=CARTESIAN_POINT('',(-0.178632381772254,-0.163632939099881,0.0101164253016537));
#1850=CARTESIAN_POINT('',(-0.180027340322909,-0.161881818016105,0.0116601597579955));
#1851=CARTESIAN_POINT('',(-0.180502928066897,-0.160501162480042,0.0127569720869204));
#1852=CARTESIAN_POINT('',(-0.180621503414886,-0.159797874221207,0.0133));
#1853=CARTESIAN_POINT('',(-0.155575,-0.155575,0.0133));
#1854=CARTESIAN_POINT('',(2.77555756156289E-17,0.,0.003));
#1855=CARTESIAN_POINT('',(0.,-0.180975,0.003));
#1856=CARTESIAN_POINT('',(-0.0001,-0.180975,0.003));
#1857=CARTESIAN_POINT('',(-0.0001,0.,0.003));
#1858=CARTESIAN_POINT('',(-0.0001,-0.17272,0.003));
#1859=CARTESIAN_POINT('',(-2.77555756156289E-17,-0.17272,0.003));
#1860=CARTESIAN_POINT('',(-0.162988120380331,-0.17272,0.003));
#1861=CARTESIAN_POINT('',(-0.158966599768213,-0.175691089356837,0.003));
#1862=CARTESIAN_POINT('',(-0.0001,0.,0.));
#1863=CARTESIAN_POINT('',(-0.0001,-0.180975,0.));
#1864=CARTESIAN_POINT('',(-0.0001,-0.180975,0.));
#1865=CARTESIAN_POINT('',(-0.0001,0.,0.));
#1866=CARTESIAN_POINT('',(-0.0001,-0.17272,0.));
#1867=CARTESIAN_POINT('',(-0.0001,-0.17272,0.003));
#1868=CARTESIAN_POINT('',(-2.77555756156289E-17,-0.17272,0.003));
#1869=CARTESIAN_POINT('',(-2.77555756156289E-17,-0.17272,0.));
#1870=CARTESIAN_POINT('',(-0.162988120380331,-0.17272,0.));
#1871=CARTESIAN_POINT('',(-0.162988120380331,-0.17272,0.0083));
#1872=CARTESIAN_POINT('',(-0.158966599768213,-0.175691089356837,0.0083));
#1873=CARTESIAN_POINT('',(-0.158966599768213,-0.175691089356837,0.));
#1874=CARTESIAN_POINT('',(-0.162502133674145,-0.172155555450904,0.));
#1875=CARTESIAN_POINT('',(-0.162502133674145,-0.172155555450904,0.0083));
#1876=CARTESIAN_POINT('',(-0.167194078223241,-0.1768475,0.0083));
#1877=CARTESIAN_POINT('',(-0.160273289111621,-0.169926710888379,0.0083));
#1878=CARTESIAN_POINT('',(-0.160273289111621,-0.169926710888379,0.));
#1879=CARTESIAN_POINT('',(-0.167194078223241,-0.1768475,0.));
#1880=CARTESIAN_POINT('',(-0.1651,-0.1651,0.0083));
#1881=CARTESIAN_POINT('',(-0.169926710888379,-0.160273289111621,0.0083));
#1882=CARTESIAN_POINT('',(-0.169926710888379,-0.160273289111621,0.));
#1883=CARTESIAN_POINT('',(-0.1651,-0.1651,0.));
#1884=CARTESIAN_POINT('',(-0.1768475,-0.167194078223242,0.0083));
#1885=CARTESIAN_POINT('',(-0.172155555450904,-0.162502133674145,0.0083));
#1886=CARTESIAN_POINT('',(-0.172155555450904,-0.162502133674145,0.));
#1887=CARTESIAN_POINT('',(-0.1768475,-0.167194078223242,0.));
#1888=CARTESIAN_POINT('',(-0.1651,-0.1651,0.0083));
#1889=CARTESIAN_POINT('',(-0.1651,-0.1651,0.));
#1890=CARTESIAN_POINT('',(-0.161925,-0.1651,0.));
#1891=CARTESIAN_POINT('',(-0.175691089356837,-0.158966599768213,0.0083));
#1892=CARTESIAN_POINT('',(-0.175691089356837,-0.158966599768213,0.));
#1893=CARTESIAN_POINT('',(-0.17272,-0.162988120380331,0.));
#1894=CARTESIAN_POINT('',(-0.17272,-0.162988120380331,0.0083));
#1895=CARTESIAN_POINT('',(-0.17272,-0.162988120380331,0.003));
#1896=CARTESIAN_POINT('',(-0.175691089356837,-0.158966599768213,0.003));
#1897=CARTESIAN_POINT('',(2.77555756156289E-17,0.,0.003));
#1898=CARTESIAN_POINT('',(-0.17272,-1.11022302462516E-16,0.003));
#1899=CARTESIAN_POINT('',(-0.17272,-1.11022302462516E-16,0.003));
#1900=CARTESIAN_POINT('',(-0.17272,-1.11022302462516E-16,0.));
#1901=CARTESIAN_POINT('',(-2.77555756156289E-17,0.0179999999999986,0.005));
#1902=CARTESIAN_POINT('',(-2.77555756156289E-17,0.,0.005));
#1903=CARTESIAN_POINT('',(-0.188549999999996,0.,0.005));
#1904=CARTESIAN_POINT('',(1.38777878078145E-17,0.0099,0.005));
#1905=CARTESIAN_POINT('',(-0.188549999999996,0.0099,0.005));
#1906=CARTESIAN_POINT('',(-0.188549999999996,0.01,0.005));
#1907=CARTESIAN_POINT('',(-2.77555756156289E-17,-2.77555756156289E-17,0.0083));
#1908=CARTESIAN_POINT('',(-0.181075,0.01,0.0083));
#1909=CARTESIAN_POINT('',(-0.181075,0.0099,0.0083));
#1910=CARTESIAN_POINT('',(1.38777878078145E-17,0.0099,0.0083));
#1911=CARTESIAN_POINT('',(-2.77555756156289E-17,-2.77555756156289E-17,0.0083));
#1912=CARTESIAN_POINT('',(-2.77555756156289E-17,0.,0.0083));
#1913=CARTESIAN_POINT('',(2.77555756156289E-17,0.,0.));
#1914=CARTESIAN_POINT('',(-0.01,-2.08166817117217E-17,0.));
#1915=CARTESIAN_POINT('',(-0.01,-0.180975,0.));
#1916=CARTESIAN_POINT('',(-0.01,-0.188649999999996,0.));
#1917=CARTESIAN_POINT('',(-0.01,-0.188649999999996,0.));
#1918=CARTESIAN_POINT('',(2.77555756156289E-17,0.,0.));
#1919=CARTESIAN_POINT('',(-0.188549999999996,0.,0.));
#1920=CARTESIAN_POINT('',(-0.188549999999996,0.01,0.));
#1921=CARTESIAN_POINT('',(-0.188549999999996,0.0099,0.));
#1922=CARTESIAN_POINT('',(-4.16333634234433E-17,0.0099,0.));
#1923=CARTESIAN_POINT('',(-0.181075,0.0099,0.));
#1924=CARTESIAN_POINT('',(-0.181075,0.01,0.));
#1925=CARTESIAN_POINT('',(-0.01,-0.180975,0.));
#1926=CARTESIAN_POINT('',(0.,0.,0.));
#1927=CARTESIAN_POINT('',(-0.188549999999996,1.38777878078145E-17,0.0025));
#1928=CARTESIAN_POINT('',(-0.161275,-0.130173,0.157775));
#1929=CARTESIAN_POINT('',(-0.188549999999996,0.01,0.0025));
#1930=CARTESIAN_POINT('',(-0.188549999999996,0.0099,0.0025));
#1931=CARTESIAN_POINT('',(-0.181075,0.01,0.0083));
#1932=CARTESIAN_POINT('',(-0.181075,0.0099,0.0083));
#1933=CARTESIAN_POINT('',(-0.182685,0.0099,0.00415));
#1934=CARTESIAN_POINT('',(-0.01,-0.180975,0.00415));
#1935=CARTESIAN_POINT('',(-0.01,-0.180975,0.00415));
#1936=CARTESIAN_POINT('',(-0.01,-0.188649999999996,0.00249999999999997));
#1937=CARTESIAN_POINT('',(-0.01,-0.188649999999996,0.00249999999999997));
#1938=CARTESIAN_POINT('',(-0.01,-0.182685,0.00415));
#1939=MECHANICAL_DESIGN_GEOMETRIC_PRESENTATION_REPRESENTATION('',(#1106),
#1940);
#1940=(
GEOMETRIC_REPRESENTATION_CONTEXT(3)
GLOBAL_UNCERTAINTY_ASSIGNED_CONTEXT((#1941))
GLOBAL_UNIT_ASSIGNED_CONTEXT((#1944,#1943,#1942))
REPRESENTATION_CONTEXT('Bottom Left Front','TOP_LEVEL_ASSEMBLY_PART')
);
#1941=UNCERTAINTY_MEASURE_WITH_UNIT(LENGTH_MEASURE(2.E-5),#1944,
'DISTANCE_ACCURACY_VALUE','Maximum Tolerance applied to model');
#1942=(
NAMED_UNIT(*)
SI_UNIT($,.STERADIAN.)
SOLID_ANGLE_UNIT()
);
#1943=(
NAMED_UNIT(*)
PLANE_ANGLE_UNIT()
SI_UNIT($,.RADIAN.)
);
#1944=(
LENGTH_UNIT()
NAMED_UNIT(*)
SI_UNIT($,.METRE.)
);
#1945=PRODUCT_DEFINITION_SHAPE('','',#1946);
#1946=PRODUCT_DEFINITION('','',#1948,#1947);
#1947=PRODUCT_DEFINITION_CONTEXT('',#1954,'design');
#1948=PRODUCT_DEFINITION_FORMATION_WITH_SPECIFIED_SOURCE('','',#1950,
 .NOT_KNOWN.);
#1949=PRODUCT_RELATED_PRODUCT_CATEGORY('','',(#1950));
#1950=PRODUCT('Bottom Left Front','Bottom Left Front',
'Bottom Left Front',(#1952));
#1951=PRODUCT_CATEGORY('','');
#1952=PRODUCT_CONTEXT('',#1954,'mechanical');
#1953=APPLICATION_PROTOCOL_DEFINITION('international standard',
'ap242_managed_model_based_3d_engineering',2020,#1954);
#1954=APPLICATION_CONTEXT('managed model based 3d engineering');
ENDSEC;
END-ISO-10303-21;
