ISO-10303-21;
HEADER;
/* Generated by software containing ST-Developer
 * from STEP Tools, Inc. (www.steptools.com) 
 */
/* OPTION: using custom renumber hook */

FILE_DESCRIPTION(
/* description */ ('STEP AP242 Edition 2',
'CAx-IF Rec.Pracs.---Representation and Presentation of Product Manufa
cturing Information (PMI)---4.0---2014-10-13',
'CAx-IF Rec.Pracs.---3D Tessellated Geometry---0.4---2014-09-14','2;1',
'CAx-IF Rec.Pracs.---User Defined Attributes---1.5---2016-08-15'),
/* implementation_level */ '2;1');

FILE_NAME(
/* name */ 'N-Metheus - Hinge',
/* time_stamp */ '2026-01-30T20:52:39Z',
/* author */ (''),
/* organization */ (''),
/* preprocessor_version */ 'ST-DEVELOPER v20',
/* originating_system */ 'ONSHAPE BY PTC INC, 1.210',
/* authorisation */ '  ');

FILE_SCHEMA (('AP242_MANAGED_MODEL_BASED_3D_ENGINEERING_MIM_LF { 1 0 10303 442 3 1 4 }'));
ENDSEC;

DATA;
#10=SHAPE_REPRESENTATION_RELATIONSHIP('','',#1072,#11);
#11=ADVANCED_BREP_SHAPE_REPRESENTATION('',(#1070),#1732);
#12=CIRCLE('',#1077,0.0021);
#13=CIRCLE('',#1078,0.0021);
#14=CIRCLE('',#1079,0.0021);
#15=CIRCLE('',#1080,0.0021);
#16=CIRCLE('',#1081,0.0021);
#17=CIRCLE('',#1083,0.0021);
#18=CIRCLE('',#1084,0.0021);
#19=CIRCLE('',#1085,0.0021);
#20=CIRCLE('',#1086,0.0021);
#21=CIRCLE('',#1087,0.0021);
#22=CIRCLE('',#1092,0.002);
#23=CIRCLE('',#1093,0.002);
#24=CIRCLE('',#1096,0.0011);
#25=CIRCLE('',#1097,0.0037);
#26=CIRCLE('',#1100,0.0037);
#27=CIRCLE('',#1101,0.0011);
#28=CIRCLE('',#1105,0.0011);
#29=CIRCLE('',#1108,0.0011);
#30=CIRCLE('',#1112,0.002);
#31=CIRCLE('',#1113,0.002);
#32=CYLINDRICAL_SURFACE('',#1076,0.0021);
#33=CYLINDRICAL_SURFACE('',#1082,0.0021);
#34=CYLINDRICAL_SURFACE('',#1102,0.0037);
#35=CYLINDRICAL_SURFACE('',#1104,0.0011);
#36=CYLINDRICAL_SURFACE('',#1107,0.0011);
#37=CYLINDRICAL_SURFACE('',#1148,0.002);
#38=CYLINDRICAL_SURFACE('',#1149,0.002);
#39=ORIENTED_EDGE('',*,*,#329,.F.);
#40=ORIENTED_EDGE('',*,*,#330,.T.);
#41=ORIENTED_EDGE('',*,*,#331,.F.);
#42=ORIENTED_EDGE('',*,*,#332,.F.);
#43=ORIENTED_EDGE('',*,*,#333,.F.);
#44=ORIENTED_EDGE('',*,*,#334,.F.);
#45=ORIENTED_EDGE('',*,*,#335,.F.);
#46=ORIENTED_EDGE('',*,*,#336,.T.);
#47=ORIENTED_EDGE('',*,*,#337,.F.);
#48=ORIENTED_EDGE('',*,*,#338,.F.);
#49=ORIENTED_EDGE('',*,*,#339,.F.);
#50=ORIENTED_EDGE('',*,*,#340,.F.);
#51=ORIENTED_EDGE('',*,*,#341,.F.);
#52=ORIENTED_EDGE('',*,*,#342,.T.);
#53=ORIENTED_EDGE('',*,*,#343,.T.);
#54=ORIENTED_EDGE('',*,*,#344,.T.);
#55=ORIENTED_EDGE('',*,*,#345,.T.);
#56=ORIENTED_EDGE('',*,*,#346,.F.);
#57=ORIENTED_EDGE('',*,*,#347,.T.);
#58=ORIENTED_EDGE('',*,*,#348,.T.);
#59=ORIENTED_EDGE('',*,*,#349,.T.);
#60=ORIENTED_EDGE('',*,*,#350,.T.);
#61=ORIENTED_EDGE('',*,*,#351,.F.);
#62=ORIENTED_EDGE('',*,*,#352,.T.);
#63=ORIENTED_EDGE('',*,*,#353,.F.);
#64=ORIENTED_EDGE('',*,*,#354,.F.);
#65=ORIENTED_EDGE('',*,*,#355,.T.);
#66=ORIENTED_EDGE('',*,*,#356,.F.);
#67=ORIENTED_EDGE('',*,*,#357,.F.);
#68=ORIENTED_EDGE('',*,*,#358,.T.);
#69=ORIENTED_EDGE('',*,*,#359,.T.);
#70=ORIENTED_EDGE('',*,*,#360,.F.);
#71=ORIENTED_EDGE('',*,*,#361,.F.);
#72=ORIENTED_EDGE('',*,*,#362,.F.);
#73=ORIENTED_EDGE('',*,*,#363,.F.);
#74=ORIENTED_EDGE('',*,*,#364,.F.);
#75=ORIENTED_EDGE('',*,*,#365,.F.);
#76=ORIENTED_EDGE('',*,*,#366,.F.);
#77=ORIENTED_EDGE('',*,*,#367,.T.);
#78=ORIENTED_EDGE('',*,*,#368,.F.);
#79=ORIENTED_EDGE('',*,*,#369,.T.);
#80=ORIENTED_EDGE('',*,*,#370,.T.);
#81=ORIENTED_EDGE('',*,*,#371,.T.);
#82=ORIENTED_EDGE('',*,*,#372,.T.);
#83=ORIENTED_EDGE('',*,*,#373,.T.);
#84=ORIENTED_EDGE('',*,*,#374,.T.);
#85=ORIENTED_EDGE('',*,*,#375,.T.);
#86=ORIENTED_EDGE('',*,*,#376,.T.);
#87=ORIENTED_EDGE('',*,*,#377,.T.);
#88=ORIENTED_EDGE('',*,*,#378,.T.);
#89=ORIENTED_EDGE('',*,*,#379,.T.);
#90=ORIENTED_EDGE('',*,*,#380,.F.);
#91=ORIENTED_EDGE('',*,*,#381,.T.);
#92=ORIENTED_EDGE('',*,*,#382,.T.);
#93=ORIENTED_EDGE('',*,*,#368,.T.);
#94=ORIENTED_EDGE('',*,*,#383,.T.);
#95=ORIENTED_EDGE('',*,*,#384,.F.);
#96=ORIENTED_EDGE('',*,*,#385,.T.);
#97=ORIENTED_EDGE('',*,*,#386,.F.);
#98=ORIENTED_EDGE('',*,*,#387,.F.);
#99=ORIENTED_EDGE('',*,*,#388,.F.);
#100=ORIENTED_EDGE('',*,*,#389,.F.);
#101=ORIENTED_EDGE('',*,*,#378,.F.);
#102=ORIENTED_EDGE('',*,*,#390,.T.);
#103=ORIENTED_EDGE('',*,*,#391,.T.);
#104=ORIENTED_EDGE('',*,*,#392,.F.);
#105=ORIENTED_EDGE('',*,*,#393,.T.);
#106=ORIENTED_EDGE('',*,*,#366,.T.);
#107=ORIENTED_EDGE('',*,*,#394,.T.);
#108=ORIENTED_EDGE('',*,*,#395,.T.);
#109=ORIENTED_EDGE('',*,*,#396,.T.);
#110=ORIENTED_EDGE('',*,*,#370,.F.);
#111=ORIENTED_EDGE('',*,*,#397,.T.);
#112=ORIENTED_EDGE('',*,*,#398,.T.);
#113=ORIENTED_EDGE('',*,*,#380,.T.);
#114=ORIENTED_EDGE('',*,*,#399,.F.);
#115=ORIENTED_EDGE('',*,*,#400,.F.);
#116=ORIENTED_EDGE('',*,*,#401,.F.);
#117=ORIENTED_EDGE('',*,*,#402,.T.);
#118=ORIENTED_EDGE('',*,*,#403,.F.);
#119=ORIENTED_EDGE('',*,*,#404,.F.);
#120=ORIENTED_EDGE('',*,*,#398,.F.);
#121=ORIENTED_EDGE('',*,*,#405,.T.);
#122=ORIENTED_EDGE('',*,*,#390,.F.);
#123=ORIENTED_EDGE('',*,*,#381,.F.);
#124=ORIENTED_EDGE('',*,*,#406,.F.);
#125=ORIENTED_EDGE('',*,*,#386,.T.);
#126=ORIENTED_EDGE('',*,*,#407,.F.);
#127=ORIENTED_EDGE('',*,*,#402,.F.);
#128=ORIENTED_EDGE('',*,*,#408,.F.);
#129=ORIENTED_EDGE('',*,*,#404,.T.);
#130=ORIENTED_EDGE('',*,*,#408,.T.);
#131=ORIENTED_EDGE('',*,*,#409,.T.);
#132=ORIENTED_EDGE('',*,*,#382,.F.);
#133=ORIENTED_EDGE('',*,*,#409,.F.);
#134=ORIENTED_EDGE('',*,*,#407,.T.);
#135=ORIENTED_EDGE('',*,*,#385,.F.);
#136=ORIENTED_EDGE('',*,*,#410,.F.);
#137=ORIENTED_EDGE('',*,*,#403,.T.);
#138=ORIENTED_EDGE('',*,*,#346,.T.);
#139=ORIENTED_EDGE('',*,*,#341,.T.);
#140=ORIENTED_EDGE('',*,*,#384,.T.);
#141=ORIENTED_EDGE('',*,*,#411,.T.);
#142=ORIENTED_EDGE('',*,*,#392,.T.);
#143=ORIENTED_EDGE('',*,*,#412,.T.);
#144=ORIENTED_EDGE('',*,*,#395,.F.);
#145=ORIENTED_EDGE('',*,*,#410,.T.);
#146=ORIENTED_EDGE('',*,*,#387,.T.);
#147=ORIENTED_EDGE('',*,*,#406,.T.);
#148=ORIENTED_EDGE('',*,*,#401,.T.);
#149=ORIENTED_EDGE('',*,*,#413,.F.);
#150=ORIENTED_EDGE('',*,*,#388,.T.);
#151=ORIENTED_EDGE('',*,*,#413,.T.);
#152=ORIENTED_EDGE('',*,*,#400,.T.);
#153=ORIENTED_EDGE('',*,*,#414,.F.);
#154=ORIENTED_EDGE('',*,*,#389,.T.);
#155=ORIENTED_EDGE('',*,*,#414,.T.);
#156=ORIENTED_EDGE('',*,*,#399,.T.);
#157=ORIENTED_EDGE('',*,*,#379,.F.);
#158=ORIENTED_EDGE('',*,*,#372,.F.);
#159=ORIENTED_EDGE('',*,*,#415,.F.);
#160=ORIENTED_EDGE('',*,*,#353,.T.);
#161=ORIENTED_EDGE('',*,*,#416,.F.);
#162=ORIENTED_EDGE('',*,*,#334,.T.);
#163=ORIENTED_EDGE('',*,*,#417,.T.);
#164=ORIENTED_EDGE('',*,*,#377,.F.);
#165=ORIENTED_EDGE('',*,*,#418,.F.);
#166=ORIENTED_EDGE('',*,*,#338,.T.);
#167=ORIENTED_EDGE('',*,*,#419,.T.);
#168=ORIENTED_EDGE('',*,*,#351,.T.);
#169=ORIENTED_EDGE('',*,*,#415,.T.);
#170=ORIENTED_EDGE('',*,*,#376,.F.);
#171=ORIENTED_EDGE('',*,*,#420,.F.);
#172=ORIENTED_EDGE('',*,*,#339,.T.);
#173=ORIENTED_EDGE('',*,*,#418,.T.);
#174=ORIENTED_EDGE('',*,*,#375,.F.);
#175=ORIENTED_EDGE('',*,*,#421,.F.);
#176=ORIENTED_EDGE('',*,*,#356,.T.);
#177=ORIENTED_EDGE('',*,*,#422,.F.);
#178=ORIENTED_EDGE('',*,*,#340,.T.);
#179=ORIENTED_EDGE('',*,*,#420,.T.);
#180=ORIENTED_EDGE('',*,*,#374,.F.);
#181=ORIENTED_EDGE('',*,*,#423,.F.);
#182=ORIENTED_EDGE('',*,*,#332,.T.);
#183=ORIENTED_EDGE('',*,*,#424,.T.);
#184=ORIENTED_EDGE('',*,*,#354,.T.);
#185=ORIENTED_EDGE('',*,*,#421,.T.);
#186=ORIENTED_EDGE('',*,*,#373,.F.);
#187=ORIENTED_EDGE('',*,*,#417,.F.);
#188=ORIENTED_EDGE('',*,*,#333,.T.);
#189=ORIENTED_EDGE('',*,*,#423,.T.);
#190=ORIENTED_EDGE('',*,*,#361,.T.);
#191=ORIENTED_EDGE('',*,*,#425,.F.);
#192=ORIENTED_EDGE('',*,*,#426,.F.);
#193=ORIENTED_EDGE('',*,*,#427,.T.);
#194=ORIENTED_EDGE('',*,*,#359,.F.);
#195=ORIENTED_EDGE('',*,*,#428,.T.);
#196=ORIENTED_EDGE('',*,*,#360,.T.);
#197=ORIENTED_EDGE('',*,*,#429,.F.);
#198=ORIENTED_EDGE('',*,*,#430,.F.);
#199=ORIENTED_EDGE('',*,*,#425,.T.);
#200=ORIENTED_EDGE('',*,*,#365,.T.);
#201=ORIENTED_EDGE('',*,*,#431,.F.);
#202=ORIENTED_EDGE('',*,*,#432,.F.);
#203=ORIENTED_EDGE('',*,*,#433,.F.);
#204=ORIENTED_EDGE('',*,*,#434,.F.);
#205=ORIENTED_EDGE('',*,*,#429,.T.);
#206=ORIENTED_EDGE('',*,*,#364,.T.);
#207=ORIENTED_EDGE('',*,*,#435,.F.);
#208=ORIENTED_EDGE('',*,*,#436,.F.);
#209=ORIENTED_EDGE('',*,*,#437,.T.);
#210=ORIENTED_EDGE('',*,*,#438,.F.);
#211=ORIENTED_EDGE('',*,*,#431,.T.);
#212=ORIENTED_EDGE('',*,*,#363,.T.);
#213=ORIENTED_EDGE('',*,*,#439,.F.);
#214=ORIENTED_EDGE('',*,*,#440,.F.);
#215=ORIENTED_EDGE('',*,*,#435,.T.);
#216=ORIENTED_EDGE('',*,*,#362,.T.);
#217=ORIENTED_EDGE('',*,*,#428,.F.);
#218=ORIENTED_EDGE('',*,*,#358,.F.);
#219=ORIENTED_EDGE('',*,*,#441,.F.);
#220=ORIENTED_EDGE('',*,*,#442,.F.);
#221=ORIENTED_EDGE('',*,*,#439,.T.);
#222=ORIENTED_EDGE('',*,*,#443,.F.);
#223=ORIENTED_EDGE('',*,*,#432,.T.);
#224=ORIENTED_EDGE('',*,*,#438,.T.);
#225=ORIENTED_EDGE('',*,*,#337,.T.);
#226=ORIENTED_EDGE('',*,*,#444,.F.);
#227=ORIENTED_EDGE('',*,*,#445,.T.);
#228=ORIENTED_EDGE('',*,*,#446,.T.);
#229=ORIENTED_EDGE('',*,*,#447,.T.);
#230=ORIENTED_EDGE('',*,*,#329,.T.);
#231=ORIENTED_EDGE('',*,*,#416,.T.);
#232=ORIENTED_EDGE('',*,*,#352,.F.);
#233=ORIENTED_EDGE('',*,*,#419,.F.);
#234=ORIENTED_EDGE('',*,*,#331,.T.);
#235=ORIENTED_EDGE('',*,*,#448,.F.);
#236=ORIENTED_EDGE('',*,*,#449,.T.);
#237=ORIENTED_EDGE('',*,*,#450,.T.);
#238=ORIENTED_EDGE('',*,*,#451,.T.);
#239=ORIENTED_EDGE('',*,*,#335,.T.);
#240=ORIENTED_EDGE('',*,*,#422,.T.);
#241=ORIENTED_EDGE('',*,*,#355,.F.);
#242=ORIENTED_EDGE('',*,*,#424,.F.);
#243=ORIENTED_EDGE('',*,*,#452,.F.);
#244=ORIENTED_EDGE('',*,*,#441,.T.);
#245=ORIENTED_EDGE('',*,*,#357,.T.);
#246=ORIENTED_EDGE('',*,*,#427,.F.);
#247=ORIENTED_EDGE('',*,*,#453,.F.);
#248=ORIENTED_EDGE('',*,*,#454,.F.);
#249=ORIENTED_EDGE('',*,*,#455,.F.);
#250=ORIENTED_EDGE('',*,*,#456,.F.);
#251=ORIENTED_EDGE('',*,*,#457,.T.);
#252=ORIENTED_EDGE('',*,*,#458,.F.);
#253=ORIENTED_EDGE('',*,*,#433,.T.);
#254=ORIENTED_EDGE('',*,*,#443,.T.);
#255=ORIENTED_EDGE('',*,*,#437,.F.);
#256=ORIENTED_EDGE('',*,*,#459,.F.);
#257=ORIENTED_EDGE('',*,*,#460,.F.);
#258=ORIENTED_EDGE('',*,*,#461,.F.);
#259=ORIENTED_EDGE('',*,*,#462,.F.);
#260=ORIENTED_EDGE('',*,*,#463,.T.);
#261=ORIENTED_EDGE('',*,*,#464,.F.);
#262=ORIENTED_EDGE('',*,*,#453,.T.);
#263=ORIENTED_EDGE('',*,*,#426,.T.);
#264=ORIENTED_EDGE('',*,*,#430,.T.);
#265=ORIENTED_EDGE('',*,*,#434,.T.);
#266=ORIENTED_EDGE('',*,*,#458,.T.);
#267=ORIENTED_EDGE('',*,*,#465,.F.);
#268=ORIENTED_EDGE('',*,*,#459,.T.);
#269=ORIENTED_EDGE('',*,*,#436,.T.);
#270=ORIENTED_EDGE('',*,*,#440,.T.);
#271=ORIENTED_EDGE('',*,*,#442,.T.);
#272=ORIENTED_EDGE('',*,*,#452,.T.);
#273=ORIENTED_EDGE('',*,*,#466,.T.);
#274=ORIENTED_EDGE('',*,*,#467,.T.);
#275=ORIENTED_EDGE('',*,*,#448,.T.);
#276=ORIENTED_EDGE('',*,*,#330,.F.);
#277=ORIENTED_EDGE('',*,*,#447,.F.);
#278=ORIENTED_EDGE('',*,*,#468,.T.);
#279=ORIENTED_EDGE('',*,*,#469,.T.);
#280=ORIENTED_EDGE('',*,*,#444,.T.);
#281=ORIENTED_EDGE('',*,*,#336,.F.);
#282=ORIENTED_EDGE('',*,*,#451,.F.);
#283=ORIENTED_EDGE('',*,*,#449,.F.);
#284=ORIENTED_EDGE('',*,*,#467,.F.);
#285=ORIENTED_EDGE('',*,*,#348,.F.);
#286=ORIENTED_EDGE('',*,*,#466,.F.);
#287=ORIENTED_EDGE('',*,*,#446,.F.);
#288=ORIENTED_EDGE('',*,*,#349,.F.);
#289=ORIENTED_EDGE('',*,*,#445,.F.);
#290=ORIENTED_EDGE('',*,*,#469,.F.);
#291=ORIENTED_EDGE('',*,*,#350,.F.);
#292=ORIENTED_EDGE('',*,*,#468,.F.);
#293=ORIENTED_EDGE('',*,*,#450,.F.);
#294=ORIENTED_EDGE('',*,*,#347,.F.);
#295=ORIENTED_EDGE('',*,*,#470,.F.);
#296=ORIENTED_EDGE('',*,*,#454,.T.);
#297=ORIENTED_EDGE('',*,*,#464,.T.);
#298=ORIENTED_EDGE('',*,*,#463,.F.);
#299=ORIENTED_EDGE('',*,*,#471,.F.);
#300=ORIENTED_EDGE('',*,*,#472,.F.);
#301=ORIENTED_EDGE('',*,*,#460,.T.);
#302=ORIENTED_EDGE('',*,*,#465,.T.);
#303=ORIENTED_EDGE('',*,*,#457,.F.);
#304=ORIENTED_EDGE('',*,*,#473,.F.);
#305=ORIENTED_EDGE('',*,*,#455,.T.);
#306=ORIENTED_EDGE('',*,*,#470,.T.);
#307=ORIENTED_EDGE('',*,*,#343,.F.);
#308=ORIENTED_EDGE('',*,*,#471,.T.);
#309=ORIENTED_EDGE('',*,*,#462,.T.);
#310=ORIENTED_EDGE('',*,*,#344,.F.);
#311=ORIENTED_EDGE('',*,*,#461,.T.);
#312=ORIENTED_EDGE('',*,*,#472,.T.);
#313=ORIENTED_EDGE('',*,*,#345,.F.);
#314=ORIENTED_EDGE('',*,*,#473,.T.);
#315=ORIENTED_EDGE('',*,*,#456,.T.);
#316=ORIENTED_EDGE('',*,*,#342,.F.);
#317=ORIENTED_EDGE('',*,*,#411,.F.);
#318=ORIENTED_EDGE('',*,*,#383,.F.);
#319=ORIENTED_EDGE('',*,*,#367,.F.);
#320=ORIENTED_EDGE('',*,*,#393,.F.);
#321=ORIENTED_EDGE('',*,*,#412,.F.);
#322=ORIENTED_EDGE('',*,*,#394,.F.);
#323=ORIENTED_EDGE('',*,*,#371,.F.);
#324=ORIENTED_EDGE('',*,*,#396,.F.);
#325=ORIENTED_EDGE('',*,*,#391,.F.);
#326=ORIENTED_EDGE('',*,*,#405,.F.);
#327=ORIENTED_EDGE('',*,*,#397,.F.);
#328=ORIENTED_EDGE('',*,*,#369,.F.);
#329=EDGE_CURVE('',#474,#475,#570,.T.);
#330=EDGE_CURVE('',#474,#476,#571,.T.);
#331=EDGE_CURVE('',#477,#476,#572,.T.);
#332=EDGE_CURVE('',#478,#477,#573,.T.);
#333=EDGE_CURVE('',#479,#478,#574,.T.);
#334=EDGE_CURVE('',#475,#479,#575,.T.);
#335=EDGE_CURVE('',#480,#481,#576,.T.);
#336=EDGE_CURVE('',#480,#482,#577,.T.);
#337=EDGE_CURVE('',#483,#482,#578,.T.);
#338=EDGE_CURVE('',#484,#483,#579,.T.);
#339=EDGE_CURVE('',#485,#484,#580,.T.);
#340=EDGE_CURVE('',#481,#485,#581,.T.);
#341=EDGE_CURVE('',#486,#486,#12,.T.);
#342=EDGE_CURVE('',#487,#488,#13,.T.);
#343=EDGE_CURVE('',#488,#489,#14,.T.);
#344=EDGE_CURVE('',#489,#490,#15,.T.);
#345=EDGE_CURVE('',#490,#487,#16,.T.);
#346=EDGE_CURVE('',#491,#491,#17,.T.);
#347=EDGE_CURVE('',#492,#493,#18,.T.);
#348=EDGE_CURVE('',#493,#494,#19,.T.);
#349=EDGE_CURVE('',#494,#495,#20,.T.);
#350=EDGE_CURVE('',#495,#492,#21,.T.);
#351=EDGE_CURVE('',#496,#497,#582,.T.);
#352=EDGE_CURVE('',#496,#498,#583,.T.);
#353=EDGE_CURVE('',#497,#498,#584,.T.);
#354=EDGE_CURVE('',#499,#500,#585,.T.);
#355=EDGE_CURVE('',#499,#501,#586,.T.);
#356=EDGE_CURVE('',#500,#501,#587,.T.);
#357=EDGE_CURVE('',#502,#503,#588,.T.);
#358=EDGE_CURVE('',#502,#504,#589,.T.);
#359=EDGE_CURVE('',#504,#503,#590,.T.);
#360=EDGE_CURVE('',#505,#506,#591,.T.);
#361=EDGE_CURVE('',#507,#505,#592,.T.);
#362=EDGE_CURVE('',#508,#507,#593,.T.);
#363=EDGE_CURVE('',#509,#508,#594,.T.);
#364=EDGE_CURVE('',#510,#509,#595,.T.);
#365=EDGE_CURVE('',#506,#510,#596,.T.);
#366=EDGE_CURVE('',#511,#512,#597,.T.);
#367=EDGE_CURVE('',#511,#513,#22,.F.);
#368=EDGE_CURVE('',#514,#513,#598,.T.);
#369=EDGE_CURVE('',#514,#515,#599,.F.);
#370=EDGE_CURVE('',#515,#516,#600,.T.);
#371=EDGE_CURVE('',#516,#512,#23,.F.);
#372=EDGE_CURVE('',#517,#518,#601,.T.);
#373=EDGE_CURVE('',#518,#519,#602,.T.);
#374=EDGE_CURVE('',#519,#520,#603,.T.);
#375=EDGE_CURVE('',#520,#521,#604,.T.);
#376=EDGE_CURVE('',#521,#522,#605,.T.);
#377=EDGE_CURVE('',#522,#517,#606,.T.);
#378=EDGE_CURVE('',#523,#524,#607,.T.);
#379=EDGE_CURVE('',#524,#525,#608,.T.);
#380=EDGE_CURVE('',#526,#525,#609,.T.);
#381=EDGE_CURVE('',#526,#523,#610,.T.);
#382=EDGE_CURVE('',#527,#527,#24,.T.);
#383=EDGE_CURVE('',#513,#528,#611,.F.);
#384=EDGE_CURVE('',#529,#528,#612,.T.);
#385=EDGE_CURVE('',#529,#530,#613,.T.);
#386=EDGE_CURVE('',#531,#530,#614,.T.);
#387=EDGE_CURVE('',#532,#531,#615,.T.);
#388=EDGE_CURVE('',#533,#532,#616,.T.);
#389=EDGE_CURVE('',#524,#533,#617,.T.);
#390=EDGE_CURVE('',#523,#534,#25,.F.);
#391=EDGE_CURVE('',#534,#514,#618,.F.);
#392=EDGE_CURVE('',#535,#536,#619,.T.);
#393=EDGE_CURVE('',#535,#511,#620,.T.);
#394=EDGE_CURVE('',#512,#536,#621,.F.);
#395=EDGE_CURVE('',#537,#538,#622,.T.);
#396=EDGE_CURVE('',#538,#516,#623,.T.);
#397=EDGE_CURVE('',#515,#539,#624,.F.);
#398=EDGE_CURVE('',#539,#526,#26,.T.);
#399=EDGE_CURVE('',#540,#525,#625,.T.);
#400=EDGE_CURVE('',#541,#540,#626,.T.);
#401=EDGE_CURVE('',#542,#541,#627,.T.);
#402=EDGE_CURVE('',#542,#543,#628,.T.);
#403=EDGE_CURVE('',#537,#543,#629,.T.);
#404=EDGE_CURVE('',#544,#544,#27,.T.);
#405=EDGE_CURVE('',#539,#534,#630,.T.);
#406=EDGE_CURVE('',#531,#542,#631,.T.);
#407=EDGE_CURVE('',#543,#530,#632,.T.);
#408=EDGE_CURVE('',#545,#545,#28,.T.);
#409=EDGE_CURVE('',#546,#546,#29,.T.);
#410=EDGE_CURVE('',#537,#529,#633,.T.);
#411=EDGE_CURVE('',#528,#535,#30,.T.);
#412=EDGE_CURVE('',#536,#538,#31,.T.);
#413=EDGE_CURVE('',#532,#541,#634,.T.);
#414=EDGE_CURVE('',#533,#540,#635,.T.);
#415=EDGE_CURVE('',#497,#517,#636,.T.);
#416=EDGE_CURVE('',#475,#498,#637,.T.);
#417=EDGE_CURVE('',#479,#518,#638,.T.);
#418=EDGE_CURVE('',#484,#522,#639,.T.);
#419=EDGE_CURVE('',#483,#496,#640,.T.);
#420=EDGE_CURVE('',#485,#521,#641,.T.);
#421=EDGE_CURVE('',#500,#520,#642,.T.);
#422=EDGE_CURVE('',#481,#501,#643,.T.);
#423=EDGE_CURVE('',#478,#519,#644,.T.);
#424=EDGE_CURVE('',#477,#499,#645,.T.);
#425=EDGE_CURVE('',#547,#505,#646,.T.);
#426=EDGE_CURVE('',#548,#547,#647,.T.);
#427=EDGE_CURVE('',#548,#503,#648,.T.);
#428=EDGE_CURVE('',#504,#507,#649,.T.);
#429=EDGE_CURVE('',#549,#506,#650,.T.);
#430=EDGE_CURVE('',#547,#549,#651,.T.);
#431=EDGE_CURVE('',#550,#510,#652,.T.);
#432=EDGE_CURVE('',#551,#550,#653,.T.);
#433=EDGE_CURVE('',#552,#551,#654,.T.);
#434=EDGE_CURVE('',#549,#552,#655,.T.);
#435=EDGE_CURVE('',#553,#509,#656,.T.);
#436=EDGE_CURVE('',#554,#553,#657,.T.);
#437=EDGE_CURVE('',#554,#555,#658,.T.);
#438=EDGE_CURVE('',#550,#555,#659,.T.);
#439=EDGE_CURVE('',#556,#508,#660,.T.);
#440=EDGE_CURVE('',#553,#556,#661,.T.);
#441=EDGE_CURVE('',#557,#502,#662,.T.);
#442=EDGE_CURVE('',#556,#557,#663,.T.);
#443=EDGE_CURVE('',#551,#555,#664,.T.);
#444=EDGE_CURVE('',#558,#482,#665,.T.);
#445=EDGE_CURVE('',#558,#495,#666,.T.);
#446=EDGE_CURVE('',#495,#559,#667,.T.);
#447=EDGE_CURVE('',#559,#474,#668,.T.);
#448=EDGE_CURVE('',#560,#476,#669,.T.);
#449=EDGE_CURVE('',#560,#493,#670,.T.);
#450=EDGE_CURVE('',#493,#561,#671,.T.);
#451=EDGE_CURVE('',#561,#480,#672,.T.);
#452=EDGE_CURVE('',#557,#562,#673,.T.);
#453=EDGE_CURVE('',#563,#548,#674,.T.);
#454=EDGE_CURVE('',#564,#563,#675,.T.);
#455=EDGE_CURVE('',#488,#564,#676,.T.);
#456=EDGE_CURVE('',#565,#488,#677,.T.);
#457=EDGE_CURVE('',#565,#562,#678,.T.);
#458=EDGE_CURVE('',#552,#566,#679,.T.);
#459=EDGE_CURVE('',#567,#554,#680,.T.);
#460=EDGE_CURVE('',#568,#567,#681,.T.);
#461=EDGE_CURVE('',#490,#568,#682,.T.);
#462=EDGE_CURVE('',#569,#490,#683,.T.);
#463=EDGE_CURVE('',#569,#566,#684,.T.);
#464=EDGE_CURVE('',#563,#566,#685,.T.);
#465=EDGE_CURVE('',#567,#562,#686,.T.);
#466=EDGE_CURVE('',#559,#494,#687,.T.);
#467=EDGE_CURVE('',#494,#560,#688,.T.);
#468=EDGE_CURVE('',#561,#492,#689,.T.);
#469=EDGE_CURVE('',#492,#558,#690,.T.);
#470=EDGE_CURVE('',#564,#489,#691,.T.);
#471=EDGE_CURVE('',#489,#569,#692,.T.);
#472=EDGE_CURVE('',#568,#487,#693,.T.);
#473=EDGE_CURVE('',#487,#565,#694,.T.);
#474=VERTEX_POINT('',#1435);
#475=VERTEX_POINT('',#1436);
#476=VERTEX_POINT('',#1438);
#477=VERTEX_POINT('',#1440);
#478=VERTEX_POINT('',#1442);
#479=VERTEX_POINT('',#1444);
#480=VERTEX_POINT('',#1448);
#481=VERTEX_POINT('',#1449);
#482=VERTEX_POINT('',#1451);
#483=VERTEX_POINT('',#1453);
#484=VERTEX_POINT('',#1455);
#485=VERTEX_POINT('',#1457);
#486=VERTEX_POINT('',#1461);
#487=VERTEX_POINT('',#1463);
#488=VERTEX_POINT('',#1464);
#489=VERTEX_POINT('',#1466);
#490=VERTEX_POINT('',#1468);
#491=VERTEX_POINT('',#1472);
#492=VERTEX_POINT('',#1474);
#493=VERTEX_POINT('',#1475);
#494=VERTEX_POINT('',#1477);
#495=VERTEX_POINT('',#1479);
#496=VERTEX_POINT('',#1483);
#497=VERTEX_POINT('',#1484);
#498=VERTEX_POINT('',#1486);
#499=VERTEX_POINT('',#1490);
#500=VERTEX_POINT('',#1491);
#501=VERTEX_POINT('',#1493);
#502=VERTEX_POINT('',#1497);
#503=VERTEX_POINT('',#1498);
#504=VERTEX_POINT('',#1500);
#505=VERTEX_POINT('',#1504);
#506=VERTEX_POINT('',#1505);
#507=VERTEX_POINT('',#1507);
#508=VERTEX_POINT('',#1509);
#509=VERTEX_POINT('',#1511);
#510=VERTEX_POINT('',#1513);
#511=VERTEX_POINT('',#1516);
#512=VERTEX_POINT('',#1517);
#513=VERTEX_POINT('',#1519);
#514=VERTEX_POINT('',#1521);
#515=VERTEX_POINT('',#1523);
#516=VERTEX_POINT('',#1525);
#517=VERTEX_POINT('',#1528);
#518=VERTEX_POINT('',#1529);
#519=VERTEX_POINT('',#1531);
#520=VERTEX_POINT('',#1533);
#521=VERTEX_POINT('',#1535);
#522=VERTEX_POINT('',#1537);
#523=VERTEX_POINT('',#1541);
#524=VERTEX_POINT('',#1542);
#525=VERTEX_POINT('',#1544);
#526=VERTEX_POINT('',#1546);
#527=VERTEX_POINT('',#1550);
#528=VERTEX_POINT('',#1552);
#529=VERTEX_POINT('',#1554);
#530=VERTEX_POINT('',#1556);
#531=VERTEX_POINT('',#1558);
#532=VERTEX_POINT('',#1560);
#533=VERTEX_POINT('',#1562);
#534=VERTEX_POINT('',#1565);
#535=VERTEX_POINT('',#1569);
#536=VERTEX_POINT('',#1570);
#537=VERTEX_POINT('',#1575);
#538=VERTEX_POINT('',#1576);
#539=VERTEX_POINT('',#1579);
#540=VERTEX_POINT('',#1582);
#541=VERTEX_POINT('',#1584);
#542=VERTEX_POINT('',#1586);
#543=VERTEX_POINT('',#1588);
#544=VERTEX_POINT('',#1591);
#545=VERTEX_POINT('',#1599);
#546=VERTEX_POINT('',#1603);
#547=VERTEX_POINT('',#1633);
#548=VERTEX_POINT('',#1635);
#549=VERTEX_POINT('',#1640);
#550=VERTEX_POINT('',#1644);
#551=VERTEX_POINT('',#1646);
#552=VERTEX_POINT('',#1648);
#553=VERTEX_POINT('',#1652);
#554=VERTEX_POINT('',#1654);
#555=VERTEX_POINT('',#1656);
#556=VERTEX_POINT('',#1660);
#557=VERTEX_POINT('',#1664);
#558=VERTEX_POINT('',#1670);
#559=VERTEX_POINT('',#1673);
#560=VERTEX_POINT('',#1677);
#561=VERTEX_POINT('',#1680);
#562=VERTEX_POINT('',#1684);
#563=VERTEX_POINT('',#1686);
#564=VERTEX_POINT('',#1688);
#565=VERTEX_POINT('',#1691);
#566=VERTEX_POINT('',#1695);
#567=VERTEX_POINT('',#1697);
#568=VERTEX_POINT('',#1699);
#569=VERTEX_POINT('',#1702);
#570=LINE('',#1434,#695);
#571=LINE('',#1437,#696);
#572=LINE('',#1439,#697);
#573=LINE('',#1441,#698);
#574=LINE('',#1443,#699);
#575=LINE('',#1445,#700);
#576=LINE('',#1447,#701);
#577=LINE('',#1450,#702);
#578=LINE('',#1452,#703);
#579=LINE('',#1454,#704);
#580=LINE('',#1456,#705);
#581=LINE('',#1458,#706);
#582=LINE('',#1482,#707);
#583=LINE('',#1485,#708);
#584=LINE('',#1487,#709);
#585=LINE('',#1489,#710);
#586=LINE('',#1492,#711);
#587=LINE('',#1494,#712);
#588=LINE('',#1496,#713);
#589=LINE('',#1499,#714);
#590=LINE('',#1501,#715);
#591=LINE('',#1503,#716);
#592=LINE('',#1506,#717);
#593=LINE('',#1508,#718);
#594=LINE('',#1510,#719);
#595=LINE('',#1512,#720);
#596=LINE('',#1514,#721);
#597=LINE('',#1515,#722);
#598=LINE('',#1520,#723);
#599=LINE('',#1522,#724);
#600=LINE('',#1524,#725);
#601=LINE('',#1527,#726);
#602=LINE('',#1530,#727);
#603=LINE('',#1532,#728);
#604=LINE('',#1534,#729);
#605=LINE('',#1536,#730);
#606=LINE('',#1538,#731);
#607=LINE('',#1540,#732);
#608=LINE('',#1543,#733);
#609=LINE('',#1545,#734);
#610=LINE('',#1547,#735);
#611=LINE('',#1551,#736);
#612=LINE('',#1553,#737);
#613=LINE('',#1555,#738);
#614=LINE('',#1557,#739);
#615=LINE('',#1559,#740);
#616=LINE('',#1561,#741);
#617=LINE('',#1563,#742);
#618=LINE('',#1566,#743);
#619=LINE('',#1568,#744);
#620=LINE('',#1571,#745);
#621=LINE('',#1572,#746);
#622=LINE('',#1574,#747);
#623=LINE('',#1577,#748);
#624=LINE('',#1578,#749);
#625=LINE('',#1581,#750);
#626=LINE('',#1583,#751);
#627=LINE('',#1585,#752);
#628=LINE('',#1587,#753);
#629=LINE('',#1589,#754);
#630=LINE('',#1593,#755);
#631=LINE('',#1595,#756);
#632=LINE('',#1596,#757);
#633=LINE('',#1606,#758);
#634=LINE('',#1611,#759);
#635=LINE('',#1613,#760);
#636=LINE('',#1616,#761);
#637=LINE('',#1617,#762);
#638=LINE('',#1618,#763);
#639=LINE('',#1620,#764);
#640=LINE('',#1621,#765);
#641=LINE('',#1623,#766);
#642=LINE('',#1625,#767);
#643=LINE('',#1626,#768);
#644=LINE('',#1628,#769);
#645=LINE('',#1629,#770);
#646=LINE('',#1632,#771);
#647=LINE('',#1634,#772);
#648=LINE('',#1636,#773);
#649=LINE('',#1637,#774);
#650=LINE('',#1639,#775);
#651=LINE('',#1641,#776);
#652=LINE('',#1643,#777);
#653=LINE('',#1645,#778);
#654=LINE('',#1647,#779);
#655=LINE('',#1649,#780);
#656=LINE('',#1651,#781);
#657=LINE('',#1653,#782);
#658=LINE('',#1655,#783);
#659=LINE('',#1657,#784);
#660=LINE('',#1659,#785);
#661=LINE('',#1661,#786);
#662=LINE('',#1663,#787);
#663=LINE('',#1665,#788);
#664=LINE('',#1667,#789);
#665=LINE('',#1669,#790);
#666=LINE('',#1671,#791);
#667=LINE('',#1672,#792);
#668=LINE('',#1674,#793);
#669=LINE('',#1676,#794);
#670=LINE('',#1678,#795);
#671=LINE('',#1679,#796);
#672=LINE('',#1681,#797);
#673=LINE('',#1683,#798);
#674=LINE('',#1685,#799);
#675=LINE('',#1687,#800);
#676=LINE('',#1689,#801);
#677=LINE('',#1690,#802);
#678=LINE('',#1692,#803);
#679=LINE('',#1694,#804);
#680=LINE('',#1696,#805);
#681=LINE('',#1698,#806);
#682=LINE('',#1700,#807);
#683=LINE('',#1701,#808);
#684=LINE('',#1703,#809);
#685=LINE('',#1705,#810);
#686=LINE('',#1707,#811);
#687=LINE('',#1709,#812);
#688=LINE('',#1710,#813);
#689=LINE('',#1712,#814);
#690=LINE('',#1713,#815);
#691=LINE('',#1719,#816);
#692=LINE('',#1720,#817);
#693=LINE('',#1722,#818);
#694=LINE('',#1723,#819);
#695=VECTOR('',#1155,1.);
#696=VECTOR('',#1156,1.);
#697=VECTOR('',#1157,1.);
#698=VECTOR('',#1158,1.);
#699=VECTOR('',#1159,1.);
#700=VECTOR('',#1160,1.);
#701=VECTOR('',#1163,1.);
#702=VECTOR('',#1164,1.);
#703=VECTOR('',#1165,1.);
#704=VECTOR('',#1166,1.);
#705=VECTOR('',#1167,1.);
#706=VECTOR('',#1168,1.);
#707=VECTOR('',#1195,1.);
#708=VECTOR('',#1196,1.);
#709=VECTOR('',#1197,1.);
#710=VECTOR('',#1200,1.);
#711=VECTOR('',#1201,1.);
#712=VECTOR('',#1202,1.);
#713=VECTOR('',#1205,1.);
#714=VECTOR('',#1206,1.);
#715=VECTOR('',#1207,1.);
#716=VECTOR('',#1210,1.);
#717=VECTOR('',#1211,1.);
#718=VECTOR('',#1212,1.);
#719=VECTOR('',#1213,1.);
#720=VECTOR('',#1214,1.);
#721=VECTOR('',#1215,1.);
#722=VECTOR('',#1216,1.);
#723=VECTOR('',#1219,1.);
#724=VECTOR('',#1220,1.);
#725=VECTOR('',#1221,1.);
#726=VECTOR('',#1224,1.);
#727=VECTOR('',#1225,1.);
#728=VECTOR('',#1226,1.);
#729=VECTOR('',#1227,1.);
#730=VECTOR('',#1228,1.);
#731=VECTOR('',#1229,1.);
#732=VECTOR('',#1232,1.);
#733=VECTOR('',#1233,1.);
#734=VECTOR('',#1234,1.);
#735=VECTOR('',#1235,1.);
#736=VECTOR('',#1240,1.);
#737=VECTOR('',#1241,1.);
#738=VECTOR('',#1242,1.);
#739=VECTOR('',#1243,1.);
#740=VECTOR('',#1244,1.);
#741=VECTOR('',#1245,1.);
#742=VECTOR('',#1246,1.);
#743=VECTOR('',#1249,1.);
#744=VECTOR('',#1252,1.);
#745=VECTOR('',#1253,1.);
#746=VECTOR('',#1254,1.);
#747=VECTOR('',#1257,1.);
#748=VECTOR('',#1258,1.);
#749=VECTOR('',#1259,1.);
#750=VECTOR('',#1262,1.);
#751=VECTOR('',#1263,1.);
#752=VECTOR('',#1264,1.);
#753=VECTOR('',#1265,1.);
#754=VECTOR('',#1266,1.);
#755=VECTOR('',#1271,1.);
#756=VECTOR('',#1274,1.);
#757=VECTOR('',#1275,1.);
#758=VECTOR('',#1290,1.);
#759=VECTOR('',#1299,1.);
#760=VECTOR('',#1302,1.);
#761=VECTOR('',#1307,1.);
#762=VECTOR('',#1308,1.);
#763=VECTOR('',#1309,1.);
#764=VECTOR('',#1312,1.);
#765=VECTOR('',#1313,1.);
#766=VECTOR('',#1316,1.);
#767=VECTOR('',#1319,1.);
#768=VECTOR('',#1320,1.);
#769=VECTOR('',#1323,1.);
#770=VECTOR('',#1324,1.);
#771=VECTOR('',#1329,1.);
#772=VECTOR('',#1330,1.);
#773=VECTOR('',#1331,1.);
#774=VECTOR('',#1332,1.);
#775=VECTOR('',#1335,1.);
#776=VECTOR('',#1336,1.);
#777=VECTOR('',#1339,1.);
#778=VECTOR('',#1340,1.);
#779=VECTOR('',#1341,1.);
#780=VECTOR('',#1342,1.);
#781=VECTOR('',#1345,1.);
#782=VECTOR('',#1346,1.);
#783=VECTOR('',#1347,1.);
#784=VECTOR('',#1348,1.);
#785=VECTOR('',#1351,1.);
#786=VECTOR('',#1352,1.);
#787=VECTOR('',#1355,1.);
#788=VECTOR('',#1356,1.);
#789=VECTOR('',#1359,1.);
#790=VECTOR('',#1362,1.);
#791=VECTOR('',#1363,1.);
#792=VECTOR('',#1364,1.);
#793=VECTOR('',#1365,1.);
#794=VECTOR('',#1368,1.);
#795=VECTOR('',#1369,1.);
#796=VECTOR('',#1370,1.);
#797=VECTOR('',#1371,1.);
#798=VECTOR('',#1374,1.);
#799=VECTOR('',#1375,1.);
#800=VECTOR('',#1376,1.);
#801=VECTOR('',#1377,1.);
#802=VECTOR('',#1378,1.);
#803=VECTOR('',#1379,1.);
#804=VECTOR('',#1382,1.);
#805=VECTOR('',#1383,1.);
#806=VECTOR('',#1384,1.);
#807=VECTOR('',#1385,1.);
#808=VECTOR('',#1386,1.);
#809=VECTOR('',#1387,1.);
#810=VECTOR('',#1390,1.);
#811=VECTOR('',#1393,1.);
#812=VECTOR('',#1396,1.);
#813=VECTOR('',#1397,1.);
#814=VECTOR('',#1400,1.);
#815=VECTOR('',#1401,1.);
#816=VECTOR('',#1412,1.);
#817=VECTOR('',#1413,1.);
#818=VECTOR('',#1416,1.);
#819=VECTOR('',#1417,1.);
#820=EDGE_LOOP('',(#39,#40,#41,#42,#43,#44));
#821=EDGE_LOOP('',(#45,#46,#47,#48,#49,#50));
#822=EDGE_LOOP('',(#51));
#823=EDGE_LOOP('',(#52,#53,#54,#55));
#824=EDGE_LOOP('',(#56));
#825=EDGE_LOOP('',(#57,#58,#59,#60));
#826=EDGE_LOOP('',(#61,#62,#63));
#827=EDGE_LOOP('',(#64,#65,#66));
#828=EDGE_LOOP('',(#67,#68,#69));
#829=EDGE_LOOP('',(#70,#71,#72,#73,#74,#75));
#830=EDGE_LOOP('',(#76,#77,#78,#79,#80,#81));
#831=EDGE_LOOP('',(#82,#83,#84,#85,#86,#87));
#832=EDGE_LOOP('',(#88,#89,#90,#91));
#833=EDGE_LOOP('',(#92));
#834=EDGE_LOOP('',(#93,#94,#95,#96,#97,#98,#99,#100,#101,#102,#103));
#835=EDGE_LOOP('',(#104,#105,#106,#107));
#836=EDGE_LOOP('',(#108,#109,#110,#111,#112,#113,#114,#115,#116,#117,#118));
#837=EDGE_LOOP('',(#119));
#838=EDGE_LOOP('',(#120,#121,#122,#123));
#839=EDGE_LOOP('',(#124,#125,#126,#127));
#840=EDGE_LOOP('',(#128));
#841=EDGE_LOOP('',(#129));
#842=EDGE_LOOP('',(#130));
#843=EDGE_LOOP('',(#131));
#844=EDGE_LOOP('',(#132));
#845=EDGE_LOOP('',(#133));
#846=EDGE_LOOP('',(#134,#135,#136,#137));
#847=EDGE_LOOP('',(#138));
#848=EDGE_LOOP('',(#139));
#849=EDGE_LOOP('',(#140,#141,#142,#143,#144,#145));
#850=EDGE_LOOP('',(#146,#147,#148,#149));
#851=EDGE_LOOP('',(#150,#151,#152,#153));
#852=EDGE_LOOP('',(#154,#155,#156,#157));
#853=EDGE_LOOP('',(#158,#159,#160,#161,#162,#163));
#854=EDGE_LOOP('',(#164,#165,#166,#167,#168,#169));
#855=EDGE_LOOP('',(#170,#171,#172,#173));
#856=EDGE_LOOP('',(#174,#175,#176,#177,#178,#179));
#857=EDGE_LOOP('',(#180,#181,#182,#183,#184,#185));
#858=EDGE_LOOP('',(#186,#187,#188,#189));
#859=EDGE_LOOP('',(#190,#191,#192,#193,#194,#195));
#860=EDGE_LOOP('',(#196,#197,#198,#199));
#861=EDGE_LOOP('',(#200,#201,#202,#203,#204,#205));
#862=EDGE_LOOP('',(#206,#207,#208,#209,#210,#211));
#863=EDGE_LOOP('',(#212,#213,#214,#215));
#864=EDGE_LOOP('',(#216,#217,#218,#219,#220,#221));
#865=EDGE_LOOP('',(#222,#223,#224));
#866=EDGE_LOOP('',(#225,#226,#227,#228,#229,#230,#231,#232,#233));
#867=EDGE_LOOP('',(#234,#235,#236,#237,#238,#239,#240,#241,#242));
#868=EDGE_LOOP('',(#243,#244,#245,#246,#247,#248,#249,#250,#251));
#869=EDGE_LOOP('',(#252,#253,#254,#255,#256,#257,#258,#259,#260));
#870=EDGE_LOOP('',(#261,#262,#263,#264,#265,#266));
#871=EDGE_LOOP('',(#267,#268,#269,#270,#271,#272));
#872=EDGE_LOOP('',(#273,#274,#275,#276,#277));
#873=EDGE_LOOP('',(#278,#279,#280,#281,#282));
#874=EDGE_LOOP('',(#283,#284,#285));
#875=EDGE_LOOP('',(#286,#287,#288));
#876=EDGE_LOOP('',(#289,#290,#291));
#877=EDGE_LOOP('',(#292,#293,#294));
#878=EDGE_LOOP('',(#295,#296,#297,#298,#299));
#879=EDGE_LOOP('',(#300,#301,#302,#303,#304));
#880=EDGE_LOOP('',(#305,#306,#307));
#881=EDGE_LOOP('',(#308,#309,#310));
#882=EDGE_LOOP('',(#311,#312,#313));
#883=EDGE_LOOP('',(#314,#315,#316));
#884=EDGE_LOOP('',(#317,#318,#319,#320));
#885=EDGE_LOOP('',(#321,#322,#323,#324));
#886=EDGE_LOOP('',(#325,#326,#327,#328));
#887=FACE_BOUND('',#820,.T.);
#888=FACE_BOUND('',#821,.T.);
#889=FACE_BOUND('',#822,.T.);
#890=FACE_BOUND('',#823,.T.);
#891=FACE_BOUND('',#824,.T.);
#892=FACE_BOUND('',#825,.T.);
#893=FACE_BOUND('',#826,.T.);
#894=FACE_BOUND('',#827,.T.);
#895=FACE_BOUND('',#828,.T.);
#896=FACE_BOUND('',#829,.T.);
#897=FACE_BOUND('',#830,.T.);
#898=FACE_BOUND('',#831,.T.);
#899=FACE_BOUND('',#832,.T.);
#900=FACE_BOUND('',#833,.T.);
#901=FACE_BOUND('',#834,.T.);
#902=FACE_BOUND('',#835,.T.);
#903=FACE_BOUND('',#836,.T.);
#904=FACE_BOUND('',#837,.T.);
#905=FACE_BOUND('',#838,.T.);
#906=FACE_BOUND('',#839,.T.);
#907=FACE_BOUND('',#840,.T.);
#908=FACE_BOUND('',#841,.T.);
#909=FACE_BOUND('',#842,.T.);
#910=FACE_BOUND('',#843,.T.);
#911=FACE_BOUND('',#844,.T.);
#912=FACE_BOUND('',#845,.T.);
#913=FACE_BOUND('',#846,.T.);
#914=FACE_BOUND('',#847,.T.);
#915=FACE_BOUND('',#848,.T.);
#916=FACE_BOUND('',#849,.T.);
#917=FACE_BOUND('',#850,.T.);
#918=FACE_BOUND('',#851,.T.);
#919=FACE_BOUND('',#852,.T.);
#920=FACE_BOUND('',#853,.T.);
#921=FACE_BOUND('',#854,.T.);
#922=FACE_BOUND('',#855,.T.);
#923=FACE_BOUND('',#856,.T.);
#924=FACE_BOUND('',#857,.T.);
#925=FACE_BOUND('',#858,.T.);
#926=FACE_BOUND('',#859,.T.);
#927=FACE_BOUND('',#860,.T.);
#928=FACE_BOUND('',#861,.T.);
#929=FACE_BOUND('',#862,.T.);
#930=FACE_BOUND('',#863,.T.);
#931=FACE_BOUND('',#864,.T.);
#932=FACE_BOUND('',#865,.T.);
#933=FACE_BOUND('',#866,.T.);
#934=FACE_BOUND('',#867,.T.);
#935=FACE_BOUND('',#868,.T.);
#936=FACE_BOUND('',#869,.T.);
#937=FACE_BOUND('',#870,.T.);
#938=FACE_BOUND('',#871,.T.);
#939=FACE_BOUND('',#872,.T.);
#940=FACE_BOUND('',#873,.T.);
#941=FACE_BOUND('',#874,.T.);
#942=FACE_BOUND('',#875,.T.);
#943=FACE_BOUND('',#876,.T.);
#944=FACE_BOUND('',#877,.T.);
#945=FACE_BOUND('',#878,.T.);
#946=FACE_BOUND('',#879,.T.);
#947=FACE_BOUND('',#880,.T.);
#948=FACE_BOUND('',#881,.T.);
#949=FACE_BOUND('',#882,.T.);
#950=FACE_BOUND('',#883,.T.);
#951=FACE_BOUND('',#884,.T.);
#952=FACE_BOUND('',#885,.T.);
#953=FACE_BOUND('',#886,.T.);
#954=PLANE('',#1074);
#955=PLANE('',#1075);
#956=PLANE('',#1088);
#957=PLANE('',#1089);
#958=PLANE('',#1090);
#959=PLANE('',#1091);
#960=PLANE('',#1094);
#961=PLANE('',#1095);
#962=PLANE('',#1098);
#963=PLANE('',#1099);
#964=PLANE('',#1103);
#965=PLANE('',#1106);
#966=PLANE('',#1109);
#967=PLANE('',#1110);
#968=PLANE('',#1111);
#969=PLANE('',#1114);
#970=PLANE('',#1115);
#971=PLANE('',#1116);
#972=PLANE('',#1117);
#973=PLANE('',#1118);
#974=PLANE('',#1119);
#975=PLANE('',#1120);
#976=PLANE('',#1121);
#977=PLANE('',#1122);
#978=PLANE('',#1123);
#979=PLANE('',#1124);
#980=PLANE('',#1125);
#981=PLANE('',#1126);
#982=PLANE('',#1127);
#983=PLANE('',#1128);
#984=PLANE('',#1129);
#985=PLANE('',#1130);
#986=PLANE('',#1131);
#987=PLANE('',#1132);
#988=PLANE('',#1133);
#989=PLANE('',#1134);
#990=PLANE('',#1135);
#991=PLANE('',#1136);
#992=PLANE('',#1137);
#993=PLANE('',#1138);
#994=PLANE('',#1139);
#995=PLANE('',#1140);
#996=PLANE('',#1141);
#997=PLANE('',#1142);
#998=PLANE('',#1143);
#999=PLANE('',#1144);
#1000=PLANE('',#1145);
#1001=PLANE('',#1146);
#1002=PLANE('',#1147);
#1003=PLANE('',#1150);
#1004=ADVANCED_FACE('',(#887),#954,.T.);
#1005=ADVANCED_FACE('',(#888),#955,.T.);
#1006=ADVANCED_FACE('',(#889,#890),#32,.F.);
#1007=ADVANCED_FACE('',(#891,#892),#33,.F.);
#1008=ADVANCED_FACE('',(#893),#956,.T.);
#1009=ADVANCED_FACE('',(#894),#957,.T.);
#1010=ADVANCED_FACE('',(#895),#958,.T.);
#1011=ADVANCED_FACE('',(#896,#897,#898),#959,.F.);
#1012=ADVANCED_FACE('',(#899),#960,.T.);
#1013=ADVANCED_FACE('',(#900,#901),#961,.F.);
#1014=ADVANCED_FACE('',(#902),#962,.F.);
#1015=ADVANCED_FACE('',(#903,#904),#963,.T.);
#1016=ADVANCED_FACE('',(#905),#34,.T.);
#1017=ADVANCED_FACE('',(#906),#964,.T.);
#1018=ADVANCED_FACE('',(#907,#908),#35,.F.);
#1019=ADVANCED_FACE('',(#909),#965,.T.);
#1020=ADVANCED_FACE('',(#910,#911),#36,.F.);
#1021=ADVANCED_FACE('',(#912),#966,.F.);
#1022=ADVANCED_FACE('',(#913),#967,.F.);
#1023=ADVANCED_FACE('',(#914,#915,#916),#968,.T.);
#1024=ADVANCED_FACE('',(#917),#969,.F.);
#1025=ADVANCED_FACE('',(#918),#970,.F.);
#1026=ADVANCED_FACE('',(#919),#971,.F.);
#1027=ADVANCED_FACE('',(#920),#972,.T.);
#1028=ADVANCED_FACE('',(#921),#973,.T.);
#1029=ADVANCED_FACE('',(#922),#974,.T.);
#1030=ADVANCED_FACE('',(#923),#975,.T.);
#1031=ADVANCED_FACE('',(#924),#976,.T.);
#1032=ADVANCED_FACE('',(#925),#977,.T.);
#1033=ADVANCED_FACE('',(#926),#978,.F.);
#1034=ADVANCED_FACE('',(#927),#979,.F.);
#1035=ADVANCED_FACE('',(#928),#980,.F.);
#1036=ADVANCED_FACE('',(#929),#981,.F.);
#1037=ADVANCED_FACE('',(#930),#982,.F.);
#1038=ADVANCED_FACE('',(#931),#983,.F.);
#1039=ADVANCED_FACE('',(#932),#984,.T.);
#1040=ADVANCED_FACE('',(#933),#985,.T.);
#1041=ADVANCED_FACE('',(#934),#986,.T.);
#1042=ADVANCED_FACE('',(#935),#987,.F.);
#1043=ADVANCED_FACE('',(#936),#988,.F.);
#1044=ADVANCED_FACE('',(#937),#989,.T.);
#1045=ADVANCED_FACE('',(#938),#990,.T.);
#1046=ADVANCED_FACE('',(#939),#991,.T.);
#1047=ADVANCED_FACE('',(#940),#992,.T.);
#1048=ADVANCED_FACE('',(#941),#993,.T.);
#1049=ADVANCED_FACE('',(#942),#994,.T.);
#1050=ADVANCED_FACE('',(#943),#995,.T.);
#1051=ADVANCED_FACE('',(#944),#996,.T.);
#1052=ADVANCED_FACE('',(#945),#997,.F.);
#1053=ADVANCED_FACE('',(#946),#998,.F.);
#1054=ADVANCED_FACE('',(#947),#999,.T.);
#1055=ADVANCED_FACE('',(#948),#1000,.T.);
#1056=ADVANCED_FACE('',(#949),#1001,.T.);
#1057=ADVANCED_FACE('',(#950),#1002,.T.);
#1058=ADVANCED_FACE('',(#951),#37,.T.);
#1059=ADVANCED_FACE('',(#952),#38,.T.);
#1060=ADVANCED_FACE('',(#953),#1003,.T.);
#1061=CLOSED_SHELL('',(#1004,#1005,#1006,#1007,#1008,#1009,#1010,#1011,
#1012,#1013,#1014,#1015,#1016,#1017,#1018,#1019,#1020,#1021,#1022,#1023,
#1024,#1025,#1026,#1027,#1028,#1029,#1030,#1031,#1032,#1033,#1034,#1035,
#1036,#1037,#1038,#1039,#1040,#1041,#1042,#1043,#1044,#1045,#1046,#1047,
#1048,#1049,#1050,#1051,#1052,#1053,#1054,#1055,#1056,#1057,#1058,#1059,
#1060));
#1062=STYLED_ITEM('',(#1063),#1070);
#1063=PRESENTATION_STYLE_ASSIGNMENT((#1064));
#1064=SURFACE_STYLE_USAGE(.BOTH.,#1065);
#1065=SURFACE_SIDE_STYLE('',(#1066));
#1066=SURFACE_STYLE_FILL_AREA(#1067);
#1067=FILL_AREA_STYLE('',(#1068));
#1068=FILL_AREA_STYLE_COLOUR('',#1069);
#1069=COLOUR_RGB('',0.235294117647059,0.235294117647059,0.235294117647059);
#1070=MANIFOLD_SOLID_BREP('Hinge',#1061);
#1071=SHAPE_DEFINITION_REPRESENTATION(#1737,#1072);
#1072=SHAPE_REPRESENTATION('Hinge',(#1073),#1732);
#1073=AXIS2_PLACEMENT_3D('',#1432,#1151,#1152);
#1074=AXIS2_PLACEMENT_3D('',#1433,#1153,#1154);
#1075=AXIS2_PLACEMENT_3D('',#1446,#1161,#1162);
#1076=AXIS2_PLACEMENT_3D('',#1459,#1169,#1170);
#1077=AXIS2_PLACEMENT_3D('',#1460,#1171,#1172);
#1078=AXIS2_PLACEMENT_3D('',#1462,#1173,#1174);
#1079=AXIS2_PLACEMENT_3D('',#1465,#1175,#1176);
#1080=AXIS2_PLACEMENT_3D('',#1467,#1177,#1178);
#1081=AXIS2_PLACEMENT_3D('',#1469,#1179,#1180);
#1082=AXIS2_PLACEMENT_3D('',#1470,#1181,#1182);
#1083=AXIS2_PLACEMENT_3D('',#1471,#1183,#1184);
#1084=AXIS2_PLACEMENT_3D('',#1473,#1185,#1186);
#1085=AXIS2_PLACEMENT_3D('',#1476,#1187,#1188);
#1086=AXIS2_PLACEMENT_3D('',#1478,#1189,#1190);
#1087=AXIS2_PLACEMENT_3D('',#1480,#1191,#1192);
#1088=AXIS2_PLACEMENT_3D('',#1481,#1193,#1194);
#1089=AXIS2_PLACEMENT_3D('',#1488,#1198,#1199);
#1090=AXIS2_PLACEMENT_3D('',#1495,#1203,#1204);
#1091=AXIS2_PLACEMENT_3D('',#1502,#1208,#1209);
#1092=AXIS2_PLACEMENT_3D('',#1518,#1217,#1218);
#1093=AXIS2_PLACEMENT_3D('',#1526,#1222,#1223);
#1094=AXIS2_PLACEMENT_3D('',#1539,#1230,#1231);
#1095=AXIS2_PLACEMENT_3D('',#1548,#1236,#1237);
#1096=AXIS2_PLACEMENT_3D('',#1549,#1238,#1239);
#1097=AXIS2_PLACEMENT_3D('',#1564,#1247,#1248);
#1098=AXIS2_PLACEMENT_3D('',#1567,#1250,#1251);
#1099=AXIS2_PLACEMENT_3D('',#1573,#1255,#1256);
#1100=AXIS2_PLACEMENT_3D('',#1580,#1260,#1261);
#1101=AXIS2_PLACEMENT_3D('',#1590,#1267,#1268);
#1102=AXIS2_PLACEMENT_3D('',#1592,#1269,#1270);
#1103=AXIS2_PLACEMENT_3D('',#1594,#1272,#1273);
#1104=AXIS2_PLACEMENT_3D('',#1597,#1276,#1277);
#1105=AXIS2_PLACEMENT_3D('',#1598,#1278,#1279);
#1106=AXIS2_PLACEMENT_3D('',#1600,#1280,#1281);
#1107=AXIS2_PLACEMENT_3D('',#1601,#1282,#1283);
#1108=AXIS2_PLACEMENT_3D('',#1602,#1284,#1285);
#1109=AXIS2_PLACEMENT_3D('',#1604,#1286,#1287);
#1110=AXIS2_PLACEMENT_3D('',#1605,#1288,#1289);
#1111=AXIS2_PLACEMENT_3D('',#1607,#1291,#1292);
#1112=AXIS2_PLACEMENT_3D('',#1608,#1293,#1294);
#1113=AXIS2_PLACEMENT_3D('',#1609,#1295,#1296);
#1114=AXIS2_PLACEMENT_3D('',#1610,#1297,#1298);
#1115=AXIS2_PLACEMENT_3D('',#1612,#1300,#1301);
#1116=AXIS2_PLACEMENT_3D('',#1614,#1303,#1304);
#1117=AXIS2_PLACEMENT_3D('',#1615,#1305,#1306);
#1118=AXIS2_PLACEMENT_3D('',#1619,#1310,#1311);
#1119=AXIS2_PLACEMENT_3D('',#1622,#1314,#1315);
#1120=AXIS2_PLACEMENT_3D('',#1624,#1317,#1318);
#1121=AXIS2_PLACEMENT_3D('',#1627,#1321,#1322);
#1122=AXIS2_PLACEMENT_3D('',#1630,#1325,#1326);
#1123=AXIS2_PLACEMENT_3D('',#1631,#1327,#1328);
#1124=AXIS2_PLACEMENT_3D('',#1638,#1333,#1334);
#1125=AXIS2_PLACEMENT_3D('',#1642,#1337,#1338);
#1126=AXIS2_PLACEMENT_3D('',#1650,#1343,#1344);
#1127=AXIS2_PLACEMENT_3D('',#1658,#1349,#1350);
#1128=AXIS2_PLACEMENT_3D('',#1662,#1353,#1354);
#1129=AXIS2_PLACEMENT_3D('',#1666,#1357,#1358);
#1130=AXIS2_PLACEMENT_3D('',#1668,#1360,#1361);
#1131=AXIS2_PLACEMENT_3D('',#1675,#1366,#1367);
#1132=AXIS2_PLACEMENT_3D('',#1682,#1372,#1373);
#1133=AXIS2_PLACEMENT_3D('',#1693,#1380,#1381);
#1134=AXIS2_PLACEMENT_3D('',#1704,#1388,#1389);
#1135=AXIS2_PLACEMENT_3D('',#1706,#1391,#1392);
#1136=AXIS2_PLACEMENT_3D('',#1708,#1394,#1395);
#1137=AXIS2_PLACEMENT_3D('',#1711,#1398,#1399);
#1138=AXIS2_PLACEMENT_3D('',#1714,#1402,#1403);
#1139=AXIS2_PLACEMENT_3D('',#1715,#1404,#1405);
#1140=AXIS2_PLACEMENT_3D('',#1716,#1406,#1407);
#1141=AXIS2_PLACEMENT_3D('',#1717,#1408,#1409);
#1142=AXIS2_PLACEMENT_3D('',#1718,#1410,#1411);
#1143=AXIS2_PLACEMENT_3D('',#1721,#1414,#1415);
#1144=AXIS2_PLACEMENT_3D('',#1724,#1418,#1419);
#1145=AXIS2_PLACEMENT_3D('',#1725,#1420,#1421);
#1146=AXIS2_PLACEMENT_3D('',#1726,#1422,#1423);
#1147=AXIS2_PLACEMENT_3D('',#1727,#1424,#1425);
#1148=AXIS2_PLACEMENT_3D('',#1728,#1426,#1427);
#1149=AXIS2_PLACEMENT_3D('',#1729,#1428,#1429);
#1150=AXIS2_PLACEMENT_3D('',#1730,#1430,#1431);
#1151=DIRECTION('',(0.,0.,1.));
#1152=DIRECTION('',(1.,0.,0.));
#1153=DIRECTION('',(0.,0.,-1.));
#1154=DIRECTION('',(1.,0.,0.));
#1155=DIRECTION('',(0.,1.,0.));
#1156=DIRECTION('',(-1.,0.,0.));
#1157=DIRECTION('',(0.,-1.,0.));
#1158=DIRECTION('',(-0.5,-0.86602540378444,0.));
#1159=DIRECTION('',(-1.,-1.71693096998532E-15,0.));
#1160=DIRECTION('',(-0.5,0.866025403784441,0.));
#1161=DIRECTION('',(0.,0.,-1.));
#1162=DIRECTION('',(1.,0.,0.));
#1163=DIRECTION('',(0.,-1.,0.));
#1164=DIRECTION('',(1.,0.,0.));
#1165=DIRECTION('',(0.,1.,0.));
#1166=DIRECTION('',(0.5,0.86602540378444,0.));
#1167=DIRECTION('',(1.,0.,0.));
#1168=DIRECTION('',(0.5,-0.866025403784438,0.));
#1169=DIRECTION('',(0.,0.,-1.));
#1170=DIRECTION('',(-1.,0.,0.));
#1171=DIRECTION('',(0.,0.,-1.));
#1172=DIRECTION('',(-1.,0.,0.));
#1173=DIRECTION('',(0.,0.,-1.));
#1174=DIRECTION('',(-1.,0.,0.));
#1175=DIRECTION('',(0.,0.,-1.));
#1176=DIRECTION('',(-1.,0.,0.));
#1177=DIRECTION('',(0.,0.,-1.));
#1178=DIRECTION('',(-1.,0.,0.));
#1179=DIRECTION('',(0.,0.,-1.));
#1180=DIRECTION('',(-1.,0.,0.));
#1181=DIRECTION('',(0.,0.,-1.));
#1182=DIRECTION('',(-1.,0.,0.));
#1183=DIRECTION('',(0.,0.,-1.));
#1184=DIRECTION('',(-1.,0.,0.));
#1185=DIRECTION('',(0.,0.,-1.));
#1186=DIRECTION('',(-1.,0.,0.));
#1187=DIRECTION('',(0.,0.,-1.));
#1188=DIRECTION('',(-1.,0.,0.));
#1189=DIRECTION('',(0.,0.,-1.));
#1190=DIRECTION('',(-1.,0.,0.));
#1191=DIRECTION('',(0.,0.,-1.));
#1192=DIRECTION('',(-1.,0.,0.));
#1193=DIRECTION('',(0.,0.,-1.));
#1194=DIRECTION('',(1.,0.,0.));
#1195=DIRECTION('',(0.5,0.86602540378444,0.));
#1196=DIRECTION('',(0.,1.,0.));
#1197=DIRECTION('',(-0.5,0.866025403784438,0.));
#1198=DIRECTION('',(0.,0.,-1.));
#1199=DIRECTION('',(1.,0.,0.));
#1200=DIRECTION('',(-0.5,-0.866025403784439,0.));
#1201=DIRECTION('',(0.,-1.,0.));
#1202=DIRECTION('',(0.5,-0.866025403784438,0.));
#1203=DIRECTION('',(0.,0.,-1.));
#1204=DIRECTION('',(1.,0.,0.));
#1205=DIRECTION('',(0.,1.,0.));
#1206=DIRECTION('',(-0.5,0.866025403784439,0.));
#1207=DIRECTION('',(0.5,0.866025403784438,0.));
#1208=DIRECTION('',(0.,0.,1.));
#1209=DIRECTION('',(1.,0.,0.));
#1210=DIRECTION('',(1.,-1.50231459873716E-15,0.));
#1211=DIRECTION('',(0.5,0.866025403784438,0.));
#1212=DIRECTION('',(-0.5,0.866025403784439,0.));
#1213=DIRECTION('',(-1.,1.71693096998532E-15,0.));
#1214=DIRECTION('',(-0.5,-0.866025403784438,0.));
#1215=DIRECTION('',(0.5,-0.866025403784439,0.));
#1216=DIRECTION('',(-5.25673780599032E-17,-1.,0.));
#1217=DIRECTION('',(0.,0.,1.));
#1218=DIRECTION('',(1.,0.,0.));
#1219=DIRECTION('',(-1.,0.,0.));
#1220=DIRECTION('',(0.,1.,0.));
#1221=DIRECTION('',(-1.,0.,0.));
#1222=DIRECTION('',(0.,0.,1.));
#1223=DIRECTION('',(1.,0.,0.));
#1224=DIRECTION('',(-0.5,0.866025403784438,0.));
#1225=DIRECTION('',(-1.,-2.14616371248166E-15,0.));
#1226=DIRECTION('',(-0.5,-0.866025403784439,0.));
#1227=DIRECTION('',(0.5,-0.866025403784438,0.));
#1228=DIRECTION('',(1.,2.14616371248165E-15,0.));
#1229=DIRECTION('',(0.5,0.86602540378444,0.));
#1230=DIRECTION('',(0.,0.,1.));
#1231=DIRECTION('',(1.,0.,0.));
#1232=DIRECTION('',(-1.,0.,0.));
#1233=DIRECTION('',(0.,-1.,0.));
#1234=DIRECTION('',(-1.,0.,0.));
#1235=DIRECTION('',(0.,1.,0.));
#1236=DIRECTION('',(0.,-1.,0.));
#1237=DIRECTION('',(0.,0.,-1.));
#1238=DIRECTION('',(0.,-1.,0.));
#1239=DIRECTION('',(0.,0.,-1.));
#1240=DIRECTION('',(0.,0.,-1.));
#1241=DIRECTION('',(-1.,0.,0.));
#1242=DIRECTION('',(0.,0.,1.));
#1243=DIRECTION('',(-1.,0.,0.));
#1244=DIRECTION('',(-0.707106781186548,0.,0.707106781186547));
#1245=DIRECTION('',(-1.,0.,0.));
#1246=DIRECTION('',(-0.707106781186548,0.,-0.707106781186548));
#1247=DIRECTION('',(0.,-1.,0.));
#1248=DIRECTION('',(0.,0.,-1.));
#1249=DIRECTION('',(0.657595949221429,0.,0.753370803500884));
#1250=DIRECTION('',(1.,-5.25673780599033E-17,0.));
#1251=DIRECTION('',(5.25673780599033E-17,1.,0.));
#1252=DIRECTION('',(-5.25673780599032E-17,-1.,0.));
#1253=DIRECTION('',(0.,0.,-1.));
#1254=DIRECTION('',(0.,0.,-1.));
#1255=DIRECTION('',(0.,-1.,0.));
#1256=DIRECTION('',(0.,0.,-1.));
#1257=DIRECTION('',(-1.,0.,0.));
#1258=DIRECTION('',(0.,0.,-1.));
#1259=DIRECTION('',(-0.657595949221429,0.,-0.753370803500884));
#1260=DIRECTION('',(0.,-1.,0.));
#1261=DIRECTION('',(0.,0.,-1.));
#1262=DIRECTION('',(0.707106781186548,0.,0.707106781186548));
#1263=DIRECTION('',(1.,0.,0.));
#1264=DIRECTION('',(0.707106781186548,0.,-0.707106781186547));
#1265=DIRECTION('',(-1.,0.,0.));
#1266=DIRECTION('',(0.,0.,1.));
#1267=DIRECTION('',(0.,-1.,0.));
#1268=DIRECTION('',(0.,0.,-1.));
#1269=DIRECTION('',(0.,1.,0.));
#1270=DIRECTION('',(0.,0.,1.));
#1271=DIRECTION('',(0.,1.,0.));
#1272=DIRECTION('',(0.,0.,1.));
#1273=DIRECTION('',(1.,0.,0.));
#1274=DIRECTION('',(0.,-1.,0.));
#1275=DIRECTION('',(-6.98973018548321E-17,1.,0.));
#1276=DIRECTION('',(0.,-1.,0.));
#1277=DIRECTION('',(0.,0.,-1.));
#1278=DIRECTION('',(0.,-1.,0.));
#1279=DIRECTION('',(0.,0.,-1.));
#1280=DIRECTION('',(0.,-1.,0.));
#1281=DIRECTION('',(1.,0.,0.));
#1282=DIRECTION('',(0.,1.,0.));
#1283=DIRECTION('',(0.,0.,1.));
#1284=DIRECTION('',(0.,-1.,0.));
#1285=DIRECTION('',(0.,0.,-1.));
#1286=DIRECTION('',(0.,-1.,0.));
#1287=DIRECTION('',(1.,0.,0.));
#1288=DIRECTION('',(1.,6.98973018548321E-17,0.));
#1289=DIRECTION('',(-6.98973018548321E-17,1.,0.));
#1290=DIRECTION('',(-6.98973018548321E-17,1.,0.));
#1291=DIRECTION('',(0.,0.,1.));
#1292=DIRECTION('',(1.,0.,0.));
#1293=DIRECTION('',(0.,0.,1.));
#1294=DIRECTION('',(1.,0.,0.));
#1295=DIRECTION('',(0.,0.,1.));
#1296=DIRECTION('',(1.,0.,0.));
#1297=DIRECTION('',(-0.707106781186547,0.,-0.707106781186548));
#1298=DIRECTION('',(-0.707106781186548,0.,0.707106781186547));
#1299=DIRECTION('',(0.,-1.,0.));
#1300=DIRECTION('',(0.,0.,-1.));
#1301=DIRECTION('',(-1.,0.,0.));
#1302=DIRECTION('',(0.,-1.,0.));
#1303=DIRECTION('',(0.707106781186548,0.,-0.707106781186548));
#1304=DIRECTION('',(-0.707106781186548,0.,-0.707106781186548));
#1305=DIRECTION('',(-0.866025403784438,-0.5,0.));
#1306=DIRECTION('',(0.5,-0.866025403784438,0.));
#1307=DIRECTION('',(0.,0.,-1.));
#1308=DIRECTION('',(0.,0.,-1.));
#1309=DIRECTION('',(0.,0.,-1.));
#1310=DIRECTION('',(-0.866025403784439,0.5,0.));
#1311=DIRECTION('',(-0.5,-0.86602540378444,0.));
#1312=DIRECTION('',(0.,0.,-1.));
#1313=DIRECTION('',(0.,0.,-1.));
#1314=DIRECTION('',(-2.14616371248165E-15,1.,0.));
#1315=DIRECTION('',(-1.,-2.14616371248165E-15,0.));
#1316=DIRECTION('',(0.,0.,-1.));
#1317=DIRECTION('',(0.866025403784438,0.5,0.));
#1318=DIRECTION('',(-0.5,0.866025403784438,0.));
#1319=DIRECTION('',(0.,0.,-1.));
#1320=DIRECTION('',(0.,0.,-1.));
#1321=DIRECTION('',(0.866025403784439,-0.5,0.));
#1322=DIRECTION('',(0.5,0.866025403784439,0.));
#1323=DIRECTION('',(0.,0.,-1.));
#1324=DIRECTION('',(0.,0.,-1.));
#1325=DIRECTION('',(2.14616371248166E-15,-1.,0.));
#1326=DIRECTION('',(1.,2.14616371248166E-15,0.));
#1327=DIRECTION('',(-0.866025403784438,0.5,0.));
#1328=DIRECTION('',(-0.5,-0.866025403784438,0.));
#1329=DIRECTION('',(0.,0.,-1.));
#1330=DIRECTION('',(0.5,0.866025403784438,0.));
#1331=DIRECTION('',(0.,0.,-1.));
#1332=DIRECTION('',(0.,0.,-1.));
#1333=DIRECTION('',(1.50231459873716E-15,1.,0.));
#1334=DIRECTION('',(-1.,1.50231459873716E-15,0.));
#1335=DIRECTION('',(0.,0.,-1.));
#1336=DIRECTION('',(1.,-1.50231459873716E-15,0.));
#1337=DIRECTION('',(0.866025403784439,0.5,0.));
#1338=DIRECTION('',(-0.5,0.866025403784439,0.));
#1339=DIRECTION('',(0.,0.,-1.));
#1340=DIRECTION('',(0.5,-0.866025403784439,0.));
#1341=DIRECTION('',(0.,0.,-1.));
#1342=DIRECTION('',(0.5,-0.866025403784439,0.));
#1343=DIRECTION('',(0.866025403784438,-0.5,0.));
#1344=DIRECTION('',(0.5,0.866025403784438,0.));
#1345=DIRECTION('',(0.,0.,-1.));
#1346=DIRECTION('',(-0.5,-0.866025403784438,0.));
#1347=DIRECTION('',(0.,0.,-1.));
#1348=DIRECTION('',(-0.5,-0.866025403784438,0.));
#1349=DIRECTION('',(-1.71693096998532E-15,-1.,0.));
#1350=DIRECTION('',(1.,-1.71693096998532E-15,0.));
#1351=DIRECTION('',(0.,0.,-1.));
#1352=DIRECTION('',(-1.,1.71693096998532E-15,0.));
#1353=DIRECTION('',(-0.866025403784439,-0.5,0.));
#1354=DIRECTION('',(0.5,-0.86602540378444,0.));
#1355=DIRECTION('',(0.,0.,-1.));
#1356=DIRECTION('',(-0.5,0.866025403784439,0.));
#1357=DIRECTION('',(0.,0.,-1.));
#1358=DIRECTION('',(1.,0.,0.));
#1359=DIRECTION('',(0.,-1.,0.));
#1360=DIRECTION('',(-1.,0.,0.));
#1361=DIRECTION('',(0.,0.,1.));
#1362=DIRECTION('',(0.,0.,-1.));
#1363=DIRECTION('',(0.,1.,0.));
#1364=DIRECTION('',(0.,1.,0.));
#1365=DIRECTION('',(0.,0.,-1.));
#1366=DIRECTION('',(1.,0.,0.));
#1367=DIRECTION('',(0.,0.,-1.));
#1368=DIRECTION('',(0.,0.,-1.));
#1369=DIRECTION('',(-4.13029399042096E-16,-1.,0.));
#1370=DIRECTION('',(-4.13029399042096E-16,-1.,0.));
#1371=DIRECTION('',(0.,0.,-1.));
#1372=DIRECTION('',(-1.,0.,0.));
#1373=DIRECTION('',(0.,0.,1.));
#1374=DIRECTION('',(0.,1.,0.));
#1375=DIRECTION('',(0.,1.,0.));
#1376=DIRECTION('',(0.,0.,-1.));
#1377=DIRECTION('',(0.,1.,0.));
#1378=DIRECTION('',(0.,1.,0.));
#1379=DIRECTION('',(0.,0.,-1.));
#1380=DIRECTION('',(1.,0.,0.));
#1381=DIRECTION('',(0.,0.,-1.));
#1382=DIRECTION('',(0.,-1.,0.));
#1383=DIRECTION('',(0.,-1.,0.));
#1384=DIRECTION('',(0.,0.,-1.));
#1385=DIRECTION('',(0.,-1.,0.));
#1386=DIRECTION('',(0.,-1.,0.));
#1387=DIRECTION('',(0.,0.,-1.));
#1388=DIRECTION('',(0.,0.,-1.));
#1389=DIRECTION('',(1.,0.,0.));
#1390=DIRECTION('',(1.,0.,0.));
#1391=DIRECTION('',(0.,0.,-1.));
#1392=DIRECTION('',(1.,0.,0.));
#1393=DIRECTION('',(-1.,0.,0.));
#1394=DIRECTION('',(0.,-1.,0.));
#1395=DIRECTION('',(0.,0.,-1.));
#1396=DIRECTION('',(-1.,0.,0.));
#1397=DIRECTION('',(-1.,0.,0.));
#1398=DIRECTION('',(0.,1.,0.));
#1399=DIRECTION('',(0.,0.,1.));
#1400=DIRECTION('',(1.,0.,0.));
#1401=DIRECTION('',(1.,0.,0.));
#1402=DIRECTION('',(0.,0.,-1.));
#1403=DIRECTION('',(1.,0.,0.));
#1404=DIRECTION('',(0.,0.,-1.));
#1405=DIRECTION('',(1.,0.,0.));
#1406=DIRECTION('',(0.,0.,-1.));
#1407=DIRECTION('',(1.,0.,0.));
#1408=DIRECTION('',(0.,0.,-1.));
#1409=DIRECTION('',(1.,0.,0.));
#1410=DIRECTION('',(0.,1.,0.));
#1411=DIRECTION('',(0.,0.,1.));
#1412=DIRECTION('',(1.,0.,0.));
#1413=DIRECTION('',(1.,0.,0.));
#1414=DIRECTION('',(0.,-1.,0.));
#1415=DIRECTION('',(0.,0.,-1.));
#1416=DIRECTION('',(-1.,0.,0.));
#1417=DIRECTION('',(-1.,0.,0.));
#1418=DIRECTION('',(0.,0.,-1.));
#1419=DIRECTION('',(1.,0.,0.));
#1420=DIRECTION('',(0.,0.,-1.));
#1421=DIRECTION('',(1.,0.,0.));
#1422=DIRECTION('',(0.,0.,-1.));
#1423=DIRECTION('',(1.,0.,0.));
#1424=DIRECTION('',(0.,0.,-1.));
#1425=DIRECTION('',(1.,0.,0.));
#1426=DIRECTION('',(0.,0.,-1.));
#1427=DIRECTION('',(-1.,0.,0.));
#1428=DIRECTION('',(0.,0.,1.));
#1429=DIRECTION('',(1.,0.,0.));
#1430=DIRECTION('',(0.753370803500884,0.,-0.657595949221429));
#1431=DIRECTION('',(0.,1.,0.));
#1432=CARTESIAN_POINT('',(0.,0.,0.));
#1433=CARTESIAN_POINT('',(-0.01,0.,0.0032));
#1434=CARTESIAN_POINT('',(-0.0079,0.01,0.0032));
#1435=CARTESIAN_POINT('',(-0.0079,0.0121,0.0032));
#1436=CARTESIAN_POINT('',(-0.0079,0.0133626933041053,0.0032));
#1437=CARTESIAN_POINT('',(-0.01,0.0121,0.0032));
#1438=CARTESIAN_POINT('',(-0.0121,0.0121,0.0032));
#1439=CARTESIAN_POINT('',(-0.0121,0.01,0.0032));
#1440=CARTESIAN_POINT('',(-0.0121,0.0133626933041054,0.0032));
#1441=CARTESIAN_POINT('',(-0.0120603629710818,0.0134313466520527,0.0032));
#1442=CARTESIAN_POINT('',(-0.0120207259421637,0.0135,0.0032));
#1443=CARTESIAN_POINT('',(-0.01,0.0135,0.0032));
#1444=CARTESIAN_POINT('',(-0.00797927405783631,0.0135,0.0032));
#1445=CARTESIAN_POINT('',(-0.00793963702891816,0.0134313466520527,0.0032));
#1446=CARTESIAN_POINT('',(-0.01,0.,0.0032));
#1447=CARTESIAN_POINT('',(-0.0121,0.01,0.0032));
#1448=CARTESIAN_POINT('',(-0.0121,0.0079,0.0032));
#1449=CARTESIAN_POINT('',(-0.0121,0.00663730669589465,0.0032));
#1450=CARTESIAN_POINT('',(-0.01,0.0079,0.0032));
#1451=CARTESIAN_POINT('',(-0.0079,0.0079,0.0032));
#1452=CARTESIAN_POINT('',(-0.0079,0.01,0.0032));
#1453=CARTESIAN_POINT('',(-0.0079,0.00663730669589465,0.0032));
#1454=CARTESIAN_POINT('',(-0.00793963702891816,0.00656865334794732,0.0032));
#1455=CARTESIAN_POINT('',(-0.00797927405783631,0.0065,0.0032));
#1456=CARTESIAN_POINT('',(-0.01,0.0065,0.0032));
#1457=CARTESIAN_POINT('',(-0.0120207259421637,0.0065,0.0032));
#1458=CARTESIAN_POINT('',(-0.0120603629710818,0.00656865334794732,0.0032));
#1459=CARTESIAN_POINT('',(-0.01,-0.01,0.005825));
#1460=CARTESIAN_POINT('',(-0.01,-0.01,0.005825));
#1461=CARTESIAN_POINT('',(-0.0121,-0.01,0.005825));
#1462=CARTESIAN_POINT('',(-0.01,-0.01,0.0034));
#1463=CARTESIAN_POINT('',(-0.01,-0.0121,0.0034));
#1464=CARTESIAN_POINT('',(-0.0121,-0.01,0.0034));
#1465=CARTESIAN_POINT('',(-0.01,-0.01,0.0034));
#1466=CARTESIAN_POINT('',(-0.01,-0.0079,0.0034));
#1467=CARTESIAN_POINT('',(-0.01,-0.01,0.0034));
#1468=CARTESIAN_POINT('',(-0.0079,-0.01,0.0034));
#1469=CARTESIAN_POINT('',(-0.01,-0.01,0.0034));
#1470=CARTESIAN_POINT('',(-0.01,0.01,0.005825));
#1471=CARTESIAN_POINT('',(-0.01,0.01,0.005825));
#1472=CARTESIAN_POINT('',(-0.0121,0.01,0.005825));
#1473=CARTESIAN_POINT('',(-0.01,0.01,0.0034));
#1474=CARTESIAN_POINT('',(-0.01,0.0079,0.0034));
#1475=CARTESIAN_POINT('',(-0.0121,0.01,0.0034));
#1476=CARTESIAN_POINT('',(-0.01,0.01,0.0034));
#1477=CARTESIAN_POINT('',(-0.01,0.0121,0.0034));
#1478=CARTESIAN_POINT('',(-0.01,0.01,0.0034));
#1479=CARTESIAN_POINT('',(-0.0079,0.01,0.0034));
#1480=CARTESIAN_POINT('',(-0.01,0.01,0.0034));
#1481=CARTESIAN_POINT('',(-0.00225,0.,0.003));
#1482=CARTESIAN_POINT('',(-0.00696891108675447,0.00825,0.003));
#1483=CARTESIAN_POINT('',(-0.0079,0.00663730669589465,0.003));
#1484=CARTESIAN_POINT('',(-0.00595854811567263,0.01,0.003));
#1485=CARTESIAN_POINT('',(-0.0079,0.01,0.003));
#1486=CARTESIAN_POINT('',(-0.0079,0.0133626933041053,0.003));
#1487=CARTESIAN_POINT('',(-0.00696891108675446,0.01175,0.003));
#1488=CARTESIAN_POINT('',(-0.00225,0.,0.003));
#1489=CARTESIAN_POINT('',(-0.0130310889132455,0.01175,0.003));
#1490=CARTESIAN_POINT('',(-0.0121,0.0133626933041054,0.003));
#1491=CARTESIAN_POINT('',(-0.0140414518843274,0.01,0.003));
#1492=CARTESIAN_POINT('',(-0.0121,0.01,0.003));
#1493=CARTESIAN_POINT('',(-0.0121,0.00663730669589465,0.003));
#1494=CARTESIAN_POINT('',(-0.0130310889132455,0.00825,0.003));
#1495=CARTESIAN_POINT('',(-0.00225,0.,0.003));
#1496=CARTESIAN_POINT('',(-0.0121,-0.01,0.003));
#1497=CARTESIAN_POINT('',(-0.0121,-0.0133626933041054,0.003));
#1498=CARTESIAN_POINT('',(-0.0121,-0.00663730669589465,0.003));
#1499=CARTESIAN_POINT('',(-0.0130310889132455,-0.01175,0.003));
#1500=CARTESIAN_POINT('',(-0.0140414518843274,-0.01,0.003));
#1501=CARTESIAN_POINT('',(-0.0130310889132455,-0.00825,0.003));
#1502=CARTESIAN_POINT('',(-3.46944695195361E-18,0.,0.));
#1503=CARTESIAN_POINT('',(-0.01,-0.0065,0.));
#1504=CARTESIAN_POINT('',(-0.0120207259421637,-0.0065,0.));
#1505=CARTESIAN_POINT('',(-0.00797927405783631,-0.0065,0.));
#1506=CARTESIAN_POINT('',(-0.0130310889132455,-0.00825,0.));
#1507=CARTESIAN_POINT('',(-0.0140414518843274,-0.01,0.));
#1508=CARTESIAN_POINT('',(-0.0130310889132455,-0.01175,0.));
#1509=CARTESIAN_POINT('',(-0.0120207259421637,-0.0135,0.));
#1510=CARTESIAN_POINT('',(-0.01,-0.0135,0.));
#1511=CARTESIAN_POINT('',(-0.00797927405783631,-0.0135,0.));
#1512=CARTESIAN_POINT('',(-0.00696891108675447,-0.01175,0.));
#1513=CARTESIAN_POINT('',(-0.00595854811567262,-0.01,0.));
#1514=CARTESIAN_POINT('',(-0.00696891108675447,-0.00825,0.));
#1515=CARTESIAN_POINT('',(-0.015,0.,0.));
#1516=CARTESIAN_POINT('',(-0.015,0.0145,0.));
#1517=CARTESIAN_POINT('',(-0.015,-0.0145,0.));
#1518=CARTESIAN_POINT('',(-0.013,0.0145,0.));
#1519=CARTESIAN_POINT('',(-0.013,0.0165,0.));
#1520=CARTESIAN_POINT('',(0.,0.0165,0.));
#1521=CARTESIAN_POINT('',(0.0106745743121888,0.0165,0.));
#1522=CARTESIAN_POINT('',(0.0106745743121888,0.,0.));
#1523=CARTESIAN_POINT('',(0.0106745743121888,-0.0165,0.));
#1524=CARTESIAN_POINT('',(-1.7347234759768E-18,-0.0165,0.));
#1525=CARTESIAN_POINT('',(-0.013,-0.0165,0.));
#1526=CARTESIAN_POINT('',(-0.013,-0.0145,0.));
#1527=CARTESIAN_POINT('',(-0.00696891108675446,0.01175,0.));
#1528=CARTESIAN_POINT('',(-0.00595854811567263,0.01,0.));
#1529=CARTESIAN_POINT('',(-0.00797927405783632,0.0135,0.));
#1530=CARTESIAN_POINT('',(-0.01,0.0135,0.));
#1531=CARTESIAN_POINT('',(-0.0120207259421637,0.0135,0.));
#1532=CARTESIAN_POINT('',(-0.0130310889132455,0.01175,0.));
#1533=CARTESIAN_POINT('',(-0.0140414518843274,0.01,0.));
#1534=CARTESIAN_POINT('',(-0.0130310889132455,0.00825,0.));
#1535=CARTESIAN_POINT('',(-0.0120207259421637,0.0065,0.));
#1536=CARTESIAN_POINT('',(-0.01,0.0065,0.));
#1537=CARTESIAN_POINT('',(-0.00797927405783631,0.0065,0.));
#1538=CARTESIAN_POINT('',(-0.00696891108675447,0.00825,0.));
#1539=CARTESIAN_POINT('',(-3.46944695195361E-18,0.,0.0082));
#1540=CARTESIAN_POINT('',(0.,0.0165,0.0082));
#1541=CARTESIAN_POINT('',(0.0105,0.0165,0.0082));
#1542=CARTESIAN_POINT('',(0.00945,0.0165,0.0082));
#1543=CARTESIAN_POINT('',(0.00945,0.016502,0.0082));
#1544=CARTESIAN_POINT('',(0.00945,-0.0165,0.0082));
#1545=CARTESIAN_POINT('',(-1.7347234759768E-18,-0.0165,0.0082));
#1546=CARTESIAN_POINT('',(0.0105,-0.0165,0.0082));
#1547=CARTESIAN_POINT('',(0.0105,0.,0.0082));
#1548=CARTESIAN_POINT('',(0.,0.0165,0.009));
#1549=CARTESIAN_POINT('',(0.0105,0.0165,0.0045));
#1550=CARTESIAN_POINT('',(0.0105,0.0165,0.0034));
#1551=CARTESIAN_POINT('',(-0.013,0.0165,0.009));
#1552=CARTESIAN_POINT('',(-0.013,0.0165,0.005825));
#1553=CARTESIAN_POINT('',(0.,0.0165,0.005825));
#1554=CARTESIAN_POINT('',(-5.20417042793042E-18,0.0165,0.005825));
#1555=CARTESIAN_POINT('',(-5.20417042793042E-18,0.0165,0.005825));
#1556=CARTESIAN_POINT('',(-5.20417042793042E-18,0.0165,0.009));
#1557=CARTESIAN_POINT('',(0.,0.0165,0.009));
#1558=CARTESIAN_POINT('',(0.00505,0.0165,0.009));
#1559=CARTESIAN_POINT('',(0.00555,0.0165,0.0085));
#1560=CARTESIAN_POINT('',(0.00605,0.0165,0.008));
#1561=CARTESIAN_POINT('',(0.00765,0.0165,0.008));
#1562=CARTESIAN_POINT('',(0.00925,0.0165,0.008));
#1563=CARTESIAN_POINT('',(0.00975,0.0165,0.0085));
#1564=CARTESIAN_POINT('',(0.0105,0.0165,0.0045));
#1565=CARTESIAN_POINT('',(0.0114908271772877,0.0165,0.000935135135135135));
#1566=CARTESIAN_POINT('',(0.0105172644749831,0.0165,-0.000180221059139063));
#1567=CARTESIAN_POINT('',(-0.015,0.,0.009));
#1568=CARTESIAN_POINT('',(-0.015,0.,0.005825));
#1569=CARTESIAN_POINT('',(-0.015,0.0145,0.005825));
#1570=CARTESIAN_POINT('',(-0.015,-0.0145,0.005825));
#1571=CARTESIAN_POINT('',(-0.015,0.0145,0.009));
#1572=CARTESIAN_POINT('',(-0.015,-0.0145,0.005825));
#1573=CARTESIAN_POINT('',(-1.7347234759768E-18,-0.0165,0.009));
#1574=CARTESIAN_POINT('',(-1.7347234759768E-18,-0.0165,0.005825));
#1575=CARTESIAN_POINT('',(-2.31614147134889E-18,-0.0165,0.005825));
#1576=CARTESIAN_POINT('',(-0.013,-0.0165,0.005825));
#1577=CARTESIAN_POINT('',(-0.013,-0.0165,0.));
#1578=CARTESIAN_POINT('',(0.0105,-0.0165,-0.0002));
#1579=CARTESIAN_POINT('',(0.0114908271772877,-0.0165,0.000935135135135135));
#1580=CARTESIAN_POINT('',(0.0105,-0.0165,0.0045));
#1581=CARTESIAN_POINT('',(0.00975,-0.0165,0.0085));
#1582=CARTESIAN_POINT('',(0.00925,-0.0165,0.008));
#1583=CARTESIAN_POINT('',(0.00765,-0.0165,0.008));
#1584=CARTESIAN_POINT('',(0.00605,-0.0165,0.008));
#1585=CARTESIAN_POINT('',(0.00555,-0.0165,0.0085));
#1586=CARTESIAN_POINT('',(0.00505,-0.0165,0.009));
#1587=CARTESIAN_POINT('',(-1.7347234759768E-18,-0.0165,0.009));
#1588=CARTESIAN_POINT('',(-3.76015594963966E-18,-0.0165,0.009));
#1589=CARTESIAN_POINT('',(-2.31614147134889E-18,-0.0165,0.005825));
#1590=CARTESIAN_POINT('',(0.0105,-0.0165,0.0045));
#1591=CARTESIAN_POINT('',(0.0105,-0.0165,0.0034));
#1592=CARTESIAN_POINT('',(0.0105,-0.0165,0.0045));
#1593=CARTESIAN_POINT('',(0.0114908271772877,-0.0165,0.000935135135135136));
#1594=CARTESIAN_POINT('',(-3.46944695195361E-18,0.,0.009));
#1595=CARTESIAN_POINT('',(0.00505,0.016502,0.009));
#1596=CARTESIAN_POINT('',(-3.46944695195361E-18,0.,0.009));
#1597=CARTESIAN_POINT('',(0.0105,-0.0015,0.0045));
#1598=CARTESIAN_POINT('',(0.0105,-0.0015,0.0045));
#1599=CARTESIAN_POINT('',(0.0105,-0.0015,0.0034));
#1600=CARTESIAN_POINT('',(0.,-0.0015,0.0045));
#1601=CARTESIAN_POINT('',(0.0105,0.0015,0.0045));
#1602=CARTESIAN_POINT('',(0.0105,0.0015,0.0045));
#1603=CARTESIAN_POINT('',(0.0105,0.0015,0.0034));
#1604=CARTESIAN_POINT('',(0.,0.0015,0.0045));
#1605=CARTESIAN_POINT('',(-3.46944695195361E-18,0.,0.005825));
#1606=CARTESIAN_POINT('',(-3.46944695195361E-18,0.,0.005825));
#1607=CARTESIAN_POINT('',(-0.00225,0.,0.005825));
#1608=CARTESIAN_POINT('',(-0.013,0.0145,0.005825));
#1609=CARTESIAN_POINT('',(-0.013,-0.0145,0.005825));
#1610=CARTESIAN_POINT('',(0.00555,0.016502,0.0085));
#1611=CARTESIAN_POINT('',(0.00605,0.016502,0.008));
#1612=CARTESIAN_POINT('',(0.00765,0.016502,0.008));
#1613=CARTESIAN_POINT('',(0.00925,0.016502,0.008));
#1614=CARTESIAN_POINT('',(0.00975,0.016502,0.0085));
#1615=CARTESIAN_POINT('',(-0.00696891108675446,0.01175,0.003));
#1616=CARTESIAN_POINT('',(-0.00595854811567263,0.01,0.003));
#1617=CARTESIAN_POINT('',(-0.0079,0.0133626933041053,0.0032));
#1618=CARTESIAN_POINT('',(-0.00797927405783632,0.0135,0.003));
#1619=CARTESIAN_POINT('',(-0.00696891108675447,0.00825,0.003));
#1620=CARTESIAN_POINT('',(-0.00797927405783631,0.0065,0.003));
#1621=CARTESIAN_POINT('',(-0.0079,0.00663730669589465,0.0032));
#1622=CARTESIAN_POINT('',(-0.01,0.0065,0.003));
#1623=CARTESIAN_POINT('',(-0.0120207259421637,0.0065,0.003));
#1624=CARTESIAN_POINT('',(-0.0130310889132455,0.00825,0.003));
#1625=CARTESIAN_POINT('',(-0.0140414518843274,0.01,0.003));
#1626=CARTESIAN_POINT('',(-0.0121,0.00663730669589465,0.0032));
#1627=CARTESIAN_POINT('',(-0.0130310889132455,0.01175,0.003));
#1628=CARTESIAN_POINT('',(-0.0120207259421637,0.0135,0.003));
#1629=CARTESIAN_POINT('',(-0.0121,0.0133626933041054,0.0032));
#1630=CARTESIAN_POINT('',(-0.01,0.0135,0.003));
#1631=CARTESIAN_POINT('',(-0.0130310889132455,-0.00825,0.003));
#1632=CARTESIAN_POINT('',(-0.0120207259421637,-0.0065,0.003));
#1633=CARTESIAN_POINT('',(-0.0120207259421637,-0.0065,0.0032));
#1634=CARTESIAN_POINT('',(-0.0130310889132455,-0.00825,0.0032));
#1635=CARTESIAN_POINT('',(-0.0121,-0.00663730669589465,0.0032));
#1636=CARTESIAN_POINT('',(-0.0121,-0.00663730669589465,0.0032));
#1637=CARTESIAN_POINT('',(-0.0140414518843274,-0.01,0.003));
#1638=CARTESIAN_POINT('',(-0.01,-0.0065,0.003));
#1639=CARTESIAN_POINT('',(-0.00797927405783631,-0.0065,0.003));
#1640=CARTESIAN_POINT('',(-0.00797927405783631,-0.0065,0.0032));
#1641=CARTESIAN_POINT('',(-0.01,-0.0065,0.0032));
#1642=CARTESIAN_POINT('',(-0.00696891108675447,-0.00825,0.003));
#1643=CARTESIAN_POINT('',(-0.00595854811567262,-0.01,0.003));
#1644=CARTESIAN_POINT('',(-0.00595854811567262,-0.01,0.003));
#1645=CARTESIAN_POINT('',(-0.00696891108675447,-0.00825,0.003));
#1646=CARTESIAN_POINT('',(-0.0079,-0.00663730669589465,0.003));
#1647=CARTESIAN_POINT('',(-0.0079,-0.00663730669589465,0.0032));
#1648=CARTESIAN_POINT('',(-0.0079,-0.00663730669589465,0.0032));
#1649=CARTESIAN_POINT('',(-0.00696891108675447,-0.00825,0.0032));
#1650=CARTESIAN_POINT('',(-0.00696891108675447,-0.01175,0.003));
#1651=CARTESIAN_POINT('',(-0.00797927405783631,-0.0135,0.003));
#1652=CARTESIAN_POINT('',(-0.00797927405783631,-0.0135,0.0032));
#1653=CARTESIAN_POINT('',(-0.00696891108675447,-0.01175,0.0032));
#1654=CARTESIAN_POINT('',(-0.0079,-0.0133626933041053,0.0032));
#1655=CARTESIAN_POINT('',(-0.0079,-0.0133626933041053,0.0032));
#1656=CARTESIAN_POINT('',(-0.0079,-0.0133626933041053,0.003));
#1657=CARTESIAN_POINT('',(-0.00696891108675447,-0.01175,0.003));
#1658=CARTESIAN_POINT('',(-0.01,-0.0135,0.003));
#1659=CARTESIAN_POINT('',(-0.0120207259421637,-0.0135,0.003));
#1660=CARTESIAN_POINT('',(-0.0120207259421637,-0.0135,0.0032));
#1661=CARTESIAN_POINT('',(-0.01,-0.0135,0.0032));
#1662=CARTESIAN_POINT('',(-0.0130310889132455,-0.01175,0.003));
#1663=CARTESIAN_POINT('',(-0.0121,-0.0133626933041054,0.0032));
#1664=CARTESIAN_POINT('',(-0.0121,-0.0133626933041054,0.0032));
#1665=CARTESIAN_POINT('',(-0.0130310889132455,-0.01175,0.0032));
#1666=CARTESIAN_POINT('',(-0.00225,0.,0.003));
#1667=CARTESIAN_POINT('',(-0.0079,-0.01,0.003));
#1668=CARTESIAN_POINT('',(-0.0079,0.01,0.0032));
#1669=CARTESIAN_POINT('',(-0.0079,0.0079,0.0034));
#1670=CARTESIAN_POINT('',(-0.0079,0.0079,0.0034));
#1671=CARTESIAN_POINT('',(-0.0079,0.01,0.0034));
#1672=CARTESIAN_POINT('',(-0.0079,0.01,0.0034));
#1673=CARTESIAN_POINT('',(-0.0079,0.0121,0.0034));
#1674=CARTESIAN_POINT('',(-0.0079,0.0121,0.0034));
#1675=CARTESIAN_POINT('',(-0.0121,0.01,0.0032));
#1676=CARTESIAN_POINT('',(-0.0121,0.0121,0.0034));
#1677=CARTESIAN_POINT('',(-0.0121,0.0121,0.0034));
#1678=CARTESIAN_POINT('',(-0.0121,0.01,0.0034));
#1679=CARTESIAN_POINT('',(-0.0121,0.01,0.0034));
#1680=CARTESIAN_POINT('',(-0.0121,0.0079,0.0034));
#1681=CARTESIAN_POINT('',(-0.0121,0.0079,0.0034));
#1682=CARTESIAN_POINT('',(-0.0121,-0.01,0.0032));
#1683=CARTESIAN_POINT('',(-0.0121,-0.01,0.0032));
#1684=CARTESIAN_POINT('',(-0.0121,-0.0121,0.0032));
#1685=CARTESIAN_POINT('',(-0.0121,-0.01,0.0032));
#1686=CARTESIAN_POINT('',(-0.0121,-0.0079,0.0032));
#1687=CARTESIAN_POINT('',(-0.0121,-0.0079,0.0034));
#1688=CARTESIAN_POINT('',(-0.0121,-0.0079,0.0034));
#1689=CARTESIAN_POINT('',(-0.0121,-0.01,0.0034));
#1690=CARTESIAN_POINT('',(-0.0121,-0.01,0.0034));
#1691=CARTESIAN_POINT('',(-0.0121,-0.0121,0.0034));
#1692=CARTESIAN_POINT('',(-0.0121,-0.0121,0.0034));
#1693=CARTESIAN_POINT('',(-0.0079,-0.01,0.0032));
#1694=CARTESIAN_POINT('',(-0.0079,-0.01,0.0032));
#1695=CARTESIAN_POINT('',(-0.0079,-0.0079,0.0032));
#1696=CARTESIAN_POINT('',(-0.0079,-0.01,0.0032));
#1697=CARTESIAN_POINT('',(-0.0079,-0.0121,0.0032));
#1698=CARTESIAN_POINT('',(-0.0079,-0.0121,0.0034));
#1699=CARTESIAN_POINT('',(-0.0079,-0.0121,0.0034));
#1700=CARTESIAN_POINT('',(-0.0079,-0.01,0.0034));
#1701=CARTESIAN_POINT('',(-0.0079,-0.01,0.0034));
#1702=CARTESIAN_POINT('',(-0.0079,-0.0079,0.0034));
#1703=CARTESIAN_POINT('',(-0.0079,-0.0079,0.0034));
#1704=CARTESIAN_POINT('',(-0.01,0.,0.0032));
#1705=CARTESIAN_POINT('',(-0.01,-0.0079,0.0032));
#1706=CARTESIAN_POINT('',(-0.01,0.,0.0032));
#1707=CARTESIAN_POINT('',(-0.01,-0.0121,0.0032));
#1708=CARTESIAN_POINT('',(-0.01,0.0121,0.0034));
#1709=CARTESIAN_POINT('',(-0.01,0.0121,0.0034));
#1710=CARTESIAN_POINT('',(-0.01,0.0121,0.0034));
#1711=CARTESIAN_POINT('',(-0.01,0.0079,0.0034));
#1712=CARTESIAN_POINT('',(-0.01,0.0079,0.0034));
#1713=CARTESIAN_POINT('',(-0.01,0.0079,0.0034));
#1714=CARTESIAN_POINT('',(-0.01,0.,0.0034));
#1715=CARTESIAN_POINT('',(-0.01,0.,0.0034));
#1716=CARTESIAN_POINT('',(-0.01,0.,0.0034));
#1717=CARTESIAN_POINT('',(-0.01,0.,0.0034));
#1718=CARTESIAN_POINT('',(-0.01,-0.0079,0.0034));
#1719=CARTESIAN_POINT('',(-0.01,-0.0079,0.0034));
#1720=CARTESIAN_POINT('',(-0.01,-0.0079,0.0034));
#1721=CARTESIAN_POINT('',(-0.01,-0.0121,0.0034));
#1722=CARTESIAN_POINT('',(-0.01,-0.0121,0.0034));
#1723=CARTESIAN_POINT('',(-0.01,-0.0121,0.0034));
#1724=CARTESIAN_POINT('',(-0.01,0.,0.0034));
#1725=CARTESIAN_POINT('',(-0.01,0.,0.0034));
#1726=CARTESIAN_POINT('',(-0.01,0.,0.0034));
#1727=CARTESIAN_POINT('',(-0.01,0.,0.0034));
#1728=CARTESIAN_POINT('',(-0.013,0.0145,0.009));
#1729=CARTESIAN_POINT('',(-0.013,-0.0145,0.009));
#1730=CARTESIAN_POINT('',(0.0105,-0.0165,-0.0002));
#1731=MECHANICAL_DESIGN_GEOMETRIC_PRESENTATION_REPRESENTATION('',(#1062),
#1732);
#1732=(
GEOMETRIC_REPRESENTATION_CONTEXT(3)
GLOBAL_UNCERTAINTY_ASSIGNED_CONTEXT((#1733))
GLOBAL_UNIT_ASSIGNED_CONTEXT((#1736,#1735,#1734))
REPRESENTATION_CONTEXT('Hinge','TOP_LEVEL_ASSEMBLY_PART')
);
#1733=UNCERTAINTY_MEASURE_WITH_UNIT(LENGTH_MEASURE(1.E-8),#1736,
'DISTANCE_ACCURACY_VALUE','Maximum Tolerance applied to model');
#1734=(
NAMED_UNIT(*)
SI_UNIT($,.STERADIAN.)
SOLID_ANGLE_UNIT()
);
#1735=(
NAMED_UNIT(*)
PLANE_ANGLE_UNIT()
SI_UNIT($,.RADIAN.)
);
#1736=(
LENGTH_UNIT()
NAMED_UNIT(*)
SI_UNIT($,.METRE.)
);
#1737=PRODUCT_DEFINITION_SHAPE('','',#1738);
#1738=PRODUCT_DEFINITION('','',#1740,#1739);
#1739=PRODUCT_DEFINITION_CONTEXT('',#1746,'design');
#1740=PRODUCT_DEFINITION_FORMATION_WITH_SPECIFIED_SOURCE('','',#1742,
 .NOT_KNOWN.);
#1741=PRODUCT_RELATED_PRODUCT_CATEGORY('','',(#1742));
#1742=PRODUCT('Hinge','Hinge','Hinge',(#1744));
#1743=PRODUCT_CATEGORY('','');
#1744=PRODUCT_CONTEXT('',#1746,'mechanical');
#1745=APPLICATION_PROTOCOL_DEFINITION('international standard',
'ap242_managed_model_based_3d_engineering',2020,#1746);
#1746=APPLICATION_CONTEXT('managed model based 3d engineering');
ENDSEC;
END-ISO-10303-21;
