ISO-10303-21;
HEADER;
/* Generated by software containing ST-Developer
 * from STEP Tools, Inc. (www.steptools.com) 
 */
/* OPTION: using custom renumber hook */

FILE_DESCRIPTION(
/* description */ ('STEP AP242 Edition 2',
'CAx-IF Rec.Pracs.---Representation and Presentation of Product Manufa
cturing Information (PMI)---4.0---2014-10-13',
'CAx-IF Rec.Pracs.---3D Tessellated Geometry---0.4---2014-09-14','2;1',
'CAx-IF Rec.Pracs.---User Defined Attributes---1.5---2016-08-15'),
/* implementation_level */ '2;1');

FILE_NAME(
/* name */ 'N-Metheus - Part 1 (4)',
/* time_stamp */ '2026-01-30T20:52:40Z',
/* author */ (''),
/* organization */ (''),
/* preprocessor_version */ 'ST-DEVELOPER v20',
/* originating_system */ 'ONSHAPE BY PTC INC, 1.210',
/* authorisation */ '  ');

FILE_SCHEMA (('AP242_MANAGED_MODEL_BASED_3D_ENGINEERING_MIM_LF { 1 0 10303 442 3 1 4 }'));
ENDSEC;

DATA;
#10=SHAPE_REPRESENTATION_RELATIONSHIP('','',#853,#11);
#11=ADVANCED_BREP_SHAPE_REPRESENTATION('',(#851),#1458);
#12=CYLINDRICAL_SURFACE('',#873,0.0145);
#13=CYLINDRICAL_SURFACE('',#876,0.0058);
#14=CYLINDRICAL_SURFACE('',#879,0.0068);
#15=CYLINDRICAL_SURFACE('',#890,0.002);
#16=CYLINDRICAL_SURFACE('',#893,0.002);
#17=CYLINDRICAL_SURFACE('',#896,0.002);
#18=CYLINDRICAL_SURFACE('',#899,0.000400000000000011);
#19=CYLINDRICAL_SURFACE('',#903,0.0004);
#20=CYLINDRICAL_SURFACE('',#907,0.000399999999999992);
#21=CYLINDRICAL_SURFACE('',#911,0.0004);
#22=CYLINDRICAL_SURFACE('',#915,0.0004);
#23=CYLINDRICAL_SURFACE('',#919,0.0004);
#24=CYLINDRICAL_SURFACE('',#923,0.0004);
#25=CYLINDRICAL_SURFACE('',#927,0.0004);
#26=CYLINDRICAL_SURFACE('',#931,0.002);
#27=CYLINDRICAL_SURFACE('',#935,0.0005);
#28=CYLINDRICAL_SURFACE('',#938,0.0005);
#29=CYLINDRICAL_SURFACE('',#941,0.0005);
#30=CYLINDRICAL_SURFACE('',#944,0.0005);
#31=CYLINDRICAL_SURFACE('',#947,0.0005);
#32=CYLINDRICAL_SURFACE('',#950,0.0005);
#33=LINE('',#1221,#98);
#34=LINE('',#1223,#99);
#35=LINE('',#1227,#100);
#36=LINE('',#1229,#101);
#37=LINE('',#1233,#102);
#38=LINE('',#1235,#103);
#39=LINE('',#1237,#104);
#40=LINE('',#1239,#105);
#41=LINE('',#1241,#106);
#42=LINE('',#1243,#107);
#43=LINE('',#1248,#108);
#44=LINE('',#1252,#109);
#45=LINE('',#1256,#110);
#46=LINE('',#1259,#111);
#47=LINE('',#1263,#112);
#48=LINE('',#1264,#113);
#49=LINE('',#1266,#114);
#50=LINE('',#1268,#115);
#51=LINE('',#1270,#116);
#52=LINE('',#1271,#117);
#53=LINE('',#1274,#118);
#54=LINE('',#1304,#119);
#55=LINE('',#1306,#120);
#56=LINE('',#1308,#121);
#57=LINE('',#1310,#122);
#58=LINE('',#1314,#123);
#59=LINE('',#1316,#124);
#60=LINE('',#1318,#125);
#61=LINE('',#1322,#126);
#62=LINE('',#1324,#127);
#63=LINE('',#1326,#128);
#64=LINE('',#1330,#129);
#65=LINE('',#1332,#130);
#66=LINE('',#1337,#131);
#67=LINE('',#1341,#132);
#68=LINE('',#1343,#133);
#69=LINE('',#1345,#134);
#70=LINE('',#1347,#135);
#71=LINE('',#1351,#136);
#72=LINE('',#1355,#137);
#73=LINE('',#1357,#138);
#74=LINE('',#1359,#139);
#75=LINE('',#1363,#140);
#76=LINE('',#1367,#141);
#77=LINE('',#1369,#142);
#78=LINE('',#1371,#143);
#79=LINE('',#1375,#144);
#80=LINE('',#1379,#145);
#81=LINE('',#1381,#146);
#82=LINE('',#1383,#147);
#83=LINE('',#1387,#148);
#84=LINE('',#1391,#149);
#85=LINE('',#1393,#150);
#86=LINE('',#1395,#151);
#87=LINE('',#1399,#152);
#88=LINE('',#1403,#153);
#89=LINE('',#1405,#154);
#90=LINE('',#1407,#155);
#91=LINE('',#1411,#156);
#92=LINE('',#1415,#157);
#93=LINE('',#1417,#158);
#94=LINE('',#1419,#159);
#95=LINE('',#1423,#160);
#96=LINE('',#1427,#161);
#97=LINE('',#1428,#162);
#98=VECTOR('',#959,1.);
#99=VECTOR('',#960,1.);
#100=VECTOR('',#965,1.);
#101=VECTOR('',#966,1.);
#102=VECTOR('',#971,1.);
#103=VECTOR('',#972,1.);
#104=VECTOR('',#975,1.);
#105=VECTOR('',#976,1.);
#106=VECTOR('',#977,1.);
#107=VECTOR('',#980,1.);
#108=VECTOR('',#983,1.);
#109=VECTOR('',#986,1.);
#110=VECTOR('',#989,1.);
#111=VECTOR('',#992,1.);
#112=VECTOR('',#995,1.);
#113=VECTOR('',#996,1.);
#114=VECTOR('',#997,1.);
#115=VECTOR('',#1000,1.);
#116=VECTOR('',#1001,1.);
#117=VECTOR('',#1002,1.);
#118=VECTOR('',#1007,1.);
#119=VECTOR('',#1046,1.);
#120=VECTOR('',#1047,1.);
#121=VECTOR('',#1048,1.);
#122=VECTOR('',#1051,1.);
#123=VECTOR('',#1056,1.);
#124=VECTOR('',#1057,1.);
#125=VECTOR('',#1060,1.);
#126=VECTOR('',#1065,1.);
#127=VECTOR('',#1066,1.);
#128=VECTOR('',#1069,1.);
#129=VECTOR('',#1074,1.);
#130=VECTOR('',#1075,1.);
#131=VECTOR('',#1080,1.);
#132=VECTOR('',#1083,1.);
#133=VECTOR('',#1086,1.);
#134=VECTOR('',#1087,1.);
#135=VECTOR('',#1088,1.);
#136=VECTOR('',#1093,1.);
#137=VECTOR('',#1098,1.);
#138=VECTOR('',#1099,1.);
#139=VECTOR('',#1100,1.);
#140=VECTOR('',#1105,1.);
#141=VECTOR('',#1110,1.);
#142=VECTOR('',#1111,1.);
#143=VECTOR('',#1112,1.);
#144=VECTOR('',#1117,1.);
#145=VECTOR('',#1122,1.);
#146=VECTOR('',#1123,1.);
#147=VECTOR('',#1124,1.);
#148=VECTOR('',#1129,1.);
#149=VECTOR('',#1134,1.);
#150=VECTOR('',#1135,1.);
#151=VECTOR('',#1136,1.);
#152=VECTOR('',#1141,1.);
#153=VECTOR('',#1146,1.);
#154=VECTOR('',#1147,1.);
#155=VECTOR('',#1148,1.);
#156=VECTOR('',#1153,1.);
#157=VECTOR('',#1158,1.);
#158=VECTOR('',#1159,1.);
#159=VECTOR('',#1160,1.);
#160=VECTOR('',#1165,1.);
#161=VECTOR('',#1170,1.);
#162=VECTOR('',#1171,1.);
#163=ORIENTED_EDGE('',*,*,#383,.F.);
#164=ORIENTED_EDGE('',*,*,#384,.F.);
#165=ORIENTED_EDGE('',*,*,#385,.F.);
#166=ORIENTED_EDGE('',*,*,#386,.F.);
#167=ORIENTED_EDGE('',*,*,#387,.F.);
#168=ORIENTED_EDGE('',*,*,#388,.T.);
#169=ORIENTED_EDGE('',*,*,#389,.F.);
#170=ORIENTED_EDGE('',*,*,#390,.T.);
#171=ORIENTED_EDGE('',*,*,#391,.T.);
#172=ORIENTED_EDGE('',*,*,#392,.F.);
#173=ORIENTED_EDGE('',*,*,#393,.F.);
#174=ORIENTED_EDGE('',*,*,#394,.T.);
#175=ORIENTED_EDGE('',*,*,#387,.T.);
#176=ORIENTED_EDGE('',*,*,#385,.T.);
#177=ORIENTED_EDGE('',*,*,#395,.F.);
#178=ORIENTED_EDGE('',*,*,#396,.F.);
#179=ORIENTED_EDGE('',*,*,#397,.T.);
#180=ORIENTED_EDGE('',*,*,#398,.F.);
#181=ORIENTED_EDGE('',*,*,#399,.T.);
#182=ORIENTED_EDGE('',*,*,#400,.F.);
#183=ORIENTED_EDGE('',*,*,#401,.F.);
#184=ORIENTED_EDGE('',*,*,#402,.F.);
#185=ORIENTED_EDGE('',*,*,#403,.F.);
#186=ORIENTED_EDGE('',*,*,#404,.F.);
#187=ORIENTED_EDGE('',*,*,#405,.F.);
#188=ORIENTED_EDGE('',*,*,#393,.T.);
#189=ORIENTED_EDGE('',*,*,#406,.T.);
#190=ORIENTED_EDGE('',*,*,#407,.F.);
#191=ORIENTED_EDGE('',*,*,#408,.T.);
#192=ORIENTED_EDGE('',*,*,#409,.F.);
#193=ORIENTED_EDGE('',*,*,#391,.F.);
#194=ORIENTED_EDGE('',*,*,#410,.F.);
#195=ORIENTED_EDGE('',*,*,#407,.T.);
#196=ORIENTED_EDGE('',*,*,#411,.F.);
#197=ORIENTED_EDGE('',*,*,#409,.T.);
#198=ORIENTED_EDGE('',*,*,#412,.F.);
#199=ORIENTED_EDGE('',*,*,#394,.F.);
#200=ORIENTED_EDGE('',*,*,#405,.T.);
#201=ORIENTED_EDGE('',*,*,#403,.T.);
#202=ORIENTED_EDGE('',*,*,#410,.T.);
#203=ORIENTED_EDGE('',*,*,#390,.F.);
#204=ORIENTED_EDGE('',*,*,#388,.F.);
#205=ORIENTED_EDGE('',*,*,#392,.T.);
#206=ORIENTED_EDGE('',*,*,#384,.T.);
#207=ORIENTED_EDGE('',*,*,#412,.T.);
#208=ORIENTED_EDGE('',*,*,#408,.F.);
#209=ORIENTED_EDGE('',*,*,#406,.F.);
#210=ORIENTED_EDGE('',*,*,#413,.F.);
#211=ORIENTED_EDGE('',*,*,#383,.T.);
#212=ORIENTED_EDGE('',*,*,#386,.T.);
#213=ORIENTED_EDGE('',*,*,#389,.T.);
#214=ORIENTED_EDGE('',*,*,#411,.T.);
#215=ORIENTED_EDGE('',*,*,#413,.T.);
#216=ORIENTED_EDGE('',*,*,#414,.T.);
#217=ORIENTED_EDGE('',*,*,#415,.F.);
#218=ORIENTED_EDGE('',*,*,#416,.F.);
#219=ORIENTED_EDGE('',*,*,#404,.T.);
#220=ORIENTED_EDGE('',*,*,#414,.F.);
#221=ORIENTED_EDGE('',*,*,#416,.T.);
#222=ORIENTED_EDGE('',*,*,#417,.F.);
#223=ORIENTED_EDGE('',*,*,#418,.F.);
#224=ORIENTED_EDGE('',*,*,#419,.F.);
#225=ORIENTED_EDGE('',*,*,#420,.F.);
#226=ORIENTED_EDGE('',*,*,#421,.F.);
#227=ORIENTED_EDGE('',*,*,#422,.F.);
#228=ORIENTED_EDGE('',*,*,#415,.T.);
#229=ORIENTED_EDGE('',*,*,#395,.T.);
#230=ORIENTED_EDGE('',*,*,#423,.F.);
#231=ORIENTED_EDGE('',*,*,#424,.F.);
#232=ORIENTED_EDGE('',*,*,#425,.T.);
#233=ORIENTED_EDGE('',*,*,#402,.T.);
#234=ORIENTED_EDGE('',*,*,#426,.F.);
#235=ORIENTED_EDGE('',*,*,#427,.F.);
#236=ORIENTED_EDGE('',*,*,#423,.T.);
#237=ORIENTED_EDGE('',*,*,#401,.T.);
#238=ORIENTED_EDGE('',*,*,#428,.F.);
#239=ORIENTED_EDGE('',*,*,#429,.F.);
#240=ORIENTED_EDGE('',*,*,#426,.T.);
#241=ORIENTED_EDGE('',*,*,#400,.T.);
#242=ORIENTED_EDGE('',*,*,#430,.F.);
#243=ORIENTED_EDGE('',*,*,#431,.F.);
#244=ORIENTED_EDGE('',*,*,#428,.T.);
#245=ORIENTED_EDGE('',*,*,#399,.F.);
#246=ORIENTED_EDGE('',*,*,#432,.F.);
#247=ORIENTED_EDGE('',*,*,#433,.T.);
#248=ORIENTED_EDGE('',*,*,#430,.T.);
#249=ORIENTED_EDGE('',*,*,#398,.T.);
#250=ORIENTED_EDGE('',*,*,#434,.F.);
#251=ORIENTED_EDGE('',*,*,#435,.F.);
#252=ORIENTED_EDGE('',*,*,#432,.T.);
#253=ORIENTED_EDGE('',*,*,#397,.F.);
#254=ORIENTED_EDGE('',*,*,#436,.F.);
#255=ORIENTED_EDGE('',*,*,#437,.T.);
#256=ORIENTED_EDGE('',*,*,#434,.T.);
#257=ORIENTED_EDGE('',*,*,#438,.F.);
#258=ORIENTED_EDGE('',*,*,#439,.F.);
#259=ORIENTED_EDGE('',*,*,#440,.T.);
#260=ORIENTED_EDGE('',*,*,#441,.T.);
#261=ORIENTED_EDGE('',*,*,#442,.T.);
#262=ORIENTED_EDGE('',*,*,#443,.F.);
#263=ORIENTED_EDGE('',*,*,#444,.F.);
#264=ORIENTED_EDGE('',*,*,#439,.T.);
#265=ORIENTED_EDGE('',*,*,#445,.F.);
#266=ORIENTED_EDGE('',*,*,#446,.F.);
#267=ORIENTED_EDGE('',*,*,#447,.T.);
#268=ORIENTED_EDGE('',*,*,#443,.T.);
#269=ORIENTED_EDGE('',*,*,#448,.T.);
#270=ORIENTED_EDGE('',*,*,#449,.F.);
#271=ORIENTED_EDGE('',*,*,#450,.F.);
#272=ORIENTED_EDGE('',*,*,#446,.T.);
#273=ORIENTED_EDGE('',*,*,#451,.F.);
#274=ORIENTED_EDGE('',*,*,#452,.F.);
#275=ORIENTED_EDGE('',*,*,#453,.T.);
#276=ORIENTED_EDGE('',*,*,#449,.T.);
#277=ORIENTED_EDGE('',*,*,#454,.T.);
#278=ORIENTED_EDGE('',*,*,#455,.F.);
#279=ORIENTED_EDGE('',*,*,#456,.F.);
#280=ORIENTED_EDGE('',*,*,#452,.T.);
#281=ORIENTED_EDGE('',*,*,#457,.F.);
#282=ORIENTED_EDGE('',*,*,#458,.F.);
#283=ORIENTED_EDGE('',*,*,#459,.T.);
#284=ORIENTED_EDGE('',*,*,#455,.T.);
#285=ORIENTED_EDGE('',*,*,#460,.T.);
#286=ORIENTED_EDGE('',*,*,#461,.F.);
#287=ORIENTED_EDGE('',*,*,#462,.F.);
#288=ORIENTED_EDGE('',*,*,#458,.T.);
#289=ORIENTED_EDGE('',*,*,#463,.F.);
#290=ORIENTED_EDGE('',*,*,#464,.F.);
#291=ORIENTED_EDGE('',*,*,#465,.T.);
#292=ORIENTED_EDGE('',*,*,#461,.T.);
#293=ORIENTED_EDGE('',*,*,#466,.T.);
#294=ORIENTED_EDGE('',*,*,#467,.F.);
#295=ORIENTED_EDGE('',*,*,#468,.F.);
#296=ORIENTED_EDGE('',*,*,#464,.T.);
#297=ORIENTED_EDGE('',*,*,#469,.F.);
#298=ORIENTED_EDGE('',*,*,#470,.F.);
#299=ORIENTED_EDGE('',*,*,#471,.T.);
#300=ORIENTED_EDGE('',*,*,#467,.T.);
#301=ORIENTED_EDGE('',*,*,#472,.T.);
#302=ORIENTED_EDGE('',*,*,#473,.F.);
#303=ORIENTED_EDGE('',*,*,#474,.F.);
#304=ORIENTED_EDGE('',*,*,#470,.T.);
#305=ORIENTED_EDGE('',*,*,#475,.F.);
#306=ORIENTED_EDGE('',*,*,#476,.F.);
#307=ORIENTED_EDGE('',*,*,#477,.T.);
#308=ORIENTED_EDGE('',*,*,#473,.T.);
#309=ORIENTED_EDGE('',*,*,#478,.T.);
#310=ORIENTED_EDGE('',*,*,#479,.F.);
#311=ORIENTED_EDGE('',*,*,#480,.F.);
#312=ORIENTED_EDGE('',*,*,#476,.T.);
#313=ORIENTED_EDGE('',*,*,#481,.T.);
#314=ORIENTED_EDGE('',*,*,#482,.F.);
#315=ORIENTED_EDGE('',*,*,#483,.F.);
#316=ORIENTED_EDGE('',*,*,#479,.T.);
#317=ORIENTED_EDGE('',*,*,#484,.T.);
#318=ORIENTED_EDGE('',*,*,#441,.F.);
#319=ORIENTED_EDGE('',*,*,#485,.F.);
#320=ORIENTED_EDGE('',*,*,#482,.T.);
#321=ORIENTED_EDGE('',*,*,#396,.T.);
#322=ORIENTED_EDGE('',*,*,#425,.F.);
#323=ORIENTED_EDGE('',*,*,#486,.F.);
#324=ORIENTED_EDGE('',*,*,#436,.T.);
#325=ORIENTED_EDGE('',*,*,#440,.F.);
#326=ORIENTED_EDGE('',*,*,#444,.T.);
#327=ORIENTED_EDGE('',*,*,#447,.F.);
#328=ORIENTED_EDGE('',*,*,#450,.T.);
#329=ORIENTED_EDGE('',*,*,#453,.F.);
#330=ORIENTED_EDGE('',*,*,#456,.T.);
#331=ORIENTED_EDGE('',*,*,#459,.F.);
#332=ORIENTED_EDGE('',*,*,#462,.T.);
#333=ORIENTED_EDGE('',*,*,#465,.F.);
#334=ORIENTED_EDGE('',*,*,#468,.T.);
#335=ORIENTED_EDGE('',*,*,#471,.F.);
#336=ORIENTED_EDGE('',*,*,#474,.T.);
#337=ORIENTED_EDGE('',*,*,#477,.F.);
#338=ORIENTED_EDGE('',*,*,#480,.T.);
#339=ORIENTED_EDGE('',*,*,#483,.T.);
#340=ORIENTED_EDGE('',*,*,#485,.T.);
#341=ORIENTED_EDGE('',*,*,#424,.T.);
#342=ORIENTED_EDGE('',*,*,#427,.T.);
#343=ORIENTED_EDGE('',*,*,#429,.T.);
#344=ORIENTED_EDGE('',*,*,#431,.T.);
#345=ORIENTED_EDGE('',*,*,#433,.F.);
#346=ORIENTED_EDGE('',*,*,#435,.T.);
#347=ORIENTED_EDGE('',*,*,#437,.F.);
#348=ORIENTED_EDGE('',*,*,#486,.T.);
#349=ORIENTED_EDGE('',*,*,#442,.F.);
#350=ORIENTED_EDGE('',*,*,#438,.T.);
#351=ORIENTED_EDGE('',*,*,#484,.F.);
#352=ORIENTED_EDGE('',*,*,#481,.F.);
#353=ORIENTED_EDGE('',*,*,#478,.F.);
#354=ORIENTED_EDGE('',*,*,#475,.T.);
#355=ORIENTED_EDGE('',*,*,#472,.F.);
#356=ORIENTED_EDGE('',*,*,#469,.T.);
#357=ORIENTED_EDGE('',*,*,#466,.F.);
#358=ORIENTED_EDGE('',*,*,#463,.T.);
#359=ORIENTED_EDGE('',*,*,#460,.F.);
#360=ORIENTED_EDGE('',*,*,#457,.T.);
#361=ORIENTED_EDGE('',*,*,#454,.F.);
#362=ORIENTED_EDGE('',*,*,#451,.T.);
#363=ORIENTED_EDGE('',*,*,#448,.F.);
#364=ORIENTED_EDGE('',*,*,#445,.T.);
#365=ORIENTED_EDGE('',*,*,#487,.F.);
#366=ORIENTED_EDGE('',*,*,#422,.T.);
#367=ORIENTED_EDGE('',*,*,#487,.T.);
#368=ORIENTED_EDGE('',*,*,#488,.F.);
#369=ORIENTED_EDGE('',*,*,#421,.T.);
#370=ORIENTED_EDGE('',*,*,#488,.T.);
#371=ORIENTED_EDGE('',*,*,#489,.F.);
#372=ORIENTED_EDGE('',*,*,#420,.T.);
#373=ORIENTED_EDGE('',*,*,#489,.T.);
#374=ORIENTED_EDGE('',*,*,#490,.F.);
#375=ORIENTED_EDGE('',*,*,#419,.T.);
#376=ORIENTED_EDGE('',*,*,#490,.T.);
#377=ORIENTED_EDGE('',*,*,#491,.F.);
#378=ORIENTED_EDGE('',*,*,#418,.T.);
#379=ORIENTED_EDGE('',*,*,#491,.T.);
#380=ORIENTED_EDGE('',*,*,#492,.F.);
#381=ORIENTED_EDGE('',*,*,#417,.T.);
#382=ORIENTED_EDGE('',*,*,#492,.T.);
#383=EDGE_CURVE('',#493,#494,#570,.T.);
#384=EDGE_CURVE('',#495,#493,#33,.T.);
#385=EDGE_CURVE('',#494,#495,#34,.T.);
#386=EDGE_CURVE('',#494,#496,#571,.T.);
#387=EDGE_CURVE('',#497,#494,#35,.T.);
#388=EDGE_CURVE('',#497,#496,#36,.T.);
#389=EDGE_CURVE('',#496,#498,#572,.T.);
#390=EDGE_CURVE('',#496,#499,#37,.T.);
#391=EDGE_CURVE('',#499,#498,#38,.T.);
#392=EDGE_CURVE('',#500,#495,#39,.T.);
#393=EDGE_CURVE('',#501,#500,#40,.T.);
#394=EDGE_CURVE('',#501,#497,#41,.T.);
#395=EDGE_CURVE('',#502,#503,#42,.T.);
#396=EDGE_CURVE('',#504,#502,#573,.T.);
#397=EDGE_CURVE('',#504,#505,#43,.T.);
#398=EDGE_CURVE('',#506,#505,#574,.T.);
#399=EDGE_CURVE('',#506,#507,#44,.T.);
#400=EDGE_CURVE('',#508,#507,#575,.T.);
#401=EDGE_CURVE('',#509,#508,#45,.T.);
#402=EDGE_CURVE('',#503,#509,#576,.T.);
#403=EDGE_CURVE('',#510,#511,#46,.T.);
#404=EDGE_CURVE('',#510,#510,#577,.T.);
#405=EDGE_CURVE('',#501,#510,#47,.T.);
#406=EDGE_CURVE('',#500,#512,#48,.T.);
#407=EDGE_CURVE('',#511,#512,#49,.T.);
#408=EDGE_CURVE('',#512,#513,#50,.T.);
#409=EDGE_CURVE('',#498,#513,#51,.T.);
#410=EDGE_CURVE('',#511,#499,#52,.T.);
#411=EDGE_CURVE('',#498,#493,#578,.T.);
#412=EDGE_CURVE('',#493,#513,#53,.T.);
#413=EDGE_CURVE('',#514,#514,#579,.T.);
#414=EDGE_CURVE('',#515,#515,#580,.T.);
#415=EDGE_CURVE('',#516,#516,#581,.T.);
#416=EDGE_CURVE('',#517,#517,#582,.T.);
#417=EDGE_CURVE('',#518,#518,#583,.F.);
#418=EDGE_CURVE('',#519,#519,#584,.F.);
#419=EDGE_CURVE('',#520,#520,#585,.F.);
#420=EDGE_CURVE('',#521,#521,#586,.F.);
#421=EDGE_CURVE('',#522,#522,#587,.F.);
#422=EDGE_CURVE('',#523,#523,#588,.F.);
#423=EDGE_CURVE('',#524,#503,#54,.T.);
#424=EDGE_CURVE('',#525,#524,#55,.T.);
#425=EDGE_CURVE('',#525,#502,#56,.T.);
#426=EDGE_CURVE('',#526,#509,#57,.T.);
#427=EDGE_CURVE('',#524,#526,#589,.T.);
#428=EDGE_CURVE('',#527,#508,#58,.T.);
#429=EDGE_CURVE('',#526,#527,#59,.T.);
#430=EDGE_CURVE('',#528,#507,#60,.T.);
#431=EDGE_CURVE('',#527,#528,#590,.T.);
#432=EDGE_CURVE('',#529,#506,#61,.T.);
#433=EDGE_CURVE('',#529,#528,#62,.T.);
#434=EDGE_CURVE('',#530,#505,#63,.T.);
#435=EDGE_CURVE('',#529,#530,#591,.T.);
#436=EDGE_CURVE('',#531,#504,#64,.T.);
#437=EDGE_CURVE('',#531,#530,#65,.T.);
#438=EDGE_CURVE('',#532,#533,#592,.T.);
#439=EDGE_CURVE('',#534,#532,#66,.T.);
#440=EDGE_CURVE('',#534,#535,#593,.T.);
#441=EDGE_CURVE('',#535,#533,#67,.T.);
#442=EDGE_CURVE('',#532,#536,#68,.T.);
#443=EDGE_CURVE('',#537,#536,#69,.T.);
#444=EDGE_CURVE('',#534,#537,#70,.T.);
#445=EDGE_CURVE('',#538,#536,#594,.T.);
#446=EDGE_CURVE('',#539,#538,#71,.T.);
#447=EDGE_CURVE('',#539,#537,#595,.T.);
#448=EDGE_CURVE('',#538,#540,#72,.T.);
#449=EDGE_CURVE('',#541,#540,#73,.T.);
#450=EDGE_CURVE('',#539,#541,#74,.T.);
#451=EDGE_CURVE('',#542,#540,#596,.T.);
#452=EDGE_CURVE('',#543,#542,#75,.T.);
#453=EDGE_CURVE('',#543,#541,#597,.T.);
#454=EDGE_CURVE('',#542,#544,#76,.T.);
#455=EDGE_CURVE('',#545,#544,#77,.T.);
#456=EDGE_CURVE('',#543,#545,#78,.T.);
#457=EDGE_CURVE('',#546,#544,#598,.T.);
#458=EDGE_CURVE('',#547,#546,#79,.T.);
#459=EDGE_CURVE('',#547,#545,#599,.T.);
#460=EDGE_CURVE('',#546,#548,#80,.T.);
#461=EDGE_CURVE('',#549,#548,#81,.T.);
#462=EDGE_CURVE('',#547,#549,#82,.T.);
#463=EDGE_CURVE('',#550,#548,#600,.T.);
#464=EDGE_CURVE('',#551,#550,#83,.T.);
#465=EDGE_CURVE('',#551,#549,#601,.T.);
#466=EDGE_CURVE('',#550,#552,#84,.T.);
#467=EDGE_CURVE('',#553,#552,#85,.T.);
#468=EDGE_CURVE('',#551,#553,#86,.T.);
#469=EDGE_CURVE('',#554,#552,#602,.T.);
#470=EDGE_CURVE('',#555,#554,#87,.T.);
#471=EDGE_CURVE('',#555,#553,#603,.T.);
#472=EDGE_CURVE('',#554,#556,#88,.T.);
#473=EDGE_CURVE('',#557,#556,#89,.T.);
#474=EDGE_CURVE('',#555,#557,#90,.T.);
#475=EDGE_CURVE('',#558,#556,#604,.T.);
#476=EDGE_CURVE('',#559,#558,#91,.T.);
#477=EDGE_CURVE('',#559,#557,#605,.T.);
#478=EDGE_CURVE('',#558,#560,#92,.T.);
#479=EDGE_CURVE('',#561,#560,#93,.T.);
#480=EDGE_CURVE('',#559,#561,#94,.T.);
#481=EDGE_CURVE('',#560,#562,#606,.T.);
#482=EDGE_CURVE('',#563,#562,#95,.T.);
#483=EDGE_CURVE('',#561,#563,#607,.T.);
#484=EDGE_CURVE('',#562,#533,#96,.T.);
#485=EDGE_CURVE('',#563,#535,#97,.T.);
#486=EDGE_CURVE('',#531,#525,#608,.T.);
#487=EDGE_CURVE('',#564,#564,#609,.T.);
#488=EDGE_CURVE('',#565,#565,#610,.T.);
#489=EDGE_CURVE('',#566,#566,#611,.T.);
#490=EDGE_CURVE('',#567,#567,#612,.T.);
#491=EDGE_CURVE('',#568,#568,#613,.T.);
#492=EDGE_CURVE('',#569,#569,#614,.T.);
#493=VERTEX_POINT('',#1219);
#494=VERTEX_POINT('',#1220);
#495=VERTEX_POINT('',#1222);
#496=VERTEX_POINT('',#1226);
#497=VERTEX_POINT('',#1228);
#498=VERTEX_POINT('',#1232);
#499=VERTEX_POINT('',#1234);
#500=VERTEX_POINT('',#1238);
#501=VERTEX_POINT('',#1240);
#502=VERTEX_POINT('',#1244);
#503=VERTEX_POINT('',#1245);
#504=VERTEX_POINT('',#1247);
#505=VERTEX_POINT('',#1249);
#506=VERTEX_POINT('',#1251);
#507=VERTEX_POINT('',#1253);
#508=VERTEX_POINT('',#1255);
#509=VERTEX_POINT('',#1257);
#510=VERTEX_POINT('',#1260);
#511=VERTEX_POINT('',#1261);
#512=VERTEX_POINT('',#1265);
#513=VERTEX_POINT('',#1269);
#514=VERTEX_POINT('',#1279);
#515=VERTEX_POINT('',#1283);
#516=VERTEX_POINT('',#1285);
#517=VERTEX_POINT('',#1288);
#518=VERTEX_POINT('',#1292);
#519=VERTEX_POINT('',#1294);
#520=VERTEX_POINT('',#1296);
#521=VERTEX_POINT('',#1298);
#522=VERTEX_POINT('',#1300);
#523=VERTEX_POINT('',#1302);
#524=VERTEX_POINT('',#1305);
#525=VERTEX_POINT('',#1307);
#526=VERTEX_POINT('',#1311);
#527=VERTEX_POINT('',#1315);
#528=VERTEX_POINT('',#1319);
#529=VERTEX_POINT('',#1323);
#530=VERTEX_POINT('',#1327);
#531=VERTEX_POINT('',#1331);
#532=VERTEX_POINT('',#1335);
#533=VERTEX_POINT('',#1336);
#534=VERTEX_POINT('',#1338);
#535=VERTEX_POINT('',#1340);
#536=VERTEX_POINT('',#1344);
#537=VERTEX_POINT('',#1346);
#538=VERTEX_POINT('',#1350);
#539=VERTEX_POINT('',#1352);
#540=VERTEX_POINT('',#1356);
#541=VERTEX_POINT('',#1358);
#542=VERTEX_POINT('',#1362);
#543=VERTEX_POINT('',#1364);
#544=VERTEX_POINT('',#1368);
#545=VERTEX_POINT('',#1370);
#546=VERTEX_POINT('',#1374);
#547=VERTEX_POINT('',#1376);
#548=VERTEX_POINT('',#1380);
#549=VERTEX_POINT('',#1382);
#550=VERTEX_POINT('',#1386);
#551=VERTEX_POINT('',#1388);
#552=VERTEX_POINT('',#1392);
#553=VERTEX_POINT('',#1394);
#554=VERTEX_POINT('',#1398);
#555=VERTEX_POINT('',#1400);
#556=VERTEX_POINT('',#1404);
#557=VERTEX_POINT('',#1406);
#558=VERTEX_POINT('',#1410);
#559=VERTEX_POINT('',#1412);
#560=VERTEX_POINT('',#1416);
#561=VERTEX_POINT('',#1418);
#562=VERTEX_POINT('',#1422);
#563=VERTEX_POINT('',#1424);
#564=VERTEX_POINT('',#1435);
#565=VERTEX_POINT('',#1439);
#566=VERTEX_POINT('',#1443);
#567=VERTEX_POINT('',#1447);
#568=VERTEX_POINT('',#1451);
#569=VERTEX_POINT('',#1455);
#570=CIRCLE('',#856,0.0145);
#571=CIRCLE('',#858,0.0145);
#572=CIRCLE('',#860,0.0145);
#573=CIRCLE('',#863,0.002);
#574=CIRCLE('',#864,0.002);
#575=CIRCLE('',#865,0.002);
#576=CIRCLE('',#866,0.002);
#577=CIRCLE('',#867,0.0068);
#578=CIRCLE('',#870,0.0145);
#579=CIRCLE('',#874,0.0145);
#580=CIRCLE('',#877,0.0058);
#581=CIRCLE('',#878,0.0058);
#582=CIRCLE('',#880,0.0068);
#583=CIRCLE('',#883,0.0005);
#584=CIRCLE('',#884,0.0005);
#585=CIRCLE('',#885,0.0005);
#586=CIRCLE('',#886,0.0005);
#587=CIRCLE('',#887,0.0005);
#588=CIRCLE('',#888,0.0005);
#589=CIRCLE('',#891,0.002);
#590=CIRCLE('',#894,0.002);
#591=CIRCLE('',#897,0.002);
#592=CIRCLE('',#900,0.000400000000000011);
#593=CIRCLE('',#901,0.000400000000000011);
#594=CIRCLE('',#904,0.0004);
#595=CIRCLE('',#905,0.0004);
#596=CIRCLE('',#908,0.000399999999999992);
#597=CIRCLE('',#909,0.000399999999999992);
#598=CIRCLE('',#912,0.0004);
#599=CIRCLE('',#913,0.0004);
#600=CIRCLE('',#916,0.0004);
#601=CIRCLE('',#917,0.0004);
#602=CIRCLE('',#920,0.0004);
#603=CIRCLE('',#921,0.0004);
#604=CIRCLE('',#924,0.0004);
#605=CIRCLE('',#925,0.0004);
#606=CIRCLE('',#928,0.0004);
#607=CIRCLE('',#929,0.0004);
#608=CIRCLE('',#932,0.002);
#609=CIRCLE('',#936,0.0005);
#610=CIRCLE('',#939,0.0005);
#611=CIRCLE('',#942,0.0005);
#612=CIRCLE('',#945,0.0005);
#613=CIRCLE('',#948,0.0005);
#614=CIRCLE('',#951,0.0005);
#615=EDGE_LOOP('',(#163,#164,#165));
#616=EDGE_LOOP('',(#166,#167,#168));
#617=EDGE_LOOP('',(#169,#170,#171));
#618=EDGE_LOOP('',(#172,#173,#174,#175,#176));
#619=EDGE_LOOP('',(#177,#178,#179,#180,#181,#182,#183,#184));
#620=EDGE_LOOP('',(#185,#186,#187,#188,#189,#190));
#621=EDGE_LOOP('',(#191,#192,#193,#194,#195));
#622=EDGE_LOOP('',(#196,#197,#198));
#623=EDGE_LOOP('',(#199,#200,#201,#202,#203,#204));
#624=EDGE_LOOP('',(#205,#206,#207,#208,#209));
#625=EDGE_LOOP('',(#210));
#626=EDGE_LOOP('',(#211,#212,#213,#214));
#627=EDGE_LOOP('',(#215));
#628=EDGE_LOOP('',(#216));
#629=EDGE_LOOP('',(#217));
#630=EDGE_LOOP('',(#218));
#631=EDGE_LOOP('',(#219));
#632=EDGE_LOOP('',(#220));
#633=EDGE_LOOP('',(#221));
#634=EDGE_LOOP('',(#222));
#635=EDGE_LOOP('',(#223));
#636=EDGE_LOOP('',(#224));
#637=EDGE_LOOP('',(#225));
#638=EDGE_LOOP('',(#226));
#639=EDGE_LOOP('',(#227));
#640=EDGE_LOOP('',(#228));
#641=EDGE_LOOP('',(#229,#230,#231,#232));
#642=EDGE_LOOP('',(#233,#234,#235,#236));
#643=EDGE_LOOP('',(#237,#238,#239,#240));
#644=EDGE_LOOP('',(#241,#242,#243,#244));
#645=EDGE_LOOP('',(#245,#246,#247,#248));
#646=EDGE_LOOP('',(#249,#250,#251,#252));
#647=EDGE_LOOP('',(#253,#254,#255,#256));
#648=EDGE_LOOP('',(#257,#258,#259,#260));
#649=EDGE_LOOP('',(#261,#262,#263,#264));
#650=EDGE_LOOP('',(#265,#266,#267,#268));
#651=EDGE_LOOP('',(#269,#270,#271,#272));
#652=EDGE_LOOP('',(#273,#274,#275,#276));
#653=EDGE_LOOP('',(#277,#278,#279,#280));
#654=EDGE_LOOP('',(#281,#282,#283,#284));
#655=EDGE_LOOP('',(#285,#286,#287,#288));
#656=EDGE_LOOP('',(#289,#290,#291,#292));
#657=EDGE_LOOP('',(#293,#294,#295,#296));
#658=EDGE_LOOP('',(#297,#298,#299,#300));
#659=EDGE_LOOP('',(#301,#302,#303,#304));
#660=EDGE_LOOP('',(#305,#306,#307,#308));
#661=EDGE_LOOP('',(#309,#310,#311,#312));
#662=EDGE_LOOP('',(#313,#314,#315,#316));
#663=EDGE_LOOP('',(#317,#318,#319,#320));
#664=EDGE_LOOP('',(#321,#322,#323,#324));
#665=EDGE_LOOP('',(#325,#326,#327,#328,#329,#330,#331,#332,#333,#334,#335,
#336,#337,#338,#339,#340));
#666=EDGE_LOOP('',(#341,#342,#343,#344,#345,#346,#347,#348));
#667=EDGE_LOOP('',(#349,#350,#351,#352,#353,#354,#355,#356,#357,#358,#359,
#360,#361,#362,#363,#364));
#668=EDGE_LOOP('',(#365));
#669=EDGE_LOOP('',(#366));
#670=EDGE_LOOP('',(#367));
#671=EDGE_LOOP('',(#368));
#672=EDGE_LOOP('',(#369));
#673=EDGE_LOOP('',(#370));
#674=EDGE_LOOP('',(#371));
#675=EDGE_LOOP('',(#372));
#676=EDGE_LOOP('',(#373));
#677=EDGE_LOOP('',(#374));
#678=EDGE_LOOP('',(#375));
#679=EDGE_LOOP('',(#376));
#680=EDGE_LOOP('',(#377));
#681=EDGE_LOOP('',(#378));
#682=EDGE_LOOP('',(#379));
#683=EDGE_LOOP('',(#380));
#684=EDGE_LOOP('',(#381));
#685=EDGE_LOOP('',(#382));
#686=FACE_BOUND('',#615,.T.);
#687=FACE_BOUND('',#616,.T.);
#688=FACE_BOUND('',#617,.T.);
#689=FACE_BOUND('',#618,.T.);
#690=FACE_BOUND('',#619,.T.);
#691=FACE_BOUND('',#620,.T.);
#692=FACE_BOUND('',#621,.T.);
#693=FACE_BOUND('',#622,.T.);
#694=FACE_BOUND('',#623,.T.);
#695=FACE_BOUND('',#624,.T.);
#696=FACE_BOUND('',#625,.T.);
#697=FACE_BOUND('',#626,.T.);
#698=FACE_BOUND('',#627,.T.);
#699=FACE_BOUND('',#628,.T.);
#700=FACE_BOUND('',#629,.T.);
#701=FACE_BOUND('',#630,.T.);
#702=FACE_BOUND('',#631,.T.);
#703=FACE_BOUND('',#632,.T.);
#704=FACE_BOUND('',#633,.T.);
#705=FACE_BOUND('',#634,.T.);
#706=FACE_BOUND('',#635,.T.);
#707=FACE_BOUND('',#636,.T.);
#708=FACE_BOUND('',#637,.T.);
#709=FACE_BOUND('',#638,.T.);
#710=FACE_BOUND('',#639,.T.);
#711=FACE_BOUND('',#640,.T.);
#712=FACE_BOUND('',#641,.T.);
#713=FACE_BOUND('',#642,.T.);
#714=FACE_BOUND('',#643,.T.);
#715=FACE_BOUND('',#644,.T.);
#716=FACE_BOUND('',#645,.T.);
#717=FACE_BOUND('',#646,.T.);
#718=FACE_BOUND('',#647,.T.);
#719=FACE_BOUND('',#648,.T.);
#720=FACE_BOUND('',#649,.T.);
#721=FACE_BOUND('',#650,.T.);
#722=FACE_BOUND('',#651,.T.);
#723=FACE_BOUND('',#652,.T.);
#724=FACE_BOUND('',#653,.T.);
#725=FACE_BOUND('',#654,.T.);
#726=FACE_BOUND('',#655,.T.);
#727=FACE_BOUND('',#656,.T.);
#728=FACE_BOUND('',#657,.T.);
#729=FACE_BOUND('',#658,.T.);
#730=FACE_BOUND('',#659,.T.);
#731=FACE_BOUND('',#660,.T.);
#732=FACE_BOUND('',#661,.T.);
#733=FACE_BOUND('',#662,.T.);
#734=FACE_BOUND('',#663,.T.);
#735=FACE_BOUND('',#664,.T.);
#736=FACE_BOUND('',#665,.T.);
#737=FACE_BOUND('',#666,.T.);
#738=FACE_BOUND('',#667,.T.);
#739=FACE_BOUND('',#668,.T.);
#740=FACE_BOUND('',#669,.T.);
#741=FACE_BOUND('',#670,.T.);
#742=FACE_BOUND('',#671,.T.);
#743=FACE_BOUND('',#672,.T.);
#744=FACE_BOUND('',#673,.T.);
#745=FACE_BOUND('',#674,.T.);
#746=FACE_BOUND('',#675,.T.);
#747=FACE_BOUND('',#676,.T.);
#748=FACE_BOUND('',#677,.T.);
#749=FACE_BOUND('',#678,.T.);
#750=FACE_BOUND('',#679,.T.);
#751=FACE_BOUND('',#680,.T.);
#752=FACE_BOUND('',#681,.T.);
#753=FACE_BOUND('',#682,.T.);
#754=FACE_BOUND('',#683,.T.);
#755=FACE_BOUND('',#684,.T.);
#756=FACE_BOUND('',#685,.T.);
#757=PLANE('',#855);
#758=PLANE('',#857);
#759=PLANE('',#859);
#760=PLANE('',#861);
#761=PLANE('',#862);
#762=PLANE('',#868);
#763=PLANE('',#869);
#764=PLANE('',#871);
#765=PLANE('',#872);
#766=PLANE('',#875);
#767=PLANE('',#881);
#768=PLANE('',#882);
#769=PLANE('',#889);
#770=PLANE('',#892);
#771=PLANE('',#895);
#772=PLANE('',#898);
#773=PLANE('',#902);
#774=PLANE('',#906);
#775=PLANE('',#910);
#776=PLANE('',#914);
#777=PLANE('',#918);
#778=PLANE('',#922);
#779=PLANE('',#926);
#780=PLANE('',#930);
#781=PLANE('',#933);
#782=PLANE('',#934);
#783=PLANE('',#937);
#784=PLANE('',#940);
#785=PLANE('',#943);
#786=PLANE('',#946);
#787=PLANE('',#949);
#788=PLANE('',#952);
#789=ADVANCED_FACE('',(#686),#757,.T.);
#790=ADVANCED_FACE('',(#687),#758,.T.);
#791=ADVANCED_FACE('',(#688),#759,.T.);
#792=ADVANCED_FACE('',(#689),#760,.T.);
#793=ADVANCED_FACE('',(#690,#691),#761,.F.);
#794=ADVANCED_FACE('',(#692),#762,.F.);
#795=ADVANCED_FACE('',(#693),#763,.T.);
#796=ADVANCED_FACE('',(#694),#764,.T.);
#797=ADVANCED_FACE('',(#695),#765,.F.);
#798=ADVANCED_FACE('',(#696,#697),#12,.T.);
#799=ADVANCED_FACE('',(#698),#766,.T.);
#800=ADVANCED_FACE('',(#699,#700),#13,.F.);
#801=ADVANCED_FACE('',(#701,#702),#14,.T.);
#802=ADVANCED_FACE('',(#703,#704),#767,.T.);
#803=ADVANCED_FACE('',(#705,#706,#707,#708,#709,#710,#711),#768,.F.);
#804=ADVANCED_FACE('',(#712),#769,.F.);
#805=ADVANCED_FACE('',(#713),#15,.T.);
#806=ADVANCED_FACE('',(#714),#770,.F.);
#807=ADVANCED_FACE('',(#715),#16,.T.);
#808=ADVANCED_FACE('',(#716),#771,.T.);
#809=ADVANCED_FACE('',(#717),#17,.T.);
#810=ADVANCED_FACE('',(#718),#772,.T.);
#811=ADVANCED_FACE('',(#719),#18,.F.);
#812=ADVANCED_FACE('',(#720),#773,.F.);
#813=ADVANCED_FACE('',(#721),#19,.F.);
#814=ADVANCED_FACE('',(#722),#774,.F.);
#815=ADVANCED_FACE('',(#723),#20,.F.);
#816=ADVANCED_FACE('',(#724),#775,.F.);
#817=ADVANCED_FACE('',(#725),#21,.F.);
#818=ADVANCED_FACE('',(#726),#776,.F.);
#819=ADVANCED_FACE('',(#727),#22,.F.);
#820=ADVANCED_FACE('',(#728),#777,.F.);
#821=ADVANCED_FACE('',(#729),#23,.F.);
#822=ADVANCED_FACE('',(#730),#778,.F.);
#823=ADVANCED_FACE('',(#731),#24,.F.);
#824=ADVANCED_FACE('',(#732),#779,.F.);
#825=ADVANCED_FACE('',(#733),#25,.T.);
#826=ADVANCED_FACE('',(#734),#780,.F.);
#827=ADVANCED_FACE('',(#735),#26,.T.);
#828=ADVANCED_FACE('',(#736,#737),#781,.T.);
#829=ADVANCED_FACE('',(#738),#782,.F.);
#830=ADVANCED_FACE('',(#739,#740),#27,.T.);
#831=ADVANCED_FACE('',(#741),#783,.T.);
#832=ADVANCED_FACE('',(#742,#743),#28,.T.);
#833=ADVANCED_FACE('',(#744),#784,.T.);
#834=ADVANCED_FACE('',(#745,#746),#29,.T.);
#835=ADVANCED_FACE('',(#747),#785,.T.);
#836=ADVANCED_FACE('',(#748,#749),#30,.T.);
#837=ADVANCED_FACE('',(#750),#786,.T.);
#838=ADVANCED_FACE('',(#751,#752),#31,.T.);
#839=ADVANCED_FACE('',(#753),#787,.T.);
#840=ADVANCED_FACE('',(#754,#755),#32,.T.);
#841=ADVANCED_FACE('',(#756),#788,.T.);
#842=CLOSED_SHELL('',(#789,#790,#791,#792,#793,#794,#795,#796,#797,#798,
#799,#800,#801,#802,#803,#804,#805,#806,#807,#808,#809,#810,#811,#812,#813,
#814,#815,#816,#817,#818,#819,#820,#821,#822,#823,#824,#825,#826,#827,#828,
#829,#830,#831,#832,#833,#834,#835,#836,#837,#838,#839,#840,#841));
#843=STYLED_ITEM('',(#844),#851);
#844=PRESENTATION_STYLE_ASSIGNMENT((#845));
#845=SURFACE_STYLE_USAGE(.BOTH.,#846);
#846=SURFACE_SIDE_STYLE('',(#847));
#847=SURFACE_STYLE_FILL_AREA(#848);
#848=FILL_AREA_STYLE('',(#849));
#849=FILL_AREA_STYLE_COLOUR('',#850);
#850=COLOUR_RGB('',0.615686274509804,0.811764705882353,0.929411764705882);
#851=MANIFOLD_SOLID_BREP('Part 1',#842);
#852=SHAPE_DEFINITION_REPRESENTATION(#1463,#853);
#853=SHAPE_REPRESENTATION('Part 1',(#854),#1458);
#854=AXIS2_PLACEMENT_3D('',#1216,#953,#954);
#855=AXIS2_PLACEMENT_3D('',#1217,#955,#956);
#856=AXIS2_PLACEMENT_3D('',#1218,#957,#958);
#857=AXIS2_PLACEMENT_3D('',#1224,#961,#962);
#858=AXIS2_PLACEMENT_3D('',#1225,#963,#964);
#859=AXIS2_PLACEMENT_3D('',#1230,#967,#968);
#860=AXIS2_PLACEMENT_3D('',#1231,#969,#970);
#861=AXIS2_PLACEMENT_3D('',#1236,#973,#974);
#862=AXIS2_PLACEMENT_3D('',#1242,#978,#979);
#863=AXIS2_PLACEMENT_3D('',#1246,#981,#982);
#864=AXIS2_PLACEMENT_3D('',#1250,#984,#985);
#865=AXIS2_PLACEMENT_3D('',#1254,#987,#988);
#866=AXIS2_PLACEMENT_3D('',#1258,#990,#991);
#867=AXIS2_PLACEMENT_3D('',#1262,#993,#994);
#868=AXIS2_PLACEMENT_3D('',#1267,#998,#999);
#869=AXIS2_PLACEMENT_3D('',#1272,#1003,#1004);
#870=AXIS2_PLACEMENT_3D('',#1273,#1005,#1006);
#871=AXIS2_PLACEMENT_3D('',#1275,#1008,#1009);
#872=AXIS2_PLACEMENT_3D('',#1276,#1010,#1011);
#873=AXIS2_PLACEMENT_3D('',#1277,#1012,#1013);
#874=AXIS2_PLACEMENT_3D('',#1278,#1014,#1015);
#875=AXIS2_PLACEMENT_3D('',#1280,#1016,#1017);
#876=AXIS2_PLACEMENT_3D('',#1281,#1018,#1019);
#877=AXIS2_PLACEMENT_3D('',#1282,#1020,#1021);
#878=AXIS2_PLACEMENT_3D('',#1284,#1022,#1023);
#879=AXIS2_PLACEMENT_3D('',#1286,#1024,#1025);
#880=AXIS2_PLACEMENT_3D('',#1287,#1026,#1027);
#881=AXIS2_PLACEMENT_3D('',#1289,#1028,#1029);
#882=AXIS2_PLACEMENT_3D('',#1290,#1030,#1031);
#883=AXIS2_PLACEMENT_3D('',#1291,#1032,#1033);
#884=AXIS2_PLACEMENT_3D('',#1293,#1034,#1035);
#885=AXIS2_PLACEMENT_3D('',#1295,#1036,#1037);
#886=AXIS2_PLACEMENT_3D('',#1297,#1038,#1039);
#887=AXIS2_PLACEMENT_3D('',#1299,#1040,#1041);
#888=AXIS2_PLACEMENT_3D('',#1301,#1042,#1043);
#889=AXIS2_PLACEMENT_3D('',#1303,#1044,#1045);
#890=AXIS2_PLACEMENT_3D('',#1309,#1049,#1050);
#891=AXIS2_PLACEMENT_3D('',#1312,#1052,#1053);
#892=AXIS2_PLACEMENT_3D('',#1313,#1054,#1055);
#893=AXIS2_PLACEMENT_3D('',#1317,#1058,#1059);
#894=AXIS2_PLACEMENT_3D('',#1320,#1061,#1062);
#895=AXIS2_PLACEMENT_3D('',#1321,#1063,#1064);
#896=AXIS2_PLACEMENT_3D('',#1325,#1067,#1068);
#897=AXIS2_PLACEMENT_3D('',#1328,#1070,#1071);
#898=AXIS2_PLACEMENT_3D('',#1329,#1072,#1073);
#899=AXIS2_PLACEMENT_3D('',#1333,#1076,#1077);
#900=AXIS2_PLACEMENT_3D('',#1334,#1078,#1079);
#901=AXIS2_PLACEMENT_3D('',#1339,#1081,#1082);
#902=AXIS2_PLACEMENT_3D('',#1342,#1084,#1085);
#903=AXIS2_PLACEMENT_3D('',#1348,#1089,#1090);
#904=AXIS2_PLACEMENT_3D('',#1349,#1091,#1092);
#905=AXIS2_PLACEMENT_3D('',#1353,#1094,#1095);
#906=AXIS2_PLACEMENT_3D('',#1354,#1096,#1097);
#907=AXIS2_PLACEMENT_3D('',#1360,#1101,#1102);
#908=AXIS2_PLACEMENT_3D('',#1361,#1103,#1104);
#909=AXIS2_PLACEMENT_3D('',#1365,#1106,#1107);
#910=AXIS2_PLACEMENT_3D('',#1366,#1108,#1109);
#911=AXIS2_PLACEMENT_3D('',#1372,#1113,#1114);
#912=AXIS2_PLACEMENT_3D('',#1373,#1115,#1116);
#913=AXIS2_PLACEMENT_3D('',#1377,#1118,#1119);
#914=AXIS2_PLACEMENT_3D('',#1378,#1120,#1121);
#915=AXIS2_PLACEMENT_3D('',#1384,#1125,#1126);
#916=AXIS2_PLACEMENT_3D('',#1385,#1127,#1128);
#917=AXIS2_PLACEMENT_3D('',#1389,#1130,#1131);
#918=AXIS2_PLACEMENT_3D('',#1390,#1132,#1133);
#919=AXIS2_PLACEMENT_3D('',#1396,#1137,#1138);
#920=AXIS2_PLACEMENT_3D('',#1397,#1139,#1140);
#921=AXIS2_PLACEMENT_3D('',#1401,#1142,#1143);
#922=AXIS2_PLACEMENT_3D('',#1402,#1144,#1145);
#923=AXIS2_PLACEMENT_3D('',#1408,#1149,#1150);
#924=AXIS2_PLACEMENT_3D('',#1409,#1151,#1152);
#925=AXIS2_PLACEMENT_3D('',#1413,#1154,#1155);
#926=AXIS2_PLACEMENT_3D('',#1414,#1156,#1157);
#927=AXIS2_PLACEMENT_3D('',#1420,#1161,#1162);
#928=AXIS2_PLACEMENT_3D('',#1421,#1163,#1164);
#929=AXIS2_PLACEMENT_3D('',#1425,#1166,#1167);
#930=AXIS2_PLACEMENT_3D('',#1426,#1168,#1169);
#931=AXIS2_PLACEMENT_3D('',#1429,#1172,#1173);
#932=AXIS2_PLACEMENT_3D('',#1430,#1174,#1175);
#933=AXIS2_PLACEMENT_3D('',#1431,#1176,#1177);
#934=AXIS2_PLACEMENT_3D('',#1432,#1178,#1179);
#935=AXIS2_PLACEMENT_3D('',#1433,#1180,#1181);
#936=AXIS2_PLACEMENT_3D('',#1434,#1182,#1183);
#937=AXIS2_PLACEMENT_3D('',#1436,#1184,#1185);
#938=AXIS2_PLACEMENT_3D('',#1437,#1186,#1187);
#939=AXIS2_PLACEMENT_3D('',#1438,#1188,#1189);
#940=AXIS2_PLACEMENT_3D('',#1440,#1190,#1191);
#941=AXIS2_PLACEMENT_3D('',#1441,#1192,#1193);
#942=AXIS2_PLACEMENT_3D('',#1442,#1194,#1195);
#943=AXIS2_PLACEMENT_3D('',#1444,#1196,#1197);
#944=AXIS2_PLACEMENT_3D('',#1445,#1198,#1199);
#945=AXIS2_PLACEMENT_3D('',#1446,#1200,#1201);
#946=AXIS2_PLACEMENT_3D('',#1448,#1202,#1203);
#947=AXIS2_PLACEMENT_3D('',#1449,#1204,#1205);
#948=AXIS2_PLACEMENT_3D('',#1450,#1206,#1207);
#949=AXIS2_PLACEMENT_3D('',#1452,#1208,#1209);
#950=AXIS2_PLACEMENT_3D('',#1453,#1210,#1211);
#951=AXIS2_PLACEMENT_3D('',#1454,#1212,#1213);
#952=AXIS2_PLACEMENT_3D('',#1456,#1214,#1215);
#953=DIRECTION('',(0.,0.,1.));
#954=DIRECTION('',(1.,0.,0.));
#955=DIRECTION('',(0.,-1.,0.));
#956=DIRECTION('',(0.,0.,-1.));
#957=DIRECTION('',(0.,-1.,0.));
#958=DIRECTION('',(0.,0.,-1.));
#959=DIRECTION('',(-1.,0.,0.));
#960=DIRECTION('',(0.,0.,-1.));
#961=DIRECTION('',(0.,-1.,0.));
#962=DIRECTION('',(0.,0.,-1.));
#963=DIRECTION('',(0.,-1.,0.));
#964=DIRECTION('',(0.,0.,-1.));
#965=DIRECTION('',(0.,0.,-1.));
#966=DIRECTION('',(-1.,0.,0.));
#967=DIRECTION('',(0.,-1.,0.));
#968=DIRECTION('',(0.,0.,-1.));
#969=DIRECTION('',(0.,-1.,0.));
#970=DIRECTION('',(0.,0.,-1.));
#971=DIRECTION('',(-1.,0.,0.));
#972=DIRECTION('',(0.,0.,-1.));
#973=DIRECTION('',(1.,-1.18411158769748E-16,0.));
#974=DIRECTION('',(1.18411158769748E-16,1.,0.));
#975=DIRECTION('',(-1.18411158769748E-16,-1.,0.));
#976=DIRECTION('',(0.,0.,-1.));
#977=DIRECTION('',(-1.18411158769748E-16,-1.,0.));
#978=DIRECTION('',(0.,-1.,0.));
#979=DIRECTION('',(0.,0.,-1.));
#980=DIRECTION('',(0.,0.,1.));
#981=DIRECTION('',(0.,1.,0.));
#982=DIRECTION('',(0.,0.,1.));
#983=DIRECTION('',(1.,0.,-1.02963792775951E-16));
#984=DIRECTION('',(0.,1.,0.));
#985=DIRECTION('',(0.,0.,1.));
#986=DIRECTION('',(0.,0.,1.));
#987=DIRECTION('',(0.,1.,0.));
#988=DIRECTION('',(0.,0.,1.));
#989=DIRECTION('',(1.,0.,-2.05927585551902E-16));
#990=DIRECTION('',(0.,1.,0.));
#991=DIRECTION('',(0.,0.,1.));
#992=DIRECTION('',(-1.,0.,0.));
#993=DIRECTION('',(0.,1.,0.));
#994=DIRECTION('',(0.,0.,1.));
#995=DIRECTION('',(-1.,0.,0.));
#996=DIRECTION('',(-1.,0.,0.));
#997=DIRECTION('',(0.,0.,-1.));
#998=DIRECTION('',(1.,-1.18411158769748E-16,0.));
#999=DIRECTION('',(1.18411158769748E-16,1.,0.));
#1000=DIRECTION('',(-1.18411158769748E-16,-1.,0.));
#1001=DIRECTION('',(0.,0.,-1.));
#1002=DIRECTION('',(-1.18411158769748E-16,-1.,0.));
#1003=DIRECTION('',(0.,-1.,0.));
#1004=DIRECTION('',(0.,0.,-1.));
#1005=DIRECTION('',(0.,-1.,0.));
#1006=DIRECTION('',(0.,0.,-1.));
#1007=DIRECTION('',(-1.,0.,0.));
#1008=DIRECTION('',(0.,0.,1.));
#1009=DIRECTION('',(1.,0.,0.));
#1010=DIRECTION('',(0.,0.,1.));
#1011=DIRECTION('',(1.,0.,0.));
#1012=DIRECTION('',(0.,1.,0.));
#1013=DIRECTION('',(0.,0.,1.));
#1014=DIRECTION('',(0.,-1.,0.));
#1015=DIRECTION('',(0.,0.,-1.));
#1016=DIRECTION('',(0.,-1.,0.));
#1017=DIRECTION('',(1.,0.,0.));
#1018=DIRECTION('',(0.,-1.,0.));
#1019=DIRECTION('',(0.,0.,-1.));
#1020=DIRECTION('',(0.,1.,0.));
#1021=DIRECTION('',(0.,0.,1.));
#1022=DIRECTION('',(0.,1.,0.));
#1023=DIRECTION('',(0.,0.,1.));
#1024=DIRECTION('',(0.,-1.,0.));
#1025=DIRECTION('',(0.,0.,-1.));
#1026=DIRECTION('',(0.,1.,0.));
#1027=DIRECTION('',(0.,0.,1.));
#1028=DIRECTION('',(0.,1.,0.));
#1029=DIRECTION('',(-1.,0.,0.));
#1030=DIRECTION('',(0.,-1.,0.));
#1031=DIRECTION('',(0.,0.,-1.));
#1032=DIRECTION('',(0.,-1.,0.));
#1033=DIRECTION('',(0.,0.,-1.));
#1034=DIRECTION('',(0.,-1.,0.));
#1035=DIRECTION('',(0.,0.,-1.));
#1036=DIRECTION('',(0.,-1.,0.));
#1037=DIRECTION('',(0.,0.,-1.));
#1038=DIRECTION('',(0.,-1.,0.));
#1039=DIRECTION('',(0.,0.,-1.));
#1040=DIRECTION('',(0.,-1.,0.));
#1041=DIRECTION('',(0.,0.,-1.));
#1042=DIRECTION('',(0.,-1.,0.));
#1043=DIRECTION('',(0.,0.,-1.));
#1044=DIRECTION('',(1.,0.,0.));
#1045=DIRECTION('',(0.,0.,-1.));
#1046=DIRECTION('',(0.,-1.,0.));
#1047=DIRECTION('',(0.,0.,1.));
#1048=DIRECTION('',(0.,-1.,0.));
#1049=DIRECTION('',(0.,-1.,0.));
#1050=DIRECTION('',(0.,0.,-1.));
#1051=DIRECTION('',(0.,-1.,0.));
#1052=DIRECTION('',(0.,1.,0.));
#1053=DIRECTION('',(0.,0.,1.));
#1054=DIRECTION('',(-2.05927585551902E-16,0.,-1.));
#1055=DIRECTION('',(-1.,0.,2.05927585551902E-16));
#1056=DIRECTION('',(0.,-1.,0.));
#1057=DIRECTION('',(1.,0.,-2.05927585551902E-16));
#1058=DIRECTION('',(0.,-1.,0.));
#1059=DIRECTION('',(0.,0.,-1.));
#1060=DIRECTION('',(0.,-1.,0.));
#1061=DIRECTION('',(0.,1.,0.));
#1062=DIRECTION('',(0.,0.,1.));
#1063=DIRECTION('',(1.,0.,0.));
#1064=DIRECTION('',(0.,0.,-1.));
#1065=DIRECTION('',(0.,-1.,0.));
#1066=DIRECTION('',(0.,0.,1.));
#1067=DIRECTION('',(0.,-1.,0.));
#1068=DIRECTION('',(0.,0.,-1.));
#1069=DIRECTION('',(0.,-1.,0.));
#1070=DIRECTION('',(0.,1.,0.));
#1071=DIRECTION('',(0.,0.,1.));
#1072=DIRECTION('',(-1.02963792775951E-16,0.,-1.));
#1073=DIRECTION('',(-1.,0.,1.02963792775951E-16));
#1074=DIRECTION('',(0.,-1.,0.));
#1075=DIRECTION('',(1.,0.,-1.02963792775951E-16));
#1076=DIRECTION('',(0.,-1.,0.));
#1077=DIRECTION('',(0.,0.,-1.));
#1078=DIRECTION('',(0.,1.,0.));
#1079=DIRECTION('',(0.,0.,1.));
#1080=DIRECTION('',(0.,-1.,0.));
#1081=DIRECTION('',(0.,1.,0.));
#1082=DIRECTION('',(0.,0.,1.));
#1083=DIRECTION('',(0.,-1.,0.));
#1084=DIRECTION('',(0.,0.,-1.));
#1085=DIRECTION('',(-1.,0.,0.));
#1086=DIRECTION('',(1.,0.,0.));
#1087=DIRECTION('',(0.,-1.,0.));
#1088=DIRECTION('',(1.,0.,0.));
#1089=DIRECTION('',(0.,-1.,0.));
#1090=DIRECTION('',(0.,0.,-1.));
#1091=DIRECTION('',(0.,1.,0.));
#1092=DIRECTION('',(0.,0.,1.));
#1093=DIRECTION('',(0.,-1.,0.));
#1094=DIRECTION('',(0.,1.,0.));
#1095=DIRECTION('',(0.,0.,1.));
#1096=DIRECTION('',(0.707106781186547,0.,-0.707106781186548));
#1097=DIRECTION('',(-0.707106781186548,0.,-0.707106781186547));
#1098=DIRECTION('',(0.707106781186548,0.,0.707106781186547));
#1099=DIRECTION('',(0.,-1.,0.));
#1100=DIRECTION('',(0.707106781186548,0.,0.707106781186547));
#1101=DIRECTION('',(0.,-1.,0.));
#1102=DIRECTION('',(0.,0.,-1.));
#1103=DIRECTION('',(0.,1.,0.));
#1104=DIRECTION('',(0.,0.,1.));
#1105=DIRECTION('',(0.,-1.,0.));
#1106=DIRECTION('',(0.,1.,0.));
#1107=DIRECTION('',(0.,0.,1.));
#1108=DIRECTION('',(1.,0.,0.));
#1109=DIRECTION('',(0.,0.,-1.));
#1110=DIRECTION('',(0.,0.,1.));
#1111=DIRECTION('',(0.,-1.,0.));
#1112=DIRECTION('',(0.,0.,1.));
#1113=DIRECTION('',(0.,-1.,0.));
#1114=DIRECTION('',(0.,0.,-1.));
#1115=DIRECTION('',(0.,1.,0.));
#1116=DIRECTION('',(0.,0.,1.));
#1117=DIRECTION('',(0.,-1.,0.));
#1118=DIRECTION('',(0.,1.,0.));
#1119=DIRECTION('',(0.,0.,1.));
#1120=DIRECTION('',(0.,0.,1.));
#1121=DIRECTION('',(1.,0.,0.));
#1122=DIRECTION('',(-1.,0.,0.));
#1123=DIRECTION('',(0.,-1.,0.));
#1124=DIRECTION('',(-1.,0.,0.));
#1125=DIRECTION('',(0.,-1.,0.));
#1126=DIRECTION('',(0.,0.,-1.));
#1127=DIRECTION('',(0.,1.,0.));
#1128=DIRECTION('',(0.,0.,1.));
#1129=DIRECTION('',(0.,-1.,0.));
#1130=DIRECTION('',(0.,1.,0.));
#1131=DIRECTION('',(0.,0.,1.));
#1132=DIRECTION('',(-1.,0.,0.));
#1133=DIRECTION('',(0.,0.,1.));
#1134=DIRECTION('',(0.,0.,-1.));
#1135=DIRECTION('',(0.,-1.,0.));
#1136=DIRECTION('',(0.,0.,-1.));
#1137=DIRECTION('',(0.,-1.,0.));
#1138=DIRECTION('',(0.,0.,-1.));
#1139=DIRECTION('',(0.,1.,0.));
#1140=DIRECTION('',(0.,0.,1.));
#1141=DIRECTION('',(0.,-1.,0.));
#1142=DIRECTION('',(0.,1.,0.));
#1143=DIRECTION('',(0.,0.,1.));
#1144=DIRECTION('',(-2.494512630985E-16,0.,-1.));
#1145=DIRECTION('',(-1.,0.,2.494512630985E-16));
#1146=DIRECTION('',(1.,0.,-2.494512630985E-16));
#1147=DIRECTION('',(0.,-1.,0.));
#1148=DIRECTION('',(1.,0.,-2.494512630985E-16));
#1149=DIRECTION('',(0.,-1.,0.));
#1150=DIRECTION('',(0.,0.,-1.));
#1151=DIRECTION('',(0.,1.,0.));
#1152=DIRECTION('',(0.,0.,1.));
#1153=DIRECTION('',(0.,-1.,0.));
#1154=DIRECTION('',(0.,1.,0.));
#1155=DIRECTION('',(0.,0.,1.));
#1156=DIRECTION('',(1.,0.,0.));
#1157=DIRECTION('',(0.,0.,-1.));
#1158=DIRECTION('',(0.,0.,1.));
#1159=DIRECTION('',(0.,-1.,0.));
#1160=DIRECTION('',(0.,0.,1.));
#1161=DIRECTION('',(0.,-1.,0.));
#1162=DIRECTION('',(0.,0.,-1.));
#1163=DIRECTION('',(0.,1.,0.));
#1164=DIRECTION('',(0.,0.,1.));
#1165=DIRECTION('',(0.,-1.,0.));
#1166=DIRECTION('',(0.,1.,0.));
#1167=DIRECTION('',(0.,0.,1.));
#1168=DIRECTION('',(-0.539783923448428,0.,-0.841803608917556));
#1169=DIRECTION('',(-0.841803608917556,0.,0.539783923448428));
#1170=DIRECTION('',(0.841803608917556,0.,-0.539783923448428));
#1171=DIRECTION('',(0.841803608917556,0.,-0.539783923448428));
#1172=DIRECTION('',(0.,-1.,0.));
#1173=DIRECTION('',(0.,0.,-1.));
#1174=DIRECTION('',(0.,1.,0.));
#1175=DIRECTION('',(0.,0.,1.));
#1176=DIRECTION('',(0.,1.,0.));
#1177=DIRECTION('',(-1.,0.,0.));
#1178=DIRECTION('',(0.,-1.,0.));
#1179=DIRECTION('',(0.,0.,-1.));
#1180=DIRECTION('',(0.,-1.,0.));
#1181=DIRECTION('',(0.,0.,-1.));
#1182=DIRECTION('',(0.,1.,0.));
#1183=DIRECTION('',(0.,0.,1.));
#1184=DIRECTION('',(0.,1.,0.));
#1185=DIRECTION('',(-1.,0.,0.));
#1186=DIRECTION('',(0.,-1.,0.));
#1187=DIRECTION('',(0.,0.,-1.));
#1188=DIRECTION('',(0.,1.,0.));
#1189=DIRECTION('',(0.,0.,1.));
#1190=DIRECTION('',(0.,1.,0.));
#1191=DIRECTION('',(-1.,0.,0.));
#1192=DIRECTION('',(0.,-1.,0.));
#1193=DIRECTION('',(0.,0.,-1.));
#1194=DIRECTION('',(0.,1.,0.));
#1195=DIRECTION('',(0.,0.,1.));
#1196=DIRECTION('',(0.,1.,0.));
#1197=DIRECTION('',(-1.,0.,0.));
#1198=DIRECTION('',(0.,-1.,0.));
#1199=DIRECTION('',(0.,0.,-1.));
#1200=DIRECTION('',(0.,1.,0.));
#1201=DIRECTION('',(0.,0.,1.));
#1202=DIRECTION('',(0.,1.,0.));
#1203=DIRECTION('',(-1.,0.,0.));
#1204=DIRECTION('',(0.,-1.,0.));
#1205=DIRECTION('',(0.,0.,-1.));
#1206=DIRECTION('',(0.,1.,0.));
#1207=DIRECTION('',(0.,0.,1.));
#1208=DIRECTION('',(0.,1.,0.));
#1209=DIRECTION('',(-1.,0.,0.));
#1210=DIRECTION('',(0.,-1.,0.));
#1211=DIRECTION('',(0.,0.,-1.));
#1212=DIRECTION('',(0.,1.,0.));
#1213=DIRECTION('',(0.,0.,1.));
#1214=DIRECTION('',(0.,1.,0.));
#1215=DIRECTION('',(-1.,0.,0.));
#1216=CARTESIAN_POINT('',(0.,0.,0.));
#1217=CARTESIAN_POINT('',(-1.7347234759768E-18,-0.01465,0.029));
#1218=CARTESIAN_POINT('',(0.,-0.01465,0.0145));
#1219=CARTESIAN_POINT('',(0.,-0.01465,8.67361737988404E-18));
#1220=CARTESIAN_POINT('',(0.0145,-0.01465,0.0145));
#1221=CARTESIAN_POINT('',(-1.7347234759768E-18,-0.01465,0.));
#1222=CARTESIAN_POINT('',(0.0145,-0.01465,0.));
#1223=CARTESIAN_POINT('',(0.0145,-0.01465,0.029));
#1224=CARTESIAN_POINT('',(-1.7347234759768E-18,-0.01465,0.029));
#1225=CARTESIAN_POINT('',(0.,-0.01465,0.0145));
#1226=CARTESIAN_POINT('',(0.,-0.01465,0.029));
#1227=CARTESIAN_POINT('',(0.0145,-0.01465,0.029));
#1228=CARTESIAN_POINT('',(0.0145,-0.01465,0.029));
#1229=CARTESIAN_POINT('',(-1.7347234759768E-18,-0.01465,0.029));
#1230=CARTESIAN_POINT('',(-1.7347234759768E-18,-0.01465,0.029));
#1231=CARTESIAN_POINT('',(0.,-0.01465,0.0145));
#1232=CARTESIAN_POINT('',(-0.0145,-0.01465,0.0145));
#1233=CARTESIAN_POINT('',(-1.7347234759768E-18,-0.01465,0.029));
#1234=CARTESIAN_POINT('',(-0.0145,-0.01465,0.029));
#1235=CARTESIAN_POINT('',(-0.0145,-0.01465,0.029));
#1236=CARTESIAN_POINT('',(0.0145,0.,0.029));
#1237=CARTESIAN_POINT('',(0.0145,0.,0.));
#1238=CARTESIAN_POINT('',(0.0145,0.01465,0.));
#1239=CARTESIAN_POINT('',(0.0145,0.01465,0.029));
#1240=CARTESIAN_POINT('',(0.0145,0.01465,0.029));
#1241=CARTESIAN_POINT('',(0.0145,0.,0.029));
#1242=CARTESIAN_POINT('',(1.7347234759768E-18,0.01465,0.029));
#1243=CARTESIAN_POINT('',(-0.0104239489883184,0.01465,0.0076));
#1244=CARTESIAN_POINT('',(-0.0104239489883184,0.01465,0.0063019387986511));
#1245=CARTESIAN_POINT('',(-0.0104239489883184,0.01465,0.0088980612013489));
#1246=CARTESIAN_POINT('',(-0.00842394898831844,0.01465,0.0063019387986511));
#1247=CARTESIAN_POINT('',(-0.00842394898831844,0.01465,0.0043019387986511));
#1248=CARTESIAN_POINT('',(0.,0.01465,0.0043019387986511));
#1249=CARTESIAN_POINT('',(0.00842394898831845,0.01465,0.0043019387986511));
#1250=CARTESIAN_POINT('',(0.00842394898831844,0.01465,0.0063019387986511));
#1251=CARTESIAN_POINT('',(0.0104239489883184,0.01465,0.0063019387986511));
#1252=CARTESIAN_POINT('',(0.0104239489883184,0.01465,0.0076));
#1253=CARTESIAN_POINT('',(0.0104239489883184,0.01465,0.0088980612013489));
#1254=CARTESIAN_POINT('',(0.00842394898831844,0.01465,0.0088980612013489));
#1255=CARTESIAN_POINT('',(0.00842394898831844,0.01465,0.0108980612013489));
#1256=CARTESIAN_POINT('',(0.,0.01465,0.0108980612013489));
#1257=CARTESIAN_POINT('',(-0.00842394898831845,0.01465,0.0108980612013489));
#1258=CARTESIAN_POINT('',(-0.00842394898831844,0.01465,0.0088980612013489));
#1259=CARTESIAN_POINT('',(1.7347234759768E-18,0.01465,0.029));
#1260=CARTESIAN_POINT('',(-0.0062,0.01465,0.029));
#1261=CARTESIAN_POINT('',(-0.0145,0.01465,0.029));
#1262=CARTESIAN_POINT('',(-0.0062,0.01465,0.0222));
#1263=CARTESIAN_POINT('',(1.7347234759768E-18,0.01465,0.029));
#1264=CARTESIAN_POINT('',(1.7347234759768E-18,0.01465,0.));
#1265=CARTESIAN_POINT('',(-0.0145,0.01465,0.));
#1266=CARTESIAN_POINT('',(-0.0145,0.01465,0.029));
#1267=CARTESIAN_POINT('',(-0.0145,0.,0.029));
#1268=CARTESIAN_POINT('',(-0.0145,0.,0.));
#1269=CARTESIAN_POINT('',(-0.0145,-0.01465,0.));
#1270=CARTESIAN_POINT('',(-0.0145,-0.01465,0.029));
#1271=CARTESIAN_POINT('',(-0.0145,0.,0.029));
#1272=CARTESIAN_POINT('',(-1.7347234759768E-18,-0.01465,0.029));
#1273=CARTESIAN_POINT('',(0.,-0.01465,0.0145));
#1274=CARTESIAN_POINT('',(-1.7347234759768E-18,-0.01465,0.));
#1275=CARTESIAN_POINT('',(0.,0.,0.029));
#1276=CARTESIAN_POINT('',(0.,0.,0.));
#1277=CARTESIAN_POINT('',(0.,-0.02665,0.0145));
#1278=CARTESIAN_POINT('',(0.,-0.02665,0.0145));
#1279=CARTESIAN_POINT('',(0.,-0.02665,0.));
#1280=CARTESIAN_POINT('',(-1.7347234759768E-18,-0.02665,0.0145));
#1281=CARTESIAN_POINT('',(-0.0062,0.02155,0.0222));
#1282=CARTESIAN_POINT('',(-0.0062,0.02155,0.0222));
#1283=CARTESIAN_POINT('',(-0.0062,0.02155,0.028));
#1284=CARTESIAN_POINT('',(-0.0062,0.01465,0.0222));
#1285=CARTESIAN_POINT('',(-0.0062,0.01465,0.028));
#1286=CARTESIAN_POINT('',(-0.0062,0.02155,0.0222));
#1287=CARTESIAN_POINT('',(-0.0062,0.02155,0.0222));
#1288=CARTESIAN_POINT('',(-0.0062,0.02155,0.029));
#1289=CARTESIAN_POINT('',(0.,0.02155,0.0145));
#1290=CARTESIAN_POINT('',(1.7347234759768E-18,0.01465,0.029));
#1291=CARTESIAN_POINT('',(-0.0062,0.01465,0.024846420729678));
#1292=CARTESIAN_POINT('',(-0.0062,0.01465,0.024346420729678));
#1293=CARTESIAN_POINT('',(-0.00849186758100286,0.01465,0.023523210364839));
#1294=CARTESIAN_POINT('',(-0.00849186758100286,0.01465,0.023023210364839));
#1295=CARTESIAN_POINT('',(-0.00849186758100286,0.01465,0.020876789635161));
#1296=CARTESIAN_POINT('',(-0.00849186758100286,0.01465,0.020376789635161));
#1297=CARTESIAN_POINT('',(-0.0062,0.01465,0.0195535792703221));
#1298=CARTESIAN_POINT('',(-0.0062,0.01465,0.0190535792703221));
#1299=CARTESIAN_POINT('',(-0.00390813241899713,0.01465,0.020876789635161));
#1300=CARTESIAN_POINT('',(-0.00390813241899713,0.01465,0.020376789635161));
#1301=CARTESIAN_POINT('',(-0.00390813241899714,0.01465,0.023523210364839));
#1302=CARTESIAN_POINT('',(-0.00390813241899714,0.01465,0.023023210364839));
#1303=CARTESIAN_POINT('',(-0.0104239489883184,0.01565,0.0076));
#1304=CARTESIAN_POINT('',(-0.0104239489883184,0.01565,0.0088980612013489));
#1305=CARTESIAN_POINT('',(-0.0104239489883184,0.01565,0.0088980612013489));
#1306=CARTESIAN_POINT('',(-0.0104239489883184,0.01565,0.0076));
#1307=CARTESIAN_POINT('',(-0.0104239489883184,0.01565,0.0063019387986511));
#1308=CARTESIAN_POINT('',(-0.0104239489883184,0.01565,0.0063019387986511));
#1309=CARTESIAN_POINT('',(-0.00842394898831844,0.01565,0.0088980612013489));
#1310=CARTESIAN_POINT('',(-0.00842394898831845,0.01565,0.0108980612013489));
#1311=CARTESIAN_POINT('',(-0.00842394898831845,0.01565,0.0108980612013489));
#1312=CARTESIAN_POINT('',(-0.00842394898831844,0.01565,0.0088980612013489));
#1313=CARTESIAN_POINT('',(0.,0.01565,0.0108980612013489));
#1314=CARTESIAN_POINT('',(0.00842394898831844,0.01565,0.0108980612013489));
#1315=CARTESIAN_POINT('',(0.00842394898831844,0.01565,0.0108980612013489));
#1316=CARTESIAN_POINT('',(0.,0.01565,0.0108980612013489));
#1317=CARTESIAN_POINT('',(0.00842394898831844,0.01565,0.0088980612013489));
#1318=CARTESIAN_POINT('',(0.0104239489883184,0.01565,0.0088980612013489));
#1319=CARTESIAN_POINT('',(0.0104239489883184,0.01565,0.0088980612013489));
#1320=CARTESIAN_POINT('',(0.00842394898831844,0.01565,0.0088980612013489));
#1321=CARTESIAN_POINT('',(0.0104239489883184,0.01565,0.0076));
#1322=CARTESIAN_POINT('',(0.0104239489883184,0.01565,0.0063019387986511));
#1323=CARTESIAN_POINT('',(0.0104239489883184,0.01565,0.0063019387986511));
#1324=CARTESIAN_POINT('',(0.0104239489883184,0.01565,0.0076));
#1325=CARTESIAN_POINT('',(0.00842394898831844,0.01565,0.0063019387986511));
#1326=CARTESIAN_POINT('',(0.00842394898831845,0.01565,0.0043019387986511));
#1327=CARTESIAN_POINT('',(0.00842394898831845,0.01565,0.0043019387986511));
#1328=CARTESIAN_POINT('',(0.00842394898831844,0.01565,0.0063019387986511));
#1329=CARTESIAN_POINT('',(0.,0.01565,0.0043019387986511));
#1330=CARTESIAN_POINT('',(-0.00842394898831845,0.01565,0.0043019387986511));
#1331=CARTESIAN_POINT('',(-0.00842394898831845,0.01565,0.0043019387986511));
#1332=CARTESIAN_POINT('',(0.,0.01565,0.0043019387986511));
#1333=CARTESIAN_POINT('',(0.00132162885336289,0.01565,0.00685691968536701));
#1334=CARTESIAN_POINT('',(0.00132162885336289,0.01465,0.00685691968536701));
#1335=CARTESIAN_POINT('',(0.00132162885336288,0.01465,0.006456919685367));
#1336=CARTESIAN_POINT('',(0.00110571528398351,0.01465,0.00652019824179998));
#1337=CARTESIAN_POINT('',(0.00132162885336288,0.01565,0.006456919685367));
#1338=CARTESIAN_POINT('',(0.00132162885336288,0.01565,0.006456919685367));
#1339=CARTESIAN_POINT('',(0.00132162885336289,0.01565,0.00685691968536701));
#1340=CARTESIAN_POINT('',(0.00110571528398351,0.01565,0.00652019824179998));
#1341=CARTESIAN_POINT('',(0.00110571528398351,0.01565,0.00652019824179998));
#1342=CARTESIAN_POINT('',(0.00347514697595768,0.01565,0.006456919685367));
#1343=CARTESIAN_POINT('',(0.00347514697595768,0.01465,0.006456919685367));
#1344=CARTESIAN_POINT('',(0.00562866509855248,0.01465,0.006456919685367));
#1345=CARTESIAN_POINT('',(0.00562866509855248,0.01565,0.006456919685367));
#1346=CARTESIAN_POINT('',(0.00562866509855248,0.01565,0.006456919685367));
#1347=CARTESIAN_POINT('',(0.00347514697595768,0.01565,0.006456919685367));
#1348=CARTESIAN_POINT('',(0.00562866509855248,0.01565,0.006856919685367));
#1349=CARTESIAN_POINT('',(0.00562866509855248,0.01465,0.006856919685367));
#1350=CARTESIAN_POINT('',(0.00591150781102709,0.01465,0.00657407697289238));
#1351=CARTESIAN_POINT('',(0.00591150781102709,0.01565,0.00657407697289238));
#1352=CARTESIAN_POINT('',(0.00591150781102709,0.01565,0.00657407697289238));
#1353=CARTESIAN_POINT('',(0.00562866509855248,0.01565,0.006856919685367));
#1354=CARTESIAN_POINT('',(0.00659731263618179,0.01565,0.00725988179804708));
#1355=CARTESIAN_POINT('',(0.00659731263618179,0.01465,0.00725988179804708));
#1356=CARTESIAN_POINT('',(0.00728311746133649,0.01465,0.00794568662320177));
#1357=CARTESIAN_POINT('',(0.00728311746133649,0.01565,0.00794568662320177));
#1358=CARTESIAN_POINT('',(0.00728311746133649,0.01565,0.00794568662320177));
#1359=CARTESIAN_POINT('',(0.00659731263618179,0.01565,0.00725988179804708));
#1360=CARTESIAN_POINT('',(0.00700027474886188,0.01565,0.00822852933567639));
#1361=CARTESIAN_POINT('',(0.00700027474886188,0.01465,0.00822852933567639));
#1362=CARTESIAN_POINT('',(0.00740027474886187,0.01465,0.00822852933567639));
#1363=CARTESIAN_POINT('',(0.00740027474886187,0.01565,0.00822852933567639));
#1364=CARTESIAN_POINT('',(0.00740027474886187,0.01565,0.00822852933567639));
#1365=CARTESIAN_POINT('',(0.00700027474886188,0.01565,0.00822852933567639));
#1366=CARTESIAN_POINT('',(0.00740027474886187,0.01565,0.00867056953293998));
#1367=CARTESIAN_POINT('',(0.00740027474886187,0.01465,0.00867056953293998));
#1368=CARTESIAN_POINT('',(0.00740027474886187,0.01465,0.00911260973020358));
#1369=CARTESIAN_POINT('',(0.00740027474886187,0.01565,0.00911260973020358));
#1370=CARTESIAN_POINT('',(0.00740027474886187,0.01565,0.00911260973020358));
#1371=CARTESIAN_POINT('',(0.00740027474886187,0.01565,0.00867056953293998));
#1372=CARTESIAN_POINT('',(0.00700027474886187,0.01565,0.00911260973020358));
#1373=CARTESIAN_POINT('',(0.00700027474886187,0.01465,0.00911260973020358));
#1374=CARTESIAN_POINT('',(0.00700027474886187,0.01465,0.00951260973020358));
#1375=CARTESIAN_POINT('',(0.00700027474886187,0.01565,0.00951260973020358));
#1376=CARTESIAN_POINT('',(0.00700027474886187,0.01565,0.00951260973020358));
#1377=CARTESIAN_POINT('',(0.00700027474886187,0.01565,0.00911260973020358));
#1378=CARTESIAN_POINT('',(-0.000511837119728288,0.01565,0.00951260973020358));
#1379=CARTESIAN_POINT('',(-0.000511837119728288,0.01465,0.00951260973020358));
#1380=CARTESIAN_POINT('',(-0.00802394898831845,0.01465,0.00951260973020358));
#1381=CARTESIAN_POINT('',(-0.00802394898831845,0.01565,0.00951260973020358));
#1382=CARTESIAN_POINT('',(-0.00802394898831845,0.01565,0.00951260973020358));
#1383=CARTESIAN_POINT('',(-0.000511837119728288,0.01565,0.00951260973020358));
#1384=CARTESIAN_POINT('',(-0.00802394898831845,0.01565,0.00911260973020358));
#1385=CARTESIAN_POINT('',(-0.00802394898831845,0.01465,0.00911260973020358));
#1386=CARTESIAN_POINT('',(-0.00842394898831844,0.01465,0.00911260973020358));
#1387=CARTESIAN_POINT('',(-0.00842394898831844,0.01565,0.00911260973020358));
#1388=CARTESIAN_POINT('',(-0.00842394898831844,0.01565,0.00911260973020358));
#1389=CARTESIAN_POINT('',(-0.00802394898831845,0.01565,0.00911260973020358));
#1390=CARTESIAN_POINT('',(-0.00842394898831844,0.01565,0.00798476470778529));
#1391=CARTESIAN_POINT('',(-0.00842394898831844,0.01465,0.00798476470778529));
#1392=CARTESIAN_POINT('',(-0.00842394898831844,0.01465,0.006856919685367));
#1393=CARTESIAN_POINT('',(-0.00842394898831844,0.01565,0.006856919685367));
#1394=CARTESIAN_POINT('',(-0.00842394898831844,0.01565,0.006856919685367));
#1395=CARTESIAN_POINT('',(-0.00842394898831844,0.01565,0.00798476470778529));
#1396=CARTESIAN_POINT('',(-0.00802394898831845,0.01565,0.006856919685367));
#1397=CARTESIAN_POINT('',(-0.00802394898831845,0.01465,0.006856919685367));
#1398=CARTESIAN_POINT('',(-0.00802394898831845,0.01465,0.006456919685367));
#1399=CARTESIAN_POINT('',(-0.00802394898831845,0.01565,0.006456919685367));
#1400=CARTESIAN_POINT('',(-0.00802394898831845,0.01565,0.006456919685367));
#1401=CARTESIAN_POINT('',(-0.00802394898831845,0.01565,0.006856919685367));
#1402=CARTESIAN_POINT('',(-0.00454687003022991,0.01565,0.006456919685367));
#1403=CARTESIAN_POINT('',(-0.00454687003022991,0.01465,0.006456919685367));
#1404=CARTESIAN_POINT('',(-0.00106979107214138,0.01465,0.006456919685367));
#1405=CARTESIAN_POINT('',(-0.00106979107214138,0.01565,0.006456919685367));
#1406=CARTESIAN_POINT('',(-0.00106979107214138,0.01565,0.006456919685367));
#1407=CARTESIAN_POINT('',(-0.00454687003022991,0.01565,0.006456919685367));
#1408=CARTESIAN_POINT('',(-0.00106979107214138,0.01565,0.006856919685367));
#1409=CARTESIAN_POINT('',(-0.00106979107214138,0.01465,0.006856919685367));
#1410=CARTESIAN_POINT('',(-0.000669791072141379,0.01465,0.006856919685367));
#1411=CARTESIAN_POINT('',(-0.000669791072141379,0.01565,0.006856919685367));
#1412=CARTESIAN_POINT('',(-0.000669791072141379,0.01565,0.006856919685367));
#1413=CARTESIAN_POINT('',(-0.00106979107214138,0.01565,0.006856919685367));
#1414=CARTESIAN_POINT('',(-0.000669791072141379,0.01565,0.00689197708510813));
#1415=CARTESIAN_POINT('',(-0.000669791072141379,0.01465,0.00689197708510813));
#1416=CARTESIAN_POINT('',(-0.000669791072141379,0.01465,0.00692703448484926));
#1417=CARTESIAN_POINT('',(-0.000669791072141379,0.01565,0.00692703448484926));
#1418=CARTESIAN_POINT('',(-0.000669791072141379,0.01565,0.00692703448484926));
#1419=CARTESIAN_POINT('',(-0.000669791072141379,0.01565,0.00689197708510813));
#1420=CARTESIAN_POINT('',(-0.000269791072141381,0.01565,0.00692703448484926));
#1421=CARTESIAN_POINT('',(-0.000269791072141381,0.01465,0.00692703448484926));
#1422=CARTESIAN_POINT('',(-5.38775027620116E-5,0.01465,0.00726375592841628));
#1423=CARTESIAN_POINT('',(-5.38775027620115E-5,0.01565,0.00726375592841628));
#1424=CARTESIAN_POINT('',(-5.38775027620115E-5,0.01565,0.00726375592841628));
#1425=CARTESIAN_POINT('',(-0.000269791072141381,0.01565,0.00692703448484926));
#1426=CARTESIAN_POINT('',(0.000525918890610751,0.01565,0.00689197708510813));
#1427=CARTESIAN_POINT('',(0.000525918890610751,0.01465,0.00689197708510813));
#1428=CARTESIAN_POINT('',(0.000525918890610751,0.01565,0.00689197708510813));
#1429=CARTESIAN_POINT('',(-0.00842394898831844,0.01565,0.0063019387986511));
#1430=CARTESIAN_POINT('',(-0.00842394898831844,0.01565,0.0063019387986511));
#1431=CARTESIAN_POINT('',(0.,0.01565,0.0145));
#1432=CARTESIAN_POINT('',(1.7347234759768E-18,0.01465,0.029));
#1433=CARTESIAN_POINT('',(-0.00390813241899714,0.01965,0.023523210364839));
#1434=CARTESIAN_POINT('',(-0.00390813241899714,0.01965,0.023523210364839));
#1435=CARTESIAN_POINT('',(-0.00390813241899714,0.01965,0.024023210364839));
#1436=CARTESIAN_POINT('',(0.,0.01965,0.0145));
#1437=CARTESIAN_POINT('',(-0.00390813241899713,0.01965,0.020876789635161));
#1438=CARTESIAN_POINT('',(-0.00390813241899713,0.01965,0.020876789635161));
#1439=CARTESIAN_POINT('',(-0.00390813241899713,0.01965,0.021376789635161));
#1440=CARTESIAN_POINT('',(0.,0.01965,0.0145));
#1441=CARTESIAN_POINT('',(-0.0062,0.01965,0.0195535792703221));
#1442=CARTESIAN_POINT('',(-0.0062,0.01965,0.0195535792703221));
#1443=CARTESIAN_POINT('',(-0.0062,0.01965,0.0200535792703221));
#1444=CARTESIAN_POINT('',(0.,0.01965,0.0145));
#1445=CARTESIAN_POINT('',(-0.00849186758100286,0.01965,0.020876789635161));
#1446=CARTESIAN_POINT('',(-0.00849186758100286,0.01965,0.020876789635161));
#1447=CARTESIAN_POINT('',(-0.00849186758100286,0.01965,0.021376789635161));
#1448=CARTESIAN_POINT('',(0.,0.01965,0.0145));
#1449=CARTESIAN_POINT('',(-0.00849186758100286,0.01965,0.023523210364839));
#1450=CARTESIAN_POINT('',(-0.00849186758100286,0.01965,0.023523210364839));
#1451=CARTESIAN_POINT('',(-0.00849186758100286,0.01965,0.024023210364839));
#1452=CARTESIAN_POINT('',(0.,0.01965,0.0145));
#1453=CARTESIAN_POINT('',(-0.0062,0.01965,0.024846420729678));
#1454=CARTESIAN_POINT('',(-0.0062,0.01965,0.024846420729678));
#1455=CARTESIAN_POINT('',(-0.0062,0.01965,0.025346420729678));
#1456=CARTESIAN_POINT('',(0.,0.01965,0.0145));
#1457=MECHANICAL_DESIGN_GEOMETRIC_PRESENTATION_REPRESENTATION('',(#843),
#1458);
#1458=(
GEOMETRIC_REPRESENTATION_CONTEXT(3)
GLOBAL_UNCERTAINTY_ASSIGNED_CONTEXT((#1459))
GLOBAL_UNIT_ASSIGNED_CONTEXT((#1462,#1461,#1460))
REPRESENTATION_CONTEXT('Part 1','TOP_LEVEL_ASSEMBLY_PART')
);
#1459=UNCERTAINTY_MEASURE_WITH_UNIT(LENGTH_MEASURE(1.E-8),#1462,
'DISTANCE_ACCURACY_VALUE','Maximum Tolerance applied to model');
#1460=(
NAMED_UNIT(*)
SI_UNIT($,.STERADIAN.)
SOLID_ANGLE_UNIT()
);
#1461=(
NAMED_UNIT(*)
PLANE_ANGLE_UNIT()
SI_UNIT($,.RADIAN.)
);
#1462=(
LENGTH_UNIT()
NAMED_UNIT(*)
SI_UNIT($,.METRE.)
);
#1463=PRODUCT_DEFINITION_SHAPE('','',#1464);
#1464=PRODUCT_DEFINITION('','',#1466,#1465);
#1465=PRODUCT_DEFINITION_CONTEXT('',#1472,'design');
#1466=PRODUCT_DEFINITION_FORMATION_WITH_SPECIFIED_SOURCE('','',#1468,
 .NOT_KNOWN.);
#1467=PRODUCT_RELATED_PRODUCT_CATEGORY('','',(#1468));
#1468=PRODUCT('Part 1','Part 1','Part 1',(#1470));
#1469=PRODUCT_CATEGORY('','');
#1470=PRODUCT_CONTEXT('',#1472,'mechanical');
#1471=APPLICATION_PROTOCOL_DEFINITION('international standard',
'ap242_managed_model_based_3d_engineering',2020,#1472);
#1472=APPLICATION_CONTEXT('managed model based 3d engineering');
ENDSEC;
END-ISO-10303-21;
