ISO-10303-21;
HEADER;
/* Generated by software containing ST-Developer
 * from STEP Tools, Inc. (www.steptools.com) 
 */
/* OPTION: using custom renumber hook */

FILE_DESCRIPTION(
/* description */ ('STEP AP242 Edition 2',
'CAx-IF Rec.Pracs.---Representation and Presentation of Product Manufa
cturing Information (PMI)---4.0---2014-10-13',
'CAx-IF Rec.Pracs.---3D Tessellated Geometry---0.4---2014-09-14','2;1',
'CAx-IF Rec.Pracs.---User Defined Attributes---1.5---2016-08-15'),
/* implementation_level */ '2;1');

FILE_NAME(
/* name */ 'N-Metheus - Bottom Right Front',
/* time_stamp */ '2026-01-30T20:52:38Z',
/* author */ (''),
/* organization */ (''),
/* preprocessor_version */ 'ST-DEVELOPER v20',
/* originating_system */ 'ONSHAPE BY PTC INC, 1.210',
/* authorisation */ '  ');

FILE_SCHEMA (('AP242_MANAGED_MODEL_BASED_3D_ENGINEERING_MIM_LF { 1 0 10303 442 3 1 4 }'));
ENDSEC;

DATA;
#10=SHAPE_REPRESENTATION_RELATIONSHIP('','',#1253,#11);
#11=ADVANCED_BREP_SHAPE_REPRESENTATION('',(#1251),#2142);
#12=(
BOUNDED_SURFACE()
B_SPLINE_SURFACE(3,2,((#1942,#1943,#1944),(#1945,#1946,#1947),(#1948,#1949,
#1950),(#1951,#1952,#1953),(#1954,#1955,#1956),(#1957,#1958,#1959),(#1960,
#1961,#1962),(#1963,#1964,#1965)),.UNSPECIFIED.,.F.,.F.,.F.)
B_SPLINE_SURFACE_WITH_KNOTS((4,1,1,1,1,4),(3,3),(-1.78893358460108E-16,
0.00151575555027881,0.00303151110055779,0.00606302220111576,0.00909453330167373,
0.0121260444022317),(0.,1.),.UNSPECIFIED.)
GEOMETRIC_REPRESENTATION_ITEM()
RATIONAL_B_SPLINE_SURFACE(((1.,0.707106781186551,1.),(1.,0.711514439292096,
1.),(1.,0.734447036537595,1.),(1.,0.810565740164436,1.),(1.,0.90971662318134,
1.),(1.,0.983295243082679,1.),(1.,0.999999999999663,1.),(1.,1.,1.)))
REPRESENTATION_ITEM('')
SURFACE()
);
#13=(
BOUNDED_SURFACE()
B_SPLINE_SURFACE(3,2,((#1995,#1996,#1997),(#1998,#1999,#2000),(#2001,#2002,
#2003),(#2004,#2005,#2006),(#2007,#2008,#2009),(#2010,#2011,#2012),(#2013,
#2014,#2015),(#2016,#2017,#2018)),.UNSPECIFIED.,.F.,.F.,.F.)
B_SPLINE_SURFACE_WITH_KNOTS((4,1,1,1,1,4),(3,3),(7.02563007770607E-17,0.00151575555027908,
0.00303151110055809,0.0060630222011161,0.00909453330167411,0.0121260444022321),
(0.,1.),.UNSPECIFIED.)
GEOMETRIC_REPRESENTATION_ITEM()
RATIONAL_B_SPLINE_SURFACE(((1.,0.707106781186544,1.),(1.,0.711514439299998,
1.),(1.,0.734447036534023,1.),(1.,0.810565740166508,1.),(1.,0.909716623180627,
1.),(1.,0.983295243082889,1.),(1.,0.999999999999663,1.),(1.,1.,1.)))
REPRESENTATION_ITEM('')
SURFACE()
);
#14=TOROIDAL_SURFACE('',#1298,0.0204,0.005);
#15=TOROIDAL_SURFACE('',#1302,0.006,0.001);
#16=TOROIDAL_SURFACE('',#1307,0.005826,0.001);
#17=TOROIDAL_SURFACE('',#1312,0.006,0.001);
#18=ELLIPSE('',#1290,0.00176776695296637,0.00125);
#19=ELLIPSE('',#1293,0.00650538238691624,0.0046);
#20=ELLIPSE('',#1296,0.00650538238691624,0.0046);
#21=B_SPLINE_CURVE_WITH_KNOTS('',3,(#1849,#1850,#1851,#1852,#1853,#1854,
#1855,#1856,#1857,#1858,#1859),.UNSPECIFIED.,.T.,.F.,(1,1,1,1,1,1,1,1,1,
1,1,1,1,1,1),(-0.00845104411548189,-0.0056340293691035,-0.00281701462272512,
1.23653268184262E-10,0.00281701487003165,0.00563402961641004,0.00845104436278842,
0.0112680591091668,0.0140850738555452,0.0169020886019236,0.019719103348302,
0.0225361180946804,0.0253531328410587,0.0281701475874371,0.0309871623338155),
 .UNSPECIFIED.);
#22=B_SPLINE_CURVE_WITH_KNOTS('',3,(#1925,#1926,#1927,#1928,#1929,#1930,
#1931),.UNSPECIFIED.,.F.,.F.,(4,1,1,1,4),(0.,0.00268923395091273,0.00537846790182546,
0.00806770185273819,0.0107569358036509),.UNSPECIFIED.);
#23=B_SPLINE_CURVE_WITH_KNOTS('',3,(#1932,#1933,#1934,#1935,#1936,#1937,
#1938),.UNSPECIFIED.,.F.,.F.,(4,1,1,1,4),(0.,0.00268923395091263,0.00537846790182526,
0.00806770185273789,0.0107569358036505),.UNSPECIFIED.);
#24=B_SPLINE_CURVE_WITH_KNOTS('',3,(#1966,#1967,#1968,#1969,#1970,#1971,
#1972),.UNSPECIFIED.,.F.,.F.,(4,1,1,1,4),(0.,0.00266936168852436,0.00533872337704872,
0.00800808506557308,0.0106774467540974),.UNSPECIFIED.);
#25=B_SPLINE_CURVE_WITH_KNOTS('',3,(#2019,#2020,#2021,#2022,#2023,#2024,
#2025),.UNSPECIFIED.,.F.,.F.,(4,1,1,1,4),(0.,0.00266936168852445,0.0053387233770489,
0.00800808506557335,0.0106774467540978),.UNSPECIFIED.);
#26=B_SPLINE_CURVE_WITH_KNOTS('',3,(#2109,#2110,#2111,#2112,#2113,#2114,
#2115,#2116,#2117,#2118,#2119),.UNSPECIFIED.,.T.,.F.,(1,1,1,1,1,1,1,1,1,
1,1,1,1,1,1),(-0.00492518945724078,-0.00328345963816052,-0.00164172981908026,
0.,0.00164172981908026,0.00328345963816052,0.00492518945724078,0.00656691927632104,
0.0082086490954013,0.00985037891448156,0.0114921087335618,0.0131338385526421,
0.0147755683717223,0.0164172981908026,0.0180590280098829),.UNSPECIFIED.);
#27=CYLINDRICAL_SURFACE('',#1267,0.0254);
#28=CYLINDRICAL_SURFACE('',#1274,0.0254);
#29=CYLINDRICAL_SURFACE('',#1279,0.004826);
#30=CYLINDRICAL_SURFACE('',#1288,0.00125);
#31=CYLINDRICAL_SURFACE('',#1291,0.0046);
#32=CYLINDRICAL_SURFACE('',#1295,0.0046);
#33=CYLINDRICAL_SURFACE('',#1305,0.001);
#34=CYLINDRICAL_SURFACE('',#1310,0.001);
#35=CYLINDRICAL_SURFACE('',#1325,0.003175);
#36=CYLINDRICAL_SURFACE('',#1327,0.005);
#37=CYLINDRICAL_SURFACE('',#1331,0.006826);
#38=CYLINDRICAL_SURFACE('',#1334,0.005);
#39=CYLINDRICAL_SURFACE('',#1343,0.0294999999999962);
#40=CYLINDRICAL_SURFACE('',#1348,0.0021);
#41=CYLINDRICAL_SURFACE('',#1352,0.0036);
#42=CIRCLE('',#1262,0.0294999999999962);
#43=CIRCLE('',#1263,0.0254);
#44=CIRCLE('',#1268,0.0254);
#45=CIRCLE('',#1269,0.0254);
#46=CIRCLE('',#1270,0.0254);
#47=CIRCLE('',#1275,0.0254);
#48=CIRCLE('',#1276,0.0254);
#49=CIRCLE('',#1280,0.004826);
#50=CIRCLE('',#1281,0.004826);
#51=CIRCLE('',#1283,0.006);
#52=CIRCLE('',#1284,0.0204);
#53=CIRCLE('',#1285,0.006);
#54=CIRCLE('',#1286,0.005826);
#55=CIRCLE('',#1289,0.00125);
#56=CIRCLE('',#1292,0.0046);
#57=CIRCLE('',#1297,0.0046);
#58=CIRCLE('',#1300,0.003175);
#59=CIRCLE('',#1301,0.001);
#60=CIRCLE('',#1303,0.005);
#61=CIRCLE('',#1304,0.001);
#62=CIRCLE('',#1306,0.001);
#63=CIRCLE('',#1308,0.006826);
#64=CIRCLE('',#1309,0.001);
#65=CIRCLE('',#1311,0.001);
#66=CIRCLE('',#1313,0.005);
#67=CIRCLE('',#1314,0.001);
#68=CIRCLE('',#1316,0.005);
#69=CIRCLE('',#1326,0.003175);
#70=CIRCLE('',#1328,0.005);
#71=CIRCLE('',#1329,0.005);
#72=CIRCLE('',#1332,0.006826);
#73=CIRCLE('',#1335,0.005);
#74=CIRCLE('',#1344,0.0294999999999962);
#75=CIRCLE('',#1349,0.0021);
#76=CIRCLE('',#1351,0.0036);
#77=ORIENTED_EDGE('',*,*,#423,.F.);
#78=ORIENTED_EDGE('',*,*,#424,.T.);
#79=ORIENTED_EDGE('',*,*,#425,.T.);
#80=ORIENTED_EDGE('',*,*,#426,.F.);
#81=ORIENTED_EDGE('',*,*,#427,.T.);
#82=ORIENTED_EDGE('',*,*,#428,.F.);
#83=ORIENTED_EDGE('',*,*,#429,.F.);
#84=ORIENTED_EDGE('',*,*,#430,.T.);
#85=ORIENTED_EDGE('',*,*,#431,.T.);
#86=ORIENTED_EDGE('',*,*,#432,.T.);
#87=ORIENTED_EDGE('',*,*,#433,.F.);
#88=ORIENTED_EDGE('',*,*,#434,.F.);
#89=ORIENTED_EDGE('',*,*,#435,.F.);
#90=ORIENTED_EDGE('',*,*,#436,.T.);
#91=ORIENTED_EDGE('',*,*,#437,.T.);
#92=ORIENTED_EDGE('',*,*,#438,.F.);
#93=ORIENTED_EDGE('',*,*,#439,.F.);
#94=ORIENTED_EDGE('',*,*,#440,.F.);
#95=ORIENTED_EDGE('',*,*,#441,.T.);
#96=ORIENTED_EDGE('',*,*,#442,.T.);
#97=ORIENTED_EDGE('',*,*,#443,.T.);
#98=ORIENTED_EDGE('',*,*,#444,.F.);
#99=ORIENTED_EDGE('',*,*,#442,.F.);
#100=ORIENTED_EDGE('',*,*,#445,.T.);
#101=ORIENTED_EDGE('',*,*,#446,.F.);
#102=ORIENTED_EDGE('',*,*,#447,.T.);
#103=ORIENTED_EDGE('',*,*,#448,.T.);
#104=ORIENTED_EDGE('',*,*,#449,.T.);
#105=ORIENTED_EDGE('',*,*,#450,.F.);
#106=ORIENTED_EDGE('',*,*,#451,.F.);
#107=ORIENTED_EDGE('',*,*,#452,.T.);
#108=ORIENTED_EDGE('',*,*,#453,.T.);
#109=ORIENTED_EDGE('',*,*,#454,.F.);
#110=ORIENTED_EDGE('',*,*,#440,.T.);
#111=ORIENTED_EDGE('',*,*,#455,.F.);
#112=ORIENTED_EDGE('',*,*,#426,.T.);
#113=ORIENTED_EDGE('',*,*,#456,.T.);
#114=ORIENTED_EDGE('',*,*,#457,.F.);
#115=ORIENTED_EDGE('',*,*,#458,.T.);
#116=ORIENTED_EDGE('',*,*,#459,.T.);
#117=ORIENTED_EDGE('',*,*,#458,.F.);
#118=ORIENTED_EDGE('',*,*,#460,.T.);
#119=ORIENTED_EDGE('',*,*,#461,.T.);
#120=ORIENTED_EDGE('',*,*,#462,.F.);
#121=ORIENTED_EDGE('',*,*,#463,.F.);
#122=ORIENTED_EDGE('',*,*,#464,.T.);
#123=ORIENTED_EDGE('',*,*,#460,.F.);
#124=ORIENTED_EDGE('',*,*,#457,.T.);
#125=ORIENTED_EDGE('',*,*,#465,.T.);
#126=ORIENTED_EDGE('',*,*,#466,.F.);
#127=ORIENTED_EDGE('',*,*,#448,.F.);
#128=ORIENTED_EDGE('',*,*,#467,.T.);
#129=ORIENTED_EDGE('',*,*,#441,.F.);
#130=ORIENTED_EDGE('',*,*,#454,.T.);
#131=ORIENTED_EDGE('',*,*,#468,.F.);
#132=ORIENTED_EDGE('',*,*,#469,.T.);
#133=ORIENTED_EDGE('',*,*,#470,.T.);
#134=ORIENTED_EDGE('',*,*,#445,.F.);
#135=ORIENTED_EDGE('',*,*,#456,.F.);
#136=ORIENTED_EDGE('',*,*,#425,.F.);
#137=ORIENTED_EDGE('',*,*,#471,.T.);
#138=ORIENTED_EDGE('',*,*,#472,.T.);
#139=ORIENTED_EDGE('',*,*,#473,.T.);
#140=ORIENTED_EDGE('',*,*,#474,.T.);
#141=ORIENTED_EDGE('',*,*,#475,.T.);
#142=ORIENTED_EDGE('',*,*,#465,.F.);
#143=ORIENTED_EDGE('',*,*,#476,.F.);
#144=ORIENTED_EDGE('',*,*,#477,.T.);
#145=ORIENTED_EDGE('',*,*,#478,.T.);
#146=ORIENTED_EDGE('',*,*,#479,.F.);
#147=ORIENTED_EDGE('',*,*,#427,.F.);
#148=ORIENTED_EDGE('',*,*,#455,.T.);
#149=ORIENTED_EDGE('',*,*,#439,.T.);
#150=ORIENTED_EDGE('',*,*,#480,.F.);
#151=ORIENTED_EDGE('',*,*,#481,.T.);
#152=ORIENTED_EDGE('',*,*,#482,.F.);
#153=ORIENTED_EDGE('',*,*,#462,.T.);
#154=ORIENTED_EDGE('',*,*,#483,.F.);
#155=ORIENTED_EDGE('',*,*,#484,.T.);
#156=ORIENTED_EDGE('',*,*,#485,.T.);
#157=ORIENTED_EDGE('',*,*,#486,.T.);
#158=ORIENTED_EDGE('',*,*,#487,.T.);
#159=ORIENTED_EDGE('',*,*,#488,.F.);
#160=ORIENTED_EDGE('',*,*,#489,.T.);
#161=ORIENTED_EDGE('',*,*,#490,.T.);
#162=ORIENTED_EDGE('',*,*,#491,.T.);
#163=ORIENTED_EDGE('',*,*,#492,.F.);
#164=ORIENTED_EDGE('',*,*,#493,.T.);
#165=ORIENTED_EDGE('',*,*,#494,.F.);
#166=ORIENTED_EDGE('',*,*,#495,.T.);
#167=ORIENTED_EDGE('',*,*,#481,.F.);
#168=ORIENTED_EDGE('',*,*,#496,.F.);
#169=ORIENTED_EDGE('',*,*,#486,.F.);
#170=ORIENTED_EDGE('',*,*,#497,.F.);
#171=ORIENTED_EDGE('',*,*,#498,.T.);
#172=ORIENTED_EDGE('',*,*,#478,.F.);
#173=ORIENTED_EDGE('',*,*,#499,.T.);
#174=ORIENTED_EDGE('',*,*,#494,.T.);
#175=ORIENTED_EDGE('',*,*,#500,.F.);
#176=ORIENTED_EDGE('',*,*,#432,.F.);
#177=ORIENTED_EDGE('',*,*,#501,.T.);
#178=ORIENTED_EDGE('',*,*,#470,.F.);
#179=ORIENTED_EDGE('',*,*,#502,.T.);
#180=ORIENTED_EDGE('',*,*,#476,.T.);
#181=ORIENTED_EDGE('',*,*,#503,.T.);
#182=ORIENTED_EDGE('',*,*,#430,.F.);
#183=ORIENTED_EDGE('',*,*,#504,.F.);
#184=ORIENTED_EDGE('',*,*,#505,.F.);
#185=ORIENTED_EDGE('',*,*,#443,.F.);
#186=ORIENTED_EDGE('',*,*,#506,.T.);
#187=ORIENTED_EDGE('',*,*,#507,.F.);
#188=ORIENTED_EDGE('',*,*,#507,.T.);
#189=ORIENTED_EDGE('',*,*,#508,.T.);
#190=ORIENTED_EDGE('',*,*,#509,.T.);
#191=ORIENTED_EDGE('',*,*,#510,.T.);
#192=ORIENTED_EDGE('',*,*,#511,.T.);
#193=ORIENTED_EDGE('',*,*,#512,.T.);
#194=ORIENTED_EDGE('',*,*,#513,.T.);
#195=ORIENTED_EDGE('',*,*,#514,.F.);
#196=ORIENTED_EDGE('',*,*,#515,.T.);
#197=ORIENTED_EDGE('',*,*,#516,.T.);
#198=ORIENTED_EDGE('',*,*,#517,.T.);
#199=ORIENTED_EDGE('',*,*,#518,.T.);
#200=ORIENTED_EDGE('',*,*,#519,.F.);
#201=ORIENTED_EDGE('',*,*,#520,.F.);
#202=ORIENTED_EDGE('',*,*,#521,.F.);
#203=ORIENTED_EDGE('',*,*,#522,.F.);
#204=ORIENTED_EDGE('',*,*,#523,.F.);
#205=ORIENTED_EDGE('',*,*,#524,.F.);
#206=ORIENTED_EDGE('',*,*,#523,.T.);
#207=ORIENTED_EDGE('',*,*,#525,.T.);
#208=ORIENTED_EDGE('',*,*,#526,.T.);
#209=ORIENTED_EDGE('',*,*,#527,.F.);
#210=ORIENTED_EDGE('',*,*,#528,.F.);
#211=ORIENTED_EDGE('',*,*,#529,.F.);
#212=ORIENTED_EDGE('',*,*,#526,.F.);
#213=ORIENTED_EDGE('',*,*,#510,.F.);
#214=ORIENTED_EDGE('',*,*,#530,.T.);
#215=ORIENTED_EDGE('',*,*,#473,.F.);
#216=ORIENTED_EDGE('',*,*,#531,.T.);
#217=ORIENTED_EDGE('',*,*,#532,.T.);
#218=ORIENTED_EDGE('',*,*,#506,.F.);
#219=ORIENTED_EDGE('',*,*,#531,.F.);
#220=ORIENTED_EDGE('',*,*,#533,.F.);
#221=ORIENTED_EDGE('',*,*,#534,.F.);
#222=ORIENTED_EDGE('',*,*,#534,.T.);
#223=ORIENTED_EDGE('',*,*,#535,.F.);
#224=ORIENTED_EDGE('',*,*,#536,.F.);
#225=ORIENTED_EDGE('',*,*,#511,.F.);
#226=ORIENTED_EDGE('',*,*,#536,.T.);
#227=ORIENTED_EDGE('',*,*,#537,.F.);
#228=ORIENTED_EDGE('',*,*,#538,.F.);
#229=ORIENTED_EDGE('',*,*,#512,.F.);
#230=ORIENTED_EDGE('',*,*,#538,.T.);
#231=ORIENTED_EDGE('',*,*,#539,.F.);
#232=ORIENTED_EDGE('',*,*,#540,.F.);
#233=ORIENTED_EDGE('',*,*,#513,.F.);
#234=ORIENTED_EDGE('',*,*,#540,.T.);
#235=ORIENTED_EDGE('',*,*,#541,.F.);
#236=ORIENTED_EDGE('',*,*,#542,.F.);
#237=ORIENTED_EDGE('',*,*,#508,.F.);
#238=ORIENTED_EDGE('',*,*,#542,.T.);
#239=ORIENTED_EDGE('',*,*,#543,.F.);
#240=ORIENTED_EDGE('',*,*,#544,.F.);
#241=ORIENTED_EDGE('',*,*,#509,.F.);
#242=ORIENTED_EDGE('',*,*,#545,.F.);
#243=ORIENTED_EDGE('',*,*,#530,.F.);
#244=ORIENTED_EDGE('',*,*,#544,.T.);
#245=ORIENTED_EDGE('',*,*,#449,.F.);
#246=ORIENTED_EDGE('',*,*,#466,.T.);
#247=ORIENTED_EDGE('',*,*,#475,.F.);
#248=ORIENTED_EDGE('',*,*,#546,.F.);
#249=ORIENTED_EDGE('',*,*,#547,.T.);
#250=ORIENTED_EDGE('',*,*,#548,.F.);
#251=ORIENTED_EDGE('',*,*,#492,.T.);
#252=ORIENTED_EDGE('',*,*,#549,.T.);
#253=ORIENTED_EDGE('',*,*,#517,.F.);
#254=ORIENTED_EDGE('',*,*,#550,.F.);
#255=ORIENTED_EDGE('',*,*,#514,.T.);
#256=ORIENTED_EDGE('',*,*,#549,.F.);
#257=ORIENTED_EDGE('',*,*,#491,.F.);
#258=ORIENTED_EDGE('',*,*,#551,.F.);
#259=ORIENTED_EDGE('',*,*,#515,.F.);
#260=ORIENTED_EDGE('',*,*,#550,.T.);
#261=ORIENTED_EDGE('',*,*,#490,.F.);
#262=ORIENTED_EDGE('',*,*,#552,.F.);
#263=ORIENTED_EDGE('',*,*,#520,.T.);
#264=ORIENTED_EDGE('',*,*,#524,.T.);
#265=ORIENTED_EDGE('',*,*,#529,.T.);
#266=ORIENTED_EDGE('',*,*,#553,.T.);
#267=ORIENTED_EDGE('',*,*,#493,.F.);
#268=ORIENTED_EDGE('',*,*,#548,.T.);
#269=ORIENTED_EDGE('',*,*,#516,.F.);
#270=ORIENTED_EDGE('',*,*,#551,.T.);
#271=ORIENTED_EDGE('',*,*,#489,.F.);
#272=ORIENTED_EDGE('',*,*,#518,.F.);
#273=ORIENTED_EDGE('',*,*,#554,.T.);
#274=ORIENTED_EDGE('',*,*,#521,.T.);
#275=ORIENTED_EDGE('',*,*,#552,.T.);
#276=ORIENTED_EDGE('',*,*,#488,.T.);
#277=ORIENTED_EDGE('',*,*,#525,.F.);
#278=ORIENTED_EDGE('',*,*,#522,.T.);
#279=ORIENTED_EDGE('',*,*,#554,.F.);
#280=ORIENTED_EDGE('',*,*,#487,.F.);
#281=ORIENTED_EDGE('',*,*,#555,.F.);
#282=ORIENTED_EDGE('',*,*,#527,.T.);
#283=ORIENTED_EDGE('',*,*,#519,.T.);
#284=ORIENTED_EDGE('',*,*,#556,.F.);
#285=ORIENTED_EDGE('',*,*,#483,.T.);
#286=ORIENTED_EDGE('',*,*,#461,.F.);
#287=ORIENTED_EDGE('',*,*,#467,.F.);
#288=ORIENTED_EDGE('',*,*,#447,.F.);
#289=ORIENTED_EDGE('',*,*,#557,.F.);
#290=ORIENTED_EDGE('',*,*,#558,.T.);
#291=ORIENTED_EDGE('',*,*,#559,.T.);
#292=ORIENTED_EDGE('',*,*,#553,.F.);
#293=ORIENTED_EDGE('',*,*,#528,.T.);
#294=ORIENTED_EDGE('',*,*,#555,.T.);
#295=ORIENTED_EDGE('',*,*,#496,.T.);
#296=ORIENTED_EDGE('',*,*,#532,.F.);
#297=ORIENTED_EDGE('',*,*,#560,.T.);
#298=ORIENTED_EDGE('',*,*,#561,.F.);
#299=ORIENTED_EDGE('',*,*,#562,.F.);
#300=ORIENTED_EDGE('',*,*,#563,.F.);
#301=ORIENTED_EDGE('',*,*,#535,.T.);
#302=ORIENTED_EDGE('',*,*,#533,.T.);
#303=ORIENTED_EDGE('',*,*,#472,.F.);
#304=ORIENTED_EDGE('',*,*,#564,.T.);
#305=ORIENTED_EDGE('',*,*,#565,.F.);
#306=ORIENTED_EDGE('',*,*,#537,.T.);
#307=ORIENTED_EDGE('',*,*,#563,.T.);
#308=ORIENTED_EDGE('',*,*,#566,.F.);
#309=ORIENTED_EDGE('',*,*,#567,.F.);
#310=ORIENTED_EDGE('',*,*,#539,.T.);
#311=ORIENTED_EDGE('',*,*,#565,.T.);
#312=ORIENTED_EDGE('',*,*,#568,.T.);
#313=ORIENTED_EDGE('',*,*,#569,.T.);
#314=ORIENTED_EDGE('',*,*,#541,.T.);
#315=ORIENTED_EDGE('',*,*,#567,.T.);
#316=ORIENTED_EDGE('',*,*,#570,.T.);
#317=ORIENTED_EDGE('',*,*,#571,.F.);
#318=ORIENTED_EDGE('',*,*,#546,.T.);
#319=ORIENTED_EDGE('',*,*,#474,.F.);
#320=ORIENTED_EDGE('',*,*,#545,.T.);
#321=ORIENTED_EDGE('',*,*,#543,.T.);
#322=ORIENTED_EDGE('',*,*,#569,.F.);
#323=ORIENTED_EDGE('',*,*,#572,.F.);
#324=ORIENTED_EDGE('',*,*,#573,.T.);
#325=ORIENTED_EDGE('',*,*,#450,.T.);
#326=ORIENTED_EDGE('',*,*,#547,.F.);
#327=ORIENTED_EDGE('',*,*,#571,.T.);
#328=ORIENTED_EDGE('',*,*,#556,.T.);
#329=ORIENTED_EDGE('',*,*,#574,.T.);
#330=ORIENTED_EDGE('',*,*,#575,.F.);
#331=ORIENTED_EDGE('',*,*,#484,.F.);
#332=ORIENTED_EDGE('',*,*,#576,.T.);
#333=ORIENTED_EDGE('',*,*,#504,.T.);
#334=ORIENTED_EDGE('',*,*,#429,.T.);
#335=ORIENTED_EDGE('',*,*,#500,.T.);
#336=ORIENTED_EDGE('',*,*,#497,.T.);
#337=ORIENTED_EDGE('',*,*,#485,.F.);
#338=ORIENTED_EDGE('',*,*,#575,.T.);
#339=ORIENTED_EDGE('',*,*,#577,.F.);
#340=ORIENTED_EDGE('',*,*,#578,.F.);
#341=ORIENTED_EDGE('',*,*,#579,.T.);
#342=ORIENTED_EDGE('',*,*,#451,.T.);
#343=ORIENTED_EDGE('',*,*,#573,.F.);
#344=ORIENTED_EDGE('',*,*,#572,.T.);
#345=ORIENTED_EDGE('',*,*,#570,.F.);
#346=ORIENTED_EDGE('',*,*,#568,.F.);
#347=ORIENTED_EDGE('',*,*,#566,.T.);
#348=ORIENTED_EDGE('',*,*,#562,.T.);
#349=ORIENTED_EDGE('',*,*,#580,.F.);
#350=ORIENTED_EDGE('',*,*,#434,.T.);
#351=ORIENTED_EDGE('',*,*,#581,.F.);
#352=ORIENTED_EDGE('',*,*,#560,.F.);
#353=ORIENTED_EDGE('',*,*,#582,.F.);
#354=ORIENTED_EDGE('',*,*,#435,.T.);
#355=ORIENTED_EDGE('',*,*,#580,.T.);
#356=ORIENTED_EDGE('',*,*,#561,.T.);
#357=ORIENTED_EDGE('',*,*,#436,.F.);
#358=ORIENTED_EDGE('',*,*,#582,.T.);
#359=ORIENTED_EDGE('',*,*,#564,.F.);
#360=ORIENTED_EDGE('',*,*,#471,.F.);
#361=ORIENTED_EDGE('',*,*,#424,.F.);
#362=ORIENTED_EDGE('',*,*,#583,.F.);
#363=ORIENTED_EDGE('',*,*,#431,.F.);
#364=ORIENTED_EDGE('',*,*,#503,.F.);
#365=ORIENTED_EDGE('',*,*,#479,.T.);
#366=ORIENTED_EDGE('',*,*,#501,.F.);
#367=ORIENTED_EDGE('',*,*,#584,.F.);
#368=ORIENTED_EDGE('',*,*,#428,.T.);
#369=ORIENTED_EDGE('',*,*,#480,.T.);
#370=ORIENTED_EDGE('',*,*,#438,.T.);
#371=ORIENTED_EDGE('',*,*,#452,.F.);
#372=ORIENTED_EDGE('',*,*,#585,.F.);
#373=ORIENTED_EDGE('',*,*,#586,.T.);
#374=ORIENTED_EDGE('',*,*,#587,.T.);
#375=ORIENTED_EDGE('',*,*,#588,.T.);
#376=ORIENTED_EDGE('',*,*,#453,.F.);
#377=ORIENTED_EDGE('',*,*,#587,.F.);
#378=ORIENTED_EDGE('',*,*,#589,.T.);
#379=ORIENTED_EDGE('',*,*,#468,.T.);
#380=ORIENTED_EDGE('',*,*,#459,.F.);
#381=ORIENTED_EDGE('',*,*,#464,.F.);
#382=ORIENTED_EDGE('',*,*,#590,.T.);
#383=ORIENTED_EDGE('',*,*,#585,.T.);
#384=ORIENTED_EDGE('',*,*,#589,.F.);
#385=ORIENTED_EDGE('',*,*,#586,.F.);
#386=ORIENTED_EDGE('',*,*,#590,.F.);
#387=ORIENTED_EDGE('',*,*,#463,.T.);
#388=ORIENTED_EDGE('',*,*,#482,.T.);
#389=ORIENTED_EDGE('',*,*,#495,.F.);
#390=ORIENTED_EDGE('',*,*,#499,.F.);
#391=ORIENTED_EDGE('',*,*,#477,.F.);
#392=ORIENTED_EDGE('',*,*,#502,.F.);
#393=ORIENTED_EDGE('',*,*,#469,.F.);
#394=ORIENTED_EDGE('',*,*,#588,.F.);
#395=ORIENTED_EDGE('',*,*,#591,.F.);
#396=ORIENTED_EDGE('',*,*,#591,.T.);
#397=ORIENTED_EDGE('',*,*,#592,.F.);
#398=ORIENTED_EDGE('',*,*,#592,.T.);
#399=ORIENTED_EDGE('',*,*,#498,.F.);
#400=ORIENTED_EDGE('',*,*,#574,.F.);
#401=ORIENTED_EDGE('',*,*,#559,.F.);
#402=ORIENTED_EDGE('',*,*,#593,.T.);
#403=ORIENTED_EDGE('',*,*,#577,.T.);
#404=ORIENTED_EDGE('',*,*,#446,.T.);
#405=ORIENTED_EDGE('',*,*,#579,.F.);
#406=ORIENTED_EDGE('',*,*,#594,.F.);
#407=ORIENTED_EDGE('',*,*,#557,.T.);
#408=ORIENTED_EDGE('',*,*,#593,.F.);
#409=ORIENTED_EDGE('',*,*,#558,.F.);
#410=ORIENTED_EDGE('',*,*,#594,.T.);
#411=ORIENTED_EDGE('',*,*,#578,.T.);
#412=ORIENTED_EDGE('',*,*,#583,.T.);
#413=ORIENTED_EDGE('',*,*,#595,.F.);
#414=ORIENTED_EDGE('',*,*,#581,.T.);
#415=ORIENTED_EDGE('',*,*,#433,.T.);
#416=ORIENTED_EDGE('',*,*,#444,.T.);
#417=ORIENTED_EDGE('',*,*,#505,.T.);
#418=ORIENTED_EDGE('',*,*,#576,.F.);
#419=ORIENTED_EDGE('',*,*,#595,.T.);
#420=ORIENTED_EDGE('',*,*,#423,.T.);
#421=ORIENTED_EDGE('',*,*,#584,.T.);
#422=ORIENTED_EDGE('',*,*,#437,.F.);
#423=EDGE_CURVE('',#596,#597,#711,.T.);
#424=EDGE_CURVE('',#596,#598,#712,.T.);
#425=EDGE_CURVE('',#598,#599,#713,.F.);
#426=EDGE_CURVE('',#600,#599,#714,.T.);
#427=EDGE_CURVE('',#600,#601,#715,.T.);
#428=EDGE_CURVE('',#597,#601,#716,.T.);
#429=EDGE_CURVE('',#602,#603,#717,.T.);
#430=EDGE_CURVE('',#602,#604,#718,.T.);
#431=EDGE_CURVE('',#604,#605,#719,.T.);
#432=EDGE_CURVE('',#605,#603,#720,.T.);
#433=EDGE_CURVE('',#606,#607,#721,.T.);
#434=EDGE_CURVE('',#608,#606,#722,.T.);
#435=EDGE_CURVE('',#609,#608,#723,.T.);
#436=EDGE_CURVE('',#609,#607,#724,.T.);
#437=EDGE_CURVE('',#610,#611,#725,.T.);
#438=EDGE_CURVE('',#612,#611,#726,.T.);
#439=EDGE_CURVE('',#613,#612,#727,.T.);
#440=EDGE_CURVE('',#614,#613,#728,.T.);
#441=EDGE_CURVE('',#614,#615,#729,.T.);
#442=EDGE_CURVE('',#615,#610,#730,.T.);
#443=EDGE_CURVE('',#616,#617,#731,.T.);
#444=EDGE_CURVE('',#610,#617,#732,.T.);
#445=EDGE_CURVE('',#615,#616,#733,.T.);
#446=EDGE_CURVE('',#618,#619,#734,.T.);
#447=EDGE_CURVE('',#618,#620,#735,.T.);
#448=EDGE_CURVE('',#620,#621,#736,.T.);
#449=EDGE_CURVE('',#621,#622,#737,.T.);
#450=EDGE_CURVE('',#623,#622,#738,.T.);
#451=EDGE_CURVE('',#619,#623,#739,.T.);
#452=EDGE_CURVE('',#624,#625,#42,.T.);
#453=EDGE_CURVE('',#625,#626,#740,.T.);
#454=EDGE_CURVE('',#614,#626,#741,.T.);
#455=EDGE_CURVE('',#600,#613,#742,.T.);
#456=EDGE_CURVE('',#599,#627,#43,.F.);
#457=EDGE_CURVE('',#628,#627,#743,.T.);
#458=EDGE_CURVE('',#628,#629,#744,.T.);
#459=EDGE_CURVE('',#629,#624,#745,.T.);
#460=EDGE_CURVE('',#628,#630,#746,.T.);
#461=EDGE_CURVE('',#630,#631,#747,.T.);
#462=EDGE_CURVE('',#632,#631,#748,.T.);
#463=EDGE_CURVE('',#633,#632,#749,.T.);
#464=EDGE_CURVE('',#633,#629,#750,.T.);
#465=EDGE_CURVE('',#627,#634,#751,.T.);
#466=EDGE_CURVE('',#621,#634,#752,.T.);
#467=EDGE_CURVE('',#620,#630,#753,.T.);
#468=EDGE_CURVE('',#635,#626,#754,.T.);
#469=EDGE_CURVE('',#635,#636,#755,.T.);
#470=EDGE_CURVE('',#636,#616,#756,.T.);
#471=EDGE_CURVE('',#598,#637,#44,.F.);
#472=EDGE_CURVE('',#637,#638,#757,.F.);
#473=EDGE_CURVE('',#638,#639,#45,.F.);
#474=EDGE_CURVE('',#639,#640,#758,.T.);
#475=EDGE_CURVE('',#640,#634,#46,.F.);
#476=EDGE_CURVE('',#641,#642,#759,.T.);
#477=EDGE_CURVE('',#641,#643,#760,.T.);
#478=EDGE_CURVE('',#643,#644,#761,.T.);
#479=EDGE_CURVE('',#642,#644,#762,.T.);
#480=EDGE_CURVE('',#601,#612,#763,.T.);
#481=EDGE_CURVE('',#645,#646,#764,.F.);
#482=EDGE_CURVE('',#632,#646,#765,.T.);
#483=EDGE_CURVE('',#647,#631,#766,.T.);
#484=EDGE_CURVE('',#647,#648,#767,.T.);
#485=EDGE_CURVE('',#648,#649,#768,.T.);
#486=EDGE_CURVE('',#649,#650,#769,.F.);
#487=EDGE_CURVE('',#650,#651,#770,.T.);
#488=EDGE_CURVE('',#652,#651,#771,.T.);
#489=EDGE_CURVE('',#652,#653,#772,.T.);
#490=EDGE_CURVE('',#653,#654,#773,.T.);
#491=EDGE_CURVE('',#654,#655,#774,.T.);
#492=EDGE_CURVE('',#656,#655,#775,.T.);
#493=EDGE_CURVE('',#656,#645,#776,.T.);
#494=EDGE_CURVE('',#657,#658,#777,.T.);
#495=EDGE_CURVE('',#657,#646,#47,.F.);
#496=EDGE_CURVE('',#650,#645,#778,.F.);
#497=EDGE_CURVE('',#658,#649,#48,.F.);
#498=EDGE_CURVE('',#659,#659,#21,.T.);
#499=EDGE_CURVE('',#643,#657,#779,.T.);
#500=EDGE_CURVE('',#603,#658,#780,.T.);
#501=EDGE_CURVE('',#605,#644,#781,.T.);
#502=EDGE_CURVE('',#636,#641,#782,.T.);
#503=EDGE_CURVE('',#642,#604,#783,.T.);
#504=EDGE_CURVE('',#660,#602,#784,.T.);
#505=EDGE_CURVE('',#617,#660,#785,.T.);
#506=EDGE_CURVE('',#661,#661,#49,.T.);
#507=EDGE_CURVE('',#662,#662,#50,.T.);
#508=EDGE_CURVE('',#663,#664,#786,.T.);
#509=EDGE_CURVE('',#664,#665,#51,.F.);
#510=EDGE_CURVE('',#665,#666,#52,.T.);
#511=EDGE_CURVE('',#666,#667,#53,.F.);
#512=EDGE_CURVE('',#667,#668,#787,.F.);
#513=EDGE_CURVE('',#668,#663,#54,.T.);
#514=EDGE_CURVE('',#669,#670,#788,.T.);
#515=EDGE_CURVE('',#669,#671,#789,.T.);
#516=EDGE_CURVE('',#671,#672,#790,.T.);
#517=EDGE_CURVE('',#672,#670,#791,.T.);
#518=EDGE_CURVE('',#673,#673,#55,.T.);
#519=EDGE_CURVE('',#674,#674,#18,.F.);
#520=EDGE_CURVE('',#675,#676,#56,.T.);
#521=EDGE_CURVE('',#677,#675,#792,.F.);
#522=EDGE_CURVE('',#678,#677,#19,.T.);
#523=EDGE_CURVE('',#676,#678,#793,.T.);
#524=EDGE_CURVE('',#676,#679,#794,.T.);
#525=EDGE_CURVE('',#678,#680,#795,.T.);
#526=EDGE_CURVE('',#680,#679,#796,.T.);
#527=EDGE_CURVE('',#681,#680,#20,.T.);
#528=EDGE_CURVE('',#682,#681,#797,.F.);
#529=EDGE_CURVE('',#679,#682,#57,.T.);
#530=EDGE_CURVE('',#665,#639,#22,.T.);
#531=EDGE_CURVE('',#638,#666,#23,.F.);
#532=EDGE_CURVE('',#683,#683,#58,.T.);
#533=EDGE_CURVE('',#684,#638,#24,.T.);
#534=EDGE_CURVE('',#666,#684,#59,.T.);
#535=EDGE_CURVE('',#685,#684,#60,.T.);
#536=EDGE_CURVE('',#667,#685,#61,.T.);
#537=EDGE_CURVE('',#686,#685,#798,.T.);
#538=EDGE_CURVE('',#668,#686,#62,.T.);
#539=EDGE_CURVE('',#687,#686,#63,.F.);
#540=EDGE_CURVE('',#663,#687,#64,.T.);
#541=EDGE_CURVE('',#688,#687,#799,.F.);
#542=EDGE_CURVE('',#664,#688,#65,.T.);
#543=EDGE_CURVE('',#689,#688,#66,.T.);
#544=EDGE_CURVE('',#665,#689,#67,.T.);
#545=EDGE_CURVE('',#639,#689,#25,.F.);
#546=EDGE_CURVE('',#690,#640,#68,.F.);
#547=EDGE_CURVE('',#690,#622,#800,.T.);
#548=EDGE_CURVE('',#656,#672,#801,.T.);
#549=EDGE_CURVE('',#655,#670,#802,.T.);
#550=EDGE_CURVE('',#669,#654,#803,.F.);
#551=EDGE_CURVE('',#671,#653,#804,.F.);
#552=EDGE_CURVE('',#675,#652,#805,.T.);
#553=EDGE_CURVE('',#682,#645,#806,.T.);
#554=EDGE_CURVE('',#651,#677,#807,.F.);
#555=EDGE_CURVE('',#681,#650,#808,.F.);
#556=EDGE_CURVE('',#647,#691,#809,.T.);
#557=EDGE_CURVE('',#692,#618,#810,.T.);
#558=EDGE_CURVE('',#692,#693,#811,.T.);
#559=EDGE_CURVE('',#693,#691,#812,.T.);
#560=EDGE_CURVE('',#694,#694,#69,.F.);
#561=EDGE_CURVE('',#695,#696,#813,.F.);
#562=EDGE_CURVE('',#697,#695,#70,.T.);
#563=EDGE_CURVE('',#685,#697,#814,.T.);
#564=EDGE_CURVE('',#637,#696,#71,.F.);
#565=EDGE_CURVE('',#686,#698,#815,.T.);
#566=EDGE_CURVE('',#698,#697,#816,.T.);
#567=EDGE_CURVE('',#687,#699,#817,.T.);
#568=EDGE_CURVE('',#698,#699,#72,.T.);
#569=EDGE_CURVE('',#700,#688,#818,.T.);
#570=EDGE_CURVE('',#699,#700,#819,.T.);
#571=EDGE_CURVE('',#690,#701,#820,.T.);
#572=EDGE_CURVE('',#701,#700,#73,.T.);
#573=EDGE_CURVE('',#701,#623,#821,.T.);
#574=EDGE_CURVE('',#691,#702,#822,.T.);
#575=EDGE_CURVE('',#648,#702,#823,.T.);
#576=EDGE_CURVE('',#703,#660,#824,.T.);
#577=EDGE_CURVE('',#704,#702,#825,.T.);
#578=EDGE_CURVE('',#705,#704,#826,.T.);
#579=EDGE_CURVE('',#705,#619,#827,.T.);
#580=EDGE_CURVE('',#608,#695,#828,.T.);
#581=EDGE_CURVE('',#703,#606,#829,.T.);
#582=EDGE_CURVE('',#609,#696,#830,.T.);
#583=EDGE_CURVE('',#607,#596,#831,.T.);
#584=EDGE_CURVE('',#597,#611,#832,.T.);
#585=EDGE_CURVE('',#706,#624,#833,.F.);
#586=EDGE_CURVE('',#706,#707,#74,.T.);
#587=EDGE_CURVE('',#707,#625,#834,.T.);
#588=EDGE_CURVE('',#708,#708,#26,.T.);
#589=EDGE_CURVE('',#707,#635,#835,.T.);
#590=EDGE_CURVE('',#633,#706,#836,.T.);
#591=EDGE_CURVE('',#709,#709,#75,.T.);
#592=EDGE_CURVE('',#710,#710,#76,.T.);
#593=EDGE_CURVE('',#693,#704,#837,.T.);
#594=EDGE_CURVE('',#692,#705,#838,.T.);
#595=EDGE_CURVE('',#703,#596,#839,.T.);
#596=VERTEX_POINT('',#1698);
#597=VERTEX_POINT('',#1699);
#598=VERTEX_POINT('',#1701);
#599=VERTEX_POINT('',#1703);
#600=VERTEX_POINT('',#1705);
#601=VERTEX_POINT('',#1707);
#602=VERTEX_POINT('',#1711);
#603=VERTEX_POINT('',#1712);
#604=VERTEX_POINT('',#1714);
#605=VERTEX_POINT('',#1716);
#606=VERTEX_POINT('',#1720);
#607=VERTEX_POINT('',#1721);
#608=VERTEX_POINT('',#1723);
#609=VERTEX_POINT('',#1725);
#610=VERTEX_POINT('',#1729);
#611=VERTEX_POINT('',#1730);
#612=VERTEX_POINT('',#1732);
#613=VERTEX_POINT('',#1734);
#614=VERTEX_POINT('',#1736);
#615=VERTEX_POINT('',#1738);
#616=VERTEX_POINT('',#1742);
#617=VERTEX_POINT('',#1743);
#618=VERTEX_POINT('',#1748);
#619=VERTEX_POINT('',#1749);
#620=VERTEX_POINT('',#1751);
#621=VERTEX_POINT('',#1753);
#622=VERTEX_POINT('',#1755);
#623=VERTEX_POINT('',#1757);
#624=VERTEX_POINT('',#1761);
#625=VERTEX_POINT('',#1762);
#626=VERTEX_POINT('',#1764);
#627=VERTEX_POINT('',#1768);
#628=VERTEX_POINT('',#1770);
#629=VERTEX_POINT('',#1772);
#630=VERTEX_POINT('',#1776);
#631=VERTEX_POINT('',#1778);
#632=VERTEX_POINT('',#1780);
#633=VERTEX_POINT('',#1782);
#634=VERTEX_POINT('',#1786);
#635=VERTEX_POINT('',#1791);
#636=VERTEX_POINT('',#1793);
#637=VERTEX_POINT('',#1797);
#638=VERTEX_POINT('',#1799);
#639=VERTEX_POINT('',#1801);
#640=VERTEX_POINT('',#1803);
#641=VERTEX_POINT('',#1807);
#642=VERTEX_POINT('',#1808);
#643=VERTEX_POINT('',#1810);
#644=VERTEX_POINT('',#1812);
#645=VERTEX_POINT('',#1818);
#646=VERTEX_POINT('',#1819);
#647=VERTEX_POINT('',#1822);
#648=VERTEX_POINT('',#1824);
#649=VERTEX_POINT('',#1826);
#650=VERTEX_POINT('',#1828);
#651=VERTEX_POINT('',#1830);
#652=VERTEX_POINT('',#1832);
#653=VERTEX_POINT('',#1834);
#654=VERTEX_POINT('',#1836);
#655=VERTEX_POINT('',#1838);
#656=VERTEX_POINT('',#1840);
#657=VERTEX_POINT('',#1844);
#658=VERTEX_POINT('',#1845);
#659=VERTEX_POINT('',#1860);
#660=VERTEX_POINT('',#1869);
#661=VERTEX_POINT('',#1873);
#662=VERTEX_POINT('',#1875);
#663=VERTEX_POINT('',#1878);
#664=VERTEX_POINT('',#1879);
#665=VERTEX_POINT('',#1881);
#666=VERTEX_POINT('',#1883);
#667=VERTEX_POINT('',#1885);
#668=VERTEX_POINT('',#1887);
#669=VERTEX_POINT('',#1891);
#670=VERTEX_POINT('',#1892);
#671=VERTEX_POINT('',#1894);
#672=VERTEX_POINT('',#1896);
#673=VERTEX_POINT('',#1900);
#674=VERTEX_POINT('',#1902);
#675=VERTEX_POINT('',#1905);
#676=VERTEX_POINT('',#1906);
#677=VERTEX_POINT('',#1908);
#678=VERTEX_POINT('',#1910);
#679=VERTEX_POINT('',#1914);
#680=VERTEX_POINT('',#1916);
#681=VERTEX_POINT('',#1920);
#682=VERTEX_POINT('',#1922);
#683=VERTEX_POINT('',#1941);
#684=VERTEX_POINT('',#1973);
#685=VERTEX_POINT('',#1977);
#686=VERTEX_POINT('',#1981);
#687=VERTEX_POINT('',#1985);
#688=VERTEX_POINT('',#1989);
#689=VERTEX_POINT('',#1993);
#690=VERTEX_POINT('',#2028);
#691=VERTEX_POINT('',#2046);
#692=VERTEX_POINT('',#2048);
#693=VERTEX_POINT('',#2050);
#694=VERTEX_POINT('',#2055);
#695=VERTEX_POINT('',#2058);
#696=VERTEX_POINT('',#2059);
#697=VERTEX_POINT('',#2061);
#698=VERTEX_POINT('',#2066);
#699=VERTEX_POINT('',#2070);
#700=VERTEX_POINT('',#2074);
#701=VERTEX_POINT('',#2078);
#702=VERTEX_POINT('',#2084);
#703=VERTEX_POINT('',#2088);
#704=VERTEX_POINT('',#2090);
#705=VERTEX_POINT('',#2092);
#706=VERTEX_POINT('',#2105);
#707=VERTEX_POINT('',#2107);
#708=VERTEX_POINT('',#2120);
#709=VERTEX_POINT('',#2128);
#710=VERTEX_POINT('',#2131);
#711=LINE('',#1697,#840);
#712=LINE('',#1700,#841);
#713=LINE('',#1702,#842);
#714=LINE('',#1704,#843);
#715=LINE('',#1706,#844);
#716=LINE('',#1708,#845);
#717=LINE('',#1710,#846);
#718=LINE('',#1713,#847);
#719=LINE('',#1715,#848);
#720=LINE('',#1717,#849);
#721=LINE('',#1719,#850);
#722=LINE('',#1722,#851);
#723=LINE('',#1724,#852);
#724=LINE('',#1726,#853);
#725=LINE('',#1728,#854);
#726=LINE('',#1731,#855);
#727=LINE('',#1733,#856);
#728=LINE('',#1735,#857);
#729=LINE('',#1737,#858);
#730=LINE('',#1739,#859);
#731=LINE('',#1741,#860);
#732=LINE('',#1744,#861);
#733=LINE('',#1745,#862);
#734=LINE('',#1747,#863);
#735=LINE('',#1750,#864);
#736=LINE('',#1752,#865);
#737=LINE('',#1754,#866);
#738=LINE('',#1756,#867);
#739=LINE('',#1758,#868);
#740=LINE('',#1763,#869);
#741=LINE('',#1765,#870);
#742=LINE('',#1766,#871);
#743=LINE('',#1769,#872);
#744=LINE('',#1771,#873);
#745=LINE('',#1773,#874);
#746=LINE('',#1775,#875);
#747=LINE('',#1777,#876);
#748=LINE('',#1779,#877);
#749=LINE('',#1781,#878);
#750=LINE('',#1783,#879);
#751=LINE('',#1785,#880);
#752=LINE('',#1787,#881);
#753=LINE('',#1788,#882);
#754=LINE('',#1790,#883);
#755=LINE('',#1792,#884);
#756=LINE('',#1794,#885);
#757=LINE('',#1798,#886);
#758=LINE('',#1802,#887);
#759=LINE('',#1806,#888);
#760=LINE('',#1809,#889);
#761=LINE('',#1811,#890);
#762=LINE('',#1813,#891);
#763=LINE('',#1815,#892);
#764=LINE('',#1817,#893);
#765=LINE('',#1820,#894);
#766=LINE('',#1821,#895);
#767=LINE('',#1823,#896);
#768=LINE('',#1825,#897);
#769=LINE('',#1827,#898);
#770=LINE('',#1829,#899);
#771=LINE('',#1831,#900);
#772=LINE('',#1833,#901);
#773=LINE('',#1835,#902);
#774=LINE('',#1837,#903);
#775=LINE('',#1839,#904);
#776=LINE('',#1841,#905);
#777=LINE('',#1843,#906);
#778=LINE('',#1847,#907);
#779=LINE('',#1862,#908);
#780=LINE('',#1863,#909);
#781=LINE('',#1864,#910);
#782=LINE('',#1866,#911);
#783=LINE('',#1867,#912);
#784=LINE('',#1868,#913);
#785=LINE('',#1870,#914);
#786=LINE('',#1877,#915);
#787=LINE('',#1886,#916);
#788=LINE('',#1890,#917);
#789=LINE('',#1893,#918);
#790=LINE('',#1895,#919);
#791=LINE('',#1897,#920);
#792=LINE('',#1907,#921);
#793=LINE('',#1911,#922);
#794=LINE('',#1913,#923);
#795=LINE('',#1915,#924);
#796=LINE('',#1917,#925);
#797=LINE('',#1921,#926);
#798=LINE('',#1980,#927);
#799=LINE('',#1988,#928);
#800=LINE('',#2029,#929);
#801=LINE('',#2031,#930);
#802=LINE('',#2032,#931);
#803=LINE('',#2034,#932);
#804=LINE('',#2036,#933);
#805=LINE('',#2038,#934);
#806=LINE('',#2039,#935);
#807=LINE('',#2041,#936);
#808=LINE('',#2043,#937);
#809=LINE('',#2045,#938);
#810=LINE('',#2047,#939);
#811=LINE('',#2049,#940);
#812=LINE('',#2051,#941);
#813=LINE('',#2057,#942);
#814=LINE('',#2062,#943);
#815=LINE('',#2065,#944);
#816=LINE('',#2067,#945);
#817=LINE('',#2069,#946);
#818=LINE('',#2073,#947);
#819=LINE('',#2075,#948);
#820=LINE('',#2077,#949);
#821=LINE('',#2081,#950);
#822=LINE('',#2083,#951);
#823=LINE('',#2085,#952);
#824=LINE('',#2087,#953);
#825=LINE('',#2089,#954);
#826=LINE('',#2091,#955);
#827=LINE('',#2093,#956);
#828=LINE('',#2094,#957);
#829=LINE('',#2095,#958);
#830=LINE('',#2097,#959);
#831=LINE('',#2099,#960);
#832=LINE('',#2102,#961);
#833=LINE('',#2104,#962);
#834=LINE('',#2108,#963);
#835=LINE('',#2122,#964);
#836=LINE('',#2124,#965);
#837=LINE('',#2134,#966);
#838=LINE('',#2136,#967);
#839=LINE('',#2139,#968);
#840=VECTOR('',#1362,1.);
#841=VECTOR('',#1363,1.);
#842=VECTOR('',#1364,1.);
#843=VECTOR('',#1365,1.);
#844=VECTOR('',#1366,1.);
#845=VECTOR('',#1367,1.);
#846=VECTOR('',#1370,1.);
#847=VECTOR('',#1371,1.);
#848=VECTOR('',#1372,1.);
#849=VECTOR('',#1373,1.);
#850=VECTOR('',#1376,1.);
#851=VECTOR('',#1377,1.);
#852=VECTOR('',#1378,1.);
#853=VECTOR('',#1379,1.);
#854=VECTOR('',#1382,1.);
#855=VECTOR('',#1383,1.);
#856=VECTOR('',#1384,1.);
#857=VECTOR('',#1385,1.);
#858=VECTOR('',#1386,1.);
#859=VECTOR('',#1387,1.);
#860=VECTOR('',#1390,1.);
#861=VECTOR('',#1391,1.);
#862=VECTOR('',#1392,1.);
#863=VECTOR('',#1395,1.);
#864=VECTOR('',#1396,1.);
#865=VECTOR('',#1397,1.);
#866=VECTOR('',#1398,1.);
#867=VECTOR('',#1399,1.);
#868=VECTOR('',#1400,1.);
#869=VECTOR('',#1405,1.);
#870=VECTOR('',#1406,1.);
#871=VECTOR('',#1407,1.);
#872=VECTOR('',#1410,1.);
#873=VECTOR('',#1411,1.);
#874=VECTOR('',#1412,1.);
#875=VECTOR('',#1415,1.);
#876=VECTOR('',#1416,1.);
#877=VECTOR('',#1417,1.);
#878=VECTOR('',#1418,1.);
#879=VECTOR('',#1419,1.);
#880=VECTOR('',#1422,1.);
#881=VECTOR('',#1423,1.);
#882=VECTOR('',#1424,1.);
#883=VECTOR('',#1427,1.);
#884=VECTOR('',#1428,1.);
#885=VECTOR('',#1429,1.);
#886=VECTOR('',#1434,1.);
#887=VECTOR('',#1437,1.);
#888=VECTOR('',#1442,1.);
#889=VECTOR('',#1443,1.);
#890=VECTOR('',#1444,1.);
#891=VECTOR('',#1445,1.);
#892=VECTOR('',#1448,1.);
#893=VECTOR('',#1451,1.);
#894=VECTOR('',#1452,1.);
#895=VECTOR('',#1453,1.);
#896=VECTOR('',#1454,1.);
#897=VECTOR('',#1455,1.);
#898=VECTOR('',#1456,1.);
#899=VECTOR('',#1457,1.);
#900=VECTOR('',#1458,1.);
#901=VECTOR('',#1459,1.);
#902=VECTOR('',#1460,1.);
#903=VECTOR('',#1461,1.);
#904=VECTOR('',#1462,1.);
#905=VECTOR('',#1463,1.);
#906=VECTOR('',#1466,1.);
#907=VECTOR('',#1469,1.);
#908=VECTOR('',#1474,1.);
#909=VECTOR('',#1475,1.);
#910=VECTOR('',#1476,1.);
#911=VECTOR('',#1479,1.);
#912=VECTOR('',#1480,1.);
#913=VECTOR('',#1481,1.);
#914=VECTOR('',#1482,1.);
#915=VECTOR('',#1491,1.);
#916=VECTOR('',#1498,1.);
#917=VECTOR('',#1503,1.);
#918=VECTOR('',#1504,1.);
#919=VECTOR('',#1505,1.);
#920=VECTOR('',#1506,1.);
#921=VECTOR('',#1517,1.);
#922=VECTOR('',#1520,1.);
#923=VECTOR('',#1523,1.);
#924=VECTOR('',#1524,1.);
#925=VECTOR('',#1525,1.);
#926=VECTOR('',#1530,1.);
#927=VECTOR('',#1549,1.);
#928=VECTOR('',#1560,1.);
#929=VECTOR('',#1573,1.);
#930=VECTOR('',#1576,1.);
#931=VECTOR('',#1577,1.);
#932=VECTOR('',#1580,1.);
#933=VECTOR('',#1583,1.);
#934=VECTOR('',#1586,1.);
#935=VECTOR('',#1587,1.);
#936=VECTOR('',#1590,1.);
#937=VECTOR('',#1593,1.);
#938=VECTOR('',#1596,1.);
#939=VECTOR('',#1597,1.);
#940=VECTOR('',#1598,1.);
#941=VECTOR('',#1599,1.);
#942=VECTOR('',#1608,1.);
#943=VECTOR('',#1611,1.);
#944=VECTOR('',#1616,1.);
#945=VECTOR('',#1617,1.);
#946=VECTOR('',#1620,1.);
#947=VECTOR('',#1625,1.);
#948=VECTOR('',#1626,1.);
#949=VECTOR('',#1629,1.);
#950=VECTOR('',#1634,1.);
#951=VECTOR('',#1637,1.);
#952=VECTOR('',#1638,1.);
#953=VECTOR('',#1641,1.);
#954=VECTOR('',#1642,1.);
#955=VECTOR('',#1643,1.);
#956=VECTOR('',#1644,1.);
#957=VECTOR('',#1645,1.);
#958=VECTOR('',#1646,1.);
#959=VECTOR('',#1649,1.);
#960=VECTOR('',#1652,1.);
#961=VECTOR('',#1657,1.);
#962=VECTOR('',#1660,1.);
#963=VECTOR('',#1663,1.);
#964=VECTOR('',#1666,1.);
#965=VECTOR('',#1669,1.);
#966=VECTOR('',#1684,1.);
#967=VECTOR('',#1687,1.);
#968=VECTOR('',#1692,1.);
#969=EDGE_LOOP('',(#77,#78,#79,#80,#81,#82));
#970=EDGE_LOOP('',(#83,#84,#85,#86));
#971=EDGE_LOOP('',(#87,#88,#89,#90));
#972=EDGE_LOOP('',(#91,#92,#93,#94,#95,#96));
#973=EDGE_LOOP('',(#97,#98,#99,#100));
#974=EDGE_LOOP('',(#101,#102,#103,#104,#105,#106));
#975=EDGE_LOOP('',(#107,#108,#109,#110,#111,#112,#113,#114,#115,#116));
#976=EDGE_LOOP('',(#117,#118,#119,#120,#121,#122));
#977=EDGE_LOOP('',(#123,#124,#125,#126,#127,#128));
#978=EDGE_LOOP('',(#129,#130,#131,#132,#133,#134));
#979=EDGE_LOOP('',(#135,#136,#137,#138,#139,#140,#141,#142));
#980=EDGE_LOOP('',(#143,#144,#145,#146));
#981=EDGE_LOOP('',(#147,#148,#149,#150));
#982=EDGE_LOOP('',(#151,#152,#153,#154,#155,#156,#157,#158,#159,#160,#161,
#162,#163,#164));
#983=EDGE_LOOP('',(#165,#166,#167,#168,#169,#170));
#984=EDGE_LOOP('',(#171));
#985=EDGE_LOOP('',(#172,#173,#174,#175,#176,#177));
#986=EDGE_LOOP('',(#178,#179,#180,#181,#182,#183,#184,#185));
#987=EDGE_LOOP('',(#186));
#988=EDGE_LOOP('',(#187));
#989=EDGE_LOOP('',(#188));
#990=EDGE_LOOP('',(#189,#190,#191,#192,#193,#194));
#991=EDGE_LOOP('',(#195,#196,#197,#198));
#992=EDGE_LOOP('',(#199));
#993=EDGE_LOOP('',(#200));
#994=EDGE_LOOP('',(#201,#202,#203,#204));
#995=EDGE_LOOP('',(#205,#206,#207,#208));
#996=EDGE_LOOP('',(#209,#210,#211,#212));
#997=EDGE_LOOP('',(#213,#214,#215,#216));
#998=EDGE_LOOP('',(#217));
#999=EDGE_LOOP('',(#218));
#1000=EDGE_LOOP('',(#219,#220,#221));
#1001=EDGE_LOOP('',(#222,#223,#224,#225));
#1002=EDGE_LOOP('',(#226,#227,#228,#229));
#1003=EDGE_LOOP('',(#230,#231,#232,#233));
#1004=EDGE_LOOP('',(#234,#235,#236,#237));
#1005=EDGE_LOOP('',(#238,#239,#240,#241));
#1006=EDGE_LOOP('',(#242,#243,#244));
#1007=EDGE_LOOP('',(#245,#246,#247,#248,#249));
#1008=EDGE_LOOP('',(#250,#251,#252,#253));
#1009=EDGE_LOOP('',(#254,#255,#256,#257));
#1010=EDGE_LOOP('',(#258,#259,#260,#261));
#1011=EDGE_LOOP('',(#262,#263,#264,#265,#266,#267,#268,#269,#270,#271));
#1012=EDGE_LOOP('',(#272));
#1013=EDGE_LOOP('',(#273,#274,#275,#276));
#1014=EDGE_LOOP('',(#277,#278,#279,#280,#281,#282));
#1015=EDGE_LOOP('',(#283));
#1016=EDGE_LOOP('',(#284,#285,#286,#287,#288,#289,#290,#291));
#1017=EDGE_LOOP('',(#292,#293,#294,#295));
#1018=EDGE_LOOP('',(#296));
#1019=EDGE_LOOP('',(#297));
#1020=EDGE_LOOP('',(#298,#299,#300,#301,#302,#303,#304));
#1021=EDGE_LOOP('',(#305,#306,#307,#308));
#1022=EDGE_LOOP('',(#309,#310,#311,#312));
#1023=EDGE_LOOP('',(#313,#314,#315,#316));
#1024=EDGE_LOOP('',(#317,#318,#319,#320,#321,#322,#323));
#1025=EDGE_LOOP('',(#324,#325,#326,#327));
#1026=EDGE_LOOP('',(#328,#329,#330,#331));
#1027=EDGE_LOOP('',(#332,#333,#334,#335,#336,#337,#338,#339,#340,#341,#342,
#343,#344,#345,#346,#347,#348,#349,#350,#351));
#1028=EDGE_LOOP('',(#352));
#1029=EDGE_LOOP('',(#353,#354,#355,#356));
#1030=EDGE_LOOP('',(#357,#358,#359,#360,#361,#362));
#1031=EDGE_LOOP('',(#363,#364,#365,#366));
#1032=EDGE_LOOP('',(#367,#368,#369,#370));
#1033=EDGE_LOOP('',(#371,#372,#373,#374));
#1034=EDGE_LOOP('',(#375));
#1035=EDGE_LOOP('',(#376,#377,#378,#379));
#1036=EDGE_LOOP('',(#380,#381,#382,#383));
#1037=EDGE_LOOP('',(#384,#385,#386,#387,#388,#389,#390,#391,#392,#393));
#1038=EDGE_LOOP('',(#394));
#1039=EDGE_LOOP('',(#395));
#1040=EDGE_LOOP('',(#396));
#1041=EDGE_LOOP('',(#397));
#1042=EDGE_LOOP('',(#398));
#1043=EDGE_LOOP('',(#399));
#1044=EDGE_LOOP('',(#400,#401,#402,#403));
#1045=EDGE_LOOP('',(#404,#405,#406,#407));
#1046=EDGE_LOOP('',(#408,#409,#410,#411));
#1047=EDGE_LOOP('',(#412,#413,#414,#415));
#1048=EDGE_LOOP('',(#416,#417,#418,#419,#420,#421,#422));
#1049=FACE_BOUND('',#969,.T.);
#1050=FACE_BOUND('',#970,.T.);
#1051=FACE_BOUND('',#971,.T.);
#1052=FACE_BOUND('',#972,.T.);
#1053=FACE_BOUND('',#973,.T.);
#1054=FACE_BOUND('',#974,.T.);
#1055=FACE_BOUND('',#975,.T.);
#1056=FACE_BOUND('',#976,.T.);
#1057=FACE_BOUND('',#977,.T.);
#1058=FACE_BOUND('',#978,.T.);
#1059=FACE_BOUND('',#979,.T.);
#1060=FACE_BOUND('',#980,.T.);
#1061=FACE_BOUND('',#981,.T.);
#1062=FACE_BOUND('',#982,.T.);
#1063=FACE_BOUND('',#983,.T.);
#1064=FACE_BOUND('',#984,.T.);
#1065=FACE_BOUND('',#985,.T.);
#1066=FACE_BOUND('',#986,.T.);
#1067=FACE_BOUND('',#987,.T.);
#1068=FACE_BOUND('',#988,.T.);
#1069=FACE_BOUND('',#989,.T.);
#1070=FACE_BOUND('',#990,.T.);
#1071=FACE_BOUND('',#991,.T.);
#1072=FACE_BOUND('',#992,.T.);
#1073=FACE_BOUND('',#993,.T.);
#1074=FACE_BOUND('',#994,.T.);
#1075=FACE_BOUND('',#995,.T.);
#1076=FACE_BOUND('',#996,.T.);
#1077=FACE_BOUND('',#997,.T.);
#1078=FACE_BOUND('',#998,.T.);
#1079=FACE_BOUND('',#999,.T.);
#1080=FACE_BOUND('',#1000,.T.);
#1081=FACE_BOUND('',#1001,.T.);
#1082=FACE_BOUND('',#1002,.T.);
#1083=FACE_BOUND('',#1003,.T.);
#1084=FACE_BOUND('',#1004,.T.);
#1085=FACE_BOUND('',#1005,.T.);
#1086=FACE_BOUND('',#1006,.T.);
#1087=FACE_BOUND('',#1007,.T.);
#1088=FACE_BOUND('',#1008,.T.);
#1089=FACE_BOUND('',#1009,.T.);
#1090=FACE_BOUND('',#1010,.T.);
#1091=FACE_BOUND('',#1011,.T.);
#1092=FACE_BOUND('',#1012,.T.);
#1093=FACE_BOUND('',#1013,.T.);
#1094=FACE_BOUND('',#1014,.T.);
#1095=FACE_BOUND('',#1015,.T.);
#1096=FACE_BOUND('',#1016,.T.);
#1097=FACE_BOUND('',#1017,.T.);
#1098=FACE_BOUND('',#1018,.T.);
#1099=FACE_BOUND('',#1019,.T.);
#1100=FACE_BOUND('',#1020,.T.);
#1101=FACE_BOUND('',#1021,.T.);
#1102=FACE_BOUND('',#1022,.T.);
#1103=FACE_BOUND('',#1023,.T.);
#1104=FACE_BOUND('',#1024,.T.);
#1105=FACE_BOUND('',#1025,.T.);
#1106=FACE_BOUND('',#1026,.T.);
#1107=FACE_BOUND('',#1027,.T.);
#1108=FACE_BOUND('',#1028,.T.);
#1109=FACE_BOUND('',#1029,.T.);
#1110=FACE_BOUND('',#1030,.T.);
#1111=FACE_BOUND('',#1031,.T.);
#1112=FACE_BOUND('',#1032,.T.);
#1113=FACE_BOUND('',#1033,.T.);
#1114=FACE_BOUND('',#1034,.T.);
#1115=FACE_BOUND('',#1035,.T.);
#1116=FACE_BOUND('',#1036,.T.);
#1117=FACE_BOUND('',#1037,.T.);
#1118=FACE_BOUND('',#1038,.T.);
#1119=FACE_BOUND('',#1039,.T.);
#1120=FACE_BOUND('',#1040,.T.);
#1121=FACE_BOUND('',#1041,.T.);
#1122=FACE_BOUND('',#1042,.T.);
#1123=FACE_BOUND('',#1043,.T.);
#1124=FACE_BOUND('',#1044,.T.);
#1125=FACE_BOUND('',#1045,.T.);
#1126=FACE_BOUND('',#1046,.T.);
#1127=FACE_BOUND('',#1047,.T.);
#1128=FACE_BOUND('',#1048,.T.);
#1129=PLANE('',#1255);
#1130=PLANE('',#1256);
#1131=PLANE('',#1257);
#1132=PLANE('',#1258);
#1133=PLANE('',#1259);
#1134=PLANE('',#1260);
#1135=PLANE('',#1261);
#1136=PLANE('',#1264);
#1137=PLANE('',#1265);
#1138=PLANE('',#1266);
#1139=PLANE('',#1271);
#1140=PLANE('',#1272);
#1141=PLANE('',#1273);
#1142=PLANE('',#1277);
#1143=PLANE('',#1278);
#1144=PLANE('',#1282);
#1145=PLANE('',#1287);
#1146=PLANE('',#1294);
#1147=PLANE('',#1299);
#1148=PLANE('',#1315);
#1149=PLANE('',#1317);
#1150=PLANE('',#1318);
#1151=PLANE('',#1319);
#1152=PLANE('',#1320);
#1153=PLANE('',#1321);
#1154=PLANE('',#1322);
#1155=PLANE('',#1323);
#1156=PLANE('',#1324);
#1157=PLANE('',#1330);
#1158=PLANE('',#1333);
#1159=PLANE('',#1336);
#1160=PLANE('',#1337);
#1161=PLANE('',#1338);
#1162=PLANE('',#1339);
#1163=PLANE('',#1340);
#1164=PLANE('',#1341);
#1165=PLANE('',#1342);
#1166=PLANE('',#1345);
#1167=PLANE('',#1346);
#1168=PLANE('',#1347);
#1169=PLANE('',#1350);
#1170=PLANE('',#1353);
#1171=PLANE('',#1354);
#1172=PLANE('',#1355);
#1173=PLANE('',#1356);
#1174=PLANE('',#1357);
#1175=ADVANCED_FACE('',(#1049),#1129,.F.);
#1176=ADVANCED_FACE('',(#1050),#1130,.F.);
#1177=ADVANCED_FACE('',(#1051),#1131,.F.);
#1178=ADVANCED_FACE('',(#1052),#1132,.F.);
#1179=ADVANCED_FACE('',(#1053),#1133,.T.);
#1180=ADVANCED_FACE('',(#1054),#1134,.F.);
#1181=ADVANCED_FACE('',(#1055),#1135,.T.);
#1182=ADVANCED_FACE('',(#1056),#1136,.F.);
#1183=ADVANCED_FACE('',(#1057),#1137,.T.);
#1184=ADVANCED_FACE('',(#1058),#1138,.T.);
#1185=ADVANCED_FACE('',(#1059),#27,.F.);
#1186=ADVANCED_FACE('',(#1060),#1139,.T.);
#1187=ADVANCED_FACE('',(#1061),#1140,.T.);
#1188=ADVANCED_FACE('',(#1062),#1141,.F.);
#1189=ADVANCED_FACE('',(#1063,#1064),#28,.T.);
#1190=ADVANCED_FACE('',(#1065),#1142,.T.);
#1191=ADVANCED_FACE('',(#1066),#1143,.T.);
#1192=ADVANCED_FACE('',(#1067,#1068),#29,.F.);
#1193=ADVANCED_FACE('',(#1069,#1070),#1144,.T.);
#1194=ADVANCED_FACE('',(#1071),#1145,.T.);
#1195=ADVANCED_FACE('',(#1072,#1073),#30,.F.);
#1196=ADVANCED_FACE('',(#1074),#31,.T.);
#1197=ADVANCED_FACE('',(#1075),#1146,.T.);
#1198=ADVANCED_FACE('',(#1076),#32,.T.);
#1199=ADVANCED_FACE('',(#1077),#14,.F.);
#1200=ADVANCED_FACE('',(#1078,#1079),#1147,.T.);
#1201=ADVANCED_FACE('',(#1080),#12,.T.);
#1202=ADVANCED_FACE('',(#1081),#15,.T.);
#1203=ADVANCED_FACE('',(#1082),#33,.T.);
#1204=ADVANCED_FACE('',(#1083),#16,.T.);
#1205=ADVANCED_FACE('',(#1084),#34,.T.);
#1206=ADVANCED_FACE('',(#1085),#17,.T.);
#1207=ADVANCED_FACE('',(#1086),#13,.T.);
#1208=ADVANCED_FACE('',(#1087),#1148,.T.);
#1209=ADVANCED_FACE('',(#1088),#1149,.T.);
#1210=ADVANCED_FACE('',(#1089),#1150,.F.);
#1211=ADVANCED_FACE('',(#1090),#1151,.F.);
#1212=ADVANCED_FACE('',(#1091,#1092),#1152,.T.);
#1213=ADVANCED_FACE('',(#1093),#1153,.F.);
#1214=ADVANCED_FACE('',(#1094,#1095),#1154,.T.);
#1215=ADVANCED_FACE('',(#1096),#1155,.T.);
#1216=ADVANCED_FACE('',(#1097),#1156,.F.);
#1217=ADVANCED_FACE('',(#1098,#1099),#35,.F.);
#1218=ADVANCED_FACE('',(#1100),#36,.F.);
#1219=ADVANCED_FACE('',(#1101),#1157,.T.);
#1220=ADVANCED_FACE('',(#1102),#37,.T.);
#1221=ADVANCED_FACE('',(#1103),#1158,.F.);
#1222=ADVANCED_FACE('',(#1104),#38,.F.);
#1223=ADVANCED_FACE('',(#1105),#1159,.F.);
#1224=ADVANCED_FACE('',(#1106),#1160,.F.);
#1225=ADVANCED_FACE('',(#1107,#1108),#1161,.F.);
#1226=ADVANCED_FACE('',(#1109),#1162,.F.);
#1227=ADVANCED_FACE('',(#1110),#1163,.T.);
#1228=ADVANCED_FACE('',(#1111),#1164,.T.);
#1229=ADVANCED_FACE('',(#1112),#1165,.T.);
#1230=ADVANCED_FACE('',(#1113,#1114),#39,.F.);
#1231=ADVANCED_FACE('',(#1115),#1166,.T.);
#1232=ADVANCED_FACE('',(#1116),#1167,.T.);
#1233=ADVANCED_FACE('',(#1117),#1168,.T.);
#1234=ADVANCED_FACE('',(#1118,#1119),#40,.F.);
#1235=ADVANCED_FACE('',(#1120,#1121),#1169,.T.);
#1236=ADVANCED_FACE('',(#1122,#1123),#41,.F.);
#1237=ADVANCED_FACE('',(#1124),#1170,.T.);
#1238=ADVANCED_FACE('',(#1125),#1171,.F.);
#1239=ADVANCED_FACE('',(#1126),#1172,.T.);
#1240=ADVANCED_FACE('',(#1127),#1173,.F.);
#1241=ADVANCED_FACE('',(#1128),#1174,.T.);
#1242=CLOSED_SHELL('',(#1175,#1176,#1177,#1178,#1179,#1180,#1181,#1182,
#1183,#1184,#1185,#1186,#1187,#1188,#1189,#1190,#1191,#1192,#1193,#1194,
#1195,#1196,#1197,#1198,#1199,#1200,#1201,#1202,#1203,#1204,#1205,#1206,
#1207,#1208,#1209,#1210,#1211,#1212,#1213,#1214,#1215,#1216,#1217,#1218,
#1219,#1220,#1221,#1222,#1223,#1224,#1225,#1226,#1227,#1228,#1229,#1230,
#1231,#1232,#1233,#1234,#1235,#1236,#1237,#1238,#1239,#1240,#1241));
#1243=STYLED_ITEM('',(#1244),#1251);
#1244=PRESENTATION_STYLE_ASSIGNMENT((#1245));
#1245=SURFACE_STYLE_USAGE(.BOTH.,#1246);
#1246=SURFACE_SIDE_STYLE('',(#1247));
#1247=SURFACE_STYLE_FILL_AREA(#1248);
#1248=FILL_AREA_STYLE('',(#1249));
#1249=FILL_AREA_STYLE_COLOUR('',#1250);
#1250=COLOUR_RGB('',0.235294117647059,0.235294117647059,0.235294117647059);
#1251=MANIFOLD_SOLID_BREP('Bottom Right Front',#1242);
#1252=SHAPE_DEFINITION_REPRESENTATION(#2147,#1253);
#1253=SHAPE_REPRESENTATION('Bottom Right Front',(#1254),#2142);
#1254=AXIS2_PLACEMENT_3D('',#1695,#1358,#1359);
#1255=AXIS2_PLACEMENT_3D('',#1696,#1360,#1361);
#1256=AXIS2_PLACEMENT_3D('',#1709,#1368,#1369);
#1257=AXIS2_PLACEMENT_3D('',#1718,#1374,#1375);
#1258=AXIS2_PLACEMENT_3D('',#1727,#1380,#1381);
#1259=AXIS2_PLACEMENT_3D('',#1740,#1388,#1389);
#1260=AXIS2_PLACEMENT_3D('',#1746,#1393,#1394);
#1261=AXIS2_PLACEMENT_3D('',#1759,#1401,#1402);
#1262=AXIS2_PLACEMENT_3D('',#1760,#1403,#1404);
#1263=AXIS2_PLACEMENT_3D('',#1767,#1408,#1409);
#1264=AXIS2_PLACEMENT_3D('',#1774,#1413,#1414);
#1265=AXIS2_PLACEMENT_3D('',#1784,#1420,#1421);
#1266=AXIS2_PLACEMENT_3D('',#1789,#1425,#1426);
#1267=AXIS2_PLACEMENT_3D('',#1795,#1430,#1431);
#1268=AXIS2_PLACEMENT_3D('',#1796,#1432,#1433);
#1269=AXIS2_PLACEMENT_3D('',#1800,#1435,#1436);
#1270=AXIS2_PLACEMENT_3D('',#1804,#1438,#1439);
#1271=AXIS2_PLACEMENT_3D('',#1805,#1440,#1441);
#1272=AXIS2_PLACEMENT_3D('',#1814,#1446,#1447);
#1273=AXIS2_PLACEMENT_3D('',#1816,#1449,#1450);
#1274=AXIS2_PLACEMENT_3D('',#1842,#1464,#1465);
#1275=AXIS2_PLACEMENT_3D('',#1846,#1467,#1468);
#1276=AXIS2_PLACEMENT_3D('',#1848,#1470,#1471);
#1277=AXIS2_PLACEMENT_3D('',#1861,#1472,#1473);
#1278=AXIS2_PLACEMENT_3D('',#1865,#1477,#1478);
#1279=AXIS2_PLACEMENT_3D('',#1871,#1483,#1484);
#1280=AXIS2_PLACEMENT_3D('',#1872,#1485,#1486);
#1281=AXIS2_PLACEMENT_3D('',#1874,#1487,#1488);
#1282=AXIS2_PLACEMENT_3D('',#1876,#1489,#1490);
#1283=AXIS2_PLACEMENT_3D('',#1880,#1492,#1493);
#1284=AXIS2_PLACEMENT_3D('',#1882,#1494,#1495);
#1285=AXIS2_PLACEMENT_3D('',#1884,#1496,#1497);
#1286=AXIS2_PLACEMENT_3D('',#1888,#1499,#1500);
#1287=AXIS2_PLACEMENT_3D('',#1889,#1501,#1502);
#1288=AXIS2_PLACEMENT_3D('',#1898,#1507,#1508);
#1289=AXIS2_PLACEMENT_3D('',#1899,#1509,#1510);
#1290=AXIS2_PLACEMENT_3D('',#1901,#1511,#1512);
#1291=AXIS2_PLACEMENT_3D('',#1903,#1513,#1514);
#1292=AXIS2_PLACEMENT_3D('',#1904,#1515,#1516);
#1293=AXIS2_PLACEMENT_3D('',#1909,#1518,#1519);
#1294=AXIS2_PLACEMENT_3D('',#1912,#1521,#1522);
#1295=AXIS2_PLACEMENT_3D('',#1918,#1526,#1527);
#1296=AXIS2_PLACEMENT_3D('',#1919,#1528,#1529);
#1297=AXIS2_PLACEMENT_3D('',#1923,#1531,#1532);
#1298=AXIS2_PLACEMENT_3D('',#1924,#1533,#1534);
#1299=AXIS2_PLACEMENT_3D('',#1939,#1535,#1536);
#1300=AXIS2_PLACEMENT_3D('',#1940,#1537,#1538);
#1301=AXIS2_PLACEMENT_3D('',#1974,#1539,#1540);
#1302=AXIS2_PLACEMENT_3D('',#1975,#1541,#1542);
#1303=AXIS2_PLACEMENT_3D('',#1976,#1543,#1544);
#1304=AXIS2_PLACEMENT_3D('',#1978,#1545,#1546);
#1305=AXIS2_PLACEMENT_3D('',#1979,#1547,#1548);
#1306=AXIS2_PLACEMENT_3D('',#1982,#1550,#1551);
#1307=AXIS2_PLACEMENT_3D('',#1983,#1552,#1553);
#1308=AXIS2_PLACEMENT_3D('',#1984,#1554,#1555);
#1309=AXIS2_PLACEMENT_3D('',#1986,#1556,#1557);
#1310=AXIS2_PLACEMENT_3D('',#1987,#1558,#1559);
#1311=AXIS2_PLACEMENT_3D('',#1990,#1561,#1562);
#1312=AXIS2_PLACEMENT_3D('',#1991,#1563,#1564);
#1313=AXIS2_PLACEMENT_3D('',#1992,#1565,#1566);
#1314=AXIS2_PLACEMENT_3D('',#1994,#1567,#1568);
#1315=AXIS2_PLACEMENT_3D('',#2026,#1569,#1570);
#1316=AXIS2_PLACEMENT_3D('',#2027,#1571,#1572);
#1317=AXIS2_PLACEMENT_3D('',#2030,#1574,#1575);
#1318=AXIS2_PLACEMENT_3D('',#2033,#1578,#1579);
#1319=AXIS2_PLACEMENT_3D('',#2035,#1581,#1582);
#1320=AXIS2_PLACEMENT_3D('',#2037,#1584,#1585);
#1321=AXIS2_PLACEMENT_3D('',#2040,#1588,#1589);
#1322=AXIS2_PLACEMENT_3D('',#2042,#1591,#1592);
#1323=AXIS2_PLACEMENT_3D('',#2044,#1594,#1595);
#1324=AXIS2_PLACEMENT_3D('',#2052,#1600,#1601);
#1325=AXIS2_PLACEMENT_3D('',#2053,#1602,#1603);
#1326=AXIS2_PLACEMENT_3D('',#2054,#1604,#1605);
#1327=AXIS2_PLACEMENT_3D('',#2056,#1606,#1607);
#1328=AXIS2_PLACEMENT_3D('',#2060,#1609,#1610);
#1329=AXIS2_PLACEMENT_3D('',#2063,#1612,#1613);
#1330=AXIS2_PLACEMENT_3D('',#2064,#1614,#1615);
#1331=AXIS2_PLACEMENT_3D('',#2068,#1618,#1619);
#1332=AXIS2_PLACEMENT_3D('',#2071,#1621,#1622);
#1333=AXIS2_PLACEMENT_3D('',#2072,#1623,#1624);
#1334=AXIS2_PLACEMENT_3D('',#2076,#1627,#1628);
#1335=AXIS2_PLACEMENT_3D('',#2079,#1630,#1631);
#1336=AXIS2_PLACEMENT_3D('',#2080,#1632,#1633);
#1337=AXIS2_PLACEMENT_3D('',#2082,#1635,#1636);
#1338=AXIS2_PLACEMENT_3D('',#2086,#1639,#1640);
#1339=AXIS2_PLACEMENT_3D('',#2096,#1647,#1648);
#1340=AXIS2_PLACEMENT_3D('',#2098,#1650,#1651);
#1341=AXIS2_PLACEMENT_3D('',#2100,#1653,#1654);
#1342=AXIS2_PLACEMENT_3D('',#2101,#1655,#1656);
#1343=AXIS2_PLACEMENT_3D('',#2103,#1658,#1659);
#1344=AXIS2_PLACEMENT_3D('',#2106,#1661,#1662);
#1345=AXIS2_PLACEMENT_3D('',#2121,#1664,#1665);
#1346=AXIS2_PLACEMENT_3D('',#2123,#1667,#1668);
#1347=AXIS2_PLACEMENT_3D('',#2125,#1670,#1671);
#1348=AXIS2_PLACEMENT_3D('',#2126,#1672,#1673);
#1349=AXIS2_PLACEMENT_3D('',#2127,#1674,#1675);
#1350=AXIS2_PLACEMENT_3D('',#2129,#1676,#1677);
#1351=AXIS2_PLACEMENT_3D('',#2130,#1678,#1679);
#1352=AXIS2_PLACEMENT_3D('',#2132,#1680,#1681);
#1353=AXIS2_PLACEMENT_3D('',#2133,#1682,#1683);
#1354=AXIS2_PLACEMENT_3D('',#2135,#1685,#1686);
#1355=AXIS2_PLACEMENT_3D('',#2137,#1688,#1689);
#1356=AXIS2_PLACEMENT_3D('',#2138,#1690,#1691);
#1357=AXIS2_PLACEMENT_3D('',#2140,#1693,#1694);
#1358=DIRECTION('',(0.,0.,1.));
#1359=DIRECTION('',(1.,0.,0.));
#1360=DIRECTION('',(1.,0.,0.));
#1361=DIRECTION('',(0.,0.,-1.));
#1362=DIRECTION('',(0.,0.,1.));
#1363=DIRECTION('',(0.,-1.,0.));
#1364=DIRECTION('',(0.,0.,-1.));
#1365=DIRECTION('',(0.,-1.,0.));
#1366=DIRECTION('',(0.,0.,-1.));
#1367=DIRECTION('',(0.,-1.,0.));
#1368=DIRECTION('',(0.,-1.,0.));
#1369=DIRECTION('',(1.,0.,0.));
#1370=DIRECTION('',(1.,0.,0.));
#1371=DIRECTION('',(0.,0.,1.));
#1372=DIRECTION('',(1.,0.,0.));
#1373=DIRECTION('',(0.,0.,-1.));
#1374=DIRECTION('',(0.,-1.,0.));
#1375=DIRECTION('',(1.,0.,0.));
#1376=DIRECTION('',(0.,0.,1.));
#1377=DIRECTION('',(1.,0.,0.));
#1378=DIRECTION('',(0.,0.,-1.));
#1379=DIRECTION('',(1.,0.,0.));
#1380=DIRECTION('',(-1.,-9.09124651674711E-17,0.));
#1381=DIRECTION('',(9.09124651674711E-17,-1.,0.));
#1382=DIRECTION('',(0.,0.,1.));
#1383=DIRECTION('',(-9.09124651674711E-17,1.,0.));
#1384=DIRECTION('',(0.,0.,-1.));
#1385=DIRECTION('',(-9.09124651674711E-17,1.,0.));
#1386=DIRECTION('',(0.,0.,-1.));
#1387=DIRECTION('',(-9.09124651674711E-17,1.,0.));
#1388=DIRECTION('',(0.,0.,1.));
#1389=DIRECTION('',(1.,0.,0.));
#1390=DIRECTION('',(-9.09124651674711E-17,1.,0.));
#1391=DIRECTION('',(1.,0.,0.));
#1392=DIRECTION('',(1.,0.,0.));
#1393=DIRECTION('',(1.,0.,0.));
#1394=DIRECTION('',(0.,1.,0.));
#1395=DIRECTION('',(0.,0.,-1.));
#1396=DIRECTION('',(0.,1.,0.));
#1397=DIRECTION('',(0.,0.,-1.));
#1398=DIRECTION('',(0.,1.,0.));
#1399=DIRECTION('',(0.,0.,1.));
#1400=DIRECTION('',(0.,1.,0.));
#1401=DIRECTION('',(0.,0.,1.));
#1402=DIRECTION('',(1.,0.,0.));
#1403=DIRECTION('',(0.,0.,1.));
#1404=DIRECTION('',(1.,0.,0.));
#1405=DIRECTION('',(0.,1.,0.));
#1406=DIRECTION('',(1.,0.,0.));
#1407=DIRECTION('',(1.,0.,0.));
#1408=DIRECTION('',(0.,0.,1.));
#1409=DIRECTION('',(1.,0.,0.));
#1410=DIRECTION('',(1.,0.,0.));
#1411=DIRECTION('',(0.,-1.,0.));
#1412=DIRECTION('',(1.,0.,0.));
#1413=DIRECTION('',(1.,0.,0.));
#1414=DIRECTION('',(0.,0.,-1.));
#1415=DIRECTION('',(0.,0.,-1.));
#1416=DIRECTION('',(0.,-1.,0.));
#1417=DIRECTION('',(0.,0.,-1.));
#1418=DIRECTION('',(0.,-1.,0.));
#1419=DIRECTION('',(0.,0.,-1.));
#1420=DIRECTION('',(0.,1.,0.));
#1421=DIRECTION('',(0.,0.,1.));
#1422=DIRECTION('',(0.,0.,-1.));
#1423=DIRECTION('',(1.,0.,0.));
#1424=DIRECTION('',(1.,0.,0.));
#1425=DIRECTION('',(0.,1.,0.));
#1426=DIRECTION('',(0.,0.,1.));
#1427=DIRECTION('',(0.,0.,-1.));
#1428=DIRECTION('',(1.,0.,0.));
#1429=DIRECTION('',(0.,0.,-1.));
#1430=DIRECTION('',(0.,0.,-1.));
#1431=DIRECTION('',(-1.,0.,0.));
#1432=DIRECTION('',(0.,0.,1.));
#1433=DIRECTION('',(1.,0.,0.));
#1434=DIRECTION('',(0.,0.,-1.));
#1435=DIRECTION('',(0.,0.,1.));
#1436=DIRECTION('',(1.,0.,0.));
#1437=DIRECTION('',(0.,0.,-1.));
#1438=DIRECTION('',(0.,0.,1.));
#1439=DIRECTION('',(1.,0.,0.));
#1440=DIRECTION('',(0.,1.,0.));
#1441=DIRECTION('',(0.,0.,1.));
#1442=DIRECTION('',(0.,0.,-1.));
#1443=DIRECTION('',(1.,0.,0.));
#1444=DIRECTION('',(0.,0.,-1.));
#1445=DIRECTION('',(1.,0.,0.));
#1446=DIRECTION('',(0.,1.,0.));
#1447=DIRECTION('',(0.,0.,1.));
#1448=DIRECTION('',(1.,0.,0.));
#1449=DIRECTION('',(0.,1.,0.));
#1450=DIRECTION('',(0.,0.,1.));
#1451=DIRECTION('',(0.,0.,-1.));
#1452=DIRECTION('',(1.,0.,0.));
#1453=DIRECTION('',(1.,0.,0.));
#1454=DIRECTION('',(0.,0.,-1.));
#1455=DIRECTION('',(1.,0.,0.));
#1456=DIRECTION('',(0.,0.,-1.));
#1457=DIRECTION('',(-1.,0.,0.));
#1458=DIRECTION('',(0.,0.,-1.));
#1459=DIRECTION('',(1.,0.,0.));
#1460=DIRECTION('',(0.,0.,1.));
#1461=DIRECTION('',(1.,0.,0.));
#1462=DIRECTION('',(0.,0.,1.));
#1463=DIRECTION('',(1.,0.,0.));
#1464=DIRECTION('',(0.,0.,1.));
#1465=DIRECTION('',(1.,0.,0.));
#1466=DIRECTION('',(0.,0.,-1.));
#1467=DIRECTION('',(0.,0.,1.));
#1468=DIRECTION('',(1.,0.,0.));
#1469=DIRECTION('',(0.,0.,-1.));
#1470=DIRECTION('',(0.,0.,1.));
#1471=DIRECTION('',(1.,0.,0.));
#1472=DIRECTION('',(1.,0.,0.));
#1473=DIRECTION('',(0.,0.,-1.));
#1474=DIRECTION('',(0.,-1.,0.));
#1475=DIRECTION('',(0.,-1.,0.));
#1476=DIRECTION('',(0.,-1.,0.));
#1477=DIRECTION('',(-1.,-9.09124651674711E-17,0.));
#1478=DIRECTION('',(9.09124651674711E-17,-1.,0.));
#1479=DIRECTION('',(-9.09124651674711E-17,1.,0.));
#1480=DIRECTION('',(-9.09124651674711E-17,1.,0.));
#1481=DIRECTION('',(0.,1.,0.));
#1482=DIRECTION('',(0.,0.,-1.));
#1483=DIRECTION('',(0.,0.,-1.));
#1484=DIRECTION('',(-1.,0.,0.));
#1485=DIRECTION('',(0.,0.,-1.));
#1486=DIRECTION('',(-1.,0.,0.));
#1487=DIRECTION('',(0.,0.,-1.));
#1488=DIRECTION('',(-1.,0.,0.));
#1489=DIRECTION('',(0.,0.,1.));
#1490=DIRECTION('',(1.,0.,0.));
#1491=DIRECTION('',(0.707106781186548,-0.707106781186548,0.));
#1492=DIRECTION('',(0.,0.,1.));
#1493=DIRECTION('',(1.,0.,0.));
#1494=DIRECTION('',(0.,0.,1.));
#1495=DIRECTION('',(1.,0.,0.));
#1496=DIRECTION('',(0.,0.,1.));
#1497=DIRECTION('',(1.,0.,0.));
#1498=DIRECTION('',(0.707106781186548,-0.707106781186548,0.));
#1499=DIRECTION('',(0.,0.,1.));
#1500=DIRECTION('',(1.,0.,0.));
#1501=DIRECTION('',(0.,-1.,0.));
#1502=DIRECTION('',(1.,0.,0.));
#1503=DIRECTION('',(1.,0.,0.));
#1504=DIRECTION('',(0.,0.,-1.));
#1505=DIRECTION('',(1.,0.,0.));
#1506=DIRECTION('',(0.,0.,1.));
#1507=DIRECTION('',(0.,0.,1.));
#1508=DIRECTION('',(1.,0.,0.));
#1509=DIRECTION('',(0.,0.,1.));
#1510=DIRECTION('',(1.,0.,0.));
#1511=DIRECTION('',(0.,-0.707106781186548,-0.707106781186547));
#1512=DIRECTION('',(0.,-0.707106781186547,0.707106781186548));
#1513=DIRECTION('',(0.,0.,1.));
#1514=DIRECTION('',(1.,0.,0.));
#1515=DIRECTION('',(0.,0.,1.));
#1516=DIRECTION('',(1.,0.,0.));
#1517=DIRECTION('',(0.,0.,-1.));
#1518=DIRECTION('',(0.,-0.707106781186548,-0.707106781186547));
#1519=DIRECTION('',(0.,-0.707106781186547,0.707106781186548));
#1520=DIRECTION('',(0.,0.,-1.));
#1521=DIRECTION('',(0.,-1.,0.));
#1522=DIRECTION('',(1.,0.,0.));
#1523=DIRECTION('',(1.,0.,0.));
#1524=DIRECTION('',(1.,0.,0.));
#1525=DIRECTION('',(0.,0.,1.));
#1526=DIRECTION('',(0.,0.,-1.));
#1527=DIRECTION('',(-1.,0.,0.));
#1528=DIRECTION('',(0.,-0.707106781186548,-0.707106781186547));
#1529=DIRECTION('',(0.,0.707106781186547,-0.707106781186548));
#1530=DIRECTION('',(0.,0.,1.));
#1531=DIRECTION('',(0.,0.,1.));
#1532=DIRECTION('',(1.,0.,0.));
#1533=DIRECTION('',(0.,0.,1.));
#1534=DIRECTION('',(1.,0.,0.));
#1535=DIRECTION('',(0.,0.,1.));
#1536=DIRECTION('',(1.,0.,0.));
#1537=DIRECTION('',(0.,0.,-1.));
#1538=DIRECTION('',(-1.,0.,0.));
#1539=DIRECTION('',(-0.950912622449964,0.309459503756683,0.));
#1540=DIRECTION('',(-0.309459503756683,-0.950912622449964,0.));
#1541=DIRECTION('',(0.,0.,1.));
#1542=DIRECTION('',(1.,0.,0.));
#1543=DIRECTION('',(0.,0.,1.));
#1544=DIRECTION('',(1.,0.,0.));
#1545=DIRECTION('',(-0.707106781186548,0.707106781186548,0.));
#1546=DIRECTION('',(-0.707106781186548,-0.707106781186548,0.));
#1547=DIRECTION('',(0.707106781186548,-0.707106781186548,0.));
#1548=DIRECTION('',(0.707106781186548,0.707106781186548,0.));
#1549=DIRECTION('',(0.707106781186548,-0.707106781186548,0.));
#1550=DIRECTION('',(-0.707106781186562,0.707106781186534,0.));
#1551=DIRECTION('',(-0.707106781186534,-0.707106781186562,0.));
#1552=DIRECTION('',(0.,0.,1.));
#1553=DIRECTION('',(1.,0.,0.));
#1554=DIRECTION('',(0.,0.,1.));
#1555=DIRECTION('',(1.,0.,0.));
#1556=DIRECTION('',(0.707106781186548,-0.707106781186548,0.));
#1557=DIRECTION('',(0.707106781186548,0.707106781186548,0.));
#1558=DIRECTION('',(-0.707106781186548,0.707106781186548,0.));
#1559=DIRECTION('',(-0.707106781186548,-0.707106781186548,0.));
#1560=DIRECTION('',(0.707106781186548,-0.707106781186548,0.));
#1561=DIRECTION('',(0.707106781186548,-0.707106781186548,0.));
#1562=DIRECTION('',(0.707106781186548,0.707106781186548,0.));
#1563=DIRECTION('',(0.,0.,1.));
#1564=DIRECTION('',(1.,0.,0.));
#1565=DIRECTION('',(0.,0.,1.));
#1566=DIRECTION('',(1.,0.,0.));
#1567=DIRECTION('',(0.309459503756691,-0.950912622449961,0.));
#1568=DIRECTION('',(0.950912622449961,0.309459503756691,0.));
#1569=DIRECTION('',(0.,0.,1.));
#1570=DIRECTION('',(1.,0.,0.));
#1571=DIRECTION('',(0.,0.,1.));
#1572=DIRECTION('',(1.,0.,0.));
#1573=DIRECTION('',(-1.,-1.70210081784086E-16,0.));
#1574=DIRECTION('',(0.707106781186548,-0.707106781186548,0.));
#1575=DIRECTION('',(0.,0.,-1.));
#1576=DIRECTION('',(-0.707106781186548,-0.707106781186548,0.));
#1577=DIRECTION('',(-0.577350269189626,-0.577350269189626,-0.577350269189626));
#1578=DIRECTION('',(0.,0.707106781186548,-0.707106781186548));
#1579=DIRECTION('',(1.,0.,0.));
#1580=DIRECTION('',(0.577350269189626,-0.577350269189626,-0.577350269189626));
#1581=DIRECTION('',(0.707106781186548,0.707106781186548,0.));
#1582=DIRECTION('',(0.,0.,1.));
#1583=DIRECTION('',(0.707106781186548,-0.707106781186548,0.));
#1584=DIRECTION('',(0.,0.,1.));
#1585=DIRECTION('',(1.,0.,0.));
#1586=DIRECTION('',(0.,1.,0.));
#1587=DIRECTION('',(0.,1.,0.));
#1588=DIRECTION('',(1.,0.,0.));
#1589=DIRECTION('',(0.,0.,-1.));
#1590=DIRECTION('',(0.,0.707106781186547,-0.707106781186548));
#1591=DIRECTION('',(0.,-0.707106781186548,-0.707106781186547));
#1592=DIRECTION('',(-1.,0.,0.));
#1593=DIRECTION('',(0.,-0.707106781186547,0.707106781186548));
#1594=DIRECTION('',(0.,0.,1.));
#1595=DIRECTION('',(1.,0.,0.));
#1596=DIRECTION('',(0.,1.,0.));
#1597=DIRECTION('',(1.,-1.83697019872103E-16,0.));
#1598=DIRECTION('',(-1.83697019872103E-16,-1.,0.));
#1599=DIRECTION('',(1.,-1.83697019872103E-16,0.));
#1600=DIRECTION('',(-1.,0.,0.));
#1601=DIRECTION('',(0.,0.,1.));
#1602=DIRECTION('',(0.,0.,-1.));
#1603=DIRECTION('',(-1.,0.,0.));
#1604=DIRECTION('',(0.,0.,1.));
#1605=DIRECTION('',(1.,0.,0.));
#1606=DIRECTION('',(0.,0.,-1.));
#1607=DIRECTION('',(-1.,0.,0.));
#1608=DIRECTION('',(0.,0.,-1.));
#1609=DIRECTION('',(0.,0.,1.));
#1610=DIRECTION('',(1.,0.,0.));
#1611=DIRECTION('',(0.,0.,-1.));
#1612=DIRECTION('',(0.,0.,1.));
#1613=DIRECTION('',(1.,0.,0.));
#1614=DIRECTION('',(0.707106781186548,0.707106781186548,0.));
#1615=DIRECTION('',(-0.707106781186548,0.707106781186548,0.));
#1616=DIRECTION('',(0.,0.,-1.));
#1617=DIRECTION('',(0.707106781186548,-0.707106781186548,0.));
#1618=DIRECTION('',(0.,0.,-1.));
#1619=DIRECTION('',(-1.,0.,0.));
#1620=DIRECTION('',(0.,0.,-1.));
#1621=DIRECTION('',(0.,0.,1.));
#1622=DIRECTION('',(1.,0.,0.));
#1623=DIRECTION('',(0.707106781186548,0.707106781186548,0.));
#1624=DIRECTION('',(-0.707106781186548,0.707106781186548,0.));
#1625=DIRECTION('',(0.,0.,1.));
#1626=DIRECTION('',(0.707106781186548,-0.707106781186548,0.));
#1627=DIRECTION('',(0.,0.,-1.));
#1628=DIRECTION('',(-1.,0.,0.));
#1629=DIRECTION('',(0.,0.,-1.));
#1630=DIRECTION('',(0.,0.,1.));
#1631=DIRECTION('',(1.,0.,0.));
#1632=DIRECTION('',(1.70210081784086E-16,-1.,0.));
#1633=DIRECTION('',(1.,1.70210081784086E-16,0.));
#1634=DIRECTION('',(-1.,-1.70210081784086E-16,0.));
#1635=DIRECTION('',(1.,0.,0.));
#1636=DIRECTION('',(0.,1.,0.));
#1637=DIRECTION('',(0.,0.,-1.));
#1638=DIRECTION('',(0.,1.,0.));
#1639=DIRECTION('',(0.,0.,1.));
#1640=DIRECTION('',(1.,0.,0.));
#1641=DIRECTION('',(1.,0.,0.));
#1642=DIRECTION('',(1.,-1.83697019872103E-16,0.));
#1643=DIRECTION('',(-1.83697019872103E-16,-1.,0.));
#1644=DIRECTION('',(1.,-1.83697019872103E-16,0.));
#1645=DIRECTION('',(0.,-1.,0.));
#1646=DIRECTION('',(0.,1.,0.));
#1647=DIRECTION('',(1.,0.,0.));
#1648=DIRECTION('',(0.,0.,-1.));
#1649=DIRECTION('',(0.,-1.,0.));
#1650=DIRECTION('',(0.,0.,1.));
#1651=DIRECTION('',(1.,0.,0.));
#1652=DIRECTION('',(0.,-1.,0.));
#1653=DIRECTION('',(0.,0.,1.));
#1654=DIRECTION('',(1.,0.,0.));
#1655=DIRECTION('',(0.,0.,1.));
#1656=DIRECTION('',(1.,0.,0.));
#1657=DIRECTION('',(1.,0.,0.));
#1658=DIRECTION('',(0.,0.,-1.));
#1659=DIRECTION('',(-1.,0.,0.));
#1660=DIRECTION('',(0.,0.,1.));
#1661=DIRECTION('',(0.,0.,1.));
#1662=DIRECTION('',(1.,0.,0.));
#1663=DIRECTION('',(0.,0.,-1.));
#1664=DIRECTION('',(-1.,0.,0.));
#1665=DIRECTION('',(0.,0.,1.));
#1666=DIRECTION('',(0.,1.,0.));
#1667=DIRECTION('',(0.,1.,0.));
#1668=DIRECTION('',(0.,0.,1.));
#1669=DIRECTION('',(1.,0.,0.));
#1670=DIRECTION('',(0.,0.,1.));
#1671=DIRECTION('',(1.,0.,0.));
#1672=DIRECTION('',(-0.707106781186548,0.707106781186547,0.));
#1673=DIRECTION('',(-0.707106781186547,-0.707106781186548,0.));
#1674=DIRECTION('',(-0.707106781186548,0.707106781186547,0.));
#1675=DIRECTION('',(-0.707106781186547,-0.707106781186548,0.));
#1676=DIRECTION('',(0.707106781186548,-0.707106781186547,0.));
#1677=DIRECTION('',(0.707106781186547,0.707106781186548,0.));
#1678=DIRECTION('',(-0.707106781186548,0.707106781186547,0.));
#1679=DIRECTION('',(-0.707106781186547,-0.707106781186548,0.));
#1680=DIRECTION('',(-0.707106781186548,0.707106781186547,0.));
#1681=DIRECTION('',(-0.707106781186547,-0.707106781186548,0.));
#1682=DIRECTION('',(-1.83697019872103E-16,-1.,0.));
#1683=DIRECTION('',(0.,0.,-1.));
#1684=DIRECTION('',(0.,0.,-1.));
#1685=DIRECTION('',(-1.83697019872103E-16,-1.,0.));
#1686=DIRECTION('',(0.,0.,-1.));
#1687=DIRECTION('',(0.,0.,-1.));
#1688=DIRECTION('',(-1.,1.83697019872103E-16,0.));
#1689=DIRECTION('',(-1.83697019872103E-16,-1.,0.));
#1690=DIRECTION('',(-1.,0.,0.));
#1691=DIRECTION('',(0.,0.,1.));
#1692=DIRECTION('',(0.,0.,1.));
#1693=DIRECTION('',(0.,1.,0.));
#1694=DIRECTION('',(-1.,0.,0.));
#1695=CARTESIAN_POINT('',(0.,0.,0.));
#1696=CARTESIAN_POINT('',(0.180975,5.55111512312578E-17,0.0083));
#1697=CARTESIAN_POINT('',(0.180975,-0.01,0.00415));
#1698=CARTESIAN_POINT('',(0.180975,-0.01,0.003));
#1699=CARTESIAN_POINT('',(0.180975,-0.01,0.0083));
#1700=CARTESIAN_POINT('',(0.180975,5.55111512312578E-17,0.003));
#1701=CARTESIAN_POINT('',(0.180975,-0.155575,0.003));
#1702=CARTESIAN_POINT('',(0.180975,-0.155575,0.0083));
#1703=CARTESIAN_POINT('',(0.180975,-0.155575,0.157525));
#1704=CARTESIAN_POINT('',(0.180975,5.55111512312578E-17,0.157525));
#1705=CARTESIAN_POINT('',(0.180975,-0.14935,0.157525));
#1706=CARTESIAN_POINT('',(0.180975,-0.14935,0.30725));
#1707=CARTESIAN_POINT('',(0.180975,-0.14935,0.0083));
#1708=CARTESIAN_POINT('',(0.180975,5.55111512312578E-17,0.0083));
#1709=CARTESIAN_POINT('',(0.,-0.0001,0.));
#1710=CARTESIAN_POINT('',(2.77555756156289E-17,-0.0001,0.));
#1711=CARTESIAN_POINT('',(0.188649999999996,-0.0001,0.));
#1712=CARTESIAN_POINT('',(0.19265,-0.0001,0.));
#1713=CARTESIAN_POINT('',(0.188649999999996,-0.0001,0.31005));
#1714=CARTESIAN_POINT('',(0.188649999999996,-0.0001,0.0083));
#1715=CARTESIAN_POINT('',(-2.77555756156289E-17,-0.0001,0.0083));
#1716=CARTESIAN_POINT('',(0.19265,-0.0001,0.0083));
#1717=CARTESIAN_POINT('',(0.19265,-0.0001,0.0083));
#1718=CARTESIAN_POINT('',(0.,-0.0001,0.));
#1719=CARTESIAN_POINT('',(0.180975,-0.0001,0.00415));
#1720=CARTESIAN_POINT('',(0.180975,-0.0001,0.));
#1721=CARTESIAN_POINT('',(0.180975,-0.0001,0.003));
#1722=CARTESIAN_POINT('',(2.77555756156289E-17,-0.0001,0.));
#1723=CARTESIAN_POINT('',(0.17272,-0.0001,0.));
#1724=CARTESIAN_POINT('',(0.17272,-0.0001,0.003));
#1725=CARTESIAN_POINT('',(0.17272,-0.0001,0.003));
#1726=CARTESIAN_POINT('',(2.77555756156289E-17,-0.0001,0.003));
#1727=CARTESIAN_POINT('',(0.184974999999996,-2.77555756156289E-16,0.31005));
#1728=CARTESIAN_POINT('',(0.184974999999996,-0.01,0.31005));
#1729=CARTESIAN_POINT('',(0.184974999999996,-0.01,0.005));
#1730=CARTESIAN_POINT('',(0.184974999999996,-0.01,0.0083));
#1731=CARTESIAN_POINT('',(0.184974999999996,-2.77555756156289E-16,0.0083));
#1732=CARTESIAN_POINT('',(0.184974999999996,-0.14935,0.0083));
#1733=CARTESIAN_POINT('',(0.184974999999996,-0.14935,0.31005));
#1734=CARTESIAN_POINT('',(0.184974999999996,-0.14935,0.157525));
#1735=CARTESIAN_POINT('',(0.184974999999996,-2.77555756156289E-16,0.157525));
#1736=CARTESIAN_POINT('',(0.184974999999996,-0.15265,0.157525));
#1737=CARTESIAN_POINT('',(0.184974999999996,-0.15265,0.31005));
#1738=CARTESIAN_POINT('',(0.184974999999996,-0.15265,0.005));
#1739=CARTESIAN_POINT('',(0.184974999999996,-2.77555756156289E-16,0.005));
#1740=CARTESIAN_POINT('',(-2.77555756156289E-17,0.0179999999999986,0.005));
#1741=CARTESIAN_POINT('',(0.188649999999996,-2.77555756156289E-16,0.005));
#1742=CARTESIAN_POINT('',(0.188649999999996,-0.15265,0.005));
#1743=CARTESIAN_POINT('',(0.188649999999996,-0.01,0.005));
#1744=CARTESIAN_POINT('',(-2.77555756156289E-17,-0.01,0.005));
#1745=CARTESIAN_POINT('',(0.186812499999996,-0.15265,0.005));
#1746=CARTESIAN_POINT('',(0.,0.,0.));
#1747=CARTESIAN_POINT('',(-2.77555756156289E-17,-0.181075,0.0083));
#1748=CARTESIAN_POINT('',(0.,-0.181075,0.0083));
#1749=CARTESIAN_POINT('',(-2.77555756156289E-17,-0.181075,0.));
#1750=CARTESIAN_POINT('',(0.,-2.77555756156289E-17,0.0083));
#1751=CARTESIAN_POINT('',(0.,-0.180975,0.0083));
#1752=CARTESIAN_POINT('',(0.,-0.180975,0.0083));
#1753=CARTESIAN_POINT('',(0.,-0.180975,0.003));
#1754=CARTESIAN_POINT('',(0.,0.,0.003));
#1755=CARTESIAN_POINT('',(0.,-0.17272,0.003));
#1756=CARTESIAN_POINT('',(0.,-0.17272,0.003));
#1757=CARTESIAN_POINT('',(0.,-0.17272,0.));
#1758=CARTESIAN_POINT('',(0.,0.,0.));
#1759=CARTESIAN_POINT('',(0.,0.,0.157525));
#1760=CARTESIAN_POINT('',(0.155575,-0.155575,0.157525));
#1761=CARTESIAN_POINT('',(0.155575,-0.185074999999996,0.157525));
#1762=CARTESIAN_POINT('',(0.185074999999996,-0.155575,0.157525));
#1763=CARTESIAN_POINT('',(0.185074999999996,-0.1541125,0.157525));
#1764=CARTESIAN_POINT('',(0.185074999999996,-0.15265,0.157525));
#1765=CARTESIAN_POINT('',(0.186812499999996,-0.15265,0.157525));
#1766=CARTESIAN_POINT('',(0.1868125,-0.14935,0.157525));
#1767=CARTESIAN_POINT('',(0.155575,-0.155575,0.157525));
#1768=CARTESIAN_POINT('',(0.155575,-0.180975,0.157525));
#1769=CARTESIAN_POINT('',(0.,-0.180975,0.157525));
#1770=CARTESIAN_POINT('',(0.14935,-0.180975,0.157525));
#1771=CARTESIAN_POINT('',(0.14935,-0.1868125,0.157525));
#1772=CARTESIAN_POINT('',(0.14935,-0.185074999999996,0.157525));
#1773=CARTESIAN_POINT('',(0.1524625,-0.185074999999996,0.157525));
#1774=CARTESIAN_POINT('',(0.14935,-0.1868125,0.30725));
#1775=CARTESIAN_POINT('',(0.14935,-0.180975,0.30725));
#1776=CARTESIAN_POINT('',(0.14935,-0.180975,0.0083));
#1777=CARTESIAN_POINT('',(0.14935,-0.1868125,0.0083));
#1778=CARTESIAN_POINT('',(0.14935,-0.19265,0.0083));
#1779=CARTESIAN_POINT('',(0.14935,-0.19265,0.30725));
#1780=CARTESIAN_POINT('',(0.14935,-0.19265,0.167425));
#1781=CARTESIAN_POINT('',(0.14935,-0.1868125,0.167425));
#1782=CARTESIAN_POINT('',(0.14935,-0.185074999999996,0.167425));
#1783=CARTESIAN_POINT('',(0.14935,-0.185074999999996,0.167525));
#1784=CARTESIAN_POINT('',(0.,-0.180975,0.0083));
#1785=CARTESIAN_POINT('',(0.155575,-0.180975,0.0083));
#1786=CARTESIAN_POINT('',(0.155575,-0.180975,0.003));
#1787=CARTESIAN_POINT('',(0.,-0.180975,0.003));
#1788=CARTESIAN_POINT('',(0.,-0.180975,0.0083));
#1789=CARTESIAN_POINT('',(0.186812499999996,-0.15265,0.31005));
#1790=CARTESIAN_POINT('',(0.185074999999996,-0.15265,0.167525));
#1791=CARTESIAN_POINT('',(0.185074999999996,-0.15265,0.167425));
#1792=CARTESIAN_POINT('',(0.186812499999996,-0.15265,0.167425));
#1793=CARTESIAN_POINT('',(0.188649999999996,-0.15265,0.167425));
#1794=CARTESIAN_POINT('',(0.188649999999996,-0.15265,0.31005));
#1795=CARTESIAN_POINT('',(0.155575,-0.155575,0.0083));
#1796=CARTESIAN_POINT('',(0.155575,-0.155575,0.003));
#1797=CARTESIAN_POINT('',(0.180621503414886,-0.159797874221207,0.003));
#1798=CARTESIAN_POINT('',(0.180621503414886,-0.159797874221207,0.0083));
#1799=CARTESIAN_POINT('',(0.180621503414886,-0.159797874221207,0.0133));
#1800=CARTESIAN_POINT('',(0.155575,-0.155575,0.0133));
#1801=CARTESIAN_POINT('',(0.159797874221207,-0.180621503414886,0.0133));
#1802=CARTESIAN_POINT('',(0.159797874221207,-0.180621503414886,0.0083));
#1803=CARTESIAN_POINT('',(0.159797874221207,-0.180621503414886,0.003));
#1804=CARTESIAN_POINT('',(0.155575,-0.155575,0.003));
#1805=CARTESIAN_POINT('',(0.1868125,-0.14935,0.30725));
#1806=CARTESIAN_POINT('',(0.188649999999996,-0.14935,0.31005));
#1807=CARTESIAN_POINT('',(0.188649999999996,-0.14935,0.167425));
#1808=CARTESIAN_POINT('',(0.188649999999996,-0.14935,0.0083));
#1809=CARTESIAN_POINT('',(0.1868125,-0.14935,0.167425));
#1810=CARTESIAN_POINT('',(0.19265,-0.14935,0.167425));
#1811=CARTESIAN_POINT('',(0.19265,-0.14935,0.30725));
#1812=CARTESIAN_POINT('',(0.19265,-0.14935,0.0083));
#1813=CARTESIAN_POINT('',(0.1868125,-0.14935,0.0083));
#1814=CARTESIAN_POINT('',(0.1868125,-0.14935,0.30725));
#1815=CARTESIAN_POINT('',(0.1868125,-0.14935,0.0083));
#1816=CARTESIAN_POINT('',(2.77555756156289E-17,-0.19265,0.0083));
#1817=CARTESIAN_POINT('',(0.16725,-0.19265,0.32675));
#1818=CARTESIAN_POINT('',(0.16725,-0.19265,0.0263));
#1819=CARTESIAN_POINT('',(0.16725,-0.19265,0.167425));
#1820=CARTESIAN_POINT('',(2.77555756156289E-17,-0.19265,0.167425));
#1821=CARTESIAN_POINT('',(2.77555756156289E-17,-0.19265,0.0083));
#1822=CARTESIAN_POINT('',(0.,-0.19265,0.0083));
#1823=CARTESIAN_POINT('',(0.,-0.19265,0.0083));
#1824=CARTESIAN_POINT('',(0.,-0.19265,0.));
#1825=CARTESIAN_POINT('',(2.77555756156289E-17,-0.19265,0.));
#1826=CARTESIAN_POINT('',(0.16725,-0.19265,0.));
#1827=CARTESIAN_POINT('',(0.16725,-0.19265,0.32675));
#1828=CARTESIAN_POINT('',(0.16725,-0.19265,0.0091));
#1829=CARTESIAN_POINT('',(0.15235,-0.19265,0.0091));
#1830=CARTESIAN_POINT('',(0.15235,-0.19265,0.0091));
#1831=CARTESIAN_POINT('',(0.15235,-0.19265,0.0223));
#1832=CARTESIAN_POINT('',(0.15235,-0.19265,0.0263));
#1833=CARTESIAN_POINT('',(0.164775,-0.19265,0.0263));
#1834=CARTESIAN_POINT('',(0.1573,-0.19265,0.0263));
#1835=CARTESIAN_POINT('',(0.1573,-0.19265,0.0433));
#1836=CARTESIAN_POINT('',(0.1573,-0.19265,0.0613));
#1837=CARTESIAN_POINT('',(2.77555756156289E-17,-0.19265,0.0613));
#1838=CARTESIAN_POINT('',(0.1623,-0.19265,0.0613));
#1839=CARTESIAN_POINT('',(0.1623,-0.19265,0.0433));
#1840=CARTESIAN_POINT('',(0.1623,-0.19265,0.0263));
#1841=CARTESIAN_POINT('',(0.164775,-0.19265,0.0263));
#1842=CARTESIAN_POINT('',(0.16725,-0.16725,0.0083));
#1843=CARTESIAN_POINT('',(0.19265,-0.16725,0.));
#1844=CARTESIAN_POINT('',(0.19265,-0.16725,0.167425));
#1845=CARTESIAN_POINT('',(0.19265,-0.16725,0.));
#1846=CARTESIAN_POINT('',(0.16725,-0.16725,0.167425));
#1847=CARTESIAN_POINT('',(0.16725,-0.19265,0.32675));
#1848=CARTESIAN_POINT('',(0.16725,-0.16725,0.));
#1849=CARTESIAN_POINT('',(0.187117046647739,-0.183123132010734,0.159706368389877));
#1850=CARTESIAN_POINT('',(0.185255198692346,-0.185256169839335,0.158534527944976));
#1851=CARTESIAN_POINT('',(0.183125241548294,-0.187115271597345,0.159705519830218));
#1852=CARTESIAN_POINT('',(0.182162965696338,-0.187804399656291,0.162521672128291));
#1853=CARTESIAN_POINT('',(0.183124599949733,-0.187115842169603,0.165345634250209));
#1854=CARTESIAN_POINT('',(0.185254927146912,-0.18525620598042,0.166513863649077));
#1855=CARTESIAN_POINT('',(0.187112942832583,-0.183128229129881,0.16534890958428));
#1856=CARTESIAN_POINT('',(0.187804680014073,-0.182162586738147,0.16252836697781));
#1857=CARTESIAN_POINT('',(0.187117046647739,-0.183123132010734,0.159706368389877));
#1858=CARTESIAN_POINT('',(0.185255198692346,-0.185256169839335,0.158534527944976));
#1859=CARTESIAN_POINT('',(0.183125241548294,-0.187115271597345,0.159705519830218));
#1860=CARTESIAN_POINT('',(0.185210512190437,-0.185210512293839,0.158925));
#1861=CARTESIAN_POINT('',(0.19265,0.,0.0083));
#1862=CARTESIAN_POINT('',(0.19265,0.,0.167425));
#1863=CARTESIAN_POINT('',(0.19265,0.,0.));
#1864=CARTESIAN_POINT('',(0.19265,0.,0.0083));
#1865=CARTESIAN_POINT('',(0.188649999999996,-2.77555756156289E-16,0.31005));
#1866=CARTESIAN_POINT('',(0.188649999999996,-2.77555756156289E-16,0.167425));
#1867=CARTESIAN_POINT('',(0.188649999999996,-2.77555756156289E-16,0.0083));
#1868=CARTESIAN_POINT('',(0.188649999999996,-0.01,0.));
#1869=CARTESIAN_POINT('',(0.188649999999996,-0.01,0.));
#1870=CARTESIAN_POINT('',(0.188649999999996,-0.01,0.00249999999999997));
#1871=CARTESIAN_POINT('',(0.1651,-0.1651,0.0083));
#1872=CARTESIAN_POINT('',(0.1651,-0.1651,0.00195));
#1873=CARTESIAN_POINT('',(0.160274,-0.1651,0.00195));
#1874=CARTESIAN_POINT('',(0.1651,-0.1651,0.0083));
#1875=CARTESIAN_POINT('',(0.160274,-0.1651,0.0083));
#1876=CARTESIAN_POINT('',(2.77555756156289E-17,0.,0.0083));
#1877=CARTESIAN_POINT('',(0.163209240455332,-0.171448448669718,0.0083));
#1878=CARTESIAN_POINT('',(0.160980395892807,-0.169219604107193,0.0083));
#1879=CARTESIAN_POINT('',(0.163209240455332,-0.171448448669718,0.0083));
#1880=CARTESIAN_POINT('',(0.158966599768213,-0.175691089356837,0.0083));
#1881=CARTESIAN_POINT('',(0.164672075502913,-0.173834332334297,0.0083));
#1882=CARTESIAN_POINT('',(0.155575,-0.155575,0.0083));
#1883=CARTESIAN_POINT('',(0.173834332334297,-0.164672075502912,0.0083));
#1884=CARTESIAN_POINT('',(0.175691089356837,-0.158966599768213,0.0083));
#1885=CARTESIAN_POINT('',(0.171448448669718,-0.163209240455332,0.0083));
#1886=CARTESIAN_POINT('',(0.00411960410719287,0.00411960410719285,0.0083));
#1887=CARTESIAN_POINT('',(0.169219604107193,-0.160980395892807,0.0083));
#1888=CARTESIAN_POINT('',(0.1651,-0.1651,0.0083));
#1889=CARTESIAN_POINT('',(5.55111512312578E-17,-0.19365,0.155268398282202));
#1890=CARTESIAN_POINT('',(0.1598,-0.19365,0.0603));
#1891=CARTESIAN_POINT('',(0.1583,-0.19365,0.0603));
#1892=CARTESIAN_POINT('',(0.1613,-0.19365,0.0603));
#1893=CARTESIAN_POINT('',(0.1583,-0.19365,0.155268398282202));
#1894=CARTESIAN_POINT('',(0.1583,-0.19365,0.0263));
#1895=CARTESIAN_POINT('',(0.1598,-0.19365,0.0263));
#1896=CARTESIAN_POINT('',(0.1613,-0.19365,0.0263));
#1897=CARTESIAN_POINT('',(0.1613,-0.19365,0.0603));
#1898=CARTESIAN_POINT('',(0.16265,-0.19725,-0.343737302640273));
#1899=CARTESIAN_POINT('',(0.16265,-0.19725,0.0263));
#1900=CARTESIAN_POINT('',(0.1639,-0.19725,0.0263));
#1901=CARTESIAN_POINT('',(0.16265,-0.19725,0.0137));
#1902=CARTESIAN_POINT('',(0.16265,-0.1985,0.01495));
#1903=CARTESIAN_POINT('',(0.15695,-0.19725,0.155268398282202));
#1904=CARTESIAN_POINT('',(0.15695,-0.19725,0.0263));
#1905=CARTESIAN_POINT('',(0.15235,-0.19725,0.0263));
#1906=CARTESIAN_POINT('',(0.15695,-0.20185,0.0263));
#1907=CARTESIAN_POINT('',(0.15235,-0.19725,0.0263));
#1908=CARTESIAN_POINT('',(0.15235,-0.19725,0.0137));
#1909=CARTESIAN_POINT('',(0.15695,-0.19725,0.0137));
#1910=CARTESIAN_POINT('',(0.15695,-0.20185,0.0183));
#1911=CARTESIAN_POINT('',(0.15695,-0.20185,0.0183));
#1912=CARTESIAN_POINT('',(5.55111512312578E-17,-0.20185,0.155268398282202));
#1913=CARTESIAN_POINT('',(0.164775,-0.20185,0.0263));
#1914=CARTESIAN_POINT('',(0.16265,-0.20185,0.0263));
#1915=CARTESIAN_POINT('',(0.1598,-0.20185,0.0183));
#1916=CARTESIAN_POINT('',(0.16265,-0.20185,0.0183));
#1917=CARTESIAN_POINT('',(0.16265,-0.20185,0.0263));
#1918=CARTESIAN_POINT('',(0.16265,-0.19725,0.155268398282202));
#1919=CARTESIAN_POINT('',(0.16265,-0.19725,0.0137));
#1920=CARTESIAN_POINT('',(0.16725,-0.19725,0.0137));
#1921=CARTESIAN_POINT('',(0.16725,-0.19725,0.0183));
#1922=CARTESIAN_POINT('',(0.16725,-0.19725,0.0263));
#1923=CARTESIAN_POINT('',(0.16265,-0.19725,0.0263));
#1924=CARTESIAN_POINT('',(0.155575,-0.155575,0.0133));
#1925=CARTESIAN_POINT('',(0.164672075502913,-0.173834332334297,0.0083));
#1926=CARTESIAN_POINT('',(0.164929889734816,-0.174712150555443,0.00830000000000002));
#1927=CARTESIAN_POINT('',(0.164845541523585,-0.176532268167619,0.00878420519768065));
#1928=CARTESIAN_POINT('',(0.163632939099943,-0.178632381772243,0.0101164253017362));
#1929=CARTESIAN_POINT('',(0.161881818015875,-0.180027340322948,0.011660159757689));
#1930=CARTESIAN_POINT('',(0.160501162480538,-0.180502928066814,0.0127569720875806));
#1931=CARTESIAN_POINT('',(0.159797874221207,-0.180621503414886,0.0133));
#1932=CARTESIAN_POINT('',(0.173834332334297,-0.164672075502912,0.0083));
#1933=CARTESIAN_POINT('',(0.174712150555443,-0.164929889734816,0.00829999999999998));
#1934=CARTESIAN_POINT('',(0.176532268167616,-0.164845541523599,0.00878420519769899));
#1935=CARTESIAN_POINT('',(0.178632381772252,-0.163632939099894,0.0101164253016718));
#1936=CARTESIAN_POINT('',(0.180027340322917,-0.161881818016054,0.011660159757928));
#1937=CARTESIAN_POINT('',(0.180502928066879,-0.160501162480151,0.0127569720870658));
#1938=CARTESIAN_POINT('',(0.180621503414886,-0.159797874221207,0.0133));
#1939=CARTESIAN_POINT('',(0.169926,-0.1651,0.00195));
#1940=CARTESIAN_POINT('',(0.1651,-0.1651,0.00195));
#1941=CARTESIAN_POINT('',(0.161925,-0.1651,0.00195));
#1942=CARTESIAN_POINT('',(0.173834332334297,-0.164672075502912,0.0083));
#1943=CARTESIAN_POINT('',(0.174143791838054,-0.163721162880463,0.00829999999999999));
#1944=CARTESIAN_POINT('',(0.174143791838054,-0.163721162880463,0.0073));
#1945=CARTESIAN_POINT('',(0.174247445601328,-0.164793406404164,0.00829999999999999));
#1946=CARTESIAN_POINT('',(0.174469518203954,-0.163827165385538,0.00828761049188354));
#1947=CARTESIAN_POINT('',(0.174551284641219,-0.16385377498138,0.00730000000568617));
#1948=CARTESIAN_POINT('',(0.175095402860029,-0.164908451694204,0.00840648563524028));
#1949=CARTESIAN_POINT('',(0.175126568366964,-0.163977723684597,0.00832544454298025));
#1950=CARTESIAN_POINT('',(0.175379666672882,-0.164008351070953,0.00742778275971688));
#1951=CARTESIAN_POINT('',(0.176781423708159,-0.164676631679944,0.00895858158970847));
#1952=CARTESIAN_POINT('',(0.17659687392396,-0.163993819702735,0.00870772645642721));
#1953=CARTESIAN_POINT('',(0.177006735571422,-0.163903965928998,0.00809029790913512));
#1954=CARTESIAN_POINT('',(0.178565712593017,-0.163697058616911,0.0100567907652046));
#1955=CARTESIAN_POINT('',(0.178412304510547,-0.163366152496946,0.00972511976340962));
#1956=CARTESIAN_POINT('',(0.17870728800355,-0.163132879113569,0.00940814891773839));
#1957=CARTESIAN_POINT('',(0.180008239292351,-0.161926917783004,0.0116237597722936));
#1958=CARTESIAN_POINT('',(0.179987214632853,-0.161807232313318,0.0114264707426314));
#1959=CARTESIAN_POINT('',(0.180065710165379,-0.161637741120558,0.0112885117268975));
#1960=CARTESIAN_POINT('',(0.180500102693692,-0.16051792019432,0.0127440329820372));
#1961=CARTESIAN_POINT('',(0.180508227938172,-0.160469728144708,0.0126884362769567));
#1962=CARTESIAN_POINT('',(0.180516353183893,-0.160421536087904,0.0126328395784439));
#1963=CARTESIAN_POINT('',(0.180621503414885,-0.159797874221206,0.0133));
#1964=CARTESIAN_POINT('',(0.180621503414885,-0.159797874221206,0.0133));
#1965=CARTESIAN_POINT('',(0.180621503414885,-0.159797874221206,0.0133));
#1966=CARTESIAN_POINT('',(0.174143791838054,-0.163721162880462,0.0073));
#1967=CARTESIAN_POINT('',(0.175008027035863,-0.164002414584488,0.00729999999999994));
#1968=CARTESIAN_POINT('',(0.176790349010839,-0.164040810414197,0.00788836187202179));
#1969=CARTESIAN_POINT('',(0.178790949471403,-0.163062695122131,0.00950240997449279));
#1970=CARTESIAN_POINT('',(0.180090053604626,-0.161584419616449,0.0113484662961833));
#1971=CARTESIAN_POINT('',(0.180519728920687,-0.160401514084239,0.0126542580457638));
#1972=CARTESIAN_POINT('',(0.180621503414886,-0.159797874221207,0.0133));
#1973=CARTESIAN_POINT('',(0.174143791838054,-0.163721162880462,0.0073));
#1974=CARTESIAN_POINT('',(0.173834332334297,-0.164672075502912,0.0073));
#1975=CARTESIAN_POINT('',(0.175691089356837,-0.158966599768213,0.0073));
#1976=CARTESIAN_POINT('',(0.175691089356837,-0.158966599768213,0.0073));
#1977=CARTESIAN_POINT('',(0.172155555450904,-0.162502133674145,0.0073));
#1978=CARTESIAN_POINT('',(0.171448448669718,-0.163209240455332,0.0073));
#1979=CARTESIAN_POINT('',(0.176140393218814,-0.167901185004427,0.0073));
#1980=CARTESIAN_POINT('',(0.1768475,-0.167194078223241,0.0073));
#1981=CARTESIAN_POINT('',(0.169926710888379,-0.160273289111621,0.0073));
#1982=CARTESIAN_POINT('',(0.169219604107193,-0.160980395892807,0.0073));
#1983=CARTESIAN_POINT('',(0.1651,-0.1651,0.0073));
#1984=CARTESIAN_POINT('',(0.1651,-0.1651,0.0073));
#1985=CARTESIAN_POINT('',(0.160273289111621,-0.169926710888379,0.0073));
#1986=CARTESIAN_POINT('',(0.160980395892807,-0.169219604107193,0.0073));
#1987=CARTESIAN_POINT('',(-0.00411960410719282,-0.00411960410719285,0.0073));
#1988=CARTESIAN_POINT('',(0.160273289111621,-0.169926710888379,0.0073));
#1989=CARTESIAN_POINT('',(0.162502133674145,-0.172155555450904,0.0073));
#1990=CARTESIAN_POINT('',(0.163209240455332,-0.171448448669718,0.0073));
#1991=CARTESIAN_POINT('',(0.158966599768213,-0.175691089356837,0.0073));
#1992=CARTESIAN_POINT('',(0.158966599768213,-0.175691089356837,0.0073));
#1993=CARTESIAN_POINT('',(0.163721162880463,-0.174143791838054,0.0073));
#1994=CARTESIAN_POINT('',(0.164672075502913,-0.173834332334297,0.0073));
#1995=CARTESIAN_POINT('',(0.163721162880463,-0.174143791838054,0.0073));
#1996=CARTESIAN_POINT('',(0.163721162880463,-0.174143791838054,0.00830000000000001));
#1997=CARTESIAN_POINT('',(0.164672075502913,-0.173834332334297,0.0083));
#1998=CARTESIAN_POINT('',(0.163853774981364,-0.17455128464117,0.00730000000568617));
#1999=CARTESIAN_POINT('',(0.163827165385183,-0.174469518204081,0.00828761049186166));
#2000=CARTESIAN_POINT('',(0.1647934064038,-0.174247445601435,0.00830000000000001));
#2001=CARTESIAN_POINT('',(0.164008351070961,-0.175379666672905,0.00742778275971799));
#2002=CARTESIAN_POINT('',(0.163977723684755,-0.175126568366913,0.00832544454299137));
#2003=CARTESIAN_POINT('',(0.164908451694369,-0.17509540285998,0.00840648563524119));
#2004=CARTESIAN_POINT('',(0.16390396592899,-0.17700673557141,0.00809029790912988));
#2005=CARTESIAN_POINT('',(0.163993819702646,-0.176596873923981,0.0087077264564152));
#2006=CARTESIAN_POINT('',(0.164676631679844,-0.176781423708188,0.00895858158970413));
#2007=CARTESIAN_POINT('',(0.1631328791136,-0.17870728800355,0.00940814891778085));
#2008=CARTESIAN_POINT('',(0.163366152497014,-0.178412304510567,0.00972511976345486));
#2009=CARTESIAN_POINT('',(0.163697058616981,-0.178565712593001,0.0100567907652398));
#2010=CARTESIAN_POINT('',(0.161637741120451,-0.180065710165396,0.0112885117267426));
#2011=CARTESIAN_POINT('',(0.161807232313166,-0.179987214632768,0.0114264707424867));
#2012=CARTESIAN_POINT('',(0.161926917782857,-0.180008239292377,0.0116237597721652));
#2013=CARTESIAN_POINT('',(0.160421536088133,-0.180516353183854,0.012632839578777));
#2014=CARTESIAN_POINT('',(0.160469728145016,-0.180508227938354,0.0126884362772609));
#2015=CARTESIAN_POINT('',(0.160517920194617,-0.180500102693642,0.0127440329823133));
#2016=CARTESIAN_POINT('',(0.159797874221206,-0.180621503414885,0.0133));
#2017=CARTESIAN_POINT('',(0.159797874221206,-0.180621503414885,0.0133));
#2018=CARTESIAN_POINT('',(0.159797874221206,-0.180621503414885,0.0133));
#2019=CARTESIAN_POINT('',(0.163721162880463,-0.174143791838054,0.0073));
#2020=CARTESIAN_POINT('',(0.164002414584488,-0.175008027035863,0.00729999999999999));
#2021=CARTESIAN_POINT('',(0.164040810414194,-0.176790349010839,0.00788836187201955));
#2022=CARTESIAN_POINT('',(0.16306269512214,-0.178790949471401,0.00950240997450088));
#2023=CARTESIAN_POINT('',(0.161584419616418,-0.180090053604631,0.0113484662961534));
#2024=CARTESIAN_POINT('',(0.160401514084306,-0.180519728920676,0.0126542580458284));
#2025=CARTESIAN_POINT('',(0.159797874221207,-0.180621503414886,0.0133));
#2026=CARTESIAN_POINT('',(2.77555756156289E-17,0.,0.003));
#2027=CARTESIAN_POINT('',(0.158966599768213,-0.175691089356837,0.003));
#2028=CARTESIAN_POINT('',(0.162988120380331,-0.17272,0.003));
#2029=CARTESIAN_POINT('',(-2.77555756156289E-17,-0.17272,0.003));
#2030=CARTESIAN_POINT('',(0.1613,-0.19365,0.155268398282202));
#2031=CARTESIAN_POINT('',(0.1613,-0.19365,0.0263));
#2032=CARTESIAN_POINT('',(0.1082,-0.24675,0.0072));
#2033=CARTESIAN_POINT('',(2.77555756156289E-17,-0.19265,0.0613));
#2034=CARTESIAN_POINT('',(0.104866666666667,-0.140216666666667,0.113733333333333));
#2035=CARTESIAN_POINT('',(0.1573,-0.19265,0.0433));
#2036=CARTESIAN_POINT('',(0.1573,-0.19265,0.0263));
#2037=CARTESIAN_POINT('',(0.164775,-0.20185,0.0263));
#2038=CARTESIAN_POINT('',(0.15235,-0.20185,0.0263));
#2039=CARTESIAN_POINT('',(0.16725,-0.20185,0.0263));
#2040=CARTESIAN_POINT('',(0.15235,-0.20185,0.0223));
#2041=CARTESIAN_POINT('',(0.15235,-0.20385,0.0203));
#2042=CARTESIAN_POINT('',(0.1598,-0.20185,0.0183));
#2043=CARTESIAN_POINT('',(0.16725,-0.356075,0.172525));
#2044=CARTESIAN_POINT('',(-2.77555756156289E-17,-2.77555756156289E-17,0.0083));
#2045=CARTESIAN_POINT('',(0.,-2.77555756156289E-17,0.0083));
#2046=CARTESIAN_POINT('',(0.,-0.188549999999996,0.0083));
#2047=CARTESIAN_POINT('',(-0.01,-0.181075,0.0083));
#2048=CARTESIAN_POINT('',(-0.0099,-0.181075,0.0083));
#2049=CARTESIAN_POINT('',(-0.0099,0.,0.0083));
#2050=CARTESIAN_POINT('',(-0.0099,-0.188549999999996,0.0083));
#2051=CARTESIAN_POINT('',(-0.01,-0.188549999999996,0.0083));
#2052=CARTESIAN_POINT('',(0.16725,-0.20185,0.32675));
#2053=CARTESIAN_POINT('',(0.1651,-0.1651,0.0083));
#2054=CARTESIAN_POINT('',(0.1651,-0.1651,0.));
#2055=CARTESIAN_POINT('',(0.168275,-0.1651,0.));
#2056=CARTESIAN_POINT('',(0.175691089356837,-0.158966599768213,0.0083));
#2057=CARTESIAN_POINT('',(0.17272,-0.162988120380331,0.0083));
#2058=CARTESIAN_POINT('',(0.17272,-0.162988120380331,0.));
#2059=CARTESIAN_POINT('',(0.17272,-0.162988120380331,0.003));
#2060=CARTESIAN_POINT('',(0.175691089356837,-0.158966599768213,0.));
#2061=CARTESIAN_POINT('',(0.172155555450904,-0.162502133674145,0.));
#2062=CARTESIAN_POINT('',(0.172155555450904,-0.162502133674145,0.0083));
#2063=CARTESIAN_POINT('',(0.175691089356837,-0.158966599768213,0.003));
#2064=CARTESIAN_POINT('',(0.1768475,-0.167194078223241,0.0083));
#2065=CARTESIAN_POINT('',(0.169926710888379,-0.160273289111621,0.0083));
#2066=CARTESIAN_POINT('',(0.169926710888379,-0.160273289111621,0.));
#2067=CARTESIAN_POINT('',(0.1768475,-0.167194078223241,0.));
#2068=CARTESIAN_POINT('',(0.1651,-0.1651,0.0083));
#2069=CARTESIAN_POINT('',(0.160273289111621,-0.169926710888379,0.0083));
#2070=CARTESIAN_POINT('',(0.160273289111621,-0.169926710888379,0.));
#2071=CARTESIAN_POINT('',(0.1651,-0.1651,0.));
#2072=CARTESIAN_POINT('',(0.167194078223242,-0.1768475,0.0083));
#2073=CARTESIAN_POINT('',(0.162502133674145,-0.172155555450904,0.0083));
#2074=CARTESIAN_POINT('',(0.162502133674145,-0.172155555450904,0.));
#2075=CARTESIAN_POINT('',(0.167194078223242,-0.1768475,0.));
#2076=CARTESIAN_POINT('',(0.158966599768213,-0.175691089356837,0.0083));
#2077=CARTESIAN_POINT('',(0.162988120380331,-0.17272,0.0083));
#2078=CARTESIAN_POINT('',(0.162988120380331,-0.17272,0.));
#2079=CARTESIAN_POINT('',(0.158966599768213,-0.175691089356837,0.));
#2080=CARTESIAN_POINT('',(-2.77555756156289E-17,-0.17272,0.003));
#2081=CARTESIAN_POINT('',(-2.77555756156289E-17,-0.17272,0.));
#2082=CARTESIAN_POINT('',(0.,0.,0.));
#2083=CARTESIAN_POINT('',(-2.77555756156289E-17,-0.188549999999996,0.0025));
#2084=CARTESIAN_POINT('',(0.,-0.188549999999996,0.));
#2085=CARTESIAN_POINT('',(0.,0.,0.));
#2086=CARTESIAN_POINT('',(2.77555756156289E-17,0.,0.));
#2087=CARTESIAN_POINT('',(2.77555756156289E-17,-0.01,0.));
#2088=CARTESIAN_POINT('',(0.180975,-0.01,0.));
#2089=CARTESIAN_POINT('',(-0.01,-0.188549999999996,0.));
#2090=CARTESIAN_POINT('',(-0.0099,-0.188549999999996,0.));
#2091=CARTESIAN_POINT('',(-0.0099,-5.55111512312578E-17,0.));
#2092=CARTESIAN_POINT('',(-0.0099,-0.181075,0.));
#2093=CARTESIAN_POINT('',(-0.01,-0.181075,0.));
#2094=CARTESIAN_POINT('',(0.17272,8.32667268468867E-17,0.));
#2095=CARTESIAN_POINT('',(0.180975,-0.01,0.));
#2096=CARTESIAN_POINT('',(0.17272,8.32667268468867E-17,0.003));
#2097=CARTESIAN_POINT('',(0.17272,8.32667268468867E-17,0.003));
#2098=CARTESIAN_POINT('',(2.77555756156289E-17,0.,0.003));
#2099=CARTESIAN_POINT('',(0.180975,5.55111512312578E-17,0.003));
#2100=CARTESIAN_POINT('',(-2.77555756156289E-17,-2.77555756156289E-17,0.0083));
#2101=CARTESIAN_POINT('',(-2.77555756156289E-17,-2.77555756156289E-17,0.0083));
#2102=CARTESIAN_POINT('',(-2.77555756156289E-17,-0.01,0.0083));
#2103=CARTESIAN_POINT('',(0.155575,-0.155575,0.167525));
#2104=CARTESIAN_POINT('',(0.155575,-0.185074999999996,0.167525));
#2105=CARTESIAN_POINT('',(0.155575,-0.185074999999996,0.167425));
#2106=CARTESIAN_POINT('',(0.155575,-0.155575,0.167425));
#2107=CARTESIAN_POINT('',(0.185074999999996,-0.155575,0.167425));
#2108=CARTESIAN_POINT('',(0.185074999999996,-0.155575,0.167525));
#2109=CARTESIAN_POINT('',(0.177447985938946,-0.175385508027063,0.160710945153184));
#2110=CARTESIAN_POINT('',(0.178005873971023,-0.174732874938809,0.162275832966006));
#2111=CARTESIAN_POINT('',(0.177680765953596,-0.175118805744472,0.163985175414188));
#2112=CARTESIAN_POINT('',(0.176624578406563,-0.176269282026206,0.16483830069486));
#2113=CARTESIAN_POINT('',(0.175384861442288,-0.177448566350418,0.164338308258288));
#2114=CARTESIAN_POINT('',(0.174733534382113,-0.178005290243285,0.162774843479799));
#2115=CARTESIAN_POINT('',(0.175117180873311,-0.177682202674383,0.161067344848998));
#2116=CARTESIAN_POINT('',(0.176268835514978,-0.176625040194062,0.160211407933279));
#2117=CARTESIAN_POINT('',(0.177447985938946,-0.175385508027063,0.160710945153184));
#2118=CARTESIAN_POINT('',(0.178005873971023,-0.174732874938809,0.162275832966006));
#2119=CARTESIAN_POINT('',(0.177680765953596,-0.175118805744472,0.163985175414188));
#2120=CARTESIAN_POINT('',(0.177858707962773,-0.174905968921128,0.162299908738566));
#2121=CARTESIAN_POINT('',(0.185074999999996,-0.1541125,0.167525));
#2122=CARTESIAN_POINT('',(0.185074999999996,-0.1541125,0.167425));
#2123=CARTESIAN_POINT('',(0.1524625,-0.185074999999996,0.167525));
#2124=CARTESIAN_POINT('',(0.1524625,-0.185074999999996,0.167425));
#2125=CARTESIAN_POINT('',(0.171,0.0353553390593275,0.167425));
#2126=CARTESIAN_POINT('',(0.18521051382757,-0.18521051382757,0.162525));
#2127=CARTESIAN_POINT('',(0.182382086702823,-0.182382086702823,0.162525));
#2128=CARTESIAN_POINT('',(0.180897162462331,-0.183867010943315,0.162525));
#2129=CARTESIAN_POINT('',(0.184927671115095,-0.179836502290552,0.162525));
#2130=CARTESIAN_POINT('',(0.182382086702823,-0.182382086702823,0.162525));
#2131=CARTESIAN_POINT('',(0.179836502290551,-0.184927671115095,0.162525));
#2132=CARTESIAN_POINT('',(0.18521051382757,-0.18521051382757,0.162525));
#2133=CARTESIAN_POINT('',(-0.01,-0.188549999999996,0.0025));
#2134=CARTESIAN_POINT('',(-0.0099,-0.188549999999996,0.0025));
#2135=CARTESIAN_POINT('',(-0.01,-0.181075,0.0083));
#2136=CARTESIAN_POINT('',(-0.0099,-0.181075,0.0083));
#2137=CARTESIAN_POINT('',(-0.0099,-0.182685,0.00415));
#2138=CARTESIAN_POINT('',(0.180975,-0.01,0.00415));
#2139=CARTESIAN_POINT('',(0.180975,-0.01,0.00415));
#2140=CARTESIAN_POINT('',(0.182685,-0.01,0.00415));
#2141=MECHANICAL_DESIGN_GEOMETRIC_PRESENTATION_REPRESENTATION('',(#1243),
#2142);
#2142=(
GEOMETRIC_REPRESENTATION_CONTEXT(3)
GLOBAL_UNCERTAINTY_ASSIGNED_CONTEXT((#2143))
GLOBAL_UNIT_ASSIGNED_CONTEXT((#2146,#2145,#2144))
REPRESENTATION_CONTEXT('Bottom Right Front','TOP_LEVEL_ASSEMBLY_PART')
);
#2143=UNCERTAINTY_MEASURE_WITH_UNIT(LENGTH_MEASURE(2.E-5),#2146,
'DISTANCE_ACCURACY_VALUE','Maximum Tolerance applied to model');
#2144=(
NAMED_UNIT(*)
SI_UNIT($,.STERADIAN.)
SOLID_ANGLE_UNIT()
);
#2145=(
NAMED_UNIT(*)
PLANE_ANGLE_UNIT()
SI_UNIT($,.RADIAN.)
);
#2146=(
LENGTH_UNIT()
NAMED_UNIT(*)
SI_UNIT($,.METRE.)
);
#2147=PRODUCT_DEFINITION_SHAPE('','',#2148);
#2148=PRODUCT_DEFINITION('','',#2150,#2149);
#2149=PRODUCT_DEFINITION_CONTEXT('',#2156,'design');
#2150=PRODUCT_DEFINITION_FORMATION_WITH_SPECIFIED_SOURCE('','',#2152,
 .NOT_KNOWN.);
#2151=PRODUCT_RELATED_PRODUCT_CATEGORY('','',(#2152));
#2152=PRODUCT('Bottom Right Front','Bottom Right Front',
'Bottom Right Front',(#2154));
#2153=PRODUCT_CATEGORY('','');
#2154=PRODUCT_CONTEXT('',#2156,'mechanical');
#2155=APPLICATION_PROTOCOL_DEFINITION('international standard',
'ap242_managed_model_based_3d_engineering',2020,#2156);
#2156=APPLICATION_CONTEXT('managed model based 3d engineering');
ENDSEC;
END-ISO-10303-21;
