ISO-10303-21;
HEADER;
/* Generated by software containing ST-Developer
 * from STEP Tools, Inc. (www.steptools.com) 
 */
/* OPTION: using custom renumber hook */

FILE_DESCRIPTION(
/* description */ ('STEP AP242 Edition 2',
'CAx-IF Rec.Pracs.---Representation and Presentation of Product Manufa
cturing Information (PMI)---4.0---2014-10-13',
'CAx-IF Rec.Pracs.---3D Tessellated Geometry---0.4---2014-09-14','2;1',
'CAx-IF Rec.Pracs.---User Defined Attributes---1.5---2016-08-15'),
/* implementation_level */ '2;1');

FILE_NAME(
/* name */ 'N-Metheus - Foot',
/* time_stamp */ '2026-01-30T20:52:39Z',
/* author */ (''),
/* organization */ (''),
/* preprocessor_version */ 'ST-DEVELOPER v20',
/* originating_system */ 'ONSHAPE BY PTC INC, 1.210',
/* authorisation */ '  ');

FILE_SCHEMA (('AP242_MANAGED_MODEL_BASED_3D_ENGINEERING_MIM_LF { 1 0 10303 442 3 1 4 }'));
ENDSEC;

DATA;
#10=SHAPE_REPRESENTATION_RELATIONSHIP('','',#223,#11);
#11=ADVANCED_BREP_SHAPE_REPRESENTATION('',(#221),#587);
#12=B_SPLINE_SURFACE_WITH_KNOTS('',3,3,((#352,#353,#354,#355,#356,#357,
#358,#359,#360,#361,#362,#363,#364,#365,#366,#367,#368,#369,#370),(#371,
#372,#373,#374,#375,#376,#377,#378,#379,#380,#381,#382,#383,#384,#385,#386,
#387,#388,#389),(#390,#391,#392,#393,#394,#395,#396,#397,#398,#399,#400,
#401,#402,#403,#404,#405,#406,#407,#408),(#409,#410,#411,#412,#413,#414,
#415,#416,#417,#418,#419,#420,#421,#422,#423,#424,#425,#426,#427),(#428,
#429,#430,#431,#432,#433,#434,#435,#436,#437,#438,#439,#440,#441,#442,#443,
#444,#445,#446),(#447,#448,#449,#450,#451,#452,#453,#454,#455,#456,#457,
#458,#459,#460,#461,#462,#463,#464,#465),(#466,#467,#468,#469,#470,#471,
#472,#473,#474,#475,#476,#477,#478,#479,#480,#481,#482,#483,#484),(#485,
#486,#487,#488,#489,#490,#491,#492,#493,#494,#495,#496,#497,#498,#499,#500,
#501,#502,#503),(#504,#505,#506,#507,#508,#509,#510,#511,#512,#513,#514,
#515,#516,#517,#518,#519,#520,#521,#522),(#523,#524,#525,#526,#527,#528,
#529,#530,#531,#532,#533,#534,#535,#536,#537,#538,#539,#540,#541),(#542,
#543,#544,#545,#546,#547,#548,#549,#550,#551,#552,#553,#554,#555,#556,#557,
#558,#559,#560),(#561,#562,#563,#564,#565,#566,#567,#568,#569,#570,#571,
#572,#573,#574,#575,#576,#577,#578,#579)),.UNSPECIFIED.,.F.,.T.,.F.,(4,
1,1,1,1,1,1,1,1,4),(1,1,1,1,1,1,1,1,1,1,1,1,1,1,1,1,1,1,1,1,1,1,1),(0.,
0.125,0.1875,0.270833333333333,0.354166666666667,0.4375,0.520833333333333,
0.625,0.75,1.),(-1.17809724509617,-0.785398163397448,-0.392699081698725,
0.,0.392699081698724,0.785398163397448,1.17809724509617,1.5707963267949,
1.96349540849362,2.35619449019234,2.74889357189107,3.14159265358979,3.53429173528852,
3.92699081698724,4.31968989868597,4.71238898038469,5.10508806208341,5.49778714378214,
5.89048622548086,6.28318530717959,6.67588438887831,7.06858347057703,7.46128255227576),
 .UNSPECIFIED.);
#13=LINE('',#309,#31);
#14=LINE('',#312,#32);
#15=LINE('',#314,#33);
#16=LINE('',#316,#34);
#17=LINE('',#318,#35);
#18=LINE('',#320,#36);
#19=LINE('',#322,#37);
#20=LINE('',#324,#38);
#21=LINE('',#326,#39);
#22=LINE('',#328,#40);
#23=LINE('',#330,#41);
#24=LINE('',#332,#42);
#25=LINE('',#334,#43);
#26=LINE('',#336,#44);
#27=LINE('',#338,#45);
#28=LINE('',#340,#46);
#29=LINE('',#342,#47);
#30=LINE('',#343,#48);
#31=VECTOR('',#254,1.);
#32=VECTOR('',#255,1.);
#33=VECTOR('',#256,1.);
#34=VECTOR('',#257,1.);
#35=VECTOR('',#260,1.);
#36=VECTOR('',#261,1.);
#37=VECTOR('',#262,1.);
#38=VECTOR('',#265,1.);
#39=VECTOR('',#266,1.);
#40=VECTOR('',#267,1.);
#41=VECTOR('',#270,1.);
#42=VECTOR('',#271,1.);
#43=VECTOR('',#272,1.);
#44=VECTOR('',#275,1.);
#45=VECTOR('',#276,1.);
#46=VECTOR('',#277,1.);
#47=VECTOR('',#280,1.);
#48=VECTOR('',#281,1.);
#49=PLANE('',#228);
#50=PLANE('',#229);
#51=PLANE('',#230);
#52=PLANE('',#231);
#53=PLANE('',#232);
#54=PLANE('',#233);
#55=PLANE('',#234);
#56=PLANE('',#235);
#57=PLANE('',#239);
#58=PLANE('',#241);
#59=ORIENTED_EDGE('',*,*,#107,.F.);
#60=ORIENTED_EDGE('',*,*,#108,.F.);
#61=ORIENTED_EDGE('',*,*,#109,.F.);
#62=ORIENTED_EDGE('',*,*,#110,.F.);
#63=ORIENTED_EDGE('',*,*,#111,.T.);
#64=ORIENTED_EDGE('',*,*,#112,.T.);
#65=ORIENTED_EDGE('',*,*,#113,.F.);
#66=ORIENTED_EDGE('',*,*,#114,.F.);
#67=ORIENTED_EDGE('',*,*,#115,.T.);
#68=ORIENTED_EDGE('',*,*,#110,.T.);
#69=ORIENTED_EDGE('',*,*,#116,.F.);
#70=ORIENTED_EDGE('',*,*,#117,.F.);
#71=ORIENTED_EDGE('',*,*,#118,.T.);
#72=ORIENTED_EDGE('',*,*,#114,.T.);
#73=ORIENTED_EDGE('',*,*,#119,.F.);
#74=ORIENTED_EDGE('',*,*,#120,.F.);
#75=ORIENTED_EDGE('',*,*,#121,.T.);
#76=ORIENTED_EDGE('',*,*,#117,.T.);
#77=ORIENTED_EDGE('',*,*,#122,.F.);
#78=ORIENTED_EDGE('',*,*,#123,.F.);
#79=ORIENTED_EDGE('',*,*,#124,.T.);
#80=ORIENTED_EDGE('',*,*,#120,.T.);
#81=ORIENTED_EDGE('',*,*,#125,.F.);
#82=ORIENTED_EDGE('',*,*,#112,.F.);
#83=ORIENTED_EDGE('',*,*,#126,.T.);
#84=ORIENTED_EDGE('',*,*,#123,.T.);
#85=ORIENTED_EDGE('',*,*,#111,.F.);
#86=ORIENTED_EDGE('',*,*,#115,.F.);
#87=ORIENTED_EDGE('',*,*,#118,.F.);
#88=ORIENTED_EDGE('',*,*,#121,.F.);
#89=ORIENTED_EDGE('',*,*,#124,.F.);
#90=ORIENTED_EDGE('',*,*,#126,.F.);
#91=ORIENTED_EDGE('',*,*,#107,.T.);
#92=ORIENTED_EDGE('',*,*,#127,.T.);
#93=ORIENTED_EDGE('',*,*,#128,.T.);
#94=ORIENTED_EDGE('',*,*,#127,.F.);
#95=ORIENTED_EDGE('',*,*,#128,.F.);
#96=ORIENTED_EDGE('',*,*,#113,.T.);
#97=ORIENTED_EDGE('',*,*,#109,.T.);
#98=ORIENTED_EDGE('',*,*,#125,.T.);
#99=ORIENTED_EDGE('',*,*,#122,.T.);
#100=ORIENTED_EDGE('',*,*,#119,.T.);
#101=ORIENTED_EDGE('',*,*,#116,.T.);
#102=ORIENTED_EDGE('',*,*,#108,.T.);
#103=ORIENTED_EDGE('',*,*,#129,.T.);
#104=ORIENTED_EDGE('',*,*,#130,.F.);
#105=ORIENTED_EDGE('',*,*,#129,.F.);
#106=ORIENTED_EDGE('',*,*,#130,.T.);
#107=EDGE_CURVE('',#131,#131,#149,.T.);
#108=EDGE_CURVE('',#132,#132,#150,.T.);
#109=EDGE_CURVE('',#133,#134,#13,.T.);
#110=EDGE_CURVE('',#135,#133,#14,.T.);
#111=EDGE_CURVE('',#135,#136,#15,.T.);
#112=EDGE_CURVE('',#136,#134,#16,.T.);
#113=EDGE_CURVE('',#137,#133,#17,.T.);
#114=EDGE_CURVE('',#138,#137,#18,.T.);
#115=EDGE_CURVE('',#138,#135,#19,.T.);
#116=EDGE_CURVE('',#139,#137,#20,.T.);
#117=EDGE_CURVE('',#140,#139,#21,.T.);
#118=EDGE_CURVE('',#140,#138,#22,.T.);
#119=EDGE_CURVE('',#141,#139,#23,.T.);
#120=EDGE_CURVE('',#142,#141,#24,.T.);
#121=EDGE_CURVE('',#142,#140,#25,.T.);
#122=EDGE_CURVE('',#143,#141,#26,.T.);
#123=EDGE_CURVE('',#144,#143,#27,.T.);
#124=EDGE_CURVE('',#144,#142,#28,.T.);
#125=EDGE_CURVE('',#134,#143,#29,.T.);
#126=EDGE_CURVE('',#136,#144,#30,.T.);
#127=EDGE_CURVE('',#145,#145,#151,.T.);
#128=EDGE_CURVE('',#146,#146,#152,.T.);
#129=EDGE_CURVE('',#147,#147,#153,.T.);
#130=EDGE_CURVE('',#148,#148,#154,.T.);
#131=VERTEX_POINT('',#305);
#132=VERTEX_POINT('',#307);
#133=VERTEX_POINT('',#310);
#134=VERTEX_POINT('',#311);
#135=VERTEX_POINT('',#313);
#136=VERTEX_POINT('',#315);
#137=VERTEX_POINT('',#319);
#138=VERTEX_POINT('',#321);
#139=VERTEX_POINT('',#325);
#140=VERTEX_POINT('',#327);
#141=VERTEX_POINT('',#331);
#142=VERTEX_POINT('',#333);
#143=VERTEX_POINT('',#337);
#144=VERTEX_POINT('',#339);
#145=VERTEX_POINT('',#347);
#146=VERTEX_POINT('',#350);
#147=VERTEX_POINT('',#581);
#148=VERTEX_POINT('',#584);
#149=CIRCLE('',#226,0.0075);
#150=CIRCLE('',#227,0.0075);
#151=CIRCLE('',#236,0.00325);
#152=CIRCLE('',#238,0.00325);
#153=CIRCLE('',#240,0.01);
#154=CIRCLE('',#242,0.01);
#155=EDGE_LOOP('',(#59));
#156=EDGE_LOOP('',(#60));
#157=EDGE_LOOP('',(#61,#62,#63,#64));
#158=EDGE_LOOP('',(#65,#66,#67,#68));
#159=EDGE_LOOP('',(#69,#70,#71,#72));
#160=EDGE_LOOP('',(#73,#74,#75,#76));
#161=EDGE_LOOP('',(#77,#78,#79,#80));
#162=EDGE_LOOP('',(#81,#82,#83,#84));
#163=EDGE_LOOP('',(#85,#86,#87,#88,#89,#90));
#164=EDGE_LOOP('',(#91));
#165=EDGE_LOOP('',(#92));
#166=EDGE_LOOP('',(#93));
#167=EDGE_LOOP('',(#94));
#168=EDGE_LOOP('',(#95));
#169=EDGE_LOOP('',(#96,#97,#98,#99,#100,#101));
#170=EDGE_LOOP('',(#102));
#171=EDGE_LOOP('',(#103));
#172=EDGE_LOOP('',(#104));
#173=EDGE_LOOP('',(#105));
#174=EDGE_LOOP('',(#106));
#175=FACE_BOUND('',#155,.T.);
#176=FACE_BOUND('',#156,.T.);
#177=FACE_BOUND('',#157,.T.);
#178=FACE_BOUND('',#158,.T.);
#179=FACE_BOUND('',#159,.T.);
#180=FACE_BOUND('',#160,.T.);
#181=FACE_BOUND('',#161,.T.);
#182=FACE_BOUND('',#162,.T.);
#183=FACE_BOUND('',#163,.T.);
#184=FACE_BOUND('',#164,.T.);
#185=FACE_BOUND('',#165,.T.);
#186=FACE_BOUND('',#166,.T.);
#187=FACE_BOUND('',#167,.T.);
#188=FACE_BOUND('',#168,.T.);
#189=FACE_BOUND('',#169,.T.);
#190=FACE_BOUND('',#170,.T.);
#191=FACE_BOUND('',#171,.T.);
#192=FACE_BOUND('',#172,.T.);
#193=FACE_BOUND('',#173,.T.);
#194=FACE_BOUND('',#174,.T.);
#195=CYLINDRICAL_SURFACE('',#225,0.0075);
#196=CYLINDRICAL_SURFACE('',#237,0.00325);
#197=CYLINDRICAL_SURFACE('',#243,0.01);
#198=ADVANCED_FACE('',(#175,#176),#195,.T.);
#199=ADVANCED_FACE('',(#177),#49,.T.);
#200=ADVANCED_FACE('',(#178),#50,.T.);
#201=ADVANCED_FACE('',(#179),#51,.T.);
#202=ADVANCED_FACE('',(#180),#52,.T.);
#203=ADVANCED_FACE('',(#181),#53,.T.);
#204=ADVANCED_FACE('',(#182),#54,.T.);
#205=ADVANCED_FACE('',(#183,#184),#55,.T.);
#206=ADVANCED_FACE('',(#185),#56,.T.);
#207=ADVANCED_FACE('',(#186,#187),#196,.F.);
#208=ADVANCED_FACE('',(#188,#189),#57,.T.);
#209=ADVANCED_FACE('',(#190,#191),#12,.T.);
#210=ADVANCED_FACE('',(#192),#58,.F.);
#211=ADVANCED_FACE('',(#193,#194),#197,.T.);
#212=CLOSED_SHELL('',(#198,#199,#200,#201,#202,#203,#204,#205,#206,#207,
#208,#209,#210,#211));
#213=STYLED_ITEM('',(#214),#221);
#214=PRESENTATION_STYLE_ASSIGNMENT((#215));
#215=SURFACE_STYLE_USAGE(.BOTH.,#216);
#216=SURFACE_SIDE_STYLE('',(#217));
#217=SURFACE_STYLE_FILL_AREA(#218);
#218=FILL_AREA_STYLE('',(#219));
#219=FILL_AREA_STYLE_COLOUR('',#220);
#220=COLOUR_RGB('',0.615686274509804,0.811764705882353,0.929411764705882);
#221=MANIFOLD_SOLID_BREP('Foot',#212);
#222=SHAPE_DEFINITION_REPRESENTATION(#592,#223);
#223=SHAPE_REPRESENTATION('Foot',(#224),#587);
#224=AXIS2_PLACEMENT_3D('',#302,#244,#245);
#225=AXIS2_PLACEMENT_3D('',#303,#246,#247);
#226=AXIS2_PLACEMENT_3D('',#304,#248,#249);
#227=AXIS2_PLACEMENT_3D('',#306,#250,#251);
#228=AXIS2_PLACEMENT_3D('',#308,#252,#253);
#229=AXIS2_PLACEMENT_3D('',#317,#258,#259);
#230=AXIS2_PLACEMENT_3D('',#323,#263,#264);
#231=AXIS2_PLACEMENT_3D('',#329,#268,#269);
#232=AXIS2_PLACEMENT_3D('',#335,#273,#274);
#233=AXIS2_PLACEMENT_3D('',#341,#278,#279);
#234=AXIS2_PLACEMENT_3D('',#344,#282,#283);
#235=AXIS2_PLACEMENT_3D('',#345,#284,#285);
#236=AXIS2_PLACEMENT_3D('',#346,#286,#287);
#237=AXIS2_PLACEMENT_3D('',#348,#288,#289);
#238=AXIS2_PLACEMENT_3D('',#349,#290,#291);
#239=AXIS2_PLACEMENT_3D('',#351,#292,#293);
#240=AXIS2_PLACEMENT_3D('',#580,#294,#295);
#241=AXIS2_PLACEMENT_3D('',#582,#296,#297);
#242=AXIS2_PLACEMENT_3D('',#583,#298,#299);
#243=AXIS2_PLACEMENT_3D('',#585,#300,#301);
#244=DIRECTION('',(0.,0.,1.));
#245=DIRECTION('',(1.,0.,0.));
#246=DIRECTION('',(0.,0.,-1.));
#247=DIRECTION('',(-1.,0.,0.));
#248=DIRECTION('',(0.,0.,1.));
#249=DIRECTION('',(1.,0.,0.));
#250=DIRECTION('',(0.,0.,-1.));
#251=DIRECTION('',(-1.,0.,0.));
#252=DIRECTION('',(0.,-1.,0.));
#253=DIRECTION('',(0.,0.,-1.));
#254=DIRECTION('',(-1.,0.,0.));
#255=DIRECTION('',(0.,0.,-1.));
#256=DIRECTION('',(-1.,0.,0.));
#257=DIRECTION('',(0.,0.,-1.));
#258=DIRECTION('',(-0.866025403784439,-0.5,0.));
#259=DIRECTION('',(0.5,-0.866025403784439,0.));
#260=DIRECTION('',(-0.5,0.866025403784439,0.));
#261=DIRECTION('',(0.,0.,-1.));
#262=DIRECTION('',(-0.5,0.866025403784439,0.));
#263=DIRECTION('',(-0.866025403784438,0.5,0.));
#264=DIRECTION('',(-0.5,-0.866025403784438,0.));
#265=DIRECTION('',(0.5,0.866025403784439,0.));
#266=DIRECTION('',(0.,0.,-1.));
#267=DIRECTION('',(0.5,0.866025403784439,0.));
#268=DIRECTION('',(0.,1.,0.));
#269=DIRECTION('',(0.,0.,1.));
#270=DIRECTION('',(1.,0.,0.));
#271=DIRECTION('',(0.,0.,-1.));
#272=DIRECTION('',(1.,0.,0.));
#273=DIRECTION('',(0.866025403784439,0.5,0.));
#274=DIRECTION('',(-0.5,0.866025403784439,0.));
#275=DIRECTION('',(0.5,-0.866025403784439,0.));
#276=DIRECTION('',(0.,0.,-1.));
#277=DIRECTION('',(0.5,-0.866025403784439,0.));
#278=DIRECTION('',(0.866025403784439,-0.5,0.));
#279=DIRECTION('',(0.5,0.866025403784439,0.));
#280=DIRECTION('',(-0.5,-0.866025403784439,0.));
#281=DIRECTION('',(-0.5,-0.866025403784439,0.));
#282=DIRECTION('',(0.,0.,1.));
#283=DIRECTION('',(1.,0.,0.));
#284=DIRECTION('',(0.,0.,1.));
#285=DIRECTION('',(1.,0.,0.));
#286=DIRECTION('',(0.,0.,1.));
#287=DIRECTION('',(1.,0.,0.));
#288=DIRECTION('',(0.,0.,-1.));
#289=DIRECTION('',(-1.,0.,0.));
#290=DIRECTION('',(0.,0.,1.));
#291=DIRECTION('',(1.,0.,0.));
#292=DIRECTION('',(0.,0.,1.));
#293=DIRECTION('',(1.,0.,0.));
#294=DIRECTION('',(0.,0.,1.));
#295=DIRECTION('',(1.,0.,0.));
#296=DIRECTION('',(0.,0.,1.));
#297=DIRECTION('',(1.,0.,0.));
#298=DIRECTION('',(0.,0.,1.));
#299=DIRECTION('',(1.,0.,0.));
#300=DIRECTION('',(0.,0.,-1.));
#301=DIRECTION('',(-1.,0.,0.));
#302=CARTESIAN_POINT('',(0.,0.,0.));
#303=CARTESIAN_POINT('',(0.,4.59242549680257E-19,0.012));
#304=CARTESIAN_POINT('',(0.,4.59242549680257E-19,0.01765));
#305=CARTESIAN_POINT('',(0.0075,4.59242549680257E-19,0.01765));
#306=CARTESIAN_POINT('',(0.,6.12323399573677E-19,0.012680176462524));
#307=CARTESIAN_POINT('',(-0.0075,6.12323399573677E-19,0.012680176462524));
#308=CARTESIAN_POINT('',(0.,0.0055,0.01765));
#309=CARTESIAN_POINT('',(0.,0.0055,0.012));
#310=CARTESIAN_POINT('',(0.00317542648054294,0.0055,0.012));
#311=CARTESIAN_POINT('',(-0.00317542648054294,0.0055,0.012));
#312=CARTESIAN_POINT('',(0.00317542648054294,0.0055,0.01765));
#313=CARTESIAN_POINT('',(0.00317542648054294,0.0055,0.01765));
#314=CARTESIAN_POINT('',(0.,0.0055,0.01765));
#315=CARTESIAN_POINT('',(-0.00317542648054294,0.0055,0.01765));
#316=CARTESIAN_POINT('',(-0.00317542648054294,0.0055,0.01765));
#317=CARTESIAN_POINT('',(0.00476313972081441,0.00275,0.01765));
#318=CARTESIAN_POINT('',(0.00476313972081441,0.00275,0.012));
#319=CARTESIAN_POINT('',(0.00635085296108588,-1.3010426069826E-18,0.012));
#320=CARTESIAN_POINT('',(0.00635085296108588,-1.3010426069826E-18,0.01765));
#321=CARTESIAN_POINT('',(0.00635085296108588,-1.3010426069826E-18,0.01765));
#322=CARTESIAN_POINT('',(0.00476313972081441,0.00275,0.01765));
#323=CARTESIAN_POINT('',(0.00476313972081441,-0.00275,0.01765));
#324=CARTESIAN_POINT('',(0.00476313972081441,-0.00275,0.012));
#325=CARTESIAN_POINT('',(0.00317542648054294,-0.0055,0.012));
#326=CARTESIAN_POINT('',(0.00317542648054294,-0.0055,0.01765));
#327=CARTESIAN_POINT('',(0.00317542648054294,-0.0055,0.01765));
#328=CARTESIAN_POINT('',(0.00476313972081441,-0.00275,0.01765));
#329=CARTESIAN_POINT('',(-4.33680868994202E-19,-0.0055,0.01765));
#330=CARTESIAN_POINT('',(-4.33680868994202E-19,-0.0055,0.012));
#331=CARTESIAN_POINT('',(-0.00317542648054294,-0.0055,0.012));
#332=CARTESIAN_POINT('',(-0.00317542648054294,-0.0055,0.01765));
#333=CARTESIAN_POINT('',(-0.00317542648054294,-0.0055,0.01765));
#334=CARTESIAN_POINT('',(-4.33680868994202E-19,-0.0055,0.01765));
#335=CARTESIAN_POINT('',(-0.00476313972081441,-0.00275,0.01765));
#336=CARTESIAN_POINT('',(-0.00476313972081441,-0.00275,0.012));
#337=CARTESIAN_POINT('',(-0.00635085296108588,2.60208521396521E-18,0.012));
#338=CARTESIAN_POINT('',(-0.00635085296108588,2.60208521396521E-18,0.01765));
#339=CARTESIAN_POINT('',(-0.00635085296108588,2.60208521396521E-18,0.01765));
#340=CARTESIAN_POINT('',(-0.00476313972081441,-0.00275,0.01765));
#341=CARTESIAN_POINT('',(-0.00476313972081441,0.00275,0.01765));
#342=CARTESIAN_POINT('',(-0.00476313972081441,0.00275,0.012));
#343=CARTESIAN_POINT('',(-0.00476313972081441,0.00275,0.01765));
#344=CARTESIAN_POINT('',(0.,0.,0.01765));
#345=CARTESIAN_POINT('',(0.,0.,0.002));
#346=CARTESIAN_POINT('',(0.,1.99005104861445E-19,0.002));
#347=CARTESIAN_POINT('',(0.00325,1.99005104861445E-19,0.002));
#348=CARTESIAN_POINT('',(0.,1.99005104861445E-19,0.012));
#349=CARTESIAN_POINT('',(0.,1.99005104861445E-19,0.012));
#350=CARTESIAN_POINT('',(0.00325,1.99005104861445E-19,0.012));
#351=CARTESIAN_POINT('',(0.,0.,0.012));
#352=CARTESIAN_POINT('',(0.00947931871582047,0.00392646237414992,0.002));
#353=CARTESIAN_POINT('',(0.0102603406420898,7.91467585914418E-18,0.002));
#354=CARTESIAN_POINT('',(0.00947931871582046,-0.00392646237414995,0.002));
#355=CARTESIAN_POINT('',(0.00725515644530561,-0.00725515644530561,0.002));
#356=CARTESIAN_POINT('',(0.00392646237414994,-0.00947931871582046,0.002));
#357=CARTESIAN_POINT('',(1.01982766849418E-18,-0.0102603406420898,0.002));
#358=CARTESIAN_POINT('',(-0.00392646237414994,-0.00947931871582046,0.002));
#359=CARTESIAN_POINT('',(-0.00725515644530562,-0.00725515644530561,0.002));
#360=CARTESIAN_POINT('',(-0.00947931871582045,-0.00392646237414994,0.002));
#361=CARTESIAN_POINT('',(-0.0102603406420898,-4.83185974294275E-19,0.002));
#362=CARTESIAN_POINT('',(-0.00947931871582046,0.00392646237414994,0.002));
#363=CARTESIAN_POINT('',(-0.00725515644530561,0.00725515644530561,0.002));
#364=CARTESIAN_POINT('',(-0.00392646237414994,0.00947931871582045,0.002));
#365=CARTESIAN_POINT('',(-1.51788304147971E-18,0.0102603406420898,0.002));
#366=CARTESIAN_POINT('',(0.00392646237414994,0.00947931871582046,0.002));
#367=CARTESIAN_POINT('',(0.00725515644530562,0.00725515644530561,0.002));
#368=CARTESIAN_POINT('',(0.00947931871582047,0.00392646237414992,0.002));
#369=CARTESIAN_POINT('',(0.0102603406420898,7.91467585914418E-18,0.002));
#370=CARTESIAN_POINT('',(0.00947931871582046,-0.00392646237414995,0.002));
#371=CARTESIAN_POINT('',(0.00945892829833461,0.00391801638668484,0.00216855136216012));
#372=CARTESIAN_POINT('',(0.0102382702132424,7.15573433840433E-18,0.00216855136216011));
#373=CARTESIAN_POINT('',(0.00945892829833461,-0.00391801638668486,0.00216855136216011));
#374=CARTESIAN_POINT('',(0.00723955029540392,-0.00723955029540393,0.00216855136216011));
#375=CARTESIAN_POINT('',(0.00391801638668486,-0.00945892829833461,0.00216855136216012));
#376=CARTESIAN_POINT('',(8.63973606199386E-19,-0.0102382702132424,0.00216855136216012));
#377=CARTESIAN_POINT('',(-0.00391801638668485,-0.00945892829833461,0.00216855136216012));
#378=CARTESIAN_POINT('',(-0.00723955029540392,-0.00723955029540393,0.00216855136216011));
#379=CARTESIAN_POINT('',(-0.0094589282983346,-0.00391801638668485,0.00216855136216011));
#380=CARTESIAN_POINT('',(-0.0102382702132424,-4.2787736981653E-19,0.00216855136216012));
#381=CARTESIAN_POINT('',(-0.0094589282983346,0.00391801638668486,0.00216855136216011));
#382=CARTESIAN_POINT('',(-0.00723955029540393,0.00723955029540392,0.00216855136216011));
#383=CARTESIAN_POINT('',(-0.00391801638668485,0.00945892829833461,0.00216855136216011));
#384=CARTESIAN_POINT('',(-1.4975542507456E-18,0.0102382702132424,0.00216855136216012));
#385=CARTESIAN_POINT('',(0.00391801638668485,0.0094589282983346,0.00216855136216012));
#386=CARTESIAN_POINT('',(0.00723955029540393,0.00723955029540392,0.00216855136216011));
#387=CARTESIAN_POINT('',(0.00945892829833461,0.00391801638668484,0.00216855136216012));
#388=CARTESIAN_POINT('',(0.0102382702132424,7.15573433840433E-18,0.00216855136216011));
#389=CARTESIAN_POINT('',(0.00945892829833461,-0.00391801638668486,0.00216855136216011));
#390=CARTESIAN_POINT('',(0.00946103229192672,0.00391888788936583,0.00244649577207097));
#391=CARTESIAN_POINT('',(0.0102405475594959,7.37257477290143E-18,0.00244649577207097));
#392=CARTESIAN_POINT('',(0.0094610322919267,-0.00391888788936585,0.00244649577207097));
#393=CARTESIAN_POINT('',(0.00724116062238293,-0.00724116062238292,0.00244649577207097));
#394=CARTESIAN_POINT('',(0.00391888788936585,-0.0094610322919267,0.00244649577207097));
#395=CARTESIAN_POINT('',(1.6737371037745E-18,-0.0102405475594959,0.00244649577207097));
#396=CARTESIAN_POINT('',(-0.00391888788936585,-0.0094610322919267,0.00244649577207097));
#397=CARTESIAN_POINT('',(-0.00724116062238292,-0.00724116062238293,0.00244649577207097));
#398=CARTESIAN_POINT('',(-0.00946103229192671,-0.00391888788936585,0.00244649577207097));
#399=CARTESIAN_POINT('',(-0.0102405475594959,-9.91888816124587E-20,0.00244649577207097));
#400=CARTESIAN_POINT('',(-0.00946103229192671,0.00391888788936585,0.00244649577207097));
#401=CARTESIAN_POINT('',(-0.00724116062238293,0.00724116062238293,0.00244649577207097));
#402=CARTESIAN_POINT('',(-0.00391888788936585,0.0094610322919267,0.00244649577207097));
#403=CARTESIAN_POINT('',(-1.40268656065312E-18,0.0102405475594959,0.00244649577207097));
#404=CARTESIAN_POINT('',(0.00391888788936585,0.00946103229192671,0.00244649577207097));
#405=CARTESIAN_POINT('',(0.00724116062238293,0.00724116062238292,0.00244649577207097));
#406=CARTESIAN_POINT('',(0.00946103229192672,0.00391888788936583,0.00244649577207097));
#407=CARTESIAN_POINT('',(0.0102405475594959,7.37257477290143E-18,0.00244649577207097));
#408=CARTESIAN_POINT('',(0.0094610322919267,-0.00391888788936585,0.00244649577207097));
#409=CARTESIAN_POINT('',(0.00925045107816335,0.00383166229464406,0.00275823050971523));
#410=CARTESIAN_POINT('',(0.0100126160961904,7.15573433840433E-18,0.00275823050971523));
#411=CARTESIAN_POINT('',(0.00925045107816334,-0.00383166229464408,0.00275823050971523));
#412=CARTESIAN_POINT('',(0.00707998873903379,-0.00707998873903379,0.00275823050971523));
#413=CARTESIAN_POINT('',(0.00383166229464408,-0.00925045107816335,0.00275823050971523));
#414=CARTESIAN_POINT('',(7.65717784317888E-19,-0.0100126160961904,0.00275823050971523));
#415=CARTESIAN_POINT('',(-0.00383166229464407,-0.00925045107816335,0.00275823050971523));
#416=CARTESIAN_POINT('',(-0.00707998873903379,-0.00707998873903379,0.00275823050971523));
#417=CARTESIAN_POINT('',(-0.00925045107816334,-0.00383166229464408,0.00275823050971523));
#418=CARTESIAN_POINT('',(-0.0100126160961904,-4.47398832272781E-19,0.00275823050971523));
#419=CARTESIAN_POINT('',(-0.00925045107816335,0.00383166229464408,0.00275823050971523));
#420=CARTESIAN_POINT('',(-0.00707998873903379,0.00707998873903379,0.00275823050971523));
#421=CARTESIAN_POINT('',(-0.00383166229464408,0.00925045107816334,0.00275823050971523));
#422=CARTESIAN_POINT('',(-9.82558218814988E-19,0.0100126160961904,0.00275823050971523));
#423=CARTESIAN_POINT('',(0.00383166229464408,0.00925045107816334,0.00275823050971523));
#424=CARTESIAN_POINT('',(0.0070799887390338,0.00707998873903379,0.00275823050971523));
#425=CARTESIAN_POINT('',(0.00925045107816335,0.00383166229464406,0.00275823050971523));
#426=CARTESIAN_POINT('',(0.0100126160961904,7.15573433840433E-18,0.00275823050971523));
#427=CARTESIAN_POINT('',(0.00925045107816334,-0.00383166229464408,0.00275823050971523));
#428=CARTESIAN_POINT('',(0.00891272781686424,0.00369177273948509,0.00298421384030616));
#429=CARTESIAN_POINT('',(0.0096470670723029,7.48099499014998E-18,0.00298421384030616));
#430=CARTESIAN_POINT('',(0.00891272781686423,-0.00369177273948511,0.00298421384030616));
#431=CARTESIAN_POINT('',(0.00682150654538684,-0.00682150654538683,0.00298421384030616));
#432=CARTESIAN_POINT('',(0.00369177273948511,-0.00891272781686423,0.00298421384030616));
#433=CARTESIAN_POINT('',(2.57836829144209E-18,-0.0096470670723029,0.00298421384030616));
#434=CARTESIAN_POINT('',(-0.00369177273948511,-0.00891272781686423,0.00298421384030616));
#435=CARTESIAN_POINT('',(-0.00682150654538683,-0.00682150654538683,0.00298421384030616));
#436=CARTESIAN_POINT('',(-0.00891272781686422,-0.00369177273948511,0.00298421384030616));
#437=CARTESIAN_POINT('',(-0.0096470670723029,2.92557239047755E-20,0.00298421384030616));
#438=CARTESIAN_POINT('',(-0.00891272781686423,0.00369177273948511,0.00298421384030616));
#439=CARTESIAN_POINT('',(-0.00682150654538684,0.00682150654538684,0.00298421384030616));
#440=CARTESIAN_POINT('',(-0.00369177273948511,0.00891272781686423,0.00298421384030616));
#441=CARTESIAN_POINT('',(-2.20228566286118E-18,0.0096470670723029,0.00298421384030616));
#442=CARTESIAN_POINT('',(0.00369177273948511,0.00891272781686423,0.00298421384030616));
#443=CARTESIAN_POINT('',(0.00682150654538684,0.00682150654538683,0.00298421384030616));
#444=CARTESIAN_POINT('',(0.00891272781686424,0.00369177273948509,0.00298421384030616));
#445=CARTESIAN_POINT('',(0.0096470670723029,7.48099499014998E-18,0.00298421384030616));
#446=CARTESIAN_POINT('',(0.00891272781686423,-0.00369177273948511,0.00298421384030616));
#447=CARTESIAN_POINT('',(0.00846363836741318,0.0035057537988038,0.00335222764915634));
#448=CARTESIAN_POINT('',(0.00916097615498346,6.5594231435373E-18,0.00335222764915633));
#449=CARTESIAN_POINT('',(0.00846363836741318,-0.00350575379880382,0.00335222764915634));
#450=CARTESIAN_POINT('',(0.00647778836147707,-0.00647778836147707,0.00335222764915634));
#451=CARTESIAN_POINT('',(0.00350575379880382,-0.00846363836741318,0.00335222764915633));
#452=CARTESIAN_POINT('',(6.16639985601131E-19,-0.00916097615498347,0.00335222764915634));
#453=CARTESIAN_POINT('',(-0.00350575379880381,-0.00846363836741318,0.00335222764915633));
#454=CARTESIAN_POINT('',(-0.00647778836147707,-0.00647778836147708,0.00335222764915634));
#455=CARTESIAN_POINT('',(-0.00846363836741318,-0.00350575379880382,0.00335222764915633));
#456=CARTESIAN_POINT('',(-0.00916097615498347,-2.83173702178953E-19,0.00335222764915634));
#457=CARTESIAN_POINT('',(-0.00846363836741318,0.00350575379880382,0.00335222764915634));
#458=CARTESIAN_POINT('',(-0.00647778836147708,0.00647778836147707,0.00335222764915634));
#459=CARTESIAN_POINT('',(-0.00350575379880382,0.00846363836741318,0.00335222764915634));
#460=CARTESIAN_POINT('',(-8.94466792300541E-19,0.00916097615498347,0.00335222764915634));
#461=CARTESIAN_POINT('',(0.00350575379880382,0.00846363836741318,0.00335222764915634));
#462=CARTESIAN_POINT('',(0.00647778836147708,0.00647778836147707,0.00335222764915634));
#463=CARTESIAN_POINT('',(0.00846363836741318,0.0035057537988038,0.00335222764915634));
#464=CARTESIAN_POINT('',(0.00916097615498346,6.5594231435373E-18,0.00335222764915633));
#465=CARTESIAN_POINT('',(0.00846363836741318,-0.00350575379880382,0.00335222764915634));
#466=CARTESIAN_POINT('',(0.00803819712445409,0.00332953026597728,0.00400840603767714));
#467=CARTESIAN_POINT('',(0.00870048187192184,6.28837260041593E-18,0.00400840603767714));
#468=CARTESIAN_POINT('',(0.00803819712445408,-0.0033295302659773,0.00400840603767714));
#469=CARTESIAN_POINT('',(0.00615216973122657,-0.00615216973122656,0.00400840603767714));
#470=CARTESIAN_POINT('',(0.00332953026597729,-0.00803819712445408,0.00400840603767714));
#471=CARTESIAN_POINT('',(2.32087027547678E-18,-0.00870048187192185,0.00400840603767714));
#472=CARTESIAN_POINT('',(-0.0033295302659773,-0.00803819712445408,0.00400840603767714));
#473=CARTESIAN_POINT('',(-0.00615216973122656,-0.00615216973122657,0.00400840603767714));
#474=CARTESIAN_POINT('',(-0.00803819712445409,-0.00332953026597729,0.00400840603767714));
#475=CARTESIAN_POINT('',(-0.00870048187192184,3.88238874862989E-19,0.00400840603767714));
#476=CARTESIAN_POINT('',(-0.00803819712445409,0.00332953026597729,0.00400840603767714));
#477=CARTESIAN_POINT('',(-0.00615216973122657,0.00615216973122657,0.00400840603767714));
#478=CARTESIAN_POINT('',(-0.0033295302659773,0.00803819712445408,0.00400840603767714));
#479=CARTESIAN_POINT('',(-1.09775469964157E-18,0.00870048187192185,0.00400840603767714));
#480=CARTESIAN_POINT('',(0.00332953026597729,0.00803819712445409,0.00400840603767714));
#481=CARTESIAN_POINT('',(0.00615216973122657,0.00615216973122656,0.00400840603767714));
#482=CARTESIAN_POINT('',(0.00803819712445409,0.00332953026597728,0.00400840603767714));
#483=CARTESIAN_POINT('',(0.00870048187192184,6.28837260041593E-18,0.00400840603767714));
#484=CARTESIAN_POINT('',(0.00803819712445408,-0.0033295302659773,0.00400840603767714));
#485=CARTESIAN_POINT('',(0.00768975493634728,0.00318520078596048,0.00514296830316289));
#486=CARTESIAN_POINT('',(0.00832333076526222,5.96311194867027E-18,0.00514296830316289));
#487=CARTESIAN_POINT('',(0.00768975493634727,-0.0031852007859605,0.00514296830316289));
#488=CARTESIAN_POINT('',(0.00588548362617553,-0.00588548362617553,0.00514296830316289));
#489=CARTESIAN_POINT('',(0.0031852007859605,-0.00768975493634727,0.00514296830316289));
#490=CARTESIAN_POINT('',(9.99498877760074E-19,-0.00832333076526223,0.00514296830316289));
#491=CARTESIAN_POINT('',(-0.0031852007859605,-0.00768975493634727,0.00514296830316289));
#492=CARTESIAN_POINT('',(-0.00588548362617554,-0.00588548362617554,0.00514296830316289));
#493=CARTESIAN_POINT('',(-0.00768975493634727,-0.0031852007859605,0.00514296830316289));
#494=CARTESIAN_POINT('',(-0.00832333076526222,-5.8606077271627E-19,0.00514296830316289));
#495=CARTESIAN_POINT('',(-0.00768975493634727,0.0031852007859605,0.00514296830316289));
#496=CARTESIAN_POINT('',(-0.00588548362617554,0.00588548362617553,0.00514296830316289));
#497=CARTESIAN_POINT('',(-0.0031852007859605,0.00768975493634727,0.00514296830316289));
#498=CARTESIAN_POINT('',(-1.51110677790167E-18,0.00832333076526223,0.00514296830316289));
#499=CARTESIAN_POINT('',(0.0031852007859605,0.00768975493634727,0.00514296830316289));
#500=CARTESIAN_POINT('',(0.00588548362617554,0.00588548362617553,0.00514296830316289));
#501=CARTESIAN_POINT('',(0.00768975493634728,0.00318520078596048,0.00514296830316289));
#502=CARTESIAN_POINT('',(0.00832333076526222,5.96311194867027E-18,0.00514296830316289));
#503=CARTESIAN_POINT('',(0.00768975493634727,-0.0031852007859605,0.00514296830316289));
#504=CARTESIAN_POINT('',(0.00740224626052538,0.00306611079313512,0.00681360834221433));
#505=CARTESIAN_POINT('',(0.00801213361703619,5.96311194867027E-18,0.00681360834221432));
#506=CARTESIAN_POINT('',(0.00740224626052537,-0.00306611079313514,0.00681360834221432));
#507=CARTESIAN_POINT('',(0.005665434012379,-0.00566543401237899,0.00681360834221432));
#508=CARTESIAN_POINT('',(0.00306611079313513,-0.00740224626052537,0.00681360834221432));
#509=CARTESIAN_POINT('',(2.84941883456347E-18,-0.0080121336170362,0.00681360834221432));
#510=CARTESIAN_POINT('',(-0.00306611079313514,-0.00740224626052537,0.00681360834221432));
#511=CARTESIAN_POINT('',(-0.00566543401237899,-0.005665434012379,0.00681360834221432));
#512=CARTESIAN_POINT('',(-0.00740224626052537,-0.00306611079313513,0.00681360834221432));
#513=CARTESIAN_POINT('',(-0.00801213361703619,-2.66544063144187E-19,0.00681360834221432));
#514=CARTESIAN_POINT('',(-0.00740224626052538,0.00306611079313514,0.00681360834221432));
#515=CARTESIAN_POINT('',(-0.00566543401237899,0.005665434012379,0.00681360834221432));
#516=CARTESIAN_POINT('',(-0.00306611079313514,0.00740224626052537,0.00681360834221432));
#517=CARTESIAN_POINT('',(-9.14795583034644E-19,0.0080121336170362,0.00681360834221432));
#518=CARTESIAN_POINT('',(0.00306611079313513,0.00740224626052537,0.00681360834221432));
#519=CARTESIAN_POINT('',(0.005665434012379,0.00566543401237899,0.00681360834221432));
#520=CARTESIAN_POINT('',(0.00740224626052538,0.00306611079313512,0.00681360834221433));
#521=CARTESIAN_POINT('',(0.00801213361703619,5.96311194867027E-18,0.00681360834221432));
#522=CARTESIAN_POINT('',(0.00740224626052537,-0.00306611079313514,0.00681360834221432));
#523=CARTESIAN_POINT('',(0.00714254340532813,0.00295853834832541,0.00970328059059447));
#524=CARTESIAN_POINT('',(0.00773103327217704,6.01732205729455E-18,0.00970328059059446));
#525=CARTESIAN_POINT('',(0.00714254340532813,-0.00295853834832542,0.00970328059059447));
#526=CARTESIAN_POINT('',(0.00546666605233521,-0.00546666605233521,0.00970328059059447));
#527=CARTESIAN_POINT('',(0.00295853834832542,-0.00714254340532813,0.00970328059059447));
#528=CARTESIAN_POINT('',(7.55553388950836E-19,-0.00773103327217704,0.00970328059059447));
#529=CARTESIAN_POINT('',(-0.00295853834832543,-0.00714254340532813,0.00970328059059447));
#530=CARTESIAN_POINT('',(-0.00546666605233521,-0.00546666605233521,0.00970328059059447));
#531=CARTESIAN_POINT('',(-0.00714254340532813,-0.00295853834832542,0.00970328059059446));
#532=CARTESIAN_POINT('',(-0.00773103327217704,-7.41120741623011E-20,0.00970328059059447));
#533=CARTESIAN_POINT('',(-0.00714254340532813,0.00295853834832542,0.00970328059059447));
#534=CARTESIAN_POINT('',(-0.00546666605233521,0.00546666605233521,0.00970328059059447));
#535=CARTESIAN_POINT('',(-0.00295853834832543,0.00714254340532813,0.00970328059059447));
#536=CARTESIAN_POINT('',(-9.0801931945661E-19,0.00773103327217705,0.00970328059059447));
#537=CARTESIAN_POINT('',(0.00295853834832542,0.00714254340532813,0.00970328059059447));
#538=CARTESIAN_POINT('',(0.00546666605233522,0.00546666605233521,0.00970328059059447));
#539=CARTESIAN_POINT('',(0.00714254340532813,0.00295853834832541,0.00970328059059447));
#540=CARTESIAN_POINT('',(0.00773103327217704,6.01732205729455E-18,0.00970328059059446));
#541=CARTESIAN_POINT('',(0.00714254340532813,-0.00295853834832542,0.00970328059059447));
#542=CARTESIAN_POINT('',(0.00710947670696822,0.00294484167340183,0.0118241148709601));
#543=CARTESIAN_POINT('',(0.00769524213578284,5.6920614055489E-18,0.0118241148709601));
#544=CARTESIAN_POINT('',(0.00710947670696821,-0.00294484167340184,0.0118241148709601));
#545=CARTESIAN_POINT('',(0.00544135789708449,-0.00544135789708449,0.0118241148709601));
#546=CARTESIAN_POINT('',(0.00294484167340184,-0.00710947670696821,0.0118241148709601));
#547=CARTESIAN_POINT('',(-1.72117094882074E-18,-0.00769524213578284,0.0118241148709601));
#548=CARTESIAN_POINT('',(-0.00294484167340183,-0.0071094767069682,0.0118241148709601));
#549=CARTESIAN_POINT('',(-0.0054413578970845,-0.00544135789708449,0.0118241148709601));
#550=CARTESIAN_POINT('',(-0.00710947670696821,-0.00294484167340184,0.0118241148709601));
#551=CARTESIAN_POINT('',(-0.00769524213578284,7.04195399078644E-20,0.0118241148709601));
#552=CARTESIAN_POINT('',(-0.00710947670696821,0.00294484167340184,0.0118241148709601));
#553=CARTESIAN_POINT('',(-0.0054413578970845,0.00544135789708449,0.0118241148709601));
#554=CARTESIAN_POINT('',(-0.00294484167340184,0.00710947670696821,0.0118241148709601));
#555=CARTESIAN_POINT('',(-1.9312351197398E-18,0.00769524213578284,0.0118241148709601));
#556=CARTESIAN_POINT('',(0.00294484167340184,0.00710947670696821,0.0118241148709601));
#557=CARTESIAN_POINT('',(0.0054413578970845,0.00544135789708449,0.0118241148709601));
#558=CARTESIAN_POINT('',(0.00710947670696822,0.00294484167340183,0.0118241148709601));
#559=CARTESIAN_POINT('',(0.00769524213578284,5.6920614055489E-18,0.0118241148709601));
#560=CARTESIAN_POINT('',(0.00710947670696821,-0.00294484167340184,0.0118241148709601));
#561=CARTESIAN_POINT('',(0.00710948903686535,0.00294484678061244,0.012680176462524));
#562=CARTESIAN_POINT('',(0.00769525548156733,5.74627151417317E-18,0.012680176462524));
#563=CARTESIAN_POINT('',(0.00710948903686534,-0.00294484678061246,0.012680176462524));
#564=CARTESIAN_POINT('',(0.00544136733397921,-0.00544136733397921,0.012680176462524));
#565=CARTESIAN_POINT('',(0.00294484678061246,-0.00710948903686534,0.012680176462524));
#566=CARTESIAN_POINT('',(2.81214938488428E-19,-0.00769525548156733,0.012680176462524));
#567=CARTESIAN_POINT('',(-0.00294484678061246,-0.00710948903686534,0.012680176462524));
#568=CARTESIAN_POINT('',(-0.00544136733397921,-0.00544136733397921,0.012680176462524));
#569=CARTESIAN_POINT('',(-0.00710948903686534,-0.00294484678061246,0.012680176462524));
#570=CARTESIAN_POINT('',(-0.00769525548156733,-1.00939195788621E-19,0.012680176462524));
#571=CARTESIAN_POINT('',(-0.00710948903686534,0.00294484678061246,0.012680176462524));
#572=CARTESIAN_POINT('',(-0.00544136733397921,0.00544136733397921,0.012680176462524));
#573=CARTESIAN_POINT('',(-0.00294484678061246,0.00710948903686534,0.012680176462524));
#574=CARTESIAN_POINT('',(-9.72393823447937E-19,0.00769525548156733,0.012680176462524));
#575=CARTESIAN_POINT('',(0.00294484678061246,0.00710948903686534,0.012680176462524));
#576=CARTESIAN_POINT('',(0.00544136733397921,0.00544136733397921,0.012680176462524));
#577=CARTESIAN_POINT('',(0.00710948903686535,0.00294484678061244,0.012680176462524));
#578=CARTESIAN_POINT('',(0.00769525548156733,5.74627151417317E-18,0.012680176462524));
#579=CARTESIAN_POINT('',(0.00710948903686534,-0.00294484678061246,0.012680176462524));
#580=CARTESIAN_POINT('',(0.,6.12323399573677E-19,0.002));
#581=CARTESIAN_POINT('',(0.01,6.12323399573677E-19,0.002));
#582=CARTESIAN_POINT('',(0.,0.,0.));
#583=CARTESIAN_POINT('',(0.,6.12323399573677E-19,0.));
#584=CARTESIAN_POINT('',(0.01,6.12323399573677E-19,0.));
#585=CARTESIAN_POINT('',(0.,6.12323399573677E-19,0.002));
#586=MECHANICAL_DESIGN_GEOMETRIC_PRESENTATION_REPRESENTATION('',(#213),
#587);
#587=(
GEOMETRIC_REPRESENTATION_CONTEXT(3)
GLOBAL_UNCERTAINTY_ASSIGNED_CONTEXT((#588))
GLOBAL_UNIT_ASSIGNED_CONTEXT((#591,#590,#589))
REPRESENTATION_CONTEXT('Foot','TOP_LEVEL_ASSEMBLY_PART')
);
#588=UNCERTAINTY_MEASURE_WITH_UNIT(LENGTH_MEASURE(2.E-5),#591,
'DISTANCE_ACCURACY_VALUE','Maximum Tolerance applied to model');
#589=(
NAMED_UNIT(*)
SI_UNIT($,.STERADIAN.)
SOLID_ANGLE_UNIT()
);
#590=(
NAMED_UNIT(*)
PLANE_ANGLE_UNIT()
SI_UNIT($,.RADIAN.)
);
#591=(
LENGTH_UNIT()
NAMED_UNIT(*)
SI_UNIT($,.METRE.)
);
#592=PRODUCT_DEFINITION_SHAPE('','',#593);
#593=PRODUCT_DEFINITION('','',#595,#594);
#594=PRODUCT_DEFINITION_CONTEXT('',#601,'design');
#595=PRODUCT_DEFINITION_FORMATION_WITH_SPECIFIED_SOURCE('','',#597,
 .NOT_KNOWN.);
#596=PRODUCT_RELATED_PRODUCT_CATEGORY('','',(#597));
#597=PRODUCT('Foot','Foot','Foot',(#599));
#598=PRODUCT_CATEGORY('','');
#599=PRODUCT_CONTEXT('',#601,'mechanical');
#600=APPLICATION_PROTOCOL_DEFINITION('international standard',
'ap242_managed_model_based_3d_engineering',2020,#601);
#601=APPLICATION_CONTEXT('managed model based 3d engineering');
ENDSEC;
END-ISO-10303-21;
