ISO-10303-21;
HEADER;
/* Generated by software containing ST-Developer
 * from STEP Tools, Inc. (www.steptools.com) 
 */
/* OPTION: using custom renumber hook */

FILE_DESCRIPTION(
/* description */ ('STEP AP242 Edition 2',
'CAx-IF Rec.Pracs.---Representation and Presentation of Product Manufa
cturing Information (PMI)---4.0---2014-10-13',
'CAx-IF Rec.Pracs.---3D Tessellated Geometry---0.4---2014-09-14','2;1',
'CAx-IF Rec.Pracs.---User Defined Attributes---1.5---2016-08-15'),
/* implementation_level */ '2;1');

FILE_NAME(
/* name */ 'N-Metheus - Electronics Casing Top',
/* time_stamp */ '2026-01-30T20:52:39Z',
/* author */ (''),
/* organization */ (''),
/* preprocessor_version */ 'ST-DEVELOPER v20',
/* originating_system */ 'ONSHAPE BY PTC INC, 1.210',
/* authorisation */ '  ');

FILE_SCHEMA (('AP242_MANAGED_MODEL_BASED_3D_ENGINEERING_MIM_LF { 1 0 10303 442 3 1 4 }'));
ENDSEC;

DATA;
#10=SHAPE_REPRESENTATION_RELATIONSHIP('','',#1016,#11);
#11=ADVANCED_BREP_SHAPE_REPRESENTATION('',(#1014),#1899);
#12=(
BOUNDED_SURFACE()
B_SPLINE_SURFACE(3,2,((#1757,#1758,#1759),(#1760,#1761,#1762),(#1763,#1764,
#1765),(#1766,#1767,#1768),(#1769,#1770,#1771),(#1772,#1773,#1774),(#1775,
#1776,#1777),(#1778,#1779,#1780),(#1781,#1782,#1783),(#1784,#1785,#1786),
(#1787,#1788,#1789),(#1790,#1791,#1792),(#1793,#1794,#1795),(#1796,#1797,
#1798),(#1799,#1800,#1801),(#1802,#1803,#1804),(#1805,#1806,#1807),(#1808,
#1809,#1810),(#1811,#1812,#1813),(#1814,#1815,#1816)),.UNSPECIFIED.,.F.,
 .F.,.F.)
B_SPLINE_SURFACE_WITH_KNOTS((4,1,1,1,1,1,1,1,1,1,1,1,1,1,1,1,1,4),(3,3),
(0.0208643253425266,0.0218894039456131,0.0229144825486996,0.0249646397548727,
0.0270147969610458,0.0290649541672189,0.031115111373392,0.0331652685795651,
0.0372655829919113,0.0413658974042575,0.0434160546104305,0.0454662118166036,
0.0475163690227767,0.0495665262289498,0.0505916048320364,0.0516166834351229,
0.0526417620382095,0.053666840641296),(0.,1.),.UNSPECIFIED.)
GEOMETRIC_REPRESENTATION_ITEM()
RATIONAL_B_SPLINE_SURFACE(((1.,0.707106781186548,1.),(1.,0.707106781186548,
1.),(1.,0.707106781186546,1.),(1.,0.707106781186548,1.),(1.,0.707106781186547,
1.),(1.,0.707106781186548,1.),(1.,0.707106781186548,1.),(1.,0.707106781186547,
1.),(1.,0.707106781186548,1.),(1.,0.707106781186547,1.),(1.,0.707106781186548,
1.),(1.,0.707106781186547,1.),(1.,0.707106781186548,1.),(1.,0.707106781186547,
1.),(1.,0.707106781186548,1.),(1.,0.707106781186548,1.),(1.,0.707106781186548,
1.),(1.,0.707106781186549,1.),(1.,0.707106781186548,1.),(1.,0.707106781186548,
1.)))
REPRESENTATION_ITEM('')
SURFACE()
);
#13=(
BOUNDED_SURFACE()
B_SPLINE_SURFACE(3,2,((#1832,#1833,#1834),(#1835,#1836,#1837),(#1838,#1839,
#1840),(#1841,#1842,#1843),(#1844,#1845,#1846),(#1847,#1848,#1849),(#1850,
#1851,#1852),(#1853,#1854,#1855),(#1856,#1857,#1858),(#1859,#1860,#1861),
(#1862,#1863,#1864),(#1865,#1866,#1867),(#1868,#1869,#1870),(#1871,#1872,
#1873),(#1874,#1875,#1876),(#1877,#1878,#1879),(#1880,#1881,#1882),(#1883,
#1884,#1885),(#1886,#1887,#1888),(#1889,#1890,#1891),(#1892,#1893,#1894),
(#1895,#1896,#1897)),.UNSPECIFIED.,.F.,.F.,.F.)
B_SPLINE_SURFACE_WITH_KNOTS((4,1,1,1,1,1,1,1,1,1,1,1,1,1,1,1,1,1,1,4),(3,
3),(0.019656205081679,0.0207565326277655,0.021856860173852,0.0229571877199385,
0.024057515266025,0.0251578428121115,0.026258170358198,0.028458825450371,
0.030659480542544,0.032860135634717,0.0372614458190631,0.0416627560034091,
0.0438634110955821,0.0460640661877551,0.0482647212799281,0.0504653763721011,
0.0515657039181876,0.0526660314642741,0.0537663590103606,0.0548666865564472),
(0.,1.),.UNSPECIFIED.)
GEOMETRIC_REPRESENTATION_ITEM()
RATIONAL_B_SPLINE_SURFACE(((1.,0.707106781186548,1.),(1.,0.707106781186548,
1.),(1.,0.707106781186547,1.),(1.,0.707106781186548,1.),(1.,0.707106781186548,
1.),(1.,0.707106781186548,1.),(1.,0.707106781186548,1.),(1.,0.707106781186547,
1.),(1.,0.707106781186548,1.),(1.,0.707106781186547,1.),(1.,0.707106781186548,
1.),(1.,0.707106781186548,1.),(1.,0.707106781186548,1.),(1.,0.707106781186547,
1.),(1.,0.707106781186548,1.),(1.,0.707106781186547,1.),(1.,0.70710678118655,
1.),(1.,0.707106781186544,1.),(1.,0.707106781186548,1.),(1.,0.707106781186547,
1.),(1.,0.707106781186548,1.),(1.,0.707106781186548,1.)))
REPRESENTATION_ITEM('')
SURFACE()
);
#14=CONICAL_SURFACE('',#1109,0.005,0.785398163397452);
#15=CONICAL_SURFACE('',#1111,0.005,0.78539816339745);
#16=CONICAL_SURFACE('',#1113,0.002,0.785398163397449);
#17=CONICAL_SURFACE('',#1114,0.001,0.785398163397448);
#18=CONICAL_SURFACE('',#1116,0.001,0.785398163397449);
#19=CONICAL_SURFACE('',#1117,0.002,0.785398163397449);
#20=CONICAL_SURFACE('',#1119,0.005,0.785398163397449);
#21=CONICAL_SURFACE('',#1121,0.005,0.785398163397449);
#22=SPHERICAL_SURFACE('',#1092,0.002);
#23=SPHERICAL_SURFACE('',#1099,0.002);
#24=ELLIPSE('',#1078,0.00282842712474619,0.002);
#25=ELLIPSE('',#1079,0.000565685424949238,0.0004);
#26=ELLIPSE('',#1081,0.00282842712474619,0.002);
#27=ELLIPSE('',#1082,0.00282842712474619,0.002);
#28=ELLIPSE('',#1084,0.00282842712474619,0.002);
#29=ELLIPSE('',#1085,0.000565685424949238,0.0004);
#30=TOROIDAL_SURFACE('',#1071,0.00515,0.002);
#31=CYLINDRICAL_SURFACE('',#1033,0.005);
#32=CYLINDRICAL_SURFACE('',#1036,0.005);
#33=CYLINDRICAL_SURFACE('',#1043,0.005);
#34=CYLINDRICAL_SURFACE('',#1046,0.005);
#35=CYLINDRICAL_SURFACE('',#1060,0.00415);
#36=CYLINDRICAL_SURFACE('',#1069,0.002);
#37=CYLINDRICAL_SURFACE('',#1073,0.002);
#38=CYLINDRICAL_SURFACE('',#1086,0.0004);
#39=CYLINDRICAL_SURFACE('',#1087,0.002);
#40=CYLINDRICAL_SURFACE('',#1090,0.002);
#41=CYLINDRICAL_SURFACE('',#1094,0.002);
#42=CYLINDRICAL_SURFACE('',#1097,0.002);
#43=CYLINDRICAL_SURFACE('',#1101,0.002);
#44=CYLINDRICAL_SURFACE('',#1102,0.001);
#45=CYLINDRICAL_SURFACE('',#1103,0.001);
#46=CYLINDRICAL_SURFACE('',#1104,0.001);
#47=CYLINDRICAL_SURFACE('',#1106,0.001);
#48=CIRCLE('',#1019,0.005);
#49=CIRCLE('',#1020,0.005);
#50=CIRCLE('',#1021,0.001);
#51=CIRCLE('',#1022,0.001);
#52=CIRCLE('',#1023,0.005);
#53=CIRCLE('',#1024,0.005);
#54=CIRCLE('',#1025,0.001);
#55=CIRCLE('',#1026,0.00715);
#56=CIRCLE('',#1027,0.001);
#57=CIRCLE('',#1028,0.00415);
#58=CIRCLE('',#1030,0.001);
#59=CIRCLE('',#1032,0.001);
#60=CIRCLE('',#1034,0.005);
#61=CIRCLE('',#1037,0.005);
#62=CIRCLE('',#1044,0.005);
#63=CIRCLE('',#1047,0.005);
#64=CIRCLE('',#1049,0.004);
#65=CIRCLE('',#1050,0.004);
#66=CIRCLE('',#1051,0.002);
#67=CIRCLE('',#1052,0.001);
#68=CIRCLE('',#1053,0.001);
#69=CIRCLE('',#1054,0.002);
#70=CIRCLE('',#1055,0.004);
#71=CIRCLE('',#1056,0.004);
#72=CIRCLE('',#1058,0.002);
#73=CIRCLE('',#1061,0.00415);
#74=CIRCLE('',#1064,0.002);
#75=CIRCLE('',#1066,0.001);
#76=CIRCLE('',#1067,0.001);
#77=CIRCLE('',#1068,0.00515);
#78=CIRCLE('',#1070,0.002);
#79=CIRCLE('',#1072,0.002);
#80=CIRCLE('',#1088,0.002);
#81=CIRCLE('',#1089,0.002);
#82=CIRCLE('',#1091,0.002);
#83=CIRCLE('',#1093,0.002);
#84=CIRCLE('',#1095,0.002);
#85=CIRCLE('',#1096,0.002);
#86=CIRCLE('',#1098,0.002);
#87=CIRCLE('',#1100,0.002);
#88=CIRCLE('',#1105,0.001);
#89=CIRCLE('',#1107,0.001);
#90=LINE('',#1445,#181);
#91=LINE('',#1449,#182);
#92=LINE('',#1453,#183);
#93=LINE('',#1457,#184);
#94=LINE('',#1459,#185);
#95=LINE('',#1461,#186);
#96=LINE('',#1465,#187);
#97=LINE('',#1469,#188);
#98=LINE('',#1473,#189);
#99=LINE('',#1474,#190);
#100=LINE('',#1479,#191);
#101=LINE('',#1481,#192);
#102=LINE('',#1485,#193);
#103=LINE('',#1487,#194);
#104=LINE('',#1491,#195);
#105=LINE('',#1495,#196);
#106=LINE('',#1497,#197);
#107=LINE('',#1503,#198);
#108=LINE('',#1505,#199);
#109=LINE('',#1509,#200);
#110=LINE('',#1511,#201);
#111=LINE('',#1513,#202);
#112=LINE('',#1517,#203);
#113=LINE('',#1519,#204);
#114=LINE('',#1521,#205);
#115=LINE('',#1523,#206);
#116=LINE('',#1525,#207);
#117=LINE('',#1527,#208);
#118=LINE('',#1529,#209);
#119=LINE('',#1531,#210);
#120=LINE('',#1533,#211);
#121=LINE('',#1536,#212);
#122=LINE('',#1538,#213);
#123=LINE('',#1540,#214);
#124=LINE('',#1542,#215);
#125=LINE('',#1544,#216);
#126=LINE('',#1546,#217);
#127=LINE('',#1548,#218);
#128=LINE('',#1550,#219);
#129=LINE('',#1552,#220);
#130=LINE('',#1554,#221);
#131=LINE('',#1556,#222);
#132=LINE('',#1560,#223);
#133=LINE('',#1562,#224);
#134=LINE('',#1564,#225);
#135=LINE('',#1568,#226);
#136=LINE('',#1593,#227);
#137=LINE('',#1597,#228);
#138=LINE('',#1601,#229);
#139=LINE('',#1607,#230);
#140=LINE('',#1613,#231);
#141=LINE('',#1617,#232);
#142=LINE('',#1621,#233);
#143=LINE('',#1623,#234);
#144=LINE('',#1627,#235);
#145=LINE('',#1630,#236);
#146=LINE('',#1631,#237);
#147=LINE('',#1633,#238);
#148=LINE('',#1637,#239);
#149=LINE('',#1639,#240);
#150=LINE('',#1641,#241);
#151=LINE('',#1644,#242);
#152=LINE('',#1649,#243);
#153=LINE('',#1653,#244);
#154=LINE('',#1660,#245);
#155=LINE('',#1662,#246);
#156=LINE('',#1665,#247);
#157=LINE('',#1667,#248);
#158=LINE('',#1669,#249);
#159=LINE('',#1671,#250);
#160=LINE('',#1673,#251);
#161=LINE('',#1675,#252);
#162=LINE('',#1679,#253);
#163=LINE('',#1685,#254);
#164=LINE('',#1687,#255);
#165=LINE('',#1694,#256);
#166=LINE('',#1705,#257);
#167=LINE('',#1724,#258);
#168=LINE('',#1726,#259);
#169=LINE('',#1728,#260);
#170=LINE('',#1730,#261);
#171=LINE('',#1732,#262);
#172=LINE('',#1734,#263);
#173=LINE('',#1736,#264);
#174=LINE('',#1738,#265);
#175=LINE('',#1740,#266);
#176=LINE('',#1742,#267);
#177=LINE('',#1744,#268);
#178=LINE('',#1746,#269);
#179=LINE('',#1748,#270);
#180=LINE('',#1750,#271);
#181=VECTOR('',#1127,1.);
#182=VECTOR('',#1130,1.);
#183=VECTOR('',#1133,1.);
#184=VECTOR('',#1136,1.);
#185=VECTOR('',#1137,1.);
#186=VECTOR('',#1138,1.);
#187=VECTOR('',#1141,1.);
#188=VECTOR('',#1144,1.);
#189=VECTOR('',#1147,1.);
#190=VECTOR('',#1148,1.);
#191=VECTOR('',#1151,1.);
#192=VECTOR('',#1152,1.);
#193=VECTOR('',#1155,1.);
#194=VECTOR('',#1156,1.);
#195=VECTOR('',#1159,1.);
#196=VECTOR('',#1164,1.);
#197=VECTOR('',#1165,1.);
#198=VECTOR('',#1172,1.);
#199=VECTOR('',#1173,1.);
#200=VECTOR('',#1178,1.);
#201=VECTOR('',#1181,1.);
#202=VECTOR('',#1182,1.);
#203=VECTOR('',#1187,1.);
#204=VECTOR('',#1190,1.);
#205=VECTOR('',#1191,1.);
#206=VECTOR('',#1194,1.);
#207=VECTOR('',#1195,1.);
#208=VECTOR('',#1196,1.);
#209=VECTOR('',#1197,1.);
#210=VECTOR('',#1198,1.);
#211=VECTOR('',#1201,1.);
#212=VECTOR('',#1202,1.);
#213=VECTOR('',#1203,1.);
#214=VECTOR('',#1204,1.);
#215=VECTOR('',#1207,1.);
#216=VECTOR('',#1208,1.);
#217=VECTOR('',#1209,1.);
#218=VECTOR('',#1210,1.);
#219=VECTOR('',#1211,1.);
#220=VECTOR('',#1214,1.);
#221=VECTOR('',#1215,1.);
#222=VECTOR('',#1216,1.);
#223=VECTOR('',#1221,1.);
#224=VECTOR('',#1224,1.);
#225=VECTOR('',#1225,1.);
#226=VECTOR('',#1232,1.);
#227=VECTOR('',#1233,1.);
#228=VECTOR('',#1236,1.);
#229=VECTOR('',#1239,1.);
#230=VECTOR('',#1244,1.);
#231=VECTOR('',#1249,1.);
#232=VECTOR('',#1252,1.);
#233=VECTOR('',#1257,1.);
#234=VECTOR('',#1258,1.);
#235=VECTOR('',#1263,1.);
#236=VECTOR('',#1264,1.);
#237=VECTOR('',#1265,1.);
#238=VECTOR('',#1268,1.);
#239=VECTOR('',#1273,1.);
#240=VECTOR('',#1274,1.);
#241=VECTOR('',#1277,1.);
#242=VECTOR('',#1278,1.);
#243=VECTOR('',#1287,1.);
#244=VECTOR('',#1290,1.);
#245=VECTOR('',#1303,1.);
#246=VECTOR('',#1306,1.);
#247=VECTOR('',#1307,1.);
#248=VECTOR('',#1308,1.);
#249=VECTOR('',#1309,1.);
#250=VECTOR('',#1312,1.);
#251=VECTOR('',#1313,1.);
#252=VECTOR('',#1314,1.);
#253=VECTOR('',#1319,1.);
#254=VECTOR('',#1326,1.);
#255=VECTOR('',#1327,1.);
#256=VECTOR('',#1340,1.);
#257=VECTOR('',#1357,1.);
#258=VECTOR('',#1384,1.);
#259=VECTOR('',#1387,1.);
#260=VECTOR('',#1390,1.);
#261=VECTOR('',#1393,1.);
#262=VECTOR('',#1396,1.);
#263=VECTOR('',#1399,1.);
#264=VECTOR('',#1402,1.);
#265=VECTOR('',#1405,1.);
#266=VECTOR('',#1408,1.);
#267=VECTOR('',#1411,1.);
#268=VECTOR('',#1414,1.);
#269=VECTOR('',#1417,1.);
#270=VECTOR('',#1420,1.);
#271=VECTOR('',#1423,1.);
#272=ORIENTED_EDGE('',*,*,#560,.T.);
#273=ORIENTED_EDGE('',*,*,#561,.F.);
#274=ORIENTED_EDGE('',*,*,#562,.T.);
#275=ORIENTED_EDGE('',*,*,#563,.F.);
#276=ORIENTED_EDGE('',*,*,#564,.T.);
#277=ORIENTED_EDGE('',*,*,#565,.T.);
#278=ORIENTED_EDGE('',*,*,#566,.T.);
#279=ORIENTED_EDGE('',*,*,#567,.F.);
#280=ORIENTED_EDGE('',*,*,#568,.F.);
#281=ORIENTED_EDGE('',*,*,#569,.F.);
#282=ORIENTED_EDGE('',*,*,#570,.T.);
#283=ORIENTED_EDGE('',*,*,#571,.T.);
#284=ORIENTED_EDGE('',*,*,#572,.T.);
#285=ORIENTED_EDGE('',*,*,#573,.T.);
#286=ORIENTED_EDGE('',*,*,#574,.T.);
#287=ORIENTED_EDGE('',*,*,#575,.F.);
#288=ORIENTED_EDGE('',*,*,#576,.T.);
#289=ORIENTED_EDGE('',*,*,#577,.T.);
#290=ORIENTED_EDGE('',*,*,#578,.T.);
#291=ORIENTED_EDGE('',*,*,#579,.F.);
#292=ORIENTED_EDGE('',*,*,#580,.F.);
#293=ORIENTED_EDGE('',*,*,#581,.F.);
#294=ORIENTED_EDGE('',*,*,#582,.T.);
#295=ORIENTED_EDGE('',*,*,#583,.T.);
#296=ORIENTED_EDGE('',*,*,#584,.F.);
#297=ORIENTED_EDGE('',*,*,#585,.T.);
#298=ORIENTED_EDGE('',*,*,#586,.T.);
#299=ORIENTED_EDGE('',*,*,#587,.T.);
#300=ORIENTED_EDGE('',*,*,#588,.T.);
#301=ORIENTED_EDGE('',*,*,#575,.T.);
#302=ORIENTED_EDGE('',*,*,#561,.T.);
#303=ORIENTED_EDGE('',*,*,#589,.T.);
#304=ORIENTED_EDGE('',*,*,#590,.T.);
#305=ORIENTED_EDGE('',*,*,#591,.F.);
#306=ORIENTED_EDGE('',*,*,#591,.T.);
#307=ORIENTED_EDGE('',*,*,#592,.T.);
#308=ORIENTED_EDGE('',*,*,#593,.F.);
#309=ORIENTED_EDGE('',*,*,#562,.F.);
#310=ORIENTED_EDGE('',*,*,#593,.T.);
#311=ORIENTED_EDGE('',*,*,#594,.T.);
#312=ORIENTED_EDGE('',*,*,#595,.F.);
#313=ORIENTED_EDGE('',*,*,#563,.T.);
#314=ORIENTED_EDGE('',*,*,#595,.T.);
#315=ORIENTED_EDGE('',*,*,#596,.T.);
#316=ORIENTED_EDGE('',*,*,#597,.F.);
#317=ORIENTED_EDGE('',*,*,#564,.F.);
#318=ORIENTED_EDGE('',*,*,#597,.T.);
#319=ORIENTED_EDGE('',*,*,#598,.T.);
#320=ORIENTED_EDGE('',*,*,#599,.T.);
#321=ORIENTED_EDGE('',*,*,#565,.F.);
#322=ORIENTED_EDGE('',*,*,#600,.T.);
#323=ORIENTED_EDGE('',*,*,#567,.T.);
#324=ORIENTED_EDGE('',*,*,#601,.T.);
#325=ORIENTED_EDGE('',*,*,#602,.T.);
#326=ORIENTED_EDGE('',*,*,#603,.T.);
#327=ORIENTED_EDGE('',*,*,#604,.T.);
#328=ORIENTED_EDGE('',*,*,#605,.T.);
#329=ORIENTED_EDGE('',*,*,#606,.T.);
#330=ORIENTED_EDGE('',*,*,#607,.T.);
#331=ORIENTED_EDGE('',*,*,#608,.T.);
#332=ORIENTED_EDGE('',*,*,#609,.T.);
#333=ORIENTED_EDGE('',*,*,#569,.T.);
#334=ORIENTED_EDGE('',*,*,#610,.F.);
#335=ORIENTED_EDGE('',*,*,#611,.F.);
#336=ORIENTED_EDGE('',*,*,#612,.F.);
#337=ORIENTED_EDGE('',*,*,#613,.T.);
#338=ORIENTED_EDGE('',*,*,#614,.T.);
#339=ORIENTED_EDGE('',*,*,#615,.T.);
#340=ORIENTED_EDGE('',*,*,#616,.F.);
#341=ORIENTED_EDGE('',*,*,#571,.F.);
#342=ORIENTED_EDGE('',*,*,#616,.T.);
#343=ORIENTED_EDGE('',*,*,#617,.T.);
#344=ORIENTED_EDGE('',*,*,#618,.F.);
#345=ORIENTED_EDGE('',*,*,#572,.F.);
#346=ORIENTED_EDGE('',*,*,#618,.T.);
#347=ORIENTED_EDGE('',*,*,#619,.T.);
#348=ORIENTED_EDGE('',*,*,#620,.F.);
#349=ORIENTED_EDGE('',*,*,#573,.F.);
#350=ORIENTED_EDGE('',*,*,#620,.T.);
#351=ORIENTED_EDGE('',*,*,#621,.T.);
#352=ORIENTED_EDGE('',*,*,#586,.F.);
#353=ORIENTED_EDGE('',*,*,#574,.F.);
#354=ORIENTED_EDGE('',*,*,#622,.T.);
#355=ORIENTED_EDGE('',*,*,#623,.T.);
#356=ORIENTED_EDGE('',*,*,#624,.T.);
#357=ORIENTED_EDGE('',*,*,#625,.T.);
#358=ORIENTED_EDGE('',*,*,#626,.T.);
#359=ORIENTED_EDGE('',*,*,#627,.T.);
#360=ORIENTED_EDGE('',*,*,#628,.T.);
#361=ORIENTED_EDGE('',*,*,#629,.T.);
#362=ORIENTED_EDGE('',*,*,#630,.T.);
#363=ORIENTED_EDGE('',*,*,#631,.T.);
#364=ORIENTED_EDGE('',*,*,#632,.T.);
#365=ORIENTED_EDGE('',*,*,#633,.T.);
#366=ORIENTED_EDGE('',*,*,#634,.T.);
#367=ORIENTED_EDGE('',*,*,#635,.T.);
#368=ORIENTED_EDGE('',*,*,#636,.T.);
#369=ORIENTED_EDGE('',*,*,#637,.T.);
#370=ORIENTED_EDGE('',*,*,#578,.F.);
#371=ORIENTED_EDGE('',*,*,#638,.T.);
#372=ORIENTED_EDGE('',*,*,#639,.T.);
#373=ORIENTED_EDGE('',*,*,#640,.T.);
#374=ORIENTED_EDGE('',*,*,#641,.T.);
#375=ORIENTED_EDGE('',*,*,#642,.T.);
#376=ORIENTED_EDGE('',*,*,#576,.F.);
#377=ORIENTED_EDGE('',*,*,#643,.F.);
#378=ORIENTED_EDGE('',*,*,#585,.F.);
#379=ORIENTED_EDGE('',*,*,#644,.F.);
#380=ORIENTED_EDGE('',*,*,#645,.T.);
#381=ORIENTED_EDGE('',*,*,#643,.T.);
#382=ORIENTED_EDGE('',*,*,#584,.T.);
#383=ORIENTED_EDGE('',*,*,#646,.T.);
#384=ORIENTED_EDGE('',*,*,#647,.F.);
#385=ORIENTED_EDGE('',*,*,#644,.T.);
#386=ORIENTED_EDGE('',*,*,#648,.T.);
#387=ORIENTED_EDGE('',*,*,#649,.T.);
#388=ORIENTED_EDGE('',*,*,#582,.F.);
#389=ORIENTED_EDGE('',*,*,#650,.T.);
#390=ORIENTED_EDGE('',*,*,#639,.F.);
#391=ORIENTED_EDGE('',*,*,#651,.T.);
#392=ORIENTED_EDGE('',*,*,#641,.F.);
#393=ORIENTED_EDGE('',*,*,#645,.F.);
#394=ORIENTED_EDGE('',*,*,#647,.T.);
#395=ORIENTED_EDGE('',*,*,#652,.T.);
#396=ORIENTED_EDGE('',*,*,#648,.F.);
#397=ORIENTED_EDGE('',*,*,#653,.T.);
#398=ORIENTED_EDGE('',*,*,#654,.T.);
#399=ORIENTED_EDGE('',*,*,#655,.T.);
#400=ORIENTED_EDGE('',*,*,#640,.F.);
#401=ORIENTED_EDGE('',*,*,#655,.F.);
#402=ORIENTED_EDGE('',*,*,#656,.F.);
#403=ORIENTED_EDGE('',*,*,#579,.T.);
#404=ORIENTED_EDGE('',*,*,#656,.T.);
#405=ORIENTED_EDGE('',*,*,#654,.F.);
#406=ORIENTED_EDGE('',*,*,#657,.F.);
#407=ORIENTED_EDGE('',*,*,#580,.T.);
#408=ORIENTED_EDGE('',*,*,#650,.F.);
#409=ORIENTED_EDGE('',*,*,#581,.T.);
#410=ORIENTED_EDGE('',*,*,#657,.T.);
#411=ORIENTED_EDGE('',*,*,#653,.F.);
#412=ORIENTED_EDGE('',*,*,#600,.F.);
#413=ORIENTED_EDGE('',*,*,#658,.T.);
#414=ORIENTED_EDGE('',*,*,#610,.T.);
#415=ORIENTED_EDGE('',*,*,#568,.T.);
#416=ORIENTED_EDGE('',*,*,#659,.T.);
#417=ORIENTED_EDGE('',*,*,#660,.T.);
#418=ORIENTED_EDGE('',*,*,#661,.T.);
#419=ORIENTED_EDGE('',*,*,#662,.T.);
#420=ORIENTED_EDGE('',*,*,#663,.F.);
#421=ORIENTED_EDGE('',*,*,#664,.T.);
#422=ORIENTED_EDGE('',*,*,#665,.T.);
#423=ORIENTED_EDGE('',*,*,#611,.T.);
#424=ORIENTED_EDGE('',*,*,#658,.F.);
#425=ORIENTED_EDGE('',*,*,#604,.F.);
#426=ORIENTED_EDGE('',*,*,#603,.F.);
#427=ORIENTED_EDGE('',*,*,#666,.T.);
#428=ORIENTED_EDGE('',*,*,#667,.F.);
#429=ORIENTED_EDGE('',*,*,#668,.T.);
#430=ORIENTED_EDGE('',*,*,#663,.T.);
#431=ORIENTED_EDGE('',*,*,#661,.F.);
#432=ORIENTED_EDGE('',*,*,#669,.T.);
#433=ORIENTED_EDGE('',*,*,#670,.F.);
#434=ORIENTED_EDGE('',*,*,#671,.T.);
#435=ORIENTED_EDGE('',*,*,#667,.T.);
#436=ORIENTED_EDGE('',*,*,#672,.T.);
#437=ORIENTED_EDGE('',*,*,#670,.T.);
#438=ORIENTED_EDGE('',*,*,#673,.T.);
#439=ORIENTED_EDGE('',*,*,#612,.T.);
#440=ORIENTED_EDGE('',*,*,#665,.F.);
#441=ORIENTED_EDGE('',*,*,#674,.T.);
#442=ORIENTED_EDGE('',*,*,#674,.F.);
#443=ORIENTED_EDGE('',*,*,#664,.F.);
#444=ORIENTED_EDGE('',*,*,#668,.F.);
#445=ORIENTED_EDGE('',*,*,#671,.F.);
#446=ORIENTED_EDGE('',*,*,#675,.F.);
#447=ORIENTED_EDGE('',*,*,#676,.T.);
#448=ORIENTED_EDGE('',*,*,#605,.F.);
#449=ORIENTED_EDGE('',*,*,#677,.F.);
#450=ORIENTED_EDGE('',*,*,#601,.F.);
#451=ORIENTED_EDGE('',*,*,#666,.F.);
#452=ORIENTED_EDGE('',*,*,#602,.F.);
#453=ORIENTED_EDGE('',*,*,#678,.F.);
#454=ORIENTED_EDGE('',*,*,#662,.F.);
#455=ORIENTED_EDGE('',*,*,#672,.F.);
#456=ORIENTED_EDGE('',*,*,#678,.T.);
#457=ORIENTED_EDGE('',*,*,#677,.T.);
#458=ORIENTED_EDGE('',*,*,#679,.F.);
#459=ORIENTED_EDGE('',*,*,#607,.F.);
#460=ORIENTED_EDGE('',*,*,#680,.T.);
#461=ORIENTED_EDGE('',*,*,#681,.F.);
#462=ORIENTED_EDGE('',*,*,#609,.F.);
#463=ORIENTED_EDGE('',*,*,#682,.F.);
#464=ORIENTED_EDGE('',*,*,#679,.T.);
#465=ORIENTED_EDGE('',*,*,#608,.F.);
#466=ORIENTED_EDGE('',*,*,#683,.F.);
#467=ORIENTED_EDGE('',*,*,#659,.F.);
#468=ORIENTED_EDGE('',*,*,#683,.T.);
#469=ORIENTED_EDGE('',*,*,#682,.T.);
#470=ORIENTED_EDGE('',*,*,#684,.F.);
#471=ORIENTED_EDGE('',*,*,#669,.F.);
#472=ORIENTED_EDGE('',*,*,#660,.F.);
#473=ORIENTED_EDGE('',*,*,#684,.T.);
#474=ORIENTED_EDGE('',*,*,#613,.F.);
#475=ORIENTED_EDGE('',*,*,#673,.F.);
#476=ORIENTED_EDGE('',*,*,#651,.F.);
#477=ORIENTED_EDGE('',*,*,#638,.F.);
#478=ORIENTED_EDGE('',*,*,#577,.F.);
#479=ORIENTED_EDGE('',*,*,#642,.F.);
#480=ORIENTED_EDGE('',*,*,#652,.F.);
#481=ORIENTED_EDGE('',*,*,#646,.F.);
#482=ORIENTED_EDGE('',*,*,#583,.F.);
#483=ORIENTED_EDGE('',*,*,#649,.F.);
#484=ORIENTED_EDGE('',*,*,#681,.T.);
#485=ORIENTED_EDGE('',*,*,#685,.T.);
#486=ORIENTED_EDGE('',*,*,#614,.F.);
#487=ORIENTED_EDGE('',*,*,#570,.F.);
#488=ORIENTED_EDGE('',*,*,#599,.F.);
#489=ORIENTED_EDGE('',*,*,#686,.T.);
#490=ORIENTED_EDGE('',*,*,#675,.T.);
#491=ORIENTED_EDGE('',*,*,#566,.F.);
#492=ORIENTED_EDGE('',*,*,#624,.F.);
#493=ORIENTED_EDGE('',*,*,#687,.T.);
#494=ORIENTED_EDGE('',*,*,#587,.F.);
#495=ORIENTED_EDGE('',*,*,#688,.F.);
#496=ORIENTED_EDGE('',*,*,#688,.T.);
#497=ORIENTED_EDGE('',*,*,#621,.F.);
#498=ORIENTED_EDGE('',*,*,#689,.F.);
#499=ORIENTED_EDGE('',*,*,#625,.F.);
#500=ORIENTED_EDGE('',*,*,#689,.T.);
#501=ORIENTED_EDGE('',*,*,#619,.F.);
#502=ORIENTED_EDGE('',*,*,#690,.F.);
#503=ORIENTED_EDGE('',*,*,#626,.F.);
#504=ORIENTED_EDGE('',*,*,#690,.T.);
#505=ORIENTED_EDGE('',*,*,#617,.F.);
#506=ORIENTED_EDGE('',*,*,#691,.F.);
#507=ORIENTED_EDGE('',*,*,#627,.F.);
#508=ORIENTED_EDGE('',*,*,#691,.T.);
#509=ORIENTED_EDGE('',*,*,#615,.F.);
#510=ORIENTED_EDGE('',*,*,#692,.F.);
#511=ORIENTED_EDGE('',*,*,#628,.F.);
#512=ORIENTED_EDGE('',*,*,#692,.T.);
#513=ORIENTED_EDGE('',*,*,#685,.F.);
#514=ORIENTED_EDGE('',*,*,#693,.F.);
#515=ORIENTED_EDGE('',*,*,#629,.F.);
#516=ORIENTED_EDGE('',*,*,#693,.T.);
#517=ORIENTED_EDGE('',*,*,#680,.F.);
#518=ORIENTED_EDGE('',*,*,#694,.F.);
#519=ORIENTED_EDGE('',*,*,#630,.F.);
#520=ORIENTED_EDGE('',*,*,#694,.T.);
#521=ORIENTED_EDGE('',*,*,#606,.F.);
#522=ORIENTED_EDGE('',*,*,#695,.F.);
#523=ORIENTED_EDGE('',*,*,#631,.F.);
#524=ORIENTED_EDGE('',*,*,#695,.T.);
#525=ORIENTED_EDGE('',*,*,#676,.F.);
#526=ORIENTED_EDGE('',*,*,#696,.F.);
#527=ORIENTED_EDGE('',*,*,#632,.F.);
#528=ORIENTED_EDGE('',*,*,#696,.T.);
#529=ORIENTED_EDGE('',*,*,#686,.F.);
#530=ORIENTED_EDGE('',*,*,#697,.F.);
#531=ORIENTED_EDGE('',*,*,#633,.F.);
#532=ORIENTED_EDGE('',*,*,#697,.T.);
#533=ORIENTED_EDGE('',*,*,#598,.F.);
#534=ORIENTED_EDGE('',*,*,#698,.F.);
#535=ORIENTED_EDGE('',*,*,#634,.F.);
#536=ORIENTED_EDGE('',*,*,#698,.T.);
#537=ORIENTED_EDGE('',*,*,#596,.F.);
#538=ORIENTED_EDGE('',*,*,#699,.F.);
#539=ORIENTED_EDGE('',*,*,#635,.F.);
#540=ORIENTED_EDGE('',*,*,#699,.T.);
#541=ORIENTED_EDGE('',*,*,#594,.F.);
#542=ORIENTED_EDGE('',*,*,#700,.F.);
#543=ORIENTED_EDGE('',*,*,#636,.F.);
#544=ORIENTED_EDGE('',*,*,#700,.T.);
#545=ORIENTED_EDGE('',*,*,#592,.F.);
#546=ORIENTED_EDGE('',*,*,#701,.F.);
#547=ORIENTED_EDGE('',*,*,#637,.F.);
#548=ORIENTED_EDGE('',*,*,#701,.T.);
#549=ORIENTED_EDGE('',*,*,#590,.F.);
#550=ORIENTED_EDGE('',*,*,#702,.T.);
#551=ORIENTED_EDGE('',*,*,#622,.F.);
#552=ORIENTED_EDGE('',*,*,#560,.F.);
#553=ORIENTED_EDGE('',*,*,#588,.F.);
#554=ORIENTED_EDGE('',*,*,#703,.F.);
#555=ORIENTED_EDGE('',*,*,#589,.F.);
#556=ORIENTED_EDGE('',*,*,#687,.F.);
#557=ORIENTED_EDGE('',*,*,#623,.F.);
#558=ORIENTED_EDGE('',*,*,#702,.F.);
#559=ORIENTED_EDGE('',*,*,#703,.T.);
#560=EDGE_CURVE('',#704,#705,#792,.T.);
#561=EDGE_CURVE('',#706,#705,#90,.T.);
#562=EDGE_CURVE('',#706,#707,#48,.T.);
#563=EDGE_CURVE('',#708,#707,#91,.T.);
#564=EDGE_CURVE('',#708,#709,#49,.T.);
#565=EDGE_CURVE('',#709,#710,#92,.T.);
#566=EDGE_CURVE('',#710,#711,#50,.F.);
#567=EDGE_CURVE('',#712,#711,#93,.T.);
#568=EDGE_CURVE('',#713,#712,#94,.T.);
#569=EDGE_CURVE('',#714,#713,#95,.T.);
#570=EDGE_CURVE('',#714,#715,#51,.F.);
#571=EDGE_CURVE('',#715,#716,#96,.T.);
#572=EDGE_CURVE('',#716,#717,#52,.T.);
#573=EDGE_CURVE('',#717,#718,#97,.T.);
#574=EDGE_CURVE('',#718,#719,#53,.T.);
#575=EDGE_CURVE('',#704,#719,#98,.T.);
#576=EDGE_CURVE('',#720,#721,#99,.T.);
#577=EDGE_CURVE('',#721,#722,#54,.F.);
#578=EDGE_CURVE('',#722,#723,#100,.T.);
#579=EDGE_CURVE('',#724,#723,#101,.T.);
#580=EDGE_CURVE('',#725,#724,#55,.T.);
#581=EDGE_CURVE('',#726,#725,#102,.T.);
#582=EDGE_CURVE('',#726,#727,#103,.T.);
#583=EDGE_CURVE('',#727,#728,#56,.F.);
#584=EDGE_CURVE('',#729,#728,#104,.T.);
#585=EDGE_CURVE('',#729,#720,#57,.T.);
#586=EDGE_CURVE('',#719,#730,#105,.T.);
#587=EDGE_CURVE('',#730,#731,#106,.T.);
#588=EDGE_CURVE('',#731,#704,#58,.F.);
#589=EDGE_CURVE('',#705,#732,#59,.F.);
#590=EDGE_CURVE('',#732,#733,#107,.T.);
#591=EDGE_CURVE('',#706,#733,#108,.T.);
#592=EDGE_CURVE('',#733,#734,#60,.T.);
#593=EDGE_CURVE('',#707,#734,#109,.T.);
#594=EDGE_CURVE('',#734,#735,#110,.T.);
#595=EDGE_CURVE('',#708,#735,#111,.T.);
#596=EDGE_CURVE('',#735,#736,#61,.T.);
#597=EDGE_CURVE('',#709,#736,#112,.T.);
#598=EDGE_CURVE('',#736,#737,#113,.T.);
#599=EDGE_CURVE('',#737,#710,#114,.F.);
#600=EDGE_CURVE('',#738,#712,#115,.T.);
#601=EDGE_CURVE('',#711,#739,#116,.F.);
#602=EDGE_CURVE('',#739,#740,#117,.T.);
#603=EDGE_CURVE('',#740,#741,#118,.T.);
#604=EDGE_CURVE('',#741,#738,#119,.T.);
#605=EDGE_CURVE('',#742,#743,#120,.T.);
#606=EDGE_CURVE('',#743,#744,#121,.T.);
#607=EDGE_CURVE('',#744,#745,#122,.F.);
#608=EDGE_CURVE('',#745,#742,#123,.T.);
#609=EDGE_CURVE('',#746,#714,#124,.T.);
#610=EDGE_CURVE('',#747,#713,#125,.T.);
#611=EDGE_CURVE('',#748,#747,#126,.T.);
#612=EDGE_CURVE('',#749,#748,#127,.T.);
#613=EDGE_CURVE('',#749,#746,#128,.T.);
#614=EDGE_CURVE('',#715,#750,#129,.T.);
#615=EDGE_CURVE('',#750,#751,#130,.T.);
#616=EDGE_CURVE('',#716,#751,#131,.T.);
#617=EDGE_CURVE('',#751,#752,#62,.T.);
#618=EDGE_CURVE('',#717,#752,#132,.T.);
#619=EDGE_CURVE('',#752,#753,#133,.T.);
#620=EDGE_CURVE('',#718,#753,#134,.T.);
#621=EDGE_CURVE('',#753,#730,#63,.T.);
#622=EDGE_CURVE('',#754,#755,#135,.T.);
#623=EDGE_CURVE('',#755,#756,#793,.T.);
#624=EDGE_CURVE('',#756,#757,#136,.T.);
#625=EDGE_CURVE('',#757,#758,#64,.F.);
#626=EDGE_CURVE('',#758,#759,#137,.T.);
#627=EDGE_CURVE('',#759,#760,#65,.F.);
#628=EDGE_CURVE('',#760,#761,#138,.T.);
#629=EDGE_CURVE('',#761,#762,#66,.T.);
#630=EDGE_CURVE('',#762,#763,#67,.F.);
#631=EDGE_CURVE('',#763,#764,#139,.T.);
#632=EDGE_CURVE('',#764,#765,#68,.F.);
#633=EDGE_CURVE('',#765,#766,#69,.T.);
#634=EDGE_CURVE('',#766,#767,#140,.T.);
#635=EDGE_CURVE('',#767,#768,#70,.F.);
#636=EDGE_CURVE('',#768,#769,#141,.T.);
#637=EDGE_CURVE('',#769,#754,#71,.F.);
#638=EDGE_CURVE('',#722,#770,#142,.F.);
#639=EDGE_CURVE('',#770,#771,#143,.T.);
#640=EDGE_CURVE('',#771,#723,#72,.T.);
#641=EDGE_CURVE('',#772,#773,#144,.T.);
#642=EDGE_CURVE('',#773,#721,#145,.T.);
#643=EDGE_CURVE('',#772,#720,#146,.T.);
#644=EDGE_CURVE('',#774,#729,#147,.T.);
#645=EDGE_CURVE('',#774,#772,#73,.T.);
#646=EDGE_CURVE('',#728,#775,#148,.F.);
#647=EDGE_CURVE('',#774,#775,#149,.T.);
#648=EDGE_CURVE('',#776,#777,#150,.T.);
#649=EDGE_CURVE('',#777,#727,#151,.T.);
#650=EDGE_CURVE('',#726,#776,#74,.T.);
#651=EDGE_CURVE('',#770,#773,#75,.T.);
#652=EDGE_CURVE('',#775,#777,#76,.T.);
#653=EDGE_CURVE('',#776,#778,#152,.T.);
#654=EDGE_CURVE('',#778,#779,#77,.T.);
#655=EDGE_CURVE('',#779,#771,#153,.T.);
#656=EDGE_CURVE('',#724,#779,#78,.T.);
#657=EDGE_CURVE('',#725,#778,#79,.T.);
#658=EDGE_CURVE('',#738,#747,#154,.T.);
#659=EDGE_CURVE('',#780,#781,#155,.F.);
#660=EDGE_CURVE('',#781,#782,#156,.F.);
#661=EDGE_CURVE('',#782,#783,#157,.T.);
#662=EDGE_CURVE('',#783,#780,#158,.F.);
#663=EDGE_CURVE('',#784,#741,#159,.T.);
#664=EDGE_CURVE('',#784,#785,#160,.F.);
#665=EDGE_CURVE('',#785,#748,#161,.F.);
#666=EDGE_CURVE('',#740,#786,#24,.T.);
#667=EDGE_CURVE('',#787,#786,#162,.T.);
#668=EDGE_CURVE('',#787,#784,#25,.T.);
#669=EDGE_CURVE('',#782,#788,#26,.T.);
#670=EDGE_CURVE('',#789,#788,#163,.F.);
#671=EDGE_CURVE('',#789,#787,#164,.T.);
#672=EDGE_CURVE('',#786,#783,#27,.T.);
#673=EDGE_CURVE('',#788,#749,#28,.T.);
#674=EDGE_CURVE('',#785,#789,#29,.T.);
#675=EDGE_CURVE('',#790,#711,#165,.F.);
#676=EDGE_CURVE('',#790,#743,#80,.T.);
#677=EDGE_CURVE('',#739,#742,#81,.T.);
#678=EDGE_CURVE('',#780,#739,#82,.T.);
#679=EDGE_CURVE('',#780,#742,#83,.F.);
#680=EDGE_CURVE('',#744,#791,#84,.T.);
#681=EDGE_CURVE('',#714,#791,#166,.T.);
#682=EDGE_CURVE('',#745,#746,#85,.T.);
#683=EDGE_CURVE('',#781,#745,#86,.T.);
#684=EDGE_CURVE('',#781,#746,#87,.F.);
#685=EDGE_CURVE('',#791,#750,#88,.F.);
#686=EDGE_CURVE('',#737,#790,#89,.F.);
#687=EDGE_CURVE('',#756,#731,#794,.T.);
#688=EDGE_CURVE('',#757,#730,#167,.T.);
#689=EDGE_CURVE('',#758,#753,#168,.T.);
#690=EDGE_CURVE('',#759,#752,#169,.T.);
#691=EDGE_CURVE('',#760,#751,#170,.T.);
#692=EDGE_CURVE('',#761,#750,#171,.T.);
#693=EDGE_CURVE('',#762,#791,#172,.T.);
#694=EDGE_CURVE('',#763,#744,#173,.T.);
#695=EDGE_CURVE('',#764,#743,#174,.T.);
#696=EDGE_CURVE('',#765,#790,#175,.T.);
#697=EDGE_CURVE('',#766,#737,#176,.T.);
#698=EDGE_CURVE('',#767,#736,#177,.T.);
#699=EDGE_CURVE('',#768,#735,#178,.T.);
#700=EDGE_CURVE('',#769,#734,#179,.T.);
#701=EDGE_CURVE('',#754,#733,#180,.T.);
#702=EDGE_CURVE('',#732,#755,#795,.T.);
#703=EDGE_CURVE('',#732,#731,#796,.T.);
#704=VERTEX_POINT('',#1443);
#705=VERTEX_POINT('',#1444);
#706=VERTEX_POINT('',#1446);
#707=VERTEX_POINT('',#1448);
#708=VERTEX_POINT('',#1450);
#709=VERTEX_POINT('',#1452);
#710=VERTEX_POINT('',#1454);
#711=VERTEX_POINT('',#1456);
#712=VERTEX_POINT('',#1458);
#713=VERTEX_POINT('',#1460);
#714=VERTEX_POINT('',#1462);
#715=VERTEX_POINT('',#1464);
#716=VERTEX_POINT('',#1466);
#717=VERTEX_POINT('',#1468);
#718=VERTEX_POINT('',#1470);
#719=VERTEX_POINT('',#1472);
#720=VERTEX_POINT('',#1475);
#721=VERTEX_POINT('',#1476);
#722=VERTEX_POINT('',#1478);
#723=VERTEX_POINT('',#1480);
#724=VERTEX_POINT('',#1482);
#725=VERTEX_POINT('',#1484);
#726=VERTEX_POINT('',#1486);
#727=VERTEX_POINT('',#1488);
#728=VERTEX_POINT('',#1490);
#729=VERTEX_POINT('',#1492);
#730=VERTEX_POINT('',#1496);
#731=VERTEX_POINT('',#1498);
#732=VERTEX_POINT('',#1502);
#733=VERTEX_POINT('',#1504);
#734=VERTEX_POINT('',#1508);
#735=VERTEX_POINT('',#1512);
#736=VERTEX_POINT('',#1516);
#737=VERTEX_POINT('',#1520);
#738=VERTEX_POINT('',#1524);
#739=VERTEX_POINT('',#1526);
#740=VERTEX_POINT('',#1528);
#741=VERTEX_POINT('',#1530);
#742=VERTEX_POINT('',#1534);
#743=VERTEX_POINT('',#1535);
#744=VERTEX_POINT('',#1537);
#745=VERTEX_POINT('',#1539);
#746=VERTEX_POINT('',#1543);
#747=VERTEX_POINT('',#1545);
#748=VERTEX_POINT('',#1547);
#749=VERTEX_POINT('',#1549);
#750=VERTEX_POINT('',#1553);
#751=VERTEX_POINT('',#1555);
#752=VERTEX_POINT('',#1559);
#753=VERTEX_POINT('',#1563);
#754=VERTEX_POINT('',#1569);
#755=VERTEX_POINT('',#1570);
#756=VERTEX_POINT('',#1592);
#757=VERTEX_POINT('',#1594);
#758=VERTEX_POINT('',#1596);
#759=VERTEX_POINT('',#1598);
#760=VERTEX_POINT('',#1600);
#761=VERTEX_POINT('',#1602);
#762=VERTEX_POINT('',#1604);
#763=VERTEX_POINT('',#1606);
#764=VERTEX_POINT('',#1608);
#765=VERTEX_POINT('',#1610);
#766=VERTEX_POINT('',#1612);
#767=VERTEX_POINT('',#1614);
#768=VERTEX_POINT('',#1616);
#769=VERTEX_POINT('',#1618);
#770=VERTEX_POINT('',#1622);
#771=VERTEX_POINT('',#1624);
#772=VERTEX_POINT('',#1628);
#773=VERTEX_POINT('',#1629);
#774=VERTEX_POINT('',#1634);
#775=VERTEX_POINT('',#1638);
#776=VERTEX_POINT('',#1642);
#777=VERTEX_POINT('',#1643);
#778=VERTEX_POINT('',#1650);
#779=VERTEX_POINT('',#1652);
#780=VERTEX_POINT('',#1663);
#781=VERTEX_POINT('',#1664);
#782=VERTEX_POINT('',#1666);
#783=VERTEX_POINT('',#1668);
#784=VERTEX_POINT('',#1672);
#785=VERTEX_POINT('',#1674);
#786=VERTEX_POINT('',#1678);
#787=VERTEX_POINT('',#1680);
#788=VERTEX_POINT('',#1684);
#789=VERTEX_POINT('',#1686);
#790=VERTEX_POINT('',#1695);
#791=VERTEX_POINT('',#1704);
#792=B_SPLINE_CURVE_WITH_KNOTS('',3,(#1428,#1429,#1430,#1431,#1432,#1433,
#1434,#1435,#1436,#1437,#1438,#1439,#1440,#1441,#1442),.UNSPECIFIED.,.F.,
 .F.,(4,1,1,1,1,1,1,1,1,1,1,1,4),(0.,0.00213039034172987,0.00426078068345973,
0.0063911710251896,0.00852156136691946,0.0127823420503792,0.0170431227338389,
0.0213039034172987,0.0255646841007584,0.0276950744424883,0.0298254647842181,
0.031955855125948,0.0340862454676779),.UNSPECIFIED.);
#793=B_SPLINE_CURVE_WITH_KNOTS('',3,(#1571,#1572,#1573,#1574,#1575,#1576,
#1577,#1578,#1579,#1580,#1581,#1582,#1583,#1584,#1585,#1586,#1587,#1588,
#1589,#1590,#1591),.UNSPECIFIED.,.F.,.F.,(4,1,1,1,1,1,1,1,1,1,1,1,1,1,1,
1,1,1,4),(0.,0.00112953571932549,0.00225907143865099,0.00338860715797648,
0.00451814287730198,0.00677721431595297,0.00903628575460395,0.0112953571932549,
0.0135544286319059,0.0180725715092079,0.0225907143865099,0.0248497858251609,
0.0271088572638119,0.0293679287024628,0.0316270001411138,0.0327565358604393,
0.0338860715797648,0.0350156072990903,0.0361451430184158),.UNSPECIFIED.);
#794=B_SPLINE_CURVE_WITH_KNOTS('',3,(#1719,#1720,#1721,#1722,#1723),
 .UNSPECIFIED.,.F.,.F.,(4,1,4),(0.,0.00101019395928524,0.00202038791857049),
 .UNSPECIFIED.);
#795=B_SPLINE_CURVE_WITH_KNOTS('',3,(#1752,#1753,#1754,#1755,#1756),
 .UNSPECIFIED.,.F.,.F.,(4,1,4),(0.,0.00100992033319048,0.00201984066638097),
 .UNSPECIFIED.);
#796=B_SPLINE_CURVE_WITH_KNOTS('',3,(#1817,#1818,#1819,#1820,#1821,#1822,
#1823,#1824,#1825,#1826,#1827,#1828,#1829,#1830,#1831),.UNSPECIFIED.,.F.,
 .F.,(4,1,1,1,1,1,1,1,1,1,1,1,4),(0.,0.00231152434078303,0.00462304868156606,
0.00693457302234909,0.00924609736313212,0.0138691460446982,0.0184921947262642,
0.0231152434078303,0.0277382920893964,0.0300498164301794,0.0323613407709624,
0.0346728651117455,0.0369843894525285),.UNSPECIFIED.);
#797=EDGE_LOOP('',(#272,#273,#274,#275,#276,#277,#278,#279,#280,#281,#282,
#283,#284,#285,#286,#287));
#798=EDGE_LOOP('',(#288,#289,#290,#291,#292,#293,#294,#295,#296,#297));
#799=EDGE_LOOP('',(#298,#299,#300,#301));
#800=EDGE_LOOP('',(#302,#303,#304,#305));
#801=EDGE_LOOP('',(#306,#307,#308,#309));
#802=EDGE_LOOP('',(#310,#311,#312,#313));
#803=EDGE_LOOP('',(#314,#315,#316,#317));
#804=EDGE_LOOP('',(#318,#319,#320,#321));
#805=EDGE_LOOP('',(#322,#323,#324,#325,#326,#327));
#806=EDGE_LOOP('',(#328,#329,#330,#331));
#807=EDGE_LOOP('',(#332,#333,#334,#335,#336,#337));
#808=EDGE_LOOP('',(#338,#339,#340,#341));
#809=EDGE_LOOP('',(#342,#343,#344,#345));
#810=EDGE_LOOP('',(#346,#347,#348,#349));
#811=EDGE_LOOP('',(#350,#351,#352,#353));
#812=EDGE_LOOP('',(#354,#355,#356,#357,#358,#359,#360,#361,#362,#363,#364,
#365,#366,#367,#368,#369));
#813=EDGE_LOOP('',(#370,#371,#372,#373));
#814=EDGE_LOOP('',(#374,#375,#376,#377));
#815=EDGE_LOOP('',(#378,#379,#380,#381));
#816=EDGE_LOOP('',(#382,#383,#384,#385));
#817=EDGE_LOOP('',(#386,#387,#388,#389));
#818=EDGE_LOOP('',(#390,#391,#392,#393,#394,#395,#396,#397,#398,#399));
#819=EDGE_LOOP('',(#400,#401,#402,#403));
#820=EDGE_LOOP('',(#404,#405,#406,#407));
#821=EDGE_LOOP('',(#408,#409,#410,#411));
#822=EDGE_LOOP('',(#412,#413,#414,#415));
#823=EDGE_LOOP('',(#416,#417,#418,#419));
#824=EDGE_LOOP('',(#420,#421,#422,#423,#424,#425));
#825=EDGE_LOOP('',(#426,#427,#428,#429,#430));
#826=EDGE_LOOP('',(#431,#432,#433,#434,#435,#436));
#827=EDGE_LOOP('',(#437,#438,#439,#440,#441));
#828=EDGE_LOOP('',(#442,#443,#444,#445));
#829=EDGE_LOOP('',(#446,#447,#448,#449,#450));
#830=EDGE_LOOP('',(#451,#452,#453,#454,#455));
#831=EDGE_LOOP('',(#456,#457,#458));
#832=EDGE_LOOP('',(#459,#460,#461,#462,#463));
#833=EDGE_LOOP('',(#464,#465,#466,#467));
#834=EDGE_LOOP('',(#468,#469,#470));
#835=EDGE_LOOP('',(#471,#472,#473,#474,#475));
#836=EDGE_LOOP('',(#476,#477,#478,#479));
#837=EDGE_LOOP('',(#480,#481,#482,#483));
#838=EDGE_LOOP('',(#484,#485,#486,#487));
#839=EDGE_LOOP('',(#488,#489,#490,#491));
#840=EDGE_LOOP('',(#492,#493,#494,#495));
#841=EDGE_LOOP('',(#496,#497,#498,#499));
#842=EDGE_LOOP('',(#500,#501,#502,#503));
#843=EDGE_LOOP('',(#504,#505,#506,#507));
#844=EDGE_LOOP('',(#508,#509,#510,#511));
#845=EDGE_LOOP('',(#512,#513,#514,#515));
#846=EDGE_LOOP('',(#516,#517,#518,#519));
#847=EDGE_LOOP('',(#520,#521,#522,#523));
#848=EDGE_LOOP('',(#524,#525,#526,#527));
#849=EDGE_LOOP('',(#528,#529,#530,#531));
#850=EDGE_LOOP('',(#532,#533,#534,#535));
#851=EDGE_LOOP('',(#536,#537,#538,#539));
#852=EDGE_LOOP('',(#540,#541,#542,#543));
#853=EDGE_LOOP('',(#544,#545,#546,#547));
#854=EDGE_LOOP('',(#548,#549,#550,#551));
#855=EDGE_LOOP('',(#552,#553,#554,#555));
#856=EDGE_LOOP('',(#556,#557,#558,#559));
#857=FACE_BOUND('',#797,.T.);
#858=FACE_BOUND('',#798,.T.);
#859=FACE_BOUND('',#799,.T.);
#860=FACE_BOUND('',#800,.T.);
#861=FACE_BOUND('',#801,.T.);
#862=FACE_BOUND('',#802,.T.);
#863=FACE_BOUND('',#803,.T.);
#864=FACE_BOUND('',#804,.T.);
#865=FACE_BOUND('',#805,.T.);
#866=FACE_BOUND('',#806,.T.);
#867=FACE_BOUND('',#807,.T.);
#868=FACE_BOUND('',#808,.T.);
#869=FACE_BOUND('',#809,.T.);
#870=FACE_BOUND('',#810,.T.);
#871=FACE_BOUND('',#811,.T.);
#872=FACE_BOUND('',#812,.T.);
#873=FACE_BOUND('',#813,.T.);
#874=FACE_BOUND('',#814,.T.);
#875=FACE_BOUND('',#815,.T.);
#876=FACE_BOUND('',#816,.T.);
#877=FACE_BOUND('',#817,.T.);
#878=FACE_BOUND('',#818,.T.);
#879=FACE_BOUND('',#819,.T.);
#880=FACE_BOUND('',#820,.T.);
#881=FACE_BOUND('',#821,.T.);
#882=FACE_BOUND('',#822,.T.);
#883=FACE_BOUND('',#823,.T.);
#884=FACE_BOUND('',#824,.T.);
#885=FACE_BOUND('',#825,.T.);
#886=FACE_BOUND('',#826,.T.);
#887=FACE_BOUND('',#827,.T.);
#888=FACE_BOUND('',#828,.T.);
#889=FACE_BOUND('',#829,.T.);
#890=FACE_BOUND('',#830,.T.);
#891=FACE_BOUND('',#831,.T.);
#892=FACE_BOUND('',#832,.T.);
#893=FACE_BOUND('',#833,.T.);
#894=FACE_BOUND('',#834,.T.);
#895=FACE_BOUND('',#835,.T.);
#896=FACE_BOUND('',#836,.T.);
#897=FACE_BOUND('',#837,.T.);
#898=FACE_BOUND('',#838,.T.);
#899=FACE_BOUND('',#839,.T.);
#900=FACE_BOUND('',#840,.T.);
#901=FACE_BOUND('',#841,.T.);
#902=FACE_BOUND('',#842,.T.);
#903=FACE_BOUND('',#843,.T.);
#904=FACE_BOUND('',#844,.T.);
#905=FACE_BOUND('',#845,.T.);
#906=FACE_BOUND('',#846,.T.);
#907=FACE_BOUND('',#847,.T.);
#908=FACE_BOUND('',#848,.T.);
#909=FACE_BOUND('',#849,.T.);
#910=FACE_BOUND('',#850,.T.);
#911=FACE_BOUND('',#851,.T.);
#912=FACE_BOUND('',#852,.T.);
#913=FACE_BOUND('',#853,.T.);
#914=FACE_BOUND('',#854,.T.);
#915=FACE_BOUND('',#855,.T.);
#916=FACE_BOUND('',#856,.T.);
#917=PLANE('',#1018);
#918=PLANE('',#1029);
#919=PLANE('',#1031);
#920=PLANE('',#1035);
#921=PLANE('',#1038);
#922=PLANE('',#1039);
#923=PLANE('',#1040);
#924=PLANE('',#1041);
#925=PLANE('',#1042);
#926=PLANE('',#1045);
#927=PLANE('',#1048);
#928=PLANE('',#1057);
#929=PLANE('',#1059);
#930=PLANE('',#1062);
#931=PLANE('',#1063);
#932=PLANE('',#1065);
#933=PLANE('',#1074);
#934=PLANE('',#1075);
#935=PLANE('',#1076);
#936=PLANE('',#1077);
#937=PLANE('',#1080);
#938=PLANE('',#1083);
#939=PLANE('',#1108);
#940=PLANE('',#1110);
#941=PLANE('',#1112);
#942=PLANE('',#1115);
#943=PLANE('',#1118);
#944=PLANE('',#1120);
#945=PLANE('',#1122);
#946=ADVANCED_FACE('',(#857,#858),#917,.T.);
#947=ADVANCED_FACE('',(#859),#918,.T.);
#948=ADVANCED_FACE('',(#860),#919,.T.);
#949=ADVANCED_FACE('',(#861),#31,.T.);
#950=ADVANCED_FACE('',(#862),#920,.T.);
#951=ADVANCED_FACE('',(#863),#32,.T.);
#952=ADVANCED_FACE('',(#864),#921,.F.);
#953=ADVANCED_FACE('',(#865),#922,.T.);
#954=ADVANCED_FACE('',(#866),#923,.T.);
#955=ADVANCED_FACE('',(#867),#924,.T.);
#956=ADVANCED_FACE('',(#868),#925,.F.);
#957=ADVANCED_FACE('',(#869),#33,.T.);
#958=ADVANCED_FACE('',(#870),#926,.F.);
#959=ADVANCED_FACE('',(#871),#34,.T.);
#960=ADVANCED_FACE('',(#872),#927,.F.);
#961=ADVANCED_FACE('',(#873),#928,.T.);
#962=ADVANCED_FACE('',(#874),#929,.T.);
#963=ADVANCED_FACE('',(#875),#35,.F.);
#964=ADVANCED_FACE('',(#876),#930,.F.);
#965=ADVANCED_FACE('',(#877),#931,.T.);
#966=ADVANCED_FACE('',(#878),#932,.T.);
#967=ADVANCED_FACE('',(#879),#36,.T.);
#968=ADVANCED_FACE('',(#880),#30,.T.);
#969=ADVANCED_FACE('',(#881),#37,.T.);
#970=ADVANCED_FACE('',(#882),#933,.F.);
#971=ADVANCED_FACE('',(#883),#934,.T.);
#972=ADVANCED_FACE('',(#884),#935,.T.);
#973=ADVANCED_FACE('',(#885),#936,.T.);
#974=ADVANCED_FACE('',(#886),#937,.T.);
#975=ADVANCED_FACE('',(#887),#938,.T.);
#976=ADVANCED_FACE('',(#888),#38,.T.);
#977=ADVANCED_FACE('',(#889),#39,.T.);
#978=ADVANCED_FACE('',(#890),#40,.T.);
#979=ADVANCED_FACE('',(#891),#22,.T.);
#980=ADVANCED_FACE('',(#892),#41,.T.);
#981=ADVANCED_FACE('',(#893),#42,.T.);
#982=ADVANCED_FACE('',(#894),#23,.T.);
#983=ADVANCED_FACE('',(#895),#43,.T.);
#984=ADVANCED_FACE('',(#896),#44,.T.);
#985=ADVANCED_FACE('',(#897),#45,.T.);
#986=ADVANCED_FACE('',(#898),#46,.F.);
#987=ADVANCED_FACE('',(#899),#47,.F.);
#988=ADVANCED_FACE('',(#900),#939,.T.);
#989=ADVANCED_FACE('',(#901),#14,.T.);
#990=ADVANCED_FACE('',(#902),#940,.F.);
#991=ADVANCED_FACE('',(#903),#15,.T.);
#992=ADVANCED_FACE('',(#904),#941,.F.);
#993=ADVANCED_FACE('',(#905),#16,.F.);
#994=ADVANCED_FACE('',(#906),#17,.T.);
#995=ADVANCED_FACE('',(#907),#942,.T.);
#996=ADVANCED_FACE('',(#908),#18,.T.);
#997=ADVANCED_FACE('',(#909),#19,.F.);
#998=ADVANCED_FACE('',(#910),#943,.F.);
#999=ADVANCED_FACE('',(#911),#20,.T.);
#1000=ADVANCED_FACE('',(#912),#944,.T.);
#1001=ADVANCED_FACE('',(#913),#21,.T.);
#1002=ADVANCED_FACE('',(#914),#945,.T.);
#1003=ADVANCED_FACE('',(#915),#12,.T.);
#1004=ADVANCED_FACE('',(#916),#13,.T.);
#1005=CLOSED_SHELL('',(#946,#947,#948,#949,#950,#951,#952,#953,#954,#955,
#956,#957,#958,#959,#960,#961,#962,#963,#964,#965,#966,#967,#968,#969,#970,
#971,#972,#973,#974,#975,#976,#977,#978,#979,#980,#981,#982,#983,#984,#985,
#986,#987,#988,#989,#990,#991,#992,#993,#994,#995,#996,#997,#998,#999,#1000,
#1001,#1002,#1003,#1004));
#1006=STYLED_ITEM('',(#1007),#1014);
#1007=PRESENTATION_STYLE_ASSIGNMENT((#1008));
#1008=SURFACE_STYLE_USAGE(.BOTH.,#1009);
#1009=SURFACE_SIDE_STYLE('',(#1010));
#1010=SURFACE_STYLE_FILL_AREA(#1011);
#1011=FILL_AREA_STYLE('',(#1012));
#1012=FILL_AREA_STYLE_COLOUR('',#1013);
#1013=COLOUR_RGB('',0.615686274509804,0.811764705882353,0.929411764705882);
#1014=MANIFOLD_SOLID_BREP('Electronics Casing Top',#1005);
#1015=SHAPE_DEFINITION_REPRESENTATION(#1904,#1016);
#1016=SHAPE_REPRESENTATION('Electronics Casing Top',(#1017),#1899);
#1017=AXIS2_PLACEMENT_3D('',#1426,#1123,#1124);
#1018=AXIS2_PLACEMENT_3D('',#1427,#1125,#1126);
#1019=AXIS2_PLACEMENT_3D('',#1447,#1128,#1129);
#1020=AXIS2_PLACEMENT_3D('',#1451,#1131,#1132);
#1021=AXIS2_PLACEMENT_3D('',#1455,#1134,#1135);
#1022=AXIS2_PLACEMENT_3D('',#1463,#1139,#1140);
#1023=AXIS2_PLACEMENT_3D('',#1467,#1142,#1143);
#1024=AXIS2_PLACEMENT_3D('',#1471,#1145,#1146);
#1025=AXIS2_PLACEMENT_3D('',#1477,#1149,#1150);
#1026=AXIS2_PLACEMENT_3D('',#1483,#1153,#1154);
#1027=AXIS2_PLACEMENT_3D('',#1489,#1157,#1158);
#1028=AXIS2_PLACEMENT_3D('',#1493,#1160,#1161);
#1029=AXIS2_PLACEMENT_3D('',#1494,#1162,#1163);
#1030=AXIS2_PLACEMENT_3D('',#1499,#1166,#1167);
#1031=AXIS2_PLACEMENT_3D('',#1500,#1168,#1169);
#1032=AXIS2_PLACEMENT_3D('',#1501,#1170,#1171);
#1033=AXIS2_PLACEMENT_3D('',#1506,#1174,#1175);
#1034=AXIS2_PLACEMENT_3D('',#1507,#1176,#1177);
#1035=AXIS2_PLACEMENT_3D('',#1510,#1179,#1180);
#1036=AXIS2_PLACEMENT_3D('',#1514,#1183,#1184);
#1037=AXIS2_PLACEMENT_3D('',#1515,#1185,#1186);
#1038=AXIS2_PLACEMENT_3D('',#1518,#1188,#1189);
#1039=AXIS2_PLACEMENT_3D('',#1522,#1192,#1193);
#1040=AXIS2_PLACEMENT_3D('',#1532,#1199,#1200);
#1041=AXIS2_PLACEMENT_3D('',#1541,#1205,#1206);
#1042=AXIS2_PLACEMENT_3D('',#1551,#1212,#1213);
#1043=AXIS2_PLACEMENT_3D('',#1557,#1217,#1218);
#1044=AXIS2_PLACEMENT_3D('',#1558,#1219,#1220);
#1045=AXIS2_PLACEMENT_3D('',#1561,#1222,#1223);
#1046=AXIS2_PLACEMENT_3D('',#1565,#1226,#1227);
#1047=AXIS2_PLACEMENT_3D('',#1566,#1228,#1229);
#1048=AXIS2_PLACEMENT_3D('',#1567,#1230,#1231);
#1049=AXIS2_PLACEMENT_3D('',#1595,#1234,#1235);
#1050=AXIS2_PLACEMENT_3D('',#1599,#1237,#1238);
#1051=AXIS2_PLACEMENT_3D('',#1603,#1240,#1241);
#1052=AXIS2_PLACEMENT_3D('',#1605,#1242,#1243);
#1053=AXIS2_PLACEMENT_3D('',#1609,#1245,#1246);
#1054=AXIS2_PLACEMENT_3D('',#1611,#1247,#1248);
#1055=AXIS2_PLACEMENT_3D('',#1615,#1250,#1251);
#1056=AXIS2_PLACEMENT_3D('',#1619,#1253,#1254);
#1057=AXIS2_PLACEMENT_3D('',#1620,#1255,#1256);
#1058=AXIS2_PLACEMENT_3D('',#1625,#1259,#1260);
#1059=AXIS2_PLACEMENT_3D('',#1626,#1261,#1262);
#1060=AXIS2_PLACEMENT_3D('',#1632,#1266,#1267);
#1061=AXIS2_PLACEMENT_3D('',#1635,#1269,#1270);
#1062=AXIS2_PLACEMENT_3D('',#1636,#1271,#1272);
#1063=AXIS2_PLACEMENT_3D('',#1640,#1275,#1276);
#1064=AXIS2_PLACEMENT_3D('',#1645,#1279,#1280);
#1065=AXIS2_PLACEMENT_3D('',#1646,#1281,#1282);
#1066=AXIS2_PLACEMENT_3D('',#1647,#1283,#1284);
#1067=AXIS2_PLACEMENT_3D('',#1648,#1285,#1286);
#1068=AXIS2_PLACEMENT_3D('',#1651,#1288,#1289);
#1069=AXIS2_PLACEMENT_3D('',#1654,#1291,#1292);
#1070=AXIS2_PLACEMENT_3D('',#1655,#1293,#1294);
#1071=AXIS2_PLACEMENT_3D('',#1656,#1295,#1296);
#1072=AXIS2_PLACEMENT_3D('',#1657,#1297,#1298);
#1073=AXIS2_PLACEMENT_3D('',#1658,#1299,#1300);
#1074=AXIS2_PLACEMENT_3D('',#1659,#1301,#1302);
#1075=AXIS2_PLACEMENT_3D('',#1661,#1304,#1305);
#1076=AXIS2_PLACEMENT_3D('',#1670,#1310,#1311);
#1077=AXIS2_PLACEMENT_3D('',#1676,#1315,#1316);
#1078=AXIS2_PLACEMENT_3D('',#1677,#1317,#1318);
#1079=AXIS2_PLACEMENT_3D('',#1681,#1320,#1321);
#1080=AXIS2_PLACEMENT_3D('',#1682,#1322,#1323);
#1081=AXIS2_PLACEMENT_3D('',#1683,#1324,#1325);
#1082=AXIS2_PLACEMENT_3D('',#1688,#1328,#1329);
#1083=AXIS2_PLACEMENT_3D('',#1689,#1330,#1331);
#1084=AXIS2_PLACEMENT_3D('',#1690,#1332,#1333);
#1085=AXIS2_PLACEMENT_3D('',#1691,#1334,#1335);
#1086=AXIS2_PLACEMENT_3D('',#1692,#1336,#1337);
#1087=AXIS2_PLACEMENT_3D('',#1693,#1338,#1339);
#1088=AXIS2_PLACEMENT_3D('',#1696,#1341,#1342);
#1089=AXIS2_PLACEMENT_3D('',#1697,#1343,#1344);
#1090=AXIS2_PLACEMENT_3D('',#1698,#1345,#1346);
#1091=AXIS2_PLACEMENT_3D('',#1699,#1347,#1348);
#1092=AXIS2_PLACEMENT_3D('',#1700,#1349,#1350);
#1093=AXIS2_PLACEMENT_3D('',#1701,#1351,#1352);
#1094=AXIS2_PLACEMENT_3D('',#1702,#1353,#1354);
#1095=AXIS2_PLACEMENT_3D('',#1703,#1355,#1356);
#1096=AXIS2_PLACEMENT_3D('',#1706,#1358,#1359);
#1097=AXIS2_PLACEMENT_3D('',#1707,#1360,#1361);
#1098=AXIS2_PLACEMENT_3D('',#1708,#1362,#1363);
#1099=AXIS2_PLACEMENT_3D('',#1709,#1364,#1365);
#1100=AXIS2_PLACEMENT_3D('',#1710,#1366,#1367);
#1101=AXIS2_PLACEMENT_3D('',#1711,#1368,#1369);
#1102=AXIS2_PLACEMENT_3D('',#1712,#1370,#1371);
#1103=AXIS2_PLACEMENT_3D('',#1713,#1372,#1373);
#1104=AXIS2_PLACEMENT_3D('',#1714,#1374,#1375);
#1105=AXIS2_PLACEMENT_3D('',#1715,#1376,#1377);
#1106=AXIS2_PLACEMENT_3D('',#1716,#1378,#1379);
#1107=AXIS2_PLACEMENT_3D('',#1717,#1380,#1381);
#1108=AXIS2_PLACEMENT_3D('',#1718,#1382,#1383);
#1109=AXIS2_PLACEMENT_3D('',#1725,#1385,#1386);
#1110=AXIS2_PLACEMENT_3D('',#1727,#1388,#1389);
#1111=AXIS2_PLACEMENT_3D('',#1729,#1391,#1392);
#1112=AXIS2_PLACEMENT_3D('',#1731,#1394,#1395);
#1113=AXIS2_PLACEMENT_3D('',#1733,#1397,#1398);
#1114=AXIS2_PLACEMENT_3D('',#1735,#1400,#1401);
#1115=AXIS2_PLACEMENT_3D('',#1737,#1403,#1404);
#1116=AXIS2_PLACEMENT_3D('',#1739,#1406,#1407);
#1117=AXIS2_PLACEMENT_3D('',#1741,#1409,#1410);
#1118=AXIS2_PLACEMENT_3D('',#1743,#1412,#1413);
#1119=AXIS2_PLACEMENT_3D('',#1745,#1415,#1416);
#1120=AXIS2_PLACEMENT_3D('',#1747,#1418,#1419);
#1121=AXIS2_PLACEMENT_3D('',#1749,#1421,#1422);
#1122=AXIS2_PLACEMENT_3D('',#1751,#1424,#1425);
#1123=DIRECTION('',(0.,0.,1.));
#1124=DIRECTION('',(1.,0.,0.));
#1125=DIRECTION('',(0.,0.,1.));
#1126=DIRECTION('',(1.,0.,0.));
#1127=DIRECTION('',(-1.,0.,0.));
#1128=DIRECTION('',(0.,0.,1.));
#1129=DIRECTION('',(1.,0.,0.));
#1130=DIRECTION('',(0.,-1.,0.));
#1131=DIRECTION('',(0.,0.,1.));
#1132=DIRECTION('',(1.,0.,0.));
#1133=DIRECTION('',(-1.,0.,0.));
#1134=DIRECTION('',(0.,0.,1.));
#1135=DIRECTION('',(1.,0.,0.));
#1136=DIRECTION('',(0.,1.,0.));
#1137=DIRECTION('',(1.,0.,0.));
#1138=DIRECTION('',(0.,-1.,0.));
#1139=DIRECTION('',(0.,0.,1.));
#1140=DIRECTION('',(1.,0.,0.));
#1141=DIRECTION('',(-1.,0.,0.));
#1142=DIRECTION('',(0.,0.,1.));
#1143=DIRECTION('',(1.,0.,0.));
#1144=DIRECTION('',(0.,-1.,0.));
#1145=DIRECTION('',(0.,0.,1.));
#1146=DIRECTION('',(1.,0.,0.));
#1147=DIRECTION('',(-1.,0.,0.));
#1148=DIRECTION('',(1.52837802402192E-16,-1.,0.));
#1149=DIRECTION('',(0.,0.,1.));
#1150=DIRECTION('',(1.,0.,0.));
#1151=DIRECTION('',(-1.,0.,0.));
#1152=DIRECTION('',(1.41034428941204E-16,-1.,0.));
#1153=DIRECTION('',(0.,0.,1.));
#1154=DIRECTION('',(1.,0.,0.));
#1155=DIRECTION('',(0.,1.,0.));
#1156=DIRECTION('',(-1.,0.,0.));
#1157=DIRECTION('',(0.,0.,1.));
#1158=DIRECTION('',(1.,0.,0.));
#1159=DIRECTION('',(1.52837802402192E-16,-1.,0.));
#1160=DIRECTION('',(0.,0.,1.));
#1161=DIRECTION('',(1.,0.,0.));
#1162=DIRECTION('',(0.,-1.,0.));
#1163=DIRECTION('',(0.,0.,-1.));
#1164=DIRECTION('',(0.,0.,-1.));
#1165=DIRECTION('',(1.,0.,0.));
#1166=DIRECTION('',(0.,-1.,0.));
#1167=DIRECTION('',(0.,0.,-1.));
#1168=DIRECTION('',(0.,-1.,0.));
#1169=DIRECTION('',(0.,0.,-1.));
#1170=DIRECTION('',(0.,-1.,0.));
#1171=DIRECTION('',(0.,0.,-1.));
#1172=DIRECTION('',(1.,0.,0.));
#1173=DIRECTION('',(0.,0.,-1.));
#1174=DIRECTION('',(0.,0.,-1.));
#1175=DIRECTION('',(-1.,0.,0.));
#1176=DIRECTION('',(0.,0.,1.));
#1177=DIRECTION('',(1.,0.,0.));
#1178=DIRECTION('',(0.,0.,-1.));
#1179=DIRECTION('',(1.,0.,0.));
#1180=DIRECTION('',(0.,0.,-1.));
#1181=DIRECTION('',(0.,1.,0.));
#1182=DIRECTION('',(0.,0.,-1.));
#1183=DIRECTION('',(0.,0.,-1.));
#1184=DIRECTION('',(-1.,0.,0.));
#1185=DIRECTION('',(0.,0.,1.));
#1186=DIRECTION('',(1.,0.,0.));
#1187=DIRECTION('',(0.,0.,-1.));
#1188=DIRECTION('',(0.,-1.,0.));
#1189=DIRECTION('',(0.,0.,-1.));
#1190=DIRECTION('',(-1.,0.,0.));
#1191=DIRECTION('',(0.,0.,-1.));
#1192=DIRECTION('',(1.,0.,0.));
#1193=DIRECTION('',(0.,0.,-1.));
#1194=DIRECTION('',(0.,0.,-1.));
#1195=DIRECTION('',(0.,0.,-1.));
#1196=DIRECTION('',(0.,-1.,0.));
#1197=DIRECTION('',(0.,0.,-1.));
#1198=DIRECTION('',(0.,0.707106781186548,-0.707106781186548));
#1199=DIRECTION('',(0.,1.,0.));
#1200=DIRECTION('',(0.,0.,1.));
#1201=DIRECTION('',(0.,0.,-1.));
#1202=DIRECTION('',(-1.,0.,0.));
#1203=DIRECTION('',(0.,0.,-1.));
#1204=DIRECTION('',(1.,0.,0.));
#1205=DIRECTION('',(-1.,0.,0.));
#1206=DIRECTION('',(0.,0.,1.));
#1207=DIRECTION('',(0.,0.,-1.));
#1208=DIRECTION('',(0.,0.,-1.));
#1209=DIRECTION('',(0.,0.707106781186548,-0.707106781186548));
#1210=DIRECTION('',(0.,0.,-1.));
#1211=DIRECTION('',(0.,1.,0.));
#1212=DIRECTION('',(0.,-1.,0.));
#1213=DIRECTION('',(0.,0.,-1.));
#1214=DIRECTION('',(0.,0.,-1.));
#1215=DIRECTION('',(-1.,0.,0.));
#1216=DIRECTION('',(0.,0.,-1.));
#1217=DIRECTION('',(0.,0.,-1.));
#1218=DIRECTION('',(-1.,0.,0.));
#1219=DIRECTION('',(0.,0.,1.));
#1220=DIRECTION('',(1.,0.,0.));
#1221=DIRECTION('',(0.,0.,-1.));
#1222=DIRECTION('',(1.,0.,0.));
#1223=DIRECTION('',(0.,0.,-1.));
#1224=DIRECTION('',(0.,-1.,0.));
#1225=DIRECTION('',(0.,0.,-1.));
#1226=DIRECTION('',(0.,0.,-1.));
#1227=DIRECTION('',(-1.,0.,0.));
#1228=DIRECTION('',(0.,0.,1.));
#1229=DIRECTION('',(1.,0.,0.));
#1230=DIRECTION('',(0.,0.,1.));
#1231=DIRECTION('',(1.,0.,0.));
#1232=DIRECTION('',(-1.,0.,0.));
#1233=DIRECTION('',(-1.,0.,0.));
#1234=DIRECTION('',(0.,0.,1.));
#1235=DIRECTION('',(1.,0.,0.));
#1236=DIRECTION('',(0.,1.,0.));
#1237=DIRECTION('',(0.,0.,1.));
#1238=DIRECTION('',(1.,0.,0.));
#1239=DIRECTION('',(1.,0.,0.));
#1240=DIRECTION('',(0.,0.,1.));
#1241=DIRECTION('',(1.,0.,0.));
#1242=DIRECTION('',(0.,0.,1.));
#1243=DIRECTION('',(1.,0.,0.));
#1244=DIRECTION('',(1.,0.,0.));
#1245=DIRECTION('',(0.,0.,1.));
#1246=DIRECTION('',(1.,0.,0.));
#1247=DIRECTION('',(0.,0.,1.));
#1248=DIRECTION('',(1.,0.,0.));
#1249=DIRECTION('',(1.,0.,0.));
#1250=DIRECTION('',(0.,0.,1.));
#1251=DIRECTION('',(1.,0.,0.));
#1252=DIRECTION('',(0.,-1.,0.));
#1253=DIRECTION('',(0.,0.,1.));
#1254=DIRECTION('',(1.,0.,0.));
#1255=DIRECTION('',(0.,-1.,0.));
#1256=DIRECTION('',(0.,0.,-1.));
#1257=DIRECTION('',(0.,0.,-1.));
#1258=DIRECTION('',(-1.,0.,0.));
#1259=DIRECTION('',(0.,-1.,0.));
#1260=DIRECTION('',(0.,0.,-1.));
#1261=DIRECTION('',(1.,1.52837802402192E-16,0.));
#1262=DIRECTION('',(-1.52837802402192E-16,1.,0.));
#1263=DIRECTION('',(1.52837802402192E-16,-1.,0.));
#1264=DIRECTION('',(0.,0.,-1.));
#1265=DIRECTION('',(0.,0.,-1.));
#1266=DIRECTION('',(0.,0.,-1.));
#1267=DIRECTION('',(-1.,0.,0.));
#1268=DIRECTION('',(0.,0.,-1.));
#1269=DIRECTION('',(0.,0.,1.));
#1270=DIRECTION('',(1.,0.,0.));
#1271=DIRECTION('',(1.,1.52837802402192E-16,0.));
#1272=DIRECTION('',(-1.52837802402192E-16,1.,0.));
#1273=DIRECTION('',(0.,0.,-1.));
#1274=DIRECTION('',(1.52837802402192E-16,-1.,0.));
#1275=DIRECTION('',(0.,-1.,0.));
#1276=DIRECTION('',(0.,0.,-1.));
#1277=DIRECTION('',(-1.,0.,0.));
#1278=DIRECTION('',(0.,0.,-1.));
#1279=DIRECTION('',(0.,-1.,0.));
#1280=DIRECTION('',(0.,0.,-1.));
#1281=DIRECTION('',(0.,0.,1.));
#1282=DIRECTION('',(1.,0.,0.));
#1283=DIRECTION('',(0.,0.,1.));
#1284=DIRECTION('',(1.,0.,0.));
#1285=DIRECTION('',(0.,0.,1.));
#1286=DIRECTION('',(1.,0.,0.));
#1287=DIRECTION('',(0.,1.,0.));
#1288=DIRECTION('',(0.,0.,1.));
#1289=DIRECTION('',(1.,0.,0.));
#1290=DIRECTION('',(1.41034428941204E-16,-1.,0.));
#1291=DIRECTION('',(-1.41034428941204E-16,1.,0.));
#1292=DIRECTION('',(-1.,-1.41034428941204E-16,0.));
#1293=DIRECTION('',(0.,1.,0.));
#1294=DIRECTION('',(0.,0.,1.));
#1295=DIRECTION('',(0.,0.,1.));
#1296=DIRECTION('',(1.,0.,0.));
#1297=DIRECTION('',(0.,-1.,0.));
#1298=DIRECTION('',(0.,0.,-1.));
#1299=DIRECTION('',(0.,-1.,0.));
#1300=DIRECTION('',(0.,0.,-1.));
#1301=DIRECTION('',(0.,1.,0.));
#1302=DIRECTION('',(0.,0.,1.));
#1303=DIRECTION('',(-1.,0.,-8.67361737988403E-17));
#1304=DIRECTION('',(0.,0.,1.));
#1305=DIRECTION('',(1.,0.,0.));
#1306=DIRECTION('',(1.,0.,0.));
#1307=DIRECTION('',(0.,1.,0.));
#1308=DIRECTION('',(1.,0.,0.));
#1309=DIRECTION('',(0.,-1.,0.));
#1310=DIRECTION('',(6.1331736667335E-17,-0.707106781186548,-0.707106781186548));
#1311=DIRECTION('',(-6.1331736667335E-17,-0.707106781186548,0.707106781186548));
#1312=DIRECTION('',(0.577350269189626,0.577350269189626,-0.577350269189626));
#1313=DIRECTION('',(1.,4.33680868994202E-17,4.33680868994201E-17));
#1314=DIRECTION('',(0.577350269189626,-0.577350269189626,0.577350269189626));
#1315=DIRECTION('',(0.707106781186548,-0.707106781186548,0.));
#1316=DIRECTION('',(-0.707106781186548,-0.707106781186548,0.));
#1317=DIRECTION('',(0.707106781186548,-0.707106781186548,0.));
#1318=DIRECTION('',(-0.707106781186548,-0.707106781186548,0.));
#1319=DIRECTION('',(0.577350269189626,0.577350269189626,0.577350269189626));
#1320=DIRECTION('',(0.707106781186548,-0.707106781186548,0.));
#1321=DIRECTION('',(0.707106781186548,0.707106781186548,6.13317366673349E-17));
#1322=DIRECTION('',(0.,-0.707106781186548,0.707106781186548));
#1323=DIRECTION('',(0.,-0.707106781186548,-0.707106781186548));
#1324=DIRECTION('',(0.,-0.707106781186548,0.707106781186548));
#1325=DIRECTION('',(0.,0.707106781186548,0.707106781186548));
#1326=DIRECTION('',(0.577350269189626,-0.577350269189626,-0.577350269189626));
#1327=DIRECTION('',(1.,4.33680868994201E-17,4.33680868994201E-17));
#1328=DIRECTION('',(0.,-0.707106781186548,0.707106781186548));
#1329=DIRECTION('',(0.,-0.707106781186548,-0.707106781186548));
#1330=DIRECTION('',(-0.707106781186548,-0.707106781186548,0.));
#1331=DIRECTION('',(0.707106781186548,-0.707106781186548,0.));
#1332=DIRECTION('',(-0.707106781186548,-0.707106781186548,0.));
#1333=DIRECTION('',(-0.707106781186548,0.707106781186548,0.));
#1334=DIRECTION('',(-0.707106781186548,-0.707106781186548,0.));
#1335=DIRECTION('',(0.707106781186548,-0.707106781186548,6.13317366673349E-17));
#1336=DIRECTION('',(1.,4.33680868994202E-17,4.33680868994201E-17));
#1337=DIRECTION('',(-4.33680868994202E-17,1.,0.));
#1338=DIRECTION('',(0.,0.,-1.));
#1339=DIRECTION('',(-1.,0.,0.));
#1340=DIRECTION('',(0.,0.,-1.));
#1341=DIRECTION('',(0.,0.,1.));
#1342=DIRECTION('',(1.,0.,0.));
#1343=DIRECTION('',(0.,0.,1.));
#1344=DIRECTION('',(1.,0.,0.));
#1345=DIRECTION('',(0.,-1.,0.));
#1346=DIRECTION('',(0.,0.,-1.));
#1347=DIRECTION('',(0.,1.,0.));
#1348=DIRECTION('',(0.,0.,1.));
#1349=DIRECTION('',(1.,0.,0.));
#1350=DIRECTION('',(0.,0.,-1.));
#1351=DIRECTION('',(1.,0.,0.));
#1352=DIRECTION('',(0.,0.,-1.));
#1353=DIRECTION('',(0.,0.,-1.));
#1354=DIRECTION('',(-1.,0.,0.));
#1355=DIRECTION('',(0.,0.,1.));
#1356=DIRECTION('',(1.,0.,0.));
#1357=DIRECTION('',(0.,0.,-1.));
#1358=DIRECTION('',(0.,0.,1.));
#1359=DIRECTION('',(1.,0.,0.));
#1360=DIRECTION('',(1.,0.,0.));
#1361=DIRECTION('',(0.,0.,-1.));
#1362=DIRECTION('',(-1.,0.,0.));
#1363=DIRECTION('',(0.,0.,1.));
#1364=DIRECTION('',(0.,1.,0.));
#1365=DIRECTION('',(0.,0.,1.));
#1366=DIRECTION('',(0.,1.,0.));
#1367=DIRECTION('',(0.,0.,1.));
#1368=DIRECTION('',(0.,1.,0.));
#1369=DIRECTION('',(0.,0.,1.));
#1370=DIRECTION('',(0.,0.,-1.));
#1371=DIRECTION('',(-1.,0.,0.));
#1372=DIRECTION('',(0.,0.,1.));
#1373=DIRECTION('',(1.,0.,0.));
#1374=DIRECTION('',(0.,0.,-1.));
#1375=DIRECTION('',(-1.,0.,0.));
#1376=DIRECTION('',(0.,0.,1.));
#1377=DIRECTION('',(1.,0.,0.));
#1378=DIRECTION('',(0.,0.,-1.));
#1379=DIRECTION('',(-1.,0.,0.));
#1380=DIRECTION('',(0.,0.,1.));
#1381=DIRECTION('',(1.,0.,0.));
#1382=DIRECTION('',(0.,-0.707106781186547,-0.707106781186548));
#1383=DIRECTION('',(1.,0.,0.));
#1384=DIRECTION('',(0.,-0.707106781186548,0.707106781186547));
#1385=DIRECTION('',(0.,0.,1.));
#1386=DIRECTION('',(1.,0.,0.));
#1387=DIRECTION('',(-0.707106781186548,0.,0.707106781186547));
#1388=DIRECTION('',(0.707106781186547,0.,0.707106781186548));
#1389=DIRECTION('',(0.,-1.,0.));
#1390=DIRECTION('',(-0.707106781186548,0.,0.707106781186547));
#1391=DIRECTION('',(0.,0.,1.));
#1392=DIRECTION('',(1.,0.,0.));
#1393=DIRECTION('',(0.,0.707106781186548,0.707106781186547));
#1394=DIRECTION('',(0.,-0.707106781186547,0.707106781186548));
#1395=DIRECTION('',(-1.,0.,0.));
#1396=DIRECTION('',(0.,0.707106781186548,0.707106781186547));
#1397=DIRECTION('',(0.,0.,-1.));
#1398=DIRECTION('',(-1.,0.,0.));
#1399=DIRECTION('',(-0.707106781186548,0.,0.707106781186547));
#1400=DIRECTION('',(0.,0.,1.));
#1401=DIRECTION('',(1.,0.,0.));
#1402=DIRECTION('',(0.,0.707106781186548,0.707106781186547));
#1403=DIRECTION('',(0.,0.707106781186547,-0.707106781186548));
#1404=DIRECTION('',(-1.,0.,0.));
#1405=DIRECTION('',(0.,0.707106781186548,0.707106781186547));
#1406=DIRECTION('',(0.,0.,1.));
#1407=DIRECTION('',(1.,0.,0.));
#1408=DIRECTION('',(0.707106781186548,9.81307786677359E-15,0.707106781186547));
#1409=DIRECTION('',(0.,0.,-1.));
#1410=DIRECTION('',(-1.,0.,0.));
#1411=DIRECTION('',(0.,0.707106781186548,0.707106781186547));
#1412=DIRECTION('',(0.,-0.707106781186547,0.707106781186548));
#1413=DIRECTION('',(-1.,0.,0.));
#1414=DIRECTION('',(0.,0.707106781186548,0.707106781186547));
#1415=DIRECTION('',(0.,0.,1.));
#1416=DIRECTION('',(1.,0.,0.));
#1417=DIRECTION('',(0.707106781186548,0.,0.707106781186547));
#1418=DIRECTION('',(0.707106781186547,0.,-0.707106781186548));
#1419=DIRECTION('',(0.,1.,0.));
#1420=DIRECTION('',(0.707106781186548,0.,0.707106781186547));
#1421=DIRECTION('',(0.,0.,1.));
#1422=DIRECTION('',(1.,0.,0.));
#1423=DIRECTION('',(0.,-0.707106781186548,0.707106781186547));
#1424=DIRECTION('',(0.,-0.707106781186547,-0.707106781186548));
#1425=DIRECTION('',(1.,0.,0.));
#1426=CARTESIAN_POINT('',(0.,0.,0.));
#1427=CARTESIAN_POINT('',(0.,-0.00225,0.002));
#1428=CARTESIAN_POINT('',(-0.014,-0.06,0.002));
#1429=CARTESIAN_POINT('',(-0.014,-0.0607117183261901,0.002));
#1430=CARTESIAN_POINT('',(-0.0134173642468093,-0.0620561778659279,0.002));
#1431=CARTESIAN_POINT('',(-0.0118485583685003,-0.0634741916939711,0.002));
#1432=CARTESIAN_POINT('',(-0.0100631910268777,-0.0645128744792289,0.002));
#1433=CARTESIAN_POINT('',(-0.0074658598521215,-0.0655529175178428,0.002));
#1434=CARTESIAN_POINT('',(-0.00413590872306633,-0.0663028535997923,0.002));
#1435=CARTESIAN_POINT('',(-6.51576820429424E-6,-0.0665973356695453,0.002));
#1436=CARTESIAN_POINT('',(0.00412276593641101,-0.0663077993050737,0.002));
#1437=CARTESIAN_POINT('',(0.00750900522796327,-0.0655386380453097,0.002));
#1438=CARTESIAN_POINT('',(0.0100670186388229,-0.0645107265582378,0.002));
#1439=CARTESIAN_POINT('',(0.0118729660793658,-0.0634583627450482,0.002));
#1440=CARTESIAN_POINT('',(0.0134276431308547,-0.0620392423121578,0.002));
#1441=CARTESIAN_POINT('',(0.014,-0.0607056745376557,0.002));
#1442=CARTESIAN_POINT('',(0.014,-0.06,0.002));
#1443=CARTESIAN_POINT('',(-0.014,-0.06,0.002));
#1444=CARTESIAN_POINT('',(0.014,-0.06,0.002));
#1445=CARTESIAN_POINT('',(0.06,-0.06,0.002));
#1446=CARTESIAN_POINT('',(0.105,-0.06,0.002));
#1447=CARTESIAN_POINT('',(0.105,-0.055,0.002));
#1448=CARTESIAN_POINT('',(0.11,-0.055,0.002));
#1449=CARTESIAN_POINT('',(0.11,6.93889390390723E-18,0.002));
#1450=CARTESIAN_POINT('',(0.11,0.055,0.002));
#1451=CARTESIAN_POINT('',(0.105,0.055,0.002));
#1452=CARTESIAN_POINT('',(0.105,0.06,0.002));
#1453=CARTESIAN_POINT('',(0.0575,0.06,0.002));
#1454=CARTESIAN_POINT('',(0.011,0.06,0.002));
#1455=CARTESIAN_POINT('',(0.011,0.061,0.002));
#1456=CARTESIAN_POINT('',(0.01,0.061,0.002));
#1457=CARTESIAN_POINT('',(0.01,-0.00225,0.002));
#1458=CARTESIAN_POINT('',(0.01,0.0601,0.002));
#1459=CARTESIAN_POINT('',(-5.20417042793042E-18,0.0601,0.002));
#1460=CARTESIAN_POINT('',(-0.01,0.0601,0.002));
#1461=CARTESIAN_POINT('',(-0.01,-0.00225,0.002));
#1462=CARTESIAN_POINT('',(-0.01,0.061,0.002));
#1463=CARTESIAN_POINT('',(-0.011,0.061,0.002));
#1464=CARTESIAN_POINT('',(-0.011,0.06,0.002));
#1465=CARTESIAN_POINT('',(-0.0575,0.06,0.002));
#1466=CARTESIAN_POINT('',(-0.105,0.06,0.002));
#1467=CARTESIAN_POINT('',(-0.105,0.055,0.002));
#1468=CARTESIAN_POINT('',(-0.11,0.055,0.002));
#1469=CARTESIAN_POINT('',(-0.11,1.38777878078145E-17,0.002));
#1470=CARTESIAN_POINT('',(-0.11,-0.055,0.002));
#1471=CARTESIAN_POINT('',(-0.105,-0.055,0.002));
#1472=CARTESIAN_POINT('',(-0.105,-0.06,0.002));
#1473=CARTESIAN_POINT('',(-0.06,-0.06,0.002));
#1474=CARTESIAN_POINT('',(-0.0025,-0.0585812382075052,0.002));
#1475=CARTESIAN_POINT('',(-0.0025,-0.0571624764150104,0.002));
#1476=CARTESIAN_POINT('',(-0.0025,-0.059,0.002));
#1477=CARTESIAN_POINT('',(-0.0035,-0.059,0.002));
#1478=CARTESIAN_POINT('',(-0.0035,-0.06,0.002));
#1479=CARTESIAN_POINT('',(-0.004825,-0.06,0.002));
#1480=CARTESIAN_POINT('',(-0.00715,-0.06,0.002));
#1481=CARTESIAN_POINT('',(-0.00715,-0.056925,0.002));
#1482=CARTESIAN_POINT('',(-0.00715,-0.05385,0.002));
#1483=CARTESIAN_POINT('',(0.,-0.05385,0.002));
#1484=CARTESIAN_POINT('',(0.00715,-0.05385,0.002));
#1485=CARTESIAN_POINT('',(0.00715,-0.056925,0.002));
#1486=CARTESIAN_POINT('',(0.00715,-0.06,0.002));
#1487=CARTESIAN_POINT('',(0.004825,-0.06,0.002));
#1488=CARTESIAN_POINT('',(0.0035,-0.06,0.002));
#1489=CARTESIAN_POINT('',(0.0035,-0.059,0.002));
#1490=CARTESIAN_POINT('',(0.0025,-0.059,0.002));
#1491=CARTESIAN_POINT('',(0.0025,-0.0585812382075052,0.002));
#1492=CARTESIAN_POINT('',(0.0025,-0.0571624764150104,0.002));
#1493=CARTESIAN_POINT('',(-6.11732750408584E-18,-0.05385,0.002));
#1494=CARTESIAN_POINT('',(-0.06,-0.06,0.002));
#1495=CARTESIAN_POINT('',(-0.105,-0.06,0.002));
#1496=CARTESIAN_POINT('',(-0.105,-0.06,0.001));
#1497=CARTESIAN_POINT('',(-0.015,-0.06,0.001));
#1498=CARTESIAN_POINT('',(-0.015,-0.06,0.001));
#1499=CARTESIAN_POINT('',(-0.014,-0.06,0.001));
#1500=CARTESIAN_POINT('',(0.06,-0.06,0.002));
#1501=CARTESIAN_POINT('',(0.014,-0.06,0.001));
#1502=CARTESIAN_POINT('',(0.015,-0.06,0.001));
#1503=CARTESIAN_POINT('',(0.105,-0.06,0.001));
#1504=CARTESIAN_POINT('',(0.105,-0.06,0.001));
#1505=CARTESIAN_POINT('',(0.105,-0.06,0.002));
#1506=CARTESIAN_POINT('',(0.105,-0.055,0.002));
#1507=CARTESIAN_POINT('',(0.105,-0.055,0.001));
#1508=CARTESIAN_POINT('',(0.11,-0.055,0.001));
#1509=CARTESIAN_POINT('',(0.11,-0.055,0.002));
#1510=CARTESIAN_POINT('',(0.11,6.93889390390723E-18,0.002));
#1511=CARTESIAN_POINT('',(0.11,0.055,0.001));
#1512=CARTESIAN_POINT('',(0.11,0.055,0.001));
#1513=CARTESIAN_POINT('',(0.11,0.055,0.002));
#1514=CARTESIAN_POINT('',(0.105,0.055,0.002));
#1515=CARTESIAN_POINT('',(0.105,0.055,0.001));
#1516=CARTESIAN_POINT('',(0.105,0.06,0.001));
#1517=CARTESIAN_POINT('',(0.105,0.06,0.002));
#1518=CARTESIAN_POINT('',(0.0575,0.06,0.002));
#1519=CARTESIAN_POINT('',(0.0575,0.06,0.001));
#1520=CARTESIAN_POINT('',(0.011,0.06,0.001));
#1521=CARTESIAN_POINT('',(0.011,0.06,0.002));
#1522=CARTESIAN_POINT('',(0.01,0.0615,0.002));
#1523=CARTESIAN_POINT('',(0.01,0.0601,0.012));
#1524=CARTESIAN_POINT('',(0.01,0.0601,0.0069));
#1525=CARTESIAN_POINT('',(0.01,0.061,0.002));
#1526=CARTESIAN_POINT('',(0.01,0.061,0.01));
#1527=CARTESIAN_POINT('',(0.01,0.0615,0.01));
#1528=CARTESIAN_POINT('',(0.01,0.06,0.01));
#1529=CARTESIAN_POINT('',(0.01,0.06,0.012));
#1530=CARTESIAN_POINT('',(0.01,0.06,0.007));
#1531=CARTESIAN_POINT('',(0.01,0.06325,0.00375));
#1532=CARTESIAN_POINT('',(0.,0.063,0.002));
#1533=CARTESIAN_POINT('',(0.008,0.063,0.002));
#1534=CARTESIAN_POINT('',(0.008,0.063,0.01));
#1535=CARTESIAN_POINT('',(0.008,0.063,0.001));
#1536=CARTESIAN_POINT('',(-0.008,0.063,0.001));
#1537=CARTESIAN_POINT('',(-0.008,0.063,0.001));
#1538=CARTESIAN_POINT('',(-0.008,0.063,0.002));
#1539=CARTESIAN_POINT('',(-0.008,0.063,0.01));
#1540=CARTESIAN_POINT('',(0.,0.063,0.01));
#1541=CARTESIAN_POINT('',(-0.01,0.0615,0.002));
#1542=CARTESIAN_POINT('',(-0.01,0.061,0.002));
#1543=CARTESIAN_POINT('',(-0.01,0.061,0.01));
#1544=CARTESIAN_POINT('',(-0.01,0.0601,0.002));
#1545=CARTESIAN_POINT('',(-0.01,0.0601,0.0069));
#1546=CARTESIAN_POINT('',(-0.01,0.06,0.007));
#1547=CARTESIAN_POINT('',(-0.01,0.06,0.007));
#1548=CARTESIAN_POINT('',(-0.01,0.06,0.012));
#1549=CARTESIAN_POINT('',(-0.01,0.06,0.01));
#1550=CARTESIAN_POINT('',(-0.01,0.0615,0.01));
#1551=CARTESIAN_POINT('',(-0.0575,0.06,0.002));
#1552=CARTESIAN_POINT('',(-0.011,0.06,0.002));
#1553=CARTESIAN_POINT('',(-0.011,0.06,0.001));
#1554=CARTESIAN_POINT('',(-0.0575,0.06,0.001));
#1555=CARTESIAN_POINT('',(-0.105,0.06,0.001));
#1556=CARTESIAN_POINT('',(-0.105,0.06,0.002));
#1557=CARTESIAN_POINT('',(-0.105,0.055,0.002));
#1558=CARTESIAN_POINT('',(-0.105,0.055,0.001));
#1559=CARTESIAN_POINT('',(-0.11,0.055,0.001));
#1560=CARTESIAN_POINT('',(-0.11,0.055,0.002));
#1561=CARTESIAN_POINT('',(-0.11,1.38777878078145E-17,0.002));
#1562=CARTESIAN_POINT('',(-0.11,1.38777878078145E-17,0.001));
#1563=CARTESIAN_POINT('',(-0.11,-0.055,0.001));
#1564=CARTESIAN_POINT('',(-0.11,-0.055,0.002));
#1565=CARTESIAN_POINT('',(-0.105,-0.055,0.002));
#1566=CARTESIAN_POINT('',(-0.105,-0.055,0.001));
#1567=CARTESIAN_POINT('',(0.,-0.00225,0.));
#1568=CARTESIAN_POINT('',(0.015,-0.059,0.));
#1569=CARTESIAN_POINT('',(0.105,-0.059,0.));
#1570=CARTESIAN_POINT('',(0.0138182180346162,-0.059,0.));
#1571=CARTESIAN_POINT('',(0.0138182180346162,-0.059,0.));
#1572=CARTESIAN_POINT('',(0.0139471269325996,-0.0593544631025623,0.));
#1573=CARTESIAN_POINT('',(0.0140773046838884,-0.0601021834862104,0.));
#1574=CARTESIAN_POINT('',(0.0137977087992926,-0.061214101803355,0.));
#1575=CARTESIAN_POINT('',(0.0131967895634675,-0.0621588168234278,0.));
#1576=CARTESIAN_POINT('',(0.0121600992966917,-0.0632216425720846,0.));
#1577=CARTESIAN_POINT('',(0.0106211154267782,-0.0642370289249965,0.));
#1578=CARTESIAN_POINT('',(0.00859507969810585,-0.0651316724799197,0.));
#1579=CARTESIAN_POINT('',(0.00649154764051824,-0.0657674959724882,0.));
#1580=CARTESIAN_POINT('',(0.00365340253550728,-0.0663362928436349,0.));
#1581=CARTESIAN_POINT('',(4.82694776037047E-6,-0.0666088405682217,0.));
#1582=CARTESIAN_POINT('',(-0.00365263508846581,-0.06633718464994,0.));
#1583=CARTESIAN_POINT('',(-0.00651382309796831,-0.0657628977575146,0.));
#1584=CARTESIAN_POINT('',(-0.00863242808367581,-0.065117475908888,0.));
#1585=CARTESIAN_POINT('',(-0.0106332089248996,-0.0642301486317128,0.));
#1586=CARTESIAN_POINT('',(-0.0121807917058151,-0.063205878729112,0.));
#1587=CARTESIAN_POINT('',(-0.0132115198364648,-0.0621401662342254,0.));
#1588=CARTESIAN_POINT('',(-0.0138046381298908,-0.0611969755181522,0.));
#1589=CARTESIAN_POINT('',(-0.0140763694854234,-0.0600925281462822,0.));
#1590=CARTESIAN_POINT('',(-0.0139459834477161,-0.0593513188417248,0.));
#1591=CARTESIAN_POINT('',(-0.0138182180346162,-0.059,0.));
#1592=CARTESIAN_POINT('',(-0.0138182180346162,-0.059,0.));
#1593=CARTESIAN_POINT('',(-0.105,-0.059,0.));
#1594=CARTESIAN_POINT('',(-0.105,-0.059,0.));
#1595=CARTESIAN_POINT('',(-0.105,-0.055,0.));
#1596=CARTESIAN_POINT('',(-0.109,-0.055,0.));
#1597=CARTESIAN_POINT('',(-0.109,-0.00225,0.));
#1598=CARTESIAN_POINT('',(-0.109,0.055,0.));
#1599=CARTESIAN_POINT('',(-0.105,0.055,0.));
#1600=CARTESIAN_POINT('',(-0.105,0.059,0.));
#1601=CARTESIAN_POINT('',(0.,0.059,0.));
#1602=CARTESIAN_POINT('',(-0.011,0.059,0.));
#1603=CARTESIAN_POINT('',(-0.011,0.061,0.));
#1604=CARTESIAN_POINT('',(-0.009,0.061,0.));
#1605=CARTESIAN_POINT('',(-0.008,0.061,0.));
#1606=CARTESIAN_POINT('',(-0.008,0.062,0.));
#1607=CARTESIAN_POINT('',(0.008,0.062,0.));
#1608=CARTESIAN_POINT('',(0.008,0.062,0.));
#1609=CARTESIAN_POINT('',(0.008,0.061,0.));
#1610=CARTESIAN_POINT('',(0.009,0.061,0.));
#1611=CARTESIAN_POINT('',(0.011,0.061,0.));
#1612=CARTESIAN_POINT('',(0.011,0.059,0.));
#1613=CARTESIAN_POINT('',(0.,0.059,0.));
#1614=CARTESIAN_POINT('',(0.105,0.059,0.));
#1615=CARTESIAN_POINT('',(0.105,0.055,0.));
#1616=CARTESIAN_POINT('',(0.109,0.055,0.));
#1617=CARTESIAN_POINT('',(0.109,-0.055,0.));
#1618=CARTESIAN_POINT('',(0.109,-0.055,0.));
#1619=CARTESIAN_POINT('',(0.105,-0.055,0.));
#1620=CARTESIAN_POINT('',(-0.004825,-0.06,0.004));
#1621=CARTESIAN_POINT('',(-0.0035,-0.06,0.004));
#1622=CARTESIAN_POINT('',(-0.0035,-0.06,0.004));
#1623=CARTESIAN_POINT('',(-0.004825,-0.06,0.004));
#1624=CARTESIAN_POINT('',(-0.00515,-0.06,0.004));
#1625=CARTESIAN_POINT('',(-0.00515,-0.06,0.002));
#1626=CARTESIAN_POINT('',(-0.0025,-0.0585812382075052,0.004));
#1627=CARTESIAN_POINT('',(-0.0025,-0.0585812382075052,0.004));
#1628=CARTESIAN_POINT('',(-0.0025,-0.0571624764150104,0.004));
#1629=CARTESIAN_POINT('',(-0.0025,-0.059,0.004));
#1630=CARTESIAN_POINT('',(-0.0025,-0.059,0.004));
#1631=CARTESIAN_POINT('',(-0.0025,-0.0571624764150104,0.004));
#1632=CARTESIAN_POINT('',(-6.11732750408584E-18,-0.05385,0.004));
#1633=CARTESIAN_POINT('',(0.0025,-0.0571624764150104,0.004));
#1634=CARTESIAN_POINT('',(0.0025,-0.0571624764150104,0.004));
#1635=CARTESIAN_POINT('',(-6.11732750408584E-18,-0.05385,0.004));
#1636=CARTESIAN_POINT('',(0.0025,-0.0585812382075052,0.004));
#1637=CARTESIAN_POINT('',(0.0025,-0.059,0.004));
#1638=CARTESIAN_POINT('',(0.0025,-0.059,0.004));
#1639=CARTESIAN_POINT('',(0.0025,-0.0585812382075052,0.004));
#1640=CARTESIAN_POINT('',(0.004825,-0.06,0.004));
#1641=CARTESIAN_POINT('',(0.004825,-0.06,0.004));
#1642=CARTESIAN_POINT('',(0.00515,-0.06,0.004));
#1643=CARTESIAN_POINT('',(0.0035,-0.06,0.004));
#1644=CARTESIAN_POINT('',(0.0035,-0.06,0.002));
#1645=CARTESIAN_POINT('',(0.00515,-0.06,0.002));
#1646=CARTESIAN_POINT('',(0.,-0.00225,0.004));
#1647=CARTESIAN_POINT('',(-0.0035,-0.059,0.004));
#1648=CARTESIAN_POINT('',(0.0035,-0.059,0.004));
#1649=CARTESIAN_POINT('',(0.00515,-0.05385,0.004));
#1650=CARTESIAN_POINT('',(0.00515,-0.05385,0.004));
#1651=CARTESIAN_POINT('',(0.,-0.05385,0.004));
#1652=CARTESIAN_POINT('',(-0.00515,-0.05385,0.004));
#1653=CARTESIAN_POINT('',(-0.00515,-0.06,0.004));
#1654=CARTESIAN_POINT('',(-0.00515,-0.00225,0.002));
#1655=CARTESIAN_POINT('',(-0.00515,-0.05385,0.002));
#1656=CARTESIAN_POINT('',(0.,-0.05385,0.002));
#1657=CARTESIAN_POINT('',(0.00515,-0.05385,0.002));
#1658=CARTESIAN_POINT('',(0.00515,-0.00225,0.002));
#1659=CARTESIAN_POINT('',(-5.20417042793042E-18,0.0601,0.012));
#1660=CARTESIAN_POINT('',(-4.76181594155634E-18,0.0601,0.0069));
#1661=CARTESIAN_POINT('',(0.,-0.00225,0.012));
#1662=CARTESIAN_POINT('',(0.,0.061,0.012));
#1663=CARTESIAN_POINT('',(0.008,0.061,0.012));
#1664=CARTESIAN_POINT('',(-0.008,0.061,0.012));
#1665=CARTESIAN_POINT('',(-0.008,-0.00225,0.012));
#1666=CARTESIAN_POINT('',(-0.008,0.06,0.012));
#1667=CARTESIAN_POINT('',(-5.20417042793042E-18,0.06,0.012));
#1668=CARTESIAN_POINT('',(0.008,0.06,0.012));
#1669=CARTESIAN_POINT('',(0.008,-0.00225,0.012));
#1670=CARTESIAN_POINT('',(-4.77048955893622E-18,0.06,0.007));
#1671=CARTESIAN_POINT('',(0.00833333333333333,0.0583333333333333,0.00866666666666667));
#1672=CARTESIAN_POINT('',(0.00778284271247461,0.0577828427124746,0.00921715728752539));
#1673=CARTESIAN_POINT('',(-4.77048955893622E-18,0.0577828427124746,0.00921715728752538));
#1674=CARTESIAN_POINT('',(-0.00778284271247462,0.0577828427124746,0.00921715728752539));
#1675=CARTESIAN_POINT('',(-0.00833333333333334,0.0583333333333333,0.00866666666666667));
#1676=CARTESIAN_POINT('',(0.01,0.06,0.012));
#1677=CARTESIAN_POINT('',(0.008,0.058,0.01));
#1678=CARTESIAN_POINT('',(0.00941421356237309,0.0594142135623731,0.0114142135623731));
#1679=CARTESIAN_POINT('',(0.00666666666666666,0.0566666666666667,0.00866666666666667));
#1680=CARTESIAN_POINT('',(0.00778284271247461,0.0577828427124746,0.00978284271247462));
#1681=CARTESIAN_POINT('',(0.00806568542494923,0.0580656854249492,0.0095));
#1682=CARTESIAN_POINT('',(-5.20417042793042E-18,0.06,0.012));
#1683=CARTESIAN_POINT('',(-0.008,0.058,0.01));
#1684=CARTESIAN_POINT('',(-0.0094142135623731,0.0594142135623731,0.0114142135623731));
#1685=CARTESIAN_POINT('',(-0.00666666666666667,0.0566666666666667,0.00866666666666667));
#1686=CARTESIAN_POINT('',(-0.00778284271247462,0.0577828427124746,0.00978284271247462));
#1687=CARTESIAN_POINT('',(-5.01186268810025E-18,0.0577828427124746,0.00978284271247462));
#1688=CARTESIAN_POINT('',(0.008,0.058,0.01));
#1689=CARTESIAN_POINT('',(-0.01,0.06,0.012));
#1690=CARTESIAN_POINT('',(-0.008,0.058,0.01));
#1691=CARTESIAN_POINT('',(-0.00806568542494924,0.0580656854249492,0.0095));
#1692=CARTESIAN_POINT('',(-5.01186268810025E-18,0.0580656854249492,0.0095));
#1693=CARTESIAN_POINT('',(0.008,0.061,0.002));
#1694=CARTESIAN_POINT('',(0.01,0.061,0.002));
#1695=CARTESIAN_POINT('',(0.01,0.061,0.001));
#1696=CARTESIAN_POINT('',(0.008,0.061,0.001));
#1697=CARTESIAN_POINT('',(0.008,0.061,0.01));
#1698=CARTESIAN_POINT('',(0.008,0.0615,0.01));
#1699=CARTESIAN_POINT('',(0.008,0.061,0.01));
#1700=CARTESIAN_POINT('',(0.008,0.061,0.01));
#1701=CARTESIAN_POINT('',(0.008,0.061,0.01));
#1702=CARTESIAN_POINT('',(-0.008,0.061,0.002));
#1703=CARTESIAN_POINT('',(-0.008,0.061,0.001));
#1704=CARTESIAN_POINT('',(-0.01,0.061,0.001));
#1705=CARTESIAN_POINT('',(-0.01,0.061,0.002));
#1706=CARTESIAN_POINT('',(-0.008,0.061,0.01));
#1707=CARTESIAN_POINT('',(0.,0.061,0.01));
#1708=CARTESIAN_POINT('',(-0.008,0.061,0.01));
#1709=CARTESIAN_POINT('',(-0.008,0.061,0.01));
#1710=CARTESIAN_POINT('',(-0.008,0.061,0.01));
#1711=CARTESIAN_POINT('',(-0.008,0.0615,0.01));
#1712=CARTESIAN_POINT('',(-0.0035,-0.059,0.004));
#1713=CARTESIAN_POINT('',(0.0035,-0.059,0.004));
#1714=CARTESIAN_POINT('',(-0.011,0.061,0.002));
#1715=CARTESIAN_POINT('',(-0.011,0.061,0.001));
#1716=CARTESIAN_POINT('',(0.011,0.061,0.002));
#1717=CARTESIAN_POINT('',(0.011,0.061,0.001));
#1718=CARTESIAN_POINT('',(0.,-0.059,0.));
#1719=CARTESIAN_POINT('',(-0.0138182180346162,-0.059,0.));
#1720=CARTESIAN_POINT('',(-0.014161043069693,-0.059,4.16294645550281E-18));
#1721=CARTESIAN_POINT('',(-0.0147818714516582,-0.0592863087572816,0.000286308757281556));
#1722=CARTESIAN_POINT('',(-0.015,-0.0597590135682904,0.00075901356829045));
#1723=CARTESIAN_POINT('',(-0.015,-0.06,0.001));
#1724=CARTESIAN_POINT('',(-0.105,-0.059,0.));
#1725=CARTESIAN_POINT('',(-0.105,-0.055,0.001));
#1726=CARTESIAN_POINT('',(-0.109,-0.055,0.));
#1727=CARTESIAN_POINT('',(-0.11,1.38777878078145E-17,0.001));
#1728=CARTESIAN_POINT('',(-0.109,0.055,0.));
#1729=CARTESIAN_POINT('',(-0.105,0.055,0.001));
#1730=CARTESIAN_POINT('',(-0.105,0.059,0.));
#1731=CARTESIAN_POINT('',(-0.0575,0.06,0.001));
#1732=CARTESIAN_POINT('',(-0.011,0.059,0.));
#1733=CARTESIAN_POINT('',(-0.011,0.061,0.));
#1734=CARTESIAN_POINT('',(-0.009,0.061,0.));
#1735=CARTESIAN_POINT('',(-0.008,0.061,0.));
#1736=CARTESIAN_POINT('',(-0.008,0.062,0.));
#1737=CARTESIAN_POINT('',(0.,0.062,0.));
#1738=CARTESIAN_POINT('',(0.008,0.062,0.));
#1739=CARTESIAN_POINT('',(0.008,0.061,0.));
#1740=CARTESIAN_POINT('',(0.009,0.061,0.));
#1741=CARTESIAN_POINT('',(0.011,0.061,0.));
#1742=CARTESIAN_POINT('',(0.011,0.059,0.));
#1743=CARTESIAN_POINT('',(0.0575,0.06,0.001));
#1744=CARTESIAN_POINT('',(0.105,0.059,0.));
#1745=CARTESIAN_POINT('',(0.105,0.055,0.001));
#1746=CARTESIAN_POINT('',(0.109,0.055,0.));
#1747=CARTESIAN_POINT('',(0.109,-0.00225,0.));
#1748=CARTESIAN_POINT('',(0.109,-0.055,0.));
#1749=CARTESIAN_POINT('',(0.105,-0.055,0.001));
#1750=CARTESIAN_POINT('',(0.105,-0.059,0.));
#1751=CARTESIAN_POINT('',(0.,-0.059,0.));
#1752=CARTESIAN_POINT('',(0.015,-0.06,0.001));
#1753=CARTESIAN_POINT('',(0.015,-0.0597588138650178,0.000758813865017771));
#1754=CARTESIAN_POINT('',(0.0147824763873921,-0.0592871079696371,0.000287107969637121));
#1755=CARTESIAN_POINT('',(0.0141613757026549,-0.059,4.76716228320417E-18));
#1756=CARTESIAN_POINT('',(0.0138182180346162,-0.059,4.89298153835393E-21));
#1757=CARTESIAN_POINT('',(0.014,-0.06,0.002));
#1758=CARTESIAN_POINT('',(0.015,-0.06,0.002));
#1759=CARTESIAN_POINT('',(0.015,-0.06,0.001));
#1760=CARTESIAN_POINT('',(0.0140000000053637,-0.0603500263779005,0.002));
#1761=CARTESIAN_POINT('',(0.0150000000072892,-0.0604773087143133,0.00199999999999979));
#1762=CARTESIAN_POINT('',(0.015,-0.0604773087143573,0.001));
#1763=CARTESIAN_POINT('',(0.0138606112142001,-0.0610471058856904,0.002));
#1764=CARTESIAN_POINT('',(0.0148065334344242,-0.0614214775336902,0.0020000000000001));
#1765=CARTESIAN_POINT('',(0.0148065334377205,-0.0614214775336703,0.001));
#1766=CARTESIAN_POINT('',(0.0131667444957301,-0.0622705767218315,0.002));
#1767=CARTESIAN_POINT('',(0.0139324966290252,-0.0629404960495856,0.00199999999999994));
#1768=CARTESIAN_POINT('',(0.0139324966271221,-0.062940496049597,0.001));
#1769=CARTESIAN_POINT('',(0.0118740658919269,-0.0634598973778128,0.002));
#1770=CARTESIAN_POINT('',(0.0124570037371062,-0.0642796951035974,0.00200000000000002));
#1771=CARTESIAN_POINT('',(0.0124570037377527,-0.0642796951035935,0.001));
#1772=CARTESIAN_POINT('',(0.0100658970216135,-0.0645104414014991,0.002));
#1773=CARTESIAN_POINT('',(0.0104990823954062,-0.0654156943745248,0.002));
#1774=CARTESIAN_POINT('',(0.010499082395233,-0.0654156943745259,0.001));
#1775=CARTESIAN_POINT('',(0.0081517654995022,-0.0652813296037116,0.002));
#1776=CARTESIAN_POINT('',(0.00847163678967401,-0.0662306844428657,0.002));
#1777=CARTESIAN_POINT('',(0.00847163678972035,-0.0662306844428654,0.001));
#1778=CARTESIAN_POINT('',(0.00614125685388099,-0.0658483697605941,0.002));
#1779=CARTESIAN_POINT('',(0.00636726622082689,-0.0668238591264137,0.002));
#1780=CARTESIAN_POINT('',(0.00636726622081474,-0.0668238591264138,0.001));
#1781=CARTESIAN_POINT('',(0.0034411973588896,-0.0663551007712987,0.002));
#1782=CARTESIAN_POINT('',(0.0035596920860221,-0.067350409788394,0.002));
#1783=CARTESIAN_POINT('',(0.00355969208602915,-0.067350409788394,0.001));
#1784=CARTESIAN_POINT('',(-9.83990700893935E-6,-0.0665970388905512,0.002));
#1785=CARTESIAN_POINT('',(-1.01771270597947E-5,-0.0676001690301082,0.002));
#1786=CARTESIAN_POINT('',(-1.01771270625108E-5,-0.0676001690301082,0.001));
#1787=CARTESIAN_POINT('',(-0.00344981069905943,-0.0663537775428048,0.002));
#1788=CARTESIAN_POINT('',(-0.00356860869932518,-0.0673490779341335,0.002));
#1789=CARTESIAN_POINT('',(-0.00356860869932408,-0.0673490779341335,0.001));
#1790=CARTESIAN_POINT('',(-0.00613381891926741,-0.0658489742587162,0.002));
#1791=CARTESIAN_POINT('',(-0.00635960351280676,-0.0668244116235705,0.002));
#1792=CARTESIAN_POINT('',(-0.00635960351280819,-0.0668244116235704,0.001));
#1793=CARTESIAN_POINT('',(-0.00811736500862225,-0.0652936979432269,0.002));
#1794=CARTESIAN_POINT('',(-0.00843539043598532,-0.0662438829298948,0.002));
#1795=CARTESIAN_POINT('',(-0.00843539043598005,-0.066243882929895,0.001));
#1796=CARTESIAN_POINT('',(-0.0100655994282793,-0.0645098762227261,0.002));
#1797=CARTESIAN_POINT('',(-0.0104987289416978,-0.0654144715625896,0.002));
#1798=CARTESIAN_POINT('',(-0.0104987289417174,-0.0654144715625892,0.001));
#1799=CARTESIAN_POINT('',(-0.0115512405898552,-0.0636514179428464,0.002));
#1800=CARTESIAN_POINT('',(-0.0121073217549868,-0.0644886137437369,0.002));
#1801=CARTESIAN_POINT('',(-0.012107321754929,-0.0644886137437379,0.001));
#1802=CARTESIAN_POINT('',(-0.0126377814643572,-0.062754159117241,0.002));
#1803=CARTESIAN_POINT('',(-0.0133283174325409,-0.0634825516772081,0.00200000000000001));
#1804=CARTESIAN_POINT('',(-0.013328317432641,-0.0634825516772065,0.001));
#1805=CARTESIAN_POINT('',(-0.0133305026869876,-0.0619790092665965,0.002));
#1806=CARTESIAN_POINT('',(-0.0141393046684114,-0.0625785296006427,0.00199999999999998));
#1807=CARTESIAN_POINT('',(-0.0141393046680294,-0.0625785296006491,0.001));
#1808=CARTESIAN_POINT('',(-0.013858618223549,-0.0610555832719489,0.002));
#1809=CARTESIAN_POINT('',(-0.0148036807479262,-0.0614327139248113,0.00200000000000007));
#1810=CARTESIAN_POINT('',(-0.0148036807493541,-0.0614327139247876,0.001));
#1811=CARTESIAN_POINT('',(-0.0140000000022765,-0.0603504177128483,0.002));
#1812=CARTESIAN_POINT('',(-0.0150000000030772,-0.0604778423528846,0.00199999999999984));
#1813=CARTESIAN_POINT('',(-0.015,-0.0604778423529357,0.001));
#1814=CARTESIAN_POINT('',(-0.014,-0.06,0.002));
#1815=CARTESIAN_POINT('',(-0.015,-0.06,0.002));
#1816=CARTESIAN_POINT('',(-0.015,-0.06,0.001));
#1817=CARTESIAN_POINT('',(0.015,-0.06,0.001));
#1818=CARTESIAN_POINT('',(0.015,-0.0607708115067902,0.001));
#1819=CARTESIAN_POINT('',(0.0144979776199407,-0.0622636337651774,0.001));
#1820=CARTESIAN_POINT('',(0.0129073136356157,-0.0639415960103596,0.001));
#1821=CARTESIAN_POINT('',(0.0109783870037494,-0.0651794818271775,0.001));
#1822=CARTESIAN_POINT('',(0.00821229978292771,-0.066383386905472,0.001));
#1823=CARTESIAN_POINT('',(0.00451241076418146,-0.0672778488343217,0.001));
#1824=CARTESIAN_POINT('',(-7.49367440224038E-6,-0.0676122504259751,0.001));
#1825=CARTESIAN_POINT('',(-0.00452192034941683,-0.0672731451311983,0.001));
#1826=CARTESIAN_POINT('',(-0.00817016456679753,-0.0663982084029704,0.001));
#1827=CARTESIAN_POINT('',(-0.0109728057600153,-0.0651829222571675,0.001));
#1828=CARTESIAN_POINT('',(-0.012884389673119,-0.0639576260966139,0.001));
#1829=CARTESIAN_POINT('',(-0.0144865289129249,-0.0622861356488041,0.001));
#1830=CARTESIAN_POINT('',(-0.015,-0.0607767864541159,0.001));
#1831=CARTESIAN_POINT('',(-0.015,-0.06,0.001));
#1832=CARTESIAN_POINT('',(-0.0137393815568672,-0.0588027611051655,0.));
#1833=CARTESIAN_POINT('',(-0.0146561142275034,-0.0584032599029294,0.));
#1834=CARTESIAN_POINT('',(-0.0146561142275034,-0.0584032599029294,0.001));
#1835=CARTESIAN_POINT('',(-0.0138881468331244,-0.0591441317310372,0.));
#1836=CARTESIAN_POINT('',(-0.0148468998718204,-0.0588410543529708,-2.8261275599279E-16));
#1837=CARTESIAN_POINT('',(-0.0148468998497227,-0.0588410543626134,0.001));
#1838=CARTESIAN_POINT('',(-0.0140782205505035,-0.0598867275487887,0.));
#1839=CARTESIAN_POINT('',(-0.0151082877054839,-0.0598423329844295,1.30758403705817E-16));
#1840=CARTESIAN_POINT('',(-0.0151082877157394,-0.0598423329799543,0.001));
#1841=CARTESIAN_POINT('',(-0.0138807680783953,-0.061019260116706,0.));
#1842=CARTESIAN_POINT('',(-0.0148325949413631,-0.0613890919728667,-3.50363215881549E-17));
#1843=CARTESIAN_POINT('',(-0.0148325949386152,-0.0613890919740658,0.001));
#1844=CARTESIAN_POINT('',(-0.0133202326326084,-0.0620025430240709,0.));
#1845=CARTESIAN_POINT('',(-0.0141252534364451,-0.0626080449285969,9.38688264680269E-18));
#1846=CARTESIAN_POINT('',(-0.0141252534371813,-0.0626080449282756,0.001));
#1847=CARTESIAN_POINT('',(-0.012556705977072,-0.0628345232087022,0.));
#1848=CARTESIAN_POINT('',(-0.0132350460802341,-0.0635746906960797,-2.51120899905582E-18));
#1849=CARTESIAN_POINT('',(-0.0132350460800372,-0.0635746906961656,0.001));
#1850=CARTESIAN_POINT('',(-0.0116863263775906,-0.0635285062687435,0.));
#1851=CARTESIAN_POINT('',(-0.0122610214586438,-0.0643494435337663,6.57953349420587E-19));
#1852=CARTESIAN_POINT('',(-0.0122610214586954,-0.0643494435337437,0.001));
#1853=CARTESIAN_POINT('',(-0.0104126503896206,-0.0643230311744586,0.));
#1854=CARTESIAN_POINT('',(-0.0108721277106307,-0.0652149094660154,-3.80123647975582E-19));
#1855=CARTESIAN_POINT('',(-0.0108721277106009,-0.0652149094660284,0.001));
#1856=CARTESIAN_POINT('',(-0.00873266014909152,-0.0650809254116158,0.));
#1857=CARTESIAN_POINT('',(-0.00908309756550036,-0.0660199904196871,1.313460846773E-19));
#1858=CARTESIAN_POINT('',(-0.00908309756551048,-0.0660199904196827,0.001));
#1859=CARTESIAN_POINT('',(-0.00659124098491323,-0.0657445751153811,0.));
#1860=CARTESIAN_POINT('',(-0.00683634055743669,-0.0667157799610816,-4.29667442030423E-20));
#1861=CARTESIAN_POINT('',(-0.006836340557434,-0.0667157799610828,0.001));
#1862=CARTESIAN_POINT('',(-0.00369603734598237,-0.0663333378166556,0.));
#1863=CARTESIAN_POINT('',(-0.00382325255348815,-0.0673280003971648,6.83501042475058E-20));
#1864=CARTESIAN_POINT('',(-0.00382325255348989,-0.0673280003971643,0.001));
#1865=CARTESIAN_POINT('',(5.11086519450526E-6,-0.0666114711454014,0.));
#1866=CARTESIAN_POINT('',(5.2733726587158E-6,-0.067615026812135,-4.00317217212341E-19));
#1867=CARTESIAN_POINT('',(5.27337266096362E-6,-0.0676150268121345,0.001));
#1868=CARTESIAN_POINT('',(0.00369785800651568,-0.0663322477325395,0.));
#1869=CARTESIAN_POINT('',(0.00382517718323191,-0.0673269181168433,1.13260154738952E-18));
#1870=CARTESIAN_POINT('',(0.00382517718322691,-0.0673269181168454,0.001));
#1871=CARTESIAN_POINT('',(0.00656828639418248,-0.065749356985734,0.));
#1872=CARTESIAN_POINT('',(0.00681245361875869,-0.0667206565561077,-1.95861934185866E-18));
#1873=CARTESIAN_POINT('',(0.00681245361876724,-0.0667206565561041,0.001));
#1874=CARTESIAN_POINT('',(0.00869766002254314,-0.0650949224877835,0.));
#1875=CARTESIAN_POINT('',(0.00904609780637258,-0.0660350816979369,6.17363843537459E-18));
#1876=CARTESIAN_POINT('',(0.00904609780633999,-0.0660350816979509,0.001));
#1877=CARTESIAN_POINT('',(0.010737404926184,-0.0641765890612014,0.));
#1878=CARTESIAN_POINT('',(0.011217719656245,-0.0650583046323573,-2.27359343996397E-17));
#1879=CARTESIAN_POINT('',(0.0112177196563668,-0.0650583046323047,0.001));
#1880=CARTESIAN_POINT('',(0.0122879487420406,-0.0631215467870928,0.));
#1881=CARTESIAN_POINT('',(0.0129224802542839,-0.0639068996695736,6.68524269027129E-17));
#1882=CARTESIAN_POINT('',(0.0129224802539254,-0.0639068996697283,0.001));
#1883=CARTESIAN_POINT('',(0.0133044409245604,-0.0620236876782782,0.));
#1884=CARTESIAN_POINT('',(0.0141062256168058,-0.0626333416653007,-1.15787181544956E-16));
#1885=CARTESIAN_POINT('',(0.0141062256174266,-0.0626333416650328,0.001));
#1886=CARTESIAN_POINT('',(0.0138759761820053,-0.0610349769368671,0.));
#1887=CARTESIAN_POINT('',(0.0148259215768936,-0.0614099243042995,4.09430136214464E-16));
#1888=CARTESIAN_POINT('',(0.0148259215745237,-0.0614099243053224,0.001));
#1889=CARTESIAN_POINT('',(0.0140794981619985,-0.0598951372496901,0.));
#1890=CARTESIAN_POINT('',(0.0151101367608265,-0.0598540913116203,-1.5219333633129E-15));
#1891=CARTESIAN_POINT('',(0.015110136769685,-0.059854091307797,0.001));
#1892=CARTESIAN_POINT('',(0.0138896252993118,-0.0591468286631199,0.));
#1893=CARTESIAN_POINT('',(0.0148487582185126,-0.0588444266620162,3.27909178532511E-15));
#1894=CARTESIAN_POINT('',(0.0148487581994227,-0.0588444266702554,0.001));
#1895=CARTESIAN_POINT('',(0.0137383368109429,-0.0588003661467136,0.));
#1896=CARTESIAN_POINT('',(0.0146547745125477,-0.0584001887621986,0.));
#1897=CARTESIAN_POINT('',(0.0146547745125477,-0.0584001887621986,0.001));
#1898=MECHANICAL_DESIGN_GEOMETRIC_PRESENTATION_REPRESENTATION('',(#1006),
#1899);
#1899=(
GEOMETRIC_REPRESENTATION_CONTEXT(3)
GLOBAL_UNCERTAINTY_ASSIGNED_CONTEXT((#1900))
GLOBAL_UNIT_ASSIGNED_CONTEXT((#1903,#1902,#1901))
REPRESENTATION_CONTEXT('Electronics Casing Top',
'TOP_LEVEL_ASSEMBLY_PART')
);
#1900=UNCERTAINTY_MEASURE_WITH_UNIT(LENGTH_MEASURE(2.E-5),#1903,
'DISTANCE_ACCURACY_VALUE','Maximum Tolerance applied to model');
#1901=(
NAMED_UNIT(*)
SI_UNIT($,.STERADIAN.)
SOLID_ANGLE_UNIT()
);
#1902=(
NAMED_UNIT(*)
PLANE_ANGLE_UNIT()
SI_UNIT($,.RADIAN.)
);
#1903=(
LENGTH_UNIT()
NAMED_UNIT(*)
SI_UNIT($,.METRE.)
);
#1904=PRODUCT_DEFINITION_SHAPE('','',#1905);
#1905=PRODUCT_DEFINITION('','',#1907,#1906);
#1906=PRODUCT_DEFINITION_CONTEXT('',#1913,'design');
#1907=PRODUCT_DEFINITION_FORMATION_WITH_SPECIFIED_SOURCE('','',#1909,
 .NOT_KNOWN.);
#1908=PRODUCT_RELATED_PRODUCT_CATEGORY('','',(#1909));
#1909=PRODUCT('Electronics Casing Top','Electronics Casing Top',
'Electronics Casing Top',(#1911));
#1910=PRODUCT_CATEGORY('','');
#1911=PRODUCT_CONTEXT('',#1913,'mechanical');
#1912=APPLICATION_PROTOCOL_DEFINITION('international standard',
'ap242_managed_model_based_3d_engineering',2020,#1913);
#1913=APPLICATION_CONTEXT('managed model based 3d engineering');
ENDSEC;
END-ISO-10303-21;
