<?xml version="1.0" encoding="UTF-8" standalone="no"?>
<svg
   width="13.815in"
   height="13.815in"
   viewBox="0 0 350.90099 350.90099"
   version="1.1"
   id="svg8"
   inkscape:version="1.2.2 (732a01da63, 2022-12-09)"
   sodipodi:docname="prometheus1.0_baseplate_v1.svg"
   xmlns:inkscape="http://www.inkscape.org/namespaces/inkscape"
   xmlns:sodipodi="http://sodipodi.sourceforge.net/DTD/sodipodi-0.dtd"
   xmlns:xlink="http://www.w3.org/1999/xlink"
   xmlns="http://www.w3.org/2000/svg"
   xmlns:svg="http://www.w3.org/2000/svg"
   xmlns:rdf="http://www.w3.org/1999/02/22-rdf-syntax-ns#"
   xmlns:cc="http://creativecommons.org/ns#"
   xmlns:dc="http://purl.org/dc/elements/1.1/">
  <defs
     id="defs2" />
  <sodipodi:namedview
     id="base"
     pagecolor="#ffffff"
     bordercolor="#666666"
     borderopacity="1.0"
     inkscape:pageopacity="0.0"
     inkscape:pageshadow="2"
     inkscape:zoom="0.3422108"
     inkscape:cx="194.32467"
     inkscape:cy="407.64348"
     inkscape:document-units="mm"
     inkscape:current-layer="layer3"
     inkscape:document-rotation="0"
     showgrid="false"
     inkscape:window-width="1280"
     inkscape:window-height="650"
     inkscape:window-x="-6"
     inkscape:window-y="-6"
     inkscape:window-maximized="1"
     inkscape:pagecheckerboard="0"
     inkscape:showpageshadow="2"
     inkscape:deskcolor="#d1d1d1" />
  <metadata
     id="metadata5">
    <rdf:RDF>
      <cc:Work
         rdf:about="">
        <dc:format>image/svg+xml</dc:format>
        <dc:type
           rdf:resource="http://purl.org/dc/dcmitype/StillImage" />
      </cc:Work>
    </rdf:RDF>
  </metadata>
  <g
     inkscape:label="holes"
     inkscape:groupmode="layer"
     id="layer1"
     style="display:inline">
    <path
       id="path995"
       style="font-variation-settings:normal;opacity:1;vector-effect:none;fill:none;fill-opacity:1;stroke:#ff0000;stroke-width:0.0985137;stroke-linecap:butt;stroke-linejoin:miter;stroke-miterlimit:4;stroke-dasharray:none;stroke-dashoffset:0;stroke-opacity:1;paint-order:normal;stop-color:#000000;stop-opacity:1"
       d="M 13.819145,10.40708 A 3.125743,3.1257433 0 0 1 10.693402,13.532823 3.125743,3.1257433 0 0 1 7.5676587,10.40708 3.125743,3.1257433 0 0 1 10.693402,7.2813371 3.125743,3.1257433 0 0 1 13.819145,10.40708 Z"
       inkscape:tile-cx="10.693402"
       inkscape:tile-cy="10.6925"
       inkscape:tile-w="6.35"
       inkscape:tile-h="6.3499998"
       inkscape:tile-x0="7.5184018"
       inkscape:tile-y0="7.5175" />
    <use
       x="0"
       y="0"
       inkscape:tiled-clone-of="#path995"
       xlink:href="#path995"
       transform="translate(0,25.4)"
       id="use2210"
       width="100%"
       height="100%" />
    <use
       x="0"
       y="0"
       inkscape:tiled-clone-of="#path995"
       xlink:href="#path995"
       transform="translate(0,50.8)"
       id="use2212"
       width="100%"
       height="100%" />
    <use
       x="0"
       y="0"
       inkscape:tiled-clone-of="#path995"
       xlink:href="#path995"
       transform="translate(0,76.2)"
       id="use2214"
       width="100%"
       height="100%" />
    <use
       x="0"
       y="0"
       inkscape:tiled-clone-of="#path995"
       xlink:href="#path995"
       transform="translate(0,101.6)"
       id="use2216"
       width="100%"
       height="100%" />
    <use
       x="0"
       y="0"
       inkscape:tiled-clone-of="#path995"
       xlink:href="#path995"
       transform="translate(0,127)"
       id="use2218"
       width="100%"
       height="100%" />
    <use
       x="0"
       y="0"
       inkscape:tiled-clone-of="#path995"
       xlink:href="#path995"
       transform="translate(0,152.4)"
       id="use2220"
       width="100%"
       height="100%" />
    <use
       x="0"
       y="0"
       inkscape:tiled-clone-of="#path995"
       xlink:href="#path995"
       transform="translate(0,177.8)"
       id="use2222"
       width="100%"
       height="100%" />
    <use
       x="0"
       y="0"
       inkscape:tiled-clone-of="#path995"
       xlink:href="#path995"
       transform="translate(0,203.2)"
       id="use2224"
       width="100%"
       height="100%" />
    <use
       x="0"
       y="0"
       inkscape:tiled-clone-of="#path995"
       xlink:href="#path995"
       transform="translate(0,228.6)"
       id="use2226"
       width="100%"
       height="100%" />
    <use
       x="0"
       y="0"
       inkscape:tiled-clone-of="#path995"
       xlink:href="#path995"
       transform="translate(0,254)"
       id="use2228"
       width="100%"
       height="100%" />
    <use
       x="0"
       y="0"
       inkscape:tiled-clone-of="#path995"
       xlink:href="#path995"
       transform="translate(0,279.4)"
       id="use2230"
       width="100%"
       height="100%" />
    <use
       x="0"
       y="0"
       inkscape:tiled-clone-of="#path995"
       xlink:href="#path995"
       transform="translate(25.4)"
       id="use2232"
       width="100%"
       height="100%" />
    <use
       x="0"
       y="0"
       inkscape:tiled-clone-of="#path995"
       xlink:href="#path995"
       transform="translate(25.4,25.4)"
       id="use2234"
       width="100%"
       height="100%" />
    <use
       x="0"
       y="0"
       inkscape:tiled-clone-of="#path995"
       xlink:href="#path995"
       transform="translate(25.4,50.8)"
       id="use2236"
       width="100%"
       height="100%" />
    <use
       x="0"
       y="0"
       inkscape:tiled-clone-of="#path995"
       xlink:href="#path995"
       transform="translate(25.4,76.2)"
       id="use2238"
       width="100%"
       height="100%" />
    <use
       x="0"
       y="0"
       inkscape:tiled-clone-of="#path995"
       xlink:href="#path995"
       transform="translate(25.4,101.6)"
       id="use2240"
       width="100%"
       height="100%" />
    <use
       x="0"
       y="0"
       inkscape:tiled-clone-of="#path995"
       xlink:href="#path995"
       transform="translate(25.4,127)"
       id="use2242"
       width="100%"
       height="100%" />
    <use
       x="0"
       y="0"
       inkscape:tiled-clone-of="#path995"
       xlink:href="#path995"
       transform="translate(25.4,152.4)"
       id="use2244"
       width="100%"
       height="100%" />
    <use
       x="0"
       y="0"
       inkscape:tiled-clone-of="#path995"
       xlink:href="#path995"
       transform="translate(25.4,177.8)"
       id="use2246"
       width="100%"
       height="100%" />
    <use
       x="0"
       y="0"
       inkscape:tiled-clone-of="#path995"
       xlink:href="#path995"
       transform="translate(25.4,203.2)"
       id="use2248"
       width="100%"
       height="100%" />
    <use
       x="0"
       y="0"
       inkscape:tiled-clone-of="#path995"
       xlink:href="#path995"
       transform="translate(25.4,228.6)"
       id="use2250"
       width="100%"
       height="100%" />
    <use
       x="0"
       y="0"
       inkscape:tiled-clone-of="#path995"
       xlink:href="#path995"
       transform="translate(25.4,254)"
       id="use2252"
       width="100%"
       height="100%" />
    <use
       x="0"
       y="0"
       inkscape:tiled-clone-of="#path995"
       xlink:href="#path995"
       transform="translate(25.4,279.4)"
       id="use2254"
       width="100%"
       height="100%" />
    <use
       x="0"
       y="0"
       inkscape:tiled-clone-of="#path995"
       xlink:href="#path995"
       transform="translate(50.8)"
       id="use2256"
       width="100%"
       height="100%" />
    <use
       x="0"
       y="0"
       inkscape:tiled-clone-of="#path995"
       xlink:href="#path995"
       transform="translate(50.8,25.4)"
       id="use2258"
       width="100%"
       height="100%" />
    <use
       x="0"
       y="0"
       inkscape:tiled-clone-of="#path995"
       xlink:href="#path995"
       transform="translate(50.8,50.8)"
       id="use2260"
       width="100%"
       height="100%" />
    <use
       x="0"
       y="0"
       inkscape:tiled-clone-of="#path995"
       xlink:href="#path995"
       transform="translate(50.8,76.2)"
       id="use2262"
       width="100%"
       height="100%" />
    <use
       x="0"
       y="0"
       inkscape:tiled-clone-of="#path995"
       xlink:href="#path995"
       transform="translate(50.8,101.6)"
       id="use2264"
       width="100%"
       height="100%" />
    <use
       x="0"
       y="0"
       inkscape:tiled-clone-of="#path995"
       xlink:href="#path995"
       transform="translate(50.8,127)"
       id="use2266"
       width="100%"
       height="100%" />
    <use
       x="0"
       y="0"
       inkscape:tiled-clone-of="#path995"
       xlink:href="#path995"
       transform="translate(50.8,152.4)"
       id="use2268"
       width="100%"
       height="100%" />
    <use
       x="0"
       y="0"
       inkscape:tiled-clone-of="#path995"
       xlink:href="#path995"
       transform="translate(50.8,177.8)"
       id="use2270"
       width="100%"
       height="100%" />
    <use
       x="0"
       y="0"
       inkscape:tiled-clone-of="#path995"
       xlink:href="#path995"
       transform="translate(50.8,203.2)"
       id="use2272"
       width="100%"
       height="100%" />
    <use
       x="0"
       y="0"
       inkscape:tiled-clone-of="#path995"
       xlink:href="#path995"
       transform="translate(50.8,228.6)"
       id="use2274"
       width="100%"
       height="100%" />
    <use
       x="0"
       y="0"
       inkscape:tiled-clone-of="#path995"
       xlink:href="#path995"
       transform="translate(50.8,254)"
       id="use2276"
       width="100%"
       height="100%" />
    <use
       x="0"
       y="0"
       inkscape:tiled-clone-of="#path995"
       xlink:href="#path995"
       transform="translate(50.8,279.4)"
       id="use2278"
       width="100%"
       height="100%" />
    <use
       x="0"
       y="0"
       inkscape:tiled-clone-of="#path995"
       xlink:href="#path995"
       transform="translate(76.2)"
       id="use2280"
       width="100%"
       height="100%" />
    <use
       x="0"
       y="0"
       inkscape:tiled-clone-of="#path995"
       xlink:href="#path995"
       transform="translate(76.2,25.4)"
       id="use2282"
       width="100%"
       height="100%" />
    <use
       x="0"
       y="0"
       inkscape:tiled-clone-of="#path995"
       xlink:href="#path995"
       transform="translate(76.2,50.8)"
       id="use2284"
       width="100%"
       height="100%" />
    <use
       x="0"
       y="0"
       inkscape:tiled-clone-of="#path995"
       xlink:href="#path995"
       transform="translate(76.2,76.2)"
       id="use2286"
       width="100%"
       height="100%" />
    <use
       x="0"
       y="0"
       inkscape:tiled-clone-of="#path995"
       xlink:href="#path995"
       transform="translate(76.2,101.6)"
       id="use2288"
       width="100%"
       height="100%" />
    <use
       x="0"
       y="0"
       inkscape:tiled-clone-of="#path995"
       xlink:href="#path995"
       transform="translate(76.2,127)"
       id="use2290"
       width="100%"
       height="100%" />
    <use
       x="0"
       y="0"
       inkscape:tiled-clone-of="#path995"
       xlink:href="#path995"
       transform="translate(76.2,152.4)"
       id="use2292"
       width="100%"
       height="100%" />
    <use
       x="0"
       y="0"
       inkscape:tiled-clone-of="#path995"
       xlink:href="#path995"
       transform="translate(76.2,177.8)"
       id="use2294"
       width="100%"
       height="100%" />
    <use
       x="0"
       y="0"
       inkscape:tiled-clone-of="#path995"
       xlink:href="#path995"
       transform="translate(76.2,203.2)"
       id="use2296"
       width="100%"
       height="100%" />
    <use
       x="0"
       y="0"
       inkscape:tiled-clone-of="#path995"
       xlink:href="#path995"
       transform="translate(76.2,228.6)"
       id="use2298"
       width="100%"
       height="100%" />
    <use
       x="0"
       y="0"
       inkscape:tiled-clone-of="#path995"
       xlink:href="#path995"
       transform="translate(76.2,254)"
       id="use2300"
       width="100%"
       height="100%" />
    <use
       x="0"
       y="0"
       inkscape:tiled-clone-of="#path995"
       xlink:href="#path995"
       transform="translate(76.2,279.4)"
       id="use2302"
       width="100%"
       height="100%" />
    <use
       x="0"
       y="0"
       inkscape:tiled-clone-of="#path995"
       xlink:href="#path995"
       transform="translate(101.6)"
       id="use2304"
       width="100%"
       height="100%" />
    <use
       x="0"
       y="0"
       inkscape:tiled-clone-of="#path995"
       xlink:href="#path995"
       transform="translate(101.6,25.4)"
       id="use2306"
       width="100%"
       height="100%" />
    <use
       x="0"
       y="0"
       inkscape:tiled-clone-of="#path995"
       xlink:href="#path995"
       transform="translate(101.6,50.8)"
       id="use2308"
       width="100%"
       height="100%" />
    <use
       x="0"
       y="0"
       inkscape:tiled-clone-of="#path995"
       xlink:href="#path995"
       transform="translate(101.6,76.2)"
       id="use2310"
       width="100%"
       height="100%" />
    <use
       x="0"
       y="0"
       inkscape:tiled-clone-of="#path995"
       xlink:href="#path995"
       transform="translate(101.6,101.6)"
       id="use2312"
       width="100%"
       height="100%" />
    <use
       x="0"
       y="0"
       inkscape:tiled-clone-of="#path995"
       xlink:href="#path995"
       transform="translate(101.6,127)"
       id="use2314"
       width="100%"
       height="100%" />
    <use
       x="0"
       y="0"
       inkscape:tiled-clone-of="#path995"
       xlink:href="#path995"
       transform="translate(101.6,152.4)"
       id="use2316"
       width="100%"
       height="100%" />
    <use
       x="0"
       y="0"
       inkscape:tiled-clone-of="#path995"
       xlink:href="#path995"
       transform="translate(101.6,177.8)"
       id="use2318"
       width="100%"
       height="100%" />
    <use
       x="0"
       y="0"
       inkscape:tiled-clone-of="#path995"
       xlink:href="#path995"
       transform="translate(101.6,203.2)"
       id="use2320"
       width="100%"
       height="100%" />
    <use
       x="0"
       y="0"
       inkscape:tiled-clone-of="#path995"
       xlink:href="#path995"
       transform="translate(101.6,228.6)"
       id="use2322"
       width="100%"
       height="100%" />
    <use
       x="0"
       y="0"
       inkscape:tiled-clone-of="#path995"
       xlink:href="#path995"
       transform="translate(101.6,254)"
       id="use2324"
       width="100%"
       height="100%" />
    <use
       x="0"
       y="0"
       inkscape:tiled-clone-of="#path995"
       xlink:href="#path995"
       transform="translate(101.6,279.4)"
       id="use2326"
       width="100%"
       height="100%" />
    <use
       x="0"
       y="0"
       inkscape:tiled-clone-of="#path995"
       xlink:href="#path995"
       transform="translate(127)"
       id="use2328"
       width="100%"
       height="100%" />
    <use
       x="0"
       y="0"
       inkscape:tiled-clone-of="#path995"
       xlink:href="#path995"
       transform="translate(127,25.4)"
       id="use2330"
       width="100%"
       height="100%" />
    <use
       x="0"
       y="0"
       inkscape:tiled-clone-of="#path995"
       xlink:href="#path995"
       transform="translate(127,50.8)"
       id="use2332"
       width="100%"
       height="100%" />
    <use
       x="0"
       y="0"
       inkscape:tiled-clone-of="#path995"
       xlink:href="#path995"
       transform="translate(127,76.2)"
       id="use2334"
       width="100%"
       height="100%" />
    <use
       x="0"
       y="0"
       inkscape:tiled-clone-of="#path995"
       xlink:href="#path995"
       transform="translate(127,101.6)"
       id="use2336"
       width="100%"
       height="100%" />
    <use
       x="0"
       y="0"
       inkscape:tiled-clone-of="#path995"
       xlink:href="#path995"
       transform="translate(127,127)"
       id="use2338"
       width="100%"
       height="100%" />
    <use
       x="0"
       y="0"
       inkscape:tiled-clone-of="#path995"
       xlink:href="#path995"
       transform="translate(127,152.4)"
       id="use2340"
       width="100%"
       height="100%" />
    <use
       x="0"
       y="0"
       inkscape:tiled-clone-of="#path995"
       xlink:href="#path995"
       transform="translate(127,177.8)"
       id="use2342"
       width="100%"
       height="100%" />
    <use
       x="0"
       y="0"
       inkscape:tiled-clone-of="#path995"
       xlink:href="#path995"
       transform="translate(127,203.2)"
       id="use2344"
       width="100%"
       height="100%" />
    <use
       x="0"
       y="0"
       inkscape:tiled-clone-of="#path995"
       xlink:href="#path995"
       transform="translate(127,228.6)"
       id="use2346"
       width="100%"
       height="100%" />
    <use
       x="0"
       y="0"
       inkscape:tiled-clone-of="#path995"
       xlink:href="#path995"
       transform="translate(127,254)"
       id="use2348"
       width="100%"
       height="100%" />
    <use
       x="0"
       y="0"
       inkscape:tiled-clone-of="#path995"
       xlink:href="#path995"
       transform="translate(127,279.4)"
       id="use2350"
       width="100%"
       height="100%" />
    <use
       x="0"
       y="0"
       inkscape:tiled-clone-of="#path995"
       xlink:href="#path995"
       transform="translate(152.4)"
       id="use2352"
       width="100%"
       height="100%" />
    <use
       x="0"
       y="0"
       inkscape:tiled-clone-of="#path995"
       xlink:href="#path995"
       transform="translate(152.4,25.4)"
       id="use2354"
       width="100%"
       height="100%" />
    <use
       x="0"
       y="0"
       inkscape:tiled-clone-of="#path995"
       xlink:href="#path995"
       transform="translate(152.4,50.8)"
       id="use2356"
       width="100%"
       height="100%" />
    <use
       x="0"
       y="0"
       inkscape:tiled-clone-of="#path995"
       xlink:href="#path995"
       transform="translate(152.4,76.2)"
       id="use2358"
       width="100%"
       height="100%" />
    <use
       x="0"
       y="0"
       inkscape:tiled-clone-of="#path995"
       xlink:href="#path995"
       transform="translate(152.4,101.6)"
       id="use2360"
       width="100%"
       height="100%" />
    <use
       x="0"
       y="0"
       inkscape:tiled-clone-of="#path995"
       xlink:href="#path995"
       transform="translate(152.4,127)"
       id="use2362"
       width="100%"
       height="100%" />
    <use
       x="0"
       y="0"
       inkscape:tiled-clone-of="#path995"
       xlink:href="#path995"
       transform="translate(152.4,152.4)"
       id="use2364"
       width="100%"
       height="100%" />
    <use
       x="0"
       y="0"
       inkscape:tiled-clone-of="#path995"
       xlink:href="#path995"
       transform="translate(152.4,177.8)"
       id="use2366"
       width="100%"
       height="100%" />
    <use
       x="0"
       y="0"
       inkscape:tiled-clone-of="#path995"
       xlink:href="#path995"
       transform="translate(152.4,203.2)"
       id="use2368"
       width="100%"
       height="100%" />
    <use
       x="0"
       y="0"
       inkscape:tiled-clone-of="#path995"
       xlink:href="#path995"
       transform="translate(152.4,228.6)"
       id="use2370"
       width="100%"
       height="100%" />
    <use
       x="0"
       y="0"
       inkscape:tiled-clone-of="#path995"
       xlink:href="#path995"
       transform="translate(152.4,254)"
       id="use2372"
       width="100%"
       height="100%" />
    <use
       x="0"
       y="0"
       inkscape:tiled-clone-of="#path995"
       xlink:href="#path995"
       transform="translate(152.4,279.4)"
       id="use2374"
       width="100%"
       height="100%" />
    <use
       x="0"
       y="0"
       inkscape:tiled-clone-of="#path995"
       xlink:href="#path995"
       transform="translate(177.8)"
       id="use2376"
       width="100%"
       height="100%" />
    <use
       x="0"
       y="0"
       inkscape:tiled-clone-of="#path995"
       xlink:href="#path995"
       transform="translate(177.8,25.4)"
       id="use2378"
       width="100%"
       height="100%" />
    <use
       x="0"
       y="0"
       inkscape:tiled-clone-of="#path995"
       xlink:href="#path995"
       transform="translate(177.8,50.8)"
       id="use2380"
       width="100%"
       height="100%" />
    <use
       x="0"
       y="0"
       inkscape:tiled-clone-of="#path995"
       xlink:href="#path995"
       transform="translate(177.8,76.2)"
       id="use2382"
       width="100%"
       height="100%" />
    <use
       x="0"
       y="0"
       inkscape:tiled-clone-of="#path995"
       xlink:href="#path995"
       transform="translate(177.8,101.6)"
       id="use2384"
       width="100%"
       height="100%" />
    <use
       x="0"
       y="0"
       inkscape:tiled-clone-of="#path995"
       xlink:href="#path995"
       transform="translate(177.8,127)"
       id="use2386"
       width="100%"
       height="100%" />
    <use
       x="0"
       y="0"
       inkscape:tiled-clone-of="#path995"
       xlink:href="#path995"
       transform="translate(177.8,152.4)"
       id="use2388"
       width="100%"
       height="100%" />
    <use
       x="0"
       y="0"
       inkscape:tiled-clone-of="#path995"
       xlink:href="#path995"
       transform="translate(177.8,177.8)"
       id="use2390"
       width="100%"
       height="100%" />
    <use
       x="0"
       y="0"
       inkscape:tiled-clone-of="#path995"
       xlink:href="#path995"
       transform="translate(177.8,203.2)"
       id="use2392"
       width="100%"
       height="100%" />
    <use
       x="0"
       y="0"
       inkscape:tiled-clone-of="#path995"
       xlink:href="#path995"
       transform="translate(177.8,228.6)"
       id="use2394"
       width="100%"
       height="100%" />
    <use
       x="0"
       y="0"
       inkscape:tiled-clone-of="#path995"
       xlink:href="#path995"
       transform="translate(177.8,254)"
       id="use2396"
       width="100%"
       height="100%" />
    <use
       x="0"
       y="0"
       inkscape:tiled-clone-of="#path995"
       xlink:href="#path995"
       transform="translate(177.8,279.4)"
       id="use2398"
       width="100%"
       height="100%" />
    <use
       x="0"
       y="0"
       inkscape:tiled-clone-of="#path995"
       xlink:href="#path995"
       transform="translate(203.2)"
       id="use2400"
       width="100%"
       height="100%" />
    <use
       x="0"
       y="0"
       inkscape:tiled-clone-of="#path995"
       xlink:href="#path995"
       transform="translate(203.2,25.4)"
       id="use2402"
       width="100%"
       height="100%" />
    <use
       x="0"
       y="0"
       inkscape:tiled-clone-of="#path995"
       xlink:href="#path995"
       transform="translate(203.2,50.8)"
       id="use2404"
       width="100%"
       height="100%" />
    <use
       x="0"
       y="0"
       inkscape:tiled-clone-of="#path995"
       xlink:href="#path995"
       transform="translate(203.2,76.2)"
       id="use2406"
       width="100%"
       height="100%" />
    <use
       x="0"
       y="0"
       inkscape:tiled-clone-of="#path995"
       xlink:href="#path995"
       transform="translate(203.2,101.6)"
       id="use2408"
       width="100%"
       height="100%" />
    <use
       x="0"
       y="0"
       inkscape:tiled-clone-of="#path995"
       xlink:href="#path995"
       transform="translate(203.2,127)"
       id="use2410"
       width="100%"
       height="100%" />
    <use
       x="0"
       y="0"
       inkscape:tiled-clone-of="#path995"
       xlink:href="#path995"
       transform="translate(203.2,152.4)"
       id="use2412"
       width="100%"
       height="100%" />
    <use
       x="0"
       y="0"
       inkscape:tiled-clone-of="#path995"
       xlink:href="#path995"
       transform="translate(203.2,177.8)"
       id="use2414"
       width="100%"
       height="100%" />
    <use
       x="0"
       y="0"
       inkscape:tiled-clone-of="#path995"
       xlink:href="#path995"
       transform="translate(203.2,203.2)"
       id="use2416"
       width="100%"
       height="100%" />
    <use
       x="0"
       y="0"
       inkscape:tiled-clone-of="#path995"
       xlink:href="#path995"
       transform="translate(203.2,228.6)"
       id="use2418"
       width="100%"
       height="100%" />
    <use
       x="0"
       y="0"
       inkscape:tiled-clone-of="#path995"
       xlink:href="#path995"
       transform="translate(203.2,254)"
       id="use2420"
       width="100%"
       height="100%" />
    <use
       x="0"
       y="0"
       inkscape:tiled-clone-of="#path995"
       xlink:href="#path995"
       transform="translate(203.2,279.4)"
       id="use2422"
       width="100%"
       height="100%" />
    <use
       x="0"
       y="0"
       inkscape:tiled-clone-of="#path995"
       xlink:href="#path995"
       transform="translate(228.6)"
       id="use2424"
       width="100%"
       height="100%" />
    <use
       x="0"
       y="0"
       inkscape:tiled-clone-of="#path995"
       xlink:href="#path995"
       transform="translate(228.6,25.4)"
       id="use2426"
       width="100%"
       height="100%" />
    <use
       x="0"
       y="0"
       inkscape:tiled-clone-of="#path995"
       xlink:href="#path995"
       transform="translate(228.6,50.8)"
       id="use2428"
       width="100%"
       height="100%" />
    <use
       x="0"
       y="0"
       inkscape:tiled-clone-of="#path995"
       xlink:href="#path995"
       transform="translate(228.6,76.2)"
       id="use2430"
       width="100%"
       height="100%" />
    <use
       x="0"
       y="0"
       inkscape:tiled-clone-of="#path995"
       xlink:href="#path995"
       transform="translate(228.6,101.6)"
       id="use2432"
       width="100%"
       height="100%" />
    <use
       x="0"
       y="0"
       inkscape:tiled-clone-of="#path995"
       xlink:href="#path995"
       transform="translate(228.6,127)"
       id="use2434"
       width="100%"
       height="100%" />
    <use
       x="0"
       y="0"
       inkscape:tiled-clone-of="#path995"
       xlink:href="#path995"
       transform="translate(228.6,152.4)"
       id="use2436"
       width="100%"
       height="100%" />
    <use
       x="0"
       y="0"
       inkscape:tiled-clone-of="#path995"
       xlink:href="#path995"
       transform="translate(228.6,177.8)"
       id="use2438"
       width="100%"
       height="100%" />
    <use
       x="0"
       y="0"
       inkscape:tiled-clone-of="#path995"
       xlink:href="#path995"
       transform="translate(228.6,203.2)"
       id="use2440"
       width="100%"
       height="100%" />
    <use
       x="0"
       y="0"
       inkscape:tiled-clone-of="#path995"
       xlink:href="#path995"
       transform="translate(228.6,228.6)"
       id="use2442"
       width="100%"
       height="100%" />
    <use
       x="0"
       y="0"
       inkscape:tiled-clone-of="#path995"
       xlink:href="#path995"
       transform="translate(228.6,254)"
       id="use2444"
       width="100%"
       height="100%" />
    <use
       x="0"
       y="0"
       inkscape:tiled-clone-of="#path995"
       xlink:href="#path995"
       transform="translate(228.6,279.4)"
       id="use2446"
       width="100%"
       height="100%" />
    <use
       x="0"
       y="0"
       inkscape:tiled-clone-of="#path995"
       xlink:href="#path995"
       transform="translate(254)"
       id="use2448"
       width="100%"
       height="100%" />
    <use
       x="0"
       y="0"
       inkscape:tiled-clone-of="#path995"
       xlink:href="#path995"
       transform="translate(254,25.4)"
       id="use2450"
       width="100%"
       height="100%" />
    <use
       x="0"
       y="0"
       inkscape:tiled-clone-of="#path995"
       xlink:href="#path995"
       transform="translate(254,50.8)"
       id="use2452"
       width="100%"
       height="100%" />
    <use
       x="0"
       y="0"
       inkscape:tiled-clone-of="#path995"
       xlink:href="#path995"
       transform="translate(254,76.2)"
       id="use2454"
       width="100%"
       height="100%" />
    <use
       x="0"
       y="0"
       inkscape:tiled-clone-of="#path995"
       xlink:href="#path995"
       transform="translate(254,101.6)"
       id="use2456"
       width="100%"
       height="100%" />
    <use
       x="0"
       y="0"
       inkscape:tiled-clone-of="#path995"
       xlink:href="#path995"
       transform="translate(254,127)"
       id="use2458"
       width="100%"
       height="100%" />
    <use
       x="0"
       y="0"
       inkscape:tiled-clone-of="#path995"
       xlink:href="#path995"
       transform="translate(254,152.4)"
       id="use2460"
       width="100%"
       height="100%" />
    <use
       x="0"
       y="0"
       inkscape:tiled-clone-of="#path995"
       xlink:href="#path995"
       transform="translate(254,177.8)"
       id="use2462"
       width="100%"
       height="100%" />
    <use
       x="0"
       y="0"
       inkscape:tiled-clone-of="#path995"
       xlink:href="#path995"
       transform="translate(254,203.2)"
       id="use2464"
       width="100%"
       height="100%" />
    <use
       x="0"
       y="0"
       inkscape:tiled-clone-of="#path995"
       xlink:href="#path995"
       transform="translate(254,228.6)"
       id="use2466"
       width="100%"
       height="100%" />
    <use
       x="0"
       y="0"
       inkscape:tiled-clone-of="#path995"
       xlink:href="#path995"
       transform="translate(254,254)"
       id="use2468"
       width="100%"
       height="100%" />
    <use
       x="0"
       y="0"
       inkscape:tiled-clone-of="#path995"
       xlink:href="#path995"
       transform="translate(254,279.4)"
       id="use2470"
       width="100%"
       height="100%" />
    <use
       x="0"
       y="0"
       inkscape:tiled-clone-of="#path995"
       xlink:href="#path995"
       transform="translate(279.4)"
       id="use2472"
       width="100%"
       height="100%" />
    <use
       x="0"
       y="0"
       inkscape:tiled-clone-of="#path995"
       xlink:href="#path995"
       transform="translate(279.4,25.4)"
       id="use2474"
       width="100%"
       height="100%" />
    <use
       x="0"
       y="0"
       inkscape:tiled-clone-of="#path995"
       xlink:href="#path995"
       transform="translate(279.4,50.8)"
       id="use2476"
       width="100%"
       height="100%" />
    <use
       x="0"
       y="0"
       inkscape:tiled-clone-of="#path995"
       xlink:href="#path995"
       transform="translate(279.4,76.2)"
       id="use2478"
       width="100%"
       height="100%" />
    <use
       x="0"
       y="0"
       inkscape:tiled-clone-of="#path995"
       xlink:href="#path995"
       transform="translate(279.4,101.6)"
       id="use2480"
       width="100%"
       height="100%" />
    <use
       x="0"
       y="0"
       inkscape:tiled-clone-of="#path995"
       xlink:href="#path995"
       transform="translate(279.4,127)"
       id="use2482"
       width="100%"
       height="100%" />
    <use
       x="0"
       y="0"
       inkscape:tiled-clone-of="#path995"
       xlink:href="#path995"
       transform="translate(279.4,152.4)"
       id="use2484"
       width="100%"
       height="100%" />
    <use
       x="0"
       y="0"
       inkscape:tiled-clone-of="#path995"
       xlink:href="#path995"
       transform="translate(279.4,177.8)"
       id="use2486"
       width="100%"
       height="100%" />
    <use
       x="0"
       y="0"
       inkscape:tiled-clone-of="#path995"
       xlink:href="#path995"
       transform="translate(279.4,203.2)"
       id="use2488"
       width="100%"
       height="100%" />
    <use
       x="0"
       y="0"
       inkscape:tiled-clone-of="#path995"
       xlink:href="#path995"
       transform="translate(279.4,228.6)"
       id="use2490"
       width="100%"
       height="100%" />
    <use
       x="0"
       y="0"
       inkscape:tiled-clone-of="#path995"
       xlink:href="#path995"
       transform="translate(279.4,254)"
       id="use2492"
       width="100%"
       height="100%" />
    <use
       x="0"
       y="0"
       inkscape:tiled-clone-of="#path995"
       xlink:href="#path995"
       transform="translate(279.4,279.4)"
       id="use2494"
       width="100%"
       height="100%" />
    <use
       x="0"
       y="0"
       inkscape:tiled-clone-of="#path995"
       xlink:href="#path995"
       transform="translate(0,304.8)"
       id="use2230-7"
       width="100%"
       height="100%"
       style="display:inline" />
    <use
       x="0"
       y="0"
       inkscape:tiled-clone-of="#path995"
       xlink:href="#path995"
       transform="translate(25.4,304.8)"
       id="use2254-8"
       width="100%"
       height="100%"
       style="display:inline" />
    <use
       x="0"
       y="0"
       inkscape:tiled-clone-of="#path995"
       xlink:href="#path995"
       transform="translate(50.8,304.8)"
       id="use2278-8"
       width="100%"
       height="100%"
       style="display:inline" />
    <use
       x="0"
       y="0"
       inkscape:tiled-clone-of="#path995"
       xlink:href="#path995"
       transform="translate(76.2,304.8)"
       id="use2302-3"
       width="100%"
       height="100%"
       style="display:inline" />
    <use
       x="0"
       y="0"
       inkscape:tiled-clone-of="#path995"
       xlink:href="#path995"
       transform="translate(101.6,304.8)"
       id="use2326-9"
       width="100%"
       height="100%"
       style="display:inline" />
    <use
       x="0"
       y="0"
       inkscape:tiled-clone-of="#path995"
       xlink:href="#path995"
       transform="translate(127,304.8)"
       id="use2350-7"
       width="100%"
       height="100%"
       style="display:inline" />
    <use
       x="0"
       y="0"
       inkscape:tiled-clone-of="#path995"
       xlink:href="#path995"
       transform="translate(152.4,304.8)"
       id="use2374-8"
       width="100%"
       height="100%"
       style="display:inline" />
    <use
       x="0"
       y="0"
       inkscape:tiled-clone-of="#path995"
       xlink:href="#path995"
       transform="translate(177.8,304.8)"
       id="use2398-4"
       width="100%"
       height="100%"
       style="display:inline" />
    <use
       x="0"
       y="0"
       inkscape:tiled-clone-of="#path995"
       xlink:href="#path995"
       transform="translate(203.2,304.8)"
       id="use2422-8"
       width="100%"
       height="100%"
       style="display:inline" />
    <use
       x="0"
       y="0"
       inkscape:tiled-clone-of="#path995"
       xlink:href="#path995"
       transform="translate(228.6,304.8)"
       id="use2446-3"
       width="100%"
       height="100%"
       style="display:inline" />
    <use
       x="0"
       y="0"
       inkscape:tiled-clone-of="#path995"
       xlink:href="#path995"
       transform="translate(254,304.8)"
       id="use2470-8"
       width="100%"
       height="100%"
       style="display:inline" />
    <use
       x="0"
       y="0"
       inkscape:tiled-clone-of="#path995"
       xlink:href="#path995"
       transform="translate(279.4,304.8)"
       id="use2494-0"
       width="100%"
       height="100%"
       style="display:inline" />
    <use
       x="0"
       y="0"
       inkscape:tiled-clone-of="#path995"
       xlink:href="#path995"
       transform="translate(0,330.2)"
       id="use2230-9"
       width="100%"
       height="100%"
       style="display:inline" />
    <use
       x="0"
       y="0"
       inkscape:tiled-clone-of="#path995"
       xlink:href="#path995"
       transform="translate(25.4,330.2)"
       id="use2254-4"
       width="100%"
       height="100%"
       style="display:inline" />
    <use
       x="0"
       y="0"
       inkscape:tiled-clone-of="#path995"
       xlink:href="#path995"
       transform="translate(50.8,330.2)"
       id="use2278-9"
       width="100%"
       height="100%"
       style="display:inline" />
    <use
       x="0"
       y="0"
       inkscape:tiled-clone-of="#path995"
       xlink:href="#path995"
       transform="translate(76.2,330.2)"
       id="use2302-9"
       width="100%"
       height="100%"
       style="display:inline" />
    <use
       x="0"
       y="0"
       inkscape:tiled-clone-of="#path995"
       xlink:href="#path995"
       transform="translate(101.6,330.2)"
       id="use2326-4"
       width="100%"
       height="100%"
       style="display:inline" />
    <use
       x="0"
       y="0"
       inkscape:tiled-clone-of="#path995"
       xlink:href="#path995"
       transform="translate(127,330.2)"
       id="use2350-5"
       width="100%"
       height="100%"
       style="display:inline" />
    <use
       x="0"
       y="0"
       inkscape:tiled-clone-of="#path995"
       xlink:href="#path995"
       transform="translate(152.4,330.2)"
       id="use2374-6"
       width="100%"
       height="100%"
       style="display:inline" />
    <use
       x="0"
       y="0"
       inkscape:tiled-clone-of="#path995"
       xlink:href="#path995"
       transform="translate(177.8,330.2)"
       id="use2398-45"
       width="100%"
       height="100%"
       style="display:inline" />
    <use
       x="0"
       y="0"
       inkscape:tiled-clone-of="#path995"
       xlink:href="#path995"
       transform="translate(203.2,330.2)"
       id="use2422-6"
       width="100%"
       height="100%"
       style="display:inline" />
    <use
       x="0"
       y="0"
       inkscape:tiled-clone-of="#path995"
       xlink:href="#path995"
       transform="translate(228.6,330.2)"
       id="use2446-4"
       width="100%"
       height="100%"
       style="display:inline" />
    <use
       x="0"
       y="0"
       inkscape:tiled-clone-of="#path995"
       xlink:href="#path995"
       transform="translate(254,330.2)"
       id="use2470-2"
       width="100%"
       height="100%"
       style="display:inline" />
    <use
       x="0"
       y="0"
       inkscape:tiled-clone-of="#path995"
       xlink:href="#path995"
       transform="translate(279.4,330.2)"
       id="use2494-29"
       width="100%"
       height="100%"
       style="display:inline" />
    <use
       x="0"
       y="0"
       inkscape:tiled-clone-of="#path995"
       xlink:href="#path995"
       transform="translate(304.8)"
       id="use2472-8"
       width="100%"
       height="100%"
       style="display:inline" />
    <use
       x="0"
       y="0"
       inkscape:tiled-clone-of="#path995"
       xlink:href="#path995"
       transform="translate(304.8,25.4)"
       id="use2474-0"
       width="100%"
       height="100%"
       style="display:inline" />
    <use
       x="0"
       y="0"
       inkscape:tiled-clone-of="#path995"
       xlink:href="#path995"
       transform="translate(304.8,50.8)"
       id="use2476-6"
       width="100%"
       height="100%"
       style="display:inline" />
    <use
       x="0"
       y="0"
       inkscape:tiled-clone-of="#path995"
       xlink:href="#path995"
       transform="translate(304.8,76.2)"
       id="use2478-2"
       width="100%"
       height="100%"
       style="display:inline" />
    <use
       x="0"
       y="0"
       inkscape:tiled-clone-of="#path995"
       xlink:href="#path995"
       transform="translate(304.8,101.6)"
       id="use2480-9"
       width="100%"
       height="100%"
       style="display:inline" />
    <use
       x="0"
       y="0"
       inkscape:tiled-clone-of="#path995"
       xlink:href="#path995"
       transform="translate(304.8,127)"
       id="use2482-6"
       width="100%"
       height="100%"
       style="display:inline" />
    <use
       x="0"
       y="0"
       inkscape:tiled-clone-of="#path995"
       xlink:href="#path995"
       transform="translate(304.8,152.4)"
       id="use2484-0"
       width="100%"
       height="100%"
       style="display:inline" />
    <use
       x="0"
       y="0"
       inkscape:tiled-clone-of="#path995"
       xlink:href="#path995"
       transform="translate(304.8,177.8)"
       id="use2486-4"
       width="100%"
       height="100%"
       style="display:inline" />
    <use
       x="0"
       y="0"
       inkscape:tiled-clone-of="#path995"
       xlink:href="#path995"
       transform="translate(304.8,203.2)"
       id="use2488-2"
       width="100%"
       height="100%"
       style="display:inline" />
    <use
       x="0"
       y="0"
       inkscape:tiled-clone-of="#path995"
       xlink:href="#path995"
       transform="translate(304.8,228.6)"
       id="use2490-3"
       width="100%"
       height="100%"
       style="display:inline" />
    <use
       x="0"
       y="0"
       inkscape:tiled-clone-of="#path995"
       xlink:href="#path995"
       transform="translate(304.8,254)"
       id="use2492-1"
       width="100%"
       height="100%"
       style="display:inline" />
    <use
       x="0"
       y="0"
       inkscape:tiled-clone-of="#path995"
       xlink:href="#path995"
       transform="translate(304.8,279.4)"
       id="use2494-22"
       width="100%"
       height="100%"
       style="display:inline" />
    <use
       x="0"
       y="0"
       inkscape:tiled-clone-of="#path995"
       xlink:href="#path995"
       transform="translate(304.8,304.8)"
       id="use2494-0-8"
       width="100%"
       height="100%"
       style="display:inline" />
    <use
       x="0"
       y="0"
       inkscape:tiled-clone-of="#path995"
       xlink:href="#path995"
       transform="translate(304.8,330.2)"
       id="use2494-29-5"
       width="100%"
       height="100%"
       style="display:inline" />
    <use
       x="0"
       y="0"
       inkscape:tiled-clone-of="#path995"
       xlink:href="#path995"
       transform="translate(330.2)"
       id="use2472-2"
       width="100%"
       height="100%"
       style="display:inline" />
    <use
       x="0"
       y="0"
       inkscape:tiled-clone-of="#path995"
       xlink:href="#path995"
       transform="translate(330.2,25.4)"
       id="use2474-06"
       width="100%"
       height="100%"
       style="display:inline" />
    <use
       x="0"
       y="0"
       inkscape:tiled-clone-of="#path995"
       xlink:href="#path995"
       transform="translate(330.2,50.8)"
       id="use2476-3"
       width="100%"
       height="100%"
       style="display:inline" />
    <use
       x="0"
       y="0"
       inkscape:tiled-clone-of="#path995"
       xlink:href="#path995"
       transform="translate(330.2,76.2)"
       id="use2478-7"
       width="100%"
       height="100%"
       style="display:inline" />
    <use
       x="0"
       y="0"
       inkscape:tiled-clone-of="#path995"
       xlink:href="#path995"
       transform="translate(330.2,101.6)"
       id="use2480-7"
       width="100%"
       height="100%"
       style="display:inline" />
    <use
       x="0"
       y="0"
       inkscape:tiled-clone-of="#path995"
       xlink:href="#path995"
       transform="translate(330.2,127)"
       id="use2482-8"
       width="100%"
       height="100%"
       style="display:inline" />
    <use
       x="0"
       y="0"
       inkscape:tiled-clone-of="#path995"
       xlink:href="#path995"
       transform="translate(330.2,152.4)"
       id="use2484-8"
       width="100%"
       height="100%"
       style="display:inline" />
    <use
       x="0"
       y="0"
       inkscape:tiled-clone-of="#path995"
       xlink:href="#path995"
       transform="translate(330.2,177.8)"
       id="use2486-47"
       width="100%"
       height="100%"
       style="display:inline" />
    <use
       x="0"
       y="0"
       inkscape:tiled-clone-of="#path995"
       xlink:href="#path995"
       transform="translate(330.2,203.2)"
       id="use2488-6"
       width="100%"
       height="100%"
       style="display:inline" />
    <use
       x="0"
       y="0"
       inkscape:tiled-clone-of="#path995"
       xlink:href="#path995"
       transform="translate(330.2,228.6)"
       id="use2490-7"
       width="100%"
       height="100%"
       style="display:inline" />
    <use
       x="0"
       y="0"
       inkscape:tiled-clone-of="#path995"
       xlink:href="#path995"
       transform="translate(330.2,254)"
       id="use2492-19"
       width="100%"
       height="100%"
       style="display:inline" />
    <use
       x="0"
       y="0"
       inkscape:tiled-clone-of="#path995"
       xlink:href="#path995"
       transform="translate(330.2,279.4)"
       id="use2494-5"
       width="100%"
       height="100%"
       style="display:inline" />
    <use
       x="0"
       y="0"
       inkscape:tiled-clone-of="#path995"
       xlink:href="#path995"
       transform="translate(330.2,304.8)"
       id="use2494-0-7"
       width="100%"
       height="100%"
       style="display:inline" />
    <use
       x="0"
       y="0"
       inkscape:tiled-clone-of="#path995"
       xlink:href="#path995"
       transform="translate(330.2,330.2)"
       id="use2494-29-6"
       width="100%"
       height="100%"
       style="display:inline" />
  </g>
  <g
     inkscape:groupmode="layer"
     id="layer4"
     inkscape:label="ShapeFix"
     sodipodi:insensitive="true"
     style="display:none">
    <path
       id="rect3035-8"
       style="display:inline;fill:none;stroke:#ff0000;stroke-width:0.1;stroke-miterlimit:4;stroke-dasharray:none;stroke-opacity:1;stop-color:#000000"
       d="m 268.20146,-0.01354948 c 5.54,0 10,4.45999988 10,9.99999998 V 289.98646 c 0,5.54 -4.50606,9.28708 -10,10"
       sodipodi:nodetypes="cssc" />
  </g>
  <g
     inkscape:groupmode="layer"
     id="layer3"
     inkscape:label="Shape"
     sodipodi:insensitive="true"
     style="display:inline"
     transform="matrix(1.1692778,0,0,1.1693095,0.00839932,0.00771187)">
    <path
       id="rect3035"
       style="display:inline;fill:none;stroke:#ff0000;stroke-width:0.1;stroke-miterlimit:4;stroke-dasharray:none;stroke-opacity:1;stop-color:#000000"
       d="m 10.0025,0.00249187 h 280.00001 c 5.54,0 10,4.45999993 10,10.00000013 V 290.0025 c 0,5.54 -4.46,10 -10,10 H 10.0025 c -5.5400001,0 -10,-4.46 -10,-10 V 10.002492 c 0,-5.5400002 4.4599999,-10.00000013 10,-10.00000013 z" />
  </g>
  <g
     inkscape:groupmode="layer"
     id="layer2"
     inkscape:label="Test"
     style="display:none">
    <use
       x="0"
       y="0"
       inkscape:tiled-clone-of="#path995"
       xlink:href="#path995"
       transform="translate(279.4,279.68542)"
       id="use2494-2"
       width="100%"
       height="100%" />
  </g>
</svg>
