ISO-10303-21;
HEADER;
/* Generated by software containing ST-Developer
 * from STEP Tools, Inc. (www.steptools.com) 
 */
/* OPTION: using custom renumber hook */

FILE_DESCRIPTION(
/* description */ ('STEP AP242',
'CAx-IF Rec.Pracs.---Representation and Presentation of Product Manufa
cturing Information (PMI)---4.0---2014-10-13',
'CAx-IF Rec.Pracs.---3D Tessellated Geometry---0.4---2014-09-14','2;1'),

/* implementation_level */ '2;1');

FILE_NAME(
/* name */ '682244c0802feb7194b6982d',
/* time_stamp */ '2025-05-12T18:58:08Z',
/* author */ (''),
/* organization */ (''),
/* preprocessor_version */ 'ST-DEVELOPER v20',
/* originating_system */ 'ONSHAPE BY PTC INC, 1.197',
/* authorisation */ '  ');

FILE_SCHEMA (('AP242_MANAGED_MODEL_BASED_3D_ENGINEERING_MIM_LF { 1 0 10303 442 1 1 4 }'));
ENDSEC;

DATA;
#10=SHAPE_REPRESENTATION_RELATIONSHIP('','',#625,#11);
#11=ADVANCED_BREP_SHAPE_REPRESENTATION('',(#623),#1011);
#12=CYLINDRICAL_SURFACE('',#630,0.0021);
#13=CYLINDRICAL_SURFACE('',#633,0.0021);
#14=CYLINDRICAL_SURFACE('',#644,0.0045);
#15=CYLINDRICAL_SURFACE('',#646,0.0011);
#16=CYLINDRICAL_SURFACE('',#649,0.0011);
#17=CYLINDRICAL_SURFACE('',#673,0.002);
#18=CYLINDRICAL_SURFACE('',#674,0.002);
#19=CIRCLE('',#628,0.002);
#20=CIRCLE('',#629,0.002);
#21=CIRCLE('',#631,0.0021);
#22=CIRCLE('',#632,0.0021);
#23=CIRCLE('',#634,0.0021);
#24=CIRCLE('',#635,0.0021);
#25=CIRCLE('',#638,0.0011);
#26=CIRCLE('',#639,0.0045);
#27=CIRCLE('',#642,0.0045);
#28=CIRCLE('',#643,0.0011);
#29=CIRCLE('',#647,0.0011);
#30=CIRCLE('',#650,0.0011);
#31=CIRCLE('',#654,0.002);
#32=CIRCLE('',#655,0.002);
#33=ORIENTED_EDGE('',*,*,#193,.F.);
#34=ORIENTED_EDGE('',*,*,#194,.F.);
#35=ORIENTED_EDGE('',*,*,#195,.F.);
#36=ORIENTED_EDGE('',*,*,#196,.F.);
#37=ORIENTED_EDGE('',*,*,#197,.F.);
#38=ORIENTED_EDGE('',*,*,#198,.F.);
#39=ORIENTED_EDGE('',*,*,#199,.F.);
#40=ORIENTED_EDGE('',*,*,#200,.T.);
#41=ORIENTED_EDGE('',*,*,#201,.F.);
#42=ORIENTED_EDGE('',*,*,#202,.T.);
#43=ORIENTED_EDGE('',*,*,#203,.T.);
#44=ORIENTED_EDGE('',*,*,#204,.T.);
#45=ORIENTED_EDGE('',*,*,#205,.T.);
#46=ORIENTED_EDGE('',*,*,#206,.T.);
#47=ORIENTED_EDGE('',*,*,#207,.T.);
#48=ORIENTED_EDGE('',*,*,#208,.T.);
#49=ORIENTED_EDGE('',*,*,#209,.T.);
#50=ORIENTED_EDGE('',*,*,#210,.T.);
#51=ORIENTED_EDGE('',*,*,#211,.F.);
#52=ORIENTED_EDGE('',*,*,#212,.T.);
#53=ORIENTED_EDGE('',*,*,#213,.F.);
#54=ORIENTED_EDGE('',*,*,#214,.T.);
#55=ORIENTED_EDGE('',*,*,#215,.T.);
#56=ORIENTED_EDGE('',*,*,#216,.T.);
#57=ORIENTED_EDGE('',*,*,#217,.F.);
#58=ORIENTED_EDGE('',*,*,#218,.T.);
#59=ORIENTED_EDGE('',*,*,#219,.T.);
#60=ORIENTED_EDGE('',*,*,#201,.T.);
#61=ORIENTED_EDGE('',*,*,#220,.T.);
#62=ORIENTED_EDGE('',*,*,#221,.F.);
#63=ORIENTED_EDGE('',*,*,#222,.T.);
#64=ORIENTED_EDGE('',*,*,#223,.F.);
#65=ORIENTED_EDGE('',*,*,#224,.F.);
#66=ORIENTED_EDGE('',*,*,#225,.F.);
#67=ORIENTED_EDGE('',*,*,#226,.F.);
#68=ORIENTED_EDGE('',*,*,#215,.F.);
#69=ORIENTED_EDGE('',*,*,#227,.T.);
#70=ORIENTED_EDGE('',*,*,#228,.F.);
#71=ORIENTED_EDGE('',*,*,#229,.T.);
#72=ORIENTED_EDGE('',*,*,#199,.T.);
#73=ORIENTED_EDGE('',*,*,#230,.T.);
#74=ORIENTED_EDGE('',*,*,#231,.T.);
#75=ORIENTED_EDGE('',*,*,#232,.T.);
#76=ORIENTED_EDGE('',*,*,#203,.F.);
#77=ORIENTED_EDGE('',*,*,#233,.T.);
#78=ORIENTED_EDGE('',*,*,#217,.T.);
#79=ORIENTED_EDGE('',*,*,#234,.F.);
#80=ORIENTED_EDGE('',*,*,#235,.F.);
#81=ORIENTED_EDGE('',*,*,#236,.F.);
#82=ORIENTED_EDGE('',*,*,#237,.T.);
#83=ORIENTED_EDGE('',*,*,#238,.F.);
#84=ORIENTED_EDGE('',*,*,#239,.F.);
#85=ORIENTED_EDGE('',*,*,#218,.F.);
#86=ORIENTED_EDGE('',*,*,#233,.F.);
#87=ORIENTED_EDGE('',*,*,#202,.F.);
#88=ORIENTED_EDGE('',*,*,#227,.F.);
#89=ORIENTED_EDGE('',*,*,#240,.F.);
#90=ORIENTED_EDGE('',*,*,#223,.T.);
#91=ORIENTED_EDGE('',*,*,#241,.F.);
#92=ORIENTED_EDGE('',*,*,#237,.F.);
#93=ORIENTED_EDGE('',*,*,#242,.F.);
#94=ORIENTED_EDGE('',*,*,#239,.T.);
#95=ORIENTED_EDGE('',*,*,#242,.T.);
#96=ORIENTED_EDGE('',*,*,#243,.T.);
#97=ORIENTED_EDGE('',*,*,#219,.F.);
#98=ORIENTED_EDGE('',*,*,#243,.F.);
#99=ORIENTED_EDGE('',*,*,#241,.T.);
#100=ORIENTED_EDGE('',*,*,#222,.F.);
#101=ORIENTED_EDGE('',*,*,#244,.F.);
#102=ORIENTED_EDGE('',*,*,#238,.T.);
#103=ORIENTED_EDGE('',*,*,#213,.T.);
#104=ORIENTED_EDGE('',*,*,#211,.T.);
#105=ORIENTED_EDGE('',*,*,#221,.T.);
#106=ORIENTED_EDGE('',*,*,#245,.T.);
#107=ORIENTED_EDGE('',*,*,#228,.T.);
#108=ORIENTED_EDGE('',*,*,#246,.T.);
#109=ORIENTED_EDGE('',*,*,#231,.F.);
#110=ORIENTED_EDGE('',*,*,#244,.T.);
#111=ORIENTED_EDGE('',*,*,#224,.T.);
#112=ORIENTED_EDGE('',*,*,#240,.T.);
#113=ORIENTED_EDGE('',*,*,#236,.T.);
#114=ORIENTED_EDGE('',*,*,#247,.F.);
#115=ORIENTED_EDGE('',*,*,#225,.T.);
#116=ORIENTED_EDGE('',*,*,#247,.T.);
#117=ORIENTED_EDGE('',*,*,#235,.T.);
#118=ORIENTED_EDGE('',*,*,#248,.F.);
#119=ORIENTED_EDGE('',*,*,#226,.T.);
#120=ORIENTED_EDGE('',*,*,#248,.T.);
#121=ORIENTED_EDGE('',*,*,#234,.T.);
#122=ORIENTED_EDGE('',*,*,#216,.F.);
#123=ORIENTED_EDGE('',*,*,#205,.F.);
#124=ORIENTED_EDGE('',*,*,#249,.F.);
#125=ORIENTED_EDGE('',*,*,#250,.T.);
#126=ORIENTED_EDGE('',*,*,#251,.T.);
#127=ORIENTED_EDGE('',*,*,#210,.F.);
#128=ORIENTED_EDGE('',*,*,#252,.F.);
#129=ORIENTED_EDGE('',*,*,#253,.T.);
#130=ORIENTED_EDGE('',*,*,#249,.T.);
#131=ORIENTED_EDGE('',*,*,#209,.F.);
#132=ORIENTED_EDGE('',*,*,#254,.F.);
#133=ORIENTED_EDGE('',*,*,#255,.T.);
#134=ORIENTED_EDGE('',*,*,#252,.T.);
#135=ORIENTED_EDGE('',*,*,#208,.F.);
#136=ORIENTED_EDGE('',*,*,#256,.F.);
#137=ORIENTED_EDGE('',*,*,#257,.T.);
#138=ORIENTED_EDGE('',*,*,#254,.T.);
#139=ORIENTED_EDGE('',*,*,#207,.F.);
#140=ORIENTED_EDGE('',*,*,#258,.F.);
#141=ORIENTED_EDGE('',*,*,#259,.T.);
#142=ORIENTED_EDGE('',*,*,#256,.T.);
#143=ORIENTED_EDGE('',*,*,#206,.F.);
#144=ORIENTED_EDGE('',*,*,#251,.F.);
#145=ORIENTED_EDGE('',*,*,#260,.T.);
#146=ORIENTED_EDGE('',*,*,#258,.T.);
#147=ORIENTED_EDGE('',*,*,#214,.F.);
#148=ORIENTED_EDGE('',*,*,#250,.F.);
#149=ORIENTED_EDGE('',*,*,#253,.F.);
#150=ORIENTED_EDGE('',*,*,#255,.F.);
#151=ORIENTED_EDGE('',*,*,#257,.F.);
#152=ORIENTED_EDGE('',*,*,#259,.F.);
#153=ORIENTED_EDGE('',*,*,#260,.F.);
#154=ORIENTED_EDGE('',*,*,#194,.T.);
#155=ORIENTED_EDGE('',*,*,#261,.F.);
#156=ORIENTED_EDGE('',*,*,#262,.F.);
#157=ORIENTED_EDGE('',*,*,#263,.T.);
#158=ORIENTED_EDGE('',*,*,#193,.T.);
#159=ORIENTED_EDGE('',*,*,#264,.F.);
#160=ORIENTED_EDGE('',*,*,#265,.F.);
#161=ORIENTED_EDGE('',*,*,#261,.T.);
#162=ORIENTED_EDGE('',*,*,#198,.T.);
#163=ORIENTED_EDGE('',*,*,#266,.F.);
#164=ORIENTED_EDGE('',*,*,#267,.F.);
#165=ORIENTED_EDGE('',*,*,#264,.T.);
#166=ORIENTED_EDGE('',*,*,#197,.T.);
#167=ORIENTED_EDGE('',*,*,#268,.F.);
#168=ORIENTED_EDGE('',*,*,#269,.F.);
#169=ORIENTED_EDGE('',*,*,#266,.T.);
#170=ORIENTED_EDGE('',*,*,#196,.T.);
#171=ORIENTED_EDGE('',*,*,#270,.F.);
#172=ORIENTED_EDGE('',*,*,#271,.F.);
#173=ORIENTED_EDGE('',*,*,#268,.T.);
#174=ORIENTED_EDGE('',*,*,#195,.T.);
#175=ORIENTED_EDGE('',*,*,#263,.F.);
#176=ORIENTED_EDGE('',*,*,#272,.F.);
#177=ORIENTED_EDGE('',*,*,#270,.T.);
#178=ORIENTED_EDGE('',*,*,#212,.F.);
#179=ORIENTED_EDGE('',*,*,#262,.T.);
#180=ORIENTED_EDGE('',*,*,#265,.T.);
#181=ORIENTED_EDGE('',*,*,#267,.T.);
#182=ORIENTED_EDGE('',*,*,#269,.T.);
#183=ORIENTED_EDGE('',*,*,#271,.T.);
#184=ORIENTED_EDGE('',*,*,#272,.T.);
#185=ORIENTED_EDGE('',*,*,#245,.F.);
#186=ORIENTED_EDGE('',*,*,#220,.F.);
#187=ORIENTED_EDGE('',*,*,#200,.F.);
#188=ORIENTED_EDGE('',*,*,#229,.F.);
#189=ORIENTED_EDGE('',*,*,#246,.F.);
#190=ORIENTED_EDGE('',*,*,#230,.F.);
#191=ORIENTED_EDGE('',*,*,#204,.F.);
#192=ORIENTED_EDGE('',*,*,#232,.F.);
#193=EDGE_CURVE('',#273,#274,#329,.T.);
#194=EDGE_CURVE('',#275,#273,#330,.T.);
#195=EDGE_CURVE('',#276,#275,#331,.T.);
#196=EDGE_CURVE('',#277,#276,#332,.T.);
#197=EDGE_CURVE('',#278,#277,#333,.T.);
#198=EDGE_CURVE('',#274,#278,#334,.T.);
#199=EDGE_CURVE('',#279,#280,#335,.T.);
#200=EDGE_CURVE('',#279,#281,#19,.F.);
#201=EDGE_CURVE('',#282,#281,#336,.T.);
#202=EDGE_CURVE('',#282,#283,#337,.T.);
#203=EDGE_CURVE('',#283,#284,#338,.T.);
#204=EDGE_CURVE('',#284,#280,#20,.F.);
#205=EDGE_CURVE('',#285,#286,#339,.T.);
#206=EDGE_CURVE('',#286,#287,#340,.T.);
#207=EDGE_CURVE('',#287,#288,#341,.T.);
#208=EDGE_CURVE('',#288,#289,#342,.T.);
#209=EDGE_CURVE('',#289,#290,#343,.T.);
#210=EDGE_CURVE('',#290,#285,#344,.T.);
#211=EDGE_CURVE('',#291,#291,#21,.T.);
#212=EDGE_CURVE('',#292,#292,#22,.T.);
#213=EDGE_CURVE('',#293,#293,#23,.T.);
#214=EDGE_CURVE('',#294,#294,#24,.T.);
#215=EDGE_CURVE('',#295,#296,#345,.T.);
#216=EDGE_CURVE('',#296,#297,#346,.T.);
#217=EDGE_CURVE('',#298,#297,#347,.T.);
#218=EDGE_CURVE('',#298,#295,#348,.T.);
#219=EDGE_CURVE('',#299,#299,#25,.T.);
#220=EDGE_CURVE('',#281,#300,#349,.F.);
#221=EDGE_CURVE('',#301,#300,#350,.T.);
#222=EDGE_CURVE('',#301,#302,#351,.T.);
#223=EDGE_CURVE('',#303,#302,#352,.T.);
#224=EDGE_CURVE('',#304,#303,#353,.T.);
#225=EDGE_CURVE('',#305,#304,#354,.T.);
#226=EDGE_CURVE('',#296,#305,#355,.T.);
#227=EDGE_CURVE('',#295,#282,#26,.F.);
#228=EDGE_CURVE('',#306,#307,#356,.T.);
#229=EDGE_CURVE('',#306,#279,#357,.T.);
#230=EDGE_CURVE('',#280,#307,#358,.F.);
#231=EDGE_CURVE('',#308,#309,#359,.T.);
#232=EDGE_CURVE('',#309,#284,#360,.T.);
#233=EDGE_CURVE('',#283,#298,#27,.T.);
#234=EDGE_CURVE('',#310,#297,#361,.T.);
#235=EDGE_CURVE('',#311,#310,#362,.T.);
#236=EDGE_CURVE('',#312,#311,#363,.T.);
#237=EDGE_CURVE('',#312,#313,#364,.T.);
#238=EDGE_CURVE('',#308,#313,#365,.T.);
#239=EDGE_CURVE('',#314,#314,#28,.T.);
#240=EDGE_CURVE('',#303,#312,#366,.T.);
#241=EDGE_CURVE('',#313,#302,#367,.T.);
#242=EDGE_CURVE('',#315,#315,#29,.T.);
#243=EDGE_CURVE('',#316,#316,#30,.T.);
#244=EDGE_CURVE('',#308,#301,#368,.T.);
#245=EDGE_CURVE('',#300,#306,#31,.T.);
#246=EDGE_CURVE('',#307,#309,#32,.T.);
#247=EDGE_CURVE('',#304,#311,#369,.T.);
#248=EDGE_CURVE('',#305,#310,#370,.T.);
#249=EDGE_CURVE('',#317,#285,#371,.T.);
#250=EDGE_CURVE('',#317,#318,#372,.T.);
#251=EDGE_CURVE('',#318,#286,#373,.T.);
#252=EDGE_CURVE('',#319,#290,#374,.T.);
#253=EDGE_CURVE('',#319,#317,#375,.T.);
#254=EDGE_CURVE('',#320,#289,#376,.T.);
#255=EDGE_CURVE('',#320,#319,#377,.T.);
#256=EDGE_CURVE('',#321,#288,#378,.T.);
#257=EDGE_CURVE('',#321,#320,#379,.T.);
#258=EDGE_CURVE('',#322,#287,#380,.T.);
#259=EDGE_CURVE('',#322,#321,#381,.T.);
#260=EDGE_CURVE('',#318,#322,#382,.T.);
#261=EDGE_CURVE('',#323,#273,#383,.T.);
#262=EDGE_CURVE('',#324,#323,#384,.T.);
#263=EDGE_CURVE('',#324,#275,#385,.T.);
#264=EDGE_CURVE('',#325,#274,#386,.T.);
#265=EDGE_CURVE('',#323,#325,#387,.T.);
#266=EDGE_CURVE('',#326,#278,#388,.T.);
#267=EDGE_CURVE('',#325,#326,#389,.T.);
#268=EDGE_CURVE('',#327,#277,#390,.T.);
#269=EDGE_CURVE('',#326,#327,#391,.T.);
#270=EDGE_CURVE('',#328,#276,#392,.T.);
#271=EDGE_CURVE('',#327,#328,#393,.T.);
#272=EDGE_CURVE('',#328,#324,#394,.T.);
#273=VERTEX_POINT('',#842);
#274=VERTEX_POINT('',#843);
#275=VERTEX_POINT('',#845);
#276=VERTEX_POINT('',#847);
#277=VERTEX_POINT('',#849);
#278=VERTEX_POINT('',#851);
#279=VERTEX_POINT('',#854);
#280=VERTEX_POINT('',#855);
#281=VERTEX_POINT('',#857);
#282=VERTEX_POINT('',#859);
#283=VERTEX_POINT('',#861);
#284=VERTEX_POINT('',#863);
#285=VERTEX_POINT('',#866);
#286=VERTEX_POINT('',#867);
#287=VERTEX_POINT('',#869);
#288=VERTEX_POINT('',#871);
#289=VERTEX_POINT('',#873);
#290=VERTEX_POINT('',#875);
#291=VERTEX_POINT('',#879);
#292=VERTEX_POINT('',#881);
#293=VERTEX_POINT('',#884);
#294=VERTEX_POINT('',#886);
#295=VERTEX_POINT('',#889);
#296=VERTEX_POINT('',#890);
#297=VERTEX_POINT('',#892);
#298=VERTEX_POINT('',#894);
#299=VERTEX_POINT('',#898);
#300=VERTEX_POINT('',#900);
#301=VERTEX_POINT('',#902);
#302=VERTEX_POINT('',#904);
#303=VERTEX_POINT('',#906);
#304=VERTEX_POINT('',#908);
#305=VERTEX_POINT('',#910);
#306=VERTEX_POINT('',#915);
#307=VERTEX_POINT('',#916);
#308=VERTEX_POINT('',#921);
#309=VERTEX_POINT('',#922);
#310=VERTEX_POINT('',#926);
#311=VERTEX_POINT('',#928);
#312=VERTEX_POINT('',#930);
#313=VERTEX_POINT('',#932);
#314=VERTEX_POINT('',#935);
#315=VERTEX_POINT('',#942);
#316=VERTEX_POINT('',#946);
#317=VERTEX_POINT('',#960);
#318=VERTEX_POINT('',#962);
#319=VERTEX_POINT('',#966);
#320=VERTEX_POINT('',#970);
#321=VERTEX_POINT('',#974);
#322=VERTEX_POINT('',#978);
#323=VERTEX_POINT('',#985);
#324=VERTEX_POINT('',#987);
#325=VERTEX_POINT('',#991);
#326=VERTEX_POINT('',#995);
#327=VERTEX_POINT('',#999);
#328=VERTEX_POINT('',#1003);
#329=LINE('',#841,#395);
#330=LINE('',#844,#396);
#331=LINE('',#846,#397);
#332=LINE('',#848,#398);
#333=LINE('',#850,#399);
#334=LINE('',#852,#400);
#335=LINE('',#853,#401);
#336=LINE('',#858,#402);
#337=LINE('',#860,#403);
#338=LINE('',#862,#404);
#339=LINE('',#865,#405);
#340=LINE('',#868,#406);
#341=LINE('',#870,#407);
#342=LINE('',#872,#408);
#343=LINE('',#874,#409);
#344=LINE('',#876,#410);
#345=LINE('',#888,#411);
#346=LINE('',#891,#412);
#347=LINE('',#893,#413);
#348=LINE('',#895,#414);
#349=LINE('',#899,#415);
#350=LINE('',#901,#416);
#351=LINE('',#903,#417);
#352=LINE('',#905,#418);
#353=LINE('',#907,#419);
#354=LINE('',#909,#420);
#355=LINE('',#911,#421);
#356=LINE('',#914,#422);
#357=LINE('',#917,#423);
#358=LINE('',#918,#424);
#359=LINE('',#920,#425);
#360=LINE('',#923,#426);
#361=LINE('',#925,#427);
#362=LINE('',#927,#428);
#363=LINE('',#929,#429);
#364=LINE('',#931,#430);
#365=LINE('',#933,#431);
#366=LINE('',#938,#432);
#367=LINE('',#939,#433);
#368=LINE('',#949,#434);
#369=LINE('',#954,#435);
#370=LINE('',#956,#436);
#371=LINE('',#959,#437);
#372=LINE('',#961,#438);
#373=LINE('',#963,#439);
#374=LINE('',#965,#440);
#375=LINE('',#967,#441);
#376=LINE('',#969,#442);
#377=LINE('',#971,#443);
#378=LINE('',#973,#444);
#379=LINE('',#975,#445);
#380=LINE('',#977,#446);
#381=LINE('',#979,#447);
#382=LINE('',#981,#448);
#383=LINE('',#984,#449);
#384=LINE('',#986,#450);
#385=LINE('',#988,#451);
#386=LINE('',#990,#452);
#387=LINE('',#992,#453);
#388=LINE('',#994,#454);
#389=LINE('',#996,#455);
#390=LINE('',#998,#456);
#391=LINE('',#1000,#457);
#392=LINE('',#1002,#458);
#393=LINE('',#1004,#459);
#394=LINE('',#1006,#460);
#395=VECTOR('',#679,1.);
#396=VECTOR('',#680,1.);
#397=VECTOR('',#681,1.);
#398=VECTOR('',#682,1.);
#399=VECTOR('',#683,1.);
#400=VECTOR('',#684,1.);
#401=VECTOR('',#685,1.);
#402=VECTOR('',#688,1.);
#403=VECTOR('',#689,1.);
#404=VECTOR('',#690,1.);
#405=VECTOR('',#693,1.);
#406=VECTOR('',#694,1.);
#407=VECTOR('',#695,1.);
#408=VECTOR('',#696,1.);
#409=VECTOR('',#697,1.);
#410=VECTOR('',#698,1.);
#411=VECTOR('',#713,1.);
#412=VECTOR('',#714,1.);
#413=VECTOR('',#715,1.);
#414=VECTOR('',#716,1.);
#415=VECTOR('',#721,1.);
#416=VECTOR('',#722,1.);
#417=VECTOR('',#723,1.);
#418=VECTOR('',#724,1.);
#419=VECTOR('',#725,1.);
#420=VECTOR('',#726,1.);
#421=VECTOR('',#727,1.);
#422=VECTOR('',#732,1.);
#423=VECTOR('',#733,1.);
#424=VECTOR('',#734,1.);
#425=VECTOR('',#737,1.);
#426=VECTOR('',#738,1.);
#427=VECTOR('',#741,1.);
#428=VECTOR('',#742,1.);
#429=VECTOR('',#743,1.);
#430=VECTOR('',#744,1.);
#431=VECTOR('',#745,1.);
#432=VECTOR('',#752,1.);
#433=VECTOR('',#753,1.);
#434=VECTOR('',#768,1.);
#435=VECTOR('',#777,1.);
#436=VECTOR('',#780,1.);
#437=VECTOR('',#785,1.);
#438=VECTOR('',#786,1.);
#439=VECTOR('',#787,1.);
#440=VECTOR('',#790,1.);
#441=VECTOR('',#791,1.);
#442=VECTOR('',#794,1.);
#443=VECTOR('',#795,1.);
#444=VECTOR('',#798,1.);
#445=VECTOR('',#799,1.);
#446=VECTOR('',#802,1.);
#447=VECTOR('',#803,1.);
#448=VECTOR('',#806,1.);
#449=VECTOR('',#811,1.);
#450=VECTOR('',#812,1.);
#451=VECTOR('',#813,1.);
#452=VECTOR('',#816,1.);
#453=VECTOR('',#817,1.);
#454=VECTOR('',#820,1.);
#455=VECTOR('',#821,1.);
#456=VECTOR('',#824,1.);
#457=VECTOR('',#825,1.);
#458=VECTOR('',#828,1.);
#459=VECTOR('',#829,1.);
#460=VECTOR('',#832,1.);
#461=EDGE_LOOP('',(#33,#34,#35,#36,#37,#38));
#462=EDGE_LOOP('',(#39,#40,#41,#42,#43,#44));
#463=EDGE_LOOP('',(#45,#46,#47,#48,#49,#50));
#464=EDGE_LOOP('',(#51));
#465=EDGE_LOOP('',(#52));
#466=EDGE_LOOP('',(#53));
#467=EDGE_LOOP('',(#54));
#468=EDGE_LOOP('',(#55,#56,#57,#58));
#469=EDGE_LOOP('',(#59));
#470=EDGE_LOOP('',(#60,#61,#62,#63,#64,#65,#66,#67,#68,#69));
#471=EDGE_LOOP('',(#70,#71,#72,#73));
#472=EDGE_LOOP('',(#74,#75,#76,#77,#78,#79,#80,#81,#82,#83));
#473=EDGE_LOOP('',(#84));
#474=EDGE_LOOP('',(#85,#86,#87,#88));
#475=EDGE_LOOP('',(#89,#90,#91,#92));
#476=EDGE_LOOP('',(#93));
#477=EDGE_LOOP('',(#94));
#478=EDGE_LOOP('',(#95));
#479=EDGE_LOOP('',(#96));
#480=EDGE_LOOP('',(#97));
#481=EDGE_LOOP('',(#98));
#482=EDGE_LOOP('',(#99,#100,#101,#102));
#483=EDGE_LOOP('',(#103));
#484=EDGE_LOOP('',(#104));
#485=EDGE_LOOP('',(#105,#106,#107,#108,#109,#110));
#486=EDGE_LOOP('',(#111,#112,#113,#114));
#487=EDGE_LOOP('',(#115,#116,#117,#118));
#488=EDGE_LOOP('',(#119,#120,#121,#122));
#489=EDGE_LOOP('',(#123,#124,#125,#126));
#490=EDGE_LOOP('',(#127,#128,#129,#130));
#491=EDGE_LOOP('',(#131,#132,#133,#134));
#492=EDGE_LOOP('',(#135,#136,#137,#138));
#493=EDGE_LOOP('',(#139,#140,#141,#142));
#494=EDGE_LOOP('',(#143,#144,#145,#146));
#495=EDGE_LOOP('',(#147));
#496=EDGE_LOOP('',(#148,#149,#150,#151,#152,#153));
#497=EDGE_LOOP('',(#154,#155,#156,#157));
#498=EDGE_LOOP('',(#158,#159,#160,#161));
#499=EDGE_LOOP('',(#162,#163,#164,#165));
#500=EDGE_LOOP('',(#166,#167,#168,#169));
#501=EDGE_LOOP('',(#170,#171,#172,#173));
#502=EDGE_LOOP('',(#174,#175,#176,#177));
#503=EDGE_LOOP('',(#178));
#504=EDGE_LOOP('',(#179,#180,#181,#182,#183,#184));
#505=EDGE_LOOP('',(#185,#186,#187,#188));
#506=EDGE_LOOP('',(#189,#190,#191,#192));
#507=FACE_BOUND('',#461,.T.);
#508=FACE_BOUND('',#462,.T.);
#509=FACE_BOUND('',#463,.T.);
#510=FACE_BOUND('',#464,.T.);
#511=FACE_BOUND('',#465,.T.);
#512=FACE_BOUND('',#466,.T.);
#513=FACE_BOUND('',#467,.T.);
#514=FACE_BOUND('',#468,.T.);
#515=FACE_BOUND('',#469,.T.);
#516=FACE_BOUND('',#470,.T.);
#517=FACE_BOUND('',#471,.T.);
#518=FACE_BOUND('',#472,.T.);
#519=FACE_BOUND('',#473,.T.);
#520=FACE_BOUND('',#474,.T.);
#521=FACE_BOUND('',#475,.T.);
#522=FACE_BOUND('',#476,.T.);
#523=FACE_BOUND('',#477,.T.);
#524=FACE_BOUND('',#478,.T.);
#525=FACE_BOUND('',#479,.T.);
#526=FACE_BOUND('',#480,.T.);
#527=FACE_BOUND('',#481,.T.);
#528=FACE_BOUND('',#482,.T.);
#529=FACE_BOUND('',#483,.T.);
#530=FACE_BOUND('',#484,.T.);
#531=FACE_BOUND('',#485,.T.);
#532=FACE_BOUND('',#486,.T.);
#533=FACE_BOUND('',#487,.T.);
#534=FACE_BOUND('',#488,.T.);
#535=FACE_BOUND('',#489,.T.);
#536=FACE_BOUND('',#490,.T.);
#537=FACE_BOUND('',#491,.T.);
#538=FACE_BOUND('',#492,.T.);
#539=FACE_BOUND('',#493,.T.);
#540=FACE_BOUND('',#494,.T.);
#541=FACE_BOUND('',#495,.T.);
#542=FACE_BOUND('',#496,.T.);
#543=FACE_BOUND('',#497,.T.);
#544=FACE_BOUND('',#498,.T.);
#545=FACE_BOUND('',#499,.T.);
#546=FACE_BOUND('',#500,.T.);
#547=FACE_BOUND('',#501,.T.);
#548=FACE_BOUND('',#502,.T.);
#549=FACE_BOUND('',#503,.T.);
#550=FACE_BOUND('',#504,.T.);
#551=FACE_BOUND('',#505,.T.);
#552=FACE_BOUND('',#506,.T.);
#553=PLANE('',#627);
#554=PLANE('',#636);
#555=PLANE('',#637);
#556=PLANE('',#640);
#557=PLANE('',#641);
#558=PLANE('',#645);
#559=PLANE('',#648);
#560=PLANE('',#651);
#561=PLANE('',#652);
#562=PLANE('',#653);
#563=PLANE('',#656);
#564=PLANE('',#657);
#565=PLANE('',#658);
#566=PLANE('',#659);
#567=PLANE('',#660);
#568=PLANE('',#661);
#569=PLANE('',#662);
#570=PLANE('',#663);
#571=PLANE('',#664);
#572=PLANE('',#665);
#573=PLANE('',#666);
#574=PLANE('',#667);
#575=PLANE('',#668);
#576=PLANE('',#669);
#577=PLANE('',#670);
#578=PLANE('',#671);
#579=PLANE('',#672);
#580=ADVANCED_FACE('',(#507,#508,#509),#553,.F.);
#581=ADVANCED_FACE('',(#510,#511),#12,.F.);
#582=ADVANCED_FACE('',(#512,#513),#13,.F.);
#583=ADVANCED_FACE('',(#514),#554,.T.);
#584=ADVANCED_FACE('',(#515,#516),#555,.F.);
#585=ADVANCED_FACE('',(#517),#556,.F.);
#586=ADVANCED_FACE('',(#518,#519),#557,.T.);
#587=ADVANCED_FACE('',(#520),#14,.T.);
#588=ADVANCED_FACE('',(#521),#558,.T.);
#589=ADVANCED_FACE('',(#522,#523),#15,.F.);
#590=ADVANCED_FACE('',(#524),#559,.T.);
#591=ADVANCED_FACE('',(#525,#526),#16,.F.);
#592=ADVANCED_FACE('',(#527),#560,.F.);
#593=ADVANCED_FACE('',(#528),#561,.F.);
#594=ADVANCED_FACE('',(#529,#530,#531),#562,.T.);
#595=ADVANCED_FACE('',(#532),#563,.F.);
#596=ADVANCED_FACE('',(#533),#564,.F.);
#597=ADVANCED_FACE('',(#534),#565,.F.);
#598=ADVANCED_FACE('',(#535),#566,.T.);
#599=ADVANCED_FACE('',(#536),#567,.T.);
#600=ADVANCED_FACE('',(#537),#568,.T.);
#601=ADVANCED_FACE('',(#538),#569,.T.);
#602=ADVANCED_FACE('',(#539),#570,.T.);
#603=ADVANCED_FACE('',(#540),#571,.T.);
#604=ADVANCED_FACE('',(#541,#542),#572,.T.);
#605=ADVANCED_FACE('',(#543),#573,.F.);
#606=ADVANCED_FACE('',(#544),#574,.F.);
#607=ADVANCED_FACE('',(#545),#575,.F.);
#608=ADVANCED_FACE('',(#546),#576,.F.);
#609=ADVANCED_FACE('',(#547),#577,.F.);
#610=ADVANCED_FACE('',(#548),#578,.F.);
#611=ADVANCED_FACE('',(#549,#550),#579,.T.);
#612=ADVANCED_FACE('',(#551),#17,.T.);
#613=ADVANCED_FACE('',(#552),#18,.T.);
#614=CLOSED_SHELL('',(#580,#581,#582,#583,#584,#585,#586,#587,#588,#589,
#590,#591,#592,#593,#594,#595,#596,#597,#598,#599,#600,#601,#602,#603,#604,
#605,#606,#607,#608,#609,#610,#611,#612,#613));
#615=STYLED_ITEM('',(#616),#623);
#616=PRESENTATION_STYLE_ASSIGNMENT((#617));
#617=SURFACE_STYLE_USAGE(.BOTH.,#618);
#618=SURFACE_SIDE_STYLE('',(#619));
#619=SURFACE_STYLE_FILL_AREA(#620);
#620=FILL_AREA_STYLE('',(#621));
#621=FILL_AREA_STYLE_COLOUR('',#622);
#622=COLOUR_RGB('',0.235294117647059,0.235294117647059,0.235294117647059);
#623=MANIFOLD_SOLID_BREP('Hinge',#614);
#624=SHAPE_DEFINITION_REPRESENTATION(#1016,#625);
#625=SHAPE_REPRESENTATION('Hinge',(#626),#1011);
#626=AXIS2_PLACEMENT_3D('',#839,#675,#676);
#627=AXIS2_PLACEMENT_3D('',#840,#677,#678);
#628=AXIS2_PLACEMENT_3D('',#856,#686,#687);
#629=AXIS2_PLACEMENT_3D('',#864,#691,#692);
#630=AXIS2_PLACEMENT_3D('',#877,#699,#700);
#631=AXIS2_PLACEMENT_3D('',#878,#701,#702);
#632=AXIS2_PLACEMENT_3D('',#880,#703,#704);
#633=AXIS2_PLACEMENT_3D('',#882,#705,#706);
#634=AXIS2_PLACEMENT_3D('',#883,#707,#708);
#635=AXIS2_PLACEMENT_3D('',#885,#709,#710);
#636=AXIS2_PLACEMENT_3D('',#887,#711,#712);
#637=AXIS2_PLACEMENT_3D('',#896,#717,#718);
#638=AXIS2_PLACEMENT_3D('',#897,#719,#720);
#639=AXIS2_PLACEMENT_3D('',#912,#728,#729);
#640=AXIS2_PLACEMENT_3D('',#913,#730,#731);
#641=AXIS2_PLACEMENT_3D('',#919,#735,#736);
#642=AXIS2_PLACEMENT_3D('',#924,#739,#740);
#643=AXIS2_PLACEMENT_3D('',#934,#746,#747);
#644=AXIS2_PLACEMENT_3D('',#936,#748,#749);
#645=AXIS2_PLACEMENT_3D('',#937,#750,#751);
#646=AXIS2_PLACEMENT_3D('',#940,#754,#755);
#647=AXIS2_PLACEMENT_3D('',#941,#756,#757);
#648=AXIS2_PLACEMENT_3D('',#943,#758,#759);
#649=AXIS2_PLACEMENT_3D('',#944,#760,#761);
#650=AXIS2_PLACEMENT_3D('',#945,#762,#763);
#651=AXIS2_PLACEMENT_3D('',#947,#764,#765);
#652=AXIS2_PLACEMENT_3D('',#948,#766,#767);
#653=AXIS2_PLACEMENT_3D('',#950,#769,#770);
#654=AXIS2_PLACEMENT_3D('',#951,#771,#772);
#655=AXIS2_PLACEMENT_3D('',#952,#773,#774);
#656=AXIS2_PLACEMENT_3D('',#953,#775,#776);
#657=AXIS2_PLACEMENT_3D('',#955,#778,#779);
#658=AXIS2_PLACEMENT_3D('',#957,#781,#782);
#659=AXIS2_PLACEMENT_3D('',#958,#783,#784);
#660=AXIS2_PLACEMENT_3D('',#964,#788,#789);
#661=AXIS2_PLACEMENT_3D('',#968,#792,#793);
#662=AXIS2_PLACEMENT_3D('',#972,#796,#797);
#663=AXIS2_PLACEMENT_3D('',#976,#800,#801);
#664=AXIS2_PLACEMENT_3D('',#980,#804,#805);
#665=AXIS2_PLACEMENT_3D('',#982,#807,#808);
#666=AXIS2_PLACEMENT_3D('',#983,#809,#810);
#667=AXIS2_PLACEMENT_3D('',#989,#814,#815);
#668=AXIS2_PLACEMENT_3D('',#993,#818,#819);
#669=AXIS2_PLACEMENT_3D('',#997,#822,#823);
#670=AXIS2_PLACEMENT_3D('',#1001,#826,#827);
#671=AXIS2_PLACEMENT_3D('',#1005,#830,#831);
#672=AXIS2_PLACEMENT_3D('',#1007,#833,#834);
#673=AXIS2_PLACEMENT_3D('',#1008,#835,#836);
#674=AXIS2_PLACEMENT_3D('',#1009,#837,#838);
#675=DIRECTION('',(0.,0.,1.));
#676=DIRECTION('',(1.,0.,0.));
#677=DIRECTION('',(0.,0.,1.));
#678=DIRECTION('',(1.,0.,0.));
#679=DIRECTION('',(1.,-1.50231459873716E-15,0.));
#680=DIRECTION('',(0.5,0.866025403784438,0.));
#681=DIRECTION('',(-0.5,0.866025403784439,0.));
#682=DIRECTION('',(-1.,1.71693096998532E-15,0.));
#683=DIRECTION('',(-0.5,-0.866025403784438,0.));
#684=DIRECTION('',(0.5,-0.866025403784439,0.));
#685=DIRECTION('',(-5.25673780599032E-17,-1.,0.));
#686=DIRECTION('',(0.,0.,1.));
#687=DIRECTION('',(1.,0.,0.));
#688=DIRECTION('',(-1.,0.,0.));
#689=DIRECTION('',(0.,-1.,0.));
#690=DIRECTION('',(-1.,0.,0.));
#691=DIRECTION('',(0.,0.,1.));
#692=DIRECTION('',(1.,0.,0.));
#693=DIRECTION('',(-0.5,0.866025403784438,0.));
#694=DIRECTION('',(-1.,-2.14616371248166E-15,0.));
#695=DIRECTION('',(-0.5,-0.866025403784439,0.));
#696=DIRECTION('',(0.5,-0.866025403784438,0.));
#697=DIRECTION('',(1.,2.14616371248165E-15,0.));
#698=DIRECTION('',(0.5,0.86602540378444,0.));
#699=DIRECTION('',(0.,0.,-1.));
#700=DIRECTION('',(-1.,0.,0.));
#701=DIRECTION('',(0.,0.,-1.));
#702=DIRECTION('',(-1.,0.,0.));
#703=DIRECTION('',(0.,0.,-1.));
#704=DIRECTION('',(-1.,0.,0.));
#705=DIRECTION('',(0.,0.,-1.));
#706=DIRECTION('',(-1.,0.,0.));
#707=DIRECTION('',(0.,0.,-1.));
#708=DIRECTION('',(-1.,0.,0.));
#709=DIRECTION('',(0.,0.,-1.));
#710=DIRECTION('',(-1.,0.,0.));
#711=DIRECTION('',(0.,0.,1.));
#712=DIRECTION('',(1.,0.,0.));
#713=DIRECTION('',(-1.,0.,0.));
#714=DIRECTION('',(0.,-1.,0.));
#715=DIRECTION('',(-1.,0.,0.));
#716=DIRECTION('',(0.,1.,0.));
#717=DIRECTION('',(0.,-1.,0.));
#718=DIRECTION('',(0.,0.,-1.));
#719=DIRECTION('',(0.,-1.,0.));
#720=DIRECTION('',(0.,0.,-1.));
#721=DIRECTION('',(0.,0.,-1.));
#722=DIRECTION('',(-1.,0.,0.));
#723=DIRECTION('',(0.,0.,1.));
#724=DIRECTION('',(-1.,0.,0.));
#725=DIRECTION('',(-0.707106781186548,0.,0.707106781186547));
#726=DIRECTION('',(-1.,0.,0.));
#727=DIRECTION('',(-0.707106781186548,0.,-0.707106781186548));
#728=DIRECTION('',(0.,-1.,0.));
#729=DIRECTION('',(0.,0.,-1.));
#730=DIRECTION('',(1.,-5.25673780599033E-17,0.));
#731=DIRECTION('',(5.25673780599033E-17,1.,0.));
#732=DIRECTION('',(-5.25673780599032E-17,-1.,0.));
#733=DIRECTION('',(0.,0.,-1.));
#734=DIRECTION('',(0.,0.,-1.));
#735=DIRECTION('',(0.,-1.,0.));
#736=DIRECTION('',(0.,0.,-1.));
#737=DIRECTION('',(-1.,0.,0.));
#738=DIRECTION('',(0.,0.,-1.));
#739=DIRECTION('',(0.,-1.,0.));
#740=DIRECTION('',(0.,0.,-1.));
#741=DIRECTION('',(0.707106781186548,0.,0.707106781186548));
#742=DIRECTION('',(1.,0.,0.));
#743=DIRECTION('',(0.707106781186548,0.,-0.707106781186547));
#744=DIRECTION('',(-1.,0.,0.));
#745=DIRECTION('',(0.,0.,1.));
#746=DIRECTION('',(0.,-1.,0.));
#747=DIRECTION('',(0.,0.,-1.));
#748=DIRECTION('',(0.,1.,0.));
#749=DIRECTION('',(0.,0.,1.));
#750=DIRECTION('',(0.,0.,1.));
#751=DIRECTION('',(1.,0.,0.));
#752=DIRECTION('',(0.,-1.,0.));
#753=DIRECTION('',(-6.98973018548321E-17,1.,0.));
#754=DIRECTION('',(0.,-1.,0.));
#755=DIRECTION('',(0.,0.,-1.));
#756=DIRECTION('',(0.,-1.,0.));
#757=DIRECTION('',(0.,0.,-1.));
#758=DIRECTION('',(0.,-1.,0.));
#759=DIRECTION('',(1.,0.,0.));
#760=DIRECTION('',(0.,1.,0.));
#761=DIRECTION('',(0.,0.,1.));
#762=DIRECTION('',(0.,-1.,0.));
#763=DIRECTION('',(0.,0.,-1.));
#764=DIRECTION('',(0.,-1.,0.));
#765=DIRECTION('',(1.,0.,0.));
#766=DIRECTION('',(1.,6.98973018548321E-17,0.));
#767=DIRECTION('',(-6.98973018548321E-17,1.,0.));
#768=DIRECTION('',(-6.98973018548321E-17,1.,0.));
#769=DIRECTION('',(0.,0.,1.));
#770=DIRECTION('',(1.,0.,0.));
#771=DIRECTION('',(0.,0.,1.));
#772=DIRECTION('',(1.,0.,0.));
#773=DIRECTION('',(0.,0.,1.));
#774=DIRECTION('',(1.,0.,0.));
#775=DIRECTION('',(-0.707106781186547,0.,-0.707106781186548));
#776=DIRECTION('',(-0.707106781186548,0.,0.707106781186547));
#777=DIRECTION('',(0.,-1.,0.));
#778=DIRECTION('',(0.,0.,-1.));
#779=DIRECTION('',(-1.,0.,0.));
#780=DIRECTION('',(0.,-1.,0.));
#781=DIRECTION('',(0.707106781186548,0.,-0.707106781186548));
#782=DIRECTION('',(-0.707106781186548,0.,-0.707106781186548));
#783=DIRECTION('',(-0.866025403784438,-0.5,0.));
#784=DIRECTION('',(0.5,-0.866025403784438,0.));
#785=DIRECTION('',(0.,0.,-1.));
#786=DIRECTION('',(-0.5,0.866025403784438,0.));
#787=DIRECTION('',(0.,0.,-1.));
#788=DIRECTION('',(-0.866025403784439,0.5,0.));
#789=DIRECTION('',(-0.5,-0.86602540378444,0.));
#790=DIRECTION('',(0.,0.,-1.));
#791=DIRECTION('',(0.5,0.86602540378444,0.));
#792=DIRECTION('',(-2.14616371248165E-15,1.,0.));
#793=DIRECTION('',(-1.,-2.14616371248165E-15,0.));
#794=DIRECTION('',(0.,0.,-1.));
#795=DIRECTION('',(1.,2.14616371248165E-15,0.));
#796=DIRECTION('',(0.866025403784438,0.5,0.));
#797=DIRECTION('',(-0.5,0.866025403784438,0.));
#798=DIRECTION('',(0.,0.,-1.));
#799=DIRECTION('',(0.5,-0.866025403784438,0.));
#800=DIRECTION('',(0.866025403784439,-0.5,0.));
#801=DIRECTION('',(0.5,0.866025403784439,0.));
#802=DIRECTION('',(0.,0.,-1.));
#803=DIRECTION('',(-0.5,-0.866025403784439,0.));
#804=DIRECTION('',(2.14616371248166E-15,-1.,0.));
#805=DIRECTION('',(1.,2.14616371248166E-15,0.));
#806=DIRECTION('',(-1.,-2.14616371248166E-15,0.));
#807=DIRECTION('',(0.,0.,-1.));
#808=DIRECTION('',(1.,0.,0.));
#809=DIRECTION('',(-0.866025403784438,0.5,0.));
#810=DIRECTION('',(-0.5,-0.866025403784438,0.));
#811=DIRECTION('',(0.,0.,-1.));
#812=DIRECTION('',(0.5,0.866025403784438,0.));
#813=DIRECTION('',(0.,0.,-1.));
#814=DIRECTION('',(1.50231459873716E-15,1.,0.));
#815=DIRECTION('',(-1.,1.50231459873716E-15,0.));
#816=DIRECTION('',(0.,0.,-1.));
#817=DIRECTION('',(1.,-1.50231459873716E-15,0.));
#818=DIRECTION('',(0.866025403784439,0.5,0.));
#819=DIRECTION('',(-0.5,0.866025403784439,0.));
#820=DIRECTION('',(0.,0.,-1.));
#821=DIRECTION('',(0.5,-0.866025403784439,0.));
#822=DIRECTION('',(0.866025403784438,-0.5,0.));
#823=DIRECTION('',(0.5,0.866025403784438,0.));
#824=DIRECTION('',(0.,0.,-1.));
#825=DIRECTION('',(-0.5,-0.866025403784438,0.));
#826=DIRECTION('',(-1.71693096998532E-15,-1.,0.));
#827=DIRECTION('',(1.,-1.71693096998532E-15,0.));
#828=DIRECTION('',(0.,0.,-1.));
#829=DIRECTION('',(-1.,1.71693096998532E-15,0.));
#830=DIRECTION('',(-0.866025403784439,-0.5,0.));
#831=DIRECTION('',(0.5,-0.86602540378444,0.));
#832=DIRECTION('',(-0.5,0.866025403784439,0.));
#833=DIRECTION('',(0.,0.,-1.));
#834=DIRECTION('',(1.,0.,0.));
#835=DIRECTION('',(0.,0.,-1.));
#836=DIRECTION('',(-1.,0.,0.));
#837=DIRECTION('',(0.,0.,1.));
#838=DIRECTION('',(1.,0.,0.));
#839=CARTESIAN_POINT('',(0.,0.,0.));
#840=CARTESIAN_POINT('',(-3.46944695195361E-18,0.,0.));
#841=CARTESIAN_POINT('',(-0.01,-0.0065,0.));
#842=CARTESIAN_POINT('',(-0.0120207259421637,-0.0065,0.));
#843=CARTESIAN_POINT('',(-0.00797927405783631,-0.0065,0.));
#844=CARTESIAN_POINT('',(-0.0130310889132455,-0.00825,0.));
#845=CARTESIAN_POINT('',(-0.0140414518843274,-0.01,0.));
#846=CARTESIAN_POINT('',(-0.0130310889132455,-0.01175,0.));
#847=CARTESIAN_POINT('',(-0.0120207259421637,-0.0135,0.));
#848=CARTESIAN_POINT('',(-0.01,-0.0135,0.));
#849=CARTESIAN_POINT('',(-0.00797927405783631,-0.0135,0.));
#850=CARTESIAN_POINT('',(-0.00696891108675447,-0.01175,0.));
#851=CARTESIAN_POINT('',(-0.00595854811567262,-0.01,0.));
#852=CARTESIAN_POINT('',(-0.00696891108675447,-0.00825,0.));
#853=CARTESIAN_POINT('',(-0.015,0.,0.));
#854=CARTESIAN_POINT('',(-0.015,0.0145,0.));
#855=CARTESIAN_POINT('',(-0.015,-0.0145,0.));
#856=CARTESIAN_POINT('',(-0.013,0.0145,0.));
#857=CARTESIAN_POINT('',(-0.013,0.0165,0.));
#858=CARTESIAN_POINT('',(0.,0.0165,0.));
#859=CARTESIAN_POINT('',(0.0105,0.0165,0.));
#860=CARTESIAN_POINT('',(0.0105,-0.0165,0.));
#861=CARTESIAN_POINT('',(0.0105,-0.0165,0.));
#862=CARTESIAN_POINT('',(-1.7347234759768E-18,-0.0165,0.));
#863=CARTESIAN_POINT('',(-0.013,-0.0165,0.));
#864=CARTESIAN_POINT('',(-0.013,-0.0145,0.));
#865=CARTESIAN_POINT('',(-0.00696891108675446,0.01175,0.));
#866=CARTESIAN_POINT('',(-0.00595854811567263,0.01,0.));
#867=CARTESIAN_POINT('',(-0.00797927405783632,0.0135,0.));
#868=CARTESIAN_POINT('',(-0.01,0.0135,0.));
#869=CARTESIAN_POINT('',(-0.0120207259421637,0.0135,0.));
#870=CARTESIAN_POINT('',(-0.0130310889132455,0.01175,0.));
#871=CARTESIAN_POINT('',(-0.0140414518843274,0.01,0.));
#872=CARTESIAN_POINT('',(-0.0130310889132455,0.00825,0.));
#873=CARTESIAN_POINT('',(-0.0120207259421637,0.0065,0.));
#874=CARTESIAN_POINT('',(-0.01,0.0065,0.));
#875=CARTESIAN_POINT('',(-0.00797927405783631,0.0065,0.));
#876=CARTESIAN_POINT('',(-0.00696891108675447,0.00825,0.));
#877=CARTESIAN_POINT('',(-0.01,-0.01,0.005825));
#878=CARTESIAN_POINT('',(-0.01,-0.01,0.005825));
#879=CARTESIAN_POINT('',(-0.0121,-0.01,0.005825));
#880=CARTESIAN_POINT('',(-0.01,-0.01,0.003));
#881=CARTESIAN_POINT('',(-0.0121,-0.01,0.003));
#882=CARTESIAN_POINT('',(-0.01,0.01,0.005825));
#883=CARTESIAN_POINT('',(-0.01,0.01,0.005825));
#884=CARTESIAN_POINT('',(-0.0121,0.01,0.005825));
#885=CARTESIAN_POINT('',(-0.01,0.01,0.003));
#886=CARTESIAN_POINT('',(-0.0121,0.01,0.003));
#887=CARTESIAN_POINT('',(-3.46944695195361E-18,0.,0.009));
#888=CARTESIAN_POINT('',(0.,0.0165,0.009));
#889=CARTESIAN_POINT('',(0.0105,0.0165,0.009));
#890=CARTESIAN_POINT('',(0.01025,0.0165,0.009));
#891=CARTESIAN_POINT('',(0.01025,0.016502,0.009));
#892=CARTESIAN_POINT('',(0.01025,-0.0165,0.009));
#893=CARTESIAN_POINT('',(-1.7347234759768E-18,-0.0165,0.009));
#894=CARTESIAN_POINT('',(0.0105,-0.0165,0.009));
#895=CARTESIAN_POINT('',(0.0105,0.,0.009));
#896=CARTESIAN_POINT('',(0.,0.0165,0.009));
#897=CARTESIAN_POINT('',(0.0105,0.0165,0.0045));
#898=CARTESIAN_POINT('',(0.0105,0.0165,0.0034));
#899=CARTESIAN_POINT('',(-0.013,0.0165,0.009));
#900=CARTESIAN_POINT('',(-0.013,0.0165,0.005825));
#901=CARTESIAN_POINT('',(0.,0.0165,0.005825));
#902=CARTESIAN_POINT('',(-5.20417042793042E-18,0.0165,0.005825));
#903=CARTESIAN_POINT('',(-5.20417042793042E-18,0.0165,0.005825));
#904=CARTESIAN_POINT('',(-5.20417042793042E-18,0.0165,0.009));
#905=CARTESIAN_POINT('',(0.,0.0165,0.009));
#906=CARTESIAN_POINT('',(0.00505,0.0165,0.009));
#907=CARTESIAN_POINT('',(0.00555,0.0165,0.0085));
#908=CARTESIAN_POINT('',(0.00605,0.0165,0.008));
#909=CARTESIAN_POINT('',(0.00765,0.0165,0.008));
#910=CARTESIAN_POINT('',(0.00925,0.0165,0.008));
#911=CARTESIAN_POINT('',(0.00975,0.0165,0.0085));
#912=CARTESIAN_POINT('',(0.0105,0.0165,0.0045));
#913=CARTESIAN_POINT('',(-0.015,0.,0.009));
#914=CARTESIAN_POINT('',(-0.015,0.,0.005825));
#915=CARTESIAN_POINT('',(-0.015,0.0145,0.005825));
#916=CARTESIAN_POINT('',(-0.015,-0.0145,0.005825));
#917=CARTESIAN_POINT('',(-0.015,0.0145,0.009));
#918=CARTESIAN_POINT('',(-0.015,-0.0145,0.005825));
#919=CARTESIAN_POINT('',(-1.7347234759768E-18,-0.0165,0.009));
#920=CARTESIAN_POINT('',(-1.7347234759768E-18,-0.0165,0.005825));
#921=CARTESIAN_POINT('',(-2.31614147134889E-18,-0.0165,0.005825));
#922=CARTESIAN_POINT('',(-0.013,-0.0165,0.005825));
#923=CARTESIAN_POINT('',(-0.013,-0.0165,0.));
#924=CARTESIAN_POINT('',(0.0105,-0.0165,0.0045));
#925=CARTESIAN_POINT('',(0.00975,-0.0165,0.0085));
#926=CARTESIAN_POINT('',(0.00925,-0.0165,0.008));
#927=CARTESIAN_POINT('',(0.00765,-0.0165,0.008));
#928=CARTESIAN_POINT('',(0.00605,-0.0165,0.008));
#929=CARTESIAN_POINT('',(0.00555,-0.0165,0.0085));
#930=CARTESIAN_POINT('',(0.00505,-0.0165,0.009));
#931=CARTESIAN_POINT('',(-1.7347234759768E-18,-0.0165,0.009));
#932=CARTESIAN_POINT('',(-3.76015594963966E-18,-0.0165,0.009));
#933=CARTESIAN_POINT('',(-2.31614147134889E-18,-0.0165,0.005825));
#934=CARTESIAN_POINT('',(0.0105,-0.0165,0.0045));
#935=CARTESIAN_POINT('',(0.0105,-0.0165,0.0034));
#936=CARTESIAN_POINT('',(0.0105,-0.0165,0.0045));
#937=CARTESIAN_POINT('',(-3.46944695195361E-18,0.,0.009));
#938=CARTESIAN_POINT('',(0.00505,0.016502,0.009));
#939=CARTESIAN_POINT('',(-3.46944695195361E-18,0.,0.009));
#940=CARTESIAN_POINT('',(0.0105,-0.0015,0.0045));
#941=CARTESIAN_POINT('',(0.0105,-0.0015,0.0045));
#942=CARTESIAN_POINT('',(0.0105,-0.0015,0.0034));
#943=CARTESIAN_POINT('',(0.,-0.0015,0.0045));
#944=CARTESIAN_POINT('',(0.0105,0.0015,0.0045));
#945=CARTESIAN_POINT('',(0.0105,0.0015,0.0045));
#946=CARTESIAN_POINT('',(0.0105,0.0015,0.0034));
#947=CARTESIAN_POINT('',(0.,0.0015,0.0045));
#948=CARTESIAN_POINT('',(-3.46944695195361E-18,0.,0.005825));
#949=CARTESIAN_POINT('',(-3.46944695195361E-18,0.,0.005825));
#950=CARTESIAN_POINT('',(-0.00225,0.,0.005825));
#951=CARTESIAN_POINT('',(-0.013,0.0145,0.005825));
#952=CARTESIAN_POINT('',(-0.013,-0.0145,0.005825));
#953=CARTESIAN_POINT('',(0.00555,0.016502,0.0085));
#954=CARTESIAN_POINT('',(0.00605,0.016502,0.008));
#955=CARTESIAN_POINT('',(0.00765,0.016502,0.008));
#956=CARTESIAN_POINT('',(0.00925,0.016502,0.008));
#957=CARTESIAN_POINT('',(0.00975,0.016502,0.0085));
#958=CARTESIAN_POINT('',(-0.00696891108675446,0.01175,0.003));
#959=CARTESIAN_POINT('',(-0.00595854811567263,0.01,0.003));
#960=CARTESIAN_POINT('',(-0.00595854811567263,0.01,0.003));
#961=CARTESIAN_POINT('',(-0.00696891108675446,0.01175,0.003));
#962=CARTESIAN_POINT('',(-0.00797927405783632,0.0135,0.003));
#963=CARTESIAN_POINT('',(-0.00797927405783632,0.0135,0.003));
#964=CARTESIAN_POINT('',(-0.00696891108675447,0.00825,0.003));
#965=CARTESIAN_POINT('',(-0.00797927405783631,0.0065,0.003));
#966=CARTESIAN_POINT('',(-0.00797927405783631,0.0065,0.003));
#967=CARTESIAN_POINT('',(-0.00696891108675447,0.00825,0.003));
#968=CARTESIAN_POINT('',(-0.01,0.0065,0.003));
#969=CARTESIAN_POINT('',(-0.0120207259421637,0.0065,0.003));
#970=CARTESIAN_POINT('',(-0.0120207259421637,0.0065,0.003));
#971=CARTESIAN_POINT('',(-0.01,0.0065,0.003));
#972=CARTESIAN_POINT('',(-0.0130310889132455,0.00825,0.003));
#973=CARTESIAN_POINT('',(-0.0140414518843274,0.01,0.003));
#974=CARTESIAN_POINT('',(-0.0140414518843274,0.01,0.003));
#975=CARTESIAN_POINT('',(-0.0130310889132455,0.00825,0.003));
#976=CARTESIAN_POINT('',(-0.0130310889132455,0.01175,0.003));
#977=CARTESIAN_POINT('',(-0.0120207259421637,0.0135,0.003));
#978=CARTESIAN_POINT('',(-0.0120207259421637,0.0135,0.003));
#979=CARTESIAN_POINT('',(-0.0130310889132455,0.01175,0.003));
#980=CARTESIAN_POINT('',(-0.01,0.0135,0.003));
#981=CARTESIAN_POINT('',(-0.01,0.0135,0.003));
#982=CARTESIAN_POINT('',(-0.00225,0.,0.003));
#983=CARTESIAN_POINT('',(-0.0130310889132455,-0.00825,0.003));
#984=CARTESIAN_POINT('',(-0.0120207259421637,-0.0065,0.003));
#985=CARTESIAN_POINT('',(-0.0120207259421637,-0.0065,0.003));
#986=CARTESIAN_POINT('',(-0.0130310889132455,-0.00825,0.003));
#987=CARTESIAN_POINT('',(-0.0140414518843274,-0.01,0.003));
#988=CARTESIAN_POINT('',(-0.0140414518843274,-0.01,0.003));
#989=CARTESIAN_POINT('',(-0.01,-0.0065,0.003));
#990=CARTESIAN_POINT('',(-0.00797927405783631,-0.0065,0.003));
#991=CARTESIAN_POINT('',(-0.00797927405783631,-0.0065,0.003));
#992=CARTESIAN_POINT('',(-0.01,-0.0065,0.003));
#993=CARTESIAN_POINT('',(-0.00696891108675447,-0.00825,0.003));
#994=CARTESIAN_POINT('',(-0.00595854811567262,-0.01,0.003));
#995=CARTESIAN_POINT('',(-0.00595854811567262,-0.01,0.003));
#996=CARTESIAN_POINT('',(-0.00696891108675447,-0.00825,0.003));
#997=CARTESIAN_POINT('',(-0.00696891108675447,-0.01175,0.003));
#998=CARTESIAN_POINT('',(-0.00797927405783631,-0.0135,0.003));
#999=CARTESIAN_POINT('',(-0.00797927405783631,-0.0135,0.003));
#1000=CARTESIAN_POINT('',(-0.00696891108675447,-0.01175,0.003));
#1001=CARTESIAN_POINT('',(-0.01,-0.0135,0.003));
#1002=CARTESIAN_POINT('',(-0.0120207259421637,-0.0135,0.003));
#1003=CARTESIAN_POINT('',(-0.0120207259421637,-0.0135,0.003));
#1004=CARTESIAN_POINT('',(-0.01,-0.0135,0.003));
#1005=CARTESIAN_POINT('',(-0.0130310889132455,-0.01175,0.003));
#1006=CARTESIAN_POINT('',(-0.0130310889132455,-0.01175,0.003));
#1007=CARTESIAN_POINT('',(-0.00225,0.,0.003));
#1008=CARTESIAN_POINT('',(-0.013,0.0145,0.009));
#1009=CARTESIAN_POINT('',(-0.013,-0.0145,0.009));
#1010=MECHANICAL_DESIGN_GEOMETRIC_PRESENTATION_REPRESENTATION('',(#615),
#1011);
#1011=(
GEOMETRIC_REPRESENTATION_CONTEXT(3)
GLOBAL_UNCERTAINTY_ASSIGNED_CONTEXT((#1012))
GLOBAL_UNIT_ASSIGNED_CONTEXT((#1015,#1014,#1013))
REPRESENTATION_CONTEXT('Hinge','TOP_LEVEL_ASSEMBLY_PART')
);
#1012=UNCERTAINTY_MEASURE_WITH_UNIT(LENGTH_MEASURE(1.E-8),#1015,
'DISTANCE_ACCURACY_VALUE','Maximum Tolerance applied to model');
#1013=(
NAMED_UNIT(*)
SI_UNIT($,.STERADIAN.)
SOLID_ANGLE_UNIT()
);
#1014=(
NAMED_UNIT(*)
PLANE_ANGLE_UNIT()
SI_UNIT($,.RADIAN.)
);
#1015=(
LENGTH_UNIT()
NAMED_UNIT(*)
SI_UNIT($,.METRE.)
);
#1016=PRODUCT_DEFINITION_SHAPE('','',#1017);
#1017=PRODUCT_DEFINITION('','',#1019,#1018);
#1018=PRODUCT_DEFINITION_CONTEXT('',#1025,'design');
#1019=PRODUCT_DEFINITION_FORMATION_WITH_SPECIFIED_SOURCE('','',#1021,
 .NOT_KNOWN.);
#1020=PRODUCT_RELATED_PRODUCT_CATEGORY('','',(#1021));
#1021=PRODUCT('Hinge','Hinge','Hinge',(#1023));
#1022=PRODUCT_CATEGORY('','');
#1023=PRODUCT_CONTEXT('',#1025,'mechanical');
#1024=APPLICATION_PROTOCOL_DEFINITION('international standard',
'ap242_managed_model_based_3d_engineering',2011,#1025);
#1025=APPLICATION_CONTEXT('managed model based 3d engineering');
ENDSEC;
END-ISO-10303-21;
